  0
SECTION
  2
HEADER
  9
$ACADVER
  1
AC1009
  9
$EXTMIN
 10
0.0
 20
0.0
 30
0.0
  9
$EXTMAX
 10
1000.0
 20
1000.0
 30
0.0
  9
$FILLMODE
 70
 0
  9
$SPLFRAME
 70
 1
  0
ENDSEC
  0
SECTION
  2
TABLES
  0
TABLE
  2
LAYER
 70
1
  0
LAYER
  2
0
 70
     0
 62
     7
  6
CONTINUOUS
  0
ENDTAB
  0
ENDSEC
  0
SECTION
  2
ENTITIES
  0
LINE
  8
0
 62
     0
 10
0.0950846
 20
95.3424
 30
0.0
 11
76.2953
 21
95.3424
 31
0.0
  0
LINE
  8
0
 62
     0
 10
76.2953
 20
95.3424
 30
0.0
 11
76.2953
 21
0.0923286
 31
0.0
  0
LINE
  8
0
 62
     0
 10
76.2953
 20
0.0923286
 30
0.0
 11
0.0950846
 21
0.0923286
 31
0.0
  0
LINE
  8
0
 62
     0
 10
0.0950846
 20
0.0923286
 30
0.0
 11
0.0950846
 21
95.3424
 31
0.0
  0
LINE
  8
0
 62
     0
 10
2.61965
 20
16.6178
 30
0.0
 11
2.61965
 21
15.6173
 31
0.0
  0
LINE
  8
0
 62
     0
 10
2.61965
 20
15.6173
 30
0.0
 11
1.82039
 21
15.6173
 31
0.0
  0
LINE
  8
0
 62
     0
 10
1.82039
 20
15.6173
 30
0.0
 11
1.82039
 21
12.5181
 31
0.0
  0
LINE
  8
0
 62
     0
 10
1.82039
 20
12.5181
 30
0.0
 11
2.61965
 21
12.5181
 31
0.0
  0
LINE
  8
0
 62
     0
 10
2.61965
 20
12.5181
 30
0.0
 11
2.61965
 21
6.71795
 31
0.0
  0
LINE
  8
0
 62
     0
 10
2.61965
 20
6.71795
 30
0.0
 11
1.82039
 21
6.71795
 31
0.0
  0
LINE
  8
0
 62
     0
 10
1.82039
 20
6.71795
 30
0.0
 11
1.82039
 21
3.61735
 31
0.0
  0
LINE
  8
0
 62
     0
 10
1.82039
 20
3.61735
 30
0.0
 11
2.61965
 21
3.61735
 31
0.0
  0
LINE
  8
0
 62
     0
 10
2.61965
 20
3.61735
 30
0.0
 11
2.61965
 21
2.61827
 31
0.0
  0
LINE
  8
0
 62
     0
 10
2.61965
 20
2.61827
 30
0.0
 11
16.6192
 21
2.61827
 31
0.0
  0
LINE
  8
0
 62
     0
 10
16.6192
 20
2.61827
 30
0.0
 11
16.6192
 21
3.61735
 31
0.0
  0
LINE
  8
0
 62
     0
 10
16.6192
 20
3.61735
 30
0.0
 11
17.4198
 21
3.61735
 31
0.0
  0
LINE
  8
0
 62
     0
 10
17.4198
 20
3.61735
 30
0.0
 11
17.4198
 21
6.71795
 31
0.0
  0
LINE
  8
0
 62
     0
 10
17.4198
 20
6.71795
 30
0.0
 11
16.6192
 21
6.71795
 31
0.0
  0
LINE
  8
0
 62
     0
 10
16.6192
 20
6.71795
 30
0.0
 11
16.6192
 21
12.5181
 31
0.0
  0
LINE
  8
0
 62
     0
 10
16.6192
 20
12.5181
 30
0.0
 11
17.4198
 21
12.5181
 31
0.0
  0
LINE
  8
0
 62
     0
 10
17.4198
 20
12.5181
 30
0.0
 11
17.4198
 21
15.6173
 31
0.0
  0
LINE
  8
0
 62
     0
 10
17.4198
 20
15.6173
 30
0.0
 11
16.6192
 21
15.6173
 31
0.0
  0
LINE
  8
0
 62
     0
 10
16.6192
 20
15.6173
 30
0.0
 11
16.6192
 21
16.6178
 31
0.0
  0
LINE
  8
0
 62
     0
 10
16.6192
 20
16.6178
 30
0.0
 11
2.61965
 21
16.6178
 31
0.0
  0
LINE
  8
0
 62
     0
 10
21.6697
 20
16.6178
 30
0.0
 11
21.6697
 21
15.6173
 31
0.0
  0
LINE
  8
0
 62
     0
 10
21.6697
 20
15.6173
 30
0.0
 11
20.8704
 21
15.6173
 31
0.0
  0
LINE
  8
0
 62
     0
 10
20.8704
 20
15.6173
 30
0.0
 11
20.8704
 21
12.5181
 31
0.0
  0
LINE
  8
0
 62
     0
 10
20.8704
 20
12.5181
 30
0.0
 11
21.6697
 21
12.5181
 31
0.0
  0
LINE
  8
0
 62
     0
 10
21.6697
 20
12.5181
 30
0.0
 11
21.6697
 21
6.71795
 31
0.0
  0
LINE
  8
0
 62
     0
 10
21.6697
 20
6.71795
 30
0.0
 11
20.8704
 21
6.71795
 31
0.0
  0
LINE
  8
0
 62
     0
 10
20.8704
 20
6.71795
 30
0.0
 11
20.8704
 21
3.61735
 31
0.0
  0
LINE
  8
0
 62
     0
 10
20.8704
 20
3.61735
 30
0.0
 11
21.6697
 21
3.61735
 31
0.0
  0
LINE
  8
0
 62
     0
 10
21.6697
 20
3.61735
 30
0.0
 11
21.6697
 21
2.61827
 31
0.0
  0
LINE
  8
0
 62
     0
 10
21.6697
 20
2.61827
 30
0.0
 11
35.669
 21
2.61827
 31
0.0
  0
LINE
  8
0
 62
     0
 10
35.669
 20
2.61827
 30
0.0
 11
35.669
 21
3.61735
 31
0.0
  0
LINE
  8
0
 62
     0
 10
35.669
 20
3.61735
 30
0.0
 11
36.4698
 21
3.61735
 31
0.0
  0
LINE
  8
0
 62
     0
 10
36.4698
 20
3.61735
 30
0.0
 11
36.4698
 21
6.71795
 31
0.0
  0
LINE
  8
0
 62
     0
 10
36.4698
 20
6.71795
 30
0.0
 11
35.669
 21
6.71795
 31
0.0
  0
LINE
  8
0
 62
     0
 10
35.669
 20
6.71795
 30
0.0
 11
35.669
 21
12.5181
 31
0.0
  0
LINE
  8
0
 62
     0
 10
35.669
 20
12.5181
 30
0.0
 11
36.4698
 21
12.5181
 31
0.0
  0
LINE
  8
0
 62
     0
 10
36.4698
 20
12.5181
 30
0.0
 11
36.4698
 21
15.6173
 31
0.0
  0
LINE
  8
0
 62
     0
 10
36.4698
 20
15.6173
 30
0.0
 11
35.669
 21
15.6173
 31
0.0
  0
LINE
  8
0
 62
     0
 10
35.669
 20
15.6173
 30
0.0
 11
35.669
 21
16.6178
 31
0.0
  0
LINE
  8
0
 62
     0
 10
35.669
 20
16.6178
 30
0.0
 11
21.6697
 21
16.6178
 31
0.0
  0
LINE
  8
0
 62
     0
 10
40.7197
 20
16.6178
 30
0.0
 11
40.7197
 21
15.6173
 31
0.0
  0
LINE
  8
0
 62
     0
 10
40.7197
 20
15.6173
 30
0.0
 11
39.9203
 21
15.6173
 31
0.0
  0
LINE
  8
0
 62
     0
 10
39.9203
 20
15.6173
 30
0.0
 11
39.9203
 21
12.5181
 31
0.0
  0
LINE
  8
0
 62
     0
 10
39.9203
 20
12.5181
 30
0.0
 11
40.7197
 21
12.5181
 31
0.0
  0
LINE
  8
0
 62
     0
 10
40.7197
 20
12.5181
 30
0.0
 11
40.7197
 21
6.71795
 31
0.0
  0
LINE
  8
0
 62
     0
 10
40.7197
 20
6.71795
 30
0.0
 11
39.9203
 21
6.71795
 31
0.0
  0
LINE
  8
0
 62
     0
 10
39.9203
 20
6.71795
 30
0.0
 11
39.9203
 21
3.61735
 31
0.0
  0
LINE
  8
0
 62
     0
 10
39.9203
 20
3.61735
 30
0.0
 11
40.7197
 21
3.61735
 31
0.0
  0
LINE
  8
0
 62
     0
 10
40.7197
 20
3.61735
 30
0.0
 11
40.7197
 21
2.61827
 31
0.0
  0
LINE
  8
0
 62
     0
 10
40.7197
 20
2.61827
 30
0.0
 11
54.719
 21
2.61827
 31
0.0
  0
LINE
  8
0
 62
     0
 10
54.719
 20
2.61827
 30
0.0
 11
54.719
 21
3.61735
 31
0.0
  0
LINE
  8
0
 62
     0
 10
54.719
 20
3.61735
 30
0.0
 11
55.5198
 21
3.61735
 31
0.0
  0
LINE
  8
0
 62
     0
 10
55.5198
 20
3.61735
 30
0.0
 11
55.5198
 21
6.71795
 31
0.0
  0
LINE
  8
0
 62
     0
 10
55.5198
 20
6.71795
 30
0.0
 11
54.719
 21
6.71795
 31
0.0
  0
LINE
  8
0
 62
     0
 10
54.719
 20
6.71795
 30
0.0
 11
54.719
 21
12.5181
 31
0.0
  0
LINE
  8
0
 62
     0
 10
54.719
 20
12.5181
 30
0.0
 11
55.5198
 21
12.5181
 31
0.0
  0
LINE
  8
0
 62
     0
 10
55.5198
 20
12.5181
 30
0.0
 11
55.5198
 21
15.6173
 31
0.0
  0
LINE
  8
0
 62
     0
 10
55.5198
 20
15.6173
 30
0.0
 11
54.719
 21
15.6173
 31
0.0
  0
LINE
  8
0
 62
     0
 10
54.719
 20
15.6173
 30
0.0
 11
54.719
 21
16.6178
 31
0.0
  0
LINE
  8
0
 62
     0
 10
54.719
 20
16.6178
 30
0.0
 11
40.7197
 21
16.6178
 31
0.0
  0
LINE
  8
0
 62
     0
 10
66.27
 20
35.2433
 30
0.0
 11
66.27
 21
34.4179
 31
0.0
  0
LINE
  8
0
 62
     0
 10
66.27
 20
34.4179
 30
0.0
 11
59.9997
 21
34.4179
 31
0.0
  0
LINE
  8
0
 62
     0
 10
59.9997
 20
34.4179
 30
0.0
 11
59.9997
 21
32.6926
 31
0.0
  0
LINE
  8
0
 62
     0
 10
59.9997
 20
32.6926
 30
0.0
 11
58.7996
 21
32.6926
 31
0.0
  0
LINE
  8
0
 62
     0
 10
58.7996
 20
32.6926
 30
0.0
 11
58.7996
 21
29.3922
 31
0.0
  0
LINE
  8
0
 62
     0
 10
58.7996
 20
29.3922
 30
0.0
 11
59.9997
 21
29.3922
 31
0.0
  0
LINE
  8
0
 62
     0
 10
59.9997
 20
29.3922
 30
0.0
 11
59.9997
 21
27.6683
 31
0.0
  0
LINE
  8
0
 62
     0
 10
59.9997
 20
27.6683
 30
0.0
 11
64.4701
 21
27.6683
 31
0.0
  0
LINE
  8
0
 62
     0
 10
64.4701
 20
27.6683
 30
0.0
 11
64.4701
 21
26.1428
 31
0.0
  0
LINE
  8
0
 62
     0
 10
64.4701
 20
26.1428
 30
0.0
 11
63.8694
 21
26.1428
 31
0.0
  0
LINE
  8
0
 62
     0
 10
63.8694
 20
26.1428
 30
0.0
 11
63.8694
 21
26.942
 31
0.0
  0
LINE
  8
0
 62
     0
 10
63.8694
 20
26.942
 30
0.0
 11
60.7702
 21
26.942
 31
0.0
  0
LINE
  8
0
 62
     0
 10
60.7702
 20
26.942
 30
0.0
 11
60.7702
 21
26.1428
 31
0.0
  0
LINE
  8
0
 62
     0
 10
60.7702
 20
26.1428
 30
0.0
 11
59.7697
 21
26.1428
 31
0.0
  0
LINE
  8
0
 62
     0
 10
59.7697
 20
26.1428
 30
0.0
 11
59.7697
 21
12.1433
 31
0.0
  0
LINE
  8
0
 62
     0
 10
59.7697
 20
12.1433
 30
0.0
 11
60.7702
 21
12.1433
 31
0.0
  0
LINE
  8
0
 62
     0
 10
60.7702
 20
12.1433
 30
0.0
 11
60.7702
 21
11.3426
 31
0.0
  0
LINE
  8
0
 62
     0
 10
60.7702
 20
11.3426
 30
0.0
 11
63.8694
 21
11.3426
 31
0.0
  0
LINE
  8
0
 62
     0
 10
63.8694
 20
11.3426
 30
0.0
 11
63.8694
 21
12.1433
 31
0.0
  0
LINE
  8
0
 62
     0
 10
63.8694
 20
12.1433
 30
0.0
 11
64.4701
 21
12.1433
 31
0.0
  0
LINE
  8
0
 62
     0
 10
64.4701
 20
12.1433
 30
0.0
 11
64.4701
 21
10.6178
 31
0.0
  0
LINE
  8
0
 62
     0
 10
64.4701
 20
10.6178
 30
0.0
 11
59.9997
 21
10.6178
 31
0.0
  0
LINE
  8
0
 62
     0
 10
59.9997
 20
10.6178
 30
0.0
 11
59.9997
 21
8.89247
 31
0.0
  0
LINE
  8
0
 62
     0
 10
59.9997
 20
8.89247
 30
0.0
 11
58.7996
 21
8.89247
 31
0.0
  0
LINE
  8
0
 62
     0
 10
58.7996
 20
8.89247
 30
0.0
 11
58.7996
 21
5.59209
 31
0.0
  0
LINE
  8
0
 62
     0
 10
58.7996
 20
5.59209
 30
0.0
 11
59.9997
 21
5.59209
 31
0.0
  0
LINE
  8
0
 62
     0
 10
59.9997
 20
5.59209
 30
0.0
 11
59.9997
 21
3.86814
 31
0.0
  0
LINE
  8
0
 62
     0
 10
59.9997
 20
3.86814
 30
0.0
 11
66.27
 21
3.86814
 31
0.0
  0
LINE
  8
0
 62
     0
 10
66.27
 20
3.86814
 30
0.0
 11
66.27
 21
3.04271
 31
0.0
  0
LINE
  8
0
 62
     0
 10
66.27
 20
3.04271
 30
0.0
 11
69.07
 21
3.04271
 31
0.0
  0
LINE
  8
0
 62
     0
 10
69.07
 20
3.04271
 30
0.0
 11
69.07
 21
3.86814
 31
0.0
  0
LINE
  8
0
 62
     0
 10
69.07
 20
3.86814
 30
0.0
 11
72.3
 21
3.86814
 31
0.0
  0
LINE
  8
0
 62
     0
 10
72.3
 20
3.86814
 30
0.0
 11
72.3
 21
10.6178
 31
0.0
  0
LINE
  8
0
 62
     0
 10
72.3
 20
10.6178
 30
0.0
 11
69.07
 21
10.6178
 31
0.0
  0
LINE
  8
0
 62
     0
 10
69.07
 20
10.6178
 30
0.0
 11
69.07
 21
12.1433
 31
0.0
  0
LINE
  8
0
 62
     0
 10
69.07
 20
12.1433
 30
0.0
 11
69.6694
 21
12.1433
 31
0.0
  0
LINE
  8
0
 62
     0
 10
69.6694
 20
12.1433
 30
0.0
 11
69.6694
 21
11.3426
 31
0.0
  0
LINE
  8
0
 62
     0
 10
69.6694
 20
11.3426
 30
0.0
 11
72.7699
 21
11.3426
 31
0.0
  0
LINE
  8
0
 62
     0
 10
72.7699
 20
11.3426
 30
0.0
 11
72.7699
 21
12.1433
 31
0.0
  0
LINE
  8
0
 62
     0
 10
72.7699
 20
12.1433
 30
0.0
 11
73.769
 21
12.1433
 31
0.0
  0
LINE
  8
0
 62
     0
 10
73.769
 20
12.1433
 30
0.0
 11
73.769
 21
26.1428
 31
0.0
  0
LINE
  8
0
 62
     0
 10
73.769
 20
26.1428
 30
0.0
 11
72.7699
 21
26.1428
 31
0.0
  0
LINE
  8
0
 62
     0
 10
72.7699
 20
26.1428
 30
0.0
 11
72.7699
 21
26.942
 31
0.0
  0
LINE
  8
0
 62
     0
 10
72.7699
 20
26.942
 30
0.0
 11
69.6694
 21
26.942
 31
0.0
  0
LINE
  8
0
 62
     0
 10
69.6694
 20
26.942
 30
0.0
 11
69.6694
 21
26.1428
 31
0.0
  0
LINE
  8
0
 62
     0
 10
69.6694
 20
26.1428
 30
0.0
 11
69.07
 21
26.1428
 31
0.0
  0
LINE
  8
0
 62
     0
 10
69.07
 20
26.1428
 30
0.0
 11
69.07
 21
27.6683
 31
0.0
  0
LINE
  8
0
 62
     0
 10
69.07
 20
27.6683
 30
0.0
 11
72.3
 21
27.6683
 31
0.0
  0
LINE
  8
0
 62
     0
 10
72.3
 20
27.6683
 30
0.0
 11
72.3
 21
34.4179
 31
0.0
  0
LINE
  8
0
 62
     0
 10
72.3
 20
34.4179
 30
0.0
 11
69.07
 21
34.4179
 31
0.0
  0
LINE
  8
0
 62
     0
 10
69.07
 20
34.4179
 30
0.0
 11
69.07
 21
35.2433
 31
0.0
  0
LINE
  8
0
 62
     0
 10
69.07
 20
35.2433
 30
0.0
 11
66.27
 21
35.2433
 31
0.0
  0
LINE
  8
0
 62
     0
 10
2.61965
 20
35.6676
 30
0.0
 11
2.61965
 21
34.6673
 31
0.0
  0
LINE
  8
0
 62
     0
 10
2.61965
 20
34.6673
 30
0.0
 11
1.82039
 21
34.6673
 31
0.0
  0
LINE
  8
0
 62
     0
 10
1.82039
 20
34.6673
 30
0.0
 11
1.82039
 21
31.5681
 31
0.0
  0
LINE
  8
0
 62
     0
 10
1.82039
 20
31.5681
 30
0.0
 11
2.61965
 21
31.5681
 31
0.0
  0
LINE
  8
0
 62
     0
 10
2.61965
 20
31.5681
 30
0.0
 11
2.61965
 21
25.7679
 31
0.0
  0
LINE
  8
0
 62
     0
 10
2.61965
 20
25.7679
 30
0.0
 11
1.82039
 21
25.7679
 31
0.0
  0
LINE
  8
0
 62
     0
 10
1.82039
 20
25.7679
 30
0.0
 11
1.82039
 21
22.6673
 31
0.0
  0
LINE
  8
0
 62
     0
 10
1.82039
 20
22.6673
 30
0.0
 11
2.61965
 21
22.6673
 31
0.0
  0
LINE
  8
0
 62
     0
 10
2.61965
 20
22.6673
 30
0.0
 11
2.61965
 21
21.6683
 31
0.0
  0
LINE
  8
0
 62
     0
 10
2.61965
 20
21.6683
 30
0.0
 11
16.6192
 21
21.6683
 31
0.0
  0
LINE
  8
0
 62
     0
 10
16.6192
 20
21.6683
 30
0.0
 11
16.6192
 21
22.6673
 31
0.0
  0
LINE
  8
0
 62
     0
 10
16.6192
 20
22.6673
 30
0.0
 11
17.4198
 21
22.6673
 31
0.0
  0
LINE
  8
0
 62
     0
 10
17.4198
 20
22.6673
 30
0.0
 11
17.4198
 21
25.7679
 31
0.0
  0
LINE
  8
0
 62
     0
 10
17.4198
 20
25.7679
 30
0.0
 11
16.6192
 21
25.7679
 31
0.0
  0
LINE
  8
0
 62
     0
 10
16.6192
 20
25.7679
 30
0.0
 11
16.6192
 21
31.5681
 31
0.0
  0
LINE
  8
0
 62
     0
 10
16.6192
 20
31.5681
 30
0.0
 11
17.4198
 21
31.5681
 31
0.0
  0
LINE
  8
0
 62
     0
 10
17.4198
 20
31.5681
 30
0.0
 11
17.4198
 21
34.6673
 31
0.0
  0
LINE
  8
0
 62
     0
 10
17.4198
 20
34.6673
 30
0.0
 11
16.6192
 21
34.6673
 31
0.0
  0
LINE
  8
0
 62
     0
 10
16.6192
 20
34.6673
 30
0.0
 11
16.6192
 21
35.6676
 31
0.0
  0
LINE
  8
0
 62
     0
 10
16.6192
 20
35.6676
 30
0.0
 11
2.61965
 21
35.6676
 31
0.0
  0
LINE
  8
0
 62
     0
 10
21.6697
 20
35.6676
 30
0.0
 11
21.6697
 21
34.6673
 31
0.0
  0
LINE
  8
0
 62
     0
 10
21.6697
 20
34.6673
 30
0.0
 11
20.8704
 21
34.6673
 31
0.0
  0
LINE
  8
0
 62
     0
 10
20.8704
 20
34.6673
 30
0.0
 11
20.8704
 21
31.5681
 31
0.0
  0
LINE
  8
0
 62
     0
 10
20.8704
 20
31.5681
 30
0.0
 11
21.6697
 21
31.5681
 31
0.0
  0
LINE
  8
0
 62
     0
 10
21.6697
 20
31.5681
 30
0.0
 11
21.6697
 21
25.7679
 31
0.0
  0
LINE
  8
0
 62
     0
 10
21.6697
 20
25.7679
 30
0.0
 11
20.8704
 21
25.7679
 31
0.0
  0
LINE
  8
0
 62
     0
 10
20.8704
 20
25.7679
 30
0.0
 11
20.8704
 21
22.6673
 31
0.0
  0
LINE
  8
0
 62
     0
 10
20.8704
 20
22.6673
 30
0.0
 11
21.6697
 21
22.6673
 31
0.0
  0
LINE
  8
0
 62
     0
 10
21.6697
 20
22.6673
 30
0.0
 11
21.6697
 21
21.6683
 31
0.0
  0
LINE
  8
0
 62
     0
 10
21.6697
 20
21.6683
 30
0.0
 11
35.669
 21
21.6683
 31
0.0
  0
LINE
  8
0
 62
     0
 10
35.669
 20
21.6683
 30
0.0
 11
35.669
 21
22.6673
 31
0.0
  0
LINE
  8
0
 62
     0
 10
35.669
 20
22.6673
 30
0.0
 11
36.4698
 21
22.6673
 31
0.0
  0
LINE
  8
0
 62
     0
 10
36.4698
 20
22.6673
 30
0.0
 11
36.4698
 21
25.7679
 31
0.0
  0
LINE
  8
0
 62
     0
 10
36.4698
 20
25.7679
 30
0.0
 11
35.669
 21
25.7679
 31
0.0
  0
LINE
  8
0
 62
     0
 10
35.669
 20
25.7679
 30
0.0
 11
35.669
 21
31.5681
 31
0.0
  0
LINE
  8
0
 62
     0
 10
35.669
 20
31.5681
 30
0.0
 11
36.4698
 21
31.5681
 31
0.0
  0
LINE
  8
0
 62
     0
 10
36.4698
 20
31.5681
 30
0.0
 11
36.4698
 21
34.6673
 31
0.0
  0
LINE
  8
0
 62
     0
 10
36.4698
 20
34.6673
 30
0.0
 11
35.669
 21
34.6673
 31
0.0
  0
LINE
  8
0
 62
     0
 10
35.669
 20
34.6673
 30
0.0
 11
35.669
 21
35.6676
 31
0.0
  0
LINE
  8
0
 62
     0
 10
35.669
 20
35.6676
 30
0.0
 11
21.6697
 21
35.6676
 31
0.0
  0
LINE
  8
0
 62
     0
 10
40.7197
 20
35.6676
 30
0.0
 11
40.7197
 21
34.6673
 31
0.0
  0
LINE
  8
0
 62
     0
 10
40.7197
 20
34.6673
 30
0.0
 11
39.9203
 21
34.6673
 31
0.0
  0
LINE
  8
0
 62
     0
 10
39.9203
 20
34.6673
 30
0.0
 11
39.9203
 21
31.5681
 31
0.0
  0
LINE
  8
0
 62
     0
 10
39.9203
 20
31.5681
 30
0.0
 11
40.7197
 21
31.5681
 31
0.0
  0
LINE
  8
0
 62
     0
 10
40.7197
 20
31.5681
 30
0.0
 11
40.7197
 21
25.7679
 31
0.0
  0
LINE
  8
0
 62
     0
 10
40.7197
 20
25.7679
 30
0.0
 11
39.9203
 21
25.7679
 31
0.0
  0
LINE
  8
0
 62
     0
 10
39.9203
 20
25.7679
 30
0.0
 11
39.9203
 21
22.6673
 31
0.0
  0
LINE
  8
0
 62
     0
 10
39.9203
 20
22.6673
 30
0.0
 11
40.7197
 21
22.6673
 31
0.0
  0
LINE
  8
0
 62
     0
 10
40.7197
 20
22.6673
 30
0.0
 11
40.7197
 21
21.6683
 31
0.0
  0
LINE
  8
0
 62
     0
 10
40.7197
 20
21.6683
 30
0.0
 11
54.719
 21
21.6683
 31
0.0
  0
LINE
  8
0
 62
     0
 10
54.719
 20
21.6683
 30
0.0
 11
54.719
 21
22.6673
 31
0.0
  0
LINE
  8
0
 62
     0
 10
54.719
 20
22.6673
 30
0.0
 11
55.5198
 21
22.6673
 31
0.0
  0
LINE
  8
0
 62
     0
 10
55.5198
 20
22.6673
 30
0.0
 11
55.5198
 21
25.7679
 31
0.0
  0
LINE
  8
0
 62
     0
 10
55.5198
 20
25.7679
 30
0.0
 11
54.719
 21
25.7679
 31
0.0
  0
LINE
  8
0
 62
     0
 10
54.719
 20
25.7679
 30
0.0
 11
54.719
 21
31.5681
 31
0.0
  0
LINE
  8
0
 62
     0
 10
54.719
 20
31.5681
 30
0.0
 11
55.5198
 21
31.5681
 31
0.0
  0
LINE
  8
0
 62
     0
 10
55.5198
 20
31.5681
 30
0.0
 11
55.5198
 21
34.6673
 31
0.0
  0
LINE
  8
0
 62
     0
 10
55.5198
 20
34.6673
 30
0.0
 11
54.719
 21
34.6673
 31
0.0
  0
LINE
  8
0
 62
     0
 10
54.719
 20
34.6673
 30
0.0
 11
54.719
 21
35.6676
 31
0.0
  0
LINE
  8
0
 62
     0
 10
54.719
 20
35.6676
 30
0.0
 11
40.7197
 21
35.6676
 31
0.0
  0
LINE
  8
0
 62
     0
 10
2.61965
 20
54.7176
 30
0.0
 11
2.61965
 21
53.7175
 31
0.0
  0
LINE
  8
0
 62
     0
 10
2.61965
 20
53.7175
 30
0.0
 11
1.82039
 21
53.7175
 31
0.0
  0
LINE
  8
0
 62
     0
 10
1.82039
 20
53.7175
 30
0.0
 11
1.82039
 21
50.618
 31
0.0
  0
LINE
  8
0
 62
     0
 10
1.82039
 20
50.618
 30
0.0
 11
2.61965
 21
50.618
 31
0.0
  0
LINE
  8
0
 62
     0
 10
2.61965
 20
50.618
 30
0.0
 11
2.61965
 21
44.8179
 31
0.0
  0
LINE
  8
0
 62
     0
 10
2.61965
 20
44.8179
 30
0.0
 11
1.82039
 21
44.8179
 31
0.0
  0
LINE
  8
0
 62
     0
 10
1.82039
 20
44.8179
 30
0.0
 11
1.82039
 21
41.7174
 31
0.0
  0
LINE
  8
0
 62
     0
 10
1.82039
 20
41.7174
 30
0.0
 11
2.61965
 21
41.7174
 31
0.0
  0
LINE
  8
0
 62
     0
 10
2.61965
 20
41.7174
 30
0.0
 11
2.61965
 21
40.7183
 31
0.0
  0
LINE
  8
0
 62
     0
 10
2.61965
 20
40.7183
 30
0.0
 11
16.6192
 21
40.7183
 31
0.0
  0
LINE
  8
0
 62
     0
 10
16.6192
 20
40.7183
 30
0.0
 11
16.6192
 21
41.7174
 31
0.0
  0
LINE
  8
0
 62
     0
 10
16.6192
 20
41.7174
 30
0.0
 11
17.4198
 21
41.7174
 31
0.0
  0
LINE
  8
0
 62
     0
 10
17.4198
 20
41.7174
 30
0.0
 11
17.4198
 21
44.8179
 31
0.0
  0
LINE
  8
0
 62
     0
 10
17.4198
 20
44.8179
 30
0.0
 11
16.6192
 21
44.8179
 31
0.0
  0
LINE
  8
0
 62
     0
 10
16.6192
 20
44.8179
 30
0.0
 11
16.6192
 21
50.618
 31
0.0
  0
LINE
  8
0
 62
     0
 10
16.6192
 20
50.618
 30
0.0
 11
17.4198
 21
50.618
 31
0.0
  0
LINE
  8
0
 62
     0
 10
17.4198
 20
50.618
 30
0.0
 11
17.4198
 21
53.7175
 31
0.0
  0
LINE
  8
0
 62
     0
 10
17.4198
 20
53.7175
 30
0.0
 11
16.6192
 21
53.7175
 31
0.0
  0
LINE
  8
0
 62
     0
 10
16.6192
 20
53.7175
 30
0.0
 11
16.6192
 21
54.7176
 31
0.0
  0
LINE
  8
0
 62
     0
 10
16.6192
 20
54.7176
 30
0.0
 11
2.61965
 21
54.7176
 31
0.0
  0
LINE
  8
0
 62
     0
 10
21.6697
 20
54.7176
 30
0.0
 11
21.6697
 21
53.7175
 31
0.0
  0
LINE
  8
0
 62
     0
 10
21.6697
 20
53.7175
 30
0.0
 11
20.8704
 21
53.7175
 31
0.0
  0
LINE
  8
0
 62
     0
 10
20.8704
 20
53.7175
 30
0.0
 11
20.8704
 21
50.618
 31
0.0
  0
LINE
  8
0
 62
     0
 10
20.8704
 20
50.618
 30
0.0
 11
21.6697
 21
50.618
 31
0.0
  0
LINE
  8
0
 62
     0
 10
21.6697
 20
50.618
 30
0.0
 11
21.6697
 21
44.8179
 31
0.0
  0
LINE
  8
0
 62
     0
 10
21.6697
 20
44.8179
 30
0.0
 11
20.8704
 21
44.8179
 31
0.0
  0
LINE
  8
0
 62
     0
 10
20.8704
 20
44.8179
 30
0.0
 11
20.8704
 21
41.7174
 31
0.0
  0
LINE
  8
0
 62
     0
 10
20.8704
 20
41.7174
 30
0.0
 11
21.6697
 21
41.7174
 31
0.0
  0
LINE
  8
0
 62
     0
 10
21.6697
 20
41.7174
 30
0.0
 11
21.6697
 21
40.7183
 31
0.0
  0
LINE
  8
0
 62
     0
 10
21.6697
 20
40.7183
 30
0.0
 11
35.669
 21
40.7183
 31
0.0
  0
LINE
  8
0
 62
     0
 10
35.669
 20
40.7183
 30
0.0
 11
35.669
 21
41.7174
 31
0.0
  0
LINE
  8
0
 62
     0
 10
35.669
 20
41.7174
 30
0.0
 11
36.4698
 21
41.7174
 31
0.0
  0
LINE
  8
0
 62
     0
 10
36.4698
 20
41.7174
 30
0.0
 11
36.4698
 21
44.8179
 31
0.0
  0
LINE
  8
0
 62
     0
 10
36.4698
 20
44.8179
 30
0.0
 11
35.669
 21
44.8179
 31
0.0
  0
LINE
  8
0
 62
     0
 10
35.669
 20
44.8179
 30
0.0
 11
35.669
 21
50.618
 31
0.0
  0
LINE
  8
0
 62
     0
 10
35.669
 20
50.618
 30
0.0
 11
36.4698
 21
50.618
 31
0.0
  0
LINE
  8
0
 62
     0
 10
36.4698
 20
50.618
 30
0.0
 11
36.4698
 21
53.7175
 31
0.0
  0
LINE
  8
0
 62
     0
 10
36.4698
 20
53.7175
 30
0.0
 11
35.669
 21
53.7175
 31
0.0
  0
LINE
  8
0
 62
     0
 10
35.669
 20
53.7175
 30
0.0
 11
35.669
 21
54.7176
 31
0.0
  0
LINE
  8
0
 62
     0
 10
35.669
 20
54.7176
 30
0.0
 11
21.6697
 21
54.7176
 31
0.0
  0
LINE
  8
0
 62
     0
 10
40.7197
 20
54.7176
 30
0.0
 11
40.7197
 21
53.7175
 31
0.0
  0
LINE
  8
0
 62
     0
 10
40.7197
 20
53.7175
 30
0.0
 11
39.9203
 21
53.7175
 31
0.0
  0
LINE
  8
0
 62
     0
 10
39.9203
 20
53.7175
 30
0.0
 11
39.9203
 21
50.618
 31
0.0
  0
LINE
  8
0
 62
     0
 10
39.9203
 20
50.618
 30
0.0
 11
40.7197
 21
50.618
 31
0.0
  0
LINE
  8
0
 62
     0
 10
40.7197
 20
50.618
 30
0.0
 11
40.7197
 21
44.8179
 31
0.0
  0
LINE
  8
0
 62
     0
 10
40.7197
 20
44.8179
 30
0.0
 11
39.9203
 21
44.8179
 31
0.0
  0
LINE
  8
0
 62
     0
 10
39.9203
 20
44.8179
 30
0.0
 11
39.9203
 21
41.7174
 31
0.0
  0
LINE
  8
0
 62
     0
 10
39.9203
 20
41.7174
 30
0.0
 11
40.7197
 21
41.7174
 31
0.0
  0
LINE
  8
0
 62
     0
 10
40.7197
 20
41.7174
 30
0.0
 11
40.7197
 21
40.7183
 31
0.0
  0
LINE
  8
0
 62
     0
 10
40.7197
 20
40.7183
 30
0.0
 11
54.719
 21
40.7183
 31
0.0
  0
LINE
  8
0
 62
     0
 10
54.719
 20
40.7183
 30
0.0
 11
54.719
 21
41.7174
 31
0.0
  0
LINE
  8
0
 62
     0
 10
54.719
 20
41.7174
 30
0.0
 11
55.5198
 21
41.7174
 31
0.0
  0
LINE
  8
0
 62
     0
 10
55.5198
 20
41.7174
 30
0.0
 11
55.5198
 21
44.8179
 31
0.0
  0
LINE
  8
0
 62
     0
 10
55.5198
 20
44.8179
 30
0.0
 11
54.719
 21
44.8179
 31
0.0
  0
LINE
  8
0
 62
     0
 10
54.719
 20
44.8179
 30
0.0
 11
54.719
 21
50.618
 31
0.0
  0
LINE
  8
0
 62
     0
 10
54.719
 20
50.618
 30
0.0
 11
55.5198
 21
50.618
 31
0.0
  0
LINE
  8
0
 62
     0
 10
55.5198
 20
50.618
 30
0.0
 11
55.5198
 21
53.7175
 31
0.0
  0
LINE
  8
0
 62
     0
 10
55.5198
 20
53.7175
 30
0.0
 11
54.719
 21
53.7175
 31
0.0
  0
LINE
  8
0
 62
     0
 10
54.719
 20
53.7175
 30
0.0
 11
54.719
 21
54.7176
 31
0.0
  0
LINE
  8
0
 62
     0
 10
54.719
 20
54.7176
 30
0.0
 11
40.7197
 21
54.7176
 31
0.0
  0
LINE
  8
0
 62
     0
 10
59.7697
 20
54.7176
 30
0.0
 11
59.7697
 21
53.7175
 31
0.0
  0
LINE
  8
0
 62
     0
 10
59.7697
 20
53.7175
 30
0.0
 11
58.9703
 21
53.7175
 31
0.0
  0
LINE
  8
0
 62
     0
 10
58.9703
 20
53.7175
 30
0.0
 11
58.9703
 21
50.618
 31
0.0
  0
LINE
  8
0
 62
     0
 10
58.9703
 20
50.618
 30
0.0
 11
59.7697
 21
50.618
 31
0.0
  0
LINE
  8
0
 62
     0
 10
59.7697
 20
50.618
 30
0.0
 11
59.7697
 21
44.8179
 31
0.0
  0
LINE
  8
0
 62
     0
 10
59.7697
 20
44.8179
 30
0.0
 11
58.9703
 21
44.8179
 31
0.0
  0
LINE
  8
0
 62
     0
 10
58.9703
 20
44.8179
 30
0.0
 11
58.9703
 21
41.7174
 31
0.0
  0
LINE
  8
0
 62
     0
 10
58.9703
 20
41.7174
 30
0.0
 11
59.7697
 21
41.7174
 31
0.0
  0
LINE
  8
0
 62
     0
 10
59.7697
 20
41.7174
 30
0.0
 11
59.7697
 21
40.7183
 31
0.0
  0
LINE
  8
0
 62
     0
 10
59.7697
 20
40.7183
 30
0.0
 11
73.769
 21
40.7183
 31
0.0
  0
LINE
  8
0
 62
     0
 10
73.769
 20
40.7183
 30
0.0
 11
73.769
 21
41.7174
 31
0.0
  0
LINE
  8
0
 62
     0
 10
73.769
 20
41.7174
 30
0.0
 11
74.5698
 21
41.7174
 31
0.0
  0
LINE
  8
0
 62
     0
 10
74.5698
 20
41.7174
 30
0.0
 11
74.5698
 21
44.8179
 31
0.0
  0
LINE
  8
0
 62
     0
 10
74.5698
 20
44.8179
 30
0.0
 11
73.769
 21
44.8179
 31
0.0
  0
LINE
  8
0
 62
     0
 10
73.769
 20
44.8179
 30
0.0
 11
73.769
 21
50.618
 31
0.0
  0
LINE
  8
0
 62
     0
 10
73.769
 20
50.618
 30
0.0
 11
74.5698
 21
50.618
 31
0.0
  0
LINE
  8
0
 62
     0
 10
74.5698
 20
50.618
 30
0.0
 11
74.5698
 21
53.7175
 31
0.0
  0
LINE
  8
0
 62
     0
 10
74.5698
 20
53.7175
 30
0.0
 11
73.769
 21
53.7175
 31
0.0
  0
LINE
  8
0
 62
     0
 10
73.769
 20
53.7175
 30
0.0
 11
73.769
 21
54.7176
 31
0.0
  0
LINE
  8
0
 62
     0
 10
73.769
 20
54.7176
 30
0.0
 11
59.7697
 21
54.7176
 31
0.0
  0
LINE
  8
0
 62
     0
 10
2.61965
 20
73.7676
 30
0.0
 11
2.61965
 21
72.7675
 31
0.0
  0
LINE
  8
0
 62
     0
 10
2.61965
 20
72.7675
 30
0.0
 11
1.82039
 21
72.7675
 31
0.0
  0
LINE
  8
0
 62
     0
 10
1.82039
 20
72.7675
 30
0.0
 11
1.82039
 21
69.668
 31
0.0
  0
LINE
  8
0
 62
     0
 10
1.82039
 20
69.668
 30
0.0
 11
2.61965
 21
69.668
 31
0.0
  0
LINE
  8
0
 62
     0
 10
2.61965
 20
69.668
 30
0.0
 11
2.61965
 21
63.8679
 31
0.0
  0
LINE
  8
0
 62
     0
 10
2.61965
 20
63.8679
 30
0.0
 11
1.82039
 21
63.8679
 31
0.0
  0
LINE
  8
0
 62
     0
 10
1.82039
 20
63.8679
 30
0.0
 11
1.82039
 21
60.7674
 31
0.0
  0
LINE
  8
0
 62
     0
 10
1.82039
 20
60.7674
 30
0.0
 11
2.61965
 21
60.7674
 31
0.0
  0
LINE
  8
0
 62
     0
 10
2.61965
 20
60.7674
 30
0.0
 11
2.61965
 21
59.7683
 31
0.0
  0
LINE
  8
0
 62
     0
 10
2.61965
 20
59.7683
 30
0.0
 11
16.6192
 21
59.7683
 31
0.0
  0
LINE
  8
0
 62
     0
 10
16.6192
 20
59.7683
 30
0.0
 11
16.6192
 21
60.7674
 31
0.0
  0
LINE
  8
0
 62
     0
 10
16.6192
 20
60.7674
 30
0.0
 11
17.4198
 21
60.7674
 31
0.0
  0
LINE
  8
0
 62
     0
 10
17.4198
 20
60.7674
 30
0.0
 11
17.4198
 21
63.8679
 31
0.0
  0
LINE
  8
0
 62
     0
 10
17.4198
 20
63.8679
 30
0.0
 11
16.6192
 21
63.8679
 31
0.0
  0
LINE
  8
0
 62
     0
 10
16.6192
 20
63.8679
 30
0.0
 11
16.6192
 21
69.668
 31
0.0
  0
LINE
  8
0
 62
     0
 10
16.6192
 20
69.668
 30
0.0
 11
17.4198
 21
69.668
 31
0.0
  0
LINE
  8
0
 62
     0
 10
17.4198
 20
69.668
 30
0.0
 11
17.4198
 21
72.7675
 31
0.0
  0
LINE
  8
0
 62
     0
 10
17.4198
 20
72.7675
 30
0.0
 11
16.6192
 21
72.7675
 31
0.0
  0
LINE
  8
0
 62
     0
 10
16.6192
 20
72.7675
 30
0.0
 11
16.6192
 21
73.7676
 31
0.0
  0
LINE
  8
0
 62
     0
 10
16.6192
 20
73.7676
 30
0.0
 11
2.61965
 21
73.7676
 31
0.0
  0
LINE
  8
0
 62
     0
 10
21.6697
 20
73.7676
 30
0.0
 11
21.6697
 21
72.7675
 31
0.0
  0
LINE
  8
0
 62
     0
 10
21.6697
 20
72.7675
 30
0.0
 11
20.8704
 21
72.7675
 31
0.0
  0
LINE
  8
0
 62
     0
 10
20.8704
 20
72.7675
 30
0.0
 11
20.8704
 21
69.668
 31
0.0
  0
LINE
  8
0
 62
     0
 10
20.8704
 20
69.668
 30
0.0
 11
21.6697
 21
69.668
 31
0.0
  0
LINE
  8
0
 62
     0
 10
21.6697
 20
69.668
 30
0.0
 11
21.6697
 21
63.8679
 31
0.0
  0
LINE
  8
0
 62
     0
 10
21.6697
 20
63.8679
 30
0.0
 11
20.8704
 21
63.8679
 31
0.0
  0
LINE
  8
0
 62
     0
 10
20.8704
 20
63.8679
 30
0.0
 11
20.8704
 21
60.7674
 31
0.0
  0
LINE
  8
0
 62
     0
 10
20.8704
 20
60.7674
 30
0.0
 11
21.6697
 21
60.7674
 31
0.0
  0
LINE
  8
0
 62
     0
 10
21.6697
 20
60.7674
 30
0.0
 11
21.6697
 21
59.7683
 31
0.0
  0
LINE
  8
0
 62
     0
 10
21.6697
 20
59.7683
 30
0.0
 11
35.669
 21
59.7683
 31
0.0
  0
LINE
  8
0
 62
     0
 10
35.669
 20
59.7683
 30
0.0
 11
35.669
 21
60.7674
 31
0.0
  0
LINE
  8
0
 62
     0
 10
35.669
 20
60.7674
 30
0.0
 11
36.4698
 21
60.7674
 31
0.0
  0
LINE
  8
0
 62
     0
 10
36.4698
 20
60.7674
 30
0.0
 11
36.4698
 21
63.8679
 31
0.0
  0
LINE
  8
0
 62
     0
 10
36.4698
 20
63.8679
 30
0.0
 11
35.669
 21
63.8679
 31
0.0
  0
LINE
  8
0
 62
     0
 10
35.669
 20
63.8679
 30
0.0
 11
35.669
 21
69.668
 31
0.0
  0
LINE
  8
0
 62
     0
 10
35.669
 20
69.668
 30
0.0
 11
36.4698
 21
69.668
 31
0.0
  0
LINE
  8
0
 62
     0
 10
36.4698
 20
69.668
 30
0.0
 11
36.4698
 21
72.7675
 31
0.0
  0
LINE
  8
0
 62
     0
 10
36.4698
 20
72.7675
 30
0.0
 11
35.669
 21
72.7675
 31
0.0
  0
LINE
  8
0
 62
     0
 10
35.669
 20
72.7675
 30
0.0
 11
35.669
 21
73.7676
 31
0.0
  0
LINE
  8
0
 62
     0
 10
35.669
 20
73.7676
 30
0.0
 11
21.6697
 21
73.7676
 31
0.0
  0
LINE
  8
0
 62
     0
 10
40.7197
 20
73.7676
 30
0.0
 11
40.7197
 21
72.7675
 31
0.0
  0
LINE
  8
0
 62
     0
 10
40.7197
 20
72.7675
 30
0.0
 11
39.9203
 21
72.7675
 31
0.0
  0
LINE
  8
0
 62
     0
 10
39.9203
 20
72.7675
 30
0.0
 11
39.9203
 21
69.668
 31
0.0
  0
LINE
  8
0
 62
     0
 10
39.9203
 20
69.668
 30
0.0
 11
40.7197
 21
69.668
 31
0.0
  0
LINE
  8
0
 62
     0
 10
40.7197
 20
69.668
 30
0.0
 11
40.7197
 21
63.8679
 31
0.0
  0
LINE
  8
0
 62
     0
 10
40.7197
 20
63.8679
 30
0.0
 11
39.9203
 21
63.8679
 31
0.0
  0
LINE
  8
0
 62
     0
 10
39.9203
 20
63.8679
 30
0.0
 11
39.9203
 21
60.7674
 31
0.0
  0
LINE
  8
0
 62
     0
 10
39.9203
 20
60.7674
 30
0.0
 11
40.7197
 21
60.7674
 31
0.0
  0
LINE
  8
0
 62
     0
 10
40.7197
 20
60.7674
 30
0.0
 11
40.7197
 21
59.7683
 31
0.0
  0
LINE
  8
0
 62
     0
 10
40.7197
 20
59.7683
 30
0.0
 11
54.719
 21
59.7683
 31
0.0
  0
LINE
  8
0
 62
     0
 10
54.719
 20
59.7683
 30
0.0
 11
54.719
 21
60.7674
 31
0.0
  0
LINE
  8
0
 62
     0
 10
54.719
 20
60.7674
 30
0.0
 11
55.5198
 21
60.7674
 31
0.0
  0
LINE
  8
0
 62
     0
 10
55.5198
 20
60.7674
 30
0.0
 11
55.5198
 21
63.8679
 31
0.0
  0
LINE
  8
0
 62
     0
 10
55.5198
 20
63.8679
 30
0.0
 11
54.719
 21
63.8679
 31
0.0
  0
LINE
  8
0
 62
     0
 10
54.719
 20
63.8679
 30
0.0
 11
54.719
 21
69.668
 31
0.0
  0
LINE
  8
0
 62
     0
 10
54.719
 20
69.668
 30
0.0
 11
55.5198
 21
69.668
 31
0.0
  0
LINE
  8
0
 62
     0
 10
55.5198
 20
69.668
 30
0.0
 11
55.5198
 21
72.7675
 31
0.0
  0
LINE
  8
0
 62
     0
 10
55.5198
 20
72.7675
 30
0.0
 11
54.719
 21
72.7675
 31
0.0
  0
LINE
  8
0
 62
     0
 10
54.719
 20
72.7675
 30
0.0
 11
54.719
 21
73.7676
 31
0.0
  0
LINE
  8
0
 62
     0
 10
54.719
 20
73.7676
 30
0.0
 11
40.7197
 21
73.7676
 31
0.0
  0
LINE
  8
0
 62
     0
 10
59.7697
 20
73.7676
 30
0.0
 11
59.7697
 21
72.7675
 31
0.0
  0
LINE
  8
0
 62
     0
 10
59.7697
 20
72.7675
 30
0.0
 11
58.9703
 21
72.7675
 31
0.0
  0
LINE
  8
0
 62
     0
 10
58.9703
 20
72.7675
 30
0.0
 11
58.9703
 21
69.668
 31
0.0
  0
LINE
  8
0
 62
     0
 10
58.9703
 20
69.668
 30
0.0
 11
59.7697
 21
69.668
 31
0.0
  0
LINE
  8
0
 62
     0
 10
59.7697
 20
69.668
 30
0.0
 11
59.7697
 21
63.8679
 31
0.0
  0
LINE
  8
0
 62
     0
 10
59.7697
 20
63.8679
 30
0.0
 11
58.9703
 21
63.8679
 31
0.0
  0
LINE
  8
0
 62
     0
 10
58.9703
 20
63.8679
 30
0.0
 11
58.9703
 21
60.7674
 31
0.0
  0
LINE
  8
0
 62
     0
 10
58.9703
 20
60.7674
 30
0.0
 11
59.7697
 21
60.7674
 31
0.0
  0
LINE
  8
0
 62
     0
 10
59.7697
 20
60.7674
 30
0.0
 11
59.7697
 21
59.7683
 31
0.0
  0
LINE
  8
0
 62
     0
 10
59.7697
 20
59.7683
 30
0.0
 11
73.769
 21
59.7683
 31
0.0
  0
LINE
  8
0
 62
     0
 10
73.769
 20
59.7683
 30
0.0
 11
73.769
 21
60.7674
 31
0.0
  0
LINE
  8
0
 62
     0
 10
73.769
 20
60.7674
 30
0.0
 11
74.5698
 21
60.7674
 31
0.0
  0
LINE
  8
0
 62
     0
 10
74.5698
 20
60.7674
 30
0.0
 11
74.5698
 21
63.8679
 31
0.0
  0
LINE
  8
0
 62
     0
 10
74.5698
 20
63.8679
 30
0.0
 11
73.769
 21
63.8679
 31
0.0
  0
LINE
  8
0
 62
     0
 10
73.769
 20
63.8679
 30
0.0
 11
73.769
 21
69.668
 31
0.0
  0
LINE
  8
0
 62
     0
 10
73.769
 20
69.668
 30
0.0
 11
74.5698
 21
69.668
 31
0.0
  0
LINE
  8
0
 62
     0
 10
74.5698
 20
69.668
 30
0.0
 11
74.5698
 21
72.7675
 31
0.0
  0
LINE
  8
0
 62
     0
 10
74.5698
 20
72.7675
 30
0.0
 11
73.769
 21
72.7675
 31
0.0
  0
LINE
  8
0
 62
     0
 10
73.769
 20
72.7675
 30
0.0
 11
73.769
 21
73.7676
 31
0.0
  0
LINE
  8
0
 62
     0
 10
73.769
 20
73.7676
 30
0.0
 11
59.7697
 21
73.7676
 31
0.0
  0
LINE
  8
0
 62
     0
 10
2.61965
 20
92.8176
 30
0.0
 11
2.61965
 21
91.8175
 31
0.0
  0
LINE
  8
0
 62
     0
 10
2.61965
 20
91.8175
 30
0.0
 11
1.82039
 21
91.8175
 31
0.0
  0
LINE
  8
0
 62
     0
 10
1.82039
 20
91.8175
 30
0.0
 11
1.82039
 21
88.718
 31
0.0
  0
LINE
  8
0
 62
     0
 10
1.82039
 20
88.718
 30
0.0
 11
2.61965
 21
88.718
 31
0.0
  0
LINE
  8
0
 62
     0
 10
2.61965
 20
88.718
 30
0.0
 11
2.61965
 21
82.9179
 31
0.0
  0
LINE
  8
0
 62
     0
 10
2.61965
 20
82.9179
 30
0.0
 11
1.82039
 21
82.9179
 31
0.0
  0
LINE
  8
0
 62
     0
 10
1.82039
 20
82.9179
 30
0.0
 11
1.82039
 21
79.8174
 31
0.0
  0
LINE
  8
0
 62
     0
 10
1.82039
 20
79.8174
 30
0.0
 11
2.61965
 21
79.8174
 31
0.0
  0
LINE
  8
0
 62
     0
 10
2.61965
 20
79.8174
 30
0.0
 11
2.61965
 21
78.8183
 31
0.0
  0
LINE
  8
0
 62
     0
 10
2.61965
 20
78.8183
 30
0.0
 11
16.6192
 21
78.8183
 31
0.0
  0
LINE
  8
0
 62
     0
 10
16.6192
 20
78.8183
 30
0.0
 11
16.6192
 21
79.8174
 31
0.0
  0
LINE
  8
0
 62
     0
 10
16.6192
 20
79.8174
 30
0.0
 11
17.4198
 21
79.8174
 31
0.0
  0
LINE
  8
0
 62
     0
 10
17.4198
 20
79.8174
 30
0.0
 11
17.4198
 21
82.9179
 31
0.0
  0
LINE
  8
0
 62
     0
 10
17.4198
 20
82.9179
 30
0.0
 11
16.6192
 21
82.9179
 31
0.0
  0
LINE
  8
0
 62
     0
 10
16.6192
 20
82.9179
 30
0.0
 11
16.6192
 21
88.718
 31
0.0
  0
LINE
  8
0
 62
     0
 10
16.6192
 20
88.718
 30
0.0
 11
17.4198
 21
88.718
 31
0.0
  0
LINE
  8
0
 62
     0
 10
17.4198
 20
88.718
 30
0.0
 11
17.4198
 21
91.8175
 31
0.0
  0
LINE
  8
0
 62
     0
 10
17.4198
 20
91.8175
 30
0.0
 11
16.6192
 21
91.8175
 31
0.0
  0
LINE
  8
0
 62
     0
 10
16.6192
 20
91.8175
 30
0.0
 11
16.6192
 21
92.8176
 31
0.0
  0
LINE
  8
0
 62
     0
 10
16.6192
 20
92.8176
 30
0.0
 11
2.61965
 21
92.8176
 31
0.0
  0
LINE
  8
0
 62
     0
 10
21.6697
 20
92.8176
 30
0.0
 11
21.6697
 21
91.8175
 31
0.0
  0
LINE
  8
0
 62
     0
 10
21.6697
 20
91.8175
 30
0.0
 11
20.8704
 21
91.8175
 31
0.0
  0
LINE
  8
0
 62
     0
 10
20.8704
 20
91.8175
 30
0.0
 11
20.8704
 21
88.718
 31
0.0
  0
LINE
  8
0
 62
     0
 10
20.8704
 20
88.718
 30
0.0
 11
21.6697
 21
88.718
 31
0.0
  0
LINE
  8
0
 62
     0
 10
21.6697
 20
88.718
 30
0.0
 11
21.6697
 21
82.9179
 31
0.0
  0
LINE
  8
0
 62
     0
 10
21.6697
 20
82.9179
 30
0.0
 11
20.8704
 21
82.9179
 31
0.0
  0
LINE
  8
0
 62
     0
 10
20.8704
 20
82.9179
 30
0.0
 11
20.8704
 21
79.8174
 31
0.0
  0
LINE
  8
0
 62
     0
 10
20.8704
 20
79.8174
 30
0.0
 11
21.6697
 21
79.8174
 31
0.0
  0
LINE
  8
0
 62
     0
 10
21.6697
 20
79.8174
 30
0.0
 11
21.6697
 21
78.8183
 31
0.0
  0
LINE
  8
0
 62
     0
 10
21.6697
 20
78.8183
 30
0.0
 11
35.669
 21
78.8183
 31
0.0
  0
LINE
  8
0
 62
     0
 10
35.669
 20
78.8183
 30
0.0
 11
35.669
 21
79.8174
 31
0.0
  0
LINE
  8
0
 62
     0
 10
35.669
 20
79.8174
 30
0.0
 11
36.4698
 21
79.8174
 31
0.0
  0
LINE
  8
0
 62
     0
 10
36.4698
 20
79.8174
 30
0.0
 11
36.4698
 21
82.9179
 31
0.0
  0
LINE
  8
0
 62
     0
 10
36.4698
 20
82.9179
 30
0.0
 11
35.669
 21
82.9179
 31
0.0
  0
LINE
  8
0
 62
     0
 10
35.669
 20
82.9179
 30
0.0
 11
35.669
 21
88.718
 31
0.0
  0
LINE
  8
0
 62
     0
 10
35.669
 20
88.718
 30
0.0
 11
36.4698
 21
88.718
 31
0.0
  0
LINE
  8
0
 62
     0
 10
36.4698
 20
88.718
 30
0.0
 11
36.4698
 21
91.8175
 31
0.0
  0
LINE
  8
0
 62
     0
 10
36.4698
 20
91.8175
 30
0.0
 11
35.669
 21
91.8175
 31
0.0
  0
LINE
  8
0
 62
     0
 10
35.669
 20
91.8175
 30
0.0
 11
35.669
 21
92.8176
 31
0.0
  0
LINE
  8
0
 62
     0
 10
35.669
 20
92.8176
 30
0.0
 11
21.6697
 21
92.8176
 31
0.0
  0
LINE
  8
0
 62
     0
 10
40.7197
 20
92.8176
 30
0.0
 11
40.7197
 21
91.8175
 31
0.0
  0
LINE
  8
0
 62
     0
 10
40.7197
 20
91.8175
 30
0.0
 11
39.9203
 21
91.8175
 31
0.0
  0
LINE
  8
0
 62
     0
 10
39.9203
 20
91.8175
 30
0.0
 11
39.9203
 21
88.718
 31
0.0
  0
LINE
  8
0
 62
     0
 10
39.9203
 20
88.718
 30
0.0
 11
40.7197
 21
88.718
 31
0.0
  0
LINE
  8
0
 62
     0
 10
40.7197
 20
88.718
 30
0.0
 11
40.7197
 21
82.9179
 31
0.0
  0
LINE
  8
0
 62
     0
 10
40.7197
 20
82.9179
 30
0.0
 11
39.9203
 21
82.9179
 31
0.0
  0
LINE
  8
0
 62
     0
 10
39.9203
 20
82.9179
 30
0.0
 11
39.9203
 21
79.8174
 31
0.0
  0
LINE
  8
0
 62
     0
 10
39.9203
 20
79.8174
 30
0.0
 11
40.7197
 21
79.8174
 31
0.0
  0
LINE
  8
0
 62
     0
 10
40.7197
 20
79.8174
 30
0.0
 11
40.7197
 21
78.8183
 31
0.0
  0
LINE
  8
0
 62
     0
 10
40.7197
 20
78.8183
 30
0.0
 11
54.719
 21
78.8183
 31
0.0
  0
LINE
  8
0
 62
     0
 10
54.719
 20
78.8183
 30
0.0
 11
54.719
 21
79.8174
 31
0.0
  0
LINE
  8
0
 62
     0
 10
54.719
 20
79.8174
 30
0.0
 11
55.5198
 21
79.8174
 31
0.0
  0
LINE
  8
0
 62
     0
 10
55.5198
 20
79.8174
 30
0.0
 11
55.5198
 21
82.9179
 31
0.0
  0
LINE
  8
0
 62
     0
 10
55.5198
 20
82.9179
 30
0.0
 11
54.719
 21
82.9179
 31
0.0
  0
LINE
  8
0
 62
     0
 10
54.719
 20
82.9179
 30
0.0
 11
54.719
 21
88.718
 31
0.0
  0
LINE
  8
0
 62
     0
 10
54.719
 20
88.718
 30
0.0
 11
55.5198
 21
88.718
 31
0.0
  0
LINE
  8
0
 62
     0
 10
55.5198
 20
88.718
 30
0.0
 11
55.5198
 21
91.8175
 31
0.0
  0
LINE
  8
0
 62
     0
 10
55.5198
 20
91.8175
 30
0.0
 11
54.719
 21
91.8175
 31
0.0
  0
LINE
  8
0
 62
     0
 10
54.719
 20
91.8175
 30
0.0
 11
54.719
 21
92.8176
 31
0.0
  0
LINE
  8
0
 62
     0
 10
54.719
 20
92.8176
 30
0.0
 11
40.7197
 21
92.8176
 31
0.0
  0
LINE
  8
0
 62
     0
 10
59.7697
 20
92.8176
 30
0.0
 11
59.7697
 21
91.8175
 31
0.0
  0
LINE
  8
0
 62
     0
 10
59.7697
 20
91.8175
 30
0.0
 11
58.9703
 21
91.8175
 31
0.0
  0
LINE
  8
0
 62
     0
 10
58.9703
 20
91.8175
 30
0.0
 11
58.9703
 21
88.718
 31
0.0
  0
LINE
  8
0
 62
     0
 10
58.9703
 20
88.718
 30
0.0
 11
59.7697
 21
88.718
 31
0.0
  0
LINE
  8
0
 62
     0
 10
59.7697
 20
88.718
 30
0.0
 11
59.7697
 21
82.9179
 31
0.0
  0
LINE
  8
0
 62
     0
 10
59.7697
 20
82.9179
 30
0.0
 11
58.9703
 21
82.9179
 31
0.0
  0
LINE
  8
0
 62
     0
 10
58.9703
 20
82.9179
 30
0.0
 11
58.9703
 21
79.8174
 31
0.0
  0
LINE
  8
0
 62
     0
 10
58.9703
 20
79.8174
 30
0.0
 11
59.7697
 21
79.8174
 31
0.0
  0
LINE
  8
0
 62
     0
 10
59.7697
 20
79.8174
 30
0.0
 11
59.7697
 21
78.8183
 31
0.0
  0
LINE
  8
0
 62
     0
 10
59.7697
 20
78.8183
 30
0.0
 11
73.769
 21
78.8183
 31
0.0
  0
LINE
  8
0
 62
     0
 10
73.769
 20
78.8183
 30
0.0
 11
73.769
 21
79.8174
 31
0.0
  0
LINE
  8
0
 62
     0
 10
73.769
 20
79.8174
 30
0.0
 11
74.5698
 21
79.8174
 31
0.0
  0
LINE
  8
0
 62
     0
 10
74.5698
 20
79.8174
 30
0.0
 11
74.5698
 21
82.9179
 31
0.0
  0
LINE
  8
0
 62
     0
 10
74.5698
 20
82.9179
 30
0.0
 11
73.769
 21
82.9179
 31
0.0
  0
LINE
  8
0
 62
     0
 10
73.769
 20
82.9179
 30
0.0
 11
73.769
 21
88.718
 31
0.0
  0
LINE
  8
0
 62
     0
 10
73.769
 20
88.718
 30
0.0
 11
74.5698
 21
88.718
 31
0.0
  0
LINE
  8
0
 62
     0
 10
74.5698
 20
88.718
 30
0.0
 11
74.5698
 21
91.8175
 31
0.0
  0
LINE
  8
0
 62
     0
 10
74.5698
 20
91.8175
 30
0.0
 11
73.769
 21
91.8175
 31
0.0
  0
LINE
  8
0
 62
     0
 10
73.769
 20
91.8175
 30
0.0
 11
73.769
 21
92.8176
 31
0.0
  0
LINE
  8
0
 62
     0
 10
73.769
 20
92.8176
 30
0.0
 11
59.7697
 21
92.8176
 31
0.0
  0
ENDSEC
  0
EOF
