G04 #@! TF.GenerationSoftware,KiCad,Pcbnew,5.0.1*
G04 #@! TF.CreationDate,2019-01-11T20:34:33+01:00*
G04 #@! TF.ProjectId,keypad,6B65797061642E6B696361645F706362,rev?*
G04 #@! TF.SameCoordinates,Original*
G04 #@! TF.FileFunction,Soldermask,Bot*
G04 #@! TF.FilePolarity,Negative*
%FSLAX46Y46*%
G04 Gerber Fmt 4.6, Leading zero omitted, Abs format (unit mm)*
G04 Created by KiCad (PCBNEW 5.0.1) date Fri 11 Jan 2019 08:34:33 PM CET*
%MOMM*%
%LPD*%
G01*
G04 APERTURE LIST*
%ADD10C,0.100000*%
G04 APERTURE END LIST*
D10*
G36*
X130590550Y-149818750D02*
X128990550Y-149818750D01*
X128990550Y-148968750D01*
X130590550Y-148968750D01*
X130590550Y-149818750D01*
X130590550Y-149818750D01*
G37*
G36*
X127090550Y-149818750D02*
X125490550Y-149818750D01*
X125490550Y-148968750D01*
X127090550Y-148968750D01*
X127090550Y-149818750D01*
X127090550Y-149818750D01*
G37*
G36*
X167890550Y-149818750D02*
X166290550Y-149818750D01*
X166290550Y-148968750D01*
X167890550Y-148968750D01*
X167890550Y-149818750D01*
X167890550Y-149818750D01*
G37*
G36*
X164390550Y-149818750D02*
X162790550Y-149818750D01*
X162790550Y-148968750D01*
X164390550Y-148968750D01*
X164390550Y-149818750D01*
X164390550Y-149818750D01*
G37*
G36*
X118608453Y-144944236D02*
X118899633Y-145064847D01*
X119161694Y-145239951D01*
X119384549Y-145462806D01*
X119559653Y-145724867D01*
X119680264Y-146016047D01*
X119741750Y-146325162D01*
X119741750Y-146640338D01*
X119680264Y-146949453D01*
X119559653Y-147240633D01*
X119384549Y-147502694D01*
X119161694Y-147725549D01*
X118899633Y-147900653D01*
X118608453Y-148021264D01*
X118299338Y-148082750D01*
X117984162Y-148082750D01*
X117675047Y-148021264D01*
X117383867Y-147900653D01*
X117121806Y-147725549D01*
X116898951Y-147502694D01*
X116723847Y-147240633D01*
X116603236Y-146949453D01*
X116541750Y-146640338D01*
X116541750Y-146325162D01*
X116603236Y-146016047D01*
X116723847Y-145724867D01*
X116898951Y-145462806D01*
X117121806Y-145239951D01*
X117383867Y-145064847D01*
X117675047Y-144944236D01*
X117984162Y-144882750D01*
X118299338Y-144882750D01*
X118608453Y-144944236D01*
X118608453Y-144944236D01*
G37*
G36*
X137658453Y-144944236D02*
X137949633Y-145064847D01*
X138211694Y-145239951D01*
X138434549Y-145462806D01*
X138609653Y-145724867D01*
X138730264Y-146016047D01*
X138791750Y-146325162D01*
X138791750Y-146640338D01*
X138730264Y-146949453D01*
X138609653Y-147240633D01*
X138434549Y-147502694D01*
X138211694Y-147725549D01*
X137949633Y-147900653D01*
X137658453Y-148021264D01*
X137349338Y-148082750D01*
X137034162Y-148082750D01*
X136725047Y-148021264D01*
X136433867Y-147900653D01*
X136171806Y-147725549D01*
X135948951Y-147502694D01*
X135773847Y-147240633D01*
X135653236Y-146949453D01*
X135591750Y-146640338D01*
X135591750Y-146325162D01*
X135653236Y-146016047D01*
X135773847Y-145724867D01*
X135948951Y-145462806D01*
X136171806Y-145239951D01*
X136433867Y-145064847D01*
X136725047Y-144944236D01*
X137034162Y-144882750D01*
X137349338Y-144882750D01*
X137658453Y-144944236D01*
X137658453Y-144944236D01*
G37*
G36*
X156708453Y-144944236D02*
X156999633Y-145064847D01*
X157261694Y-145239951D01*
X157484549Y-145462806D01*
X157659653Y-145724867D01*
X157780264Y-146016047D01*
X157841750Y-146325162D01*
X157841750Y-146640338D01*
X157780264Y-146949453D01*
X157659653Y-147240633D01*
X157484549Y-147502694D01*
X157261694Y-147725549D01*
X156999633Y-147900653D01*
X156708453Y-148021264D01*
X156399338Y-148082750D01*
X156084162Y-148082750D01*
X155775047Y-148021264D01*
X155483867Y-147900653D01*
X155221806Y-147725549D01*
X154998951Y-147502694D01*
X154823847Y-147240633D01*
X154703236Y-146949453D01*
X154641750Y-146640338D01*
X154641750Y-146325162D01*
X154703236Y-146016047D01*
X154823847Y-145724867D01*
X154998951Y-145462806D01*
X155221806Y-145239951D01*
X155483867Y-145064847D01*
X155775047Y-144944236D01*
X156084162Y-144882750D01*
X156399338Y-144882750D01*
X156708453Y-144944236D01*
X156708453Y-144944236D01*
G37*
G36*
X167890550Y-148068750D02*
X166290550Y-148068750D01*
X166290550Y-147218750D01*
X167890550Y-147218750D01*
X167890550Y-148068750D01*
X167890550Y-148068750D01*
G37*
G36*
X164390550Y-148068750D02*
X162790550Y-148068750D01*
X162790550Y-147218750D01*
X164390550Y-147218750D01*
X164390550Y-148068750D01*
X164390550Y-148068750D01*
G37*
G36*
X130590550Y-148068750D02*
X128990550Y-148068750D01*
X128990550Y-147218750D01*
X130590550Y-147218750D01*
X130590550Y-148068750D01*
X130590550Y-148068750D01*
G37*
G36*
X127090550Y-148068750D02*
X125490550Y-148068750D01*
X125490550Y-147218750D01*
X127090550Y-147218750D01*
X127090550Y-148068750D01*
X127090550Y-148068750D01*
G37*
G36*
X154341750Y-147407750D02*
X152941750Y-147407750D01*
X152941750Y-146807750D01*
X154341750Y-146807750D01*
X154341750Y-147407750D01*
X154341750Y-147407750D01*
G37*
G36*
X159541750Y-147407750D02*
X158141750Y-147407750D01*
X158141750Y-146807750D01*
X159541750Y-146807750D01*
X159541750Y-147407750D01*
X159541750Y-147407750D01*
G37*
G36*
X135291750Y-147407750D02*
X133891750Y-147407750D01*
X133891750Y-146807750D01*
X135291750Y-146807750D01*
X135291750Y-147407750D01*
X135291750Y-147407750D01*
G37*
G36*
X140491750Y-147407750D02*
X139091750Y-147407750D01*
X139091750Y-146807750D01*
X140491750Y-146807750D01*
X140491750Y-147407750D01*
X140491750Y-147407750D01*
G37*
G36*
X116241750Y-147407750D02*
X114841750Y-147407750D01*
X114841750Y-146807750D01*
X116241750Y-146807750D01*
X116241750Y-147407750D01*
X116241750Y-147407750D01*
G37*
G36*
X121441750Y-147407750D02*
X120041750Y-147407750D01*
X120041750Y-146807750D01*
X121441750Y-146807750D01*
X121441750Y-147407750D01*
X121441750Y-147407750D01*
G37*
G36*
X159541750Y-146157750D02*
X158141750Y-146157750D01*
X158141750Y-145557750D01*
X159541750Y-145557750D01*
X159541750Y-146157750D01*
X159541750Y-146157750D01*
G37*
G36*
X116241750Y-146157750D02*
X114841750Y-146157750D01*
X114841750Y-145557750D01*
X116241750Y-145557750D01*
X116241750Y-146157750D01*
X116241750Y-146157750D01*
G37*
G36*
X135291750Y-146157750D02*
X133891750Y-146157750D01*
X133891750Y-145557750D01*
X135291750Y-145557750D01*
X135291750Y-146157750D01*
X135291750Y-146157750D01*
G37*
G36*
X140491750Y-146157750D02*
X139091750Y-146157750D01*
X139091750Y-145557750D01*
X140491750Y-145557750D01*
X140491750Y-146157750D01*
X140491750Y-146157750D01*
G37*
G36*
X154341750Y-146157750D02*
X152941750Y-146157750D01*
X152941750Y-145557750D01*
X154341750Y-145557750D01*
X154341750Y-146157750D01*
X154341750Y-146157750D01*
G37*
G36*
X121441750Y-146157750D02*
X120041750Y-146157750D01*
X120041750Y-145557750D01*
X121441750Y-145557750D01*
X121441750Y-146157750D01*
X121441750Y-146157750D01*
G37*
G36*
X167637128Y-141835609D02*
X168001104Y-141986372D01*
X168328679Y-142205251D01*
X168607249Y-142483821D01*
X168826128Y-142811396D01*
X168976891Y-143175372D01*
X169053750Y-143561766D01*
X169053750Y-143955734D01*
X168976891Y-144342128D01*
X168826128Y-144706104D01*
X168607249Y-145033679D01*
X168328679Y-145312249D01*
X168001104Y-145531128D01*
X167637128Y-145681891D01*
X167250734Y-145758750D01*
X166856766Y-145758750D01*
X166470372Y-145681891D01*
X166106396Y-145531128D01*
X165778821Y-145312249D01*
X165500251Y-145033679D01*
X165281372Y-144706104D01*
X165130609Y-144342128D01*
X165053750Y-143955734D01*
X165053750Y-143561766D01*
X165130609Y-143175372D01*
X165281372Y-142811396D01*
X165500251Y-142483821D01*
X165778821Y-142205251D01*
X166106396Y-141986372D01*
X166470372Y-141835609D01*
X166856766Y-141758750D01*
X167250734Y-141758750D01*
X167637128Y-141835609D01*
X167637128Y-141835609D01*
G37*
G36*
X182738573Y-142292354D02*
X182738575Y-142292355D01*
X182738576Y-142292355D01*
X183016108Y-142407312D01*
X183016109Y-142407313D01*
X183265884Y-142574207D01*
X183478293Y-142786616D01*
X183478295Y-142786619D01*
X183645188Y-143036392D01*
X183760145Y-143313924D01*
X183760146Y-143313927D01*
X183809444Y-143561766D01*
X183818750Y-143608551D01*
X183818750Y-143908949D01*
X183760145Y-144203576D01*
X183645188Y-144481108D01*
X183645187Y-144481109D01*
X183478293Y-144730884D01*
X183265884Y-144943293D01*
X183265881Y-144943295D01*
X183016108Y-145110188D01*
X182738576Y-145225145D01*
X182738575Y-145225145D01*
X182738573Y-145225146D01*
X182443951Y-145283750D01*
X182143549Y-145283750D01*
X181848927Y-145225146D01*
X181848925Y-145225145D01*
X181848924Y-145225145D01*
X181571392Y-145110188D01*
X181321619Y-144943295D01*
X181321616Y-144943293D01*
X181109207Y-144730884D01*
X180942313Y-144481109D01*
X180942312Y-144481108D01*
X180827355Y-144203576D01*
X180768750Y-143908949D01*
X180768750Y-143608551D01*
X180778056Y-143561766D01*
X180827354Y-143313927D01*
X180827355Y-143313924D01*
X180942312Y-143036392D01*
X181109205Y-142786619D01*
X181109207Y-142786616D01*
X181321616Y-142574207D01*
X181571391Y-142407313D01*
X181571392Y-142407312D01*
X181848924Y-142292355D01*
X181848925Y-142292355D01*
X181848927Y-142292354D01*
X182143549Y-142233750D01*
X182443951Y-142233750D01*
X182738573Y-142292354D01*
X182738573Y-142292354D01*
G37*
G36*
X156825128Y-139459609D02*
X157189104Y-139610372D01*
X157516679Y-139829251D01*
X157795249Y-140107821D01*
X158014128Y-140435396D01*
X158164891Y-140799372D01*
X158241750Y-141185766D01*
X158241750Y-141579734D01*
X158164891Y-141966128D01*
X158014128Y-142330104D01*
X157795249Y-142657679D01*
X157516679Y-142936249D01*
X157189104Y-143155128D01*
X156825128Y-143305891D01*
X156438734Y-143382750D01*
X156044766Y-143382750D01*
X155658372Y-143305891D01*
X155294396Y-143155128D01*
X154966821Y-142936249D01*
X154688251Y-142657679D01*
X154469372Y-142330104D01*
X154318609Y-141966128D01*
X154241750Y-141579734D01*
X154241750Y-141185766D01*
X154318609Y-140799372D01*
X154469372Y-140435396D01*
X154688251Y-140107821D01*
X154966821Y-139829251D01*
X155294396Y-139610372D01*
X155658372Y-139459609D01*
X156044766Y-139382750D01*
X156438734Y-139382750D01*
X156825128Y-139459609D01*
X156825128Y-139459609D01*
G37*
G36*
X118725128Y-139459609D02*
X119089104Y-139610372D01*
X119416679Y-139829251D01*
X119695249Y-140107821D01*
X119914128Y-140435396D01*
X120064891Y-140799372D01*
X120141750Y-141185766D01*
X120141750Y-141579734D01*
X120064891Y-141966128D01*
X119914128Y-142330104D01*
X119695249Y-142657679D01*
X119416679Y-142936249D01*
X119089104Y-143155128D01*
X118725128Y-143305891D01*
X118338734Y-143382750D01*
X117944766Y-143382750D01*
X117558372Y-143305891D01*
X117194396Y-143155128D01*
X116866821Y-142936249D01*
X116588251Y-142657679D01*
X116369372Y-142330104D01*
X116218609Y-141966128D01*
X116141750Y-141579734D01*
X116141750Y-141185766D01*
X116218609Y-140799372D01*
X116369372Y-140435396D01*
X116588251Y-140107821D01*
X116866821Y-139829251D01*
X117194396Y-139610372D01*
X117558372Y-139459609D01*
X117944766Y-139382750D01*
X118338734Y-139382750D01*
X118725128Y-139459609D01*
X118725128Y-139459609D01*
G37*
G36*
X137775128Y-139459609D02*
X138139104Y-139610372D01*
X138466679Y-139829251D01*
X138745249Y-140107821D01*
X138964128Y-140435396D01*
X139114891Y-140799372D01*
X139191750Y-141185766D01*
X139191750Y-141579734D01*
X139114891Y-141966128D01*
X138964128Y-142330104D01*
X138745249Y-142657679D01*
X138466679Y-142936249D01*
X138139104Y-143155128D01*
X137775128Y-143305891D01*
X137388734Y-143382750D01*
X136994766Y-143382750D01*
X136608372Y-143305891D01*
X136244396Y-143155128D01*
X135916821Y-142936249D01*
X135638251Y-142657679D01*
X135419372Y-142330104D01*
X135268609Y-141966128D01*
X135191750Y-141579734D01*
X135191750Y-141185766D01*
X135268609Y-140799372D01*
X135419372Y-140435396D01*
X135638251Y-140107821D01*
X135916821Y-139829251D01*
X136244396Y-139610372D01*
X136608372Y-139459609D01*
X136994766Y-139382750D01*
X137388734Y-139382750D01*
X137775128Y-139459609D01*
X137775128Y-139459609D01*
G37*
G36*
X161569684Y-140565414D02*
X161724377Y-140629490D01*
X161863597Y-140722514D01*
X161981986Y-140840903D01*
X162075010Y-140980123D01*
X162139086Y-141134816D01*
X162171750Y-141299031D01*
X162171750Y-141466469D01*
X162139086Y-141630684D01*
X162075010Y-141785377D01*
X161981986Y-141924597D01*
X161863597Y-142042986D01*
X161724377Y-142136010D01*
X161569684Y-142200086D01*
X161405469Y-142232750D01*
X161238031Y-142232750D01*
X161073816Y-142200086D01*
X160919123Y-142136010D01*
X160779903Y-142042986D01*
X160661514Y-141924597D01*
X160568490Y-141785377D01*
X160504414Y-141630684D01*
X160471750Y-141466469D01*
X160471750Y-141299031D01*
X160504414Y-141134816D01*
X160568490Y-140980123D01*
X160661514Y-140840903D01*
X160779903Y-140722514D01*
X160919123Y-140629490D01*
X161073816Y-140565414D01*
X161238031Y-140532750D01*
X161405469Y-140532750D01*
X161569684Y-140565414D01*
X161569684Y-140565414D01*
G37*
G36*
X113309684Y-140565414D02*
X113464377Y-140629490D01*
X113603597Y-140722514D01*
X113721986Y-140840903D01*
X113815010Y-140980123D01*
X113879086Y-141134816D01*
X113911750Y-141299031D01*
X113911750Y-141466469D01*
X113879086Y-141630684D01*
X113815010Y-141785377D01*
X113721986Y-141924597D01*
X113603597Y-142042986D01*
X113464377Y-142136010D01*
X113309684Y-142200086D01*
X113145469Y-142232750D01*
X112978031Y-142232750D01*
X112813816Y-142200086D01*
X112659123Y-142136010D01*
X112519903Y-142042986D01*
X112401514Y-141924597D01*
X112308490Y-141785377D01*
X112244414Y-141630684D01*
X112211750Y-141466469D01*
X112211750Y-141299031D01*
X112244414Y-141134816D01*
X112308490Y-140980123D01*
X112401514Y-140840903D01*
X112519903Y-140722514D01*
X112659123Y-140629490D01*
X112813816Y-140565414D01*
X112978031Y-140532750D01*
X113145469Y-140532750D01*
X113309684Y-140565414D01*
X113309684Y-140565414D01*
G37*
G36*
X123469684Y-140565414D02*
X123624377Y-140629490D01*
X123763597Y-140722514D01*
X123881986Y-140840903D01*
X123975010Y-140980123D01*
X124039086Y-141134816D01*
X124071750Y-141299031D01*
X124071750Y-141466469D01*
X124039086Y-141630684D01*
X123975010Y-141785377D01*
X123881986Y-141924597D01*
X123763597Y-142042986D01*
X123624377Y-142136010D01*
X123469684Y-142200086D01*
X123305469Y-142232750D01*
X123138031Y-142232750D01*
X122973816Y-142200086D01*
X122819123Y-142136010D01*
X122679903Y-142042986D01*
X122561514Y-141924597D01*
X122468490Y-141785377D01*
X122404414Y-141630684D01*
X122371750Y-141466469D01*
X122371750Y-141299031D01*
X122404414Y-141134816D01*
X122468490Y-140980123D01*
X122561514Y-140840903D01*
X122679903Y-140722514D01*
X122819123Y-140629490D01*
X122973816Y-140565414D01*
X123138031Y-140532750D01*
X123305469Y-140532750D01*
X123469684Y-140565414D01*
X123469684Y-140565414D01*
G37*
G36*
X132359684Y-140565414D02*
X132514377Y-140629490D01*
X132653597Y-140722514D01*
X132771986Y-140840903D01*
X132865010Y-140980123D01*
X132929086Y-141134816D01*
X132961750Y-141299031D01*
X132961750Y-141466469D01*
X132929086Y-141630684D01*
X132865010Y-141785377D01*
X132771986Y-141924597D01*
X132653597Y-142042986D01*
X132514377Y-142136010D01*
X132359684Y-142200086D01*
X132195469Y-142232750D01*
X132028031Y-142232750D01*
X131863816Y-142200086D01*
X131709123Y-142136010D01*
X131569903Y-142042986D01*
X131451514Y-141924597D01*
X131358490Y-141785377D01*
X131294414Y-141630684D01*
X131261750Y-141466469D01*
X131261750Y-141299031D01*
X131294414Y-141134816D01*
X131358490Y-140980123D01*
X131451514Y-140840903D01*
X131569903Y-140722514D01*
X131709123Y-140629490D01*
X131863816Y-140565414D01*
X132028031Y-140532750D01*
X132195469Y-140532750D01*
X132359684Y-140565414D01*
X132359684Y-140565414D01*
G37*
G36*
X142519684Y-140565414D02*
X142674377Y-140629490D01*
X142813597Y-140722514D01*
X142931986Y-140840903D01*
X143025010Y-140980123D01*
X143089086Y-141134816D01*
X143121750Y-141299031D01*
X143121750Y-141466469D01*
X143089086Y-141630684D01*
X143025010Y-141785377D01*
X142931986Y-141924597D01*
X142813597Y-142042986D01*
X142674377Y-142136010D01*
X142519684Y-142200086D01*
X142355469Y-142232750D01*
X142188031Y-142232750D01*
X142023816Y-142200086D01*
X141869123Y-142136010D01*
X141729903Y-142042986D01*
X141611514Y-141924597D01*
X141518490Y-141785377D01*
X141454414Y-141630684D01*
X141421750Y-141466469D01*
X141421750Y-141299031D01*
X141454414Y-141134816D01*
X141518490Y-140980123D01*
X141611514Y-140840903D01*
X141729903Y-140722514D01*
X141869123Y-140629490D01*
X142023816Y-140565414D01*
X142188031Y-140532750D01*
X142355469Y-140532750D01*
X142519684Y-140565414D01*
X142519684Y-140565414D01*
G37*
G36*
X151409684Y-140565414D02*
X151564377Y-140629490D01*
X151703597Y-140722514D01*
X151821986Y-140840903D01*
X151915010Y-140980123D01*
X151979086Y-141134816D01*
X152011750Y-141299031D01*
X152011750Y-141466469D01*
X151979086Y-141630684D01*
X151915010Y-141785377D01*
X151821986Y-141924597D01*
X151703597Y-142042986D01*
X151564377Y-142136010D01*
X151409684Y-142200086D01*
X151245469Y-142232750D01*
X151078031Y-142232750D01*
X150913816Y-142200086D01*
X150759123Y-142136010D01*
X150619903Y-142042986D01*
X150501514Y-141924597D01*
X150408490Y-141785377D01*
X150344414Y-141630684D01*
X150311750Y-141466469D01*
X150311750Y-141299031D01*
X150344414Y-141134816D01*
X150408490Y-140980123D01*
X150501514Y-140840903D01*
X150619903Y-140722514D01*
X150759123Y-140629490D01*
X150913816Y-140565414D01*
X151078031Y-140532750D01*
X151245469Y-140532750D01*
X151409684Y-140565414D01*
X151409684Y-140565414D01*
G37*
G36*
X114652607Y-137785022D02*
X114852792Y-137867941D01*
X115032963Y-137988328D01*
X115186172Y-138141537D01*
X115306559Y-138321708D01*
X115389478Y-138521893D01*
X115431750Y-138734408D01*
X115431750Y-138951092D01*
X115389478Y-139163607D01*
X115306559Y-139363792D01*
X115186172Y-139543963D01*
X115032963Y-139697172D01*
X114852792Y-139817559D01*
X114652607Y-139900478D01*
X114440092Y-139942750D01*
X114223408Y-139942750D01*
X114010893Y-139900478D01*
X113810708Y-139817559D01*
X113630537Y-139697172D01*
X113477328Y-139543963D01*
X113356941Y-139363792D01*
X113274022Y-139163607D01*
X113231750Y-138951092D01*
X113231750Y-138734408D01*
X113274022Y-138521893D01*
X113356941Y-138321708D01*
X113477328Y-138141537D01*
X113630537Y-137988328D01*
X113810708Y-137867941D01*
X114010893Y-137785022D01*
X114223408Y-137742750D01*
X114440092Y-137742750D01*
X114652607Y-137785022D01*
X114652607Y-137785022D01*
G37*
G36*
X152752607Y-137785022D02*
X152952792Y-137867941D01*
X153132963Y-137988328D01*
X153286172Y-138141537D01*
X153406559Y-138321708D01*
X153489478Y-138521893D01*
X153531750Y-138734408D01*
X153531750Y-138951092D01*
X153489478Y-139163607D01*
X153406559Y-139363792D01*
X153286172Y-139543963D01*
X153132963Y-139697172D01*
X152952792Y-139817559D01*
X152752607Y-139900478D01*
X152540092Y-139942750D01*
X152323408Y-139942750D01*
X152110893Y-139900478D01*
X151910708Y-139817559D01*
X151730537Y-139697172D01*
X151577328Y-139543963D01*
X151456941Y-139363792D01*
X151374022Y-139163607D01*
X151331750Y-138951092D01*
X151331750Y-138734408D01*
X151374022Y-138521893D01*
X151456941Y-138321708D01*
X151577328Y-138141537D01*
X151730537Y-137988328D01*
X151910708Y-137867941D01*
X152110893Y-137785022D01*
X152323408Y-137742750D01*
X152540092Y-137742750D01*
X152752607Y-137785022D01*
X152752607Y-137785022D01*
G37*
G36*
X133702607Y-137785022D02*
X133902792Y-137867941D01*
X134082963Y-137988328D01*
X134236172Y-138141537D01*
X134356559Y-138321708D01*
X134439478Y-138521893D01*
X134481750Y-138734408D01*
X134481750Y-138951092D01*
X134439478Y-139163607D01*
X134356559Y-139363792D01*
X134236172Y-139543963D01*
X134082963Y-139697172D01*
X133902792Y-139817559D01*
X133702607Y-139900478D01*
X133490092Y-139942750D01*
X133273408Y-139942750D01*
X133060893Y-139900478D01*
X132860708Y-139817559D01*
X132680537Y-139697172D01*
X132527328Y-139543963D01*
X132406941Y-139363792D01*
X132324022Y-139163607D01*
X132281750Y-138951092D01*
X132281750Y-138734408D01*
X132324022Y-138521893D01*
X132406941Y-138321708D01*
X132527328Y-138141537D01*
X132680537Y-137988328D01*
X132860708Y-137867941D01*
X133060893Y-137785022D01*
X133273408Y-137742750D01*
X133490092Y-137742750D01*
X133702607Y-137785022D01*
X133702607Y-137785022D01*
G37*
G36*
X175541684Y-136121414D02*
X175696377Y-136185490D01*
X175835597Y-136278514D01*
X175953986Y-136396903D01*
X176047010Y-136536123D01*
X176111086Y-136690816D01*
X176143750Y-136855031D01*
X176143750Y-137022469D01*
X176111086Y-137186684D01*
X176047010Y-137341377D01*
X175953986Y-137480597D01*
X175835597Y-137598986D01*
X175696377Y-137692010D01*
X175541684Y-137756086D01*
X175377469Y-137788750D01*
X175210031Y-137788750D01*
X175045816Y-137756086D01*
X174891123Y-137692010D01*
X174751903Y-137598986D01*
X174633514Y-137480597D01*
X174540490Y-137341377D01*
X174476414Y-137186684D01*
X174443750Y-137022469D01*
X174443750Y-136855031D01*
X174476414Y-136690816D01*
X174540490Y-136536123D01*
X174633514Y-136396903D01*
X174751903Y-136278514D01*
X174891123Y-136185490D01*
X175045816Y-136121414D01*
X175210031Y-136088750D01*
X175377469Y-136088750D01*
X175541684Y-136121414D01*
X175541684Y-136121414D01*
G37*
G36*
X121002607Y-135245022D02*
X121202792Y-135327941D01*
X121382963Y-135448328D01*
X121536172Y-135601537D01*
X121656559Y-135781708D01*
X121739478Y-135981893D01*
X121781750Y-136194408D01*
X121781750Y-136411092D01*
X121739478Y-136623607D01*
X121656559Y-136823792D01*
X121536172Y-137003963D01*
X121382963Y-137157172D01*
X121382960Y-137157174D01*
X121382959Y-137157175D01*
X121202795Y-137277557D01*
X121202792Y-137277559D01*
X121002607Y-137360478D01*
X120790092Y-137402750D01*
X120573408Y-137402750D01*
X120360893Y-137360478D01*
X120160708Y-137277559D01*
X120160705Y-137277557D01*
X119980541Y-137157175D01*
X119980540Y-137157174D01*
X119980537Y-137157172D01*
X119827328Y-137003963D01*
X119706941Y-136823792D01*
X119624022Y-136623607D01*
X119581750Y-136411092D01*
X119581750Y-136194408D01*
X119624022Y-135981893D01*
X119706941Y-135781708D01*
X119827328Y-135601537D01*
X119980537Y-135448328D01*
X120160708Y-135327941D01*
X120360893Y-135245022D01*
X120573408Y-135202750D01*
X120790092Y-135202750D01*
X121002607Y-135245022D01*
X121002607Y-135245022D01*
G37*
G36*
X159102607Y-135245022D02*
X159302792Y-135327941D01*
X159482963Y-135448328D01*
X159636172Y-135601537D01*
X159756559Y-135781708D01*
X159839478Y-135981893D01*
X159881750Y-136194408D01*
X159881750Y-136411092D01*
X159839478Y-136623607D01*
X159756559Y-136823792D01*
X159636172Y-137003963D01*
X159482963Y-137157172D01*
X159482960Y-137157174D01*
X159482959Y-137157175D01*
X159302795Y-137277557D01*
X159302792Y-137277559D01*
X159102607Y-137360478D01*
X158890092Y-137402750D01*
X158673408Y-137402750D01*
X158460893Y-137360478D01*
X158260708Y-137277559D01*
X158260705Y-137277557D01*
X158080541Y-137157175D01*
X158080540Y-137157174D01*
X158080537Y-137157172D01*
X157927328Y-137003963D01*
X157806941Y-136823792D01*
X157724022Y-136623607D01*
X157681750Y-136411092D01*
X157681750Y-136194408D01*
X157724022Y-135981893D01*
X157806941Y-135781708D01*
X157927328Y-135601537D01*
X158080537Y-135448328D01*
X158260708Y-135327941D01*
X158460893Y-135245022D01*
X158673408Y-135202750D01*
X158890092Y-135202750D01*
X159102607Y-135245022D01*
X159102607Y-135245022D01*
G37*
G36*
X140052607Y-135245022D02*
X140252792Y-135327941D01*
X140432963Y-135448328D01*
X140586172Y-135601537D01*
X140706559Y-135781708D01*
X140789478Y-135981893D01*
X140831750Y-136194408D01*
X140831750Y-136411092D01*
X140789478Y-136623607D01*
X140706559Y-136823792D01*
X140586172Y-137003963D01*
X140432963Y-137157172D01*
X140432960Y-137157174D01*
X140432959Y-137157175D01*
X140252795Y-137277557D01*
X140252792Y-137277559D01*
X140052607Y-137360478D01*
X139840092Y-137402750D01*
X139623408Y-137402750D01*
X139410893Y-137360478D01*
X139210708Y-137277559D01*
X139210705Y-137277557D01*
X139030541Y-137157175D01*
X139030540Y-137157174D01*
X139030537Y-137157172D01*
X138877328Y-137003963D01*
X138756941Y-136823792D01*
X138674022Y-136623607D01*
X138631750Y-136411092D01*
X138631750Y-136194408D01*
X138674022Y-135981893D01*
X138756941Y-135781708D01*
X138877328Y-135601537D01*
X139030537Y-135448328D01*
X139210708Y-135327941D01*
X139410893Y-135245022D01*
X139623408Y-135202750D01*
X139840092Y-135202750D01*
X140052607Y-135245022D01*
X140052607Y-135245022D01*
G37*
G36*
X180694607Y-133341022D02*
X180894792Y-133423941D01*
X181074963Y-133544328D01*
X181228172Y-133697537D01*
X181228174Y-133697540D01*
X181228175Y-133697541D01*
X181284536Y-133781891D01*
X181348559Y-133877708D01*
X181431478Y-134077893D01*
X181473750Y-134290408D01*
X181473750Y-134507092D01*
X181431478Y-134719607D01*
X181348559Y-134919792D01*
X181228172Y-135099963D01*
X181074963Y-135253172D01*
X180894792Y-135373559D01*
X180694607Y-135456478D01*
X180482092Y-135498750D01*
X180265408Y-135498750D01*
X180052893Y-135456478D01*
X179852708Y-135373559D01*
X179672537Y-135253172D01*
X179519328Y-135099963D01*
X179398941Y-134919792D01*
X179316022Y-134719607D01*
X179273750Y-134507092D01*
X179273750Y-134290408D01*
X179316022Y-134077893D01*
X179398941Y-133877708D01*
X179462964Y-133781891D01*
X179519325Y-133697541D01*
X179519326Y-133697540D01*
X179519328Y-133697537D01*
X179672537Y-133544328D01*
X179852708Y-133423941D01*
X180052893Y-133341022D01*
X180265408Y-133298750D01*
X180482092Y-133298750D01*
X180694607Y-133341022D01*
X180694607Y-133341022D01*
G37*
G36*
X169868750Y-135158750D02*
X169268750Y-135158750D01*
X169268750Y-133758750D01*
X169868750Y-133758750D01*
X169868750Y-135158750D01*
X169868750Y-135158750D01*
G37*
G36*
X171118750Y-135158750D02*
X170518750Y-135158750D01*
X170518750Y-133758750D01*
X171118750Y-133758750D01*
X171118750Y-135158750D01*
X171118750Y-135158750D01*
G37*
G36*
X112240550Y-134068750D02*
X111390550Y-134068750D01*
X111390550Y-132468750D01*
X112240550Y-132468750D01*
X112240550Y-134068750D01*
X112240550Y-134068750D01*
G37*
G36*
X110490550Y-134068750D02*
X109640550Y-134068750D01*
X109640550Y-132468750D01*
X110490550Y-132468750D01*
X110490550Y-134068750D01*
X110490550Y-134068750D01*
G37*
G36*
X175877128Y-129935609D02*
X176241104Y-130086372D01*
X176568679Y-130305251D01*
X176847249Y-130583821D01*
X177066128Y-130911396D01*
X177216891Y-131275372D01*
X177293750Y-131661766D01*
X177293750Y-132055734D01*
X177216891Y-132442128D01*
X177066128Y-132806104D01*
X176847249Y-133133679D01*
X176568679Y-133412249D01*
X176241104Y-133631128D01*
X175877128Y-133781891D01*
X175490734Y-133858750D01*
X175096766Y-133858750D01*
X174710372Y-133781891D01*
X174346396Y-133631128D01*
X174018821Y-133412249D01*
X173740251Y-133133679D01*
X173521372Y-132806104D01*
X173370609Y-132442128D01*
X173293750Y-132055734D01*
X173293750Y-131661766D01*
X173370609Y-131275372D01*
X173521372Y-130911396D01*
X173740251Y-130583821D01*
X174018821Y-130305251D01*
X174346396Y-130086372D01*
X174710372Y-129935609D01*
X175096766Y-129858750D01*
X175490734Y-129858750D01*
X175877128Y-129935609D01*
X175877128Y-129935609D01*
G37*
G36*
X127370857Y-131342272D02*
X127571042Y-131425191D01*
X127571045Y-131425193D01*
X127735257Y-131534916D01*
X127751213Y-131545578D01*
X127904422Y-131698787D01*
X127904424Y-131698790D01*
X127904425Y-131698791D01*
X127991523Y-131829142D01*
X128024809Y-131878958D01*
X128107728Y-132079143D01*
X128150000Y-132291658D01*
X128150000Y-132508342D01*
X128107728Y-132720857D01*
X128024809Y-132921042D01*
X127904422Y-133101213D01*
X127751213Y-133254422D01*
X127751210Y-133254424D01*
X127751209Y-133254425D01*
X127684872Y-133298750D01*
X127571042Y-133374809D01*
X127370857Y-133457728D01*
X127158342Y-133500000D01*
X126941658Y-133500000D01*
X126729143Y-133457728D01*
X126528958Y-133374809D01*
X126415128Y-133298750D01*
X126348791Y-133254425D01*
X126348790Y-133254424D01*
X126348787Y-133254422D01*
X126195578Y-133101213D01*
X126075191Y-132921042D01*
X125992272Y-132720857D01*
X125950000Y-132508342D01*
X125950000Y-132291658D01*
X125992272Y-132079143D01*
X126075191Y-131878958D01*
X126108477Y-131829142D01*
X126195575Y-131698791D01*
X126195576Y-131698790D01*
X126195578Y-131698787D01*
X126348787Y-131545578D01*
X126364744Y-131534916D01*
X126528955Y-131425193D01*
X126528958Y-131425191D01*
X126729143Y-131342272D01*
X126941658Y-131300000D01*
X127158342Y-131300000D01*
X127370857Y-131342272D01*
X127370857Y-131342272D01*
G37*
G36*
X170660453Y-130320236D02*
X170951633Y-130440847D01*
X171213694Y-130615951D01*
X171436549Y-130838806D01*
X171611653Y-131100867D01*
X171732264Y-131392047D01*
X171793750Y-131701162D01*
X171793750Y-132016338D01*
X171732264Y-132325453D01*
X171611653Y-132616633D01*
X171436549Y-132878694D01*
X171213694Y-133101549D01*
X170951633Y-133276653D01*
X170660453Y-133397264D01*
X170351338Y-133458750D01*
X170036162Y-133458750D01*
X169727047Y-133397264D01*
X169435867Y-133276653D01*
X169173806Y-133101549D01*
X168950951Y-132878694D01*
X168775847Y-132616633D01*
X168655236Y-132325453D01*
X168593750Y-132016338D01*
X168593750Y-131701162D01*
X168655236Y-131392047D01*
X168775847Y-131100867D01*
X168950951Y-130838806D01*
X169173806Y-130615951D01*
X169435867Y-130440847D01*
X169727047Y-130320236D01*
X170036162Y-130258750D01*
X170351338Y-130258750D01*
X170660453Y-130320236D01*
X170660453Y-130320236D01*
G37*
G36*
X165120857Y-131092272D02*
X165321042Y-131175191D01*
X165501213Y-131295578D01*
X165654422Y-131448787D01*
X165654424Y-131448790D01*
X165654425Y-131448791D01*
X165711972Y-131534916D01*
X165774809Y-131628958D01*
X165857728Y-131829143D01*
X165900000Y-132041658D01*
X165900000Y-132258342D01*
X165857728Y-132470857D01*
X165774809Y-132671042D01*
X165774807Y-132671045D01*
X165684563Y-132806105D01*
X165654422Y-132851213D01*
X165501213Y-133004422D01*
X165321042Y-133124809D01*
X165120857Y-133207728D01*
X164908342Y-133250000D01*
X164691658Y-133250000D01*
X164479143Y-133207728D01*
X164278958Y-133124809D01*
X164098787Y-133004422D01*
X163945578Y-132851213D01*
X163915438Y-132806105D01*
X163825193Y-132671045D01*
X163825191Y-132671042D01*
X163742272Y-132470857D01*
X163700000Y-132258342D01*
X163700000Y-132041658D01*
X163742272Y-131829143D01*
X163825191Y-131628958D01*
X163888028Y-131534916D01*
X163945575Y-131448791D01*
X163945576Y-131448790D01*
X163945578Y-131448787D01*
X164098787Y-131295578D01*
X164278958Y-131175191D01*
X164479143Y-131092272D01*
X164691658Y-131050000D01*
X164908342Y-131050000D01*
X165120857Y-131092272D01*
X165120857Y-131092272D01*
G37*
G36*
X183525000Y-132500000D02*
X182675000Y-132500000D01*
X182675000Y-130900000D01*
X183525000Y-130900000D01*
X183525000Y-132500000D01*
X183525000Y-132500000D01*
G37*
G36*
X181775000Y-132500000D02*
X180925000Y-132500000D01*
X180925000Y-130900000D01*
X181775000Y-130900000D01*
X181775000Y-132500000D01*
X181775000Y-132500000D01*
G37*
G36*
X140172074Y-131347705D02*
X140204786Y-131357629D01*
X140234940Y-131373747D01*
X140261366Y-131395434D01*
X140283053Y-131421860D01*
X140299171Y-131452014D01*
X140309095Y-131484726D01*
X140313050Y-131524888D01*
X140313050Y-132112612D01*
X140309095Y-132152774D01*
X140299171Y-132185486D01*
X140283053Y-132215640D01*
X140261366Y-132242066D01*
X140234940Y-132263753D01*
X140204786Y-132279871D01*
X140172074Y-132289795D01*
X140131912Y-132293750D01*
X139444188Y-132293750D01*
X139404026Y-132289795D01*
X139371314Y-132279871D01*
X139341160Y-132263753D01*
X139314734Y-132242066D01*
X139293047Y-132215640D01*
X139276929Y-132185486D01*
X139267005Y-132152774D01*
X139263050Y-132112612D01*
X139263050Y-131524888D01*
X139267005Y-131484726D01*
X139276929Y-131452014D01*
X139293047Y-131421860D01*
X139314734Y-131395434D01*
X139341160Y-131373747D01*
X139371314Y-131357629D01*
X139404026Y-131347705D01*
X139444188Y-131343750D01*
X140131912Y-131343750D01*
X140172074Y-131347705D01*
X140172074Y-131347705D01*
G37*
G36*
X119349574Y-131347705D02*
X119382286Y-131357629D01*
X119412440Y-131373747D01*
X119438866Y-131395434D01*
X119460553Y-131421860D01*
X119476671Y-131452014D01*
X119486595Y-131484726D01*
X119490550Y-131524888D01*
X119490550Y-132112612D01*
X119486595Y-132152774D01*
X119476671Y-132185486D01*
X119460553Y-132215640D01*
X119438866Y-132242066D01*
X119412440Y-132263753D01*
X119382286Y-132279871D01*
X119349574Y-132289795D01*
X119309412Y-132293750D01*
X118621688Y-132293750D01*
X118581526Y-132289795D01*
X118548814Y-132279871D01*
X118518660Y-132263753D01*
X118492234Y-132242066D01*
X118470547Y-132215640D01*
X118454429Y-132185486D01*
X118444505Y-132152774D01*
X118440550Y-132112612D01*
X118440550Y-131524888D01*
X118444505Y-131484726D01*
X118454429Y-131452014D01*
X118470547Y-131421860D01*
X118492234Y-131395434D01*
X118518660Y-131373747D01*
X118548814Y-131357629D01*
X118581526Y-131347705D01*
X118621688Y-131343750D01*
X119309412Y-131343750D01*
X119349574Y-131347705D01*
X119349574Y-131347705D01*
G37*
G36*
X138422074Y-131347705D02*
X138454786Y-131357629D01*
X138484940Y-131373747D01*
X138511366Y-131395434D01*
X138533053Y-131421860D01*
X138549171Y-131452014D01*
X138559095Y-131484726D01*
X138563050Y-131524888D01*
X138563050Y-132112612D01*
X138559095Y-132152774D01*
X138549171Y-132185486D01*
X138533053Y-132215640D01*
X138511366Y-132242066D01*
X138484940Y-132263753D01*
X138454786Y-132279871D01*
X138422074Y-132289795D01*
X138381912Y-132293750D01*
X137694188Y-132293750D01*
X137654026Y-132289795D01*
X137621314Y-132279871D01*
X137591160Y-132263753D01*
X137564734Y-132242066D01*
X137543047Y-132215640D01*
X137526929Y-132185486D01*
X137517005Y-132152774D01*
X137513050Y-132112612D01*
X137513050Y-131524888D01*
X137517005Y-131484726D01*
X137526929Y-131452014D01*
X137543047Y-131421860D01*
X137564734Y-131395434D01*
X137591160Y-131373747D01*
X137621314Y-131357629D01*
X137654026Y-131347705D01*
X137694188Y-131343750D01*
X138381912Y-131343750D01*
X138422074Y-131347705D01*
X138422074Y-131347705D01*
G37*
G36*
X157494574Y-131347705D02*
X157527286Y-131357629D01*
X157557440Y-131373747D01*
X157583866Y-131395434D01*
X157605553Y-131421860D01*
X157621671Y-131452014D01*
X157631595Y-131484726D01*
X157635550Y-131524888D01*
X157635550Y-132112612D01*
X157631595Y-132152774D01*
X157621671Y-132185486D01*
X157605553Y-132215640D01*
X157583866Y-132242066D01*
X157557440Y-132263753D01*
X157527286Y-132279871D01*
X157494574Y-132289795D01*
X157454412Y-132293750D01*
X156766688Y-132293750D01*
X156726526Y-132289795D01*
X156693814Y-132279871D01*
X156663660Y-132263753D01*
X156637234Y-132242066D01*
X156615547Y-132215640D01*
X156599429Y-132185486D01*
X156589505Y-132152774D01*
X156585550Y-132112612D01*
X156585550Y-131524888D01*
X156589505Y-131484726D01*
X156599429Y-131452014D01*
X156615547Y-131421860D01*
X156637234Y-131395434D01*
X156663660Y-131373747D01*
X156693814Y-131357629D01*
X156726526Y-131347705D01*
X156766688Y-131343750D01*
X157454412Y-131343750D01*
X157494574Y-131347705D01*
X157494574Y-131347705D01*
G37*
G36*
X159244574Y-131347705D02*
X159277286Y-131357629D01*
X159307440Y-131373747D01*
X159333866Y-131395434D01*
X159355553Y-131421860D01*
X159371671Y-131452014D01*
X159381595Y-131484726D01*
X159385550Y-131524888D01*
X159385550Y-132112612D01*
X159381595Y-132152774D01*
X159371671Y-132185486D01*
X159355553Y-132215640D01*
X159333866Y-132242066D01*
X159307440Y-132263753D01*
X159277286Y-132279871D01*
X159244574Y-132289795D01*
X159204412Y-132293750D01*
X158516688Y-132293750D01*
X158476526Y-132289795D01*
X158443814Y-132279871D01*
X158413660Y-132263753D01*
X158387234Y-132242066D01*
X158365547Y-132215640D01*
X158349429Y-132185486D01*
X158339505Y-132152774D01*
X158335550Y-132112612D01*
X158335550Y-131524888D01*
X158339505Y-131484726D01*
X158349429Y-131452014D01*
X158365547Y-131421860D01*
X158387234Y-131395434D01*
X158413660Y-131373747D01*
X158443814Y-131357629D01*
X158476526Y-131347705D01*
X158516688Y-131343750D01*
X159204412Y-131343750D01*
X159244574Y-131347705D01*
X159244574Y-131347705D01*
G37*
G36*
X121099574Y-131347705D02*
X121132286Y-131357629D01*
X121162440Y-131373747D01*
X121188866Y-131395434D01*
X121210553Y-131421860D01*
X121226671Y-131452014D01*
X121236595Y-131484726D01*
X121240550Y-131524888D01*
X121240550Y-132112612D01*
X121236595Y-132152774D01*
X121226671Y-132185486D01*
X121210553Y-132215640D01*
X121188866Y-132242066D01*
X121162440Y-132263753D01*
X121132286Y-132279871D01*
X121099574Y-132289795D01*
X121059412Y-132293750D01*
X120371688Y-132293750D01*
X120331526Y-132289795D01*
X120298814Y-132279871D01*
X120268660Y-132263753D01*
X120242234Y-132242066D01*
X120220547Y-132215640D01*
X120204429Y-132185486D01*
X120194505Y-132152774D01*
X120190550Y-132112612D01*
X120190550Y-131524888D01*
X120194505Y-131484726D01*
X120204429Y-131452014D01*
X120220547Y-131421860D01*
X120242234Y-131395434D01*
X120268660Y-131373747D01*
X120298814Y-131357629D01*
X120331526Y-131347705D01*
X120371688Y-131343750D01*
X121059412Y-131343750D01*
X121099574Y-131347705D01*
X121099574Y-131347705D01*
G37*
G36*
X112240550Y-130568750D02*
X111390550Y-130568750D01*
X111390550Y-128968750D01*
X112240550Y-128968750D01*
X112240550Y-130568750D01*
X112240550Y-130568750D01*
G37*
G36*
X110490550Y-130568750D02*
X109640550Y-130568750D01*
X109640550Y-128968750D01*
X110490550Y-128968750D01*
X110490550Y-130568750D01*
X110490550Y-130568750D01*
G37*
G36*
X171118750Y-129958750D02*
X170518750Y-129958750D01*
X170518750Y-128558750D01*
X171118750Y-128558750D01*
X171118750Y-129958750D01*
X171118750Y-129958750D01*
G37*
G36*
X169868750Y-129958750D02*
X169268750Y-129958750D01*
X169268750Y-128558750D01*
X169868750Y-128558750D01*
X169868750Y-129958750D01*
X169868750Y-129958750D01*
G37*
G36*
X178154607Y-126991022D02*
X178354792Y-127073941D01*
X178354795Y-127073943D01*
X178405391Y-127107750D01*
X178534963Y-127194328D01*
X178688172Y-127347537D01*
X178808559Y-127527708D01*
X178891478Y-127727893D01*
X178933750Y-127940408D01*
X178933750Y-128157092D01*
X178891478Y-128369607D01*
X178808559Y-128569792D01*
X178688172Y-128749963D01*
X178534963Y-128903172D01*
X178354792Y-129023559D01*
X178154607Y-129106478D01*
X177942092Y-129148750D01*
X177725408Y-129148750D01*
X177512893Y-129106478D01*
X177312708Y-129023559D01*
X177132537Y-128903172D01*
X176979328Y-128749963D01*
X176858941Y-128569792D01*
X176776022Y-128369607D01*
X176733750Y-128157092D01*
X176733750Y-127940408D01*
X176776022Y-127727893D01*
X176858941Y-127527708D01*
X176979328Y-127347537D01*
X177132537Y-127194328D01*
X177262110Y-127107750D01*
X177312705Y-127073943D01*
X177312708Y-127073941D01*
X177512893Y-126991022D01*
X177725408Y-126948750D01*
X177942092Y-126948750D01*
X178154607Y-126991022D01*
X178154607Y-126991022D01*
G37*
G36*
X156708453Y-125894236D02*
X156999633Y-126014847D01*
X157261694Y-126189951D01*
X157484549Y-126412806D01*
X157659653Y-126674867D01*
X157780264Y-126966047D01*
X157841750Y-127275162D01*
X157841750Y-127590338D01*
X157780264Y-127899453D01*
X157659653Y-128190633D01*
X157484549Y-128452694D01*
X157261694Y-128675549D01*
X156999633Y-128850653D01*
X156708453Y-128971264D01*
X156399338Y-129032750D01*
X156084162Y-129032750D01*
X155775047Y-128971264D01*
X155483867Y-128850653D01*
X155221806Y-128675549D01*
X154998951Y-128452694D01*
X154823847Y-128190633D01*
X154703236Y-127899453D01*
X154641750Y-127590338D01*
X154641750Y-127275162D01*
X154703236Y-126966047D01*
X154823847Y-126674867D01*
X154998951Y-126412806D01*
X155221806Y-126189951D01*
X155483867Y-126014847D01*
X155775047Y-125894236D01*
X156084162Y-125832750D01*
X156399338Y-125832750D01*
X156708453Y-125894236D01*
X156708453Y-125894236D01*
G37*
G36*
X118608453Y-125894236D02*
X118899633Y-126014847D01*
X119161694Y-126189951D01*
X119384549Y-126412806D01*
X119559653Y-126674867D01*
X119680264Y-126966047D01*
X119741750Y-127275162D01*
X119741750Y-127590338D01*
X119680264Y-127899453D01*
X119559653Y-128190633D01*
X119384549Y-128452694D01*
X119161694Y-128675549D01*
X118899633Y-128850653D01*
X118608453Y-128971264D01*
X118299338Y-129032750D01*
X117984162Y-129032750D01*
X117675047Y-128971264D01*
X117383867Y-128850653D01*
X117121806Y-128675549D01*
X116898951Y-128452694D01*
X116723847Y-128190633D01*
X116603236Y-127899453D01*
X116541750Y-127590338D01*
X116541750Y-127275162D01*
X116603236Y-126966047D01*
X116723847Y-126674867D01*
X116898951Y-126412806D01*
X117121806Y-126189951D01*
X117383867Y-126014847D01*
X117675047Y-125894236D01*
X117984162Y-125832750D01*
X118299338Y-125832750D01*
X118608453Y-125894236D01*
X118608453Y-125894236D01*
G37*
G36*
X137658453Y-125894236D02*
X137949633Y-126014847D01*
X138211694Y-126189951D01*
X138434549Y-126412806D01*
X138609653Y-126674867D01*
X138730264Y-126966047D01*
X138791750Y-127275162D01*
X138791750Y-127590338D01*
X138730264Y-127899453D01*
X138609653Y-128190633D01*
X138434549Y-128452694D01*
X138211694Y-128675549D01*
X137949633Y-128850653D01*
X137658453Y-128971264D01*
X137349338Y-129032750D01*
X137034162Y-129032750D01*
X136725047Y-128971264D01*
X136433867Y-128850653D01*
X136171806Y-128675549D01*
X135948951Y-128452694D01*
X135773847Y-128190633D01*
X135653236Y-127899453D01*
X135591750Y-127590338D01*
X135591750Y-127275162D01*
X135653236Y-126966047D01*
X135773847Y-126674867D01*
X135948951Y-126412806D01*
X136171806Y-126189951D01*
X136433867Y-126014847D01*
X136725047Y-125894236D01*
X137034162Y-125832750D01*
X137349338Y-125832750D01*
X137658453Y-125894236D01*
X137658453Y-125894236D01*
G37*
G36*
X183525000Y-129000000D02*
X182675000Y-129000000D01*
X182675000Y-127400000D01*
X183525000Y-127400000D01*
X183525000Y-129000000D01*
X183525000Y-129000000D01*
G37*
G36*
X181775000Y-129000000D02*
X180925000Y-129000000D01*
X180925000Y-127400000D01*
X181775000Y-127400000D01*
X181775000Y-129000000D01*
X181775000Y-129000000D01*
G37*
G36*
X140491750Y-128357750D02*
X139091750Y-128357750D01*
X139091750Y-127757750D01*
X140491750Y-127757750D01*
X140491750Y-128357750D01*
X140491750Y-128357750D01*
G37*
G36*
X116241750Y-128357750D02*
X114841750Y-128357750D01*
X114841750Y-127757750D01*
X116241750Y-127757750D01*
X116241750Y-128357750D01*
X116241750Y-128357750D01*
G37*
G36*
X121441750Y-128357750D02*
X120041750Y-128357750D01*
X120041750Y-127757750D01*
X121441750Y-127757750D01*
X121441750Y-128357750D01*
X121441750Y-128357750D01*
G37*
G36*
X135291750Y-128357750D02*
X133891750Y-128357750D01*
X133891750Y-127757750D01*
X135291750Y-127757750D01*
X135291750Y-128357750D01*
X135291750Y-128357750D01*
G37*
G36*
X159541750Y-128357750D02*
X158141750Y-128357750D01*
X158141750Y-127757750D01*
X159541750Y-127757750D01*
X159541750Y-128357750D01*
X159541750Y-128357750D01*
G37*
G36*
X154341750Y-128357750D02*
X152941750Y-128357750D01*
X152941750Y-127757750D01*
X154341750Y-127757750D01*
X154341750Y-128357750D01*
X154341750Y-128357750D01*
G37*
G36*
X175541684Y-125961414D02*
X175696377Y-126025490D01*
X175835597Y-126118514D01*
X175953986Y-126236903D01*
X176047010Y-126376123D01*
X176111086Y-126530816D01*
X176143750Y-126695031D01*
X176143750Y-126862469D01*
X176111086Y-127026684D01*
X176047010Y-127181377D01*
X175953986Y-127320597D01*
X175835597Y-127438986D01*
X175696377Y-127532010D01*
X175541684Y-127596086D01*
X175377469Y-127628750D01*
X175210031Y-127628750D01*
X175045816Y-127596086D01*
X174891123Y-127532010D01*
X174751903Y-127438986D01*
X174633514Y-127320597D01*
X174540490Y-127181377D01*
X174476414Y-127026684D01*
X174443750Y-126862469D01*
X174443750Y-126695031D01*
X174476414Y-126530816D01*
X174540490Y-126376123D01*
X174633514Y-126236903D01*
X174751903Y-126118514D01*
X174891123Y-126025490D01*
X175045816Y-125961414D01*
X175210031Y-125928750D01*
X175377469Y-125928750D01*
X175541684Y-125961414D01*
X175541684Y-125961414D01*
G37*
G36*
X116241750Y-127107750D02*
X114841750Y-127107750D01*
X114841750Y-126507750D01*
X116241750Y-126507750D01*
X116241750Y-127107750D01*
X116241750Y-127107750D01*
G37*
G36*
X140491750Y-127107750D02*
X139091750Y-127107750D01*
X139091750Y-126507750D01*
X140491750Y-126507750D01*
X140491750Y-127107750D01*
X140491750Y-127107750D01*
G37*
G36*
X121441750Y-127107750D02*
X120041750Y-127107750D01*
X120041750Y-126507750D01*
X121441750Y-126507750D01*
X121441750Y-127107750D01*
X121441750Y-127107750D01*
G37*
G36*
X154341750Y-127107750D02*
X152941750Y-127107750D01*
X152941750Y-126507750D01*
X154341750Y-126507750D01*
X154341750Y-127107750D01*
X154341750Y-127107750D01*
G37*
G36*
X159541750Y-127107750D02*
X158141750Y-127107750D01*
X158141750Y-126507750D01*
X159541750Y-126507750D01*
X159541750Y-127107750D01*
X159541750Y-127107750D01*
G37*
G36*
X135291750Y-127107750D02*
X133891750Y-127107750D01*
X133891750Y-126507750D01*
X135291750Y-126507750D01*
X135291750Y-127107750D01*
X135291750Y-127107750D01*
G37*
G36*
X118725128Y-120409609D02*
X119089104Y-120560372D01*
X119416679Y-120779251D01*
X119695249Y-121057821D01*
X119914128Y-121385396D01*
X120064891Y-121749372D01*
X120141750Y-122135766D01*
X120141750Y-122529734D01*
X120064891Y-122916128D01*
X119914128Y-123280104D01*
X119695249Y-123607679D01*
X119416679Y-123886249D01*
X119089104Y-124105128D01*
X118725128Y-124255891D01*
X118338734Y-124332750D01*
X117944766Y-124332750D01*
X117558372Y-124255891D01*
X117194396Y-124105128D01*
X116866821Y-123886249D01*
X116588251Y-123607679D01*
X116369372Y-123280104D01*
X116218609Y-122916128D01*
X116141750Y-122529734D01*
X116141750Y-122135766D01*
X116218609Y-121749372D01*
X116369372Y-121385396D01*
X116588251Y-121057821D01*
X116866821Y-120779251D01*
X117194396Y-120560372D01*
X117558372Y-120409609D01*
X117944766Y-120332750D01*
X118338734Y-120332750D01*
X118725128Y-120409609D01*
X118725128Y-120409609D01*
G37*
G36*
X137775128Y-120409609D02*
X138139104Y-120560372D01*
X138466679Y-120779251D01*
X138745249Y-121057821D01*
X138964128Y-121385396D01*
X139114891Y-121749372D01*
X139191750Y-122135766D01*
X139191750Y-122529734D01*
X139114891Y-122916128D01*
X138964128Y-123280104D01*
X138745249Y-123607679D01*
X138466679Y-123886249D01*
X138139104Y-124105128D01*
X137775128Y-124255891D01*
X137388734Y-124332750D01*
X136994766Y-124332750D01*
X136608372Y-124255891D01*
X136244396Y-124105128D01*
X135916821Y-123886249D01*
X135638251Y-123607679D01*
X135419372Y-123280104D01*
X135268609Y-122916128D01*
X135191750Y-122529734D01*
X135191750Y-122135766D01*
X135268609Y-121749372D01*
X135419372Y-121385396D01*
X135638251Y-121057821D01*
X135916821Y-120779251D01*
X136244396Y-120560372D01*
X136608372Y-120409609D01*
X136994766Y-120332750D01*
X137388734Y-120332750D01*
X137775128Y-120409609D01*
X137775128Y-120409609D01*
G37*
G36*
X156825128Y-120409609D02*
X157189104Y-120560372D01*
X157516679Y-120779251D01*
X157795249Y-121057821D01*
X158014128Y-121385396D01*
X158164891Y-121749372D01*
X158241750Y-122135766D01*
X158241750Y-122529734D01*
X158164891Y-122916128D01*
X158014128Y-123280104D01*
X157795249Y-123607679D01*
X157516679Y-123886249D01*
X157189104Y-124105128D01*
X156825128Y-124255891D01*
X156438734Y-124332750D01*
X156044766Y-124332750D01*
X155658372Y-124255891D01*
X155294396Y-124105128D01*
X154966821Y-123886249D01*
X154688251Y-123607679D01*
X154469372Y-123280104D01*
X154318609Y-122916128D01*
X154241750Y-122529734D01*
X154241750Y-122135766D01*
X154318609Y-121749372D01*
X154469372Y-121385396D01*
X154688251Y-121057821D01*
X154966821Y-120779251D01*
X155294396Y-120560372D01*
X155658372Y-120409609D01*
X156044766Y-120332750D01*
X156438734Y-120332750D01*
X156825128Y-120409609D01*
X156825128Y-120409609D01*
G37*
G36*
X123469684Y-121515414D02*
X123624377Y-121579490D01*
X123763597Y-121672514D01*
X123881986Y-121790903D01*
X123975010Y-121930123D01*
X124039086Y-122084816D01*
X124071750Y-122249031D01*
X124071750Y-122416469D01*
X124039086Y-122580684D01*
X123975010Y-122735377D01*
X123881986Y-122874597D01*
X123763597Y-122992986D01*
X123624377Y-123086010D01*
X123469684Y-123150086D01*
X123305469Y-123182750D01*
X123138031Y-123182750D01*
X122973816Y-123150086D01*
X122819123Y-123086010D01*
X122679903Y-122992986D01*
X122561514Y-122874597D01*
X122468490Y-122735377D01*
X122404414Y-122580684D01*
X122371750Y-122416469D01*
X122371750Y-122249031D01*
X122404414Y-122084816D01*
X122468490Y-121930123D01*
X122561514Y-121790903D01*
X122679903Y-121672514D01*
X122819123Y-121579490D01*
X122973816Y-121515414D01*
X123138031Y-121482750D01*
X123305469Y-121482750D01*
X123469684Y-121515414D01*
X123469684Y-121515414D01*
G37*
G36*
X132359684Y-121515414D02*
X132514377Y-121579490D01*
X132653597Y-121672514D01*
X132771986Y-121790903D01*
X132865010Y-121930123D01*
X132929086Y-122084816D01*
X132961750Y-122249031D01*
X132961750Y-122416469D01*
X132929086Y-122580684D01*
X132865010Y-122735377D01*
X132771986Y-122874597D01*
X132653597Y-122992986D01*
X132514377Y-123086010D01*
X132359684Y-123150086D01*
X132195469Y-123182750D01*
X132028031Y-123182750D01*
X131863816Y-123150086D01*
X131709123Y-123086010D01*
X131569903Y-122992986D01*
X131451514Y-122874597D01*
X131358490Y-122735377D01*
X131294414Y-122580684D01*
X131261750Y-122416469D01*
X131261750Y-122249031D01*
X131294414Y-122084816D01*
X131358490Y-121930123D01*
X131451514Y-121790903D01*
X131569903Y-121672514D01*
X131709123Y-121579490D01*
X131863816Y-121515414D01*
X132028031Y-121482750D01*
X132195469Y-121482750D01*
X132359684Y-121515414D01*
X132359684Y-121515414D01*
G37*
G36*
X142519684Y-121515414D02*
X142674377Y-121579490D01*
X142813597Y-121672514D01*
X142931986Y-121790903D01*
X143025010Y-121930123D01*
X143089086Y-122084816D01*
X143121750Y-122249031D01*
X143121750Y-122416469D01*
X143089086Y-122580684D01*
X143025010Y-122735377D01*
X142931986Y-122874597D01*
X142813597Y-122992986D01*
X142674377Y-123086010D01*
X142519684Y-123150086D01*
X142355469Y-123182750D01*
X142188031Y-123182750D01*
X142023816Y-123150086D01*
X141869123Y-123086010D01*
X141729903Y-122992986D01*
X141611514Y-122874597D01*
X141518490Y-122735377D01*
X141454414Y-122580684D01*
X141421750Y-122416469D01*
X141421750Y-122249031D01*
X141454414Y-122084816D01*
X141518490Y-121930123D01*
X141611514Y-121790903D01*
X141729903Y-121672514D01*
X141869123Y-121579490D01*
X142023816Y-121515414D01*
X142188031Y-121482750D01*
X142355469Y-121482750D01*
X142519684Y-121515414D01*
X142519684Y-121515414D01*
G37*
G36*
X151409684Y-121515414D02*
X151564377Y-121579490D01*
X151703597Y-121672514D01*
X151821986Y-121790903D01*
X151915010Y-121930123D01*
X151979086Y-122084816D01*
X152011750Y-122249031D01*
X152011750Y-122416469D01*
X151979086Y-122580684D01*
X151915010Y-122735377D01*
X151821986Y-122874597D01*
X151703597Y-122992986D01*
X151564377Y-123086010D01*
X151409684Y-123150086D01*
X151245469Y-123182750D01*
X151078031Y-123182750D01*
X150913816Y-123150086D01*
X150759123Y-123086010D01*
X150619903Y-122992986D01*
X150501514Y-122874597D01*
X150408490Y-122735377D01*
X150344414Y-122580684D01*
X150311750Y-122416469D01*
X150311750Y-122249031D01*
X150344414Y-122084816D01*
X150408490Y-121930123D01*
X150501514Y-121790903D01*
X150619903Y-121672514D01*
X150759123Y-121579490D01*
X150913816Y-121515414D01*
X151078031Y-121482750D01*
X151245469Y-121482750D01*
X151409684Y-121515414D01*
X151409684Y-121515414D01*
G37*
G36*
X161569684Y-121515414D02*
X161724377Y-121579490D01*
X161863597Y-121672514D01*
X161981986Y-121790903D01*
X162075010Y-121930123D01*
X162139086Y-122084816D01*
X162171750Y-122249031D01*
X162171750Y-122416469D01*
X162139086Y-122580684D01*
X162075010Y-122735377D01*
X161981986Y-122874597D01*
X161863597Y-122992986D01*
X161724377Y-123086010D01*
X161569684Y-123150086D01*
X161405469Y-123182750D01*
X161238031Y-123182750D01*
X161073816Y-123150086D01*
X160919123Y-123086010D01*
X160779903Y-122992986D01*
X160661514Y-122874597D01*
X160568490Y-122735377D01*
X160504414Y-122580684D01*
X160471750Y-122416469D01*
X160471750Y-122249031D01*
X160504414Y-122084816D01*
X160568490Y-121930123D01*
X160661514Y-121790903D01*
X160779903Y-121672514D01*
X160919123Y-121579490D01*
X161073816Y-121515414D01*
X161238031Y-121482750D01*
X161405469Y-121482750D01*
X161569684Y-121515414D01*
X161569684Y-121515414D01*
G37*
G36*
X113309684Y-121515414D02*
X113464377Y-121579490D01*
X113603597Y-121672514D01*
X113721986Y-121790903D01*
X113815010Y-121930123D01*
X113879086Y-122084816D01*
X113911750Y-122249031D01*
X113911750Y-122416469D01*
X113879086Y-122580684D01*
X113815010Y-122735377D01*
X113721986Y-122874597D01*
X113603597Y-122992986D01*
X113464377Y-123086010D01*
X113309684Y-123150086D01*
X113145469Y-123182750D01*
X112978031Y-123182750D01*
X112813816Y-123150086D01*
X112659123Y-123086010D01*
X112519903Y-122992986D01*
X112401514Y-122874597D01*
X112308490Y-122735377D01*
X112244414Y-122580684D01*
X112211750Y-122416469D01*
X112211750Y-122249031D01*
X112244414Y-122084816D01*
X112308490Y-121930123D01*
X112401514Y-121790903D01*
X112519903Y-121672514D01*
X112659123Y-121579490D01*
X112813816Y-121515414D01*
X112978031Y-121482750D01*
X113145469Y-121482750D01*
X113309684Y-121515414D01*
X113309684Y-121515414D01*
G37*
G36*
X167637128Y-118035609D02*
X168001104Y-118186372D01*
X168328679Y-118405251D01*
X168607249Y-118683821D01*
X168826128Y-119011396D01*
X168976891Y-119375372D01*
X169053750Y-119761766D01*
X169053750Y-120155734D01*
X168976891Y-120542128D01*
X168826128Y-120906104D01*
X168607249Y-121233679D01*
X168328679Y-121512249D01*
X168001104Y-121731128D01*
X167637128Y-121881891D01*
X167250734Y-121958750D01*
X166856766Y-121958750D01*
X166470372Y-121881891D01*
X166106396Y-121731128D01*
X165778821Y-121512249D01*
X165500251Y-121233679D01*
X165281372Y-120906104D01*
X165130609Y-120542128D01*
X165053750Y-120155734D01*
X165053750Y-119761766D01*
X165130609Y-119375372D01*
X165281372Y-119011396D01*
X165500251Y-118683821D01*
X165778821Y-118405251D01*
X166106396Y-118186372D01*
X166470372Y-118035609D01*
X166856766Y-117958750D01*
X167250734Y-117958750D01*
X167637128Y-118035609D01*
X167637128Y-118035609D01*
G37*
G36*
X182738573Y-118492354D02*
X182738575Y-118492355D01*
X182738576Y-118492355D01*
X183016108Y-118607312D01*
X183207241Y-118735023D01*
X183265884Y-118774207D01*
X183478293Y-118986616D01*
X183478295Y-118986619D01*
X183645188Y-119236392D01*
X183659815Y-119271705D01*
X183760146Y-119513927D01*
X183818750Y-119808549D01*
X183818750Y-120108951D01*
X183774234Y-120332750D01*
X183760145Y-120403576D01*
X183645188Y-120681108D01*
X183503773Y-120892750D01*
X183478293Y-120930884D01*
X183265884Y-121143293D01*
X183265881Y-121143295D01*
X183016108Y-121310188D01*
X182738576Y-121425145D01*
X182738575Y-121425145D01*
X182738573Y-121425146D01*
X182443951Y-121483750D01*
X182143549Y-121483750D01*
X181848927Y-121425146D01*
X181848925Y-121425145D01*
X181848924Y-121425145D01*
X181571392Y-121310188D01*
X181321619Y-121143295D01*
X181321616Y-121143293D01*
X181109207Y-120930884D01*
X181083727Y-120892750D01*
X180942312Y-120681108D01*
X180827355Y-120403576D01*
X180813267Y-120332750D01*
X180768750Y-120108951D01*
X180768750Y-119808549D01*
X180827354Y-119513927D01*
X180927685Y-119271705D01*
X180942312Y-119236392D01*
X181109205Y-118986619D01*
X181109207Y-118986616D01*
X181321616Y-118774207D01*
X181380259Y-118735023D01*
X181571392Y-118607312D01*
X181848924Y-118492355D01*
X181848925Y-118492355D01*
X181848927Y-118492354D01*
X182143549Y-118433750D01*
X182443951Y-118433750D01*
X182738573Y-118492354D01*
X182738573Y-118492354D01*
G37*
G36*
X152752607Y-118735022D02*
X152952792Y-118817941D01*
X153132963Y-118938328D01*
X153286172Y-119091537D01*
X153286174Y-119091540D01*
X153286175Y-119091541D01*
X153406557Y-119271705D01*
X153406559Y-119271708D01*
X153489478Y-119471893D01*
X153531750Y-119684408D01*
X153531750Y-119901092D01*
X153489478Y-120113607D01*
X153406559Y-120313792D01*
X153286172Y-120493963D01*
X153132963Y-120647172D01*
X153132960Y-120647174D01*
X153132959Y-120647175D01*
X153082173Y-120681109D01*
X152952792Y-120767559D01*
X152752607Y-120850478D01*
X152540092Y-120892750D01*
X152323408Y-120892750D01*
X152110893Y-120850478D01*
X151910708Y-120767559D01*
X151781327Y-120681109D01*
X151730541Y-120647175D01*
X151730540Y-120647174D01*
X151730537Y-120647172D01*
X151577328Y-120493963D01*
X151456941Y-120313792D01*
X151374022Y-120113607D01*
X151331750Y-119901092D01*
X151331750Y-119684408D01*
X151374022Y-119471893D01*
X151456941Y-119271708D01*
X151456943Y-119271705D01*
X151577325Y-119091541D01*
X151577326Y-119091540D01*
X151577328Y-119091537D01*
X151730537Y-118938328D01*
X151910708Y-118817941D01*
X152110893Y-118735022D01*
X152323408Y-118692750D01*
X152540092Y-118692750D01*
X152752607Y-118735022D01*
X152752607Y-118735022D01*
G37*
G36*
X114652607Y-118735022D02*
X114852792Y-118817941D01*
X115032963Y-118938328D01*
X115186172Y-119091537D01*
X115186174Y-119091540D01*
X115186175Y-119091541D01*
X115306557Y-119271705D01*
X115306559Y-119271708D01*
X115389478Y-119471893D01*
X115431750Y-119684408D01*
X115431750Y-119901092D01*
X115389478Y-120113607D01*
X115306559Y-120313792D01*
X115186172Y-120493963D01*
X115032963Y-120647172D01*
X115032960Y-120647174D01*
X115032959Y-120647175D01*
X114982173Y-120681109D01*
X114852792Y-120767559D01*
X114652607Y-120850478D01*
X114440092Y-120892750D01*
X114223408Y-120892750D01*
X114010893Y-120850478D01*
X113810708Y-120767559D01*
X113681327Y-120681109D01*
X113630541Y-120647175D01*
X113630540Y-120647174D01*
X113630537Y-120647172D01*
X113477328Y-120493963D01*
X113356941Y-120313792D01*
X113274022Y-120113607D01*
X113231750Y-119901092D01*
X113231750Y-119684408D01*
X113274022Y-119471893D01*
X113356941Y-119271708D01*
X113356943Y-119271705D01*
X113477325Y-119091541D01*
X113477326Y-119091540D01*
X113477328Y-119091537D01*
X113630537Y-118938328D01*
X113810708Y-118817941D01*
X114010893Y-118735022D01*
X114223408Y-118692750D01*
X114440092Y-118692750D01*
X114652607Y-118735022D01*
X114652607Y-118735022D01*
G37*
G36*
X133702607Y-118735022D02*
X133902792Y-118817941D01*
X134082963Y-118938328D01*
X134236172Y-119091537D01*
X134236174Y-119091540D01*
X134236175Y-119091541D01*
X134356557Y-119271705D01*
X134356559Y-119271708D01*
X134439478Y-119471893D01*
X134481750Y-119684408D01*
X134481750Y-119901092D01*
X134439478Y-120113607D01*
X134356559Y-120313792D01*
X134236172Y-120493963D01*
X134082963Y-120647172D01*
X134082960Y-120647174D01*
X134082959Y-120647175D01*
X134032173Y-120681109D01*
X133902792Y-120767559D01*
X133702607Y-120850478D01*
X133490092Y-120892750D01*
X133273408Y-120892750D01*
X133060893Y-120850478D01*
X132860708Y-120767559D01*
X132731327Y-120681109D01*
X132680541Y-120647175D01*
X132680540Y-120647174D01*
X132680537Y-120647172D01*
X132527328Y-120493963D01*
X132406941Y-120313792D01*
X132324022Y-120113607D01*
X132281750Y-119901092D01*
X132281750Y-119684408D01*
X132324022Y-119471893D01*
X132406941Y-119271708D01*
X132406943Y-119271705D01*
X132527325Y-119091541D01*
X132527326Y-119091540D01*
X132527328Y-119091537D01*
X132680537Y-118938328D01*
X132860708Y-118817941D01*
X133060893Y-118735022D01*
X133273408Y-118692750D01*
X133490092Y-118692750D01*
X133702607Y-118735022D01*
X133702607Y-118735022D01*
G37*
G36*
X159102607Y-116195022D02*
X159302792Y-116277941D01*
X159482963Y-116398328D01*
X159636172Y-116551537D01*
X159756559Y-116731708D01*
X159839478Y-116931893D01*
X159881750Y-117144408D01*
X159881750Y-117361092D01*
X159839478Y-117573607D01*
X159756559Y-117773792D01*
X159636172Y-117953963D01*
X159482963Y-118107172D01*
X159482960Y-118107174D01*
X159482959Y-118107175D01*
X159364431Y-118186373D01*
X159302792Y-118227559D01*
X159102607Y-118310478D01*
X158890092Y-118352750D01*
X158673408Y-118352750D01*
X158460893Y-118310478D01*
X158260708Y-118227559D01*
X158199069Y-118186373D01*
X158080541Y-118107175D01*
X158080540Y-118107174D01*
X158080537Y-118107172D01*
X157927328Y-117953963D01*
X157806941Y-117773792D01*
X157724022Y-117573607D01*
X157681750Y-117361092D01*
X157681750Y-117144408D01*
X157724022Y-116931893D01*
X157806941Y-116731708D01*
X157927328Y-116551537D01*
X158080537Y-116398328D01*
X158260708Y-116277941D01*
X158460893Y-116195022D01*
X158673408Y-116152750D01*
X158890092Y-116152750D01*
X159102607Y-116195022D01*
X159102607Y-116195022D01*
G37*
G36*
X140052607Y-116195022D02*
X140252792Y-116277941D01*
X140432963Y-116398328D01*
X140586172Y-116551537D01*
X140706559Y-116731708D01*
X140789478Y-116931893D01*
X140831750Y-117144408D01*
X140831750Y-117361092D01*
X140789478Y-117573607D01*
X140706559Y-117773792D01*
X140586172Y-117953963D01*
X140432963Y-118107172D01*
X140432960Y-118107174D01*
X140432959Y-118107175D01*
X140314431Y-118186373D01*
X140252792Y-118227559D01*
X140052607Y-118310478D01*
X139840092Y-118352750D01*
X139623408Y-118352750D01*
X139410893Y-118310478D01*
X139210708Y-118227559D01*
X139149069Y-118186373D01*
X139030541Y-118107175D01*
X139030540Y-118107174D01*
X139030537Y-118107172D01*
X138877328Y-117953963D01*
X138756941Y-117773792D01*
X138674022Y-117573607D01*
X138631750Y-117361092D01*
X138631750Y-117144408D01*
X138674022Y-116931893D01*
X138756941Y-116731708D01*
X138877328Y-116551537D01*
X139030537Y-116398328D01*
X139210708Y-116277941D01*
X139410893Y-116195022D01*
X139623408Y-116152750D01*
X139840092Y-116152750D01*
X140052607Y-116195022D01*
X140052607Y-116195022D01*
G37*
G36*
X121002607Y-116195022D02*
X121202792Y-116277941D01*
X121382963Y-116398328D01*
X121536172Y-116551537D01*
X121656559Y-116731708D01*
X121739478Y-116931893D01*
X121781750Y-117144408D01*
X121781750Y-117361092D01*
X121739478Y-117573607D01*
X121656559Y-117773792D01*
X121536172Y-117953963D01*
X121382963Y-118107172D01*
X121382960Y-118107174D01*
X121382959Y-118107175D01*
X121264431Y-118186373D01*
X121202792Y-118227559D01*
X121002607Y-118310478D01*
X120790092Y-118352750D01*
X120573408Y-118352750D01*
X120360893Y-118310478D01*
X120160708Y-118227559D01*
X120099069Y-118186373D01*
X119980541Y-118107175D01*
X119980540Y-118107174D01*
X119980537Y-118107172D01*
X119827328Y-117953963D01*
X119706941Y-117773792D01*
X119624022Y-117573607D01*
X119581750Y-117361092D01*
X119581750Y-117144408D01*
X119624022Y-116931893D01*
X119706941Y-116731708D01*
X119827328Y-116551537D01*
X119980537Y-116398328D01*
X120160708Y-116277941D01*
X120360893Y-116195022D01*
X120573408Y-116152750D01*
X120790092Y-116152750D01*
X121002607Y-116195022D01*
X121002607Y-116195022D01*
G37*
G36*
X118608453Y-106844236D02*
X118899633Y-106964847D01*
X119161694Y-107139951D01*
X119384549Y-107362806D01*
X119559653Y-107624867D01*
X119680264Y-107916047D01*
X119741750Y-108225162D01*
X119741750Y-108540338D01*
X119680264Y-108849453D01*
X119559653Y-109140633D01*
X119384549Y-109402694D01*
X119161694Y-109625549D01*
X118899633Y-109800653D01*
X118608453Y-109921264D01*
X118299338Y-109982750D01*
X117984162Y-109982750D01*
X117675047Y-109921264D01*
X117383867Y-109800653D01*
X117121806Y-109625549D01*
X116898951Y-109402694D01*
X116723847Y-109140633D01*
X116603236Y-108849453D01*
X116541750Y-108540338D01*
X116541750Y-108225162D01*
X116603236Y-107916047D01*
X116723847Y-107624867D01*
X116898951Y-107362806D01*
X117121806Y-107139951D01*
X117383867Y-106964847D01*
X117675047Y-106844236D01*
X117984162Y-106782750D01*
X118299338Y-106782750D01*
X118608453Y-106844236D01*
X118608453Y-106844236D01*
G37*
G36*
X137658453Y-106844236D02*
X137949633Y-106964847D01*
X138211694Y-107139951D01*
X138434549Y-107362806D01*
X138609653Y-107624867D01*
X138730264Y-107916047D01*
X138791750Y-108225162D01*
X138791750Y-108540338D01*
X138730264Y-108849453D01*
X138609653Y-109140633D01*
X138434549Y-109402694D01*
X138211694Y-109625549D01*
X137949633Y-109800653D01*
X137658453Y-109921264D01*
X137349338Y-109982750D01*
X137034162Y-109982750D01*
X136725047Y-109921264D01*
X136433867Y-109800653D01*
X136171806Y-109625549D01*
X135948951Y-109402694D01*
X135773847Y-109140633D01*
X135653236Y-108849453D01*
X135591750Y-108540338D01*
X135591750Y-108225162D01*
X135653236Y-107916047D01*
X135773847Y-107624867D01*
X135948951Y-107362806D01*
X136171806Y-107139951D01*
X136433867Y-106964847D01*
X136725047Y-106844236D01*
X137034162Y-106782750D01*
X137349338Y-106782750D01*
X137658453Y-106844236D01*
X137658453Y-106844236D01*
G37*
G36*
X156708453Y-106844236D02*
X156999633Y-106964847D01*
X157261694Y-107139951D01*
X157484549Y-107362806D01*
X157659653Y-107624867D01*
X157780264Y-107916047D01*
X157841750Y-108225162D01*
X157841750Y-108540338D01*
X157780264Y-108849453D01*
X157659653Y-109140633D01*
X157484549Y-109402694D01*
X157261694Y-109625549D01*
X156999633Y-109800653D01*
X156708453Y-109921264D01*
X156399338Y-109982750D01*
X156084162Y-109982750D01*
X155775047Y-109921264D01*
X155483867Y-109800653D01*
X155221806Y-109625549D01*
X154998951Y-109402694D01*
X154823847Y-109140633D01*
X154703236Y-108849453D01*
X154641750Y-108540338D01*
X154641750Y-108225162D01*
X154703236Y-107916047D01*
X154823847Y-107624867D01*
X154998951Y-107362806D01*
X155221806Y-107139951D01*
X155483867Y-106964847D01*
X155775047Y-106844236D01*
X156084162Y-106782750D01*
X156399338Y-106782750D01*
X156708453Y-106844236D01*
X156708453Y-106844236D01*
G37*
G36*
X175758453Y-106844236D02*
X176049633Y-106964847D01*
X176311694Y-107139951D01*
X176534549Y-107362806D01*
X176709653Y-107624867D01*
X176830264Y-107916047D01*
X176891750Y-108225162D01*
X176891750Y-108540338D01*
X176830264Y-108849453D01*
X176709653Y-109140633D01*
X176534549Y-109402694D01*
X176311694Y-109625549D01*
X176049633Y-109800653D01*
X175758453Y-109921264D01*
X175449338Y-109982750D01*
X175134162Y-109982750D01*
X174825047Y-109921264D01*
X174533867Y-109800653D01*
X174271806Y-109625549D01*
X174048951Y-109402694D01*
X173873847Y-109140633D01*
X173753236Y-108849453D01*
X173691750Y-108540338D01*
X173691750Y-108225162D01*
X173753236Y-107916047D01*
X173873847Y-107624867D01*
X174048951Y-107362806D01*
X174271806Y-107139951D01*
X174533867Y-106964847D01*
X174825047Y-106844236D01*
X175134162Y-106782750D01*
X175449338Y-106782750D01*
X175758453Y-106844236D01*
X175758453Y-106844236D01*
G37*
G36*
X183600000Y-109950000D02*
X182750000Y-109950000D01*
X182750000Y-108350000D01*
X183600000Y-108350000D01*
X183600000Y-109950000D01*
X183600000Y-109950000D01*
G37*
G36*
X181850000Y-109950000D02*
X181000000Y-109950000D01*
X181000000Y-108350000D01*
X181850000Y-108350000D01*
X181850000Y-109950000D01*
X181850000Y-109950000D01*
G37*
G36*
X112350000Y-109950000D02*
X111500000Y-109950000D01*
X111500000Y-108350000D01*
X112350000Y-108350000D01*
X112350000Y-109950000D01*
X112350000Y-109950000D01*
G37*
G36*
X110600000Y-109950000D02*
X109750000Y-109950000D01*
X109750000Y-108350000D01*
X110600000Y-108350000D01*
X110600000Y-109950000D01*
X110600000Y-109950000D01*
G37*
G36*
X173391750Y-109307750D02*
X171991750Y-109307750D01*
X171991750Y-108707750D01*
X173391750Y-108707750D01*
X173391750Y-109307750D01*
X173391750Y-109307750D01*
G37*
G36*
X116241750Y-109307750D02*
X114841750Y-109307750D01*
X114841750Y-108707750D01*
X116241750Y-108707750D01*
X116241750Y-109307750D01*
X116241750Y-109307750D01*
G37*
G36*
X121441750Y-109307750D02*
X120041750Y-109307750D01*
X120041750Y-108707750D01*
X121441750Y-108707750D01*
X121441750Y-109307750D01*
X121441750Y-109307750D01*
G37*
G36*
X135291750Y-109307750D02*
X133891750Y-109307750D01*
X133891750Y-108707750D01*
X135291750Y-108707750D01*
X135291750Y-109307750D01*
X135291750Y-109307750D01*
G37*
G36*
X154341750Y-109307750D02*
X152941750Y-109307750D01*
X152941750Y-108707750D01*
X154341750Y-108707750D01*
X154341750Y-109307750D01*
X154341750Y-109307750D01*
G37*
G36*
X178591750Y-109307750D02*
X177191750Y-109307750D01*
X177191750Y-108707750D01*
X178591750Y-108707750D01*
X178591750Y-109307750D01*
X178591750Y-109307750D01*
G37*
G36*
X159541750Y-109307750D02*
X158141750Y-109307750D01*
X158141750Y-108707750D01*
X159541750Y-108707750D01*
X159541750Y-109307750D01*
X159541750Y-109307750D01*
G37*
G36*
X140491750Y-109307750D02*
X139091750Y-109307750D01*
X139091750Y-108707750D01*
X140491750Y-108707750D01*
X140491750Y-109307750D01*
X140491750Y-109307750D01*
G37*
G36*
X178591750Y-108057750D02*
X177191750Y-108057750D01*
X177191750Y-107457750D01*
X178591750Y-107457750D01*
X178591750Y-108057750D01*
X178591750Y-108057750D01*
G37*
G36*
X173391750Y-108057750D02*
X171991750Y-108057750D01*
X171991750Y-107457750D01*
X173391750Y-107457750D01*
X173391750Y-108057750D01*
X173391750Y-108057750D01*
G37*
G36*
X159541750Y-108057750D02*
X158141750Y-108057750D01*
X158141750Y-107457750D01*
X159541750Y-107457750D01*
X159541750Y-108057750D01*
X159541750Y-108057750D01*
G37*
G36*
X116241750Y-108057750D02*
X114841750Y-108057750D01*
X114841750Y-107457750D01*
X116241750Y-107457750D01*
X116241750Y-108057750D01*
X116241750Y-108057750D01*
G37*
G36*
X154341750Y-108057750D02*
X152941750Y-108057750D01*
X152941750Y-107457750D01*
X154341750Y-107457750D01*
X154341750Y-108057750D01*
X154341750Y-108057750D01*
G37*
G36*
X140491750Y-108057750D02*
X139091750Y-108057750D01*
X139091750Y-107457750D01*
X140491750Y-107457750D01*
X140491750Y-108057750D01*
X140491750Y-108057750D01*
G37*
G36*
X135291750Y-108057750D02*
X133891750Y-108057750D01*
X133891750Y-107457750D01*
X135291750Y-107457750D01*
X135291750Y-108057750D01*
X135291750Y-108057750D01*
G37*
G36*
X121441750Y-108057750D02*
X120041750Y-108057750D01*
X120041750Y-107457750D01*
X121441750Y-107457750D01*
X121441750Y-108057750D01*
X121441750Y-108057750D01*
G37*
G36*
X112350000Y-106450000D02*
X111500000Y-106450000D01*
X111500000Y-104850000D01*
X112350000Y-104850000D01*
X112350000Y-106450000D01*
X112350000Y-106450000D01*
G37*
G36*
X181850000Y-106450000D02*
X181000000Y-106450000D01*
X181000000Y-104850000D01*
X181850000Y-104850000D01*
X181850000Y-106450000D01*
X181850000Y-106450000D01*
G37*
G36*
X183600000Y-106450000D02*
X182750000Y-106450000D01*
X182750000Y-104850000D01*
X183600000Y-104850000D01*
X183600000Y-106450000D01*
X183600000Y-106450000D01*
G37*
G36*
X110600000Y-106450000D02*
X109750000Y-106450000D01*
X109750000Y-104850000D01*
X110600000Y-104850000D01*
X110600000Y-106450000D01*
X110600000Y-106450000D01*
G37*
G36*
X118725128Y-101359609D02*
X119089104Y-101510372D01*
X119416679Y-101729251D01*
X119695249Y-102007821D01*
X119914128Y-102335396D01*
X120064891Y-102699372D01*
X120141750Y-103085766D01*
X120141750Y-103479734D01*
X120064891Y-103866128D01*
X119914128Y-104230104D01*
X119695249Y-104557679D01*
X119416679Y-104836249D01*
X119089104Y-105055128D01*
X118725128Y-105205891D01*
X118338734Y-105282750D01*
X117944766Y-105282750D01*
X117558372Y-105205891D01*
X117194396Y-105055128D01*
X116866821Y-104836249D01*
X116588251Y-104557679D01*
X116369372Y-104230104D01*
X116218609Y-103866128D01*
X116141750Y-103479734D01*
X116141750Y-103085766D01*
X116218609Y-102699372D01*
X116369372Y-102335396D01*
X116588251Y-102007821D01*
X116866821Y-101729251D01*
X117194396Y-101510372D01*
X117558372Y-101359609D01*
X117944766Y-101282750D01*
X118338734Y-101282750D01*
X118725128Y-101359609D01*
X118725128Y-101359609D01*
G37*
G36*
X156825128Y-101359609D02*
X157189104Y-101510372D01*
X157516679Y-101729251D01*
X157795249Y-102007821D01*
X158014128Y-102335396D01*
X158164891Y-102699372D01*
X158241750Y-103085766D01*
X158241750Y-103479734D01*
X158164891Y-103866128D01*
X158014128Y-104230104D01*
X157795249Y-104557679D01*
X157516679Y-104836249D01*
X157189104Y-105055128D01*
X156825128Y-105205891D01*
X156438734Y-105282750D01*
X156044766Y-105282750D01*
X155658372Y-105205891D01*
X155294396Y-105055128D01*
X154966821Y-104836249D01*
X154688251Y-104557679D01*
X154469372Y-104230104D01*
X154318609Y-103866128D01*
X154241750Y-103479734D01*
X154241750Y-103085766D01*
X154318609Y-102699372D01*
X154469372Y-102335396D01*
X154688251Y-102007821D01*
X154966821Y-101729251D01*
X155294396Y-101510372D01*
X155658372Y-101359609D01*
X156044766Y-101282750D01*
X156438734Y-101282750D01*
X156825128Y-101359609D01*
X156825128Y-101359609D01*
G37*
G36*
X175875128Y-101359609D02*
X176239104Y-101510372D01*
X176566679Y-101729251D01*
X176845249Y-102007821D01*
X177064128Y-102335396D01*
X177214891Y-102699372D01*
X177291750Y-103085766D01*
X177291750Y-103479734D01*
X177214891Y-103866128D01*
X177064128Y-104230104D01*
X176845249Y-104557679D01*
X176566679Y-104836249D01*
X176239104Y-105055128D01*
X175875128Y-105205891D01*
X175488734Y-105282750D01*
X175094766Y-105282750D01*
X174708372Y-105205891D01*
X174344396Y-105055128D01*
X174016821Y-104836249D01*
X173738251Y-104557679D01*
X173519372Y-104230104D01*
X173368609Y-103866128D01*
X173291750Y-103479734D01*
X173291750Y-103085766D01*
X173368609Y-102699372D01*
X173519372Y-102335396D01*
X173738251Y-102007821D01*
X174016821Y-101729251D01*
X174344396Y-101510372D01*
X174708372Y-101359609D01*
X175094766Y-101282750D01*
X175488734Y-101282750D01*
X175875128Y-101359609D01*
X175875128Y-101359609D01*
G37*
G36*
X137775128Y-101359609D02*
X138139104Y-101510372D01*
X138466679Y-101729251D01*
X138745249Y-102007821D01*
X138964128Y-102335396D01*
X139114891Y-102699372D01*
X139191750Y-103085766D01*
X139191750Y-103479734D01*
X139114891Y-103866128D01*
X138964128Y-104230104D01*
X138745249Y-104557679D01*
X138466679Y-104836249D01*
X138139104Y-105055128D01*
X137775128Y-105205891D01*
X137388734Y-105282750D01*
X136994766Y-105282750D01*
X136608372Y-105205891D01*
X136244396Y-105055128D01*
X135916821Y-104836249D01*
X135638251Y-104557679D01*
X135419372Y-104230104D01*
X135268609Y-103866128D01*
X135191750Y-103479734D01*
X135191750Y-103085766D01*
X135268609Y-102699372D01*
X135419372Y-102335396D01*
X135638251Y-102007821D01*
X135916821Y-101729251D01*
X136244396Y-101510372D01*
X136608372Y-101359609D01*
X136994766Y-101282750D01*
X137388734Y-101282750D01*
X137775128Y-101359609D01*
X137775128Y-101359609D01*
G37*
G36*
X146970857Y-102192272D02*
X147171042Y-102275191D01*
X147351213Y-102395578D01*
X147504422Y-102548787D01*
X147624809Y-102728958D01*
X147707728Y-102929143D01*
X147750000Y-103141658D01*
X147750000Y-103358342D01*
X147707728Y-103570857D01*
X147624809Y-103771042D01*
X147504422Y-103951213D01*
X147351213Y-104104422D01*
X147351210Y-104104424D01*
X147351209Y-104104425D01*
X147171045Y-104224807D01*
X147171042Y-104224809D01*
X146970857Y-104307728D01*
X146758342Y-104350000D01*
X146541658Y-104350000D01*
X146329143Y-104307728D01*
X146128958Y-104224809D01*
X146128955Y-104224807D01*
X145948791Y-104104425D01*
X145948790Y-104104424D01*
X145948787Y-104104422D01*
X145795578Y-103951213D01*
X145675191Y-103771042D01*
X145592272Y-103570857D01*
X145550000Y-103358342D01*
X145550000Y-103141658D01*
X145592272Y-102929143D01*
X145675191Y-102728958D01*
X145795578Y-102548787D01*
X145948787Y-102395578D01*
X146128958Y-102275191D01*
X146329143Y-102192272D01*
X146541658Y-102150000D01*
X146758342Y-102150000D01*
X146970857Y-102192272D01*
X146970857Y-102192272D01*
G37*
G36*
X142519684Y-102465414D02*
X142674377Y-102529490D01*
X142813597Y-102622514D01*
X142931986Y-102740903D01*
X143025010Y-102880123D01*
X143089086Y-103034816D01*
X143121750Y-103199031D01*
X143121750Y-103366469D01*
X143089086Y-103530684D01*
X143025010Y-103685377D01*
X142931986Y-103824597D01*
X142813597Y-103942986D01*
X142674377Y-104036010D01*
X142519684Y-104100086D01*
X142355469Y-104132750D01*
X142188031Y-104132750D01*
X142023816Y-104100086D01*
X141869123Y-104036010D01*
X141729903Y-103942986D01*
X141611514Y-103824597D01*
X141518490Y-103685377D01*
X141454414Y-103530684D01*
X141421750Y-103366469D01*
X141421750Y-103199031D01*
X141454414Y-103034816D01*
X141518490Y-102880123D01*
X141611514Y-102740903D01*
X141729903Y-102622514D01*
X141869123Y-102529490D01*
X142023816Y-102465414D01*
X142188031Y-102432750D01*
X142355469Y-102432750D01*
X142519684Y-102465414D01*
X142519684Y-102465414D01*
G37*
G36*
X132359684Y-102465414D02*
X132514377Y-102529490D01*
X132653597Y-102622514D01*
X132771986Y-102740903D01*
X132865010Y-102880123D01*
X132929086Y-103034816D01*
X132961750Y-103199031D01*
X132961750Y-103366469D01*
X132929086Y-103530684D01*
X132865010Y-103685377D01*
X132771986Y-103824597D01*
X132653597Y-103942986D01*
X132514377Y-104036010D01*
X132359684Y-104100086D01*
X132195469Y-104132750D01*
X132028031Y-104132750D01*
X131863816Y-104100086D01*
X131709123Y-104036010D01*
X131569903Y-103942986D01*
X131451514Y-103824597D01*
X131358490Y-103685377D01*
X131294414Y-103530684D01*
X131261750Y-103366469D01*
X131261750Y-103199031D01*
X131294414Y-103034816D01*
X131358490Y-102880123D01*
X131451514Y-102740903D01*
X131569903Y-102622514D01*
X131709123Y-102529490D01*
X131863816Y-102465414D01*
X132028031Y-102432750D01*
X132195469Y-102432750D01*
X132359684Y-102465414D01*
X132359684Y-102465414D01*
G37*
G36*
X113309684Y-102465414D02*
X113464377Y-102529490D01*
X113603597Y-102622514D01*
X113721986Y-102740903D01*
X113815010Y-102880123D01*
X113879086Y-103034816D01*
X113911750Y-103199031D01*
X113911750Y-103366469D01*
X113879086Y-103530684D01*
X113815010Y-103685377D01*
X113721986Y-103824597D01*
X113603597Y-103942986D01*
X113464377Y-104036010D01*
X113309684Y-104100086D01*
X113145469Y-104132750D01*
X112978031Y-104132750D01*
X112813816Y-104100086D01*
X112659123Y-104036010D01*
X112519903Y-103942986D01*
X112401514Y-103824597D01*
X112308490Y-103685377D01*
X112244414Y-103530684D01*
X112211750Y-103366469D01*
X112211750Y-103199031D01*
X112244414Y-103034816D01*
X112308490Y-102880123D01*
X112401514Y-102740903D01*
X112519903Y-102622514D01*
X112659123Y-102529490D01*
X112813816Y-102465414D01*
X112978031Y-102432750D01*
X113145469Y-102432750D01*
X113309684Y-102465414D01*
X113309684Y-102465414D01*
G37*
G36*
X170459684Y-102465414D02*
X170614377Y-102529490D01*
X170753597Y-102622514D01*
X170871986Y-102740903D01*
X170965010Y-102880123D01*
X171029086Y-103034816D01*
X171061750Y-103199031D01*
X171061750Y-103366469D01*
X171029086Y-103530684D01*
X170965010Y-103685377D01*
X170871986Y-103824597D01*
X170753597Y-103942986D01*
X170614377Y-104036010D01*
X170459684Y-104100086D01*
X170295469Y-104132750D01*
X170128031Y-104132750D01*
X169963816Y-104100086D01*
X169809123Y-104036010D01*
X169669903Y-103942986D01*
X169551514Y-103824597D01*
X169458490Y-103685377D01*
X169394414Y-103530684D01*
X169361750Y-103366469D01*
X169361750Y-103199031D01*
X169394414Y-103034816D01*
X169458490Y-102880123D01*
X169551514Y-102740903D01*
X169669903Y-102622514D01*
X169809123Y-102529490D01*
X169963816Y-102465414D01*
X170128031Y-102432750D01*
X170295469Y-102432750D01*
X170459684Y-102465414D01*
X170459684Y-102465414D01*
G37*
G36*
X123469684Y-102465414D02*
X123624377Y-102529490D01*
X123763597Y-102622514D01*
X123881986Y-102740903D01*
X123975010Y-102880123D01*
X124039086Y-103034816D01*
X124071750Y-103199031D01*
X124071750Y-103366469D01*
X124039086Y-103530684D01*
X123975010Y-103685377D01*
X123881986Y-103824597D01*
X123763597Y-103942986D01*
X123624377Y-104036010D01*
X123469684Y-104100086D01*
X123305469Y-104132750D01*
X123138031Y-104132750D01*
X122973816Y-104100086D01*
X122819123Y-104036010D01*
X122679903Y-103942986D01*
X122561514Y-103824597D01*
X122468490Y-103685377D01*
X122404414Y-103530684D01*
X122371750Y-103366469D01*
X122371750Y-103199031D01*
X122404414Y-103034816D01*
X122468490Y-102880123D01*
X122561514Y-102740903D01*
X122679903Y-102622514D01*
X122819123Y-102529490D01*
X122973816Y-102465414D01*
X123138031Y-102432750D01*
X123305469Y-102432750D01*
X123469684Y-102465414D01*
X123469684Y-102465414D01*
G37*
G36*
X161569684Y-102465414D02*
X161724377Y-102529490D01*
X161863597Y-102622514D01*
X161981986Y-102740903D01*
X162075010Y-102880123D01*
X162139086Y-103034816D01*
X162171750Y-103199031D01*
X162171750Y-103366469D01*
X162139086Y-103530684D01*
X162075010Y-103685377D01*
X161981986Y-103824597D01*
X161863597Y-103942986D01*
X161724377Y-104036010D01*
X161569684Y-104100086D01*
X161405469Y-104132750D01*
X161238031Y-104132750D01*
X161073816Y-104100086D01*
X160919123Y-104036010D01*
X160779903Y-103942986D01*
X160661514Y-103824597D01*
X160568490Y-103685377D01*
X160504414Y-103530684D01*
X160471750Y-103366469D01*
X160471750Y-103199031D01*
X160504414Y-103034816D01*
X160568490Y-102880123D01*
X160661514Y-102740903D01*
X160779903Y-102622514D01*
X160919123Y-102529490D01*
X161073816Y-102465414D01*
X161238031Y-102432750D01*
X161405469Y-102432750D01*
X161569684Y-102465414D01*
X161569684Y-102465414D01*
G37*
G36*
X151409684Y-102465414D02*
X151564377Y-102529490D01*
X151703597Y-102622514D01*
X151821986Y-102740903D01*
X151915010Y-102880123D01*
X151979086Y-103034816D01*
X152011750Y-103199031D01*
X152011750Y-103366469D01*
X151979086Y-103530684D01*
X151915010Y-103685377D01*
X151821986Y-103824597D01*
X151703597Y-103942986D01*
X151564377Y-104036010D01*
X151409684Y-104100086D01*
X151245469Y-104132750D01*
X151078031Y-104132750D01*
X150913816Y-104100086D01*
X150759123Y-104036010D01*
X150619903Y-103942986D01*
X150501514Y-103824597D01*
X150408490Y-103685377D01*
X150344414Y-103530684D01*
X150311750Y-103366469D01*
X150311750Y-103199031D01*
X150344414Y-103034816D01*
X150408490Y-102880123D01*
X150501514Y-102740903D01*
X150619903Y-102622514D01*
X150759123Y-102529490D01*
X150913816Y-102465414D01*
X151078031Y-102432750D01*
X151245469Y-102432750D01*
X151409684Y-102465414D01*
X151409684Y-102465414D01*
G37*
G36*
X180619684Y-102465414D02*
X180774377Y-102529490D01*
X180913597Y-102622514D01*
X181031986Y-102740903D01*
X181125010Y-102880123D01*
X181189086Y-103034816D01*
X181221750Y-103199031D01*
X181221750Y-103366469D01*
X181189086Y-103530684D01*
X181125010Y-103685377D01*
X181031986Y-103824597D01*
X180913597Y-103942986D01*
X180774377Y-104036010D01*
X180619684Y-104100086D01*
X180455469Y-104132750D01*
X180288031Y-104132750D01*
X180123816Y-104100086D01*
X179969123Y-104036010D01*
X179829903Y-103942986D01*
X179711514Y-103824597D01*
X179618490Y-103685377D01*
X179554414Y-103530684D01*
X179521750Y-103366469D01*
X179521750Y-103199031D01*
X179554414Y-103034816D01*
X179618490Y-102880123D01*
X179711514Y-102740903D01*
X179829903Y-102622514D01*
X179969123Y-102529490D01*
X180123816Y-102465414D01*
X180288031Y-102432750D01*
X180455469Y-102432750D01*
X180619684Y-102465414D01*
X180619684Y-102465414D01*
G37*
G36*
X133702607Y-99685022D02*
X133902792Y-99767941D01*
X134082963Y-99888328D01*
X134236172Y-100041537D01*
X134356559Y-100221708D01*
X134439478Y-100421893D01*
X134481750Y-100634408D01*
X134481750Y-100851092D01*
X134439478Y-101063607D01*
X134356559Y-101263792D01*
X134236172Y-101443963D01*
X134082963Y-101597172D01*
X133902792Y-101717559D01*
X133702607Y-101800478D01*
X133490092Y-101842750D01*
X133273408Y-101842750D01*
X133060893Y-101800478D01*
X132860708Y-101717559D01*
X132680537Y-101597172D01*
X132527328Y-101443963D01*
X132406941Y-101263792D01*
X132324022Y-101063607D01*
X132281750Y-100851092D01*
X132281750Y-100634408D01*
X132324022Y-100421893D01*
X132406941Y-100221708D01*
X132527328Y-100041537D01*
X132680537Y-99888328D01*
X132860708Y-99767941D01*
X133060893Y-99685022D01*
X133273408Y-99642750D01*
X133490092Y-99642750D01*
X133702607Y-99685022D01*
X133702607Y-99685022D01*
G37*
G36*
X114652607Y-99685022D02*
X114852792Y-99767941D01*
X115032963Y-99888328D01*
X115186172Y-100041537D01*
X115306559Y-100221708D01*
X115389478Y-100421893D01*
X115431750Y-100634408D01*
X115431750Y-100851092D01*
X115389478Y-101063607D01*
X115306559Y-101263792D01*
X115186172Y-101443963D01*
X115032963Y-101597172D01*
X114852792Y-101717559D01*
X114652607Y-101800478D01*
X114440092Y-101842750D01*
X114223408Y-101842750D01*
X114010893Y-101800478D01*
X113810708Y-101717559D01*
X113630537Y-101597172D01*
X113477328Y-101443963D01*
X113356941Y-101263792D01*
X113274022Y-101063607D01*
X113231750Y-100851092D01*
X113231750Y-100634408D01*
X113274022Y-100421893D01*
X113356941Y-100221708D01*
X113477328Y-100041537D01*
X113630537Y-99888328D01*
X113810708Y-99767941D01*
X114010893Y-99685022D01*
X114223408Y-99642750D01*
X114440092Y-99642750D01*
X114652607Y-99685022D01*
X114652607Y-99685022D01*
G37*
G36*
X152752607Y-99685022D02*
X152952792Y-99767941D01*
X153132963Y-99888328D01*
X153286172Y-100041537D01*
X153406559Y-100221708D01*
X153489478Y-100421893D01*
X153531750Y-100634408D01*
X153531750Y-100851092D01*
X153489478Y-101063607D01*
X153406559Y-101263792D01*
X153286172Y-101443963D01*
X153132963Y-101597172D01*
X152952792Y-101717559D01*
X152752607Y-101800478D01*
X152540092Y-101842750D01*
X152323408Y-101842750D01*
X152110893Y-101800478D01*
X151910708Y-101717559D01*
X151730537Y-101597172D01*
X151577328Y-101443963D01*
X151456941Y-101263792D01*
X151374022Y-101063607D01*
X151331750Y-100851092D01*
X151331750Y-100634408D01*
X151374022Y-100421893D01*
X151456941Y-100221708D01*
X151577328Y-100041537D01*
X151730537Y-99888328D01*
X151910708Y-99767941D01*
X152110893Y-99685022D01*
X152323408Y-99642750D01*
X152540092Y-99642750D01*
X152752607Y-99685022D01*
X152752607Y-99685022D01*
G37*
G36*
X171802607Y-99685022D02*
X172002792Y-99767941D01*
X172182963Y-99888328D01*
X172336172Y-100041537D01*
X172456559Y-100221708D01*
X172539478Y-100421893D01*
X172581750Y-100634408D01*
X172581750Y-100851092D01*
X172539478Y-101063607D01*
X172456559Y-101263792D01*
X172336172Y-101443963D01*
X172182963Y-101597172D01*
X172002792Y-101717559D01*
X171802607Y-101800478D01*
X171590092Y-101842750D01*
X171373408Y-101842750D01*
X171160893Y-101800478D01*
X170960708Y-101717559D01*
X170780537Y-101597172D01*
X170627328Y-101443963D01*
X170506941Y-101263792D01*
X170424022Y-101063607D01*
X170381750Y-100851092D01*
X170381750Y-100634408D01*
X170424022Y-100421893D01*
X170506941Y-100221708D01*
X170627328Y-100041537D01*
X170780537Y-99888328D01*
X170960708Y-99767941D01*
X171160893Y-99685022D01*
X171373408Y-99642750D01*
X171590092Y-99642750D01*
X171802607Y-99685022D01*
X171802607Y-99685022D01*
G37*
G36*
X159102607Y-97145022D02*
X159302792Y-97227941D01*
X159482963Y-97348328D01*
X159636172Y-97501537D01*
X159756559Y-97681708D01*
X159839478Y-97881893D01*
X159881750Y-98094408D01*
X159881750Y-98311092D01*
X159839478Y-98523607D01*
X159756559Y-98723792D01*
X159636172Y-98903963D01*
X159482963Y-99057172D01*
X159302792Y-99177559D01*
X159102607Y-99260478D01*
X158890092Y-99302750D01*
X158673408Y-99302750D01*
X158460893Y-99260478D01*
X158260708Y-99177559D01*
X158080537Y-99057172D01*
X157927328Y-98903963D01*
X157806941Y-98723792D01*
X157724022Y-98523607D01*
X157681750Y-98311092D01*
X157681750Y-98094408D01*
X157724022Y-97881893D01*
X157806941Y-97681708D01*
X157927328Y-97501537D01*
X158080537Y-97348328D01*
X158260708Y-97227941D01*
X158460893Y-97145022D01*
X158673408Y-97102750D01*
X158890092Y-97102750D01*
X159102607Y-97145022D01*
X159102607Y-97145022D01*
G37*
G36*
X178152607Y-97145022D02*
X178352792Y-97227941D01*
X178532963Y-97348328D01*
X178686172Y-97501537D01*
X178806559Y-97681708D01*
X178889478Y-97881893D01*
X178931750Y-98094408D01*
X178931750Y-98311092D01*
X178889478Y-98523607D01*
X178806559Y-98723792D01*
X178686172Y-98903963D01*
X178532963Y-99057172D01*
X178352792Y-99177559D01*
X178152607Y-99260478D01*
X177940092Y-99302750D01*
X177723408Y-99302750D01*
X177510893Y-99260478D01*
X177310708Y-99177559D01*
X177130537Y-99057172D01*
X176977328Y-98903963D01*
X176856941Y-98723792D01*
X176774022Y-98523607D01*
X176731750Y-98311092D01*
X176731750Y-98094408D01*
X176774022Y-97881893D01*
X176856941Y-97681708D01*
X176977328Y-97501537D01*
X177130537Y-97348328D01*
X177310708Y-97227941D01*
X177510893Y-97145022D01*
X177723408Y-97102750D01*
X177940092Y-97102750D01*
X178152607Y-97145022D01*
X178152607Y-97145022D01*
G37*
G36*
X121002607Y-97145022D02*
X121202792Y-97227941D01*
X121382963Y-97348328D01*
X121536172Y-97501537D01*
X121656559Y-97681708D01*
X121739478Y-97881893D01*
X121781750Y-98094408D01*
X121781750Y-98311092D01*
X121739478Y-98523607D01*
X121656559Y-98723792D01*
X121536172Y-98903963D01*
X121382963Y-99057172D01*
X121202792Y-99177559D01*
X121002607Y-99260478D01*
X120790092Y-99302750D01*
X120573408Y-99302750D01*
X120360893Y-99260478D01*
X120160708Y-99177559D01*
X119980537Y-99057172D01*
X119827328Y-98903963D01*
X119706941Y-98723792D01*
X119624022Y-98523607D01*
X119581750Y-98311092D01*
X119581750Y-98094408D01*
X119624022Y-97881893D01*
X119706941Y-97681708D01*
X119827328Y-97501537D01*
X119980537Y-97348328D01*
X120160708Y-97227941D01*
X120360893Y-97145022D01*
X120573408Y-97102750D01*
X120790092Y-97102750D01*
X121002607Y-97145022D01*
X121002607Y-97145022D01*
G37*
G36*
X140052607Y-97145022D02*
X140252792Y-97227941D01*
X140432963Y-97348328D01*
X140586172Y-97501537D01*
X140706559Y-97681708D01*
X140789478Y-97881893D01*
X140831750Y-98094408D01*
X140831750Y-98311092D01*
X140789478Y-98523607D01*
X140706559Y-98723792D01*
X140586172Y-98903963D01*
X140432963Y-99057172D01*
X140252792Y-99177559D01*
X140052607Y-99260478D01*
X139840092Y-99302750D01*
X139623408Y-99302750D01*
X139410893Y-99260478D01*
X139210708Y-99177559D01*
X139030537Y-99057172D01*
X138877328Y-98903963D01*
X138756941Y-98723792D01*
X138674022Y-98523607D01*
X138631750Y-98311092D01*
X138631750Y-98094408D01*
X138674022Y-97881893D01*
X138756941Y-97681708D01*
X138877328Y-97501537D01*
X139030537Y-97348328D01*
X139210708Y-97227941D01*
X139410893Y-97145022D01*
X139623408Y-97102750D01*
X139840092Y-97102750D01*
X140052607Y-97145022D01*
X140052607Y-97145022D01*
G37*
G36*
X163670857Y-93242272D02*
X163871042Y-93325191D01*
X163871045Y-93325193D01*
X164026617Y-93429143D01*
X164051213Y-93445578D01*
X164204422Y-93598787D01*
X164204424Y-93598790D01*
X164204425Y-93598791D01*
X164324807Y-93778955D01*
X164324809Y-93778958D01*
X164407728Y-93979143D01*
X164450000Y-94191658D01*
X164450000Y-94408342D01*
X164407728Y-94620857D01*
X164324809Y-94821042D01*
X164204422Y-95001213D01*
X164051213Y-95154422D01*
X163871042Y-95274809D01*
X163670857Y-95357728D01*
X163458342Y-95400000D01*
X163241658Y-95400000D01*
X163029143Y-95357728D01*
X162828958Y-95274809D01*
X162648787Y-95154422D01*
X162495578Y-95001213D01*
X162375191Y-94821042D01*
X162292272Y-94620857D01*
X162250000Y-94408342D01*
X162250000Y-94191658D01*
X162292272Y-93979143D01*
X162375191Y-93778958D01*
X162375193Y-93778955D01*
X162495575Y-93598791D01*
X162495576Y-93598790D01*
X162495578Y-93598787D01*
X162648787Y-93445578D01*
X162673384Y-93429143D01*
X162828955Y-93325193D01*
X162828958Y-93325191D01*
X163029143Y-93242272D01*
X163241658Y-93200000D01*
X163458342Y-93200000D01*
X163670857Y-93242272D01*
X163670857Y-93242272D01*
G37*
G36*
X125420857Y-92692272D02*
X125621042Y-92775191D01*
X125801213Y-92895578D01*
X125954422Y-93048787D01*
X126074809Y-93228958D01*
X126157728Y-93429143D01*
X126200000Y-93641658D01*
X126200000Y-93858342D01*
X126157728Y-94070857D01*
X126074809Y-94271042D01*
X126074807Y-94271045D01*
X125983069Y-94408341D01*
X125954422Y-94451213D01*
X125801213Y-94604422D01*
X125801210Y-94604424D01*
X125801209Y-94604425D01*
X125776615Y-94620858D01*
X125621042Y-94724809D01*
X125420857Y-94807728D01*
X125208342Y-94850000D01*
X124991658Y-94850000D01*
X124779143Y-94807728D01*
X124578958Y-94724809D01*
X124423385Y-94620858D01*
X124398791Y-94604425D01*
X124398790Y-94604424D01*
X124398787Y-94604422D01*
X124245578Y-94451213D01*
X124216932Y-94408341D01*
X124125193Y-94271045D01*
X124125191Y-94271042D01*
X124042272Y-94070857D01*
X124000000Y-93858342D01*
X124000000Y-93641658D01*
X124042272Y-93429143D01*
X124125191Y-93228958D01*
X124245578Y-93048787D01*
X124398787Y-92895578D01*
X124578958Y-92775191D01*
X124779143Y-92692272D01*
X124991658Y-92650000D01*
X125208342Y-92650000D01*
X125420857Y-92692272D01*
X125420857Y-92692272D01*
G37*
G36*
X118608453Y-87794236D02*
X118899633Y-87914847D01*
X119161694Y-88089951D01*
X119384549Y-88312806D01*
X119559653Y-88574867D01*
X119680264Y-88866047D01*
X119741750Y-89175162D01*
X119741750Y-89490338D01*
X119680264Y-89799453D01*
X119559653Y-90090633D01*
X119384549Y-90352694D01*
X119161694Y-90575549D01*
X118899633Y-90750653D01*
X118608453Y-90871264D01*
X118299338Y-90932750D01*
X117984162Y-90932750D01*
X117675047Y-90871264D01*
X117383867Y-90750653D01*
X117121806Y-90575549D01*
X116898951Y-90352694D01*
X116723847Y-90090633D01*
X116603236Y-89799453D01*
X116541750Y-89490338D01*
X116541750Y-89175162D01*
X116603236Y-88866047D01*
X116723847Y-88574867D01*
X116898951Y-88312806D01*
X117121806Y-88089951D01*
X117383867Y-87914847D01*
X117675047Y-87794236D01*
X117984162Y-87732750D01*
X118299338Y-87732750D01*
X118608453Y-87794236D01*
X118608453Y-87794236D01*
G37*
G36*
X137658453Y-87794236D02*
X137949633Y-87914847D01*
X138211694Y-88089951D01*
X138434549Y-88312806D01*
X138609653Y-88574867D01*
X138730264Y-88866047D01*
X138791750Y-89175162D01*
X138791750Y-89490338D01*
X138730264Y-89799453D01*
X138609653Y-90090633D01*
X138434549Y-90352694D01*
X138211694Y-90575549D01*
X137949633Y-90750653D01*
X137658453Y-90871264D01*
X137349338Y-90932750D01*
X137034162Y-90932750D01*
X136725047Y-90871264D01*
X136433867Y-90750653D01*
X136171806Y-90575549D01*
X135948951Y-90352694D01*
X135773847Y-90090633D01*
X135653236Y-89799453D01*
X135591750Y-89490338D01*
X135591750Y-89175162D01*
X135653236Y-88866047D01*
X135773847Y-88574867D01*
X135948951Y-88312806D01*
X136171806Y-88089951D01*
X136433867Y-87914847D01*
X136725047Y-87794236D01*
X137034162Y-87732750D01*
X137349338Y-87732750D01*
X137658453Y-87794236D01*
X137658453Y-87794236D01*
G37*
G36*
X156708453Y-87794236D02*
X156999633Y-87914847D01*
X157261694Y-88089951D01*
X157484549Y-88312806D01*
X157659653Y-88574867D01*
X157780264Y-88866047D01*
X157841750Y-89175162D01*
X157841750Y-89490338D01*
X157780264Y-89799453D01*
X157659653Y-90090633D01*
X157484549Y-90352694D01*
X157261694Y-90575549D01*
X156999633Y-90750653D01*
X156708453Y-90871264D01*
X156399338Y-90932750D01*
X156084162Y-90932750D01*
X155775047Y-90871264D01*
X155483867Y-90750653D01*
X155221806Y-90575549D01*
X154998951Y-90352694D01*
X154823847Y-90090633D01*
X154703236Y-89799453D01*
X154641750Y-89490338D01*
X154641750Y-89175162D01*
X154703236Y-88866047D01*
X154823847Y-88574867D01*
X154998951Y-88312806D01*
X155221806Y-88089951D01*
X155483867Y-87914847D01*
X155775047Y-87794236D01*
X156084162Y-87732750D01*
X156399338Y-87732750D01*
X156708453Y-87794236D01*
X156708453Y-87794236D01*
G37*
G36*
X175758453Y-87794236D02*
X176049633Y-87914847D01*
X176311694Y-88089951D01*
X176534549Y-88312806D01*
X176709653Y-88574867D01*
X176830264Y-88866047D01*
X176891750Y-89175162D01*
X176891750Y-89490338D01*
X176830264Y-89799453D01*
X176709653Y-90090633D01*
X176534549Y-90352694D01*
X176311694Y-90575549D01*
X176049633Y-90750653D01*
X175758453Y-90871264D01*
X175449338Y-90932750D01*
X175134162Y-90932750D01*
X174825047Y-90871264D01*
X174533867Y-90750653D01*
X174271806Y-90575549D01*
X174048951Y-90352694D01*
X173873847Y-90090633D01*
X173753236Y-89799453D01*
X173691750Y-89490338D01*
X173691750Y-89175162D01*
X173753236Y-88866047D01*
X173873847Y-88574867D01*
X174048951Y-88312806D01*
X174271806Y-88089951D01*
X174533867Y-87914847D01*
X174825047Y-87794236D01*
X175134162Y-87732750D01*
X175449338Y-87732750D01*
X175758453Y-87794236D01*
X175758453Y-87794236D01*
G37*
G36*
X159541750Y-90257750D02*
X158141750Y-90257750D01*
X158141750Y-89657750D01*
X159541750Y-89657750D01*
X159541750Y-90257750D01*
X159541750Y-90257750D01*
G37*
G36*
X178591750Y-90257750D02*
X177191750Y-90257750D01*
X177191750Y-89657750D01*
X178591750Y-89657750D01*
X178591750Y-90257750D01*
X178591750Y-90257750D01*
G37*
G36*
X154341750Y-90257750D02*
X152941750Y-90257750D01*
X152941750Y-89657750D01*
X154341750Y-89657750D01*
X154341750Y-90257750D01*
X154341750Y-90257750D01*
G37*
G36*
X116241750Y-90257750D02*
X114841750Y-90257750D01*
X114841750Y-89657750D01*
X116241750Y-89657750D01*
X116241750Y-90257750D01*
X116241750Y-90257750D01*
G37*
G36*
X135291750Y-90257750D02*
X133891750Y-90257750D01*
X133891750Y-89657750D01*
X135291750Y-89657750D01*
X135291750Y-90257750D01*
X135291750Y-90257750D01*
G37*
G36*
X173391750Y-90257750D02*
X171991750Y-90257750D01*
X171991750Y-89657750D01*
X173391750Y-89657750D01*
X173391750Y-90257750D01*
X173391750Y-90257750D01*
G37*
G36*
X140491750Y-90257750D02*
X139091750Y-90257750D01*
X139091750Y-89657750D01*
X140491750Y-89657750D01*
X140491750Y-90257750D01*
X140491750Y-90257750D01*
G37*
G36*
X121441750Y-90257750D02*
X120041750Y-90257750D01*
X120041750Y-89657750D01*
X121441750Y-89657750D01*
X121441750Y-90257750D01*
X121441750Y-90257750D01*
G37*
G36*
X121441750Y-89007750D02*
X120041750Y-89007750D01*
X120041750Y-88407750D01*
X121441750Y-88407750D01*
X121441750Y-89007750D01*
X121441750Y-89007750D01*
G37*
G36*
X135291750Y-89007750D02*
X133891750Y-89007750D01*
X133891750Y-88407750D01*
X135291750Y-88407750D01*
X135291750Y-89007750D01*
X135291750Y-89007750D01*
G37*
G36*
X159541750Y-89007750D02*
X158141750Y-89007750D01*
X158141750Y-88407750D01*
X159541750Y-88407750D01*
X159541750Y-89007750D01*
X159541750Y-89007750D01*
G37*
G36*
X173391750Y-89007750D02*
X171991750Y-89007750D01*
X171991750Y-88407750D01*
X173391750Y-88407750D01*
X173391750Y-89007750D01*
X173391750Y-89007750D01*
G37*
G36*
X154341750Y-89007750D02*
X152941750Y-89007750D01*
X152941750Y-88407750D01*
X154341750Y-88407750D01*
X154341750Y-89007750D01*
X154341750Y-89007750D01*
G37*
G36*
X140491750Y-89007750D02*
X139091750Y-89007750D01*
X139091750Y-88407750D01*
X140491750Y-88407750D01*
X140491750Y-89007750D01*
X140491750Y-89007750D01*
G37*
G36*
X178591750Y-89007750D02*
X177191750Y-89007750D01*
X177191750Y-88407750D01*
X178591750Y-88407750D01*
X178591750Y-89007750D01*
X178591750Y-89007750D01*
G37*
G36*
X116241750Y-89007750D02*
X114841750Y-89007750D01*
X114841750Y-88407750D01*
X116241750Y-88407750D01*
X116241750Y-89007750D01*
X116241750Y-89007750D01*
G37*
G36*
X118725128Y-82309609D02*
X119089104Y-82460372D01*
X119416679Y-82679251D01*
X119695249Y-82957821D01*
X119914128Y-83285396D01*
X120064891Y-83649372D01*
X120141750Y-84035766D01*
X120141750Y-84429734D01*
X120064891Y-84816128D01*
X119914128Y-85180104D01*
X119695249Y-85507679D01*
X119416679Y-85786249D01*
X119089104Y-86005128D01*
X118725128Y-86155891D01*
X118338734Y-86232750D01*
X117944766Y-86232750D01*
X117558372Y-86155891D01*
X117194396Y-86005128D01*
X116866821Y-85786249D01*
X116588251Y-85507679D01*
X116369372Y-85180104D01*
X116218609Y-84816128D01*
X116141750Y-84429734D01*
X116141750Y-84035766D01*
X116218609Y-83649372D01*
X116369372Y-83285396D01*
X116588251Y-82957821D01*
X116866821Y-82679251D01*
X117194396Y-82460372D01*
X117558372Y-82309609D01*
X117944766Y-82232750D01*
X118338734Y-82232750D01*
X118725128Y-82309609D01*
X118725128Y-82309609D01*
G37*
G36*
X175875128Y-82309609D02*
X176239104Y-82460372D01*
X176566679Y-82679251D01*
X176845249Y-82957821D01*
X177064128Y-83285396D01*
X177214891Y-83649372D01*
X177291750Y-84035766D01*
X177291750Y-84429734D01*
X177214891Y-84816128D01*
X177064128Y-85180104D01*
X176845249Y-85507679D01*
X176566679Y-85786249D01*
X176239104Y-86005128D01*
X175875128Y-86155891D01*
X175488734Y-86232750D01*
X175094766Y-86232750D01*
X174708372Y-86155891D01*
X174344396Y-86005128D01*
X174016821Y-85786249D01*
X173738251Y-85507679D01*
X173519372Y-85180104D01*
X173368609Y-84816128D01*
X173291750Y-84429734D01*
X173291750Y-84035766D01*
X173368609Y-83649372D01*
X173519372Y-83285396D01*
X173738251Y-82957821D01*
X174016821Y-82679251D01*
X174344396Y-82460372D01*
X174708372Y-82309609D01*
X175094766Y-82232750D01*
X175488734Y-82232750D01*
X175875128Y-82309609D01*
X175875128Y-82309609D01*
G37*
G36*
X137775128Y-82309609D02*
X138139104Y-82460372D01*
X138466679Y-82679251D01*
X138745249Y-82957821D01*
X138964128Y-83285396D01*
X139114891Y-83649372D01*
X139191750Y-84035766D01*
X139191750Y-84429734D01*
X139114891Y-84816128D01*
X138964128Y-85180104D01*
X138745249Y-85507679D01*
X138466679Y-85786249D01*
X138139104Y-86005128D01*
X137775128Y-86155891D01*
X137388734Y-86232750D01*
X136994766Y-86232750D01*
X136608372Y-86155891D01*
X136244396Y-86005128D01*
X135916821Y-85786249D01*
X135638251Y-85507679D01*
X135419372Y-85180104D01*
X135268609Y-84816128D01*
X135191750Y-84429734D01*
X135191750Y-84035766D01*
X135268609Y-83649372D01*
X135419372Y-83285396D01*
X135638251Y-82957821D01*
X135916821Y-82679251D01*
X136244396Y-82460372D01*
X136608372Y-82309609D01*
X136994766Y-82232750D01*
X137388734Y-82232750D01*
X137775128Y-82309609D01*
X137775128Y-82309609D01*
G37*
G36*
X156825128Y-82309609D02*
X157189104Y-82460372D01*
X157516679Y-82679251D01*
X157795249Y-82957821D01*
X158014128Y-83285396D01*
X158164891Y-83649372D01*
X158241750Y-84035766D01*
X158241750Y-84429734D01*
X158164891Y-84816128D01*
X158014128Y-85180104D01*
X157795249Y-85507679D01*
X157516679Y-85786249D01*
X157189104Y-86005128D01*
X156825128Y-86155891D01*
X156438734Y-86232750D01*
X156044766Y-86232750D01*
X155658372Y-86155891D01*
X155294396Y-86005128D01*
X154966821Y-85786249D01*
X154688251Y-85507679D01*
X154469372Y-85180104D01*
X154318609Y-84816128D01*
X154241750Y-84429734D01*
X154241750Y-84035766D01*
X154318609Y-83649372D01*
X154469372Y-83285396D01*
X154688251Y-82957821D01*
X154966821Y-82679251D01*
X155294396Y-82460372D01*
X155658372Y-82309609D01*
X156044766Y-82232750D01*
X156438734Y-82232750D01*
X156825128Y-82309609D01*
X156825128Y-82309609D01*
G37*
G36*
X142519684Y-83415414D02*
X142674377Y-83479490D01*
X142813597Y-83572514D01*
X142931986Y-83690903D01*
X143025010Y-83830123D01*
X143089086Y-83984816D01*
X143121750Y-84149031D01*
X143121750Y-84316469D01*
X143089086Y-84480684D01*
X143025010Y-84635377D01*
X142931986Y-84774597D01*
X142813597Y-84892986D01*
X142674377Y-84986010D01*
X142519684Y-85050086D01*
X142355469Y-85082750D01*
X142188031Y-85082750D01*
X142023816Y-85050086D01*
X141869123Y-84986010D01*
X141729903Y-84892986D01*
X141611514Y-84774597D01*
X141518490Y-84635377D01*
X141454414Y-84480684D01*
X141421750Y-84316469D01*
X141421750Y-84149031D01*
X141454414Y-83984816D01*
X141518490Y-83830123D01*
X141611514Y-83690903D01*
X141729903Y-83572514D01*
X141869123Y-83479490D01*
X142023816Y-83415414D01*
X142188031Y-83382750D01*
X142355469Y-83382750D01*
X142519684Y-83415414D01*
X142519684Y-83415414D01*
G37*
G36*
X123469684Y-83415414D02*
X123624377Y-83479490D01*
X123763597Y-83572514D01*
X123881986Y-83690903D01*
X123975010Y-83830123D01*
X124039086Y-83984816D01*
X124071750Y-84149031D01*
X124071750Y-84316469D01*
X124039086Y-84480684D01*
X123975010Y-84635377D01*
X123881986Y-84774597D01*
X123763597Y-84892986D01*
X123624377Y-84986010D01*
X123469684Y-85050086D01*
X123305469Y-85082750D01*
X123138031Y-85082750D01*
X122973816Y-85050086D01*
X122819123Y-84986010D01*
X122679903Y-84892986D01*
X122561514Y-84774597D01*
X122468490Y-84635377D01*
X122404414Y-84480684D01*
X122371750Y-84316469D01*
X122371750Y-84149031D01*
X122404414Y-83984816D01*
X122468490Y-83830123D01*
X122561514Y-83690903D01*
X122679903Y-83572514D01*
X122819123Y-83479490D01*
X122973816Y-83415414D01*
X123138031Y-83382750D01*
X123305469Y-83382750D01*
X123469684Y-83415414D01*
X123469684Y-83415414D01*
G37*
G36*
X132359684Y-83415414D02*
X132514377Y-83479490D01*
X132653597Y-83572514D01*
X132771986Y-83690903D01*
X132865010Y-83830123D01*
X132929086Y-83984816D01*
X132961750Y-84149031D01*
X132961750Y-84316469D01*
X132929086Y-84480684D01*
X132865010Y-84635377D01*
X132771986Y-84774597D01*
X132653597Y-84892986D01*
X132514377Y-84986010D01*
X132359684Y-85050086D01*
X132195469Y-85082750D01*
X132028031Y-85082750D01*
X131863816Y-85050086D01*
X131709123Y-84986010D01*
X131569903Y-84892986D01*
X131451514Y-84774597D01*
X131358490Y-84635377D01*
X131294414Y-84480684D01*
X131261750Y-84316469D01*
X131261750Y-84149031D01*
X131294414Y-83984816D01*
X131358490Y-83830123D01*
X131451514Y-83690903D01*
X131569903Y-83572514D01*
X131709123Y-83479490D01*
X131863816Y-83415414D01*
X132028031Y-83382750D01*
X132195469Y-83382750D01*
X132359684Y-83415414D01*
X132359684Y-83415414D01*
G37*
G36*
X151409684Y-83415414D02*
X151564377Y-83479490D01*
X151703597Y-83572514D01*
X151821986Y-83690903D01*
X151915010Y-83830123D01*
X151979086Y-83984816D01*
X152011750Y-84149031D01*
X152011750Y-84316469D01*
X151979086Y-84480684D01*
X151915010Y-84635377D01*
X151821986Y-84774597D01*
X151703597Y-84892986D01*
X151564377Y-84986010D01*
X151409684Y-85050086D01*
X151245469Y-85082750D01*
X151078031Y-85082750D01*
X150913816Y-85050086D01*
X150759123Y-84986010D01*
X150619903Y-84892986D01*
X150501514Y-84774597D01*
X150408490Y-84635377D01*
X150344414Y-84480684D01*
X150311750Y-84316469D01*
X150311750Y-84149031D01*
X150344414Y-83984816D01*
X150408490Y-83830123D01*
X150501514Y-83690903D01*
X150619903Y-83572514D01*
X150759123Y-83479490D01*
X150913816Y-83415414D01*
X151078031Y-83382750D01*
X151245469Y-83382750D01*
X151409684Y-83415414D01*
X151409684Y-83415414D01*
G37*
G36*
X113309684Y-83415414D02*
X113464377Y-83479490D01*
X113603597Y-83572514D01*
X113721986Y-83690903D01*
X113815010Y-83830123D01*
X113879086Y-83984816D01*
X113911750Y-84149031D01*
X113911750Y-84316469D01*
X113879086Y-84480684D01*
X113815010Y-84635377D01*
X113721986Y-84774597D01*
X113603597Y-84892986D01*
X113464377Y-84986010D01*
X113309684Y-85050086D01*
X113145469Y-85082750D01*
X112978031Y-85082750D01*
X112813816Y-85050086D01*
X112659123Y-84986010D01*
X112519903Y-84892986D01*
X112401514Y-84774597D01*
X112308490Y-84635377D01*
X112244414Y-84480684D01*
X112211750Y-84316469D01*
X112211750Y-84149031D01*
X112244414Y-83984816D01*
X112308490Y-83830123D01*
X112401514Y-83690903D01*
X112519903Y-83572514D01*
X112659123Y-83479490D01*
X112813816Y-83415414D01*
X112978031Y-83382750D01*
X113145469Y-83382750D01*
X113309684Y-83415414D01*
X113309684Y-83415414D01*
G37*
G36*
X161569684Y-83415414D02*
X161724377Y-83479490D01*
X161863597Y-83572514D01*
X161981986Y-83690903D01*
X162075010Y-83830123D01*
X162139086Y-83984816D01*
X162171750Y-84149031D01*
X162171750Y-84316469D01*
X162139086Y-84480684D01*
X162075010Y-84635377D01*
X161981986Y-84774597D01*
X161863597Y-84892986D01*
X161724377Y-84986010D01*
X161569684Y-85050086D01*
X161405469Y-85082750D01*
X161238031Y-85082750D01*
X161073816Y-85050086D01*
X160919123Y-84986010D01*
X160779903Y-84892986D01*
X160661514Y-84774597D01*
X160568490Y-84635377D01*
X160504414Y-84480684D01*
X160471750Y-84316469D01*
X160471750Y-84149031D01*
X160504414Y-83984816D01*
X160568490Y-83830123D01*
X160661514Y-83690903D01*
X160779903Y-83572514D01*
X160919123Y-83479490D01*
X161073816Y-83415414D01*
X161238031Y-83382750D01*
X161405469Y-83382750D01*
X161569684Y-83415414D01*
X161569684Y-83415414D01*
G37*
G36*
X180619684Y-83415414D02*
X180774377Y-83479490D01*
X180913597Y-83572514D01*
X181031986Y-83690903D01*
X181125010Y-83830123D01*
X181189086Y-83984816D01*
X181221750Y-84149031D01*
X181221750Y-84316469D01*
X181189086Y-84480684D01*
X181125010Y-84635377D01*
X181031986Y-84774597D01*
X180913597Y-84892986D01*
X180774377Y-84986010D01*
X180619684Y-85050086D01*
X180455469Y-85082750D01*
X180288031Y-85082750D01*
X180123816Y-85050086D01*
X179969123Y-84986010D01*
X179829903Y-84892986D01*
X179711514Y-84774597D01*
X179618490Y-84635377D01*
X179554414Y-84480684D01*
X179521750Y-84316469D01*
X179521750Y-84149031D01*
X179554414Y-83984816D01*
X179618490Y-83830123D01*
X179711514Y-83690903D01*
X179829903Y-83572514D01*
X179969123Y-83479490D01*
X180123816Y-83415414D01*
X180288031Y-83382750D01*
X180455469Y-83382750D01*
X180619684Y-83415414D01*
X180619684Y-83415414D01*
G37*
G36*
X170459684Y-83415414D02*
X170614377Y-83479490D01*
X170753597Y-83572514D01*
X170871986Y-83690903D01*
X170965010Y-83830123D01*
X171029086Y-83984816D01*
X171061750Y-84149031D01*
X171061750Y-84316469D01*
X171029086Y-84480684D01*
X170965010Y-84635377D01*
X170871986Y-84774597D01*
X170753597Y-84892986D01*
X170614377Y-84986010D01*
X170459684Y-85050086D01*
X170295469Y-85082750D01*
X170128031Y-85082750D01*
X169963816Y-85050086D01*
X169809123Y-84986010D01*
X169669903Y-84892986D01*
X169551514Y-84774597D01*
X169458490Y-84635377D01*
X169394414Y-84480684D01*
X169361750Y-84316469D01*
X169361750Y-84149031D01*
X169394414Y-83984816D01*
X169458490Y-83830123D01*
X169551514Y-83690903D01*
X169669903Y-83572514D01*
X169809123Y-83479490D01*
X169963816Y-83415414D01*
X170128031Y-83382750D01*
X170295469Y-83382750D01*
X170459684Y-83415414D01*
X170459684Y-83415414D01*
G37*
G36*
X114652607Y-80635022D02*
X114852792Y-80717941D01*
X115032963Y-80838328D01*
X115186172Y-80991537D01*
X115306559Y-81171708D01*
X115389478Y-81371893D01*
X115431750Y-81584408D01*
X115431750Y-81801092D01*
X115389478Y-82013607D01*
X115306559Y-82213792D01*
X115186172Y-82393963D01*
X115032963Y-82547172D01*
X114852792Y-82667559D01*
X114652607Y-82750478D01*
X114440092Y-82792750D01*
X114223408Y-82792750D01*
X114010893Y-82750478D01*
X113810708Y-82667559D01*
X113630537Y-82547172D01*
X113477328Y-82393963D01*
X113356941Y-82213792D01*
X113274022Y-82013607D01*
X113231750Y-81801092D01*
X113231750Y-81584408D01*
X113274022Y-81371893D01*
X113356941Y-81171708D01*
X113477328Y-80991537D01*
X113630537Y-80838328D01*
X113810708Y-80717941D01*
X114010893Y-80635022D01*
X114223408Y-80592750D01*
X114440092Y-80592750D01*
X114652607Y-80635022D01*
X114652607Y-80635022D01*
G37*
G36*
X171802607Y-80635022D02*
X172002792Y-80717941D01*
X172182963Y-80838328D01*
X172336172Y-80991537D01*
X172456559Y-81171708D01*
X172539478Y-81371893D01*
X172581750Y-81584408D01*
X172581750Y-81801092D01*
X172539478Y-82013607D01*
X172456559Y-82213792D01*
X172336172Y-82393963D01*
X172182963Y-82547172D01*
X172002792Y-82667559D01*
X171802607Y-82750478D01*
X171590092Y-82792750D01*
X171373408Y-82792750D01*
X171160893Y-82750478D01*
X170960708Y-82667559D01*
X170780537Y-82547172D01*
X170627328Y-82393963D01*
X170506941Y-82213792D01*
X170424022Y-82013607D01*
X170381750Y-81801092D01*
X170381750Y-81584408D01*
X170424022Y-81371893D01*
X170506941Y-81171708D01*
X170627328Y-80991537D01*
X170780537Y-80838328D01*
X170960708Y-80717941D01*
X171160893Y-80635022D01*
X171373408Y-80592750D01*
X171590092Y-80592750D01*
X171802607Y-80635022D01*
X171802607Y-80635022D01*
G37*
G36*
X152752607Y-80635022D02*
X152952792Y-80717941D01*
X153132963Y-80838328D01*
X153286172Y-80991537D01*
X153406559Y-81171708D01*
X153489478Y-81371893D01*
X153531750Y-81584408D01*
X153531750Y-81801092D01*
X153489478Y-82013607D01*
X153406559Y-82213792D01*
X153286172Y-82393963D01*
X153132963Y-82547172D01*
X152952792Y-82667559D01*
X152752607Y-82750478D01*
X152540092Y-82792750D01*
X152323408Y-82792750D01*
X152110893Y-82750478D01*
X151910708Y-82667559D01*
X151730537Y-82547172D01*
X151577328Y-82393963D01*
X151456941Y-82213792D01*
X151374022Y-82013607D01*
X151331750Y-81801092D01*
X151331750Y-81584408D01*
X151374022Y-81371893D01*
X151456941Y-81171708D01*
X151577328Y-80991537D01*
X151730537Y-80838328D01*
X151910708Y-80717941D01*
X152110893Y-80635022D01*
X152323408Y-80592750D01*
X152540092Y-80592750D01*
X152752607Y-80635022D01*
X152752607Y-80635022D01*
G37*
G36*
X133702607Y-80635022D02*
X133902792Y-80717941D01*
X134082963Y-80838328D01*
X134236172Y-80991537D01*
X134356559Y-81171708D01*
X134439478Y-81371893D01*
X134481750Y-81584408D01*
X134481750Y-81801092D01*
X134439478Y-82013607D01*
X134356559Y-82213792D01*
X134236172Y-82393963D01*
X134082963Y-82547172D01*
X133902792Y-82667559D01*
X133702607Y-82750478D01*
X133490092Y-82792750D01*
X133273408Y-82792750D01*
X133060893Y-82750478D01*
X132860708Y-82667559D01*
X132680537Y-82547172D01*
X132527328Y-82393963D01*
X132406941Y-82213792D01*
X132324022Y-82013607D01*
X132281750Y-81801092D01*
X132281750Y-81584408D01*
X132324022Y-81371893D01*
X132406941Y-81171708D01*
X132527328Y-80991537D01*
X132680537Y-80838328D01*
X132860708Y-80717941D01*
X133060893Y-80635022D01*
X133273408Y-80592750D01*
X133490092Y-80592750D01*
X133702607Y-80635022D01*
X133702607Y-80635022D01*
G37*
G36*
X183700000Y-82450000D02*
X182850000Y-82450000D01*
X182850000Y-80850000D01*
X183700000Y-80850000D01*
X183700000Y-82450000D01*
X183700000Y-82450000D01*
G37*
G36*
X181950000Y-82450000D02*
X181100000Y-82450000D01*
X181100000Y-80850000D01*
X181950000Y-80850000D01*
X181950000Y-82450000D01*
X181950000Y-82450000D01*
G37*
G36*
X112200000Y-82150000D02*
X111350000Y-82150000D01*
X111350000Y-80550000D01*
X112200000Y-80550000D01*
X112200000Y-82150000D01*
X112200000Y-82150000D01*
G37*
G36*
X110450000Y-82150000D02*
X109600000Y-82150000D01*
X109600000Y-80550000D01*
X110450000Y-80550000D01*
X110450000Y-82150000D01*
X110450000Y-82150000D01*
G37*
G36*
X140052607Y-78095022D02*
X140252792Y-78177941D01*
X140432963Y-78298328D01*
X140586172Y-78451537D01*
X140706559Y-78631708D01*
X140789478Y-78831893D01*
X140831750Y-79044408D01*
X140831750Y-79261092D01*
X140789478Y-79473607D01*
X140706559Y-79673792D01*
X140586172Y-79853963D01*
X140432963Y-80007172D01*
X140252792Y-80127559D01*
X140052607Y-80210478D01*
X139840092Y-80252750D01*
X139623408Y-80252750D01*
X139410893Y-80210478D01*
X139210708Y-80127559D01*
X139030537Y-80007172D01*
X138877328Y-79853963D01*
X138756941Y-79673792D01*
X138674022Y-79473607D01*
X138631750Y-79261092D01*
X138631750Y-79044408D01*
X138674022Y-78831893D01*
X138756941Y-78631708D01*
X138877328Y-78451537D01*
X139030537Y-78298328D01*
X139210708Y-78177941D01*
X139410893Y-78095022D01*
X139623408Y-78052750D01*
X139840092Y-78052750D01*
X140052607Y-78095022D01*
X140052607Y-78095022D01*
G37*
G36*
X178152607Y-78095022D02*
X178352792Y-78177941D01*
X178532963Y-78298328D01*
X178686172Y-78451537D01*
X178806559Y-78631708D01*
X178889478Y-78831893D01*
X178931750Y-79044408D01*
X178931750Y-79261092D01*
X178889478Y-79473607D01*
X178806559Y-79673792D01*
X178686172Y-79853963D01*
X178532963Y-80007172D01*
X178352792Y-80127559D01*
X178152607Y-80210478D01*
X177940092Y-80252750D01*
X177723408Y-80252750D01*
X177510893Y-80210478D01*
X177310708Y-80127559D01*
X177130537Y-80007172D01*
X176977328Y-79853963D01*
X176856941Y-79673792D01*
X176774022Y-79473607D01*
X176731750Y-79261092D01*
X176731750Y-79044408D01*
X176774022Y-78831893D01*
X176856941Y-78631708D01*
X176977328Y-78451537D01*
X177130537Y-78298328D01*
X177310708Y-78177941D01*
X177510893Y-78095022D01*
X177723408Y-78052750D01*
X177940092Y-78052750D01*
X178152607Y-78095022D01*
X178152607Y-78095022D01*
G37*
G36*
X159102607Y-78095022D02*
X159302792Y-78177941D01*
X159482963Y-78298328D01*
X159636172Y-78451537D01*
X159756559Y-78631708D01*
X159839478Y-78831893D01*
X159881750Y-79044408D01*
X159881750Y-79261092D01*
X159839478Y-79473607D01*
X159756559Y-79673792D01*
X159636172Y-79853963D01*
X159482963Y-80007172D01*
X159302792Y-80127559D01*
X159102607Y-80210478D01*
X158890092Y-80252750D01*
X158673408Y-80252750D01*
X158460893Y-80210478D01*
X158260708Y-80127559D01*
X158080537Y-80007172D01*
X157927328Y-79853963D01*
X157806941Y-79673792D01*
X157724022Y-79473607D01*
X157681750Y-79261092D01*
X157681750Y-79044408D01*
X157724022Y-78831893D01*
X157806941Y-78631708D01*
X157927328Y-78451537D01*
X158080537Y-78298328D01*
X158260708Y-78177941D01*
X158460893Y-78095022D01*
X158673408Y-78052750D01*
X158890092Y-78052750D01*
X159102607Y-78095022D01*
X159102607Y-78095022D01*
G37*
G36*
X121002607Y-78095022D02*
X121202792Y-78177941D01*
X121382963Y-78298328D01*
X121536172Y-78451537D01*
X121656559Y-78631708D01*
X121739478Y-78831893D01*
X121781750Y-79044408D01*
X121781750Y-79261092D01*
X121739478Y-79473607D01*
X121656559Y-79673792D01*
X121536172Y-79853963D01*
X121382963Y-80007172D01*
X121202792Y-80127559D01*
X121002607Y-80210478D01*
X120790092Y-80252750D01*
X120573408Y-80252750D01*
X120360893Y-80210478D01*
X120160708Y-80127559D01*
X119980537Y-80007172D01*
X119827328Y-79853963D01*
X119706941Y-79673792D01*
X119624022Y-79473607D01*
X119581750Y-79261092D01*
X119581750Y-79044408D01*
X119624022Y-78831893D01*
X119706941Y-78631708D01*
X119827328Y-78451537D01*
X119980537Y-78298328D01*
X120160708Y-78177941D01*
X120360893Y-78095022D01*
X120573408Y-78052750D01*
X120790092Y-78052750D01*
X121002607Y-78095022D01*
X121002607Y-78095022D01*
G37*
G36*
X181950000Y-78950000D02*
X181100000Y-78950000D01*
X181100000Y-77350000D01*
X181950000Y-77350000D01*
X181950000Y-78950000D01*
X181950000Y-78950000D01*
G37*
G36*
X183700000Y-78950000D02*
X182850000Y-78950000D01*
X182850000Y-77350000D01*
X183700000Y-77350000D01*
X183700000Y-78950000D01*
X183700000Y-78950000D01*
G37*
G36*
X110450000Y-78650000D02*
X109600000Y-78650000D01*
X109600000Y-77050000D01*
X110450000Y-77050000D01*
X110450000Y-78650000D01*
X110450000Y-78650000D01*
G37*
G36*
X112200000Y-78650000D02*
X111350000Y-78650000D01*
X111350000Y-77050000D01*
X112200000Y-77050000D01*
X112200000Y-78650000D01*
X112200000Y-78650000D01*
G37*
G36*
X125520857Y-73642272D02*
X125721042Y-73725191D01*
X125901213Y-73845578D01*
X126054422Y-73998787D01*
X126174809Y-74178958D01*
X126257728Y-74379143D01*
X126300000Y-74591658D01*
X126300000Y-74808342D01*
X126257728Y-75020857D01*
X126174809Y-75221042D01*
X126054422Y-75401213D01*
X125901213Y-75554422D01*
X125721042Y-75674809D01*
X125520857Y-75757728D01*
X125308342Y-75800000D01*
X125091658Y-75800000D01*
X124879143Y-75757728D01*
X124678958Y-75674809D01*
X124498787Y-75554422D01*
X124345578Y-75401213D01*
X124225191Y-75221042D01*
X124142272Y-75020857D01*
X124100000Y-74808342D01*
X124100000Y-74591658D01*
X124142272Y-74379143D01*
X124225191Y-74178958D01*
X124345578Y-73998787D01*
X124498787Y-73845578D01*
X124678958Y-73725191D01*
X124879143Y-73642272D01*
X125091658Y-73600000D01*
X125308342Y-73600000D01*
X125520857Y-73642272D01*
X125520857Y-73642272D01*
G37*
G36*
X177170857Y-73642272D02*
X177371042Y-73725191D01*
X177551213Y-73845578D01*
X177704422Y-73998787D01*
X177824809Y-74178958D01*
X177907728Y-74379143D01*
X177950000Y-74591658D01*
X177950000Y-74808342D01*
X177907728Y-75020857D01*
X177824809Y-75221042D01*
X177704422Y-75401213D01*
X177551213Y-75554422D01*
X177371042Y-75674809D01*
X177170857Y-75757728D01*
X176958342Y-75800000D01*
X176741658Y-75800000D01*
X176529143Y-75757728D01*
X176328958Y-75674809D01*
X176148787Y-75554422D01*
X175995578Y-75401213D01*
X175875191Y-75221042D01*
X175792272Y-75020857D01*
X175750000Y-74808342D01*
X175750000Y-74591658D01*
X175792272Y-74379143D01*
X175875191Y-74178958D01*
X175995578Y-73998787D01*
X176148787Y-73845578D01*
X176328958Y-73725191D01*
X176529143Y-73642272D01*
X176741658Y-73600000D01*
X176958342Y-73600000D01*
X177170857Y-73642272D01*
X177170857Y-73642272D01*
G37*
G36*
X175758453Y-68744236D02*
X176049633Y-68864847D01*
X176311694Y-69039951D01*
X176534549Y-69262806D01*
X176709653Y-69524867D01*
X176830264Y-69816047D01*
X176891750Y-70125162D01*
X176891750Y-70440338D01*
X176830264Y-70749453D01*
X176709653Y-71040633D01*
X176534549Y-71302694D01*
X176311694Y-71525549D01*
X176049633Y-71700653D01*
X175758453Y-71821264D01*
X175449338Y-71882750D01*
X175134162Y-71882750D01*
X174825047Y-71821264D01*
X174533867Y-71700653D01*
X174271806Y-71525549D01*
X174048951Y-71302694D01*
X173873847Y-71040633D01*
X173753236Y-70749453D01*
X173691750Y-70440338D01*
X173691750Y-70125162D01*
X173753236Y-69816047D01*
X173873847Y-69524867D01*
X174048951Y-69262806D01*
X174271806Y-69039951D01*
X174533867Y-68864847D01*
X174825047Y-68744236D01*
X175134162Y-68682750D01*
X175449338Y-68682750D01*
X175758453Y-68744236D01*
X175758453Y-68744236D01*
G37*
G36*
X156708453Y-68744236D02*
X156999633Y-68864847D01*
X157261694Y-69039951D01*
X157484549Y-69262806D01*
X157659653Y-69524867D01*
X157780264Y-69816047D01*
X157841750Y-70125162D01*
X157841750Y-70440338D01*
X157780264Y-70749453D01*
X157659653Y-71040633D01*
X157484549Y-71302694D01*
X157261694Y-71525549D01*
X156999633Y-71700653D01*
X156708453Y-71821264D01*
X156399338Y-71882750D01*
X156084162Y-71882750D01*
X155775047Y-71821264D01*
X155483867Y-71700653D01*
X155221806Y-71525549D01*
X154998951Y-71302694D01*
X154823847Y-71040633D01*
X154703236Y-70749453D01*
X154641750Y-70440338D01*
X154641750Y-70125162D01*
X154703236Y-69816047D01*
X154823847Y-69524867D01*
X154998951Y-69262806D01*
X155221806Y-69039951D01*
X155483867Y-68864847D01*
X155775047Y-68744236D01*
X156084162Y-68682750D01*
X156399338Y-68682750D01*
X156708453Y-68744236D01*
X156708453Y-68744236D01*
G37*
G36*
X137658453Y-68744236D02*
X137949633Y-68864847D01*
X138211694Y-69039951D01*
X138434549Y-69262806D01*
X138609653Y-69524867D01*
X138730264Y-69816047D01*
X138791750Y-70125162D01*
X138791750Y-70440338D01*
X138730264Y-70749453D01*
X138609653Y-71040633D01*
X138434549Y-71302694D01*
X138211694Y-71525549D01*
X137949633Y-71700653D01*
X137658453Y-71821264D01*
X137349338Y-71882750D01*
X137034162Y-71882750D01*
X136725047Y-71821264D01*
X136433867Y-71700653D01*
X136171806Y-71525549D01*
X135948951Y-71302694D01*
X135773847Y-71040633D01*
X135653236Y-70749453D01*
X135591750Y-70440338D01*
X135591750Y-70125162D01*
X135653236Y-69816047D01*
X135773847Y-69524867D01*
X135948951Y-69262806D01*
X136171806Y-69039951D01*
X136433867Y-68864847D01*
X136725047Y-68744236D01*
X137034162Y-68682750D01*
X137349338Y-68682750D01*
X137658453Y-68744236D01*
X137658453Y-68744236D01*
G37*
G36*
X118608453Y-68744236D02*
X118899633Y-68864847D01*
X119161694Y-69039951D01*
X119384549Y-69262806D01*
X119559653Y-69524867D01*
X119680264Y-69816047D01*
X119741750Y-70125162D01*
X119741750Y-70440338D01*
X119680264Y-70749453D01*
X119559653Y-71040633D01*
X119384549Y-71302694D01*
X119161694Y-71525549D01*
X118899633Y-71700653D01*
X118608453Y-71821264D01*
X118299338Y-71882750D01*
X117984162Y-71882750D01*
X117675047Y-71821264D01*
X117383867Y-71700653D01*
X117121806Y-71525549D01*
X116898951Y-71302694D01*
X116723847Y-71040633D01*
X116603236Y-70749453D01*
X116541750Y-70440338D01*
X116541750Y-70125162D01*
X116603236Y-69816047D01*
X116723847Y-69524867D01*
X116898951Y-69262806D01*
X117121806Y-69039951D01*
X117383867Y-68864847D01*
X117675047Y-68744236D01*
X117984162Y-68682750D01*
X118299338Y-68682750D01*
X118608453Y-68744236D01*
X118608453Y-68744236D01*
G37*
G36*
X116241750Y-71207750D02*
X114841750Y-71207750D01*
X114841750Y-70607750D01*
X116241750Y-70607750D01*
X116241750Y-71207750D01*
X116241750Y-71207750D01*
G37*
G36*
X140491750Y-71207750D02*
X139091750Y-71207750D01*
X139091750Y-70607750D01*
X140491750Y-70607750D01*
X140491750Y-71207750D01*
X140491750Y-71207750D01*
G37*
G36*
X121441750Y-71207750D02*
X120041750Y-71207750D01*
X120041750Y-70607750D01*
X121441750Y-70607750D01*
X121441750Y-71207750D01*
X121441750Y-71207750D01*
G37*
G36*
X135291750Y-71207750D02*
X133891750Y-71207750D01*
X133891750Y-70607750D01*
X135291750Y-70607750D01*
X135291750Y-71207750D01*
X135291750Y-71207750D01*
G37*
G36*
X154341750Y-71207750D02*
X152941750Y-71207750D01*
X152941750Y-70607750D01*
X154341750Y-70607750D01*
X154341750Y-71207750D01*
X154341750Y-71207750D01*
G37*
G36*
X159541750Y-71207750D02*
X158141750Y-71207750D01*
X158141750Y-70607750D01*
X159541750Y-70607750D01*
X159541750Y-71207750D01*
X159541750Y-71207750D01*
G37*
G36*
X173391750Y-71207750D02*
X171991750Y-71207750D01*
X171991750Y-70607750D01*
X173391750Y-70607750D01*
X173391750Y-71207750D01*
X173391750Y-71207750D01*
G37*
G36*
X178591750Y-71207750D02*
X177191750Y-71207750D01*
X177191750Y-70607750D01*
X178591750Y-70607750D01*
X178591750Y-71207750D01*
X178591750Y-71207750D01*
G37*
G36*
X159541750Y-69957750D02*
X158141750Y-69957750D01*
X158141750Y-69357750D01*
X159541750Y-69357750D01*
X159541750Y-69957750D01*
X159541750Y-69957750D01*
G37*
G36*
X173391750Y-69957750D02*
X171991750Y-69957750D01*
X171991750Y-69357750D01*
X173391750Y-69357750D01*
X173391750Y-69957750D01*
X173391750Y-69957750D01*
G37*
G36*
X178591750Y-69957750D02*
X177191750Y-69957750D01*
X177191750Y-69357750D01*
X178591750Y-69357750D01*
X178591750Y-69957750D01*
X178591750Y-69957750D01*
G37*
G36*
X121441750Y-69957750D02*
X120041750Y-69957750D01*
X120041750Y-69357750D01*
X121441750Y-69357750D01*
X121441750Y-69957750D01*
X121441750Y-69957750D01*
G37*
G36*
X135291750Y-69957750D02*
X133891750Y-69957750D01*
X133891750Y-69357750D01*
X135291750Y-69357750D01*
X135291750Y-69957750D01*
X135291750Y-69957750D01*
G37*
G36*
X154341750Y-69957750D02*
X152941750Y-69957750D01*
X152941750Y-69357750D01*
X154341750Y-69357750D01*
X154341750Y-69957750D01*
X154341750Y-69957750D01*
G37*
G36*
X140491750Y-69957750D02*
X139091750Y-69957750D01*
X139091750Y-69357750D01*
X140491750Y-69357750D01*
X140491750Y-69957750D01*
X140491750Y-69957750D01*
G37*
G36*
X116241750Y-69957750D02*
X114841750Y-69957750D01*
X114841750Y-69357750D01*
X116241750Y-69357750D01*
X116241750Y-69957750D01*
X116241750Y-69957750D01*
G37*
G36*
X175875128Y-63259609D02*
X176239104Y-63410372D01*
X176566679Y-63629251D01*
X176845249Y-63907821D01*
X177064128Y-64235396D01*
X177214891Y-64599372D01*
X177291750Y-64985766D01*
X177291750Y-65379734D01*
X177214891Y-65766128D01*
X177064128Y-66130104D01*
X176845249Y-66457679D01*
X176566679Y-66736249D01*
X176239104Y-66955128D01*
X175875128Y-67105891D01*
X175488734Y-67182750D01*
X175094766Y-67182750D01*
X174708372Y-67105891D01*
X174344396Y-66955128D01*
X174016821Y-66736249D01*
X173738251Y-66457679D01*
X173519372Y-66130104D01*
X173368609Y-65766128D01*
X173291750Y-65379734D01*
X173291750Y-64985766D01*
X173368609Y-64599372D01*
X173519372Y-64235396D01*
X173738251Y-63907821D01*
X174016821Y-63629251D01*
X174344396Y-63410372D01*
X174708372Y-63259609D01*
X175094766Y-63182750D01*
X175488734Y-63182750D01*
X175875128Y-63259609D01*
X175875128Y-63259609D01*
G37*
G36*
X156825128Y-63259609D02*
X157189104Y-63410372D01*
X157516679Y-63629251D01*
X157795249Y-63907821D01*
X158014128Y-64235396D01*
X158164891Y-64599372D01*
X158241750Y-64985766D01*
X158241750Y-65379734D01*
X158164891Y-65766128D01*
X158014128Y-66130104D01*
X157795249Y-66457679D01*
X157516679Y-66736249D01*
X157189104Y-66955128D01*
X156825128Y-67105891D01*
X156438734Y-67182750D01*
X156044766Y-67182750D01*
X155658372Y-67105891D01*
X155294396Y-66955128D01*
X154966821Y-66736249D01*
X154688251Y-66457679D01*
X154469372Y-66130104D01*
X154318609Y-65766128D01*
X154241750Y-65379734D01*
X154241750Y-64985766D01*
X154318609Y-64599372D01*
X154469372Y-64235396D01*
X154688251Y-63907821D01*
X154966821Y-63629251D01*
X155294396Y-63410372D01*
X155658372Y-63259609D01*
X156044766Y-63182750D01*
X156438734Y-63182750D01*
X156825128Y-63259609D01*
X156825128Y-63259609D01*
G37*
G36*
X137775128Y-63259609D02*
X138139104Y-63410372D01*
X138466679Y-63629251D01*
X138745249Y-63907821D01*
X138964128Y-64235396D01*
X139114891Y-64599372D01*
X139191750Y-64985766D01*
X139191750Y-65379734D01*
X139114891Y-65766128D01*
X138964128Y-66130104D01*
X138745249Y-66457679D01*
X138466679Y-66736249D01*
X138139104Y-66955128D01*
X137775128Y-67105891D01*
X137388734Y-67182750D01*
X136994766Y-67182750D01*
X136608372Y-67105891D01*
X136244396Y-66955128D01*
X135916821Y-66736249D01*
X135638251Y-66457679D01*
X135419372Y-66130104D01*
X135268609Y-65766128D01*
X135191750Y-65379734D01*
X135191750Y-64985766D01*
X135268609Y-64599372D01*
X135419372Y-64235396D01*
X135638251Y-63907821D01*
X135916821Y-63629251D01*
X136244396Y-63410372D01*
X136608372Y-63259609D01*
X136994766Y-63182750D01*
X137388734Y-63182750D01*
X137775128Y-63259609D01*
X137775128Y-63259609D01*
G37*
G36*
X118725128Y-63259609D02*
X119089104Y-63410372D01*
X119416679Y-63629251D01*
X119695249Y-63907821D01*
X119914128Y-64235396D01*
X120064891Y-64599372D01*
X120141750Y-64985766D01*
X120141750Y-65379734D01*
X120064891Y-65766128D01*
X119914128Y-66130104D01*
X119695249Y-66457679D01*
X119416679Y-66736249D01*
X119089104Y-66955128D01*
X118725128Y-67105891D01*
X118338734Y-67182750D01*
X117944766Y-67182750D01*
X117558372Y-67105891D01*
X117194396Y-66955128D01*
X116866821Y-66736249D01*
X116588251Y-66457679D01*
X116369372Y-66130104D01*
X116218609Y-65766128D01*
X116141750Y-65379734D01*
X116141750Y-64985766D01*
X116218609Y-64599372D01*
X116369372Y-64235396D01*
X116588251Y-63907821D01*
X116866821Y-63629251D01*
X117194396Y-63410372D01*
X117558372Y-63259609D01*
X117944766Y-63182750D01*
X118338734Y-63182750D01*
X118725128Y-63259609D01*
X118725128Y-63259609D01*
G37*
G36*
X170459684Y-64365414D02*
X170614377Y-64429490D01*
X170753597Y-64522514D01*
X170871986Y-64640903D01*
X170965010Y-64780123D01*
X171029086Y-64934816D01*
X171061750Y-65099031D01*
X171061750Y-65266469D01*
X171029086Y-65430684D01*
X170965010Y-65585377D01*
X170871986Y-65724597D01*
X170753597Y-65842986D01*
X170614377Y-65936010D01*
X170459684Y-66000086D01*
X170295469Y-66032750D01*
X170128031Y-66032750D01*
X169963816Y-66000086D01*
X169809123Y-65936010D01*
X169669903Y-65842986D01*
X169551514Y-65724597D01*
X169458490Y-65585377D01*
X169394414Y-65430684D01*
X169361750Y-65266469D01*
X169361750Y-65099031D01*
X169394414Y-64934816D01*
X169458490Y-64780123D01*
X169551514Y-64640903D01*
X169669903Y-64522514D01*
X169809123Y-64429490D01*
X169963816Y-64365414D01*
X170128031Y-64332750D01*
X170295469Y-64332750D01*
X170459684Y-64365414D01*
X170459684Y-64365414D01*
G37*
G36*
X132359684Y-64365414D02*
X132514377Y-64429490D01*
X132653597Y-64522514D01*
X132771986Y-64640903D01*
X132865010Y-64780123D01*
X132929086Y-64934816D01*
X132961750Y-65099031D01*
X132961750Y-65266469D01*
X132929086Y-65430684D01*
X132865010Y-65585377D01*
X132771986Y-65724597D01*
X132653597Y-65842986D01*
X132514377Y-65936010D01*
X132359684Y-66000086D01*
X132195469Y-66032750D01*
X132028031Y-66032750D01*
X131863816Y-66000086D01*
X131709123Y-65936010D01*
X131569903Y-65842986D01*
X131451514Y-65724597D01*
X131358490Y-65585377D01*
X131294414Y-65430684D01*
X131261750Y-65266469D01*
X131261750Y-65099031D01*
X131294414Y-64934816D01*
X131358490Y-64780123D01*
X131451514Y-64640903D01*
X131569903Y-64522514D01*
X131709123Y-64429490D01*
X131863816Y-64365414D01*
X132028031Y-64332750D01*
X132195469Y-64332750D01*
X132359684Y-64365414D01*
X132359684Y-64365414D01*
G37*
G36*
X142519684Y-64365414D02*
X142674377Y-64429490D01*
X142813597Y-64522514D01*
X142931986Y-64640903D01*
X143025010Y-64780123D01*
X143089086Y-64934816D01*
X143121750Y-65099031D01*
X143121750Y-65266469D01*
X143089086Y-65430684D01*
X143025010Y-65585377D01*
X142931986Y-65724597D01*
X142813597Y-65842986D01*
X142674377Y-65936010D01*
X142519684Y-66000086D01*
X142355469Y-66032750D01*
X142188031Y-66032750D01*
X142023816Y-66000086D01*
X141869123Y-65936010D01*
X141729903Y-65842986D01*
X141611514Y-65724597D01*
X141518490Y-65585377D01*
X141454414Y-65430684D01*
X141421750Y-65266469D01*
X141421750Y-65099031D01*
X141454414Y-64934816D01*
X141518490Y-64780123D01*
X141611514Y-64640903D01*
X141729903Y-64522514D01*
X141869123Y-64429490D01*
X142023816Y-64365414D01*
X142188031Y-64332750D01*
X142355469Y-64332750D01*
X142519684Y-64365414D01*
X142519684Y-64365414D01*
G37*
G36*
X113309684Y-64365414D02*
X113464377Y-64429490D01*
X113603597Y-64522514D01*
X113721986Y-64640903D01*
X113815010Y-64780123D01*
X113879086Y-64934816D01*
X113911750Y-65099031D01*
X113911750Y-65266469D01*
X113879086Y-65430684D01*
X113815010Y-65585377D01*
X113721986Y-65724597D01*
X113603597Y-65842986D01*
X113464377Y-65936010D01*
X113309684Y-66000086D01*
X113145469Y-66032750D01*
X112978031Y-66032750D01*
X112813816Y-66000086D01*
X112659123Y-65936010D01*
X112519903Y-65842986D01*
X112401514Y-65724597D01*
X112308490Y-65585377D01*
X112244414Y-65430684D01*
X112211750Y-65266469D01*
X112211750Y-65099031D01*
X112244414Y-64934816D01*
X112308490Y-64780123D01*
X112401514Y-64640903D01*
X112519903Y-64522514D01*
X112659123Y-64429490D01*
X112813816Y-64365414D01*
X112978031Y-64332750D01*
X113145469Y-64332750D01*
X113309684Y-64365414D01*
X113309684Y-64365414D01*
G37*
G36*
X123469684Y-64365414D02*
X123624377Y-64429490D01*
X123763597Y-64522514D01*
X123881986Y-64640903D01*
X123975010Y-64780123D01*
X124039086Y-64934816D01*
X124071750Y-65099031D01*
X124071750Y-65266469D01*
X124039086Y-65430684D01*
X123975010Y-65585377D01*
X123881986Y-65724597D01*
X123763597Y-65842986D01*
X123624377Y-65936010D01*
X123469684Y-66000086D01*
X123305469Y-66032750D01*
X123138031Y-66032750D01*
X122973816Y-66000086D01*
X122819123Y-65936010D01*
X122679903Y-65842986D01*
X122561514Y-65724597D01*
X122468490Y-65585377D01*
X122404414Y-65430684D01*
X122371750Y-65266469D01*
X122371750Y-65099031D01*
X122404414Y-64934816D01*
X122468490Y-64780123D01*
X122561514Y-64640903D01*
X122679903Y-64522514D01*
X122819123Y-64429490D01*
X122973816Y-64365414D01*
X123138031Y-64332750D01*
X123305469Y-64332750D01*
X123469684Y-64365414D01*
X123469684Y-64365414D01*
G37*
G36*
X161569684Y-64365414D02*
X161724377Y-64429490D01*
X161863597Y-64522514D01*
X161981986Y-64640903D01*
X162075010Y-64780123D01*
X162139086Y-64934816D01*
X162171750Y-65099031D01*
X162171750Y-65266469D01*
X162139086Y-65430684D01*
X162075010Y-65585377D01*
X161981986Y-65724597D01*
X161863597Y-65842986D01*
X161724377Y-65936010D01*
X161569684Y-66000086D01*
X161405469Y-66032750D01*
X161238031Y-66032750D01*
X161073816Y-66000086D01*
X160919123Y-65936010D01*
X160779903Y-65842986D01*
X160661514Y-65724597D01*
X160568490Y-65585377D01*
X160504414Y-65430684D01*
X160471750Y-65266469D01*
X160471750Y-65099031D01*
X160504414Y-64934816D01*
X160568490Y-64780123D01*
X160661514Y-64640903D01*
X160779903Y-64522514D01*
X160919123Y-64429490D01*
X161073816Y-64365414D01*
X161238031Y-64332750D01*
X161405469Y-64332750D01*
X161569684Y-64365414D01*
X161569684Y-64365414D01*
G37*
G36*
X180619684Y-64365414D02*
X180774377Y-64429490D01*
X180913597Y-64522514D01*
X181031986Y-64640903D01*
X181125010Y-64780123D01*
X181189086Y-64934816D01*
X181221750Y-65099031D01*
X181221750Y-65266469D01*
X181189086Y-65430684D01*
X181125010Y-65585377D01*
X181031986Y-65724597D01*
X180913597Y-65842986D01*
X180774377Y-65936010D01*
X180619684Y-66000086D01*
X180455469Y-66032750D01*
X180288031Y-66032750D01*
X180123816Y-66000086D01*
X179969123Y-65936010D01*
X179829903Y-65842986D01*
X179711514Y-65724597D01*
X179618490Y-65585377D01*
X179554414Y-65430684D01*
X179521750Y-65266469D01*
X179521750Y-65099031D01*
X179554414Y-64934816D01*
X179618490Y-64780123D01*
X179711514Y-64640903D01*
X179829903Y-64522514D01*
X179969123Y-64429490D01*
X180123816Y-64365414D01*
X180288031Y-64332750D01*
X180455469Y-64332750D01*
X180619684Y-64365414D01*
X180619684Y-64365414D01*
G37*
G36*
X151409684Y-64365414D02*
X151564377Y-64429490D01*
X151703597Y-64522514D01*
X151821986Y-64640903D01*
X151915010Y-64780123D01*
X151979086Y-64934816D01*
X152011750Y-65099031D01*
X152011750Y-65266469D01*
X151979086Y-65430684D01*
X151915010Y-65585377D01*
X151821986Y-65724597D01*
X151703597Y-65842986D01*
X151564377Y-65936010D01*
X151409684Y-66000086D01*
X151245469Y-66032750D01*
X151078031Y-66032750D01*
X150913816Y-66000086D01*
X150759123Y-65936010D01*
X150619903Y-65842986D01*
X150501514Y-65724597D01*
X150408490Y-65585377D01*
X150344414Y-65430684D01*
X150311750Y-65266469D01*
X150311750Y-65099031D01*
X150344414Y-64934816D01*
X150408490Y-64780123D01*
X150501514Y-64640903D01*
X150619903Y-64522514D01*
X150759123Y-64429490D01*
X150913816Y-64365414D01*
X151078031Y-64332750D01*
X151245469Y-64332750D01*
X151409684Y-64365414D01*
X151409684Y-64365414D01*
G37*
G36*
X133702607Y-61585022D02*
X133902792Y-61667941D01*
X134082963Y-61788328D01*
X134236172Y-61941537D01*
X134356559Y-62121708D01*
X134439478Y-62321893D01*
X134481750Y-62534408D01*
X134481750Y-62751092D01*
X134439478Y-62963607D01*
X134356559Y-63163792D01*
X134236172Y-63343963D01*
X134082963Y-63497172D01*
X133902792Y-63617559D01*
X133702607Y-63700478D01*
X133490092Y-63742750D01*
X133273408Y-63742750D01*
X133060893Y-63700478D01*
X132860708Y-63617559D01*
X132680537Y-63497172D01*
X132527328Y-63343963D01*
X132406941Y-63163792D01*
X132324022Y-62963607D01*
X132281750Y-62751092D01*
X132281750Y-62534408D01*
X132324022Y-62321893D01*
X132406941Y-62121708D01*
X132527328Y-61941537D01*
X132680537Y-61788328D01*
X132860708Y-61667941D01*
X133060893Y-61585022D01*
X133273408Y-61542750D01*
X133490092Y-61542750D01*
X133702607Y-61585022D01*
X133702607Y-61585022D01*
G37*
G36*
X152752607Y-61585022D02*
X152952792Y-61667941D01*
X153132963Y-61788328D01*
X153286172Y-61941537D01*
X153406559Y-62121708D01*
X153489478Y-62321893D01*
X153531750Y-62534408D01*
X153531750Y-62751092D01*
X153489478Y-62963607D01*
X153406559Y-63163792D01*
X153286172Y-63343963D01*
X153132963Y-63497172D01*
X152952792Y-63617559D01*
X152752607Y-63700478D01*
X152540092Y-63742750D01*
X152323408Y-63742750D01*
X152110893Y-63700478D01*
X151910708Y-63617559D01*
X151730537Y-63497172D01*
X151577328Y-63343963D01*
X151456941Y-63163792D01*
X151374022Y-62963607D01*
X151331750Y-62751092D01*
X151331750Y-62534408D01*
X151374022Y-62321893D01*
X151456941Y-62121708D01*
X151577328Y-61941537D01*
X151730537Y-61788328D01*
X151910708Y-61667941D01*
X152110893Y-61585022D01*
X152323408Y-61542750D01*
X152540092Y-61542750D01*
X152752607Y-61585022D01*
X152752607Y-61585022D01*
G37*
G36*
X171802607Y-61585022D02*
X172002792Y-61667941D01*
X172182963Y-61788328D01*
X172336172Y-61941537D01*
X172456559Y-62121708D01*
X172539478Y-62321893D01*
X172581750Y-62534408D01*
X172581750Y-62751092D01*
X172539478Y-62963607D01*
X172456559Y-63163792D01*
X172336172Y-63343963D01*
X172182963Y-63497172D01*
X172002792Y-63617559D01*
X171802607Y-63700478D01*
X171590092Y-63742750D01*
X171373408Y-63742750D01*
X171160893Y-63700478D01*
X170960708Y-63617559D01*
X170780537Y-63497172D01*
X170627328Y-63343963D01*
X170506941Y-63163792D01*
X170424022Y-62963607D01*
X170381750Y-62751092D01*
X170381750Y-62534408D01*
X170424022Y-62321893D01*
X170506941Y-62121708D01*
X170627328Y-61941537D01*
X170780537Y-61788328D01*
X170960708Y-61667941D01*
X171160893Y-61585022D01*
X171373408Y-61542750D01*
X171590092Y-61542750D01*
X171802607Y-61585022D01*
X171802607Y-61585022D01*
G37*
G36*
X114652607Y-61585022D02*
X114852792Y-61667941D01*
X115032963Y-61788328D01*
X115186172Y-61941537D01*
X115306559Y-62121708D01*
X115389478Y-62321893D01*
X115431750Y-62534408D01*
X115431750Y-62751092D01*
X115389478Y-62963607D01*
X115306559Y-63163792D01*
X115186172Y-63343963D01*
X115032963Y-63497172D01*
X114852792Y-63617559D01*
X114652607Y-63700478D01*
X114440092Y-63742750D01*
X114223408Y-63742750D01*
X114010893Y-63700478D01*
X113810708Y-63617559D01*
X113630537Y-63497172D01*
X113477328Y-63343963D01*
X113356941Y-63163792D01*
X113274022Y-62963607D01*
X113231750Y-62751092D01*
X113231750Y-62534408D01*
X113274022Y-62321893D01*
X113356941Y-62121708D01*
X113477328Y-61941537D01*
X113630537Y-61788328D01*
X113810708Y-61667941D01*
X114010893Y-61585022D01*
X114223408Y-61542750D01*
X114440092Y-61542750D01*
X114652607Y-61585022D01*
X114652607Y-61585022D01*
G37*
G36*
X159102607Y-59045022D02*
X159302792Y-59127941D01*
X159482963Y-59248328D01*
X159636172Y-59401537D01*
X159756559Y-59581708D01*
X159839478Y-59781893D01*
X159881750Y-59994408D01*
X159881750Y-60211092D01*
X159839478Y-60423607D01*
X159756559Y-60623792D01*
X159636172Y-60803963D01*
X159482963Y-60957172D01*
X159302792Y-61077559D01*
X159102607Y-61160478D01*
X158890092Y-61202750D01*
X158673408Y-61202750D01*
X158460893Y-61160478D01*
X158260708Y-61077559D01*
X158080537Y-60957172D01*
X157927328Y-60803963D01*
X157806941Y-60623792D01*
X157724022Y-60423607D01*
X157681750Y-60211092D01*
X157681750Y-59994408D01*
X157724022Y-59781893D01*
X157806941Y-59581708D01*
X157927328Y-59401537D01*
X158080537Y-59248328D01*
X158260708Y-59127941D01*
X158460893Y-59045022D01*
X158673408Y-59002750D01*
X158890092Y-59002750D01*
X159102607Y-59045022D01*
X159102607Y-59045022D01*
G37*
G36*
X178152607Y-59045022D02*
X178352792Y-59127941D01*
X178532963Y-59248328D01*
X178686172Y-59401537D01*
X178806559Y-59581708D01*
X178889478Y-59781893D01*
X178931750Y-59994408D01*
X178931750Y-60211092D01*
X178889478Y-60423607D01*
X178806559Y-60623792D01*
X178686172Y-60803963D01*
X178532963Y-60957172D01*
X178352792Y-61077559D01*
X178152607Y-61160478D01*
X177940092Y-61202750D01*
X177723408Y-61202750D01*
X177510893Y-61160478D01*
X177310708Y-61077559D01*
X177130537Y-60957172D01*
X176977328Y-60803963D01*
X176856941Y-60623792D01*
X176774022Y-60423607D01*
X176731750Y-60211092D01*
X176731750Y-59994408D01*
X176774022Y-59781893D01*
X176856941Y-59581708D01*
X176977328Y-59401537D01*
X177130537Y-59248328D01*
X177310708Y-59127941D01*
X177510893Y-59045022D01*
X177723408Y-59002750D01*
X177940092Y-59002750D01*
X178152607Y-59045022D01*
X178152607Y-59045022D01*
G37*
G36*
X121002607Y-59045022D02*
X121202792Y-59127941D01*
X121382963Y-59248328D01*
X121536172Y-59401537D01*
X121656559Y-59581708D01*
X121739478Y-59781893D01*
X121781750Y-59994408D01*
X121781750Y-60211092D01*
X121739478Y-60423607D01*
X121656559Y-60623792D01*
X121536172Y-60803963D01*
X121382963Y-60957172D01*
X121202792Y-61077559D01*
X121002607Y-61160478D01*
X120790092Y-61202750D01*
X120573408Y-61202750D01*
X120360893Y-61160478D01*
X120160708Y-61077559D01*
X119980537Y-60957172D01*
X119827328Y-60803963D01*
X119706941Y-60623792D01*
X119624022Y-60423607D01*
X119581750Y-60211092D01*
X119581750Y-59994408D01*
X119624022Y-59781893D01*
X119706941Y-59581708D01*
X119827328Y-59401537D01*
X119980537Y-59248328D01*
X120160708Y-59127941D01*
X120360893Y-59045022D01*
X120573408Y-59002750D01*
X120790092Y-59002750D01*
X121002607Y-59045022D01*
X121002607Y-59045022D01*
G37*
G36*
X140052607Y-59045022D02*
X140252792Y-59127941D01*
X140432963Y-59248328D01*
X140586172Y-59401537D01*
X140706559Y-59581708D01*
X140789478Y-59781893D01*
X140831750Y-59994408D01*
X140831750Y-60211092D01*
X140789478Y-60423607D01*
X140706559Y-60623792D01*
X140586172Y-60803963D01*
X140432963Y-60957172D01*
X140252792Y-61077559D01*
X140052607Y-61160478D01*
X139840092Y-61202750D01*
X139623408Y-61202750D01*
X139410893Y-61160478D01*
X139210708Y-61077559D01*
X139030537Y-60957172D01*
X138877328Y-60803963D01*
X138756941Y-60623792D01*
X138674022Y-60423607D01*
X138631750Y-60211092D01*
X138631750Y-59994408D01*
X138674022Y-59781893D01*
X138756941Y-59581708D01*
X138877328Y-59401537D01*
X139030537Y-59248328D01*
X139210708Y-59127941D01*
X139410893Y-59045022D01*
X139623408Y-59002750D01*
X139840092Y-59002750D01*
X140052607Y-59045022D01*
X140052607Y-59045022D01*
G37*
G36*
X112240550Y-57768750D02*
X111390550Y-57768750D01*
X111390550Y-56168750D01*
X112240550Y-56168750D01*
X112240550Y-57768750D01*
X112240550Y-57768750D01*
G37*
G36*
X181890550Y-57768750D02*
X181040550Y-57768750D01*
X181040550Y-56168750D01*
X181890550Y-56168750D01*
X181890550Y-57768750D01*
X181890550Y-57768750D01*
G37*
G36*
X183640550Y-57768750D02*
X182790550Y-57768750D01*
X182790550Y-56168750D01*
X183640550Y-56168750D01*
X183640550Y-57768750D01*
X183640550Y-57768750D01*
G37*
G36*
X110490550Y-57768750D02*
X109640550Y-57768750D01*
X109640550Y-56168750D01*
X110490550Y-56168750D01*
X110490550Y-57768750D01*
X110490550Y-57768750D01*
G37*
G36*
X147020857Y-53842272D02*
X147221042Y-53925191D01*
X147401213Y-54045578D01*
X147554422Y-54198787D01*
X147674809Y-54378958D01*
X147757728Y-54579143D01*
X147800000Y-54791658D01*
X147800000Y-55008342D01*
X147757728Y-55220857D01*
X147674809Y-55421042D01*
X147554422Y-55601213D01*
X147401213Y-55754422D01*
X147221042Y-55874809D01*
X147020857Y-55957728D01*
X146808342Y-56000000D01*
X146591658Y-56000000D01*
X146379143Y-55957728D01*
X146178958Y-55874809D01*
X145998787Y-55754422D01*
X145845578Y-55601213D01*
X145725191Y-55421042D01*
X145642272Y-55220857D01*
X145600000Y-55008342D01*
X145600000Y-54791658D01*
X145642272Y-54579143D01*
X145725191Y-54378958D01*
X145845578Y-54198787D01*
X145998787Y-54045578D01*
X146178958Y-53925191D01*
X146379143Y-53842272D01*
X146591658Y-53800000D01*
X146808342Y-53800000D01*
X147020857Y-53842272D01*
X147020857Y-53842272D01*
G37*
G36*
X112240550Y-54268750D02*
X111390550Y-54268750D01*
X111390550Y-52668750D01*
X112240550Y-52668750D01*
X112240550Y-54268750D01*
X112240550Y-54268750D01*
G37*
G36*
X183640550Y-54268750D02*
X182790550Y-54268750D01*
X182790550Y-52668750D01*
X183640550Y-52668750D01*
X183640550Y-54268750D01*
X183640550Y-54268750D01*
G37*
G36*
X181890550Y-54268750D02*
X181040550Y-54268750D01*
X181040550Y-52668750D01*
X181890550Y-52668750D01*
X181890550Y-54268750D01*
X181890550Y-54268750D01*
G37*
G36*
X110490550Y-54268750D02*
X109640550Y-54268750D01*
X109640550Y-52668750D01*
X110490550Y-52668750D01*
X110490550Y-54268750D01*
X110490550Y-54268750D01*
G37*
G36*
X140554518Y-49298344D02*
X140781946Y-49392548D01*
X140986625Y-49529310D01*
X141160690Y-49703375D01*
X141297452Y-49908054D01*
X141391656Y-50135482D01*
X141439680Y-50376917D01*
X141439680Y-50623083D01*
X141391656Y-50864518D01*
X141297452Y-51091946D01*
X141160690Y-51296625D01*
X140986625Y-51470690D01*
X140781946Y-51607452D01*
X140554518Y-51701656D01*
X140313083Y-51749680D01*
X140066917Y-51749680D01*
X139825482Y-51701656D01*
X139598054Y-51607452D01*
X139393375Y-51470690D01*
X139219310Y-51296625D01*
X139082548Y-51091946D01*
X138988344Y-50864518D01*
X138940320Y-50623083D01*
X138940320Y-50376917D01*
X138988344Y-50135482D01*
X139082548Y-49908054D01*
X139219310Y-49703375D01*
X139393375Y-49529310D01*
X139598054Y-49392548D01*
X139825482Y-49298344D01*
X140066917Y-49250320D01*
X140313083Y-49250320D01*
X140554518Y-49298344D01*
X140554518Y-49298344D01*
G37*
G36*
X145249680Y-51749680D02*
X142750320Y-51749680D01*
X142750320Y-49250320D01*
X145249680Y-49250320D01*
X145249680Y-51749680D01*
X145249680Y-51749680D01*
G37*
G36*
X171330000Y-51690000D02*
X169930000Y-51690000D01*
X169930000Y-50090000D01*
X171330000Y-50090000D01*
X171330000Y-51690000D01*
X171330000Y-51690000D01*
G37*
G36*
X166830000Y-51690000D02*
X165430000Y-51690000D01*
X165430000Y-50090000D01*
X166830000Y-50090000D01*
X166830000Y-51690000D01*
X166830000Y-51690000D01*
G37*
G36*
X138324183Y-42686900D02*
X138451574Y-42739668D01*
X138566225Y-42816275D01*
X138663725Y-42913775D01*
X138740332Y-43028426D01*
X138793100Y-43155817D01*
X138820000Y-43291055D01*
X138820000Y-43428945D01*
X138793100Y-43564183D01*
X138748446Y-43671986D01*
X138740332Y-43691574D01*
X138663838Y-43806057D01*
X138663725Y-43806225D01*
X138566225Y-43903725D01*
X138562720Y-43906067D01*
X138543778Y-43921613D01*
X138528233Y-43940555D01*
X138516682Y-43962166D01*
X138509569Y-43985615D01*
X138507167Y-44010001D01*
X138509569Y-44034388D01*
X138516683Y-44057837D01*
X138528234Y-44079447D01*
X138543780Y-44098389D01*
X138562722Y-44113934D01*
X138584333Y-44125485D01*
X138607782Y-44132598D01*
X138632167Y-44135000D01*
X138696784Y-44135000D01*
X138788553Y-44153254D01*
X138874998Y-44189061D01*
X138952796Y-44241044D01*
X138955425Y-44243673D01*
X138974367Y-44259219D01*
X138995978Y-44270770D01*
X139019427Y-44277883D01*
X139043813Y-44280285D01*
X139059232Y-44278766D01*
X139054472Y-44294459D01*
X139052070Y-44318846D01*
X139054472Y-44343232D01*
X139061585Y-44366681D01*
X139069426Y-44381348D01*
X139106746Y-44471447D01*
X139125000Y-44563216D01*
X139125000Y-44656784D01*
X139106746Y-44748553D01*
X139070939Y-44834998D01*
X139018956Y-44912796D01*
X138952796Y-44978956D01*
X138874998Y-45030939D01*
X138788553Y-45066746D01*
X138696784Y-45085000D01*
X138603216Y-45085000D01*
X138511447Y-45066746D01*
X138425002Y-45030939D01*
X138347204Y-44978956D01*
X138281044Y-44912796D01*
X138229061Y-44834998D01*
X138193254Y-44748553D01*
X138175000Y-44656784D01*
X138175000Y-44563216D01*
X138193254Y-44471447D01*
X138229061Y-44385002D01*
X138281044Y-44307204D01*
X138321121Y-44267127D01*
X138336667Y-44248185D01*
X138348218Y-44226574D01*
X138355331Y-44203125D01*
X138357733Y-44178739D01*
X138355331Y-44154353D01*
X138348218Y-44130904D01*
X138336667Y-44109293D01*
X138321121Y-44090351D01*
X138302179Y-44074805D01*
X138280568Y-44063254D01*
X138257119Y-44056141D01*
X138232733Y-44053739D01*
X138208348Y-44056141D01*
X138188946Y-44060000D01*
X138051055Y-44060000D01*
X137915817Y-44033100D01*
X137788426Y-43980332D01*
X137673776Y-43903726D01*
X137576274Y-43806224D01*
X137499668Y-43691574D01*
X137491554Y-43671986D01*
X137446900Y-43564183D01*
X137420000Y-43428945D01*
X137420000Y-43291055D01*
X137446900Y-43155817D01*
X137499668Y-43028426D01*
X137576275Y-42913775D01*
X137673775Y-42816275D01*
X137788426Y-42739668D01*
X137915817Y-42686900D01*
X138051055Y-42660000D01*
X138188945Y-42660000D01*
X138324183Y-42686900D01*
X138324183Y-42686900D01*
G37*
G36*
X145944799Y-44297489D02*
X145990543Y-44316437D01*
X146003941Y-44321986D01*
X146003942Y-44321987D01*
X146003945Y-44321988D01*
X146057176Y-44357556D01*
X146102444Y-44402824D01*
X146138012Y-44456055D01*
X146162511Y-44515201D01*
X146175000Y-44577990D01*
X146175000Y-44642010D01*
X146162511Y-44704799D01*
X146138012Y-44763945D01*
X146102444Y-44817176D01*
X146057176Y-44862444D01*
X146003945Y-44898012D01*
X146003942Y-44898013D01*
X146003941Y-44898014D01*
X145990543Y-44903563D01*
X145944799Y-44922511D01*
X145882010Y-44935000D01*
X145817990Y-44935000D01*
X145755201Y-44922511D01*
X145709457Y-44903563D01*
X145696059Y-44898014D01*
X145696058Y-44898013D01*
X145696055Y-44898012D01*
X145642824Y-44862444D01*
X145597556Y-44817176D01*
X145561988Y-44763945D01*
X145537489Y-44704799D01*
X145525000Y-44642010D01*
X145525000Y-44577990D01*
X145537489Y-44515201D01*
X145561988Y-44456055D01*
X145597556Y-44402824D01*
X145642824Y-44357556D01*
X145696055Y-44321988D01*
X145696058Y-44321987D01*
X145696059Y-44321986D01*
X145709457Y-44316437D01*
X145755201Y-44297489D01*
X145817990Y-44285000D01*
X145882010Y-44285000D01*
X145944799Y-44297489D01*
X145944799Y-44297489D01*
G37*
G36*
X139944799Y-42947489D02*
X139990543Y-42966437D01*
X140003941Y-42971986D01*
X140003942Y-42971987D01*
X140003945Y-42971988D01*
X140057176Y-43007556D01*
X140102444Y-43052824D01*
X140138012Y-43106055D01*
X140138013Y-43106058D01*
X140143094Y-43113662D01*
X140146069Y-43119228D01*
X140161615Y-43138169D01*
X140180557Y-43153714D01*
X140202168Y-43165264D01*
X140225618Y-43172377D01*
X140250004Y-43174778D01*
X140274390Y-43172375D01*
X140297839Y-43165261D01*
X140319450Y-43153709D01*
X140338391Y-43138163D01*
X140353936Y-43119221D01*
X140356911Y-43113655D01*
X140361986Y-43106059D01*
X140361988Y-43106055D01*
X140397556Y-43052824D01*
X140442824Y-43007556D01*
X140496055Y-42971988D01*
X140496058Y-42971987D01*
X140496059Y-42971986D01*
X140509457Y-42966437D01*
X140555201Y-42947489D01*
X140617990Y-42935000D01*
X140682010Y-42935000D01*
X140744799Y-42947489D01*
X140790543Y-42966437D01*
X140803941Y-42971986D01*
X140803942Y-42971987D01*
X140803945Y-42971988D01*
X140857176Y-43007556D01*
X140902444Y-43052824D01*
X140938012Y-43106055D01*
X140938013Y-43106058D01*
X140943094Y-43113662D01*
X140946069Y-43119228D01*
X140961615Y-43138169D01*
X140980557Y-43153714D01*
X141002168Y-43165264D01*
X141025618Y-43172377D01*
X141050004Y-43174778D01*
X141074390Y-43172375D01*
X141097839Y-43165261D01*
X141119450Y-43153709D01*
X141138391Y-43138163D01*
X141153936Y-43119221D01*
X141156911Y-43113655D01*
X141161986Y-43106059D01*
X141161988Y-43106055D01*
X141197556Y-43052824D01*
X141242824Y-43007556D01*
X141296055Y-42971988D01*
X141296058Y-42971987D01*
X141296059Y-42971986D01*
X141309457Y-42966437D01*
X141355201Y-42947489D01*
X141417990Y-42935000D01*
X141482010Y-42935000D01*
X141544799Y-42947489D01*
X141590543Y-42966437D01*
X141603941Y-42971986D01*
X141603942Y-42971987D01*
X141603945Y-42971988D01*
X141657176Y-43007556D01*
X141702444Y-43052824D01*
X141738012Y-43106055D01*
X141762511Y-43165201D01*
X141775000Y-43227990D01*
X141775000Y-43292010D01*
X141762511Y-43354799D01*
X141741163Y-43406338D01*
X141738013Y-43413943D01*
X141720232Y-43440554D01*
X141708681Y-43462165D01*
X141701568Y-43485614D01*
X141699166Y-43510000D01*
X141701568Y-43534386D01*
X141708681Y-43557836D01*
X141720232Y-43579446D01*
X141735778Y-43598388D01*
X141754720Y-43613934D01*
X141776331Y-43625485D01*
X141799780Y-43632598D01*
X141824166Y-43635000D01*
X141882010Y-43635000D01*
X141944799Y-43647489D01*
X141990543Y-43666437D01*
X142003941Y-43671986D01*
X142003942Y-43671987D01*
X142003945Y-43671988D01*
X142057176Y-43707556D01*
X142102444Y-43752824D01*
X142138012Y-43806055D01*
X142138013Y-43806058D01*
X142143094Y-43813662D01*
X142146069Y-43819228D01*
X142161615Y-43838169D01*
X142180557Y-43853714D01*
X142202168Y-43865264D01*
X142225618Y-43872377D01*
X142250004Y-43874778D01*
X142274390Y-43872375D01*
X142297839Y-43865261D01*
X142319450Y-43853709D01*
X142338391Y-43838163D01*
X142353936Y-43819221D01*
X142356911Y-43813655D01*
X142361986Y-43806059D01*
X142361988Y-43806055D01*
X142397556Y-43752824D01*
X142440380Y-43710000D01*
X142899166Y-43710000D01*
X142901568Y-43734386D01*
X142908681Y-43757835D01*
X142920232Y-43779446D01*
X142943091Y-43813657D01*
X142946069Y-43819228D01*
X142961615Y-43838169D01*
X142980557Y-43853714D01*
X143002168Y-43865264D01*
X143025618Y-43872377D01*
X143050004Y-43874778D01*
X143074390Y-43872375D01*
X143097839Y-43865261D01*
X143119450Y-43853709D01*
X143138391Y-43838163D01*
X143153936Y-43819221D01*
X143156913Y-43813650D01*
X143179768Y-43779446D01*
X143191319Y-43757835D01*
X143198432Y-43734386D01*
X143200834Y-43710000D01*
X143198432Y-43685614D01*
X143191319Y-43662164D01*
X143179768Y-43640554D01*
X143164222Y-43621612D01*
X143145280Y-43606066D01*
X143123669Y-43594515D01*
X143100220Y-43587402D01*
X143075834Y-43585000D01*
X143024166Y-43585000D01*
X142999780Y-43587402D01*
X142976331Y-43594515D01*
X142954720Y-43606066D01*
X142935778Y-43621612D01*
X142920232Y-43640554D01*
X142908681Y-43662165D01*
X142901568Y-43685614D01*
X142899166Y-43710000D01*
X142440380Y-43710000D01*
X142442824Y-43707556D01*
X142496055Y-43671988D01*
X142496058Y-43671987D01*
X142496059Y-43671986D01*
X142509457Y-43666437D01*
X142555201Y-43647489D01*
X142617990Y-43635000D01*
X142675834Y-43635000D01*
X142700220Y-43632598D01*
X142723669Y-43625485D01*
X142745280Y-43613934D01*
X142764222Y-43598388D01*
X142779768Y-43579446D01*
X142791319Y-43557835D01*
X142798432Y-43534386D01*
X142800834Y-43510000D01*
X143299166Y-43510000D01*
X143301568Y-43534386D01*
X143308681Y-43557836D01*
X143320232Y-43579446D01*
X143335778Y-43598388D01*
X143354720Y-43613934D01*
X143376331Y-43625485D01*
X143399780Y-43632598D01*
X143424166Y-43635000D01*
X143475834Y-43635000D01*
X143500220Y-43632598D01*
X143523669Y-43625485D01*
X143545280Y-43613934D01*
X143564222Y-43598388D01*
X143579768Y-43579446D01*
X143591319Y-43557835D01*
X143598432Y-43534386D01*
X143600834Y-43510000D01*
X143598432Y-43485614D01*
X143591319Y-43462165D01*
X143579768Y-43440554D01*
X143556909Y-43406343D01*
X143553931Y-43400772D01*
X143538385Y-43381831D01*
X143519443Y-43366286D01*
X143497832Y-43354736D01*
X143474382Y-43347623D01*
X143449996Y-43345222D01*
X143425610Y-43347625D01*
X143402161Y-43354739D01*
X143380550Y-43366291D01*
X143361609Y-43381837D01*
X143346064Y-43400779D01*
X143343087Y-43406350D01*
X143320232Y-43440554D01*
X143308681Y-43462165D01*
X143301568Y-43485614D01*
X143299166Y-43510000D01*
X142800834Y-43510000D01*
X142798432Y-43485614D01*
X142791319Y-43462165D01*
X142779768Y-43440554D01*
X142761987Y-43413943D01*
X142758837Y-43406338D01*
X142737489Y-43354799D01*
X142725000Y-43292010D01*
X142725000Y-43227990D01*
X142737489Y-43165201D01*
X142761988Y-43106055D01*
X142797556Y-43052824D01*
X142842824Y-43007556D01*
X142896055Y-42971988D01*
X142896058Y-42971987D01*
X142896059Y-42971986D01*
X142909457Y-42966437D01*
X142955201Y-42947489D01*
X143017990Y-42935000D01*
X143082010Y-42935000D01*
X143144799Y-42947489D01*
X143190543Y-42966437D01*
X143203941Y-42971986D01*
X143203942Y-42971987D01*
X143203945Y-42971988D01*
X143257176Y-43007556D01*
X143302444Y-43052824D01*
X143338012Y-43106055D01*
X143338013Y-43106058D01*
X143343094Y-43113662D01*
X143346069Y-43119228D01*
X143361615Y-43138169D01*
X143380557Y-43153714D01*
X143402168Y-43165264D01*
X143425618Y-43172377D01*
X143450004Y-43174778D01*
X143474390Y-43172375D01*
X143497839Y-43165261D01*
X143519450Y-43153709D01*
X143538391Y-43138163D01*
X143553936Y-43119221D01*
X143556911Y-43113655D01*
X143561986Y-43106059D01*
X143561988Y-43106055D01*
X143597556Y-43052824D01*
X143642824Y-43007556D01*
X143696055Y-42971988D01*
X143696058Y-42971987D01*
X143696059Y-42971986D01*
X143709457Y-42966437D01*
X143755201Y-42947489D01*
X143817990Y-42935000D01*
X143882010Y-42935000D01*
X143944799Y-42947489D01*
X143990543Y-42966437D01*
X144003941Y-42971986D01*
X144003942Y-42971987D01*
X144003945Y-42971988D01*
X144057176Y-43007556D01*
X144102444Y-43052824D01*
X144138012Y-43106055D01*
X144138013Y-43106058D01*
X144143094Y-43113662D01*
X144146069Y-43119228D01*
X144161615Y-43138169D01*
X144180557Y-43153714D01*
X144202168Y-43165264D01*
X144225618Y-43172377D01*
X144250004Y-43174778D01*
X144274390Y-43172375D01*
X144297839Y-43165261D01*
X144319450Y-43153709D01*
X144338391Y-43138163D01*
X144353936Y-43119221D01*
X144356911Y-43113655D01*
X144361986Y-43106059D01*
X144361988Y-43106055D01*
X144397556Y-43052824D01*
X144442824Y-43007556D01*
X144496055Y-42971988D01*
X144496058Y-42971987D01*
X144496059Y-42971986D01*
X144509457Y-42966437D01*
X144555201Y-42947489D01*
X144617990Y-42935000D01*
X144682010Y-42935000D01*
X144744799Y-42947489D01*
X144790543Y-42966437D01*
X144803941Y-42971986D01*
X144803942Y-42971987D01*
X144803945Y-42971988D01*
X144857176Y-43007556D01*
X144902444Y-43052824D01*
X144938012Y-43106055D01*
X144962511Y-43165201D01*
X144975000Y-43227990D01*
X144975000Y-43292010D01*
X144962511Y-43354799D01*
X144941163Y-43406338D01*
X144938013Y-43413943D01*
X144920232Y-43440554D01*
X144908681Y-43462165D01*
X144901568Y-43485614D01*
X144899166Y-43510000D01*
X144901568Y-43534386D01*
X144908681Y-43557836D01*
X144920232Y-43579446D01*
X144935778Y-43598388D01*
X144954720Y-43613934D01*
X144976331Y-43625485D01*
X144999780Y-43632598D01*
X145024166Y-43635000D01*
X145082010Y-43635000D01*
X145144799Y-43647489D01*
X145190543Y-43666437D01*
X145203941Y-43671986D01*
X145203942Y-43671987D01*
X145203945Y-43671988D01*
X145257176Y-43707556D01*
X145302444Y-43752824D01*
X145338012Y-43806055D01*
X145338014Y-43806059D01*
X145341158Y-43813650D01*
X145362511Y-43865201D01*
X145375000Y-43927990D01*
X145375000Y-43992010D01*
X145362511Y-44054799D01*
X145338012Y-44113945D01*
X145302444Y-44167176D01*
X145257176Y-44212444D01*
X145203945Y-44248012D01*
X145203942Y-44248013D01*
X145203941Y-44248014D01*
X145190543Y-44253563D01*
X145144799Y-44272511D01*
X145082010Y-44285000D01*
X145017990Y-44285000D01*
X144955201Y-44272511D01*
X144909457Y-44253563D01*
X144896059Y-44248014D01*
X144896058Y-44248013D01*
X144896055Y-44248012D01*
X144842824Y-44212444D01*
X144797556Y-44167176D01*
X144761988Y-44113945D01*
X144737489Y-44054799D01*
X144725000Y-43992010D01*
X144725000Y-43927990D01*
X144737489Y-43865201D01*
X144758858Y-43813612D01*
X144761987Y-43806057D01*
X144779768Y-43779446D01*
X144791319Y-43757835D01*
X144798432Y-43734386D01*
X144800834Y-43710000D01*
X144798432Y-43685614D01*
X144791319Y-43662164D01*
X144779768Y-43640554D01*
X144764222Y-43621612D01*
X144745280Y-43606066D01*
X144723669Y-43594515D01*
X144700220Y-43587402D01*
X144675834Y-43585000D01*
X144617990Y-43585000D01*
X144555201Y-43572511D01*
X144509457Y-43553563D01*
X144496059Y-43548014D01*
X144496058Y-43548013D01*
X144496055Y-43548012D01*
X144442824Y-43512444D01*
X144397556Y-43467176D01*
X144361988Y-43413945D01*
X144361987Y-43413942D01*
X144356906Y-43406338D01*
X144353931Y-43400772D01*
X144338385Y-43381831D01*
X144319443Y-43366286D01*
X144297832Y-43354736D01*
X144274382Y-43347623D01*
X144249996Y-43345222D01*
X144225610Y-43347625D01*
X144202161Y-43354739D01*
X144180550Y-43366291D01*
X144161609Y-43381837D01*
X144146064Y-43400779D01*
X144143089Y-43406345D01*
X144138014Y-43413940D01*
X144138012Y-43413945D01*
X144102444Y-43467176D01*
X144057176Y-43512444D01*
X144003945Y-43548012D01*
X144003942Y-43548013D01*
X144003941Y-43548014D01*
X143990543Y-43553563D01*
X143944799Y-43572511D01*
X143882010Y-43585000D01*
X143824166Y-43585000D01*
X143799780Y-43587402D01*
X143776331Y-43594515D01*
X143754720Y-43606066D01*
X143735778Y-43621612D01*
X143720232Y-43640554D01*
X143708681Y-43662165D01*
X143701568Y-43685614D01*
X143699166Y-43710000D01*
X143701568Y-43734386D01*
X143708681Y-43757835D01*
X143720232Y-43779446D01*
X143738013Y-43806057D01*
X143741142Y-43813612D01*
X143762511Y-43865201D01*
X143775000Y-43927990D01*
X143775000Y-43992010D01*
X143762511Y-44054799D01*
X143738012Y-44113945D01*
X143702444Y-44167176D01*
X143657176Y-44212444D01*
X143603945Y-44248012D01*
X143603942Y-44248013D01*
X143603941Y-44248014D01*
X143590543Y-44253563D01*
X143544799Y-44272511D01*
X143482010Y-44285000D01*
X143417990Y-44285000D01*
X143355201Y-44272511D01*
X143309457Y-44253563D01*
X143296059Y-44248014D01*
X143296058Y-44248013D01*
X143296055Y-44248012D01*
X143242824Y-44212444D01*
X143197556Y-44167176D01*
X143161988Y-44113945D01*
X143161986Y-44113941D01*
X143156906Y-44106338D01*
X143153931Y-44100772D01*
X143138385Y-44081831D01*
X143119443Y-44066286D01*
X143097832Y-44054736D01*
X143074382Y-44047623D01*
X143049996Y-44045222D01*
X143025610Y-44047625D01*
X143002161Y-44054739D01*
X142980550Y-44066291D01*
X142961609Y-44081837D01*
X142946064Y-44100779D01*
X142943089Y-44106345D01*
X142938014Y-44113940D01*
X142938012Y-44113945D01*
X142902444Y-44167176D01*
X142857176Y-44212444D01*
X142803945Y-44248012D01*
X142803942Y-44248013D01*
X142803941Y-44248014D01*
X142790543Y-44253563D01*
X142744799Y-44272511D01*
X142682010Y-44285000D01*
X142617990Y-44285000D01*
X142555201Y-44272511D01*
X142509457Y-44253563D01*
X142496059Y-44248014D01*
X142496058Y-44248013D01*
X142496055Y-44248012D01*
X142442824Y-44212444D01*
X142397556Y-44167176D01*
X142361988Y-44113945D01*
X142361986Y-44113941D01*
X142356906Y-44106338D01*
X142353931Y-44100772D01*
X142338385Y-44081831D01*
X142319443Y-44066286D01*
X142297832Y-44054736D01*
X142274382Y-44047623D01*
X142249996Y-44045222D01*
X142225610Y-44047625D01*
X142202161Y-44054739D01*
X142180550Y-44066291D01*
X142161609Y-44081837D01*
X142146064Y-44100779D01*
X142143089Y-44106345D01*
X142138014Y-44113940D01*
X142138012Y-44113945D01*
X142102444Y-44167176D01*
X142057176Y-44212444D01*
X142003945Y-44248012D01*
X142003942Y-44248013D01*
X142003941Y-44248014D01*
X141990543Y-44253563D01*
X141944799Y-44272511D01*
X141882010Y-44285000D01*
X141817990Y-44285000D01*
X141755201Y-44272511D01*
X141709457Y-44253563D01*
X141696059Y-44248014D01*
X141696058Y-44248013D01*
X141696055Y-44248012D01*
X141642824Y-44212444D01*
X141597556Y-44167176D01*
X141561988Y-44113945D01*
X141561986Y-44113941D01*
X141556906Y-44106338D01*
X141553931Y-44100772D01*
X141538385Y-44081831D01*
X141519443Y-44066286D01*
X141497832Y-44054736D01*
X141474382Y-44047623D01*
X141449996Y-44045222D01*
X141425610Y-44047625D01*
X141402161Y-44054739D01*
X141380550Y-44066291D01*
X141361609Y-44081837D01*
X141346064Y-44100779D01*
X141343089Y-44106345D01*
X141338014Y-44113940D01*
X141338012Y-44113945D01*
X141302444Y-44167176D01*
X141257176Y-44212444D01*
X141203945Y-44248012D01*
X141203942Y-44248013D01*
X141203941Y-44248014D01*
X141190543Y-44253563D01*
X141144799Y-44272511D01*
X141082010Y-44285000D01*
X141017990Y-44285000D01*
X140955201Y-44272511D01*
X140909457Y-44253563D01*
X140896059Y-44248014D01*
X140896058Y-44248013D01*
X140896055Y-44248012D01*
X140842824Y-44212444D01*
X140797556Y-44167176D01*
X140761988Y-44113945D01*
X140737489Y-44054799D01*
X140725000Y-43992010D01*
X140725000Y-43927990D01*
X140737489Y-43865201D01*
X140758858Y-43813612D01*
X140761987Y-43806057D01*
X140779768Y-43779446D01*
X140791319Y-43757835D01*
X140798432Y-43734386D01*
X140800834Y-43710000D01*
X141299166Y-43710000D01*
X141301568Y-43734386D01*
X141308681Y-43757835D01*
X141320232Y-43779446D01*
X141343091Y-43813657D01*
X141346069Y-43819228D01*
X141361615Y-43838169D01*
X141380557Y-43853714D01*
X141402168Y-43865264D01*
X141425618Y-43872377D01*
X141450004Y-43874778D01*
X141474390Y-43872375D01*
X141497839Y-43865261D01*
X141519450Y-43853709D01*
X141538391Y-43838163D01*
X141553936Y-43819221D01*
X141556913Y-43813650D01*
X141579768Y-43779446D01*
X141591319Y-43757835D01*
X141598432Y-43734386D01*
X141600834Y-43710000D01*
X141598432Y-43685614D01*
X141591319Y-43662164D01*
X141579768Y-43640554D01*
X141564222Y-43621612D01*
X141545280Y-43606066D01*
X141523669Y-43594515D01*
X141500220Y-43587402D01*
X141475834Y-43585000D01*
X141424166Y-43585000D01*
X141399780Y-43587402D01*
X141376331Y-43594515D01*
X141354720Y-43606066D01*
X141335778Y-43621612D01*
X141320232Y-43640554D01*
X141308681Y-43662165D01*
X141301568Y-43685614D01*
X141299166Y-43710000D01*
X140800834Y-43710000D01*
X140798432Y-43685614D01*
X140791319Y-43662164D01*
X140779768Y-43640554D01*
X140764222Y-43621612D01*
X140745280Y-43606066D01*
X140723669Y-43594515D01*
X140700220Y-43587402D01*
X140675834Y-43585000D01*
X140617990Y-43585000D01*
X140555201Y-43572511D01*
X140509457Y-43553563D01*
X140496059Y-43548014D01*
X140496058Y-43548013D01*
X140496055Y-43548012D01*
X140442824Y-43512444D01*
X140440380Y-43510000D01*
X140899166Y-43510000D01*
X140901568Y-43534386D01*
X140908681Y-43557836D01*
X140920232Y-43579446D01*
X140935778Y-43598388D01*
X140954720Y-43613934D01*
X140976331Y-43625485D01*
X140999780Y-43632598D01*
X141024166Y-43635000D01*
X141075834Y-43635000D01*
X141100220Y-43632598D01*
X141123669Y-43625485D01*
X141145280Y-43613934D01*
X141164222Y-43598388D01*
X141179768Y-43579446D01*
X141191319Y-43557835D01*
X141198432Y-43534386D01*
X141200834Y-43510000D01*
X141198432Y-43485614D01*
X141191319Y-43462165D01*
X141179768Y-43440554D01*
X141156909Y-43406343D01*
X141153931Y-43400772D01*
X141138385Y-43381831D01*
X141119443Y-43366286D01*
X141097832Y-43354736D01*
X141074382Y-43347623D01*
X141049996Y-43345222D01*
X141025610Y-43347625D01*
X141002161Y-43354739D01*
X140980550Y-43366291D01*
X140961609Y-43381837D01*
X140946064Y-43400779D01*
X140943087Y-43406350D01*
X140920232Y-43440554D01*
X140908681Y-43462165D01*
X140901568Y-43485614D01*
X140899166Y-43510000D01*
X140440380Y-43510000D01*
X140397556Y-43467176D01*
X140361988Y-43413945D01*
X140361987Y-43413942D01*
X140356906Y-43406338D01*
X140353931Y-43400772D01*
X140338385Y-43381831D01*
X140319443Y-43366286D01*
X140297832Y-43354736D01*
X140274382Y-43347623D01*
X140249996Y-43345222D01*
X140225610Y-43347625D01*
X140202161Y-43354739D01*
X140180550Y-43366291D01*
X140161609Y-43381837D01*
X140146064Y-43400779D01*
X140143089Y-43406345D01*
X140138014Y-43413940D01*
X140138012Y-43413945D01*
X140102444Y-43467176D01*
X140057176Y-43512444D01*
X140003945Y-43548012D01*
X140003942Y-43548013D01*
X140003941Y-43548014D01*
X139990543Y-43553563D01*
X139944799Y-43572511D01*
X139882010Y-43585000D01*
X139824166Y-43585000D01*
X139799780Y-43587402D01*
X139776331Y-43594515D01*
X139754720Y-43606066D01*
X139735778Y-43621612D01*
X139720232Y-43640554D01*
X139708681Y-43662165D01*
X139701568Y-43685614D01*
X139699166Y-43710000D01*
X139701568Y-43734386D01*
X139708681Y-43757835D01*
X139720232Y-43779446D01*
X139738013Y-43806057D01*
X139741142Y-43813612D01*
X139762511Y-43865201D01*
X139775000Y-43927990D01*
X139775000Y-43992010D01*
X139762511Y-44054799D01*
X139738012Y-44113945D01*
X139702444Y-44167176D01*
X139657176Y-44212444D01*
X139603945Y-44248012D01*
X139603942Y-44248013D01*
X139603941Y-44248014D01*
X139590543Y-44253563D01*
X139544799Y-44272511D01*
X139482010Y-44285000D01*
X139417990Y-44285000D01*
X139355201Y-44272511D01*
X139315770Y-44256178D01*
X139296056Y-44248013D01*
X139246516Y-44214911D01*
X139224905Y-44203360D01*
X139201456Y-44196247D01*
X139177069Y-44193845D01*
X139161651Y-44195364D01*
X139166411Y-44179671D01*
X139168813Y-44155285D01*
X139166411Y-44130899D01*
X139159301Y-44107459D01*
X139137489Y-44054799D01*
X139125000Y-43992010D01*
X139125000Y-43927990D01*
X139137489Y-43865201D01*
X139158842Y-43813650D01*
X139161986Y-43806059D01*
X139161988Y-43806055D01*
X139197556Y-43752824D01*
X139242824Y-43707556D01*
X139296055Y-43671988D01*
X139296058Y-43671987D01*
X139296059Y-43671986D01*
X139309457Y-43666437D01*
X139355201Y-43647489D01*
X139417990Y-43635000D01*
X139475834Y-43635000D01*
X139500220Y-43632598D01*
X139523669Y-43625485D01*
X139545280Y-43613934D01*
X139564222Y-43598388D01*
X139579768Y-43579446D01*
X139591319Y-43557835D01*
X139598432Y-43534386D01*
X139600834Y-43510000D01*
X139598432Y-43485614D01*
X139591319Y-43462165D01*
X139579768Y-43440554D01*
X139561987Y-43413943D01*
X139558837Y-43406338D01*
X139537489Y-43354799D01*
X139525000Y-43292010D01*
X139525000Y-43227990D01*
X139537489Y-43165201D01*
X139561988Y-43106055D01*
X139597556Y-43052824D01*
X139642824Y-43007556D01*
X139696055Y-42971988D01*
X139696058Y-42971987D01*
X139696059Y-42971986D01*
X139709457Y-42966437D01*
X139755201Y-42947489D01*
X139817990Y-42935000D01*
X139882010Y-42935000D01*
X139944799Y-42947489D01*
X139944799Y-42947489D01*
G37*
G36*
X146584183Y-42686900D02*
X146711574Y-42739668D01*
X146826225Y-42816275D01*
X146923725Y-42913775D01*
X147000332Y-43028426D01*
X147053100Y-43155817D01*
X147080000Y-43291055D01*
X147080000Y-43428945D01*
X147053100Y-43564183D01*
X147008446Y-43671986D01*
X147000332Y-43691574D01*
X146923726Y-43806224D01*
X146826224Y-43903726D01*
X146711574Y-43980332D01*
X146584183Y-44033100D01*
X146448945Y-44060000D01*
X146311055Y-44060000D01*
X146175817Y-44033100D01*
X146048426Y-43980332D01*
X145933776Y-43903726D01*
X145836274Y-43806224D01*
X145759668Y-43691574D01*
X145751554Y-43671986D01*
X145706900Y-43564183D01*
X145680000Y-43428945D01*
X145680000Y-43291055D01*
X145706900Y-43155817D01*
X145759668Y-43028426D01*
X145836275Y-42913775D01*
X145933775Y-42816275D01*
X146048426Y-42739668D01*
X146175817Y-42686900D01*
X146311055Y-42660000D01*
X146448945Y-42660000D01*
X146584183Y-42686900D01*
X146584183Y-42686900D01*
G37*
G36*
X166830000Y-43690000D02*
X165430000Y-43690000D01*
X165430000Y-42090000D01*
X166830000Y-42090000D01*
X166830000Y-43690000D01*
X166830000Y-43690000D01*
G37*
G36*
X171330000Y-43690000D02*
X169930000Y-43690000D01*
X169930000Y-42090000D01*
X171330000Y-42090000D01*
X171330000Y-43690000D01*
X171330000Y-43690000D01*
G37*
G36*
X167890550Y-39300000D02*
X166290550Y-39300000D01*
X166290550Y-38450000D01*
X167890550Y-38450000D01*
X167890550Y-39300000D01*
X167890550Y-39300000D01*
G37*
G36*
X130590550Y-39300000D02*
X128990550Y-39300000D01*
X128990550Y-38450000D01*
X130590550Y-38450000D01*
X130590550Y-39300000D01*
X130590550Y-39300000D01*
G37*
G36*
X127090550Y-39300000D02*
X125490550Y-39300000D01*
X125490550Y-38450000D01*
X127090550Y-38450000D01*
X127090550Y-39300000D01*
X127090550Y-39300000D01*
G37*
G36*
X164390550Y-39300000D02*
X162790550Y-39300000D01*
X162790550Y-38450000D01*
X164390550Y-38450000D01*
X164390550Y-39300000D01*
X164390550Y-39300000D01*
G37*
G36*
X146944183Y-36736900D02*
X147071574Y-36789668D01*
X147186225Y-36866275D01*
X147283725Y-36963775D01*
X147360332Y-37078426D01*
X147413100Y-37205817D01*
X147440000Y-37341055D01*
X147440000Y-37478945D01*
X147413100Y-37614183D01*
X147360332Y-37741574D01*
X147283725Y-37856225D01*
X147186225Y-37953725D01*
X147071574Y-38030332D01*
X146944183Y-38083100D01*
X146808945Y-38110000D01*
X146671055Y-38110000D01*
X146535817Y-38083100D01*
X146408426Y-38030332D01*
X146293775Y-37953725D01*
X146196275Y-37856225D01*
X146119668Y-37741574D01*
X146066900Y-37614183D01*
X146040000Y-37478945D01*
X146040000Y-37341055D01*
X146066900Y-37205817D01*
X146119668Y-37078426D01*
X146196275Y-36963775D01*
X146293775Y-36866275D01*
X146408426Y-36789668D01*
X146535817Y-36736900D01*
X146671055Y-36710000D01*
X146808945Y-36710000D01*
X146944183Y-36736900D01*
X146944183Y-36736900D01*
G37*
G36*
X137964183Y-36736900D02*
X138091574Y-36789668D01*
X138206225Y-36866275D01*
X138303725Y-36963775D01*
X138380332Y-37078426D01*
X138433100Y-37205817D01*
X138460000Y-37341055D01*
X138460000Y-37478945D01*
X138433100Y-37614183D01*
X138380332Y-37741574D01*
X138303725Y-37856225D01*
X138206225Y-37953725D01*
X138091574Y-38030332D01*
X137964183Y-38083100D01*
X137828945Y-38110000D01*
X137691055Y-38110000D01*
X137555817Y-38083100D01*
X137428426Y-38030332D01*
X137313775Y-37953725D01*
X137216275Y-37856225D01*
X137139668Y-37741574D01*
X137086900Y-37614183D01*
X137060000Y-37478945D01*
X137060000Y-37341055D01*
X137086900Y-37205817D01*
X137139668Y-37078426D01*
X137216275Y-36963775D01*
X137313775Y-36866275D01*
X137428426Y-36789668D01*
X137555817Y-36736900D01*
X137691055Y-36710000D01*
X137828945Y-36710000D01*
X137964183Y-36736900D01*
X137964183Y-36736900D01*
G37*
G36*
X164390550Y-37550000D02*
X162790550Y-37550000D01*
X162790550Y-36700000D01*
X164390550Y-36700000D01*
X164390550Y-37550000D01*
X164390550Y-37550000D01*
G37*
G36*
X167890550Y-37550000D02*
X166290550Y-37550000D01*
X166290550Y-36700000D01*
X167890550Y-36700000D01*
X167890550Y-37550000D01*
X167890550Y-37550000D01*
G37*
G36*
X130590550Y-37550000D02*
X128990550Y-37550000D01*
X128990550Y-36700000D01*
X130590550Y-36700000D01*
X130590550Y-37550000D01*
X130590550Y-37550000D01*
G37*
G36*
X127090550Y-37550000D02*
X125490550Y-37550000D01*
X125490550Y-36700000D01*
X127090550Y-36700000D01*
X127090550Y-37550000D01*
X127090550Y-37550000D01*
G37*
M02*
