G04 #@! TF.GenerationSoftware,KiCad,Pcbnew,5.0.1*
G04 #@! TF.CreationDate,2019-03-02T19:37:36+01:00*
G04 #@! TF.ProjectId,keypad,6B65797061642E6B696361645F706362,rev?*
G04 #@! TF.SameCoordinates,Original*
G04 #@! TF.FileFunction,Copper,L1,Top,Signal*
G04 #@! TF.FilePolarity,Positive*
%FSLAX46Y46*%
G04 Gerber Fmt 4.6, Leading zero omitted, Abs format (unit mm)*
G04 Created by KiCad (PCBNEW 5.0.1) date Sat 02 Mar 2019 07:37:36 PM CET*
%MOMM*%
%LPD*%
G01*
G04 APERTURE LIST*
G04 #@! TA.AperFunction,Conductor*
%ADD10C,0.100000*%
G04 #@! TD*
G04 #@! TA.AperFunction,SMDPad,CuDef*
%ADD11C,1.150000*%
G04 #@! TD*
G04 #@! TA.AperFunction,ComponentPad*
%ADD12C,2.200000*%
G04 #@! TD*
G04 #@! TA.AperFunction,SMDPad,CuDef*
%ADD13R,1.300000X0.250000*%
G04 #@! TD*
G04 #@! TA.AperFunction,SMDPad,CuDef*
%ADD14R,0.250000X1.300000*%
G04 #@! TD*
G04 #@! TA.AperFunction,SMDPad,CuDef*
%ADD15R,1.560000X0.650000*%
G04 #@! TD*
G04 #@! TA.AperFunction,SMDPad,CuDef*
%ADD16R,2.400000X3.500000*%
G04 #@! TD*
G04 #@! TA.AperFunction,ComponentPad*
%ADD17O,1.000000X1.600000*%
G04 #@! TD*
G04 #@! TA.AperFunction,ComponentPad*
%ADD18O,1.000000X2.100000*%
G04 #@! TD*
G04 #@! TA.AperFunction,SMDPad,CuDef*
%ADD19R,0.600000X1.450000*%
G04 #@! TD*
G04 #@! TA.AperFunction,SMDPad,CuDef*
%ADD20R,0.300000X1.450000*%
G04 #@! TD*
G04 #@! TA.AperFunction,ComponentPad*
%ADD21R,1.350000X1.350000*%
G04 #@! TD*
G04 #@! TA.AperFunction,ComponentPad*
%ADD22O,1.350000X1.350000*%
G04 #@! TD*
G04 #@! TA.AperFunction,ViaPad*
%ADD23C,0.600000*%
G04 #@! TD*
G04 #@! TA.AperFunction,Conductor*
%ADD24C,0.127000*%
G04 #@! TD*
G04 #@! TA.AperFunction,Conductor*
%ADD25C,0.250000*%
G04 #@! TD*
G04 #@! TA.AperFunction,Conductor*
%ADD26C,0.254000*%
G04 #@! TD*
G04 APERTURE END LIST*
D10*
G04 #@! TO.N,+3V3*
G04 #@! TO.C,C1*
G36*
X159124505Y-50201204D02*
X159148773Y-50204804D01*
X159172572Y-50210765D01*
X159195671Y-50219030D01*
X159217850Y-50229520D01*
X159238893Y-50242132D01*
X159258599Y-50256747D01*
X159276777Y-50273223D01*
X159293253Y-50291401D01*
X159307868Y-50311107D01*
X159320480Y-50332150D01*
X159330970Y-50354329D01*
X159339235Y-50377428D01*
X159345196Y-50401227D01*
X159348796Y-50425495D01*
X159350000Y-50449999D01*
X159350000Y-51350001D01*
X159348796Y-51374505D01*
X159345196Y-51398773D01*
X159339235Y-51422572D01*
X159330970Y-51445671D01*
X159320480Y-51467850D01*
X159307868Y-51488893D01*
X159293253Y-51508599D01*
X159276777Y-51526777D01*
X159258599Y-51543253D01*
X159238893Y-51557868D01*
X159217850Y-51570480D01*
X159195671Y-51580970D01*
X159172572Y-51589235D01*
X159148773Y-51595196D01*
X159124505Y-51598796D01*
X159100001Y-51600000D01*
X158449999Y-51600000D01*
X158425495Y-51598796D01*
X158401227Y-51595196D01*
X158377428Y-51589235D01*
X158354329Y-51580970D01*
X158332150Y-51570480D01*
X158311107Y-51557868D01*
X158291401Y-51543253D01*
X158273223Y-51526777D01*
X158256747Y-51508599D01*
X158242132Y-51488893D01*
X158229520Y-51467850D01*
X158219030Y-51445671D01*
X158210765Y-51422572D01*
X158204804Y-51398773D01*
X158201204Y-51374505D01*
X158200000Y-51350001D01*
X158200000Y-50449999D01*
X158201204Y-50425495D01*
X158204804Y-50401227D01*
X158210765Y-50377428D01*
X158219030Y-50354329D01*
X158229520Y-50332150D01*
X158242132Y-50311107D01*
X158256747Y-50291401D01*
X158273223Y-50273223D01*
X158291401Y-50256747D01*
X158311107Y-50242132D01*
X158332150Y-50229520D01*
X158354329Y-50219030D01*
X158377428Y-50210765D01*
X158401227Y-50204804D01*
X158425495Y-50201204D01*
X158449999Y-50200000D01*
X159100001Y-50200000D01*
X159124505Y-50201204D01*
X159124505Y-50201204D01*
G37*
D11*
G04 #@! TD*
G04 #@! TO.P,C1,2*
G04 #@! TO.N,+3V3*
X158775000Y-50900000D03*
D10*
G04 #@! TO.N,GND*
G04 #@! TO.C,C1*
G36*
X161174505Y-50201204D02*
X161198773Y-50204804D01*
X161222572Y-50210765D01*
X161245671Y-50219030D01*
X161267850Y-50229520D01*
X161288893Y-50242132D01*
X161308599Y-50256747D01*
X161326777Y-50273223D01*
X161343253Y-50291401D01*
X161357868Y-50311107D01*
X161370480Y-50332150D01*
X161380970Y-50354329D01*
X161389235Y-50377428D01*
X161395196Y-50401227D01*
X161398796Y-50425495D01*
X161400000Y-50449999D01*
X161400000Y-51350001D01*
X161398796Y-51374505D01*
X161395196Y-51398773D01*
X161389235Y-51422572D01*
X161380970Y-51445671D01*
X161370480Y-51467850D01*
X161357868Y-51488893D01*
X161343253Y-51508599D01*
X161326777Y-51526777D01*
X161308599Y-51543253D01*
X161288893Y-51557868D01*
X161267850Y-51570480D01*
X161245671Y-51580970D01*
X161222572Y-51589235D01*
X161198773Y-51595196D01*
X161174505Y-51598796D01*
X161150001Y-51600000D01*
X160499999Y-51600000D01*
X160475495Y-51598796D01*
X160451227Y-51595196D01*
X160427428Y-51589235D01*
X160404329Y-51580970D01*
X160382150Y-51570480D01*
X160361107Y-51557868D01*
X160341401Y-51543253D01*
X160323223Y-51526777D01*
X160306747Y-51508599D01*
X160292132Y-51488893D01*
X160279520Y-51467850D01*
X160269030Y-51445671D01*
X160260765Y-51422572D01*
X160254804Y-51398773D01*
X160251204Y-51374505D01*
X160250000Y-51350001D01*
X160250000Y-50449999D01*
X160251204Y-50425495D01*
X160254804Y-50401227D01*
X160260765Y-50377428D01*
X160269030Y-50354329D01*
X160279520Y-50332150D01*
X160292132Y-50311107D01*
X160306747Y-50291401D01*
X160323223Y-50273223D01*
X160341401Y-50256747D01*
X160361107Y-50242132D01*
X160382150Y-50229520D01*
X160404329Y-50219030D01*
X160427428Y-50210765D01*
X160451227Y-50204804D01*
X160475495Y-50201204D01*
X160499999Y-50200000D01*
X161150001Y-50200000D01*
X161174505Y-50201204D01*
X161174505Y-50201204D01*
G37*
D11*
G04 #@! TD*
G04 #@! TO.P,C1,1*
G04 #@! TO.N,GND*
X160825000Y-50900000D03*
D10*
G04 #@! TO.N,GND*
G04 #@! TO.C,C2*
G36*
X159174505Y-37076204D02*
X159198773Y-37079804D01*
X159222572Y-37085765D01*
X159245671Y-37094030D01*
X159267850Y-37104520D01*
X159288893Y-37117132D01*
X159308599Y-37131747D01*
X159326777Y-37148223D01*
X159343253Y-37166401D01*
X159357868Y-37186107D01*
X159370480Y-37207150D01*
X159380970Y-37229329D01*
X159389235Y-37252428D01*
X159395196Y-37276227D01*
X159398796Y-37300495D01*
X159400000Y-37324999D01*
X159400000Y-37975001D01*
X159398796Y-37999505D01*
X159395196Y-38023773D01*
X159389235Y-38047572D01*
X159380970Y-38070671D01*
X159370480Y-38092850D01*
X159357868Y-38113893D01*
X159343253Y-38133599D01*
X159326777Y-38151777D01*
X159308599Y-38168253D01*
X159288893Y-38182868D01*
X159267850Y-38195480D01*
X159245671Y-38205970D01*
X159222572Y-38214235D01*
X159198773Y-38220196D01*
X159174505Y-38223796D01*
X159150001Y-38225000D01*
X158249999Y-38225000D01*
X158225495Y-38223796D01*
X158201227Y-38220196D01*
X158177428Y-38214235D01*
X158154329Y-38205970D01*
X158132150Y-38195480D01*
X158111107Y-38182868D01*
X158091401Y-38168253D01*
X158073223Y-38151777D01*
X158056747Y-38133599D01*
X158042132Y-38113893D01*
X158029520Y-38092850D01*
X158019030Y-38070671D01*
X158010765Y-38047572D01*
X158004804Y-38023773D01*
X158001204Y-37999505D01*
X158000000Y-37975001D01*
X158000000Y-37324999D01*
X158001204Y-37300495D01*
X158004804Y-37276227D01*
X158010765Y-37252428D01*
X158019030Y-37229329D01*
X158029520Y-37207150D01*
X158042132Y-37186107D01*
X158056747Y-37166401D01*
X158073223Y-37148223D01*
X158091401Y-37131747D01*
X158111107Y-37117132D01*
X158132150Y-37104520D01*
X158154329Y-37094030D01*
X158177428Y-37085765D01*
X158201227Y-37079804D01*
X158225495Y-37076204D01*
X158249999Y-37075000D01*
X159150001Y-37075000D01*
X159174505Y-37076204D01*
X159174505Y-37076204D01*
G37*
D11*
G04 #@! TD*
G04 #@! TO.P,C2,1*
G04 #@! TO.N,GND*
X158700000Y-37650000D03*
D10*
G04 #@! TO.N,+3V3*
G04 #@! TO.C,C2*
G36*
X159174505Y-39126204D02*
X159198773Y-39129804D01*
X159222572Y-39135765D01*
X159245671Y-39144030D01*
X159267850Y-39154520D01*
X159288893Y-39167132D01*
X159308599Y-39181747D01*
X159326777Y-39198223D01*
X159343253Y-39216401D01*
X159357868Y-39236107D01*
X159370480Y-39257150D01*
X159380970Y-39279329D01*
X159389235Y-39302428D01*
X159395196Y-39326227D01*
X159398796Y-39350495D01*
X159400000Y-39374999D01*
X159400000Y-40025001D01*
X159398796Y-40049505D01*
X159395196Y-40073773D01*
X159389235Y-40097572D01*
X159380970Y-40120671D01*
X159370480Y-40142850D01*
X159357868Y-40163893D01*
X159343253Y-40183599D01*
X159326777Y-40201777D01*
X159308599Y-40218253D01*
X159288893Y-40232868D01*
X159267850Y-40245480D01*
X159245671Y-40255970D01*
X159222572Y-40264235D01*
X159198773Y-40270196D01*
X159174505Y-40273796D01*
X159150001Y-40275000D01*
X158249999Y-40275000D01*
X158225495Y-40273796D01*
X158201227Y-40270196D01*
X158177428Y-40264235D01*
X158154329Y-40255970D01*
X158132150Y-40245480D01*
X158111107Y-40232868D01*
X158091401Y-40218253D01*
X158073223Y-40201777D01*
X158056747Y-40183599D01*
X158042132Y-40163893D01*
X158029520Y-40142850D01*
X158019030Y-40120671D01*
X158010765Y-40097572D01*
X158004804Y-40073773D01*
X158001204Y-40049505D01*
X158000000Y-40025001D01*
X158000000Y-39374999D01*
X158001204Y-39350495D01*
X158004804Y-39326227D01*
X158010765Y-39302428D01*
X158019030Y-39279329D01*
X158029520Y-39257150D01*
X158042132Y-39236107D01*
X158056747Y-39216401D01*
X158073223Y-39198223D01*
X158091401Y-39181747D01*
X158111107Y-39167132D01*
X158132150Y-39154520D01*
X158154329Y-39144030D01*
X158177428Y-39135765D01*
X158201227Y-39129804D01*
X158225495Y-39126204D01*
X158249999Y-39125000D01*
X159150001Y-39125000D01*
X159174505Y-39126204D01*
X159174505Y-39126204D01*
G37*
D11*
G04 #@! TD*
G04 #@! TO.P,C2,2*
G04 #@! TO.N,+3V3*
X158700000Y-39700000D03*
D10*
G04 #@! TO.N,+3V3*
G04 #@! TO.C,C3*
G36*
X149974505Y-37001204D02*
X149998773Y-37004804D01*
X150022572Y-37010765D01*
X150045671Y-37019030D01*
X150067850Y-37029520D01*
X150088893Y-37042132D01*
X150108599Y-37056747D01*
X150126777Y-37073223D01*
X150143253Y-37091401D01*
X150157868Y-37111107D01*
X150170480Y-37132150D01*
X150180970Y-37154329D01*
X150189235Y-37177428D01*
X150195196Y-37201227D01*
X150198796Y-37225495D01*
X150200000Y-37249999D01*
X150200000Y-38150001D01*
X150198796Y-38174505D01*
X150195196Y-38198773D01*
X150189235Y-38222572D01*
X150180970Y-38245671D01*
X150170480Y-38267850D01*
X150157868Y-38288893D01*
X150143253Y-38308599D01*
X150126777Y-38326777D01*
X150108599Y-38343253D01*
X150088893Y-38357868D01*
X150067850Y-38370480D01*
X150045671Y-38380970D01*
X150022572Y-38389235D01*
X149998773Y-38395196D01*
X149974505Y-38398796D01*
X149950001Y-38400000D01*
X149299999Y-38400000D01*
X149275495Y-38398796D01*
X149251227Y-38395196D01*
X149227428Y-38389235D01*
X149204329Y-38380970D01*
X149182150Y-38370480D01*
X149161107Y-38357868D01*
X149141401Y-38343253D01*
X149123223Y-38326777D01*
X149106747Y-38308599D01*
X149092132Y-38288893D01*
X149079520Y-38267850D01*
X149069030Y-38245671D01*
X149060765Y-38222572D01*
X149054804Y-38198773D01*
X149051204Y-38174505D01*
X149050000Y-38150001D01*
X149050000Y-37249999D01*
X149051204Y-37225495D01*
X149054804Y-37201227D01*
X149060765Y-37177428D01*
X149069030Y-37154329D01*
X149079520Y-37132150D01*
X149092132Y-37111107D01*
X149106747Y-37091401D01*
X149123223Y-37073223D01*
X149141401Y-37056747D01*
X149161107Y-37042132D01*
X149182150Y-37029520D01*
X149204329Y-37019030D01*
X149227428Y-37010765D01*
X149251227Y-37004804D01*
X149275495Y-37001204D01*
X149299999Y-37000000D01*
X149950001Y-37000000D01*
X149974505Y-37001204D01*
X149974505Y-37001204D01*
G37*
D11*
G04 #@! TD*
G04 #@! TO.P,C3,2*
G04 #@! TO.N,+3V3*
X149625000Y-37700000D03*
D10*
G04 #@! TO.N,GND*
G04 #@! TO.C,C3*
G36*
X152024505Y-37001204D02*
X152048773Y-37004804D01*
X152072572Y-37010765D01*
X152095671Y-37019030D01*
X152117850Y-37029520D01*
X152138893Y-37042132D01*
X152158599Y-37056747D01*
X152176777Y-37073223D01*
X152193253Y-37091401D01*
X152207868Y-37111107D01*
X152220480Y-37132150D01*
X152230970Y-37154329D01*
X152239235Y-37177428D01*
X152245196Y-37201227D01*
X152248796Y-37225495D01*
X152250000Y-37249999D01*
X152250000Y-38150001D01*
X152248796Y-38174505D01*
X152245196Y-38198773D01*
X152239235Y-38222572D01*
X152230970Y-38245671D01*
X152220480Y-38267850D01*
X152207868Y-38288893D01*
X152193253Y-38308599D01*
X152176777Y-38326777D01*
X152158599Y-38343253D01*
X152138893Y-38357868D01*
X152117850Y-38370480D01*
X152095671Y-38380970D01*
X152072572Y-38389235D01*
X152048773Y-38395196D01*
X152024505Y-38398796D01*
X152000001Y-38400000D01*
X151349999Y-38400000D01*
X151325495Y-38398796D01*
X151301227Y-38395196D01*
X151277428Y-38389235D01*
X151254329Y-38380970D01*
X151232150Y-38370480D01*
X151211107Y-38357868D01*
X151191401Y-38343253D01*
X151173223Y-38326777D01*
X151156747Y-38308599D01*
X151142132Y-38288893D01*
X151129520Y-38267850D01*
X151119030Y-38245671D01*
X151110765Y-38222572D01*
X151104804Y-38198773D01*
X151101204Y-38174505D01*
X151100000Y-38150001D01*
X151100000Y-37249999D01*
X151101204Y-37225495D01*
X151104804Y-37201227D01*
X151110765Y-37177428D01*
X151119030Y-37154329D01*
X151129520Y-37132150D01*
X151142132Y-37111107D01*
X151156747Y-37091401D01*
X151173223Y-37073223D01*
X151191401Y-37056747D01*
X151211107Y-37042132D01*
X151232150Y-37029520D01*
X151254329Y-37019030D01*
X151277428Y-37010765D01*
X151301227Y-37004804D01*
X151325495Y-37001204D01*
X151349999Y-37000000D01*
X152000001Y-37000000D01*
X152024505Y-37001204D01*
X152024505Y-37001204D01*
G37*
D11*
G04 #@! TD*
G04 #@! TO.P,C3,1*
G04 #@! TO.N,GND*
X151675000Y-37700000D03*
D10*
G04 #@! TO.N,GND*
G04 #@! TO.C,C4*
G36*
X145724505Y-45576204D02*
X145748773Y-45579804D01*
X145772572Y-45585765D01*
X145795671Y-45594030D01*
X145817850Y-45604520D01*
X145838893Y-45617132D01*
X145858599Y-45631747D01*
X145876777Y-45648223D01*
X145893253Y-45666401D01*
X145907868Y-45686107D01*
X145920480Y-45707150D01*
X145930970Y-45729329D01*
X145939235Y-45752428D01*
X145945196Y-45776227D01*
X145948796Y-45800495D01*
X145950000Y-45824999D01*
X145950000Y-46475001D01*
X145948796Y-46499505D01*
X145945196Y-46523773D01*
X145939235Y-46547572D01*
X145930970Y-46570671D01*
X145920480Y-46592850D01*
X145907868Y-46613893D01*
X145893253Y-46633599D01*
X145876777Y-46651777D01*
X145858599Y-46668253D01*
X145838893Y-46682868D01*
X145817850Y-46695480D01*
X145795671Y-46705970D01*
X145772572Y-46714235D01*
X145748773Y-46720196D01*
X145724505Y-46723796D01*
X145700001Y-46725000D01*
X144799999Y-46725000D01*
X144775495Y-46723796D01*
X144751227Y-46720196D01*
X144727428Y-46714235D01*
X144704329Y-46705970D01*
X144682150Y-46695480D01*
X144661107Y-46682868D01*
X144641401Y-46668253D01*
X144623223Y-46651777D01*
X144606747Y-46633599D01*
X144592132Y-46613893D01*
X144579520Y-46592850D01*
X144569030Y-46570671D01*
X144560765Y-46547572D01*
X144554804Y-46523773D01*
X144551204Y-46499505D01*
X144550000Y-46475001D01*
X144550000Y-45824999D01*
X144551204Y-45800495D01*
X144554804Y-45776227D01*
X144560765Y-45752428D01*
X144569030Y-45729329D01*
X144579520Y-45707150D01*
X144592132Y-45686107D01*
X144606747Y-45666401D01*
X144623223Y-45648223D01*
X144641401Y-45631747D01*
X144661107Y-45617132D01*
X144682150Y-45604520D01*
X144704329Y-45594030D01*
X144727428Y-45585765D01*
X144751227Y-45579804D01*
X144775495Y-45576204D01*
X144799999Y-45575000D01*
X145700001Y-45575000D01*
X145724505Y-45576204D01*
X145724505Y-45576204D01*
G37*
D11*
G04 #@! TD*
G04 #@! TO.P,C4,1*
G04 #@! TO.N,GND*
X145250000Y-46150000D03*
D10*
G04 #@! TO.N,+3V3*
G04 #@! TO.C,C4*
G36*
X145724505Y-47626204D02*
X145748773Y-47629804D01*
X145772572Y-47635765D01*
X145795671Y-47644030D01*
X145817850Y-47654520D01*
X145838893Y-47667132D01*
X145858599Y-47681747D01*
X145876777Y-47698223D01*
X145893253Y-47716401D01*
X145907868Y-47736107D01*
X145920480Y-47757150D01*
X145930970Y-47779329D01*
X145939235Y-47802428D01*
X145945196Y-47826227D01*
X145948796Y-47850495D01*
X145950000Y-47874999D01*
X145950000Y-48525001D01*
X145948796Y-48549505D01*
X145945196Y-48573773D01*
X145939235Y-48597572D01*
X145930970Y-48620671D01*
X145920480Y-48642850D01*
X145907868Y-48663893D01*
X145893253Y-48683599D01*
X145876777Y-48701777D01*
X145858599Y-48718253D01*
X145838893Y-48732868D01*
X145817850Y-48745480D01*
X145795671Y-48755970D01*
X145772572Y-48764235D01*
X145748773Y-48770196D01*
X145724505Y-48773796D01*
X145700001Y-48775000D01*
X144799999Y-48775000D01*
X144775495Y-48773796D01*
X144751227Y-48770196D01*
X144727428Y-48764235D01*
X144704329Y-48755970D01*
X144682150Y-48745480D01*
X144661107Y-48732868D01*
X144641401Y-48718253D01*
X144623223Y-48701777D01*
X144606747Y-48683599D01*
X144592132Y-48663893D01*
X144579520Y-48642850D01*
X144569030Y-48620671D01*
X144560765Y-48597572D01*
X144554804Y-48573773D01*
X144551204Y-48549505D01*
X144550000Y-48525001D01*
X144550000Y-47874999D01*
X144551204Y-47850495D01*
X144554804Y-47826227D01*
X144560765Y-47802428D01*
X144569030Y-47779329D01*
X144579520Y-47757150D01*
X144592132Y-47736107D01*
X144606747Y-47716401D01*
X144623223Y-47698223D01*
X144641401Y-47681747D01*
X144661107Y-47667132D01*
X144682150Y-47654520D01*
X144704329Y-47644030D01*
X144727428Y-47635765D01*
X144751227Y-47629804D01*
X144775495Y-47626204D01*
X144799999Y-47625000D01*
X145700001Y-47625000D01*
X145724505Y-47626204D01*
X145724505Y-47626204D01*
G37*
D11*
G04 #@! TD*
G04 #@! TO.P,C4,2*
G04 #@! TO.N,+3V3*
X145250000Y-48200000D03*
D10*
G04 #@! TO.N,+3V3*
G04 #@! TO.C,C5*
G36*
X143524505Y-47651204D02*
X143548773Y-47654804D01*
X143572572Y-47660765D01*
X143595671Y-47669030D01*
X143617850Y-47679520D01*
X143638893Y-47692132D01*
X143658599Y-47706747D01*
X143676777Y-47723223D01*
X143693253Y-47741401D01*
X143707868Y-47761107D01*
X143720480Y-47782150D01*
X143730970Y-47804329D01*
X143739235Y-47827428D01*
X143745196Y-47851227D01*
X143748796Y-47875495D01*
X143750000Y-47899999D01*
X143750000Y-48550001D01*
X143748796Y-48574505D01*
X143745196Y-48598773D01*
X143739235Y-48622572D01*
X143730970Y-48645671D01*
X143720480Y-48667850D01*
X143707868Y-48688893D01*
X143693253Y-48708599D01*
X143676777Y-48726777D01*
X143658599Y-48743253D01*
X143638893Y-48757868D01*
X143617850Y-48770480D01*
X143595671Y-48780970D01*
X143572572Y-48789235D01*
X143548773Y-48795196D01*
X143524505Y-48798796D01*
X143500001Y-48800000D01*
X142599999Y-48800000D01*
X142575495Y-48798796D01*
X142551227Y-48795196D01*
X142527428Y-48789235D01*
X142504329Y-48780970D01*
X142482150Y-48770480D01*
X142461107Y-48757868D01*
X142441401Y-48743253D01*
X142423223Y-48726777D01*
X142406747Y-48708599D01*
X142392132Y-48688893D01*
X142379520Y-48667850D01*
X142369030Y-48645671D01*
X142360765Y-48622572D01*
X142354804Y-48598773D01*
X142351204Y-48574505D01*
X142350000Y-48550001D01*
X142350000Y-47899999D01*
X142351204Y-47875495D01*
X142354804Y-47851227D01*
X142360765Y-47827428D01*
X142369030Y-47804329D01*
X142379520Y-47782150D01*
X142392132Y-47761107D01*
X142406747Y-47741401D01*
X142423223Y-47723223D01*
X142441401Y-47706747D01*
X142461107Y-47692132D01*
X142482150Y-47679520D01*
X142504329Y-47669030D01*
X142527428Y-47660765D01*
X142551227Y-47654804D01*
X142575495Y-47651204D01*
X142599999Y-47650000D01*
X143500001Y-47650000D01*
X143524505Y-47651204D01*
X143524505Y-47651204D01*
G37*
D11*
G04 #@! TD*
G04 #@! TO.P,C5,2*
G04 #@! TO.N,+3V3*
X143050000Y-48225000D03*
D10*
G04 #@! TO.N,GND*
G04 #@! TO.C,C5*
G36*
X143524505Y-45601204D02*
X143548773Y-45604804D01*
X143572572Y-45610765D01*
X143595671Y-45619030D01*
X143617850Y-45629520D01*
X143638893Y-45642132D01*
X143658599Y-45656747D01*
X143676777Y-45673223D01*
X143693253Y-45691401D01*
X143707868Y-45711107D01*
X143720480Y-45732150D01*
X143730970Y-45754329D01*
X143739235Y-45777428D01*
X143745196Y-45801227D01*
X143748796Y-45825495D01*
X143750000Y-45849999D01*
X143750000Y-46500001D01*
X143748796Y-46524505D01*
X143745196Y-46548773D01*
X143739235Y-46572572D01*
X143730970Y-46595671D01*
X143720480Y-46617850D01*
X143707868Y-46638893D01*
X143693253Y-46658599D01*
X143676777Y-46676777D01*
X143658599Y-46693253D01*
X143638893Y-46707868D01*
X143617850Y-46720480D01*
X143595671Y-46730970D01*
X143572572Y-46739235D01*
X143548773Y-46745196D01*
X143524505Y-46748796D01*
X143500001Y-46750000D01*
X142599999Y-46750000D01*
X142575495Y-46748796D01*
X142551227Y-46745196D01*
X142527428Y-46739235D01*
X142504329Y-46730970D01*
X142482150Y-46720480D01*
X142461107Y-46707868D01*
X142441401Y-46693253D01*
X142423223Y-46676777D01*
X142406747Y-46658599D01*
X142392132Y-46638893D01*
X142379520Y-46617850D01*
X142369030Y-46595671D01*
X142360765Y-46572572D01*
X142354804Y-46548773D01*
X142351204Y-46524505D01*
X142350000Y-46500001D01*
X142350000Y-45849999D01*
X142351204Y-45825495D01*
X142354804Y-45801227D01*
X142360765Y-45777428D01*
X142369030Y-45754329D01*
X142379520Y-45732150D01*
X142392132Y-45711107D01*
X142406747Y-45691401D01*
X142423223Y-45673223D01*
X142441401Y-45656747D01*
X142461107Y-45642132D01*
X142482150Y-45629520D01*
X142504329Y-45619030D01*
X142527428Y-45610765D01*
X142551227Y-45604804D01*
X142575495Y-45601204D01*
X142599999Y-45600000D01*
X143500001Y-45600000D01*
X143524505Y-45601204D01*
X143524505Y-45601204D01*
G37*
D11*
G04 #@! TD*
G04 #@! TO.P,C5,1*
G04 #@! TO.N,GND*
X143050000Y-46175000D03*
D10*
G04 #@! TO.N,GND*
G04 #@! TO.C,C6*
G36*
X134424505Y-42651204D02*
X134448773Y-42654804D01*
X134472572Y-42660765D01*
X134495671Y-42669030D01*
X134517850Y-42679520D01*
X134538893Y-42692132D01*
X134558599Y-42706747D01*
X134576777Y-42723223D01*
X134593253Y-42741401D01*
X134607868Y-42761107D01*
X134620480Y-42782150D01*
X134630970Y-42804329D01*
X134639235Y-42827428D01*
X134645196Y-42851227D01*
X134648796Y-42875495D01*
X134650000Y-42899999D01*
X134650000Y-43550001D01*
X134648796Y-43574505D01*
X134645196Y-43598773D01*
X134639235Y-43622572D01*
X134630970Y-43645671D01*
X134620480Y-43667850D01*
X134607868Y-43688893D01*
X134593253Y-43708599D01*
X134576777Y-43726777D01*
X134558599Y-43743253D01*
X134538893Y-43757868D01*
X134517850Y-43770480D01*
X134495671Y-43780970D01*
X134472572Y-43789235D01*
X134448773Y-43795196D01*
X134424505Y-43798796D01*
X134400001Y-43800000D01*
X133499999Y-43800000D01*
X133475495Y-43798796D01*
X133451227Y-43795196D01*
X133427428Y-43789235D01*
X133404329Y-43780970D01*
X133382150Y-43770480D01*
X133361107Y-43757868D01*
X133341401Y-43743253D01*
X133323223Y-43726777D01*
X133306747Y-43708599D01*
X133292132Y-43688893D01*
X133279520Y-43667850D01*
X133269030Y-43645671D01*
X133260765Y-43622572D01*
X133254804Y-43598773D01*
X133251204Y-43574505D01*
X133250000Y-43550001D01*
X133250000Y-42899999D01*
X133251204Y-42875495D01*
X133254804Y-42851227D01*
X133260765Y-42827428D01*
X133269030Y-42804329D01*
X133279520Y-42782150D01*
X133292132Y-42761107D01*
X133306747Y-42741401D01*
X133323223Y-42723223D01*
X133341401Y-42706747D01*
X133361107Y-42692132D01*
X133382150Y-42679520D01*
X133404329Y-42669030D01*
X133427428Y-42660765D01*
X133451227Y-42654804D01*
X133475495Y-42651204D01*
X133499999Y-42650000D01*
X134400001Y-42650000D01*
X134424505Y-42651204D01*
X134424505Y-42651204D01*
G37*
D11*
G04 #@! TD*
G04 #@! TO.P,C6,1*
G04 #@! TO.N,GND*
X133950000Y-43225000D03*
D10*
G04 #@! TO.N,OSC_IN*
G04 #@! TO.C,C6*
G36*
X134424505Y-40601204D02*
X134448773Y-40604804D01*
X134472572Y-40610765D01*
X134495671Y-40619030D01*
X134517850Y-40629520D01*
X134538893Y-40642132D01*
X134558599Y-40656747D01*
X134576777Y-40673223D01*
X134593253Y-40691401D01*
X134607868Y-40711107D01*
X134620480Y-40732150D01*
X134630970Y-40754329D01*
X134639235Y-40777428D01*
X134645196Y-40801227D01*
X134648796Y-40825495D01*
X134650000Y-40849999D01*
X134650000Y-41500001D01*
X134648796Y-41524505D01*
X134645196Y-41548773D01*
X134639235Y-41572572D01*
X134630970Y-41595671D01*
X134620480Y-41617850D01*
X134607868Y-41638893D01*
X134593253Y-41658599D01*
X134576777Y-41676777D01*
X134558599Y-41693253D01*
X134538893Y-41707868D01*
X134517850Y-41720480D01*
X134495671Y-41730970D01*
X134472572Y-41739235D01*
X134448773Y-41745196D01*
X134424505Y-41748796D01*
X134400001Y-41750000D01*
X133499999Y-41750000D01*
X133475495Y-41748796D01*
X133451227Y-41745196D01*
X133427428Y-41739235D01*
X133404329Y-41730970D01*
X133382150Y-41720480D01*
X133361107Y-41707868D01*
X133341401Y-41693253D01*
X133323223Y-41676777D01*
X133306747Y-41658599D01*
X133292132Y-41638893D01*
X133279520Y-41617850D01*
X133269030Y-41595671D01*
X133260765Y-41572572D01*
X133254804Y-41548773D01*
X133251204Y-41524505D01*
X133250000Y-41500001D01*
X133250000Y-40849999D01*
X133251204Y-40825495D01*
X133254804Y-40801227D01*
X133260765Y-40777428D01*
X133269030Y-40754329D01*
X133279520Y-40732150D01*
X133292132Y-40711107D01*
X133306747Y-40691401D01*
X133323223Y-40673223D01*
X133341401Y-40656747D01*
X133361107Y-40642132D01*
X133382150Y-40629520D01*
X133404329Y-40619030D01*
X133427428Y-40610765D01*
X133451227Y-40604804D01*
X133475495Y-40601204D01*
X133499999Y-40600000D01*
X134400001Y-40600000D01*
X134424505Y-40601204D01*
X134424505Y-40601204D01*
G37*
D11*
G04 #@! TD*
G04 #@! TO.P,C6,2*
G04 #@! TO.N,OSC_IN*
X133950000Y-41175000D03*
D10*
G04 #@! TO.N,GND*
G04 #@! TO.C,C7*
G36*
X134424505Y-45926204D02*
X134448773Y-45929804D01*
X134472572Y-45935765D01*
X134495671Y-45944030D01*
X134517850Y-45954520D01*
X134538893Y-45967132D01*
X134558599Y-45981747D01*
X134576777Y-45998223D01*
X134593253Y-46016401D01*
X134607868Y-46036107D01*
X134620480Y-46057150D01*
X134630970Y-46079329D01*
X134639235Y-46102428D01*
X134645196Y-46126227D01*
X134648796Y-46150495D01*
X134650000Y-46174999D01*
X134650000Y-46825001D01*
X134648796Y-46849505D01*
X134645196Y-46873773D01*
X134639235Y-46897572D01*
X134630970Y-46920671D01*
X134620480Y-46942850D01*
X134607868Y-46963893D01*
X134593253Y-46983599D01*
X134576777Y-47001777D01*
X134558599Y-47018253D01*
X134538893Y-47032868D01*
X134517850Y-47045480D01*
X134495671Y-47055970D01*
X134472572Y-47064235D01*
X134448773Y-47070196D01*
X134424505Y-47073796D01*
X134400001Y-47075000D01*
X133499999Y-47075000D01*
X133475495Y-47073796D01*
X133451227Y-47070196D01*
X133427428Y-47064235D01*
X133404329Y-47055970D01*
X133382150Y-47045480D01*
X133361107Y-47032868D01*
X133341401Y-47018253D01*
X133323223Y-47001777D01*
X133306747Y-46983599D01*
X133292132Y-46963893D01*
X133279520Y-46942850D01*
X133269030Y-46920671D01*
X133260765Y-46897572D01*
X133254804Y-46873773D01*
X133251204Y-46849505D01*
X133250000Y-46825001D01*
X133250000Y-46174999D01*
X133251204Y-46150495D01*
X133254804Y-46126227D01*
X133260765Y-46102428D01*
X133269030Y-46079329D01*
X133279520Y-46057150D01*
X133292132Y-46036107D01*
X133306747Y-46016401D01*
X133323223Y-45998223D01*
X133341401Y-45981747D01*
X133361107Y-45967132D01*
X133382150Y-45954520D01*
X133404329Y-45944030D01*
X133427428Y-45935765D01*
X133451227Y-45929804D01*
X133475495Y-45926204D01*
X133499999Y-45925000D01*
X134400001Y-45925000D01*
X134424505Y-45926204D01*
X134424505Y-45926204D01*
G37*
D11*
G04 #@! TD*
G04 #@! TO.P,C7,1*
G04 #@! TO.N,GND*
X133950000Y-46500000D03*
D10*
G04 #@! TO.N,OSC_OUT*
G04 #@! TO.C,C7*
G36*
X134424505Y-47976204D02*
X134448773Y-47979804D01*
X134472572Y-47985765D01*
X134495671Y-47994030D01*
X134517850Y-48004520D01*
X134538893Y-48017132D01*
X134558599Y-48031747D01*
X134576777Y-48048223D01*
X134593253Y-48066401D01*
X134607868Y-48086107D01*
X134620480Y-48107150D01*
X134630970Y-48129329D01*
X134639235Y-48152428D01*
X134645196Y-48176227D01*
X134648796Y-48200495D01*
X134650000Y-48224999D01*
X134650000Y-48875001D01*
X134648796Y-48899505D01*
X134645196Y-48923773D01*
X134639235Y-48947572D01*
X134630970Y-48970671D01*
X134620480Y-48992850D01*
X134607868Y-49013893D01*
X134593253Y-49033599D01*
X134576777Y-49051777D01*
X134558599Y-49068253D01*
X134538893Y-49082868D01*
X134517850Y-49095480D01*
X134495671Y-49105970D01*
X134472572Y-49114235D01*
X134448773Y-49120196D01*
X134424505Y-49123796D01*
X134400001Y-49125000D01*
X133499999Y-49125000D01*
X133475495Y-49123796D01*
X133451227Y-49120196D01*
X133427428Y-49114235D01*
X133404329Y-49105970D01*
X133382150Y-49095480D01*
X133361107Y-49082868D01*
X133341401Y-49068253D01*
X133323223Y-49051777D01*
X133306747Y-49033599D01*
X133292132Y-49013893D01*
X133279520Y-48992850D01*
X133269030Y-48970671D01*
X133260765Y-48947572D01*
X133254804Y-48923773D01*
X133251204Y-48899505D01*
X133250000Y-48875001D01*
X133250000Y-48224999D01*
X133251204Y-48200495D01*
X133254804Y-48176227D01*
X133260765Y-48152428D01*
X133269030Y-48129329D01*
X133279520Y-48107150D01*
X133292132Y-48086107D01*
X133306747Y-48066401D01*
X133323223Y-48048223D01*
X133341401Y-48031747D01*
X133361107Y-48017132D01*
X133382150Y-48004520D01*
X133404329Y-47994030D01*
X133427428Y-47985765D01*
X133451227Y-47979804D01*
X133475495Y-47976204D01*
X133499999Y-47975000D01*
X134400001Y-47975000D01*
X134424505Y-47976204D01*
X134424505Y-47976204D01*
G37*
D11*
G04 #@! TD*
G04 #@! TO.P,C7,2*
G04 #@! TO.N,OSC_OUT*
X133950000Y-48550000D03*
D10*
G04 #@! TO.N,+3V3*
G04 #@! TO.C,R1*
G36*
X161499505Y-40601204D02*
X161523773Y-40604804D01*
X161547572Y-40610765D01*
X161570671Y-40619030D01*
X161592850Y-40629520D01*
X161613893Y-40642132D01*
X161633599Y-40656747D01*
X161651777Y-40673223D01*
X161668253Y-40691401D01*
X161682868Y-40711107D01*
X161695480Y-40732150D01*
X161705970Y-40754329D01*
X161714235Y-40777428D01*
X161720196Y-40801227D01*
X161723796Y-40825495D01*
X161725000Y-40849999D01*
X161725000Y-41750001D01*
X161723796Y-41774505D01*
X161720196Y-41798773D01*
X161714235Y-41822572D01*
X161705970Y-41845671D01*
X161695480Y-41867850D01*
X161682868Y-41888893D01*
X161668253Y-41908599D01*
X161651777Y-41926777D01*
X161633599Y-41943253D01*
X161613893Y-41957868D01*
X161592850Y-41970480D01*
X161570671Y-41980970D01*
X161547572Y-41989235D01*
X161523773Y-41995196D01*
X161499505Y-41998796D01*
X161475001Y-42000000D01*
X160824999Y-42000000D01*
X160800495Y-41998796D01*
X160776227Y-41995196D01*
X160752428Y-41989235D01*
X160729329Y-41980970D01*
X160707150Y-41970480D01*
X160686107Y-41957868D01*
X160666401Y-41943253D01*
X160648223Y-41926777D01*
X160631747Y-41908599D01*
X160617132Y-41888893D01*
X160604520Y-41867850D01*
X160594030Y-41845671D01*
X160585765Y-41822572D01*
X160579804Y-41798773D01*
X160576204Y-41774505D01*
X160575000Y-41750001D01*
X160575000Y-40849999D01*
X160576204Y-40825495D01*
X160579804Y-40801227D01*
X160585765Y-40777428D01*
X160594030Y-40754329D01*
X160604520Y-40732150D01*
X160617132Y-40711107D01*
X160631747Y-40691401D01*
X160648223Y-40673223D01*
X160666401Y-40656747D01*
X160686107Y-40642132D01*
X160707150Y-40629520D01*
X160729329Y-40619030D01*
X160752428Y-40610765D01*
X160776227Y-40604804D01*
X160800495Y-40601204D01*
X160824999Y-40600000D01*
X161475001Y-40600000D01*
X161499505Y-40601204D01*
X161499505Y-40601204D01*
G37*
D11*
G04 #@! TD*
G04 #@! TO.P,R1,1*
G04 #@! TO.N,+3V3*
X161150000Y-41300000D03*
D10*
G04 #@! TO.N,USB_P*
G04 #@! TO.C,R1*
G36*
X163549505Y-40601204D02*
X163573773Y-40604804D01*
X163597572Y-40610765D01*
X163620671Y-40619030D01*
X163642850Y-40629520D01*
X163663893Y-40642132D01*
X163683599Y-40656747D01*
X163701777Y-40673223D01*
X163718253Y-40691401D01*
X163732868Y-40711107D01*
X163745480Y-40732150D01*
X163755970Y-40754329D01*
X163764235Y-40777428D01*
X163770196Y-40801227D01*
X163773796Y-40825495D01*
X163775000Y-40849999D01*
X163775000Y-41750001D01*
X163773796Y-41774505D01*
X163770196Y-41798773D01*
X163764235Y-41822572D01*
X163755970Y-41845671D01*
X163745480Y-41867850D01*
X163732868Y-41888893D01*
X163718253Y-41908599D01*
X163701777Y-41926777D01*
X163683599Y-41943253D01*
X163663893Y-41957868D01*
X163642850Y-41970480D01*
X163620671Y-41980970D01*
X163597572Y-41989235D01*
X163573773Y-41995196D01*
X163549505Y-41998796D01*
X163525001Y-42000000D01*
X162874999Y-42000000D01*
X162850495Y-41998796D01*
X162826227Y-41995196D01*
X162802428Y-41989235D01*
X162779329Y-41980970D01*
X162757150Y-41970480D01*
X162736107Y-41957868D01*
X162716401Y-41943253D01*
X162698223Y-41926777D01*
X162681747Y-41908599D01*
X162667132Y-41888893D01*
X162654520Y-41867850D01*
X162644030Y-41845671D01*
X162635765Y-41822572D01*
X162629804Y-41798773D01*
X162626204Y-41774505D01*
X162625000Y-41750001D01*
X162625000Y-40849999D01*
X162626204Y-40825495D01*
X162629804Y-40801227D01*
X162635765Y-40777428D01*
X162644030Y-40754329D01*
X162654520Y-40732150D01*
X162667132Y-40711107D01*
X162681747Y-40691401D01*
X162698223Y-40673223D01*
X162716401Y-40656747D01*
X162736107Y-40642132D01*
X162757150Y-40629520D01*
X162779329Y-40619030D01*
X162802428Y-40610765D01*
X162826227Y-40604804D01*
X162850495Y-40601204D01*
X162874999Y-40600000D01*
X163525001Y-40600000D01*
X163549505Y-40601204D01*
X163549505Y-40601204D01*
G37*
D11*
G04 #@! TD*
G04 #@! TO.P,R1,2*
G04 #@! TO.N,USB_P*
X163200000Y-41300000D03*
D12*
G04 #@! TO.P,K1_1,1*
G04 #@! TO.N,Net-(D2-Pad2)*
X120681750Y-60102750D03*
G04 #@! TO.P,K1_1,2*
G04 #@! TO.N,Row1*
X114331750Y-62642750D03*
G04 #@! TD*
G04 #@! TO.P,K1_2,1*
G04 #@! TO.N,Net-(D5-Pad2)*
X139731750Y-60102750D03*
G04 #@! TO.P,K1_2,2*
G04 #@! TO.N,Row1*
X133381750Y-62642750D03*
G04 #@! TD*
G04 #@! TO.P,K1_3,2*
G04 #@! TO.N,Row1*
X152431750Y-62642750D03*
G04 #@! TO.P,K1_3,1*
G04 #@! TO.N,Net-(D8-Pad2)*
X158781750Y-60102750D03*
G04 #@! TD*
G04 #@! TO.P,K1_4,2*
G04 #@! TO.N,Row1*
X171481750Y-62642750D03*
G04 #@! TO.P,K1_4,1*
G04 #@! TO.N,Net-(D11-Pad2)*
X177831750Y-60102750D03*
G04 #@! TD*
G04 #@! TO.P,K2_1,2*
G04 #@! TO.N,Row2*
X114331750Y-81692750D03*
G04 #@! TO.P,K2_1,1*
G04 #@! TO.N,Net-(D2-Pad1)*
X120681750Y-79152750D03*
G04 #@! TD*
G04 #@! TO.P,K2_2,2*
G04 #@! TO.N,Row2*
X133381750Y-81692750D03*
G04 #@! TO.P,K2_2,1*
G04 #@! TO.N,Net-(D5-Pad1)*
X139731750Y-79152750D03*
G04 #@! TD*
G04 #@! TO.P,K2_3,1*
G04 #@! TO.N,Net-(D8-Pad1)*
X158781750Y-79152750D03*
G04 #@! TO.P,K2_3,2*
G04 #@! TO.N,Row2*
X152431750Y-81692750D03*
G04 #@! TD*
G04 #@! TO.P,K2_4,1*
G04 #@! TO.N,Net-(D11-Pad1)*
X177831750Y-79152750D03*
G04 #@! TO.P,K2_4,2*
G04 #@! TO.N,Row2*
X171481750Y-81692750D03*
G04 #@! TD*
G04 #@! TO.P,K3_1,2*
G04 #@! TO.N,Row3*
X114331750Y-100742750D03*
G04 #@! TO.P,K3_1,1*
G04 #@! TO.N,Net-(D3-Pad2)*
X120681750Y-98202750D03*
G04 #@! TD*
G04 #@! TO.P,K3_2,2*
G04 #@! TO.N,Row3*
X133381750Y-100742750D03*
G04 #@! TO.P,K3_2,1*
G04 #@! TO.N,Net-(D6-Pad2)*
X139731750Y-98202750D03*
G04 #@! TD*
G04 #@! TO.P,K3_3,2*
G04 #@! TO.N,Row3*
X152431750Y-100742750D03*
G04 #@! TO.P,K3_3,1*
G04 #@! TO.N,Net-(D9-Pad2)*
X158781750Y-98202750D03*
G04 #@! TD*
G04 #@! TO.P,K3_4,2*
G04 #@! TO.N,Row3*
X171481750Y-100742750D03*
G04 #@! TO.P,K3_4,1*
G04 #@! TO.N,Net-(D12-Pad2)*
X177831750Y-98202750D03*
G04 #@! TD*
G04 #@! TO.P,K4_1,1*
G04 #@! TO.N,Net-(D3-Pad1)*
X120681750Y-117252750D03*
G04 #@! TO.P,K4_1,2*
G04 #@! TO.N,Row4*
X114331750Y-119792750D03*
G04 #@! TD*
G04 #@! TO.P,K4_2,1*
G04 #@! TO.N,Net-(D6-Pad1)*
X139731750Y-117252750D03*
G04 #@! TO.P,K4_2,2*
G04 #@! TO.N,Row4*
X133381750Y-119792750D03*
G04 #@! TD*
G04 #@! TO.P,K4_3,1*
G04 #@! TO.N,Net-(D9-Pad1)*
X158781750Y-117252750D03*
G04 #@! TO.P,K4_3,2*
G04 #@! TO.N,Row4*
X152431750Y-119792750D03*
G04 #@! TD*
G04 #@! TO.P,K5_1,1*
G04 #@! TO.N,Net-(D4-Pad2)*
X120681750Y-136302750D03*
G04 #@! TO.P,K5_1,2*
G04 #@! TO.N,Row5*
X114331750Y-138842750D03*
G04 #@! TD*
G04 #@! TO.P,K5_2,2*
G04 #@! TO.N,Row5*
X133381750Y-138842750D03*
G04 #@! TO.P,K5_2,1*
G04 #@! TO.N,Net-(D7-Pad2)*
X139731750Y-136302750D03*
G04 #@! TD*
G04 #@! TO.P,K5_3,1*
G04 #@! TO.N,Net-(D10-Pad2)*
X158781750Y-136302750D03*
G04 #@! TO.P,K5_3,2*
G04 #@! TO.N,Row5*
X152431750Y-138842750D03*
G04 #@! TD*
G04 #@! TO.P,K4_4,1*
G04 #@! TO.N,Net-(D12-Pad1)*
X180373750Y-134398750D03*
G04 #@! TO.P,K4_4,2*
G04 #@! TO.N,Row4*
X177833750Y-128048750D03*
G04 #@! TD*
D10*
G04 #@! TO.N,VBUS*
G04 #@! TO.C,C9*
G36*
X174981802Y-48035240D02*
X175006070Y-48038840D01*
X175029869Y-48044801D01*
X175052968Y-48053066D01*
X175075147Y-48063556D01*
X175096190Y-48076168D01*
X175115896Y-48090783D01*
X175134074Y-48107259D01*
X175150550Y-48125437D01*
X175165165Y-48145143D01*
X175177777Y-48166186D01*
X175188267Y-48188365D01*
X175196532Y-48211464D01*
X175202493Y-48235263D01*
X175206093Y-48259531D01*
X175207297Y-48284035D01*
X175207297Y-48934037D01*
X175206093Y-48958541D01*
X175202493Y-48982809D01*
X175196532Y-49006608D01*
X175188267Y-49029707D01*
X175177777Y-49051886D01*
X175165165Y-49072929D01*
X175150550Y-49092635D01*
X175134074Y-49110813D01*
X175115896Y-49127289D01*
X175096190Y-49141904D01*
X175075147Y-49154516D01*
X175052968Y-49165006D01*
X175029869Y-49173271D01*
X175006070Y-49179232D01*
X174981802Y-49182832D01*
X174957298Y-49184036D01*
X174057296Y-49184036D01*
X174032792Y-49182832D01*
X174008524Y-49179232D01*
X173984725Y-49173271D01*
X173961626Y-49165006D01*
X173939447Y-49154516D01*
X173918404Y-49141904D01*
X173898698Y-49127289D01*
X173880520Y-49110813D01*
X173864044Y-49092635D01*
X173849429Y-49072929D01*
X173836817Y-49051886D01*
X173826327Y-49029707D01*
X173818062Y-49006608D01*
X173812101Y-48982809D01*
X173808501Y-48958541D01*
X173807297Y-48934037D01*
X173807297Y-48284035D01*
X173808501Y-48259531D01*
X173812101Y-48235263D01*
X173818062Y-48211464D01*
X173826327Y-48188365D01*
X173836817Y-48166186D01*
X173849429Y-48145143D01*
X173864044Y-48125437D01*
X173880520Y-48107259D01*
X173898698Y-48090783D01*
X173918404Y-48076168D01*
X173939447Y-48063556D01*
X173961626Y-48053066D01*
X173984725Y-48044801D01*
X174008524Y-48038840D01*
X174032792Y-48035240D01*
X174057296Y-48034036D01*
X174957298Y-48034036D01*
X174981802Y-48035240D01*
X174981802Y-48035240D01*
G37*
D11*
G04 #@! TD*
G04 #@! TO.P,C9,1*
G04 #@! TO.N,VBUS*
X174507297Y-48609036D03*
D10*
G04 #@! TO.N,GND*
G04 #@! TO.C,C9*
G36*
X174981802Y-45985240D02*
X175006070Y-45988840D01*
X175029869Y-45994801D01*
X175052968Y-46003066D01*
X175075147Y-46013556D01*
X175096190Y-46026168D01*
X175115896Y-46040783D01*
X175134074Y-46057259D01*
X175150550Y-46075437D01*
X175165165Y-46095143D01*
X175177777Y-46116186D01*
X175188267Y-46138365D01*
X175196532Y-46161464D01*
X175202493Y-46185263D01*
X175206093Y-46209531D01*
X175207297Y-46234035D01*
X175207297Y-46884037D01*
X175206093Y-46908541D01*
X175202493Y-46932809D01*
X175196532Y-46956608D01*
X175188267Y-46979707D01*
X175177777Y-47001886D01*
X175165165Y-47022929D01*
X175150550Y-47042635D01*
X175134074Y-47060813D01*
X175115896Y-47077289D01*
X175096190Y-47091904D01*
X175075147Y-47104516D01*
X175052968Y-47115006D01*
X175029869Y-47123271D01*
X175006070Y-47129232D01*
X174981802Y-47132832D01*
X174957298Y-47134036D01*
X174057296Y-47134036D01*
X174032792Y-47132832D01*
X174008524Y-47129232D01*
X173984725Y-47123271D01*
X173961626Y-47115006D01*
X173939447Y-47104516D01*
X173918404Y-47091904D01*
X173898698Y-47077289D01*
X173880520Y-47060813D01*
X173864044Y-47042635D01*
X173849429Y-47022929D01*
X173836817Y-47001886D01*
X173826327Y-46979707D01*
X173818062Y-46956608D01*
X173812101Y-46932809D01*
X173808501Y-46908541D01*
X173807297Y-46884037D01*
X173807297Y-46234035D01*
X173808501Y-46209531D01*
X173812101Y-46185263D01*
X173818062Y-46161464D01*
X173826327Y-46138365D01*
X173836817Y-46116186D01*
X173849429Y-46095143D01*
X173864044Y-46075437D01*
X173880520Y-46057259D01*
X173898698Y-46040783D01*
X173918404Y-46026168D01*
X173939447Y-46013556D01*
X173961626Y-46003066D01*
X173984725Y-45994801D01*
X174008524Y-45988840D01*
X174032792Y-45985240D01*
X174057296Y-45984036D01*
X174957298Y-45984036D01*
X174981802Y-45985240D01*
X174981802Y-45985240D01*
G37*
D11*
G04 #@! TD*
G04 #@! TO.P,C9,2*
G04 #@! TO.N,GND*
X174507297Y-46559036D03*
D10*
G04 #@! TO.N,GND*
G04 #@! TO.C,C10*
G36*
X167056802Y-46010240D02*
X167081070Y-46013840D01*
X167104869Y-46019801D01*
X167127968Y-46028066D01*
X167150147Y-46038556D01*
X167171190Y-46051168D01*
X167190896Y-46065783D01*
X167209074Y-46082259D01*
X167225550Y-46100437D01*
X167240165Y-46120143D01*
X167252777Y-46141186D01*
X167263267Y-46163365D01*
X167271532Y-46186464D01*
X167277493Y-46210263D01*
X167281093Y-46234531D01*
X167282297Y-46259035D01*
X167282297Y-46909037D01*
X167281093Y-46933541D01*
X167277493Y-46957809D01*
X167271532Y-46981608D01*
X167263267Y-47004707D01*
X167252777Y-47026886D01*
X167240165Y-47047929D01*
X167225550Y-47067635D01*
X167209074Y-47085813D01*
X167190896Y-47102289D01*
X167171190Y-47116904D01*
X167150147Y-47129516D01*
X167127968Y-47140006D01*
X167104869Y-47148271D01*
X167081070Y-47154232D01*
X167056802Y-47157832D01*
X167032298Y-47159036D01*
X166132296Y-47159036D01*
X166107792Y-47157832D01*
X166083524Y-47154232D01*
X166059725Y-47148271D01*
X166036626Y-47140006D01*
X166014447Y-47129516D01*
X165993404Y-47116904D01*
X165973698Y-47102289D01*
X165955520Y-47085813D01*
X165939044Y-47067635D01*
X165924429Y-47047929D01*
X165911817Y-47026886D01*
X165901327Y-47004707D01*
X165893062Y-46981608D01*
X165887101Y-46957809D01*
X165883501Y-46933541D01*
X165882297Y-46909037D01*
X165882297Y-46259035D01*
X165883501Y-46234531D01*
X165887101Y-46210263D01*
X165893062Y-46186464D01*
X165901327Y-46163365D01*
X165911817Y-46141186D01*
X165924429Y-46120143D01*
X165939044Y-46100437D01*
X165955520Y-46082259D01*
X165973698Y-46065783D01*
X165993404Y-46051168D01*
X166014447Y-46038556D01*
X166036626Y-46028066D01*
X166059725Y-46019801D01*
X166083524Y-46013840D01*
X166107792Y-46010240D01*
X166132296Y-46009036D01*
X167032298Y-46009036D01*
X167056802Y-46010240D01*
X167056802Y-46010240D01*
G37*
D11*
G04 #@! TD*
G04 #@! TO.P,C10,2*
G04 #@! TO.N,GND*
X166582297Y-46584036D03*
D10*
G04 #@! TO.N,+3V3*
G04 #@! TO.C,C10*
G36*
X167056802Y-48060240D02*
X167081070Y-48063840D01*
X167104869Y-48069801D01*
X167127968Y-48078066D01*
X167150147Y-48088556D01*
X167171190Y-48101168D01*
X167190896Y-48115783D01*
X167209074Y-48132259D01*
X167225550Y-48150437D01*
X167240165Y-48170143D01*
X167252777Y-48191186D01*
X167263267Y-48213365D01*
X167271532Y-48236464D01*
X167277493Y-48260263D01*
X167281093Y-48284531D01*
X167282297Y-48309035D01*
X167282297Y-48959037D01*
X167281093Y-48983541D01*
X167277493Y-49007809D01*
X167271532Y-49031608D01*
X167263267Y-49054707D01*
X167252777Y-49076886D01*
X167240165Y-49097929D01*
X167225550Y-49117635D01*
X167209074Y-49135813D01*
X167190896Y-49152289D01*
X167171190Y-49166904D01*
X167150147Y-49179516D01*
X167127968Y-49190006D01*
X167104869Y-49198271D01*
X167081070Y-49204232D01*
X167056802Y-49207832D01*
X167032298Y-49209036D01*
X166132296Y-49209036D01*
X166107792Y-49207832D01*
X166083524Y-49204232D01*
X166059725Y-49198271D01*
X166036626Y-49190006D01*
X166014447Y-49179516D01*
X165993404Y-49166904D01*
X165973698Y-49152289D01*
X165955520Y-49135813D01*
X165939044Y-49117635D01*
X165924429Y-49097929D01*
X165911817Y-49076886D01*
X165901327Y-49054707D01*
X165893062Y-49031608D01*
X165887101Y-49007809D01*
X165883501Y-48983541D01*
X165882297Y-48959037D01*
X165882297Y-48309035D01*
X165883501Y-48284531D01*
X165887101Y-48260263D01*
X165893062Y-48236464D01*
X165901327Y-48213365D01*
X165911817Y-48191186D01*
X165924429Y-48170143D01*
X165939044Y-48150437D01*
X165955520Y-48132259D01*
X165973698Y-48115783D01*
X165993404Y-48101168D01*
X166014447Y-48088556D01*
X166036626Y-48078066D01*
X166059725Y-48069801D01*
X166083524Y-48063840D01*
X166107792Y-48060240D01*
X166132296Y-48059036D01*
X167032298Y-48059036D01*
X167056802Y-48060240D01*
X167056802Y-48060240D01*
G37*
D11*
G04 #@! TD*
G04 #@! TO.P,C10,1*
G04 #@! TO.N,+3V3*
X166582297Y-48634036D03*
D10*
G04 #@! TO.N,Net-(D1-Pad2)*
G04 #@! TO.C,R5*
G36*
X141327441Y-52876750D02*
X141351709Y-52880350D01*
X141375508Y-52886311D01*
X141398607Y-52894576D01*
X141420786Y-52905066D01*
X141441829Y-52917678D01*
X141461535Y-52932293D01*
X141479713Y-52948769D01*
X141496189Y-52966947D01*
X141510804Y-52986653D01*
X141523416Y-53007696D01*
X141533906Y-53029875D01*
X141542171Y-53052974D01*
X141548132Y-53076773D01*
X141551732Y-53101041D01*
X141552936Y-53125545D01*
X141552936Y-53775547D01*
X141551732Y-53800051D01*
X141548132Y-53824319D01*
X141542171Y-53848118D01*
X141533906Y-53871217D01*
X141523416Y-53893396D01*
X141510804Y-53914439D01*
X141496189Y-53934145D01*
X141479713Y-53952323D01*
X141461535Y-53968799D01*
X141441829Y-53983414D01*
X141420786Y-53996026D01*
X141398607Y-54006516D01*
X141375508Y-54014781D01*
X141351709Y-54020742D01*
X141327441Y-54024342D01*
X141302937Y-54025546D01*
X140402935Y-54025546D01*
X140378431Y-54024342D01*
X140354163Y-54020742D01*
X140330364Y-54014781D01*
X140307265Y-54006516D01*
X140285086Y-53996026D01*
X140264043Y-53983414D01*
X140244337Y-53968799D01*
X140226159Y-53952323D01*
X140209683Y-53934145D01*
X140195068Y-53914439D01*
X140182456Y-53893396D01*
X140171966Y-53871217D01*
X140163701Y-53848118D01*
X140157740Y-53824319D01*
X140154140Y-53800051D01*
X140152936Y-53775547D01*
X140152936Y-53125545D01*
X140154140Y-53101041D01*
X140157740Y-53076773D01*
X140163701Y-53052974D01*
X140171966Y-53029875D01*
X140182456Y-53007696D01*
X140195068Y-52986653D01*
X140209683Y-52966947D01*
X140226159Y-52948769D01*
X140244337Y-52932293D01*
X140264043Y-52917678D01*
X140285086Y-52905066D01*
X140307265Y-52894576D01*
X140330364Y-52886311D01*
X140354163Y-52880350D01*
X140378431Y-52876750D01*
X140402935Y-52875546D01*
X141302937Y-52875546D01*
X141327441Y-52876750D01*
X141327441Y-52876750D01*
G37*
D11*
G04 #@! TD*
G04 #@! TO.P,R5,1*
G04 #@! TO.N,Net-(D1-Pad2)*
X140852936Y-53450546D03*
D10*
G04 #@! TO.N,+3V3*
G04 #@! TO.C,R5*
G36*
X141327441Y-50826750D02*
X141351709Y-50830350D01*
X141375508Y-50836311D01*
X141398607Y-50844576D01*
X141420786Y-50855066D01*
X141441829Y-50867678D01*
X141461535Y-50882293D01*
X141479713Y-50898769D01*
X141496189Y-50916947D01*
X141510804Y-50936653D01*
X141523416Y-50957696D01*
X141533906Y-50979875D01*
X141542171Y-51002974D01*
X141548132Y-51026773D01*
X141551732Y-51051041D01*
X141552936Y-51075545D01*
X141552936Y-51725547D01*
X141551732Y-51750051D01*
X141548132Y-51774319D01*
X141542171Y-51798118D01*
X141533906Y-51821217D01*
X141523416Y-51843396D01*
X141510804Y-51864439D01*
X141496189Y-51884145D01*
X141479713Y-51902323D01*
X141461535Y-51918799D01*
X141441829Y-51933414D01*
X141420786Y-51946026D01*
X141398607Y-51956516D01*
X141375508Y-51964781D01*
X141351709Y-51970742D01*
X141327441Y-51974342D01*
X141302937Y-51975546D01*
X140402935Y-51975546D01*
X140378431Y-51974342D01*
X140354163Y-51970742D01*
X140330364Y-51964781D01*
X140307265Y-51956516D01*
X140285086Y-51946026D01*
X140264043Y-51933414D01*
X140244337Y-51918799D01*
X140226159Y-51902323D01*
X140209683Y-51884145D01*
X140195068Y-51864439D01*
X140182456Y-51843396D01*
X140171966Y-51821217D01*
X140163701Y-51798118D01*
X140157740Y-51774319D01*
X140154140Y-51750051D01*
X140152936Y-51725547D01*
X140152936Y-51075545D01*
X140154140Y-51051041D01*
X140157740Y-51026773D01*
X140163701Y-51002974D01*
X140171966Y-50979875D01*
X140182456Y-50957696D01*
X140195068Y-50936653D01*
X140209683Y-50916947D01*
X140226159Y-50898769D01*
X140244337Y-50882293D01*
X140264043Y-50867678D01*
X140285086Y-50855066D01*
X140307265Y-50844576D01*
X140330364Y-50836311D01*
X140354163Y-50830350D01*
X140378431Y-50826750D01*
X140402935Y-50825546D01*
X141302937Y-50825546D01*
X141327441Y-50826750D01*
X141327441Y-50826750D01*
G37*
D11*
G04 #@! TD*
G04 #@! TO.P,R5,2*
G04 #@! TO.N,+3V3*
X140852936Y-51400546D03*
D13*
G04 #@! TO.P,U1,1*
G04 #@! TO.N,+3V3*
X148775000Y-42600000D03*
G04 #@! TO.P,U1,2*
G04 #@! TO.N,N/C*
X148775000Y-43100000D03*
G04 #@! TO.P,U1,3*
X148775000Y-43600000D03*
G04 #@! TO.P,U1,4*
X148775000Y-44100000D03*
G04 #@! TO.P,U1,5*
G04 #@! TO.N,OSC_IN*
X148775000Y-44600000D03*
G04 #@! TO.P,U1,6*
G04 #@! TO.N,OSC_OUT*
X148775000Y-45100000D03*
G04 #@! TO.P,U1,7*
G04 #@! TO.N,NRST*
X148775000Y-45600000D03*
G04 #@! TO.P,U1,8*
G04 #@! TO.N,GND*
X148775000Y-46100000D03*
G04 #@! TO.P,U1,9*
G04 #@! TO.N,+3V3*
X148775000Y-46600000D03*
G04 #@! TO.P,U1,10*
G04 #@! TO.N,N/C*
X148775000Y-47100000D03*
G04 #@! TO.P,U1,11*
X148775000Y-47600000D03*
G04 #@! TO.P,U1,12*
X148775000Y-48100000D03*
D14*
G04 #@! TO.P,U1,13*
X150375000Y-49700000D03*
G04 #@! TO.P,U1,14*
X150875000Y-49700000D03*
G04 #@! TO.P,U1,15*
X151375000Y-49700000D03*
G04 #@! TO.P,U1,16*
G04 #@! TO.N,Col1*
X151875000Y-49700000D03*
G04 #@! TO.P,U1,17*
G04 #@! TO.N,Col2*
X152375000Y-49700000D03*
G04 #@! TO.P,U1,18*
G04 #@! TO.N,Col3*
X152875000Y-49700000D03*
G04 #@! TO.P,U1,19*
G04 #@! TO.N,Col4*
X153375000Y-49700000D03*
G04 #@! TO.P,U1,20*
G04 #@! TO.N,N/C*
X153875000Y-49700000D03*
G04 #@! TO.P,U1,21*
X154375000Y-49700000D03*
G04 #@! TO.P,U1,22*
X154875000Y-49700000D03*
G04 #@! TO.P,U1,23*
G04 #@! TO.N,GND*
X155375000Y-49700000D03*
G04 #@! TO.P,U1,24*
G04 #@! TO.N,+3V3*
X155875000Y-49700000D03*
D13*
G04 #@! TO.P,U1,25*
G04 #@! TO.N,Row5*
X157475000Y-48100000D03*
G04 #@! TO.P,U1,26*
G04 #@! TO.N,Row1*
X157475000Y-47600000D03*
G04 #@! TO.P,U1,27*
G04 #@! TO.N,Row2*
X157475000Y-47100000D03*
G04 #@! TO.P,U1,28*
G04 #@! TO.N,Row3*
X157475000Y-46600000D03*
G04 #@! TO.P,U1,29*
G04 #@! TO.N,Row4*
X157475000Y-46100000D03*
G04 #@! TO.P,U1,30*
G04 #@! TO.N,N/C*
X157475000Y-45600000D03*
G04 #@! TO.P,U1,31*
X157475000Y-45100000D03*
G04 #@! TO.P,U1,32*
G04 #@! TO.N,Net-(R10-Pad1)*
X157475000Y-44600000D03*
G04 #@! TO.P,U1,33*
G04 #@! TO.N,Net-(R11-Pad1)*
X157475000Y-44100000D03*
G04 #@! TO.P,U1,34*
G04 #@! TO.N,N/C*
X157475000Y-43600000D03*
G04 #@! TO.P,U1,35*
G04 #@! TO.N,GND*
X157475000Y-43100000D03*
G04 #@! TO.P,U1,36*
G04 #@! TO.N,+3V3*
X157475000Y-42600000D03*
D14*
G04 #@! TO.P,U1,37*
G04 #@! TO.N,/led/UGLOW_LED*
X155875000Y-41000000D03*
G04 #@! TO.P,U1,38*
G04 #@! TO.N,N/C*
X155375000Y-41000000D03*
G04 #@! TO.P,U1,39*
X154875000Y-41000000D03*
G04 #@! TO.P,U1,40*
X154375000Y-41000000D03*
G04 #@! TO.P,U1,41*
X153875000Y-41000000D03*
G04 #@! TO.P,U1,42*
X153375000Y-41000000D03*
G04 #@! TO.P,U1,43*
X152875000Y-41000000D03*
G04 #@! TO.P,U1,44*
G04 #@! TO.N,BOOT*
X152375000Y-41000000D03*
G04 #@! TO.P,U1,45*
G04 #@! TO.N,N/C*
X151875000Y-41000000D03*
G04 #@! TO.P,U1,46*
X151375000Y-41000000D03*
G04 #@! TO.P,U1,47*
G04 #@! TO.N,GND*
X150875000Y-41000000D03*
G04 #@! TO.P,U1,48*
G04 #@! TO.N,+3V3*
X150375000Y-41000000D03*
G04 #@! TD*
D10*
G04 #@! TO.N,GND*
G04 #@! TO.C,D1*
G36*
X144377441Y-50851750D02*
X144401709Y-50855350D01*
X144425508Y-50861311D01*
X144448607Y-50869576D01*
X144470786Y-50880066D01*
X144491829Y-50892678D01*
X144511535Y-50907293D01*
X144529713Y-50923769D01*
X144546189Y-50941947D01*
X144560804Y-50961653D01*
X144573416Y-50982696D01*
X144583906Y-51004875D01*
X144592171Y-51027974D01*
X144598132Y-51051773D01*
X144601732Y-51076041D01*
X144602936Y-51100545D01*
X144602936Y-51750547D01*
X144601732Y-51775051D01*
X144598132Y-51799319D01*
X144592171Y-51823118D01*
X144583906Y-51846217D01*
X144573416Y-51868396D01*
X144560804Y-51889439D01*
X144546189Y-51909145D01*
X144529713Y-51927323D01*
X144511535Y-51943799D01*
X144491829Y-51958414D01*
X144470786Y-51971026D01*
X144448607Y-51981516D01*
X144425508Y-51989781D01*
X144401709Y-51995742D01*
X144377441Y-51999342D01*
X144352937Y-52000546D01*
X143452935Y-52000546D01*
X143428431Y-51999342D01*
X143404163Y-51995742D01*
X143380364Y-51989781D01*
X143357265Y-51981516D01*
X143335086Y-51971026D01*
X143314043Y-51958414D01*
X143294337Y-51943799D01*
X143276159Y-51927323D01*
X143259683Y-51909145D01*
X143245068Y-51889439D01*
X143232456Y-51868396D01*
X143221966Y-51846217D01*
X143213701Y-51823118D01*
X143207740Y-51799319D01*
X143204140Y-51775051D01*
X143202936Y-51750547D01*
X143202936Y-51100545D01*
X143204140Y-51076041D01*
X143207740Y-51051773D01*
X143213701Y-51027974D01*
X143221966Y-51004875D01*
X143232456Y-50982696D01*
X143245068Y-50961653D01*
X143259683Y-50941947D01*
X143276159Y-50923769D01*
X143294337Y-50907293D01*
X143314043Y-50892678D01*
X143335086Y-50880066D01*
X143357265Y-50869576D01*
X143380364Y-50861311D01*
X143404163Y-50855350D01*
X143428431Y-50851750D01*
X143452935Y-50850546D01*
X144352937Y-50850546D01*
X144377441Y-50851750D01*
X144377441Y-50851750D01*
G37*
D11*
G04 #@! TD*
G04 #@! TO.P,D1,1*
G04 #@! TO.N,GND*
X143902936Y-51425546D03*
D10*
G04 #@! TO.N,Net-(D1-Pad2)*
G04 #@! TO.C,D1*
G36*
X144377441Y-52901750D02*
X144401709Y-52905350D01*
X144425508Y-52911311D01*
X144448607Y-52919576D01*
X144470786Y-52930066D01*
X144491829Y-52942678D01*
X144511535Y-52957293D01*
X144529713Y-52973769D01*
X144546189Y-52991947D01*
X144560804Y-53011653D01*
X144573416Y-53032696D01*
X144583906Y-53054875D01*
X144592171Y-53077974D01*
X144598132Y-53101773D01*
X144601732Y-53126041D01*
X144602936Y-53150545D01*
X144602936Y-53800547D01*
X144601732Y-53825051D01*
X144598132Y-53849319D01*
X144592171Y-53873118D01*
X144583906Y-53896217D01*
X144573416Y-53918396D01*
X144560804Y-53939439D01*
X144546189Y-53959145D01*
X144529713Y-53977323D01*
X144511535Y-53993799D01*
X144491829Y-54008414D01*
X144470786Y-54021026D01*
X144448607Y-54031516D01*
X144425508Y-54039781D01*
X144401709Y-54045742D01*
X144377441Y-54049342D01*
X144352937Y-54050546D01*
X143452935Y-54050546D01*
X143428431Y-54049342D01*
X143404163Y-54045742D01*
X143380364Y-54039781D01*
X143357265Y-54031516D01*
X143335086Y-54021026D01*
X143314043Y-54008414D01*
X143294337Y-53993799D01*
X143276159Y-53977323D01*
X143259683Y-53959145D01*
X143245068Y-53939439D01*
X143232456Y-53918396D01*
X143221966Y-53896217D01*
X143213701Y-53873118D01*
X143207740Y-53849319D01*
X143204140Y-53825051D01*
X143202936Y-53800547D01*
X143202936Y-53150545D01*
X143204140Y-53126041D01*
X143207740Y-53101773D01*
X143213701Y-53077974D01*
X143221966Y-53054875D01*
X143232456Y-53032696D01*
X143245068Y-53011653D01*
X143259683Y-52991947D01*
X143276159Y-52973769D01*
X143294337Y-52957293D01*
X143314043Y-52942678D01*
X143335086Y-52930066D01*
X143357265Y-52919576D01*
X143380364Y-52911311D01*
X143404163Y-52905350D01*
X143428431Y-52901750D01*
X143452935Y-52900546D01*
X144352937Y-52900546D01*
X144377441Y-52901750D01*
X144377441Y-52901750D01*
G37*
D11*
G04 #@! TD*
G04 #@! TO.P,D1,2*
G04 #@! TO.N,Net-(D1-Pad2)*
X143902936Y-53475546D03*
D10*
G04 #@! TO.N,Net-(R10-Pad1)*
G04 #@! TO.C,R10*
G36*
X161524505Y-44601204D02*
X161548773Y-44604804D01*
X161572572Y-44610765D01*
X161595671Y-44619030D01*
X161617850Y-44629520D01*
X161638893Y-44642132D01*
X161658599Y-44656747D01*
X161676777Y-44673223D01*
X161693253Y-44691401D01*
X161707868Y-44711107D01*
X161720480Y-44732150D01*
X161730970Y-44754329D01*
X161739235Y-44777428D01*
X161745196Y-44801227D01*
X161748796Y-44825495D01*
X161750000Y-44849999D01*
X161750000Y-45750001D01*
X161748796Y-45774505D01*
X161745196Y-45798773D01*
X161739235Y-45822572D01*
X161730970Y-45845671D01*
X161720480Y-45867850D01*
X161707868Y-45888893D01*
X161693253Y-45908599D01*
X161676777Y-45926777D01*
X161658599Y-45943253D01*
X161638893Y-45957868D01*
X161617850Y-45970480D01*
X161595671Y-45980970D01*
X161572572Y-45989235D01*
X161548773Y-45995196D01*
X161524505Y-45998796D01*
X161500001Y-46000000D01*
X160849999Y-46000000D01*
X160825495Y-45998796D01*
X160801227Y-45995196D01*
X160777428Y-45989235D01*
X160754329Y-45980970D01*
X160732150Y-45970480D01*
X160711107Y-45957868D01*
X160691401Y-45943253D01*
X160673223Y-45926777D01*
X160656747Y-45908599D01*
X160642132Y-45888893D01*
X160629520Y-45867850D01*
X160619030Y-45845671D01*
X160610765Y-45822572D01*
X160604804Y-45798773D01*
X160601204Y-45774505D01*
X160600000Y-45750001D01*
X160600000Y-44849999D01*
X160601204Y-44825495D01*
X160604804Y-44801227D01*
X160610765Y-44777428D01*
X160619030Y-44754329D01*
X160629520Y-44732150D01*
X160642132Y-44711107D01*
X160656747Y-44691401D01*
X160673223Y-44673223D01*
X160691401Y-44656747D01*
X160711107Y-44642132D01*
X160732150Y-44629520D01*
X160754329Y-44619030D01*
X160777428Y-44610765D01*
X160801227Y-44604804D01*
X160825495Y-44601204D01*
X160849999Y-44600000D01*
X161500001Y-44600000D01*
X161524505Y-44601204D01*
X161524505Y-44601204D01*
G37*
D11*
G04 #@! TD*
G04 #@! TO.P,R10,1*
G04 #@! TO.N,Net-(R10-Pad1)*
X161175000Y-45300000D03*
D10*
G04 #@! TO.N,USB_N*
G04 #@! TO.C,R10*
G36*
X163574505Y-44601204D02*
X163598773Y-44604804D01*
X163622572Y-44610765D01*
X163645671Y-44619030D01*
X163667850Y-44629520D01*
X163688893Y-44642132D01*
X163708599Y-44656747D01*
X163726777Y-44673223D01*
X163743253Y-44691401D01*
X163757868Y-44711107D01*
X163770480Y-44732150D01*
X163780970Y-44754329D01*
X163789235Y-44777428D01*
X163795196Y-44801227D01*
X163798796Y-44825495D01*
X163800000Y-44849999D01*
X163800000Y-45750001D01*
X163798796Y-45774505D01*
X163795196Y-45798773D01*
X163789235Y-45822572D01*
X163780970Y-45845671D01*
X163770480Y-45867850D01*
X163757868Y-45888893D01*
X163743253Y-45908599D01*
X163726777Y-45926777D01*
X163708599Y-45943253D01*
X163688893Y-45957868D01*
X163667850Y-45970480D01*
X163645671Y-45980970D01*
X163622572Y-45989235D01*
X163598773Y-45995196D01*
X163574505Y-45998796D01*
X163550001Y-46000000D01*
X162899999Y-46000000D01*
X162875495Y-45998796D01*
X162851227Y-45995196D01*
X162827428Y-45989235D01*
X162804329Y-45980970D01*
X162782150Y-45970480D01*
X162761107Y-45957868D01*
X162741401Y-45943253D01*
X162723223Y-45926777D01*
X162706747Y-45908599D01*
X162692132Y-45888893D01*
X162679520Y-45867850D01*
X162669030Y-45845671D01*
X162660765Y-45822572D01*
X162654804Y-45798773D01*
X162651204Y-45774505D01*
X162650000Y-45750001D01*
X162650000Y-44849999D01*
X162651204Y-44825495D01*
X162654804Y-44801227D01*
X162660765Y-44777428D01*
X162669030Y-44754329D01*
X162679520Y-44732150D01*
X162692132Y-44711107D01*
X162706747Y-44691401D01*
X162723223Y-44673223D01*
X162741401Y-44656747D01*
X162761107Y-44642132D01*
X162782150Y-44629520D01*
X162804329Y-44619030D01*
X162827428Y-44610765D01*
X162851227Y-44604804D01*
X162875495Y-44601204D01*
X162899999Y-44600000D01*
X163550001Y-44600000D01*
X163574505Y-44601204D01*
X163574505Y-44601204D01*
G37*
D11*
G04 #@! TD*
G04 #@! TO.P,R10,2*
G04 #@! TO.N,USB_N*
X163225000Y-45300000D03*
D10*
G04 #@! TO.N,USB_P*
G04 #@! TO.C,R11*
G36*
X163574505Y-42601204D02*
X163598773Y-42604804D01*
X163622572Y-42610765D01*
X163645671Y-42619030D01*
X163667850Y-42629520D01*
X163688893Y-42642132D01*
X163708599Y-42656747D01*
X163726777Y-42673223D01*
X163743253Y-42691401D01*
X163757868Y-42711107D01*
X163770480Y-42732150D01*
X163780970Y-42754329D01*
X163789235Y-42777428D01*
X163795196Y-42801227D01*
X163798796Y-42825495D01*
X163800000Y-42849999D01*
X163800000Y-43750001D01*
X163798796Y-43774505D01*
X163795196Y-43798773D01*
X163789235Y-43822572D01*
X163780970Y-43845671D01*
X163770480Y-43867850D01*
X163757868Y-43888893D01*
X163743253Y-43908599D01*
X163726777Y-43926777D01*
X163708599Y-43943253D01*
X163688893Y-43957868D01*
X163667850Y-43970480D01*
X163645671Y-43980970D01*
X163622572Y-43989235D01*
X163598773Y-43995196D01*
X163574505Y-43998796D01*
X163550001Y-44000000D01*
X162899999Y-44000000D01*
X162875495Y-43998796D01*
X162851227Y-43995196D01*
X162827428Y-43989235D01*
X162804329Y-43980970D01*
X162782150Y-43970480D01*
X162761107Y-43957868D01*
X162741401Y-43943253D01*
X162723223Y-43926777D01*
X162706747Y-43908599D01*
X162692132Y-43888893D01*
X162679520Y-43867850D01*
X162669030Y-43845671D01*
X162660765Y-43822572D01*
X162654804Y-43798773D01*
X162651204Y-43774505D01*
X162650000Y-43750001D01*
X162650000Y-42849999D01*
X162651204Y-42825495D01*
X162654804Y-42801227D01*
X162660765Y-42777428D01*
X162669030Y-42754329D01*
X162679520Y-42732150D01*
X162692132Y-42711107D01*
X162706747Y-42691401D01*
X162723223Y-42673223D01*
X162741401Y-42656747D01*
X162761107Y-42642132D01*
X162782150Y-42629520D01*
X162804329Y-42619030D01*
X162827428Y-42610765D01*
X162851227Y-42604804D01*
X162875495Y-42601204D01*
X162899999Y-42600000D01*
X163550001Y-42600000D01*
X163574505Y-42601204D01*
X163574505Y-42601204D01*
G37*
D11*
G04 #@! TD*
G04 #@! TO.P,R11,2*
G04 #@! TO.N,USB_P*
X163225000Y-43300000D03*
D10*
G04 #@! TO.N,Net-(R11-Pad1)*
G04 #@! TO.C,R11*
G36*
X161524505Y-42601204D02*
X161548773Y-42604804D01*
X161572572Y-42610765D01*
X161595671Y-42619030D01*
X161617850Y-42629520D01*
X161638893Y-42642132D01*
X161658599Y-42656747D01*
X161676777Y-42673223D01*
X161693253Y-42691401D01*
X161707868Y-42711107D01*
X161720480Y-42732150D01*
X161730970Y-42754329D01*
X161739235Y-42777428D01*
X161745196Y-42801227D01*
X161748796Y-42825495D01*
X161750000Y-42849999D01*
X161750000Y-43750001D01*
X161748796Y-43774505D01*
X161745196Y-43798773D01*
X161739235Y-43822572D01*
X161730970Y-43845671D01*
X161720480Y-43867850D01*
X161707868Y-43888893D01*
X161693253Y-43908599D01*
X161676777Y-43926777D01*
X161658599Y-43943253D01*
X161638893Y-43957868D01*
X161617850Y-43970480D01*
X161595671Y-43980970D01*
X161572572Y-43989235D01*
X161548773Y-43995196D01*
X161524505Y-43998796D01*
X161500001Y-44000000D01*
X160849999Y-44000000D01*
X160825495Y-43998796D01*
X160801227Y-43995196D01*
X160777428Y-43989235D01*
X160754329Y-43980970D01*
X160732150Y-43970480D01*
X160711107Y-43957868D01*
X160691401Y-43943253D01*
X160673223Y-43926777D01*
X160656747Y-43908599D01*
X160642132Y-43888893D01*
X160629520Y-43867850D01*
X160619030Y-43845671D01*
X160610765Y-43822572D01*
X160604804Y-43798773D01*
X160601204Y-43774505D01*
X160600000Y-43750001D01*
X160600000Y-42849999D01*
X160601204Y-42825495D01*
X160604804Y-42801227D01*
X160610765Y-42777428D01*
X160619030Y-42754329D01*
X160629520Y-42732150D01*
X160642132Y-42711107D01*
X160656747Y-42691401D01*
X160673223Y-42673223D01*
X160691401Y-42656747D01*
X160711107Y-42642132D01*
X160732150Y-42629520D01*
X160754329Y-42619030D01*
X160777428Y-42610765D01*
X160801227Y-42604804D01*
X160825495Y-42601204D01*
X160849999Y-42600000D01*
X161500001Y-42600000D01*
X161524505Y-42601204D01*
X161524505Y-42601204D01*
G37*
D11*
G04 #@! TD*
G04 #@! TO.P,R11,1*
G04 #@! TO.N,Net-(R11-Pad1)*
X161175000Y-43300000D03*
D15*
G04 #@! TO.P,U2,1*
G04 #@! TO.N,VBUS*
X171782296Y-48734035D03*
G04 #@! TO.P,U2,2*
G04 #@! TO.N,GND*
X171782296Y-47784035D03*
G04 #@! TO.P,U2,3*
G04 #@! TO.N,VBUS*
X171782296Y-46834035D03*
G04 #@! TO.P,U2,4*
G04 #@! TO.N,N/C*
X169082296Y-46834035D03*
G04 #@! TO.P,U2,5*
G04 #@! TO.N,+3V3*
X169082296Y-48734035D03*
G04 #@! TD*
D16*
G04 #@! TO.P,Y1,1*
G04 #@! TO.N,OSC_IN*
X137850000Y-42275000D03*
G04 #@! TO.P,Y1,2*
G04 #@! TO.N,OSC_OUT*
X137850000Y-47475000D03*
G04 #@! TD*
D17*
G04 #@! TO.P,J3,S1*
G04 #@! TO.N,Net-(C11-Pad1)*
X175020000Y-37100000D03*
X166380000Y-37100000D03*
D18*
X175020000Y-41280000D03*
X166380000Y-41280000D03*
D19*
G04 #@! TO.P,J3,A1*
G04 #@! TO.N,GND*
X173950000Y-42200000D03*
G04 #@! TO.P,J3,A4*
G04 #@! TO.N,VBUS*
X173150000Y-42200000D03*
G04 #@! TO.P,J3,B1*
G04 #@! TO.N,GND*
X167450000Y-42200000D03*
G04 #@! TO.P,J3,B4*
G04 #@! TO.N,VBUS*
X168250000Y-42200000D03*
D20*
G04 #@! TO.P,J3,B8*
G04 #@! TO.N,N/C*
X172450000Y-42200000D03*
G04 #@! TO.P,J3,A5*
G04 #@! TO.N,Net-(J3-PadA5)*
X171950000Y-42200000D03*
G04 #@! TO.P,J3,B7*
G04 #@! TO.N,USB_N*
X171450000Y-42200000D03*
G04 #@! TO.P,J3,A6*
G04 #@! TO.N,USB_P*
X170950000Y-42200000D03*
G04 #@! TO.P,J3,A7*
G04 #@! TO.N,USB_N*
X170450000Y-42200000D03*
G04 #@! TO.P,J3,B6*
G04 #@! TO.N,USB_P*
X169950000Y-42200000D03*
G04 #@! TO.P,J3,A8*
G04 #@! TO.N,N/C*
X169450000Y-42200000D03*
G04 #@! TO.P,J3,B5*
G04 #@! TO.N,Net-(J3-PadB5)*
X168950000Y-42200000D03*
G04 #@! TD*
D21*
G04 #@! TO.P,J1,1*
G04 #@! TO.N,GND*
X179800000Y-43900000D03*
D22*
G04 #@! TO.P,J1,2*
G04 #@! TO.N,USB_P*
X179800000Y-45900000D03*
G04 #@! TO.P,J1,3*
G04 #@! TO.N,USB_N*
X179800000Y-47900000D03*
G04 #@! TO.P,J1,4*
G04 #@! TO.N,VBUS*
X179800000Y-49900000D03*
G04 #@! TD*
D23*
G04 #@! TO.N,GND*
X168550000Y-116700000D03*
X111500000Y-120800000D03*
X177300000Y-118500000D03*
X181700000Y-148000000D03*
X155400000Y-52000000D03*
X164600000Y-46600000D03*
X143000000Y-38000000D03*
X161200000Y-37600000D03*
X164600000Y-40200000D03*
X175900000Y-42900000D03*
X159200000Y-42100000D03*
X111500000Y-92600000D03*
X129100000Y-147600000D03*
X158200000Y-148100000D03*
X183100000Y-139500000D03*
X181200000Y-103900000D03*
G04 #@! TO.N,Col4*
X167509500Y-73900000D03*
X172100000Y-74700000D03*
X153400000Y-52000000D03*
G04 #@! TO.N,Row1*
X160800000Y-48500000D03*
X168509490Y-62642750D03*
G04 #@! TO.N,Row2*
X161544390Y-48500000D03*
X168909490Y-81692750D03*
G04 #@! TO.N,Row3*
X169309490Y-100742750D03*
X161500000Y-47725000D03*
G04 #@! TO.N,Row4*
X169800000Y-128048750D03*
X162981009Y-48500000D03*
G04 #@! TO.N,Row5*
X164600000Y-137300000D03*
X160072997Y-48500000D03*
G04 #@! TO.N,Col1*
X124900000Y-74100000D03*
X166485736Y-72492775D03*
X151875000Y-51200000D03*
G04 #@! TO.N,Col2*
X144200000Y-74700000D03*
X166739165Y-73174175D03*
X152375000Y-51974992D03*
G04 #@! TO.N,Col3*
X152875000Y-51200000D03*
G04 #@! TO.N,Net-(D13-Pad1)*
X179200000Y-38400000D03*
X153200000Y-38276125D03*
G04 #@! TO.N,NRST*
X147200000Y-45600000D03*
G04 #@! TO.N,BOOT*
X152400000Y-42109500D03*
G04 #@! TO.N,+3V3*
X145300000Y-49700000D03*
G04 #@! TO.N,VBUS*
X173150000Y-43600000D03*
G04 #@! TO.N,Net-(J3-PadA5)*
X172000000Y-43600000D03*
G04 #@! TO.N,Net-(J3-PadB5)*
X168900000Y-43600000D03*
G04 #@! TO.N,USB_P*
X162200000Y-43300000D03*
G04 #@! TO.N,USB_N*
X162200000Y-45300000D03*
G04 #@! TO.N,/led/UGLOW_LED*
X176000000Y-39800000D03*
G04 #@! TO.N,Net-(D19-Pad1)*
X167800000Y-148000000D03*
X172700000Y-148000000D03*
G04 #@! TO.N,Net-(D20-Pad1)*
X179500000Y-144400000D03*
X178900000Y-117000000D03*
G04 #@! TD*
D24*
G04 #@! TO.N,GND*
X173282298Y-47784035D02*
X174507297Y-46559036D01*
X171782296Y-47784035D02*
X173282298Y-47784035D01*
X145225000Y-46175000D02*
X145250000Y-46150000D01*
X143050000Y-46175000D02*
X145225000Y-46175000D01*
X148725000Y-46150000D02*
X148775000Y-46100000D01*
X145250000Y-46150000D02*
X148725000Y-46150000D01*
X155375000Y-49700000D02*
X155375000Y-51975000D01*
X155375000Y-51975000D02*
X155400000Y-52000000D01*
X166582297Y-46584036D02*
X164615964Y-46584036D01*
X164615964Y-46584036D02*
X164600000Y-46600000D01*
X150875000Y-38500000D02*
X150875000Y-41000000D01*
X151675000Y-37700000D02*
X150875000Y-38500000D01*
X164600000Y-41026528D02*
X164600000Y-40200000D01*
X166625472Y-43052000D02*
X164600000Y-41026528D01*
X167023000Y-43052000D02*
X166625472Y-43052000D01*
X167450000Y-42200000D02*
X167450000Y-42625000D01*
X167450000Y-42625000D02*
X167023000Y-43052000D01*
X175113472Y-42900000D02*
X175900000Y-42900000D01*
X173950000Y-42200000D02*
X174413472Y-42200000D01*
X174413472Y-42200000D02*
X175113472Y-42900000D01*
X159200000Y-42152000D02*
X159200000Y-42100000D01*
X157475000Y-43100000D02*
X158252000Y-43100000D01*
X158252000Y-43100000D02*
X159200000Y-42152000D01*
X139962426Y-51908014D02*
X140554412Y-52500000D01*
X143050000Y-46175000D02*
X139962426Y-49262574D01*
X139962426Y-49262574D02*
X139962426Y-51908014D01*
X142828482Y-52500000D02*
X143902936Y-51425546D01*
X140554412Y-52500000D02*
X142828482Y-52500000D01*
X144190510Y-36809490D02*
X143000000Y-38000000D01*
X151584490Y-36809490D02*
X144190510Y-36809490D01*
X151675000Y-36900000D02*
X151584490Y-36809490D01*
X151675000Y-37700000D02*
X151675000Y-36900000D01*
G04 #@! TO.N,Net-(D1-Pad2)*
X143877936Y-53450546D02*
X143902936Y-53475546D01*
X140852936Y-53450546D02*
X143877936Y-53450546D01*
G04 #@! TO.N,Col4*
X167509500Y-73909500D02*
X167509500Y-73900000D01*
X168309500Y-74700000D02*
X167509500Y-73900000D01*
X172100000Y-74700000D02*
X168309500Y-74700000D01*
X153375000Y-49700000D02*
X153375000Y-51975000D01*
X153375000Y-51975000D02*
X153400000Y-52000000D01*
G04 #@! TO.N,Row1*
X114331750Y-62642750D02*
X133381750Y-62642750D01*
X133381750Y-62642750D02*
X152431750Y-62642750D01*
X159900000Y-47600000D02*
X160800000Y-48500000D01*
X157475000Y-47600000D02*
X159900000Y-47600000D01*
X171481750Y-62642750D02*
X168509490Y-62642750D01*
X152431750Y-62642750D02*
X168509490Y-62642750D01*
G04 #@! TO.N,Row2*
X114331750Y-81692750D02*
X133381750Y-81692750D01*
X133381750Y-81692750D02*
X152431750Y-81692750D01*
X157475000Y-47100000D02*
X160144390Y-47100000D01*
X160144390Y-47100000D02*
X161544390Y-48500000D01*
X171481750Y-81692750D02*
X168909490Y-81692750D01*
X152431750Y-81692750D02*
X168909490Y-81692750D01*
G04 #@! TO.N,Row3*
X114331750Y-100742750D02*
X133381750Y-100742750D01*
X133381750Y-100742750D02*
X152431750Y-100742750D01*
X157475000Y-46600000D02*
X160354006Y-46600000D01*
X171481750Y-100742750D02*
X169309490Y-100742750D01*
X152431750Y-100742750D02*
X169309490Y-100742750D01*
X160354006Y-46600000D02*
X160375000Y-46600000D01*
X160375000Y-46600000D02*
X161500000Y-47725000D01*
G04 #@! TO.N,Row4*
X114331750Y-119792750D02*
X133381750Y-119792750D01*
X133381750Y-119792750D02*
X152431750Y-119792750D01*
X165248750Y-128048750D02*
X169800000Y-128048750D01*
X164400000Y-127200000D02*
X165248750Y-128048750D01*
X164400000Y-127200000D02*
X164400000Y-121500000D01*
X162692750Y-119792750D02*
X152431750Y-119792750D01*
X164400000Y-121500000D02*
X162692750Y-119792750D01*
X169800000Y-128048750D02*
X177833750Y-128048750D01*
X157475000Y-46100000D02*
X160581009Y-46100000D01*
X160581009Y-46100000D02*
X162981009Y-48500000D01*
G04 #@! TO.N,Row5*
X114331750Y-138842750D02*
X133381750Y-138842750D01*
X133381750Y-138842750D02*
X152431750Y-138842750D01*
X152431750Y-138842750D02*
X163057250Y-138842750D01*
X163057250Y-138842750D02*
X164600000Y-137300000D01*
X157475000Y-48100000D02*
X159672997Y-48100000D01*
X159672997Y-48100000D02*
X160072997Y-48500000D01*
G04 #@! TO.N,Col1*
X124900000Y-74100000D02*
X164878511Y-74100000D01*
X164878511Y-74100000D02*
X166485736Y-72492775D01*
X151875000Y-49700000D02*
X151875000Y-51200000D01*
G04 #@! TO.N,Col2*
X144200000Y-74700000D02*
X165213340Y-74700000D01*
X165213340Y-74700000D02*
X166739165Y-73174175D01*
X152375000Y-49700000D02*
X152375000Y-51974992D01*
G04 #@! TO.N,Col3*
X152875000Y-49700000D02*
X152875000Y-51200000D01*
G04 #@! TO.N,Net-(D13-Pad1)*
X153339385Y-38415510D02*
X153200000Y-38276125D01*
X178760226Y-38415510D02*
X153339385Y-38415510D01*
X179200000Y-38400000D02*
X178775736Y-38400000D01*
X178775736Y-38400000D02*
X178760226Y-38415510D01*
G04 #@! TO.N,OSC_IN*
X136750000Y-41175000D02*
X137850000Y-42275000D01*
X133950000Y-41175000D02*
X136750000Y-41175000D01*
X141502000Y-44600000D02*
X148775000Y-44600000D01*
X139177000Y-42275000D02*
X141502000Y-44600000D01*
X137850000Y-42275000D02*
X139177000Y-42275000D01*
G04 #@! TO.N,NRST*
X148775000Y-45600000D02*
X147200000Y-45600000D01*
G04 #@! TO.N,BOOT*
X152375000Y-41000000D02*
X152375000Y-42084500D01*
X152375000Y-42084500D02*
X152400000Y-42109500D01*
G04 #@! TO.N,+3V3*
X150375000Y-38450000D02*
X149625000Y-37700000D01*
X150375000Y-41000000D02*
X150375000Y-38450000D01*
X145225000Y-48225000D02*
X145250000Y-48200000D01*
X143050000Y-48225000D02*
X145225000Y-48225000D01*
X146850000Y-46600000D02*
X145250000Y-48200000D01*
X148775000Y-46600000D02*
X146850000Y-46600000D01*
X155875000Y-50225000D02*
X155875000Y-49700000D01*
X156550000Y-50900000D02*
X155875000Y-50225000D01*
X158775000Y-50900000D02*
X156550000Y-50900000D01*
X157475000Y-40925000D02*
X158700000Y-39700000D01*
X157475000Y-42600000D02*
X157475000Y-40925000D01*
X160300000Y-41300000D02*
X161150000Y-41300000D01*
X158700000Y-39700000D02*
X160300000Y-41300000D01*
X166682296Y-48734035D02*
X166582297Y-48634036D01*
X169082296Y-48734035D02*
X166682296Y-48734035D01*
X153552000Y-46600000D02*
X149552000Y-46600000D01*
X155875000Y-48923000D02*
X153552000Y-46600000D01*
X155875000Y-49700000D02*
X155875000Y-48923000D01*
X149552000Y-46600000D02*
X148775000Y-46600000D01*
X149615501Y-46536499D02*
X149552000Y-46600000D01*
X149615501Y-42663501D02*
X149615501Y-46536499D01*
X149552000Y-42600000D02*
X149615501Y-42663501D01*
X149552000Y-42600000D02*
X150375000Y-41777000D01*
X148775000Y-42600000D02*
X149552000Y-42600000D01*
X151198000Y-42600000D02*
X157475000Y-42600000D01*
X150375000Y-41777000D02*
X151198000Y-42600000D01*
X150375000Y-41000000D02*
X150375000Y-41777000D01*
X164716333Y-49700000D02*
X155875000Y-49700000D01*
X165782297Y-48634036D02*
X164716333Y-49700000D01*
X166582297Y-48634036D02*
X165782297Y-48634036D01*
X140852936Y-50422064D02*
X143050000Y-48225000D01*
X140852936Y-51400546D02*
X140852936Y-50422064D01*
X145250000Y-48200000D02*
X145250000Y-49650000D01*
X145250000Y-49650000D02*
X145300000Y-49700000D01*
G04 #@! TO.N,OSC_OUT*
X136775000Y-48550000D02*
X137850000Y-47475000D01*
X133950000Y-48550000D02*
X136775000Y-48550000D01*
X137850000Y-47475000D02*
X139177000Y-47475000D01*
X141552000Y-45100000D02*
X148775000Y-45100000D01*
X139177000Y-47475000D02*
X141552000Y-45100000D01*
D25*
G04 #@! TO.N,VBUS*
X174382298Y-48734035D02*
X174507297Y-48609036D01*
X171782296Y-48734035D02*
X174382298Y-48734035D01*
X172995001Y-42045001D02*
X173150000Y-42200000D01*
X172995001Y-41158999D02*
X172995001Y-42045001D01*
X172661991Y-40825989D02*
X172995001Y-41158999D01*
X168738009Y-40825989D02*
X172661991Y-40825989D01*
X168404999Y-41158999D02*
X168738009Y-40825989D01*
X168404999Y-42045001D02*
X168404999Y-41158999D01*
X168250000Y-42200000D02*
X168404999Y-42045001D01*
X170752296Y-48734035D02*
X171782296Y-48734035D01*
X170607295Y-48589034D02*
X170752296Y-48734035D01*
X170607295Y-46979036D02*
X170607295Y-48589034D01*
X170752296Y-46834035D02*
X170607295Y-46979036D01*
X171782296Y-46834035D02*
X170752296Y-46834035D01*
X172237296Y-46834035D02*
X171782296Y-46834035D01*
X173150000Y-45921331D02*
X172237296Y-46834035D01*
X173150000Y-42200000D02*
X173150000Y-43600000D01*
X173150000Y-43600000D02*
X173150000Y-45921331D01*
X175798261Y-49900000D02*
X179800000Y-49900000D01*
X174507297Y-48609036D02*
X175798261Y-49900000D01*
D24*
G04 #@! TO.N,Net-(J3-PadA5)*
X172000000Y-42250000D02*
X171950000Y-42200000D01*
X172000000Y-43600000D02*
X172000000Y-42250000D01*
G04 #@! TO.N,Net-(J3-PadB5)*
X168900000Y-42250000D02*
X168950000Y-42200000D01*
X168900000Y-43600000D02*
X168900000Y-42250000D01*
G04 #@! TO.N,USB_P*
X170886499Y-43115501D02*
X170950000Y-43052000D01*
X170013501Y-43115501D02*
X170886499Y-43115501D01*
X169950000Y-43052000D02*
X170013501Y-43115501D01*
X170950000Y-43052000D02*
X170950000Y-42200000D01*
X169950000Y-42200000D02*
X169950000Y-43052000D01*
X164700000Y-44100000D02*
X163900000Y-43300000D01*
X169900000Y-44100000D02*
X164700000Y-44100000D01*
X163900000Y-43300000D02*
X163225000Y-43300000D01*
X170886499Y-43115501D02*
X170884499Y-43115501D01*
X170884499Y-43115501D02*
X169900000Y-44100000D01*
X163200000Y-43275000D02*
X163225000Y-43300000D01*
X163200000Y-41300000D02*
X163200000Y-43275000D01*
X163225000Y-43300000D02*
X162100000Y-43300000D01*
G04 #@! TO.N,USB_N*
X171450000Y-41348000D02*
X171450000Y-42200000D01*
X171386499Y-41284499D02*
X171450000Y-41348000D01*
X170513501Y-41284499D02*
X171386499Y-41284499D01*
X170450000Y-41348000D02*
X170513501Y-41284499D01*
X170450000Y-42200000D02*
X170450000Y-41348000D01*
X171450000Y-43052000D02*
X171450000Y-42200000D01*
X170102000Y-44400000D02*
X171450000Y-43052000D01*
X164700000Y-44400000D02*
X170102000Y-44400000D01*
X163225000Y-45300000D02*
X163800000Y-45300000D01*
X163800000Y-45300000D02*
X164700000Y-44400000D01*
X163225000Y-45300000D02*
X162200000Y-45300000D01*
G04 #@! TO.N,Net-(R10-Pad1)*
X160475000Y-44600000D02*
X161175000Y-45300000D01*
X157475000Y-44600000D02*
X160475000Y-44600000D01*
G04 #@! TO.N,Net-(R11-Pad1)*
X160375000Y-44100000D02*
X161175000Y-43300000D01*
X157475000Y-44100000D02*
X160375000Y-44100000D01*
G04 #@! TO.N,/led/UGLOW_LED*
X176000000Y-39800000D02*
X175000000Y-38800000D01*
X155875000Y-40475000D02*
X155875000Y-41000000D01*
X157550000Y-38800000D02*
X155875000Y-40475000D01*
X175000000Y-38800000D02*
X157550000Y-38800000D01*
G04 #@! TO.N,Net-(D19-Pad1)*
X167800000Y-148000000D02*
X172700000Y-148000000D01*
G04 #@! TO.N,Net-(D20-Pad1)*
X179199999Y-117299999D02*
X178900000Y-117000000D01*
X179199999Y-128592443D02*
X179199999Y-117299999D01*
X179500000Y-144400000D02*
X179083249Y-143983249D01*
X179083249Y-143983249D02*
X179083249Y-128709193D01*
X179083249Y-128709193D02*
X179199999Y-128592443D01*
G04 #@! TD*
D26*
G04 #@! TO.N,GND*
G36*
X148665414Y-36615414D02*
X148470873Y-36906564D01*
X148402560Y-37249999D01*
X148402560Y-38150001D01*
X148470873Y-38493436D01*
X148665414Y-38784586D01*
X148956564Y-38979127D01*
X149299999Y-39047440D01*
X149676501Y-39047440D01*
X149676500Y-40065333D01*
X149651843Y-40102235D01*
X149602560Y-40350000D01*
X149602560Y-41561612D01*
X149336613Y-41827560D01*
X148125000Y-41827560D01*
X147877235Y-41876843D01*
X147667191Y-42017191D01*
X147526843Y-42227235D01*
X147477560Y-42475000D01*
X147477560Y-42725000D01*
X147502424Y-42849999D01*
X147477560Y-42975000D01*
X147477560Y-43225000D01*
X147502424Y-43350000D01*
X147477560Y-43475000D01*
X147477560Y-43725000D01*
X147502424Y-43850000D01*
X147492180Y-43901500D01*
X141791329Y-43901500D01*
X139719560Y-41829733D01*
X139697440Y-41796628D01*
X139697440Y-40525000D01*
X139648157Y-40277235D01*
X139507809Y-40067191D01*
X139297765Y-39926843D01*
X139050000Y-39877560D01*
X136650000Y-39877560D01*
X136402235Y-39926843D01*
X136192191Y-40067191D01*
X136051843Y-40277235D01*
X136012207Y-40476500D01*
X135209039Y-40476500D01*
X135034586Y-40215414D01*
X134743436Y-40020873D01*
X134400001Y-39952560D01*
X133499999Y-39952560D01*
X133156564Y-40020873D01*
X132865414Y-40215414D01*
X132670873Y-40506564D01*
X132602560Y-40849999D01*
X132602560Y-41500001D01*
X132670873Y-41843436D01*
X132865414Y-42134586D01*
X132866597Y-42135377D01*
X132711673Y-42290302D01*
X132615000Y-42523691D01*
X132615000Y-42939250D01*
X132773750Y-43098000D01*
X133823000Y-43098000D01*
X133823000Y-43078000D01*
X134077000Y-43078000D01*
X134077000Y-43098000D01*
X135126250Y-43098000D01*
X135285000Y-42939250D01*
X135285000Y-42523691D01*
X135188327Y-42290302D01*
X135033403Y-42135377D01*
X135034586Y-42134586D01*
X135209039Y-41873500D01*
X136002560Y-41873500D01*
X136002560Y-44025000D01*
X136051843Y-44272765D01*
X136192191Y-44482809D01*
X136402235Y-44623157D01*
X136650000Y-44672440D01*
X139050000Y-44672440D01*
X139297765Y-44623157D01*
X139507809Y-44482809D01*
X139648157Y-44272765D01*
X139697440Y-44025000D01*
X139697440Y-43783268D01*
X140789172Y-44875000D01*
X139697440Y-45966733D01*
X139697440Y-45725000D01*
X139648157Y-45477235D01*
X139507809Y-45267191D01*
X139297765Y-45126843D01*
X139050000Y-45077560D01*
X136650000Y-45077560D01*
X136402235Y-45126843D01*
X136192191Y-45267191D01*
X136051843Y-45477235D01*
X136002560Y-45725000D01*
X136002560Y-47851500D01*
X135209039Y-47851500D01*
X135034586Y-47590414D01*
X135033403Y-47589623D01*
X135188327Y-47434698D01*
X135285000Y-47201309D01*
X135285000Y-46785750D01*
X135126250Y-46627000D01*
X134077000Y-46627000D01*
X134077000Y-46647000D01*
X133823000Y-46647000D01*
X133823000Y-46627000D01*
X132773750Y-46627000D01*
X132615000Y-46785750D01*
X132615000Y-47201309D01*
X132711673Y-47434698D01*
X132866597Y-47589623D01*
X132865414Y-47590414D01*
X132670873Y-47881564D01*
X132602560Y-48224999D01*
X132602560Y-48875001D01*
X132670873Y-49218436D01*
X132865414Y-49509586D01*
X133156564Y-49704127D01*
X133499999Y-49772440D01*
X134400001Y-49772440D01*
X134743436Y-49704127D01*
X135034586Y-49509586D01*
X135209039Y-49248500D01*
X136007234Y-49248500D01*
X136051843Y-49472765D01*
X136192191Y-49682809D01*
X136402235Y-49823157D01*
X136650000Y-49872440D01*
X139050000Y-49872440D01*
X139297765Y-49823157D01*
X139507809Y-49682809D01*
X139648157Y-49472765D01*
X139697440Y-49225000D01*
X139697440Y-47953372D01*
X139719560Y-47920267D01*
X141732789Y-45907039D01*
X141873750Y-46048000D01*
X142923000Y-46048000D01*
X142923000Y-46028000D01*
X143177000Y-46028000D01*
X143177000Y-46048000D01*
X144226250Y-46048000D01*
X144251250Y-46023000D01*
X145123000Y-46023000D01*
X145123000Y-46003000D01*
X145377000Y-46003000D01*
X145377000Y-46023000D01*
X145397000Y-46023000D01*
X145397000Y-46277000D01*
X145377000Y-46277000D01*
X145377000Y-46297000D01*
X145123000Y-46297000D01*
X145123000Y-46277000D01*
X144073750Y-46277000D01*
X144048750Y-46302000D01*
X143177000Y-46302000D01*
X143177000Y-46322000D01*
X142923000Y-46322000D01*
X142923000Y-46302000D01*
X141873750Y-46302000D01*
X141715000Y-46460750D01*
X141715000Y-46876309D01*
X141811673Y-47109698D01*
X141966597Y-47264623D01*
X141965414Y-47265414D01*
X141770873Y-47556564D01*
X141702560Y-47899999D01*
X141702560Y-48550001D01*
X141708302Y-48578870D01*
X140407667Y-49879506D01*
X140349347Y-49918474D01*
X140310378Y-49976795D01*
X140194964Y-50149524D01*
X140180477Y-50222355D01*
X140059500Y-50246419D01*
X139768350Y-50440960D01*
X139573809Y-50732110D01*
X139505496Y-51075545D01*
X139505496Y-51725547D01*
X139573809Y-52068982D01*
X139768350Y-52360132D01*
X139866249Y-52425546D01*
X139768350Y-52490960D01*
X139573809Y-52782110D01*
X139505496Y-53125545D01*
X139505496Y-53775547D01*
X139573809Y-54118982D01*
X139768350Y-54410132D01*
X140059500Y-54604673D01*
X140402935Y-54672986D01*
X141302937Y-54672986D01*
X141646372Y-54604673D01*
X141937522Y-54410132D01*
X142111975Y-54149046D01*
X142627193Y-54149046D01*
X142818350Y-54435132D01*
X143109500Y-54629673D01*
X143452935Y-54697986D01*
X144352937Y-54697986D01*
X144696372Y-54629673D01*
X144987522Y-54435132D01*
X145182063Y-54143982D01*
X145250376Y-53800547D01*
X145250376Y-53150545D01*
X145182063Y-52807110D01*
X144987522Y-52515960D01*
X144986339Y-52515169D01*
X145141263Y-52360244D01*
X145237936Y-52126855D01*
X145237936Y-51711296D01*
X145079186Y-51552546D01*
X144029936Y-51552546D01*
X144029936Y-51572546D01*
X143775936Y-51572546D01*
X143775936Y-51552546D01*
X142726686Y-51552546D01*
X142567936Y-51711296D01*
X142567936Y-52126855D01*
X142664609Y-52360244D01*
X142819533Y-52515169D01*
X142818350Y-52515960D01*
X142660602Y-52752046D01*
X142111975Y-52752046D01*
X141937522Y-52490960D01*
X141839623Y-52425546D01*
X141937522Y-52360132D01*
X142132063Y-52068982D01*
X142200376Y-51725547D01*
X142200376Y-51075545D01*
X142132063Y-50732110D01*
X142126803Y-50724237D01*
X142567936Y-50724237D01*
X142567936Y-51139796D01*
X142726686Y-51298546D01*
X143775936Y-51298546D01*
X143775936Y-50374296D01*
X143617186Y-50215546D01*
X143076626Y-50215546D01*
X142843237Y-50312219D01*
X142664609Y-50490848D01*
X142567936Y-50724237D01*
X142126803Y-50724237D01*
X141937522Y-50440960D01*
X141868192Y-50394635D01*
X142815388Y-49447440D01*
X143500001Y-49447440D01*
X143843436Y-49379127D01*
X144134586Y-49184586D01*
X144158352Y-49149017D01*
X144165414Y-49159586D01*
X144436721Y-49340868D01*
X144365000Y-49514017D01*
X144365000Y-49885983D01*
X144501509Y-50215546D01*
X144188686Y-50215546D01*
X144029936Y-50374296D01*
X144029936Y-51298546D01*
X145079186Y-51298546D01*
X145237936Y-51139796D01*
X145237936Y-50724237D01*
X145200973Y-50635000D01*
X145485983Y-50635000D01*
X145829635Y-50492655D01*
X146092655Y-50229635D01*
X146235000Y-49885983D01*
X146235000Y-49514017D01*
X146141602Y-49288534D01*
X146334586Y-49159586D01*
X146529127Y-48868436D01*
X146597440Y-48525001D01*
X146597440Y-47874999D01*
X146591698Y-47846130D01*
X147139329Y-47298500D01*
X147492180Y-47298500D01*
X147502424Y-47350000D01*
X147477560Y-47475000D01*
X147477560Y-47725000D01*
X147502424Y-47850000D01*
X147477560Y-47975000D01*
X147477560Y-48225000D01*
X147526843Y-48472765D01*
X147667191Y-48682809D01*
X147877235Y-48823157D01*
X148125000Y-48872440D01*
X149425000Y-48872440D01*
X149646648Y-48828352D01*
X149602560Y-49050000D01*
X149602560Y-50350000D01*
X149651843Y-50597765D01*
X149792191Y-50807809D01*
X150002235Y-50948157D01*
X150250000Y-50997440D01*
X150500000Y-50997440D01*
X150625000Y-50972576D01*
X150750000Y-50997440D01*
X150946866Y-50997440D01*
X150940000Y-51014017D01*
X150940000Y-51385983D01*
X151082345Y-51729635D01*
X151345365Y-51992655D01*
X151440000Y-52031854D01*
X151440000Y-52160975D01*
X151582345Y-52504627D01*
X151845365Y-52767647D01*
X152189017Y-52909992D01*
X152560983Y-52909992D01*
X152862719Y-52785009D01*
X152870365Y-52792655D01*
X153214017Y-52935000D01*
X153585983Y-52935000D01*
X153929635Y-52792655D01*
X154192655Y-52529635D01*
X154335000Y-52185983D01*
X154335000Y-51814017D01*
X154192655Y-51470365D01*
X154073500Y-51351210D01*
X154073500Y-50982820D01*
X154125000Y-50972576D01*
X154250000Y-50997440D01*
X154500000Y-50997440D01*
X154625000Y-50972576D01*
X154750000Y-50997440D01*
X155000000Y-50997440D01*
X155103852Y-50976783D01*
X155123690Y-50985000D01*
X155153750Y-50985000D01*
X155176397Y-50962353D01*
X155247765Y-50948157D01*
X155375000Y-50863141D01*
X155502235Y-50948157D01*
X155573603Y-50962353D01*
X155596250Y-50985000D01*
X155626310Y-50985000D01*
X155641062Y-50978889D01*
X156007441Y-51345269D01*
X156046410Y-51403590D01*
X156277459Y-51557972D01*
X156481206Y-51598500D01*
X156481210Y-51598500D01*
X156549999Y-51612183D01*
X156618788Y-51598500D01*
X157601989Y-51598500D01*
X157620873Y-51693436D01*
X157815414Y-51984586D01*
X158106564Y-52179127D01*
X158449999Y-52247440D01*
X159100001Y-52247440D01*
X159443436Y-52179127D01*
X159734586Y-51984586D01*
X159735377Y-51983403D01*
X159890302Y-52138327D01*
X160123691Y-52235000D01*
X160539250Y-52235000D01*
X160698000Y-52076250D01*
X160698000Y-51027000D01*
X160952000Y-51027000D01*
X160952000Y-52076250D01*
X161110750Y-52235000D01*
X161526309Y-52235000D01*
X161759698Y-52138327D01*
X161938327Y-51959699D01*
X162035000Y-51726310D01*
X162035000Y-51185750D01*
X161876250Y-51027000D01*
X160952000Y-51027000D01*
X160698000Y-51027000D01*
X160678000Y-51027000D01*
X160678000Y-50773000D01*
X160698000Y-50773000D01*
X160698000Y-50753000D01*
X160952000Y-50753000D01*
X160952000Y-50773000D01*
X161876250Y-50773000D01*
X162035000Y-50614250D01*
X162035000Y-50398500D01*
X164647543Y-50398500D01*
X164716333Y-50412183D01*
X164785123Y-50398500D01*
X164785127Y-50398500D01*
X164988874Y-50357972D01*
X165219923Y-50203590D01*
X165258893Y-50145267D01*
X165685237Y-49718923D01*
X165788861Y-49788163D01*
X166132296Y-49856476D01*
X167032298Y-49856476D01*
X167375733Y-49788163D01*
X167666883Y-49593622D01*
X167774518Y-49432535D01*
X167788153Y-49432535D01*
X167844487Y-49516844D01*
X168054531Y-49657192D01*
X168302296Y-49706475D01*
X169862296Y-49706475D01*
X170110061Y-49657192D01*
X170320105Y-49516844D01*
X170392882Y-49407926D01*
X170455759Y-49449939D01*
X170506530Y-49460038D01*
X170544487Y-49516844D01*
X170754531Y-49657192D01*
X171002296Y-49706475D01*
X172562296Y-49706475D01*
X172810061Y-49657192D01*
X173020105Y-49516844D01*
X173035346Y-49494035D01*
X173372873Y-49494035D01*
X173422711Y-49568622D01*
X173713861Y-49763163D01*
X174057296Y-49831476D01*
X174654935Y-49831476D01*
X175207932Y-50384473D01*
X175250332Y-50447929D01*
X175313788Y-50490329D01*
X175501723Y-50615904D01*
X175549866Y-50625480D01*
X175723409Y-50660000D01*
X175723413Y-50660000D01*
X175798261Y-50674888D01*
X175873109Y-50660000D01*
X178732293Y-50660000D01*
X178855543Y-50844457D01*
X179288864Y-51133993D01*
X179670978Y-51210000D01*
X179929022Y-51210000D01*
X180311136Y-51133993D01*
X180744457Y-50844457D01*
X181033993Y-50411136D01*
X181135664Y-49900000D01*
X181033993Y-49388864D01*
X180744457Y-48955543D01*
X180661331Y-48900000D01*
X180744457Y-48844457D01*
X181033993Y-48411136D01*
X181135664Y-47900000D01*
X181033993Y-47388864D01*
X180744457Y-46955543D01*
X180661331Y-46900000D01*
X180744457Y-46844457D01*
X181033993Y-46411136D01*
X181135664Y-45900000D01*
X181033993Y-45388864D01*
X180843802Y-45104223D01*
X181013327Y-44934699D01*
X181110000Y-44701310D01*
X181110000Y-44185750D01*
X180951250Y-44027000D01*
X179927000Y-44027000D01*
X179927000Y-44047000D01*
X179673000Y-44047000D01*
X179673000Y-44027000D01*
X178648750Y-44027000D01*
X178490000Y-44185750D01*
X178490000Y-44701310D01*
X178586673Y-44934699D01*
X178756198Y-45104223D01*
X178566007Y-45388864D01*
X178464336Y-45900000D01*
X178566007Y-46411136D01*
X178855543Y-46844457D01*
X178938669Y-46900000D01*
X178855543Y-46955543D01*
X178566007Y-47388864D01*
X178464336Y-47900000D01*
X178566007Y-48411136D01*
X178855543Y-48844457D01*
X178938669Y-48900000D01*
X178855543Y-48955543D01*
X178732293Y-49140000D01*
X176113063Y-49140000D01*
X175854737Y-48881674D01*
X175854737Y-48284035D01*
X175786424Y-47940600D01*
X175591883Y-47649450D01*
X175590700Y-47648659D01*
X175745624Y-47493734D01*
X175842297Y-47260345D01*
X175842297Y-46844786D01*
X175683547Y-46686036D01*
X174634297Y-46686036D01*
X174634297Y-46706036D01*
X174380297Y-46706036D01*
X174380297Y-46686036D01*
X174360297Y-46686036D01*
X174360297Y-46432036D01*
X174380297Y-46432036D01*
X174380297Y-45507786D01*
X174634297Y-45507786D01*
X174634297Y-46432036D01*
X175683547Y-46432036D01*
X175842297Y-46273286D01*
X175842297Y-45857727D01*
X175745624Y-45624338D01*
X175566996Y-45445709D01*
X175333607Y-45349036D01*
X174793047Y-45349036D01*
X174634297Y-45507786D01*
X174380297Y-45507786D01*
X174221547Y-45349036D01*
X173910000Y-45349036D01*
X173910000Y-44162290D01*
X173942655Y-44129635D01*
X174085000Y-43785983D01*
X174085000Y-43414017D01*
X174081629Y-43405879D01*
X174235750Y-43560000D01*
X174376309Y-43560000D01*
X174609698Y-43463327D01*
X174788327Y-43284699D01*
X174865374Y-43098690D01*
X178490000Y-43098690D01*
X178490000Y-43614250D01*
X178648750Y-43773000D01*
X179673000Y-43773000D01*
X179673000Y-42748750D01*
X179927000Y-42748750D01*
X179927000Y-43773000D01*
X180951250Y-43773000D01*
X181110000Y-43614250D01*
X181110000Y-43098690D01*
X181013327Y-42865301D01*
X180834698Y-42686673D01*
X180601309Y-42590000D01*
X180085750Y-42590000D01*
X179927000Y-42748750D01*
X179673000Y-42748750D01*
X179514250Y-42590000D01*
X178998691Y-42590000D01*
X178765302Y-42686673D01*
X178586673Y-42865301D01*
X178490000Y-43098690D01*
X174865374Y-43098690D01*
X174885000Y-43051310D01*
X174885000Y-42960382D01*
X175020000Y-42987235D01*
X175462854Y-42899146D01*
X175838289Y-42648289D01*
X176089146Y-42272855D01*
X176155000Y-41941783D01*
X176155000Y-40735000D01*
X176185983Y-40735000D01*
X176529635Y-40592655D01*
X176792655Y-40329635D01*
X176935000Y-39985983D01*
X176935000Y-39614017D01*
X176792655Y-39270365D01*
X176636300Y-39114010D01*
X178591720Y-39114010D01*
X178670365Y-39192655D01*
X179014017Y-39335000D01*
X179385983Y-39335000D01*
X179729635Y-39192655D01*
X179992655Y-38929635D01*
X180135000Y-38585983D01*
X180135000Y-38214017D01*
X179992655Y-37870365D01*
X179729635Y-37607345D01*
X179385983Y-37465000D01*
X179014017Y-37465000D01*
X178670365Y-37607345D01*
X178560700Y-37717010D01*
X176114178Y-37717010D01*
X176155000Y-37511783D01*
X176155000Y-36688218D01*
X176108362Y-36453750D01*
X184105550Y-36453750D01*
X184105551Y-118715849D01*
X183517292Y-118127590D01*
X182723401Y-117798750D01*
X181864099Y-117798750D01*
X181070208Y-118127590D01*
X180462590Y-118735208D01*
X180133750Y-119529099D01*
X180133750Y-120388401D01*
X180462590Y-121182292D01*
X181070208Y-121789910D01*
X181864099Y-122118750D01*
X182723401Y-122118750D01*
X183517292Y-121789910D01*
X184105551Y-121201651D01*
X184105551Y-142515849D01*
X183517292Y-141927590D01*
X182723401Y-141598750D01*
X181864099Y-141598750D01*
X181070208Y-141927590D01*
X180462590Y-142535208D01*
X180133750Y-143329099D01*
X180133750Y-143711460D01*
X180029635Y-143607345D01*
X179781749Y-143504667D01*
X179781749Y-136031486D01*
X180028637Y-136133750D01*
X180718863Y-136133750D01*
X181356549Y-135869612D01*
X181844612Y-135381549D01*
X182108750Y-134743863D01*
X182108750Y-134053637D01*
X181844612Y-133415951D01*
X181356549Y-132927888D01*
X180718863Y-132663750D01*
X180028637Y-132663750D01*
X179781749Y-132766014D01*
X179781749Y-128979058D01*
X179857971Y-128864984D01*
X179898499Y-128661237D01*
X179898499Y-128661233D01*
X179912182Y-128592444D01*
X179898499Y-128523655D01*
X179898499Y-117368793D01*
X179912183Y-117299999D01*
X179857971Y-117027458D01*
X179835000Y-116993079D01*
X179835000Y-116814017D01*
X179692655Y-116470365D01*
X179429635Y-116207345D01*
X179085983Y-116065000D01*
X178714017Y-116065000D01*
X178370365Y-116207345D01*
X178107345Y-116470365D01*
X177965000Y-116814017D01*
X177965000Y-117185983D01*
X178107345Y-117529635D01*
X178370365Y-117792655D01*
X178501500Y-117846973D01*
X178501499Y-126447390D01*
X178178863Y-126313750D01*
X177488637Y-126313750D01*
X176850951Y-126577888D01*
X176778750Y-126650089D01*
X176778750Y-126483365D01*
X176552672Y-125937565D01*
X176134935Y-125519828D01*
X175589135Y-125293750D01*
X174998365Y-125293750D01*
X174452565Y-125519828D01*
X174034828Y-125937565D01*
X173808750Y-126483365D01*
X173808750Y-127074135D01*
X173923121Y-127350250D01*
X170423790Y-127350250D01*
X170329635Y-127256095D01*
X169985983Y-127113750D01*
X169614017Y-127113750D01*
X169270365Y-127256095D01*
X169176210Y-127350250D01*
X165538078Y-127350250D01*
X165098500Y-126910673D01*
X165098500Y-121729953D01*
X165561142Y-122192595D01*
X166529616Y-122593750D01*
X167577884Y-122593750D01*
X168546358Y-122192595D01*
X169287595Y-121451358D01*
X169688750Y-120482884D01*
X169688750Y-119434616D01*
X169287595Y-118466142D01*
X168546358Y-117724905D01*
X167577884Y-117323750D01*
X166529616Y-117323750D01*
X165561142Y-117724905D01*
X164819905Y-118466142D01*
X164418750Y-119434616D01*
X164418750Y-120482884D01*
X164452718Y-120564890D01*
X163235310Y-119347483D01*
X163196340Y-119289160D01*
X162965291Y-119134778D01*
X162761544Y-119094250D01*
X162761540Y-119094250D01*
X162692750Y-119080567D01*
X162623960Y-119094250D01*
X154020372Y-119094250D01*
X153902612Y-118809951D01*
X153414549Y-118321888D01*
X152776863Y-118057750D01*
X152086637Y-118057750D01*
X151448951Y-118321888D01*
X150960888Y-118809951D01*
X150843128Y-119094250D01*
X134970372Y-119094250D01*
X134852612Y-118809951D01*
X134364549Y-118321888D01*
X133726863Y-118057750D01*
X133036637Y-118057750D01*
X132398951Y-118321888D01*
X131910888Y-118809951D01*
X131793128Y-119094250D01*
X115920372Y-119094250D01*
X115802612Y-118809951D01*
X115314549Y-118321888D01*
X114676863Y-118057750D01*
X113986637Y-118057750D01*
X113348951Y-118321888D01*
X112860888Y-118809951D01*
X112596750Y-119447637D01*
X112596750Y-120137863D01*
X112860888Y-120775549D01*
X113348951Y-121263612D01*
X113986637Y-121527750D01*
X114676863Y-121527750D01*
X115314549Y-121263612D01*
X115802612Y-120775549D01*
X115920372Y-120491250D01*
X116256797Y-120491250D01*
X115907905Y-120840142D01*
X115506750Y-121808616D01*
X115506750Y-122856884D01*
X115907905Y-123825358D01*
X116649142Y-124566595D01*
X117617616Y-124967750D01*
X118665884Y-124967750D01*
X119634358Y-124566595D01*
X120375595Y-123825358D01*
X120776750Y-122856884D01*
X120776750Y-121808616D01*
X120375595Y-120840142D01*
X120026703Y-120491250D01*
X131793128Y-120491250D01*
X131910888Y-120775549D01*
X132398951Y-121263612D01*
X133036637Y-121527750D01*
X133726863Y-121527750D01*
X134364549Y-121263612D01*
X134852612Y-120775549D01*
X134970372Y-120491250D01*
X135306797Y-120491250D01*
X134957905Y-120840142D01*
X134556750Y-121808616D01*
X134556750Y-122856884D01*
X134957905Y-123825358D01*
X135699142Y-124566595D01*
X136667616Y-124967750D01*
X137715884Y-124967750D01*
X138684358Y-124566595D01*
X139425595Y-123825358D01*
X139826750Y-122856884D01*
X139826750Y-121808616D01*
X139425595Y-120840142D01*
X139076703Y-120491250D01*
X150843128Y-120491250D01*
X150960888Y-120775549D01*
X151448951Y-121263612D01*
X152086637Y-121527750D01*
X152776863Y-121527750D01*
X153414549Y-121263612D01*
X153902612Y-120775549D01*
X154020372Y-120491250D01*
X154356797Y-120491250D01*
X154007905Y-120840142D01*
X153606750Y-121808616D01*
X153606750Y-122856884D01*
X154007905Y-123825358D01*
X154749142Y-124566595D01*
X155717616Y-124967750D01*
X156765884Y-124967750D01*
X157734358Y-124566595D01*
X158475595Y-123825358D01*
X158876750Y-122856884D01*
X158876750Y-121808616D01*
X158475595Y-120840142D01*
X158126703Y-120491250D01*
X162403423Y-120491250D01*
X163701501Y-121789329D01*
X163701500Y-127131210D01*
X163687817Y-127200000D01*
X163701500Y-127268790D01*
X163701500Y-127268793D01*
X163742028Y-127472540D01*
X163896410Y-127703589D01*
X163954731Y-127742558D01*
X164706191Y-128494019D01*
X164745160Y-128552340D01*
X164976209Y-128706722D01*
X165179956Y-128747250D01*
X165179960Y-128747250D01*
X165248750Y-128760933D01*
X165317540Y-128747250D01*
X169176210Y-128747250D01*
X169270365Y-128841405D01*
X169614017Y-128983750D01*
X169985983Y-128983750D01*
X170329635Y-128841405D01*
X170423790Y-128747250D01*
X176245128Y-128747250D01*
X176362888Y-129031549D01*
X176850951Y-129519612D01*
X177488637Y-129783750D01*
X178178863Y-129783750D01*
X178384750Y-129698469D01*
X178384749Y-143914459D01*
X178371066Y-143983249D01*
X178384749Y-144052039D01*
X178384749Y-144052042D01*
X178425277Y-144255789D01*
X178565000Y-144464899D01*
X178565000Y-144585983D01*
X178707345Y-144929635D01*
X178970365Y-145192655D01*
X179314017Y-145335000D01*
X179685983Y-145335000D01*
X180029635Y-145192655D01*
X180292655Y-144929635D01*
X180366717Y-144750833D01*
X180462590Y-144982292D01*
X181070208Y-145589910D01*
X181864099Y-145918750D01*
X182723401Y-145918750D01*
X183517292Y-145589910D01*
X184105551Y-145001651D01*
X184105551Y-150283750D01*
X109275550Y-150283750D01*
X109275550Y-147814017D01*
X166865000Y-147814017D01*
X166865000Y-148185983D01*
X167007345Y-148529635D01*
X167270365Y-148792655D01*
X167614017Y-148935000D01*
X167985983Y-148935000D01*
X168329635Y-148792655D01*
X168423790Y-148698500D01*
X172076210Y-148698500D01*
X172170365Y-148792655D01*
X172514017Y-148935000D01*
X172885983Y-148935000D01*
X173229635Y-148792655D01*
X173492655Y-148529635D01*
X173635000Y-148185983D01*
X173635000Y-147814017D01*
X173492655Y-147470365D01*
X173229635Y-147207345D01*
X172885983Y-147065000D01*
X172514017Y-147065000D01*
X172170365Y-147207345D01*
X172076210Y-147301500D01*
X168423790Y-147301500D01*
X168329635Y-147207345D01*
X167985983Y-147065000D01*
X167614017Y-147065000D01*
X167270365Y-147207345D01*
X167007345Y-147470365D01*
X166865000Y-147814017D01*
X109275550Y-147814017D01*
X109275550Y-138497637D01*
X112596750Y-138497637D01*
X112596750Y-139187863D01*
X112860888Y-139825549D01*
X113348951Y-140313612D01*
X113986637Y-140577750D01*
X114676863Y-140577750D01*
X115314549Y-140313612D01*
X115802612Y-139825549D01*
X115920372Y-139541250D01*
X116256797Y-139541250D01*
X115907905Y-139890142D01*
X115506750Y-140858616D01*
X115506750Y-141906884D01*
X115907905Y-142875358D01*
X116649142Y-143616595D01*
X117617616Y-144017750D01*
X118665884Y-144017750D01*
X119634358Y-143616595D01*
X120375595Y-142875358D01*
X120776750Y-141906884D01*
X120776750Y-140858616D01*
X120375595Y-139890142D01*
X120026703Y-139541250D01*
X131793128Y-139541250D01*
X131910888Y-139825549D01*
X132398951Y-140313612D01*
X133036637Y-140577750D01*
X133726863Y-140577750D01*
X134364549Y-140313612D01*
X134852612Y-139825549D01*
X134970372Y-139541250D01*
X135306797Y-139541250D01*
X134957905Y-139890142D01*
X134556750Y-140858616D01*
X134556750Y-141906884D01*
X134957905Y-142875358D01*
X135699142Y-143616595D01*
X136667616Y-144017750D01*
X137715884Y-144017750D01*
X138684358Y-143616595D01*
X139425595Y-142875358D01*
X139826750Y-141906884D01*
X139826750Y-140858616D01*
X139425595Y-139890142D01*
X139076703Y-139541250D01*
X150843128Y-139541250D01*
X150960888Y-139825549D01*
X151448951Y-140313612D01*
X152086637Y-140577750D01*
X152776863Y-140577750D01*
X153414549Y-140313612D01*
X153902612Y-139825549D01*
X154020372Y-139541250D01*
X154356797Y-139541250D01*
X154007905Y-139890142D01*
X153606750Y-140858616D01*
X153606750Y-141906884D01*
X154007905Y-142875358D01*
X154749142Y-143616595D01*
X155717616Y-144017750D01*
X156765884Y-144017750D01*
X157734358Y-143616595D01*
X158116337Y-143234616D01*
X164418750Y-143234616D01*
X164418750Y-144282884D01*
X164819905Y-145251358D01*
X165561142Y-145992595D01*
X166529616Y-146393750D01*
X167577884Y-146393750D01*
X168546358Y-145992595D01*
X169287595Y-145251358D01*
X169688750Y-144282884D01*
X169688750Y-143234616D01*
X169287595Y-142266142D01*
X168546358Y-141524905D01*
X167577884Y-141123750D01*
X166529616Y-141123750D01*
X165561142Y-141524905D01*
X164819905Y-142266142D01*
X164418750Y-143234616D01*
X158116337Y-143234616D01*
X158475595Y-142875358D01*
X158876750Y-141906884D01*
X158876750Y-140858616D01*
X158475595Y-139890142D01*
X158126703Y-139541250D01*
X162988460Y-139541250D01*
X163057250Y-139554933D01*
X163126040Y-139541250D01*
X163126044Y-139541250D01*
X163329791Y-139500722D01*
X163560840Y-139346340D01*
X163599810Y-139288017D01*
X164652828Y-138235000D01*
X164785983Y-138235000D01*
X165129635Y-138092655D01*
X165392655Y-137829635D01*
X165535000Y-137485983D01*
X165535000Y-137114017D01*
X165392655Y-136770365D01*
X165265655Y-136643365D01*
X173808750Y-136643365D01*
X173808750Y-137234135D01*
X174034828Y-137779935D01*
X174452565Y-138197672D01*
X174998365Y-138423750D01*
X175589135Y-138423750D01*
X176134935Y-138197672D01*
X176552672Y-137779935D01*
X176778750Y-137234135D01*
X176778750Y-136643365D01*
X176552672Y-136097565D01*
X176134935Y-135679828D01*
X175589135Y-135453750D01*
X174998365Y-135453750D01*
X174452565Y-135679828D01*
X174034828Y-136097565D01*
X173808750Y-136643365D01*
X165265655Y-136643365D01*
X165129635Y-136507345D01*
X164785983Y-136365000D01*
X164414017Y-136365000D01*
X164070365Y-136507345D01*
X163807345Y-136770365D01*
X163665000Y-137114017D01*
X163665000Y-137247172D01*
X162767923Y-138144250D01*
X154020372Y-138144250D01*
X153902612Y-137859951D01*
X153414549Y-137371888D01*
X152776863Y-137107750D01*
X152086637Y-137107750D01*
X151448951Y-137371888D01*
X150960888Y-137859951D01*
X150843128Y-138144250D01*
X134970372Y-138144250D01*
X134852612Y-137859951D01*
X134364549Y-137371888D01*
X133726863Y-137107750D01*
X133036637Y-137107750D01*
X132398951Y-137371888D01*
X131910888Y-137859951D01*
X131793128Y-138144250D01*
X115920372Y-138144250D01*
X115802612Y-137859951D01*
X115314549Y-137371888D01*
X114676863Y-137107750D01*
X113986637Y-137107750D01*
X113348951Y-137371888D01*
X112860888Y-137859951D01*
X112596750Y-138497637D01*
X109275550Y-138497637D01*
X109275550Y-135957637D01*
X118946750Y-135957637D01*
X118946750Y-136647863D01*
X119210888Y-137285549D01*
X119698951Y-137773612D01*
X120336637Y-138037750D01*
X121026863Y-138037750D01*
X121664549Y-137773612D01*
X122152612Y-137285549D01*
X122416750Y-136647863D01*
X122416750Y-135957637D01*
X137996750Y-135957637D01*
X137996750Y-136647863D01*
X138260888Y-137285549D01*
X138748951Y-137773612D01*
X139386637Y-138037750D01*
X140076863Y-138037750D01*
X140714549Y-137773612D01*
X141202612Y-137285549D01*
X141466750Y-136647863D01*
X141466750Y-135957637D01*
X157046750Y-135957637D01*
X157046750Y-136647863D01*
X157310888Y-137285549D01*
X157798951Y-137773612D01*
X158436637Y-138037750D01*
X159126863Y-138037750D01*
X159764549Y-137773612D01*
X160252612Y-137285549D01*
X160516750Y-136647863D01*
X160516750Y-135957637D01*
X160252612Y-135319951D01*
X159764549Y-134831888D01*
X159126863Y-134567750D01*
X158436637Y-134567750D01*
X157798951Y-134831888D01*
X157310888Y-135319951D01*
X157046750Y-135957637D01*
X141466750Y-135957637D01*
X141202612Y-135319951D01*
X140714549Y-134831888D01*
X140076863Y-134567750D01*
X139386637Y-134567750D01*
X138748951Y-134831888D01*
X138260888Y-135319951D01*
X137996750Y-135957637D01*
X122416750Y-135957637D01*
X122152612Y-135319951D01*
X121664549Y-134831888D01*
X121026863Y-134567750D01*
X120336637Y-134567750D01*
X119698951Y-134831888D01*
X119210888Y-135319951D01*
X118946750Y-135957637D01*
X109275550Y-135957637D01*
X109275550Y-131554887D01*
X144965000Y-131554887D01*
X144965000Y-132245113D01*
X145229138Y-132882799D01*
X145717201Y-133370862D01*
X146354887Y-133635000D01*
X147045113Y-133635000D01*
X147682799Y-133370862D01*
X148170862Y-132882799D01*
X148435000Y-132245113D01*
X148435000Y-131554887D01*
X148343761Y-131334616D01*
X172658750Y-131334616D01*
X172658750Y-132382884D01*
X173059905Y-133351358D01*
X173801142Y-134092595D01*
X174769616Y-134493750D01*
X175817884Y-134493750D01*
X176786358Y-134092595D01*
X177527595Y-133351358D01*
X177928750Y-132382884D01*
X177928750Y-131334616D01*
X177527595Y-130366142D01*
X176786358Y-129624905D01*
X175817884Y-129223750D01*
X174769616Y-129223750D01*
X173801142Y-129624905D01*
X173059905Y-130366142D01*
X172658750Y-131334616D01*
X148343761Y-131334616D01*
X148170862Y-130917201D01*
X147682799Y-130429138D01*
X147045113Y-130165000D01*
X146354887Y-130165000D01*
X145717201Y-130429138D01*
X145229138Y-130917201D01*
X144965000Y-131554887D01*
X109275550Y-131554887D01*
X109275550Y-116907637D01*
X118946750Y-116907637D01*
X118946750Y-117597863D01*
X119210888Y-118235549D01*
X119698951Y-118723612D01*
X120336637Y-118987750D01*
X121026863Y-118987750D01*
X121664549Y-118723612D01*
X122152612Y-118235549D01*
X122416750Y-117597863D01*
X122416750Y-116907637D01*
X137996750Y-116907637D01*
X137996750Y-117597863D01*
X138260888Y-118235549D01*
X138748951Y-118723612D01*
X139386637Y-118987750D01*
X140076863Y-118987750D01*
X140714549Y-118723612D01*
X141202612Y-118235549D01*
X141466750Y-117597863D01*
X141466750Y-116907637D01*
X157046750Y-116907637D01*
X157046750Y-117597863D01*
X157310888Y-118235549D01*
X157798951Y-118723612D01*
X158436637Y-118987750D01*
X159126863Y-118987750D01*
X159764549Y-118723612D01*
X160252612Y-118235549D01*
X160516750Y-117597863D01*
X160516750Y-116907637D01*
X160252612Y-116269951D01*
X159764549Y-115781888D01*
X159126863Y-115517750D01*
X158436637Y-115517750D01*
X157798951Y-115781888D01*
X157310888Y-116269951D01*
X157046750Y-116907637D01*
X141466750Y-116907637D01*
X141202612Y-116269951D01*
X140714549Y-115781888D01*
X140076863Y-115517750D01*
X139386637Y-115517750D01*
X138748951Y-115781888D01*
X138260888Y-116269951D01*
X137996750Y-116907637D01*
X122416750Y-116907637D01*
X122152612Y-116269951D01*
X121664549Y-115781888D01*
X121026863Y-115517750D01*
X120336637Y-115517750D01*
X119698951Y-115781888D01*
X119210888Y-116269951D01*
X118946750Y-116907637D01*
X109275550Y-116907637D01*
X109275550Y-112354887D01*
X126065000Y-112354887D01*
X126065000Y-113045113D01*
X126329138Y-113682799D01*
X126817201Y-114170862D01*
X127454887Y-114435000D01*
X128145113Y-114435000D01*
X128782799Y-114170862D01*
X129270862Y-113682799D01*
X129535000Y-113045113D01*
X129535000Y-112454887D01*
X164365000Y-112454887D01*
X164365000Y-113145113D01*
X164629138Y-113782799D01*
X165117201Y-114270862D01*
X165754887Y-114535000D01*
X166445113Y-114535000D01*
X167082799Y-114270862D01*
X167570862Y-113782799D01*
X167835000Y-113145113D01*
X167835000Y-112454887D01*
X167570862Y-111817201D01*
X167082799Y-111329138D01*
X166445113Y-111065000D01*
X165754887Y-111065000D01*
X165117201Y-111329138D01*
X164629138Y-111817201D01*
X164365000Y-112454887D01*
X129535000Y-112454887D01*
X129535000Y-112354887D01*
X129270862Y-111717201D01*
X128782799Y-111229138D01*
X128145113Y-110965000D01*
X127454887Y-110965000D01*
X126817201Y-111229138D01*
X126329138Y-111717201D01*
X126065000Y-112354887D01*
X109275550Y-112354887D01*
X109275550Y-100397637D01*
X112596750Y-100397637D01*
X112596750Y-101087863D01*
X112860888Y-101725549D01*
X113348951Y-102213612D01*
X113986637Y-102477750D01*
X114676863Y-102477750D01*
X115314549Y-102213612D01*
X115802612Y-101725549D01*
X115920372Y-101441250D01*
X116256797Y-101441250D01*
X115907905Y-101790142D01*
X115506750Y-102758616D01*
X115506750Y-103806884D01*
X115907905Y-104775358D01*
X116649142Y-105516595D01*
X117617616Y-105917750D01*
X118665884Y-105917750D01*
X119634358Y-105516595D01*
X120375595Y-104775358D01*
X120776750Y-103806884D01*
X120776750Y-102758616D01*
X120375595Y-101790142D01*
X120026703Y-101441250D01*
X131793128Y-101441250D01*
X131910888Y-101725549D01*
X132398951Y-102213612D01*
X133036637Y-102477750D01*
X133726863Y-102477750D01*
X134364549Y-102213612D01*
X134852612Y-101725549D01*
X134970372Y-101441250D01*
X135306797Y-101441250D01*
X134957905Y-101790142D01*
X134556750Y-102758616D01*
X134556750Y-103806884D01*
X134957905Y-104775358D01*
X135699142Y-105516595D01*
X136667616Y-105917750D01*
X137715884Y-105917750D01*
X138684358Y-105516595D01*
X139425595Y-104775358D01*
X139826750Y-103806884D01*
X139826750Y-102758616D01*
X139425595Y-101790142D01*
X139076703Y-101441250D01*
X150843128Y-101441250D01*
X150960888Y-101725549D01*
X151448951Y-102213612D01*
X152086637Y-102477750D01*
X152776863Y-102477750D01*
X153414549Y-102213612D01*
X153902612Y-101725549D01*
X154020372Y-101441250D01*
X154356797Y-101441250D01*
X154007905Y-101790142D01*
X153606750Y-102758616D01*
X153606750Y-103806884D01*
X154007905Y-104775358D01*
X154749142Y-105516595D01*
X155717616Y-105917750D01*
X156765884Y-105917750D01*
X157734358Y-105516595D01*
X158475595Y-104775358D01*
X158876750Y-103806884D01*
X158876750Y-102758616D01*
X172656750Y-102758616D01*
X172656750Y-103806884D01*
X173057905Y-104775358D01*
X173799142Y-105516595D01*
X174767616Y-105917750D01*
X175815884Y-105917750D01*
X176784358Y-105516595D01*
X177525595Y-104775358D01*
X177926750Y-103806884D01*
X177926750Y-102758616D01*
X177525595Y-101790142D01*
X176784358Y-101048905D01*
X175815884Y-100647750D01*
X174767616Y-100647750D01*
X173799142Y-101048905D01*
X173057905Y-101790142D01*
X172656750Y-102758616D01*
X158876750Y-102758616D01*
X158475595Y-101790142D01*
X158126703Y-101441250D01*
X168685700Y-101441250D01*
X168779855Y-101535405D01*
X169123507Y-101677750D01*
X169495473Y-101677750D01*
X169839125Y-101535405D01*
X169904888Y-101469642D01*
X170010888Y-101725549D01*
X170498951Y-102213612D01*
X171136637Y-102477750D01*
X171826863Y-102477750D01*
X172464549Y-102213612D01*
X172952612Y-101725549D01*
X173216750Y-101087863D01*
X173216750Y-100397637D01*
X172952612Y-99759951D01*
X172464549Y-99271888D01*
X171826863Y-99007750D01*
X171136637Y-99007750D01*
X170498951Y-99271888D01*
X170010888Y-99759951D01*
X169904888Y-100015858D01*
X169839125Y-99950095D01*
X169495473Y-99807750D01*
X169123507Y-99807750D01*
X168779855Y-99950095D01*
X168685700Y-100044250D01*
X154020372Y-100044250D01*
X153902612Y-99759951D01*
X153414549Y-99271888D01*
X152776863Y-99007750D01*
X152086637Y-99007750D01*
X151448951Y-99271888D01*
X150960888Y-99759951D01*
X150843128Y-100044250D01*
X134970372Y-100044250D01*
X134852612Y-99759951D01*
X134364549Y-99271888D01*
X133726863Y-99007750D01*
X133036637Y-99007750D01*
X132398951Y-99271888D01*
X131910888Y-99759951D01*
X131793128Y-100044250D01*
X115920372Y-100044250D01*
X115802612Y-99759951D01*
X115314549Y-99271888D01*
X114676863Y-99007750D01*
X113986637Y-99007750D01*
X113348951Y-99271888D01*
X112860888Y-99759951D01*
X112596750Y-100397637D01*
X109275550Y-100397637D01*
X109275550Y-97857637D01*
X118946750Y-97857637D01*
X118946750Y-98547863D01*
X119210888Y-99185549D01*
X119698951Y-99673612D01*
X120336637Y-99937750D01*
X121026863Y-99937750D01*
X121664549Y-99673612D01*
X122152612Y-99185549D01*
X122416750Y-98547863D01*
X122416750Y-97857637D01*
X137996750Y-97857637D01*
X137996750Y-98547863D01*
X138260888Y-99185549D01*
X138748951Y-99673612D01*
X139386637Y-99937750D01*
X140076863Y-99937750D01*
X140714549Y-99673612D01*
X141202612Y-99185549D01*
X141466750Y-98547863D01*
X141466750Y-97857637D01*
X157046750Y-97857637D01*
X157046750Y-98547863D01*
X157310888Y-99185549D01*
X157798951Y-99673612D01*
X158436637Y-99937750D01*
X159126863Y-99937750D01*
X159764549Y-99673612D01*
X160252612Y-99185549D01*
X160516750Y-98547863D01*
X160516750Y-97857637D01*
X176096750Y-97857637D01*
X176096750Y-98547863D01*
X176360888Y-99185549D01*
X176848951Y-99673612D01*
X177486637Y-99937750D01*
X178176863Y-99937750D01*
X178814549Y-99673612D01*
X179302612Y-99185549D01*
X179566750Y-98547863D01*
X179566750Y-97857637D01*
X179302612Y-97219951D01*
X178814549Y-96731888D01*
X178176863Y-96467750D01*
X177486637Y-96467750D01*
X176848951Y-96731888D01*
X176360888Y-97219951D01*
X176096750Y-97857637D01*
X160516750Y-97857637D01*
X160252612Y-97219951D01*
X159764549Y-96731888D01*
X159126863Y-96467750D01*
X158436637Y-96467750D01*
X157798951Y-96731888D01*
X157310888Y-97219951D01*
X157046750Y-97857637D01*
X141466750Y-97857637D01*
X141202612Y-97219951D01*
X140714549Y-96731888D01*
X140076863Y-96467750D01*
X139386637Y-96467750D01*
X138748951Y-96731888D01*
X138260888Y-97219951D01*
X137996750Y-97857637D01*
X122416750Y-97857637D01*
X122152612Y-97219951D01*
X121664549Y-96731888D01*
X121026863Y-96467750D01*
X120336637Y-96467750D01*
X119698951Y-96731888D01*
X119210888Y-97219951D01*
X118946750Y-97857637D01*
X109275550Y-97857637D01*
X109275550Y-93454887D01*
X115865000Y-93454887D01*
X115865000Y-94145113D01*
X116129138Y-94782799D01*
X116617201Y-95270862D01*
X117254887Y-95535000D01*
X117945113Y-95535000D01*
X118582799Y-95270862D01*
X119070862Y-94782799D01*
X119335000Y-94145113D01*
X119335000Y-93454887D01*
X119293579Y-93354887D01*
X171065000Y-93354887D01*
X171065000Y-94045113D01*
X171329138Y-94682799D01*
X171817201Y-95170862D01*
X172454887Y-95435000D01*
X173145113Y-95435000D01*
X173782799Y-95170862D01*
X174270862Y-94682799D01*
X174535000Y-94045113D01*
X174535000Y-93354887D01*
X174270862Y-92717201D01*
X173782799Y-92229138D01*
X173145113Y-91965000D01*
X172454887Y-91965000D01*
X171817201Y-92229138D01*
X171329138Y-92717201D01*
X171065000Y-93354887D01*
X119293579Y-93354887D01*
X119070862Y-92817201D01*
X118582799Y-92329138D01*
X117945113Y-92065000D01*
X117254887Y-92065000D01*
X116617201Y-92329138D01*
X116129138Y-92817201D01*
X115865000Y-93454887D01*
X109275550Y-93454887D01*
X109275550Y-81347637D01*
X112596750Y-81347637D01*
X112596750Y-82037863D01*
X112860888Y-82675549D01*
X113348951Y-83163612D01*
X113986637Y-83427750D01*
X114676863Y-83427750D01*
X115314549Y-83163612D01*
X115802612Y-82675549D01*
X115920372Y-82391250D01*
X116256797Y-82391250D01*
X115907905Y-82740142D01*
X115506750Y-83708616D01*
X115506750Y-84756884D01*
X115907905Y-85725358D01*
X116649142Y-86466595D01*
X117617616Y-86867750D01*
X118665884Y-86867750D01*
X119634358Y-86466595D01*
X120375595Y-85725358D01*
X120776750Y-84756884D01*
X120776750Y-83708616D01*
X120375595Y-82740142D01*
X120026703Y-82391250D01*
X131793128Y-82391250D01*
X131910888Y-82675549D01*
X132398951Y-83163612D01*
X133036637Y-83427750D01*
X133726863Y-83427750D01*
X134364549Y-83163612D01*
X134852612Y-82675549D01*
X134970372Y-82391250D01*
X135306797Y-82391250D01*
X134957905Y-82740142D01*
X134556750Y-83708616D01*
X134556750Y-84756884D01*
X134957905Y-85725358D01*
X135699142Y-86466595D01*
X136667616Y-86867750D01*
X137715884Y-86867750D01*
X138684358Y-86466595D01*
X139425595Y-85725358D01*
X139826750Y-84756884D01*
X139826750Y-83708616D01*
X139425595Y-82740142D01*
X139076703Y-82391250D01*
X150843128Y-82391250D01*
X150960888Y-82675549D01*
X151448951Y-83163612D01*
X152086637Y-83427750D01*
X152776863Y-83427750D01*
X153414549Y-83163612D01*
X153902612Y-82675549D01*
X154020372Y-82391250D01*
X154356797Y-82391250D01*
X154007905Y-82740142D01*
X153606750Y-83708616D01*
X153606750Y-84756884D01*
X154007905Y-85725358D01*
X154749142Y-86466595D01*
X155717616Y-86867750D01*
X156765884Y-86867750D01*
X157734358Y-86466595D01*
X158475595Y-85725358D01*
X158876750Y-84756884D01*
X158876750Y-83708616D01*
X172656750Y-83708616D01*
X172656750Y-84756884D01*
X173057905Y-85725358D01*
X173799142Y-86466595D01*
X174767616Y-86867750D01*
X175815884Y-86867750D01*
X176784358Y-86466595D01*
X177525595Y-85725358D01*
X177926750Y-84756884D01*
X177926750Y-83708616D01*
X177525595Y-82740142D01*
X176784358Y-81998905D01*
X175815884Y-81597750D01*
X174767616Y-81597750D01*
X173799142Y-81998905D01*
X173057905Y-82740142D01*
X172656750Y-83708616D01*
X158876750Y-83708616D01*
X158475595Y-82740142D01*
X158126703Y-82391250D01*
X168285700Y-82391250D01*
X168379855Y-82485405D01*
X168723507Y-82627750D01*
X169095473Y-82627750D01*
X169439125Y-82485405D01*
X169533280Y-82391250D01*
X169893128Y-82391250D01*
X170010888Y-82675549D01*
X170498951Y-83163612D01*
X171136637Y-83427750D01*
X171826863Y-83427750D01*
X172464549Y-83163612D01*
X172952612Y-82675549D01*
X173216750Y-82037863D01*
X173216750Y-81347637D01*
X172952612Y-80709951D01*
X172464549Y-80221888D01*
X171826863Y-79957750D01*
X171136637Y-79957750D01*
X170498951Y-80221888D01*
X170010888Y-80709951D01*
X169893128Y-80994250D01*
X169533280Y-80994250D01*
X169439125Y-80900095D01*
X169095473Y-80757750D01*
X168723507Y-80757750D01*
X168379855Y-80900095D01*
X168285700Y-80994250D01*
X154020372Y-80994250D01*
X153902612Y-80709951D01*
X153414549Y-80221888D01*
X152776863Y-79957750D01*
X152086637Y-79957750D01*
X151448951Y-80221888D01*
X150960888Y-80709951D01*
X150843128Y-80994250D01*
X134970372Y-80994250D01*
X134852612Y-80709951D01*
X134364549Y-80221888D01*
X133726863Y-79957750D01*
X133036637Y-79957750D01*
X132398951Y-80221888D01*
X131910888Y-80709951D01*
X131793128Y-80994250D01*
X115920372Y-80994250D01*
X115802612Y-80709951D01*
X115314549Y-80221888D01*
X114676863Y-79957750D01*
X113986637Y-79957750D01*
X113348951Y-80221888D01*
X112860888Y-80709951D01*
X112596750Y-81347637D01*
X109275550Y-81347637D01*
X109275550Y-78807637D01*
X118946750Y-78807637D01*
X118946750Y-79497863D01*
X119210888Y-80135549D01*
X119698951Y-80623612D01*
X120336637Y-80887750D01*
X121026863Y-80887750D01*
X121664549Y-80623612D01*
X122152612Y-80135549D01*
X122416750Y-79497863D01*
X122416750Y-78807637D01*
X137996750Y-78807637D01*
X137996750Y-79497863D01*
X138260888Y-80135549D01*
X138748951Y-80623612D01*
X139386637Y-80887750D01*
X140076863Y-80887750D01*
X140714549Y-80623612D01*
X141202612Y-80135549D01*
X141466750Y-79497863D01*
X141466750Y-78807637D01*
X157046750Y-78807637D01*
X157046750Y-79497863D01*
X157310888Y-80135549D01*
X157798951Y-80623612D01*
X158436637Y-80887750D01*
X159126863Y-80887750D01*
X159764549Y-80623612D01*
X160252612Y-80135549D01*
X160516750Y-79497863D01*
X160516750Y-78807637D01*
X176096750Y-78807637D01*
X176096750Y-79497863D01*
X176360888Y-80135549D01*
X176848951Y-80623612D01*
X177486637Y-80887750D01*
X178176863Y-80887750D01*
X178814549Y-80623612D01*
X179302612Y-80135549D01*
X179566750Y-79497863D01*
X179566750Y-78807637D01*
X179302612Y-78169951D01*
X178814549Y-77681888D01*
X178176863Y-77417750D01*
X177486637Y-77417750D01*
X176848951Y-77681888D01*
X176360888Y-78169951D01*
X176096750Y-78807637D01*
X160516750Y-78807637D01*
X160252612Y-78169951D01*
X159764549Y-77681888D01*
X159126863Y-77417750D01*
X158436637Y-77417750D01*
X157798951Y-77681888D01*
X157310888Y-78169951D01*
X157046750Y-78807637D01*
X141466750Y-78807637D01*
X141202612Y-78169951D01*
X140714549Y-77681888D01*
X140076863Y-77417750D01*
X139386637Y-77417750D01*
X138748951Y-77681888D01*
X138260888Y-78169951D01*
X137996750Y-78807637D01*
X122416750Y-78807637D01*
X122152612Y-78169951D01*
X121664549Y-77681888D01*
X121026863Y-77417750D01*
X120336637Y-77417750D01*
X119698951Y-77681888D01*
X119210888Y-78169951D01*
X118946750Y-78807637D01*
X109275550Y-78807637D01*
X109275550Y-73914017D01*
X123965000Y-73914017D01*
X123965000Y-74285983D01*
X124107345Y-74629635D01*
X124370365Y-74892655D01*
X124714017Y-75035000D01*
X125085983Y-75035000D01*
X125429635Y-74892655D01*
X125523790Y-74798500D01*
X143265000Y-74798500D01*
X143265000Y-74885983D01*
X143407345Y-75229635D01*
X143670365Y-75492655D01*
X144014017Y-75635000D01*
X144385983Y-75635000D01*
X144729635Y-75492655D01*
X144823790Y-75398500D01*
X165144550Y-75398500D01*
X165213340Y-75412183D01*
X165282130Y-75398500D01*
X165282134Y-75398500D01*
X165485881Y-75357972D01*
X165716930Y-75203590D01*
X165755900Y-75145267D01*
X166644995Y-74256173D01*
X166716845Y-74429635D01*
X166979865Y-74692655D01*
X167323517Y-74835000D01*
X167456672Y-74835000D01*
X167766941Y-75145269D01*
X167805910Y-75203590D01*
X168036959Y-75357972D01*
X168240706Y-75398500D01*
X168240710Y-75398500D01*
X168309500Y-75412183D01*
X168378290Y-75398500D01*
X171476210Y-75398500D01*
X171570365Y-75492655D01*
X171914017Y-75635000D01*
X172285983Y-75635000D01*
X172629635Y-75492655D01*
X172892655Y-75229635D01*
X173035000Y-74885983D01*
X173035000Y-74514017D01*
X172892655Y-74170365D01*
X172629635Y-73907345D01*
X172285983Y-73765000D01*
X171914017Y-73765000D01*
X171570365Y-73907345D01*
X171476210Y-74001500D01*
X168598828Y-74001500D01*
X168444500Y-73847172D01*
X168444500Y-73714017D01*
X168302155Y-73370365D01*
X168039135Y-73107345D01*
X167695483Y-72965000D01*
X167664559Y-72965000D01*
X167531820Y-72644540D01*
X167420736Y-72533456D01*
X167420736Y-72306792D01*
X167278391Y-71963140D01*
X167015371Y-71700120D01*
X166671719Y-71557775D01*
X166299753Y-71557775D01*
X165956101Y-71700120D01*
X165693081Y-71963140D01*
X165550736Y-72306792D01*
X165550736Y-72439947D01*
X164589184Y-73401500D01*
X125523790Y-73401500D01*
X125429635Y-73307345D01*
X125085983Y-73165000D01*
X124714017Y-73165000D01*
X124370365Y-73307345D01*
X124107345Y-73570365D01*
X123965000Y-73914017D01*
X109275550Y-73914017D01*
X109275550Y-62297637D01*
X112596750Y-62297637D01*
X112596750Y-62987863D01*
X112860888Y-63625549D01*
X113348951Y-64113612D01*
X113986637Y-64377750D01*
X114676863Y-64377750D01*
X115314549Y-64113612D01*
X115802612Y-63625549D01*
X115920372Y-63341250D01*
X116256797Y-63341250D01*
X115907905Y-63690142D01*
X115506750Y-64658616D01*
X115506750Y-65706884D01*
X115907905Y-66675358D01*
X116649142Y-67416595D01*
X117617616Y-67817750D01*
X118665884Y-67817750D01*
X119634358Y-67416595D01*
X120375595Y-66675358D01*
X120756866Y-65754887D01*
X125965000Y-65754887D01*
X125965000Y-66445113D01*
X126229138Y-67082799D01*
X126717201Y-67570862D01*
X127354887Y-67835000D01*
X128045113Y-67835000D01*
X128682799Y-67570862D01*
X129170862Y-67082799D01*
X129435000Y-66445113D01*
X129435000Y-65754887D01*
X129170862Y-65117201D01*
X128682799Y-64629138D01*
X128045113Y-64365000D01*
X127354887Y-64365000D01*
X126717201Y-64629138D01*
X126229138Y-65117201D01*
X125965000Y-65754887D01*
X120756866Y-65754887D01*
X120776750Y-65706884D01*
X120776750Y-64658616D01*
X120375595Y-63690142D01*
X120026703Y-63341250D01*
X131793128Y-63341250D01*
X131910888Y-63625549D01*
X132398951Y-64113612D01*
X133036637Y-64377750D01*
X133726863Y-64377750D01*
X134364549Y-64113612D01*
X134852612Y-63625549D01*
X134970372Y-63341250D01*
X135306797Y-63341250D01*
X134957905Y-63690142D01*
X134556750Y-64658616D01*
X134556750Y-65706884D01*
X134957905Y-66675358D01*
X135699142Y-67416595D01*
X136667616Y-67817750D01*
X137715884Y-67817750D01*
X138684358Y-67416595D01*
X139425595Y-66675358D01*
X139826750Y-65706884D01*
X139826750Y-64658616D01*
X139425595Y-63690142D01*
X139076703Y-63341250D01*
X150843128Y-63341250D01*
X150960888Y-63625549D01*
X151448951Y-64113612D01*
X152086637Y-64377750D01*
X152776863Y-64377750D01*
X153414549Y-64113612D01*
X153902612Y-63625549D01*
X154020372Y-63341250D01*
X154356797Y-63341250D01*
X154007905Y-63690142D01*
X153606750Y-64658616D01*
X153606750Y-65706884D01*
X154007905Y-66675358D01*
X154749142Y-67416595D01*
X155717616Y-67817750D01*
X156765884Y-67817750D01*
X157734358Y-67416595D01*
X158475595Y-66675358D01*
X158856866Y-65754887D01*
X163565000Y-65754887D01*
X163565000Y-66445113D01*
X163829138Y-67082799D01*
X164317201Y-67570862D01*
X164954887Y-67835000D01*
X165645113Y-67835000D01*
X166282799Y-67570862D01*
X166770862Y-67082799D01*
X167035000Y-66445113D01*
X167035000Y-65754887D01*
X166770862Y-65117201D01*
X166312277Y-64658616D01*
X172656750Y-64658616D01*
X172656750Y-65706884D01*
X173057905Y-66675358D01*
X173799142Y-67416595D01*
X174767616Y-67817750D01*
X175815884Y-67817750D01*
X176784358Y-67416595D01*
X177525595Y-66675358D01*
X177926750Y-65706884D01*
X177926750Y-64658616D01*
X177525595Y-63690142D01*
X176784358Y-62948905D01*
X175815884Y-62547750D01*
X174767616Y-62547750D01*
X173799142Y-62948905D01*
X173057905Y-63690142D01*
X172656750Y-64658616D01*
X166312277Y-64658616D01*
X166282799Y-64629138D01*
X165645113Y-64365000D01*
X164954887Y-64365000D01*
X164317201Y-64629138D01*
X163829138Y-65117201D01*
X163565000Y-65754887D01*
X158856866Y-65754887D01*
X158876750Y-65706884D01*
X158876750Y-64658616D01*
X158475595Y-63690142D01*
X158126703Y-63341250D01*
X167885700Y-63341250D01*
X167979855Y-63435405D01*
X168323507Y-63577750D01*
X168695473Y-63577750D01*
X169039125Y-63435405D01*
X169133280Y-63341250D01*
X169893128Y-63341250D01*
X170010888Y-63625549D01*
X170498951Y-64113612D01*
X171136637Y-64377750D01*
X171826863Y-64377750D01*
X172464549Y-64113612D01*
X172952612Y-63625549D01*
X173216750Y-62987863D01*
X173216750Y-62297637D01*
X172952612Y-61659951D01*
X172464549Y-61171888D01*
X171826863Y-60907750D01*
X171136637Y-60907750D01*
X170498951Y-61171888D01*
X170010888Y-61659951D01*
X169893128Y-61944250D01*
X169133280Y-61944250D01*
X169039125Y-61850095D01*
X168695473Y-61707750D01*
X168323507Y-61707750D01*
X167979855Y-61850095D01*
X167885700Y-61944250D01*
X154020372Y-61944250D01*
X153902612Y-61659951D01*
X153414549Y-61171888D01*
X152776863Y-60907750D01*
X152086637Y-60907750D01*
X151448951Y-61171888D01*
X150960888Y-61659951D01*
X150843128Y-61944250D01*
X134970372Y-61944250D01*
X134852612Y-61659951D01*
X134364549Y-61171888D01*
X133726863Y-60907750D01*
X133036637Y-60907750D01*
X132398951Y-61171888D01*
X131910888Y-61659951D01*
X131793128Y-61944250D01*
X115920372Y-61944250D01*
X115802612Y-61659951D01*
X115314549Y-61171888D01*
X114676863Y-60907750D01*
X113986637Y-60907750D01*
X113348951Y-61171888D01*
X112860888Y-61659951D01*
X112596750Y-62297637D01*
X109275550Y-62297637D01*
X109275550Y-59757637D01*
X118946750Y-59757637D01*
X118946750Y-60447863D01*
X119210888Y-61085549D01*
X119698951Y-61573612D01*
X120336637Y-61837750D01*
X121026863Y-61837750D01*
X121664549Y-61573612D01*
X122152612Y-61085549D01*
X122416750Y-60447863D01*
X122416750Y-59757637D01*
X137996750Y-59757637D01*
X137996750Y-60447863D01*
X138260888Y-61085549D01*
X138748951Y-61573612D01*
X139386637Y-61837750D01*
X140076863Y-61837750D01*
X140714549Y-61573612D01*
X141202612Y-61085549D01*
X141466750Y-60447863D01*
X141466750Y-59757637D01*
X157046750Y-59757637D01*
X157046750Y-60447863D01*
X157310888Y-61085549D01*
X157798951Y-61573612D01*
X158436637Y-61837750D01*
X159126863Y-61837750D01*
X159764549Y-61573612D01*
X160252612Y-61085549D01*
X160516750Y-60447863D01*
X160516750Y-59757637D01*
X176096750Y-59757637D01*
X176096750Y-60447863D01*
X176360888Y-61085549D01*
X176848951Y-61573612D01*
X177486637Y-61837750D01*
X178176863Y-61837750D01*
X178814549Y-61573612D01*
X179302612Y-61085549D01*
X179566750Y-60447863D01*
X179566750Y-59757637D01*
X179302612Y-59119951D01*
X178814549Y-58631888D01*
X178176863Y-58367750D01*
X177486637Y-58367750D01*
X176848951Y-58631888D01*
X176360888Y-59119951D01*
X176096750Y-59757637D01*
X160516750Y-59757637D01*
X160252612Y-59119951D01*
X159764549Y-58631888D01*
X159126863Y-58367750D01*
X158436637Y-58367750D01*
X157798951Y-58631888D01*
X157310888Y-59119951D01*
X157046750Y-59757637D01*
X141466750Y-59757637D01*
X141202612Y-59119951D01*
X140714549Y-58631888D01*
X140076863Y-58367750D01*
X139386637Y-58367750D01*
X138748951Y-58631888D01*
X138260888Y-59119951D01*
X137996750Y-59757637D01*
X122416750Y-59757637D01*
X122152612Y-59119951D01*
X121664549Y-58631888D01*
X121026863Y-58367750D01*
X120336637Y-58367750D01*
X119698951Y-58631888D01*
X119210888Y-59119951D01*
X118946750Y-59757637D01*
X109275550Y-59757637D01*
X109275550Y-45798691D01*
X132615000Y-45798691D01*
X132615000Y-46214250D01*
X132773750Y-46373000D01*
X133823000Y-46373000D01*
X133823000Y-45448750D01*
X134077000Y-45448750D01*
X134077000Y-46373000D01*
X135126250Y-46373000D01*
X135285000Y-46214250D01*
X135285000Y-45798691D01*
X135188327Y-45565302D01*
X135009699Y-45386673D01*
X134776310Y-45290000D01*
X134235750Y-45290000D01*
X134077000Y-45448750D01*
X133823000Y-45448750D01*
X133664250Y-45290000D01*
X133123690Y-45290000D01*
X132890301Y-45386673D01*
X132711673Y-45565302D01*
X132615000Y-45798691D01*
X109275550Y-45798691D01*
X109275550Y-43510750D01*
X132615000Y-43510750D01*
X132615000Y-43926309D01*
X132711673Y-44159698D01*
X132890301Y-44338327D01*
X133123690Y-44435000D01*
X133664250Y-44435000D01*
X133823000Y-44276250D01*
X133823000Y-43352000D01*
X134077000Y-43352000D01*
X134077000Y-44276250D01*
X134235750Y-44435000D01*
X134776310Y-44435000D01*
X135009699Y-44338327D01*
X135188327Y-44159698D01*
X135285000Y-43926309D01*
X135285000Y-43510750D01*
X135126250Y-43352000D01*
X134077000Y-43352000D01*
X133823000Y-43352000D01*
X132773750Y-43352000D01*
X132615000Y-43510750D01*
X109275550Y-43510750D01*
X109275550Y-36453750D01*
X148907360Y-36453750D01*
X148665414Y-36615414D01*
X148665414Y-36615414D01*
G37*
X148665414Y-36615414D02*
X148470873Y-36906564D01*
X148402560Y-37249999D01*
X148402560Y-38150001D01*
X148470873Y-38493436D01*
X148665414Y-38784586D01*
X148956564Y-38979127D01*
X149299999Y-39047440D01*
X149676501Y-39047440D01*
X149676500Y-40065333D01*
X149651843Y-40102235D01*
X149602560Y-40350000D01*
X149602560Y-41561612D01*
X149336613Y-41827560D01*
X148125000Y-41827560D01*
X147877235Y-41876843D01*
X147667191Y-42017191D01*
X147526843Y-42227235D01*
X147477560Y-42475000D01*
X147477560Y-42725000D01*
X147502424Y-42849999D01*
X147477560Y-42975000D01*
X147477560Y-43225000D01*
X147502424Y-43350000D01*
X147477560Y-43475000D01*
X147477560Y-43725000D01*
X147502424Y-43850000D01*
X147492180Y-43901500D01*
X141791329Y-43901500D01*
X139719560Y-41829733D01*
X139697440Y-41796628D01*
X139697440Y-40525000D01*
X139648157Y-40277235D01*
X139507809Y-40067191D01*
X139297765Y-39926843D01*
X139050000Y-39877560D01*
X136650000Y-39877560D01*
X136402235Y-39926843D01*
X136192191Y-40067191D01*
X136051843Y-40277235D01*
X136012207Y-40476500D01*
X135209039Y-40476500D01*
X135034586Y-40215414D01*
X134743436Y-40020873D01*
X134400001Y-39952560D01*
X133499999Y-39952560D01*
X133156564Y-40020873D01*
X132865414Y-40215414D01*
X132670873Y-40506564D01*
X132602560Y-40849999D01*
X132602560Y-41500001D01*
X132670873Y-41843436D01*
X132865414Y-42134586D01*
X132866597Y-42135377D01*
X132711673Y-42290302D01*
X132615000Y-42523691D01*
X132615000Y-42939250D01*
X132773750Y-43098000D01*
X133823000Y-43098000D01*
X133823000Y-43078000D01*
X134077000Y-43078000D01*
X134077000Y-43098000D01*
X135126250Y-43098000D01*
X135285000Y-42939250D01*
X135285000Y-42523691D01*
X135188327Y-42290302D01*
X135033403Y-42135377D01*
X135034586Y-42134586D01*
X135209039Y-41873500D01*
X136002560Y-41873500D01*
X136002560Y-44025000D01*
X136051843Y-44272765D01*
X136192191Y-44482809D01*
X136402235Y-44623157D01*
X136650000Y-44672440D01*
X139050000Y-44672440D01*
X139297765Y-44623157D01*
X139507809Y-44482809D01*
X139648157Y-44272765D01*
X139697440Y-44025000D01*
X139697440Y-43783268D01*
X140789172Y-44875000D01*
X139697440Y-45966733D01*
X139697440Y-45725000D01*
X139648157Y-45477235D01*
X139507809Y-45267191D01*
X139297765Y-45126843D01*
X139050000Y-45077560D01*
X136650000Y-45077560D01*
X136402235Y-45126843D01*
X136192191Y-45267191D01*
X136051843Y-45477235D01*
X136002560Y-45725000D01*
X136002560Y-47851500D01*
X135209039Y-47851500D01*
X135034586Y-47590414D01*
X135033403Y-47589623D01*
X135188327Y-47434698D01*
X135285000Y-47201309D01*
X135285000Y-46785750D01*
X135126250Y-46627000D01*
X134077000Y-46627000D01*
X134077000Y-46647000D01*
X133823000Y-46647000D01*
X133823000Y-46627000D01*
X132773750Y-46627000D01*
X132615000Y-46785750D01*
X132615000Y-47201309D01*
X132711673Y-47434698D01*
X132866597Y-47589623D01*
X132865414Y-47590414D01*
X132670873Y-47881564D01*
X132602560Y-48224999D01*
X132602560Y-48875001D01*
X132670873Y-49218436D01*
X132865414Y-49509586D01*
X133156564Y-49704127D01*
X133499999Y-49772440D01*
X134400001Y-49772440D01*
X134743436Y-49704127D01*
X135034586Y-49509586D01*
X135209039Y-49248500D01*
X136007234Y-49248500D01*
X136051843Y-49472765D01*
X136192191Y-49682809D01*
X136402235Y-49823157D01*
X136650000Y-49872440D01*
X139050000Y-49872440D01*
X139297765Y-49823157D01*
X139507809Y-49682809D01*
X139648157Y-49472765D01*
X139697440Y-49225000D01*
X139697440Y-47953372D01*
X139719560Y-47920267D01*
X141732789Y-45907039D01*
X141873750Y-46048000D01*
X142923000Y-46048000D01*
X142923000Y-46028000D01*
X143177000Y-46028000D01*
X143177000Y-46048000D01*
X144226250Y-46048000D01*
X144251250Y-46023000D01*
X145123000Y-46023000D01*
X145123000Y-46003000D01*
X145377000Y-46003000D01*
X145377000Y-46023000D01*
X145397000Y-46023000D01*
X145397000Y-46277000D01*
X145377000Y-46277000D01*
X145377000Y-46297000D01*
X145123000Y-46297000D01*
X145123000Y-46277000D01*
X144073750Y-46277000D01*
X144048750Y-46302000D01*
X143177000Y-46302000D01*
X143177000Y-46322000D01*
X142923000Y-46322000D01*
X142923000Y-46302000D01*
X141873750Y-46302000D01*
X141715000Y-46460750D01*
X141715000Y-46876309D01*
X141811673Y-47109698D01*
X141966597Y-47264623D01*
X141965414Y-47265414D01*
X141770873Y-47556564D01*
X141702560Y-47899999D01*
X141702560Y-48550001D01*
X141708302Y-48578870D01*
X140407667Y-49879506D01*
X140349347Y-49918474D01*
X140310378Y-49976795D01*
X140194964Y-50149524D01*
X140180477Y-50222355D01*
X140059500Y-50246419D01*
X139768350Y-50440960D01*
X139573809Y-50732110D01*
X139505496Y-51075545D01*
X139505496Y-51725547D01*
X139573809Y-52068982D01*
X139768350Y-52360132D01*
X139866249Y-52425546D01*
X139768350Y-52490960D01*
X139573809Y-52782110D01*
X139505496Y-53125545D01*
X139505496Y-53775547D01*
X139573809Y-54118982D01*
X139768350Y-54410132D01*
X140059500Y-54604673D01*
X140402935Y-54672986D01*
X141302937Y-54672986D01*
X141646372Y-54604673D01*
X141937522Y-54410132D01*
X142111975Y-54149046D01*
X142627193Y-54149046D01*
X142818350Y-54435132D01*
X143109500Y-54629673D01*
X143452935Y-54697986D01*
X144352937Y-54697986D01*
X144696372Y-54629673D01*
X144987522Y-54435132D01*
X145182063Y-54143982D01*
X145250376Y-53800547D01*
X145250376Y-53150545D01*
X145182063Y-52807110D01*
X144987522Y-52515960D01*
X144986339Y-52515169D01*
X145141263Y-52360244D01*
X145237936Y-52126855D01*
X145237936Y-51711296D01*
X145079186Y-51552546D01*
X144029936Y-51552546D01*
X144029936Y-51572546D01*
X143775936Y-51572546D01*
X143775936Y-51552546D01*
X142726686Y-51552546D01*
X142567936Y-51711296D01*
X142567936Y-52126855D01*
X142664609Y-52360244D01*
X142819533Y-52515169D01*
X142818350Y-52515960D01*
X142660602Y-52752046D01*
X142111975Y-52752046D01*
X141937522Y-52490960D01*
X141839623Y-52425546D01*
X141937522Y-52360132D01*
X142132063Y-52068982D01*
X142200376Y-51725547D01*
X142200376Y-51075545D01*
X142132063Y-50732110D01*
X142126803Y-50724237D01*
X142567936Y-50724237D01*
X142567936Y-51139796D01*
X142726686Y-51298546D01*
X143775936Y-51298546D01*
X143775936Y-50374296D01*
X143617186Y-50215546D01*
X143076626Y-50215546D01*
X142843237Y-50312219D01*
X142664609Y-50490848D01*
X142567936Y-50724237D01*
X142126803Y-50724237D01*
X141937522Y-50440960D01*
X141868192Y-50394635D01*
X142815388Y-49447440D01*
X143500001Y-49447440D01*
X143843436Y-49379127D01*
X144134586Y-49184586D01*
X144158352Y-49149017D01*
X144165414Y-49159586D01*
X144436721Y-49340868D01*
X144365000Y-49514017D01*
X144365000Y-49885983D01*
X144501509Y-50215546D01*
X144188686Y-50215546D01*
X144029936Y-50374296D01*
X144029936Y-51298546D01*
X145079186Y-51298546D01*
X145237936Y-51139796D01*
X145237936Y-50724237D01*
X145200973Y-50635000D01*
X145485983Y-50635000D01*
X145829635Y-50492655D01*
X146092655Y-50229635D01*
X146235000Y-49885983D01*
X146235000Y-49514017D01*
X146141602Y-49288534D01*
X146334586Y-49159586D01*
X146529127Y-48868436D01*
X146597440Y-48525001D01*
X146597440Y-47874999D01*
X146591698Y-47846130D01*
X147139329Y-47298500D01*
X147492180Y-47298500D01*
X147502424Y-47350000D01*
X147477560Y-47475000D01*
X147477560Y-47725000D01*
X147502424Y-47850000D01*
X147477560Y-47975000D01*
X147477560Y-48225000D01*
X147526843Y-48472765D01*
X147667191Y-48682809D01*
X147877235Y-48823157D01*
X148125000Y-48872440D01*
X149425000Y-48872440D01*
X149646648Y-48828352D01*
X149602560Y-49050000D01*
X149602560Y-50350000D01*
X149651843Y-50597765D01*
X149792191Y-50807809D01*
X150002235Y-50948157D01*
X150250000Y-50997440D01*
X150500000Y-50997440D01*
X150625000Y-50972576D01*
X150750000Y-50997440D01*
X150946866Y-50997440D01*
X150940000Y-51014017D01*
X150940000Y-51385983D01*
X151082345Y-51729635D01*
X151345365Y-51992655D01*
X151440000Y-52031854D01*
X151440000Y-52160975D01*
X151582345Y-52504627D01*
X151845365Y-52767647D01*
X152189017Y-52909992D01*
X152560983Y-52909992D01*
X152862719Y-52785009D01*
X152870365Y-52792655D01*
X153214017Y-52935000D01*
X153585983Y-52935000D01*
X153929635Y-52792655D01*
X154192655Y-52529635D01*
X154335000Y-52185983D01*
X154335000Y-51814017D01*
X154192655Y-51470365D01*
X154073500Y-51351210D01*
X154073500Y-50982820D01*
X154125000Y-50972576D01*
X154250000Y-50997440D01*
X154500000Y-50997440D01*
X154625000Y-50972576D01*
X154750000Y-50997440D01*
X155000000Y-50997440D01*
X155103852Y-50976783D01*
X155123690Y-50985000D01*
X155153750Y-50985000D01*
X155176397Y-50962353D01*
X155247765Y-50948157D01*
X155375000Y-50863141D01*
X155502235Y-50948157D01*
X155573603Y-50962353D01*
X155596250Y-50985000D01*
X155626310Y-50985000D01*
X155641062Y-50978889D01*
X156007441Y-51345269D01*
X156046410Y-51403590D01*
X156277459Y-51557972D01*
X156481206Y-51598500D01*
X156481210Y-51598500D01*
X156549999Y-51612183D01*
X156618788Y-51598500D01*
X157601989Y-51598500D01*
X157620873Y-51693436D01*
X157815414Y-51984586D01*
X158106564Y-52179127D01*
X158449999Y-52247440D01*
X159100001Y-52247440D01*
X159443436Y-52179127D01*
X159734586Y-51984586D01*
X159735377Y-51983403D01*
X159890302Y-52138327D01*
X160123691Y-52235000D01*
X160539250Y-52235000D01*
X160698000Y-52076250D01*
X160698000Y-51027000D01*
X160952000Y-51027000D01*
X160952000Y-52076250D01*
X161110750Y-52235000D01*
X161526309Y-52235000D01*
X161759698Y-52138327D01*
X161938327Y-51959699D01*
X162035000Y-51726310D01*
X162035000Y-51185750D01*
X161876250Y-51027000D01*
X160952000Y-51027000D01*
X160698000Y-51027000D01*
X160678000Y-51027000D01*
X160678000Y-50773000D01*
X160698000Y-50773000D01*
X160698000Y-50753000D01*
X160952000Y-50753000D01*
X160952000Y-50773000D01*
X161876250Y-50773000D01*
X162035000Y-50614250D01*
X162035000Y-50398500D01*
X164647543Y-50398500D01*
X164716333Y-50412183D01*
X164785123Y-50398500D01*
X164785127Y-50398500D01*
X164988874Y-50357972D01*
X165219923Y-50203590D01*
X165258893Y-50145267D01*
X165685237Y-49718923D01*
X165788861Y-49788163D01*
X166132296Y-49856476D01*
X167032298Y-49856476D01*
X167375733Y-49788163D01*
X167666883Y-49593622D01*
X167774518Y-49432535D01*
X167788153Y-49432535D01*
X167844487Y-49516844D01*
X168054531Y-49657192D01*
X168302296Y-49706475D01*
X169862296Y-49706475D01*
X170110061Y-49657192D01*
X170320105Y-49516844D01*
X170392882Y-49407926D01*
X170455759Y-49449939D01*
X170506530Y-49460038D01*
X170544487Y-49516844D01*
X170754531Y-49657192D01*
X171002296Y-49706475D01*
X172562296Y-49706475D01*
X172810061Y-49657192D01*
X173020105Y-49516844D01*
X173035346Y-49494035D01*
X173372873Y-49494035D01*
X173422711Y-49568622D01*
X173713861Y-49763163D01*
X174057296Y-49831476D01*
X174654935Y-49831476D01*
X175207932Y-50384473D01*
X175250332Y-50447929D01*
X175313788Y-50490329D01*
X175501723Y-50615904D01*
X175549866Y-50625480D01*
X175723409Y-50660000D01*
X175723413Y-50660000D01*
X175798261Y-50674888D01*
X175873109Y-50660000D01*
X178732293Y-50660000D01*
X178855543Y-50844457D01*
X179288864Y-51133993D01*
X179670978Y-51210000D01*
X179929022Y-51210000D01*
X180311136Y-51133993D01*
X180744457Y-50844457D01*
X181033993Y-50411136D01*
X181135664Y-49900000D01*
X181033993Y-49388864D01*
X180744457Y-48955543D01*
X180661331Y-48900000D01*
X180744457Y-48844457D01*
X181033993Y-48411136D01*
X181135664Y-47900000D01*
X181033993Y-47388864D01*
X180744457Y-46955543D01*
X180661331Y-46900000D01*
X180744457Y-46844457D01*
X181033993Y-46411136D01*
X181135664Y-45900000D01*
X181033993Y-45388864D01*
X180843802Y-45104223D01*
X181013327Y-44934699D01*
X181110000Y-44701310D01*
X181110000Y-44185750D01*
X180951250Y-44027000D01*
X179927000Y-44027000D01*
X179927000Y-44047000D01*
X179673000Y-44047000D01*
X179673000Y-44027000D01*
X178648750Y-44027000D01*
X178490000Y-44185750D01*
X178490000Y-44701310D01*
X178586673Y-44934699D01*
X178756198Y-45104223D01*
X178566007Y-45388864D01*
X178464336Y-45900000D01*
X178566007Y-46411136D01*
X178855543Y-46844457D01*
X178938669Y-46900000D01*
X178855543Y-46955543D01*
X178566007Y-47388864D01*
X178464336Y-47900000D01*
X178566007Y-48411136D01*
X178855543Y-48844457D01*
X178938669Y-48900000D01*
X178855543Y-48955543D01*
X178732293Y-49140000D01*
X176113063Y-49140000D01*
X175854737Y-48881674D01*
X175854737Y-48284035D01*
X175786424Y-47940600D01*
X175591883Y-47649450D01*
X175590700Y-47648659D01*
X175745624Y-47493734D01*
X175842297Y-47260345D01*
X175842297Y-46844786D01*
X175683547Y-46686036D01*
X174634297Y-46686036D01*
X174634297Y-46706036D01*
X174380297Y-46706036D01*
X174380297Y-46686036D01*
X174360297Y-46686036D01*
X174360297Y-46432036D01*
X174380297Y-46432036D01*
X174380297Y-45507786D01*
X174634297Y-45507786D01*
X174634297Y-46432036D01*
X175683547Y-46432036D01*
X175842297Y-46273286D01*
X175842297Y-45857727D01*
X175745624Y-45624338D01*
X175566996Y-45445709D01*
X175333607Y-45349036D01*
X174793047Y-45349036D01*
X174634297Y-45507786D01*
X174380297Y-45507786D01*
X174221547Y-45349036D01*
X173910000Y-45349036D01*
X173910000Y-44162290D01*
X173942655Y-44129635D01*
X174085000Y-43785983D01*
X174085000Y-43414017D01*
X174081629Y-43405879D01*
X174235750Y-43560000D01*
X174376309Y-43560000D01*
X174609698Y-43463327D01*
X174788327Y-43284699D01*
X174865374Y-43098690D01*
X178490000Y-43098690D01*
X178490000Y-43614250D01*
X178648750Y-43773000D01*
X179673000Y-43773000D01*
X179673000Y-42748750D01*
X179927000Y-42748750D01*
X179927000Y-43773000D01*
X180951250Y-43773000D01*
X181110000Y-43614250D01*
X181110000Y-43098690D01*
X181013327Y-42865301D01*
X180834698Y-42686673D01*
X180601309Y-42590000D01*
X180085750Y-42590000D01*
X179927000Y-42748750D01*
X179673000Y-42748750D01*
X179514250Y-42590000D01*
X178998691Y-42590000D01*
X178765302Y-42686673D01*
X178586673Y-42865301D01*
X178490000Y-43098690D01*
X174865374Y-43098690D01*
X174885000Y-43051310D01*
X174885000Y-42960382D01*
X175020000Y-42987235D01*
X175462854Y-42899146D01*
X175838289Y-42648289D01*
X176089146Y-42272855D01*
X176155000Y-41941783D01*
X176155000Y-40735000D01*
X176185983Y-40735000D01*
X176529635Y-40592655D01*
X176792655Y-40329635D01*
X176935000Y-39985983D01*
X176935000Y-39614017D01*
X176792655Y-39270365D01*
X176636300Y-39114010D01*
X178591720Y-39114010D01*
X178670365Y-39192655D01*
X179014017Y-39335000D01*
X179385983Y-39335000D01*
X179729635Y-39192655D01*
X179992655Y-38929635D01*
X180135000Y-38585983D01*
X180135000Y-38214017D01*
X179992655Y-37870365D01*
X179729635Y-37607345D01*
X179385983Y-37465000D01*
X179014017Y-37465000D01*
X178670365Y-37607345D01*
X178560700Y-37717010D01*
X176114178Y-37717010D01*
X176155000Y-37511783D01*
X176155000Y-36688218D01*
X176108362Y-36453750D01*
X184105550Y-36453750D01*
X184105551Y-118715849D01*
X183517292Y-118127590D01*
X182723401Y-117798750D01*
X181864099Y-117798750D01*
X181070208Y-118127590D01*
X180462590Y-118735208D01*
X180133750Y-119529099D01*
X180133750Y-120388401D01*
X180462590Y-121182292D01*
X181070208Y-121789910D01*
X181864099Y-122118750D01*
X182723401Y-122118750D01*
X183517292Y-121789910D01*
X184105551Y-121201651D01*
X184105551Y-142515849D01*
X183517292Y-141927590D01*
X182723401Y-141598750D01*
X181864099Y-141598750D01*
X181070208Y-141927590D01*
X180462590Y-142535208D01*
X180133750Y-143329099D01*
X180133750Y-143711460D01*
X180029635Y-143607345D01*
X179781749Y-143504667D01*
X179781749Y-136031486D01*
X180028637Y-136133750D01*
X180718863Y-136133750D01*
X181356549Y-135869612D01*
X181844612Y-135381549D01*
X182108750Y-134743863D01*
X182108750Y-134053637D01*
X181844612Y-133415951D01*
X181356549Y-132927888D01*
X180718863Y-132663750D01*
X180028637Y-132663750D01*
X179781749Y-132766014D01*
X179781749Y-128979058D01*
X179857971Y-128864984D01*
X179898499Y-128661237D01*
X179898499Y-128661233D01*
X179912182Y-128592444D01*
X179898499Y-128523655D01*
X179898499Y-117368793D01*
X179912183Y-117299999D01*
X179857971Y-117027458D01*
X179835000Y-116993079D01*
X179835000Y-116814017D01*
X179692655Y-116470365D01*
X179429635Y-116207345D01*
X179085983Y-116065000D01*
X178714017Y-116065000D01*
X178370365Y-116207345D01*
X178107345Y-116470365D01*
X177965000Y-116814017D01*
X177965000Y-117185983D01*
X178107345Y-117529635D01*
X178370365Y-117792655D01*
X178501500Y-117846973D01*
X178501499Y-126447390D01*
X178178863Y-126313750D01*
X177488637Y-126313750D01*
X176850951Y-126577888D01*
X176778750Y-126650089D01*
X176778750Y-126483365D01*
X176552672Y-125937565D01*
X176134935Y-125519828D01*
X175589135Y-125293750D01*
X174998365Y-125293750D01*
X174452565Y-125519828D01*
X174034828Y-125937565D01*
X173808750Y-126483365D01*
X173808750Y-127074135D01*
X173923121Y-127350250D01*
X170423790Y-127350250D01*
X170329635Y-127256095D01*
X169985983Y-127113750D01*
X169614017Y-127113750D01*
X169270365Y-127256095D01*
X169176210Y-127350250D01*
X165538078Y-127350250D01*
X165098500Y-126910673D01*
X165098500Y-121729953D01*
X165561142Y-122192595D01*
X166529616Y-122593750D01*
X167577884Y-122593750D01*
X168546358Y-122192595D01*
X169287595Y-121451358D01*
X169688750Y-120482884D01*
X169688750Y-119434616D01*
X169287595Y-118466142D01*
X168546358Y-117724905D01*
X167577884Y-117323750D01*
X166529616Y-117323750D01*
X165561142Y-117724905D01*
X164819905Y-118466142D01*
X164418750Y-119434616D01*
X164418750Y-120482884D01*
X164452718Y-120564890D01*
X163235310Y-119347483D01*
X163196340Y-119289160D01*
X162965291Y-119134778D01*
X162761544Y-119094250D01*
X162761540Y-119094250D01*
X162692750Y-119080567D01*
X162623960Y-119094250D01*
X154020372Y-119094250D01*
X153902612Y-118809951D01*
X153414549Y-118321888D01*
X152776863Y-118057750D01*
X152086637Y-118057750D01*
X151448951Y-118321888D01*
X150960888Y-118809951D01*
X150843128Y-119094250D01*
X134970372Y-119094250D01*
X134852612Y-118809951D01*
X134364549Y-118321888D01*
X133726863Y-118057750D01*
X133036637Y-118057750D01*
X132398951Y-118321888D01*
X131910888Y-118809951D01*
X131793128Y-119094250D01*
X115920372Y-119094250D01*
X115802612Y-118809951D01*
X115314549Y-118321888D01*
X114676863Y-118057750D01*
X113986637Y-118057750D01*
X113348951Y-118321888D01*
X112860888Y-118809951D01*
X112596750Y-119447637D01*
X112596750Y-120137863D01*
X112860888Y-120775549D01*
X113348951Y-121263612D01*
X113986637Y-121527750D01*
X114676863Y-121527750D01*
X115314549Y-121263612D01*
X115802612Y-120775549D01*
X115920372Y-120491250D01*
X116256797Y-120491250D01*
X115907905Y-120840142D01*
X115506750Y-121808616D01*
X115506750Y-122856884D01*
X115907905Y-123825358D01*
X116649142Y-124566595D01*
X117617616Y-124967750D01*
X118665884Y-124967750D01*
X119634358Y-124566595D01*
X120375595Y-123825358D01*
X120776750Y-122856884D01*
X120776750Y-121808616D01*
X120375595Y-120840142D01*
X120026703Y-120491250D01*
X131793128Y-120491250D01*
X131910888Y-120775549D01*
X132398951Y-121263612D01*
X133036637Y-121527750D01*
X133726863Y-121527750D01*
X134364549Y-121263612D01*
X134852612Y-120775549D01*
X134970372Y-120491250D01*
X135306797Y-120491250D01*
X134957905Y-120840142D01*
X134556750Y-121808616D01*
X134556750Y-122856884D01*
X134957905Y-123825358D01*
X135699142Y-124566595D01*
X136667616Y-124967750D01*
X137715884Y-124967750D01*
X138684358Y-124566595D01*
X139425595Y-123825358D01*
X139826750Y-122856884D01*
X139826750Y-121808616D01*
X139425595Y-120840142D01*
X139076703Y-120491250D01*
X150843128Y-120491250D01*
X150960888Y-120775549D01*
X151448951Y-121263612D01*
X152086637Y-121527750D01*
X152776863Y-121527750D01*
X153414549Y-121263612D01*
X153902612Y-120775549D01*
X154020372Y-120491250D01*
X154356797Y-120491250D01*
X154007905Y-120840142D01*
X153606750Y-121808616D01*
X153606750Y-122856884D01*
X154007905Y-123825358D01*
X154749142Y-124566595D01*
X155717616Y-124967750D01*
X156765884Y-124967750D01*
X157734358Y-124566595D01*
X158475595Y-123825358D01*
X158876750Y-122856884D01*
X158876750Y-121808616D01*
X158475595Y-120840142D01*
X158126703Y-120491250D01*
X162403423Y-120491250D01*
X163701501Y-121789329D01*
X163701500Y-127131210D01*
X163687817Y-127200000D01*
X163701500Y-127268790D01*
X163701500Y-127268793D01*
X163742028Y-127472540D01*
X163896410Y-127703589D01*
X163954731Y-127742558D01*
X164706191Y-128494019D01*
X164745160Y-128552340D01*
X164976209Y-128706722D01*
X165179956Y-128747250D01*
X165179960Y-128747250D01*
X165248750Y-128760933D01*
X165317540Y-128747250D01*
X169176210Y-128747250D01*
X169270365Y-128841405D01*
X169614017Y-128983750D01*
X169985983Y-128983750D01*
X170329635Y-128841405D01*
X170423790Y-128747250D01*
X176245128Y-128747250D01*
X176362888Y-129031549D01*
X176850951Y-129519612D01*
X177488637Y-129783750D01*
X178178863Y-129783750D01*
X178384750Y-129698469D01*
X178384749Y-143914459D01*
X178371066Y-143983249D01*
X178384749Y-144052039D01*
X178384749Y-144052042D01*
X178425277Y-144255789D01*
X178565000Y-144464899D01*
X178565000Y-144585983D01*
X178707345Y-144929635D01*
X178970365Y-145192655D01*
X179314017Y-145335000D01*
X179685983Y-145335000D01*
X180029635Y-145192655D01*
X180292655Y-144929635D01*
X180366717Y-144750833D01*
X180462590Y-144982292D01*
X181070208Y-145589910D01*
X181864099Y-145918750D01*
X182723401Y-145918750D01*
X183517292Y-145589910D01*
X184105551Y-145001651D01*
X184105551Y-150283750D01*
X109275550Y-150283750D01*
X109275550Y-147814017D01*
X166865000Y-147814017D01*
X166865000Y-148185983D01*
X167007345Y-148529635D01*
X167270365Y-148792655D01*
X167614017Y-148935000D01*
X167985983Y-148935000D01*
X168329635Y-148792655D01*
X168423790Y-148698500D01*
X172076210Y-148698500D01*
X172170365Y-148792655D01*
X172514017Y-148935000D01*
X172885983Y-148935000D01*
X173229635Y-148792655D01*
X173492655Y-148529635D01*
X173635000Y-148185983D01*
X173635000Y-147814017D01*
X173492655Y-147470365D01*
X173229635Y-147207345D01*
X172885983Y-147065000D01*
X172514017Y-147065000D01*
X172170365Y-147207345D01*
X172076210Y-147301500D01*
X168423790Y-147301500D01*
X168329635Y-147207345D01*
X167985983Y-147065000D01*
X167614017Y-147065000D01*
X167270365Y-147207345D01*
X167007345Y-147470365D01*
X166865000Y-147814017D01*
X109275550Y-147814017D01*
X109275550Y-138497637D01*
X112596750Y-138497637D01*
X112596750Y-139187863D01*
X112860888Y-139825549D01*
X113348951Y-140313612D01*
X113986637Y-140577750D01*
X114676863Y-140577750D01*
X115314549Y-140313612D01*
X115802612Y-139825549D01*
X115920372Y-139541250D01*
X116256797Y-139541250D01*
X115907905Y-139890142D01*
X115506750Y-140858616D01*
X115506750Y-141906884D01*
X115907905Y-142875358D01*
X116649142Y-143616595D01*
X117617616Y-144017750D01*
X118665884Y-144017750D01*
X119634358Y-143616595D01*
X120375595Y-142875358D01*
X120776750Y-141906884D01*
X120776750Y-140858616D01*
X120375595Y-139890142D01*
X120026703Y-139541250D01*
X131793128Y-139541250D01*
X131910888Y-139825549D01*
X132398951Y-140313612D01*
X133036637Y-140577750D01*
X133726863Y-140577750D01*
X134364549Y-140313612D01*
X134852612Y-139825549D01*
X134970372Y-139541250D01*
X135306797Y-139541250D01*
X134957905Y-139890142D01*
X134556750Y-140858616D01*
X134556750Y-141906884D01*
X134957905Y-142875358D01*
X135699142Y-143616595D01*
X136667616Y-144017750D01*
X137715884Y-144017750D01*
X138684358Y-143616595D01*
X139425595Y-142875358D01*
X139826750Y-141906884D01*
X139826750Y-140858616D01*
X139425595Y-139890142D01*
X139076703Y-139541250D01*
X150843128Y-139541250D01*
X150960888Y-139825549D01*
X151448951Y-140313612D01*
X152086637Y-140577750D01*
X152776863Y-140577750D01*
X153414549Y-140313612D01*
X153902612Y-139825549D01*
X154020372Y-139541250D01*
X154356797Y-139541250D01*
X154007905Y-139890142D01*
X153606750Y-140858616D01*
X153606750Y-141906884D01*
X154007905Y-142875358D01*
X154749142Y-143616595D01*
X155717616Y-144017750D01*
X156765884Y-144017750D01*
X157734358Y-143616595D01*
X158116337Y-143234616D01*
X164418750Y-143234616D01*
X164418750Y-144282884D01*
X164819905Y-145251358D01*
X165561142Y-145992595D01*
X166529616Y-146393750D01*
X167577884Y-146393750D01*
X168546358Y-145992595D01*
X169287595Y-145251358D01*
X169688750Y-144282884D01*
X169688750Y-143234616D01*
X169287595Y-142266142D01*
X168546358Y-141524905D01*
X167577884Y-141123750D01*
X166529616Y-141123750D01*
X165561142Y-141524905D01*
X164819905Y-142266142D01*
X164418750Y-143234616D01*
X158116337Y-143234616D01*
X158475595Y-142875358D01*
X158876750Y-141906884D01*
X158876750Y-140858616D01*
X158475595Y-139890142D01*
X158126703Y-139541250D01*
X162988460Y-139541250D01*
X163057250Y-139554933D01*
X163126040Y-139541250D01*
X163126044Y-139541250D01*
X163329791Y-139500722D01*
X163560840Y-139346340D01*
X163599810Y-139288017D01*
X164652828Y-138235000D01*
X164785983Y-138235000D01*
X165129635Y-138092655D01*
X165392655Y-137829635D01*
X165535000Y-137485983D01*
X165535000Y-137114017D01*
X165392655Y-136770365D01*
X165265655Y-136643365D01*
X173808750Y-136643365D01*
X173808750Y-137234135D01*
X174034828Y-137779935D01*
X174452565Y-138197672D01*
X174998365Y-138423750D01*
X175589135Y-138423750D01*
X176134935Y-138197672D01*
X176552672Y-137779935D01*
X176778750Y-137234135D01*
X176778750Y-136643365D01*
X176552672Y-136097565D01*
X176134935Y-135679828D01*
X175589135Y-135453750D01*
X174998365Y-135453750D01*
X174452565Y-135679828D01*
X174034828Y-136097565D01*
X173808750Y-136643365D01*
X165265655Y-136643365D01*
X165129635Y-136507345D01*
X164785983Y-136365000D01*
X164414017Y-136365000D01*
X164070365Y-136507345D01*
X163807345Y-136770365D01*
X163665000Y-137114017D01*
X163665000Y-137247172D01*
X162767923Y-138144250D01*
X154020372Y-138144250D01*
X153902612Y-137859951D01*
X153414549Y-137371888D01*
X152776863Y-137107750D01*
X152086637Y-137107750D01*
X151448951Y-137371888D01*
X150960888Y-137859951D01*
X150843128Y-138144250D01*
X134970372Y-138144250D01*
X134852612Y-137859951D01*
X134364549Y-137371888D01*
X133726863Y-137107750D01*
X133036637Y-137107750D01*
X132398951Y-137371888D01*
X131910888Y-137859951D01*
X131793128Y-138144250D01*
X115920372Y-138144250D01*
X115802612Y-137859951D01*
X115314549Y-137371888D01*
X114676863Y-137107750D01*
X113986637Y-137107750D01*
X113348951Y-137371888D01*
X112860888Y-137859951D01*
X112596750Y-138497637D01*
X109275550Y-138497637D01*
X109275550Y-135957637D01*
X118946750Y-135957637D01*
X118946750Y-136647863D01*
X119210888Y-137285549D01*
X119698951Y-137773612D01*
X120336637Y-138037750D01*
X121026863Y-138037750D01*
X121664549Y-137773612D01*
X122152612Y-137285549D01*
X122416750Y-136647863D01*
X122416750Y-135957637D01*
X137996750Y-135957637D01*
X137996750Y-136647863D01*
X138260888Y-137285549D01*
X138748951Y-137773612D01*
X139386637Y-138037750D01*
X140076863Y-138037750D01*
X140714549Y-137773612D01*
X141202612Y-137285549D01*
X141466750Y-136647863D01*
X141466750Y-135957637D01*
X157046750Y-135957637D01*
X157046750Y-136647863D01*
X157310888Y-137285549D01*
X157798951Y-137773612D01*
X158436637Y-138037750D01*
X159126863Y-138037750D01*
X159764549Y-137773612D01*
X160252612Y-137285549D01*
X160516750Y-136647863D01*
X160516750Y-135957637D01*
X160252612Y-135319951D01*
X159764549Y-134831888D01*
X159126863Y-134567750D01*
X158436637Y-134567750D01*
X157798951Y-134831888D01*
X157310888Y-135319951D01*
X157046750Y-135957637D01*
X141466750Y-135957637D01*
X141202612Y-135319951D01*
X140714549Y-134831888D01*
X140076863Y-134567750D01*
X139386637Y-134567750D01*
X138748951Y-134831888D01*
X138260888Y-135319951D01*
X137996750Y-135957637D01*
X122416750Y-135957637D01*
X122152612Y-135319951D01*
X121664549Y-134831888D01*
X121026863Y-134567750D01*
X120336637Y-134567750D01*
X119698951Y-134831888D01*
X119210888Y-135319951D01*
X118946750Y-135957637D01*
X109275550Y-135957637D01*
X109275550Y-131554887D01*
X144965000Y-131554887D01*
X144965000Y-132245113D01*
X145229138Y-132882799D01*
X145717201Y-133370862D01*
X146354887Y-133635000D01*
X147045113Y-133635000D01*
X147682799Y-133370862D01*
X148170862Y-132882799D01*
X148435000Y-132245113D01*
X148435000Y-131554887D01*
X148343761Y-131334616D01*
X172658750Y-131334616D01*
X172658750Y-132382884D01*
X173059905Y-133351358D01*
X173801142Y-134092595D01*
X174769616Y-134493750D01*
X175817884Y-134493750D01*
X176786358Y-134092595D01*
X177527595Y-133351358D01*
X177928750Y-132382884D01*
X177928750Y-131334616D01*
X177527595Y-130366142D01*
X176786358Y-129624905D01*
X175817884Y-129223750D01*
X174769616Y-129223750D01*
X173801142Y-129624905D01*
X173059905Y-130366142D01*
X172658750Y-131334616D01*
X148343761Y-131334616D01*
X148170862Y-130917201D01*
X147682799Y-130429138D01*
X147045113Y-130165000D01*
X146354887Y-130165000D01*
X145717201Y-130429138D01*
X145229138Y-130917201D01*
X144965000Y-131554887D01*
X109275550Y-131554887D01*
X109275550Y-116907637D01*
X118946750Y-116907637D01*
X118946750Y-117597863D01*
X119210888Y-118235549D01*
X119698951Y-118723612D01*
X120336637Y-118987750D01*
X121026863Y-118987750D01*
X121664549Y-118723612D01*
X122152612Y-118235549D01*
X122416750Y-117597863D01*
X122416750Y-116907637D01*
X137996750Y-116907637D01*
X137996750Y-117597863D01*
X138260888Y-118235549D01*
X138748951Y-118723612D01*
X139386637Y-118987750D01*
X140076863Y-118987750D01*
X140714549Y-118723612D01*
X141202612Y-118235549D01*
X141466750Y-117597863D01*
X141466750Y-116907637D01*
X157046750Y-116907637D01*
X157046750Y-117597863D01*
X157310888Y-118235549D01*
X157798951Y-118723612D01*
X158436637Y-118987750D01*
X159126863Y-118987750D01*
X159764549Y-118723612D01*
X160252612Y-118235549D01*
X160516750Y-117597863D01*
X160516750Y-116907637D01*
X160252612Y-116269951D01*
X159764549Y-115781888D01*
X159126863Y-115517750D01*
X158436637Y-115517750D01*
X157798951Y-115781888D01*
X157310888Y-116269951D01*
X157046750Y-116907637D01*
X141466750Y-116907637D01*
X141202612Y-116269951D01*
X140714549Y-115781888D01*
X140076863Y-115517750D01*
X139386637Y-115517750D01*
X138748951Y-115781888D01*
X138260888Y-116269951D01*
X137996750Y-116907637D01*
X122416750Y-116907637D01*
X122152612Y-116269951D01*
X121664549Y-115781888D01*
X121026863Y-115517750D01*
X120336637Y-115517750D01*
X119698951Y-115781888D01*
X119210888Y-116269951D01*
X118946750Y-116907637D01*
X109275550Y-116907637D01*
X109275550Y-112354887D01*
X126065000Y-112354887D01*
X126065000Y-113045113D01*
X126329138Y-113682799D01*
X126817201Y-114170862D01*
X127454887Y-114435000D01*
X128145113Y-114435000D01*
X128782799Y-114170862D01*
X129270862Y-113682799D01*
X129535000Y-113045113D01*
X129535000Y-112454887D01*
X164365000Y-112454887D01*
X164365000Y-113145113D01*
X164629138Y-113782799D01*
X165117201Y-114270862D01*
X165754887Y-114535000D01*
X166445113Y-114535000D01*
X167082799Y-114270862D01*
X167570862Y-113782799D01*
X167835000Y-113145113D01*
X167835000Y-112454887D01*
X167570862Y-111817201D01*
X167082799Y-111329138D01*
X166445113Y-111065000D01*
X165754887Y-111065000D01*
X165117201Y-111329138D01*
X164629138Y-111817201D01*
X164365000Y-112454887D01*
X129535000Y-112454887D01*
X129535000Y-112354887D01*
X129270862Y-111717201D01*
X128782799Y-111229138D01*
X128145113Y-110965000D01*
X127454887Y-110965000D01*
X126817201Y-111229138D01*
X126329138Y-111717201D01*
X126065000Y-112354887D01*
X109275550Y-112354887D01*
X109275550Y-100397637D01*
X112596750Y-100397637D01*
X112596750Y-101087863D01*
X112860888Y-101725549D01*
X113348951Y-102213612D01*
X113986637Y-102477750D01*
X114676863Y-102477750D01*
X115314549Y-102213612D01*
X115802612Y-101725549D01*
X115920372Y-101441250D01*
X116256797Y-101441250D01*
X115907905Y-101790142D01*
X115506750Y-102758616D01*
X115506750Y-103806884D01*
X115907905Y-104775358D01*
X116649142Y-105516595D01*
X117617616Y-105917750D01*
X118665884Y-105917750D01*
X119634358Y-105516595D01*
X120375595Y-104775358D01*
X120776750Y-103806884D01*
X120776750Y-102758616D01*
X120375595Y-101790142D01*
X120026703Y-101441250D01*
X131793128Y-101441250D01*
X131910888Y-101725549D01*
X132398951Y-102213612D01*
X133036637Y-102477750D01*
X133726863Y-102477750D01*
X134364549Y-102213612D01*
X134852612Y-101725549D01*
X134970372Y-101441250D01*
X135306797Y-101441250D01*
X134957905Y-101790142D01*
X134556750Y-102758616D01*
X134556750Y-103806884D01*
X134957905Y-104775358D01*
X135699142Y-105516595D01*
X136667616Y-105917750D01*
X137715884Y-105917750D01*
X138684358Y-105516595D01*
X139425595Y-104775358D01*
X139826750Y-103806884D01*
X139826750Y-102758616D01*
X139425595Y-101790142D01*
X139076703Y-101441250D01*
X150843128Y-101441250D01*
X150960888Y-101725549D01*
X151448951Y-102213612D01*
X152086637Y-102477750D01*
X152776863Y-102477750D01*
X153414549Y-102213612D01*
X153902612Y-101725549D01*
X154020372Y-101441250D01*
X154356797Y-101441250D01*
X154007905Y-101790142D01*
X153606750Y-102758616D01*
X153606750Y-103806884D01*
X154007905Y-104775358D01*
X154749142Y-105516595D01*
X155717616Y-105917750D01*
X156765884Y-105917750D01*
X157734358Y-105516595D01*
X158475595Y-104775358D01*
X158876750Y-103806884D01*
X158876750Y-102758616D01*
X172656750Y-102758616D01*
X172656750Y-103806884D01*
X173057905Y-104775358D01*
X173799142Y-105516595D01*
X174767616Y-105917750D01*
X175815884Y-105917750D01*
X176784358Y-105516595D01*
X177525595Y-104775358D01*
X177926750Y-103806884D01*
X177926750Y-102758616D01*
X177525595Y-101790142D01*
X176784358Y-101048905D01*
X175815884Y-100647750D01*
X174767616Y-100647750D01*
X173799142Y-101048905D01*
X173057905Y-101790142D01*
X172656750Y-102758616D01*
X158876750Y-102758616D01*
X158475595Y-101790142D01*
X158126703Y-101441250D01*
X168685700Y-101441250D01*
X168779855Y-101535405D01*
X169123507Y-101677750D01*
X169495473Y-101677750D01*
X169839125Y-101535405D01*
X169904888Y-101469642D01*
X170010888Y-101725549D01*
X170498951Y-102213612D01*
X171136637Y-102477750D01*
X171826863Y-102477750D01*
X172464549Y-102213612D01*
X172952612Y-101725549D01*
X173216750Y-101087863D01*
X173216750Y-100397637D01*
X172952612Y-99759951D01*
X172464549Y-99271888D01*
X171826863Y-99007750D01*
X171136637Y-99007750D01*
X170498951Y-99271888D01*
X170010888Y-99759951D01*
X169904888Y-100015858D01*
X169839125Y-99950095D01*
X169495473Y-99807750D01*
X169123507Y-99807750D01*
X168779855Y-99950095D01*
X168685700Y-100044250D01*
X154020372Y-100044250D01*
X153902612Y-99759951D01*
X153414549Y-99271888D01*
X152776863Y-99007750D01*
X152086637Y-99007750D01*
X151448951Y-99271888D01*
X150960888Y-99759951D01*
X150843128Y-100044250D01*
X134970372Y-100044250D01*
X134852612Y-99759951D01*
X134364549Y-99271888D01*
X133726863Y-99007750D01*
X133036637Y-99007750D01*
X132398951Y-99271888D01*
X131910888Y-99759951D01*
X131793128Y-100044250D01*
X115920372Y-100044250D01*
X115802612Y-99759951D01*
X115314549Y-99271888D01*
X114676863Y-99007750D01*
X113986637Y-99007750D01*
X113348951Y-99271888D01*
X112860888Y-99759951D01*
X112596750Y-100397637D01*
X109275550Y-100397637D01*
X109275550Y-97857637D01*
X118946750Y-97857637D01*
X118946750Y-98547863D01*
X119210888Y-99185549D01*
X119698951Y-99673612D01*
X120336637Y-99937750D01*
X121026863Y-99937750D01*
X121664549Y-99673612D01*
X122152612Y-99185549D01*
X122416750Y-98547863D01*
X122416750Y-97857637D01*
X137996750Y-97857637D01*
X137996750Y-98547863D01*
X138260888Y-99185549D01*
X138748951Y-99673612D01*
X139386637Y-99937750D01*
X140076863Y-99937750D01*
X140714549Y-99673612D01*
X141202612Y-99185549D01*
X141466750Y-98547863D01*
X141466750Y-97857637D01*
X157046750Y-97857637D01*
X157046750Y-98547863D01*
X157310888Y-99185549D01*
X157798951Y-99673612D01*
X158436637Y-99937750D01*
X159126863Y-99937750D01*
X159764549Y-99673612D01*
X160252612Y-99185549D01*
X160516750Y-98547863D01*
X160516750Y-97857637D01*
X176096750Y-97857637D01*
X176096750Y-98547863D01*
X176360888Y-99185549D01*
X176848951Y-99673612D01*
X177486637Y-99937750D01*
X178176863Y-99937750D01*
X178814549Y-99673612D01*
X179302612Y-99185549D01*
X179566750Y-98547863D01*
X179566750Y-97857637D01*
X179302612Y-97219951D01*
X178814549Y-96731888D01*
X178176863Y-96467750D01*
X177486637Y-96467750D01*
X176848951Y-96731888D01*
X176360888Y-97219951D01*
X176096750Y-97857637D01*
X160516750Y-97857637D01*
X160252612Y-97219951D01*
X159764549Y-96731888D01*
X159126863Y-96467750D01*
X158436637Y-96467750D01*
X157798951Y-96731888D01*
X157310888Y-97219951D01*
X157046750Y-97857637D01*
X141466750Y-97857637D01*
X141202612Y-97219951D01*
X140714549Y-96731888D01*
X140076863Y-96467750D01*
X139386637Y-96467750D01*
X138748951Y-96731888D01*
X138260888Y-97219951D01*
X137996750Y-97857637D01*
X122416750Y-97857637D01*
X122152612Y-97219951D01*
X121664549Y-96731888D01*
X121026863Y-96467750D01*
X120336637Y-96467750D01*
X119698951Y-96731888D01*
X119210888Y-97219951D01*
X118946750Y-97857637D01*
X109275550Y-97857637D01*
X109275550Y-93454887D01*
X115865000Y-93454887D01*
X115865000Y-94145113D01*
X116129138Y-94782799D01*
X116617201Y-95270862D01*
X117254887Y-95535000D01*
X117945113Y-95535000D01*
X118582799Y-95270862D01*
X119070862Y-94782799D01*
X119335000Y-94145113D01*
X119335000Y-93454887D01*
X119293579Y-93354887D01*
X171065000Y-93354887D01*
X171065000Y-94045113D01*
X171329138Y-94682799D01*
X171817201Y-95170862D01*
X172454887Y-95435000D01*
X173145113Y-95435000D01*
X173782799Y-95170862D01*
X174270862Y-94682799D01*
X174535000Y-94045113D01*
X174535000Y-93354887D01*
X174270862Y-92717201D01*
X173782799Y-92229138D01*
X173145113Y-91965000D01*
X172454887Y-91965000D01*
X171817201Y-92229138D01*
X171329138Y-92717201D01*
X171065000Y-93354887D01*
X119293579Y-93354887D01*
X119070862Y-92817201D01*
X118582799Y-92329138D01*
X117945113Y-92065000D01*
X117254887Y-92065000D01*
X116617201Y-92329138D01*
X116129138Y-92817201D01*
X115865000Y-93454887D01*
X109275550Y-93454887D01*
X109275550Y-81347637D01*
X112596750Y-81347637D01*
X112596750Y-82037863D01*
X112860888Y-82675549D01*
X113348951Y-83163612D01*
X113986637Y-83427750D01*
X114676863Y-83427750D01*
X115314549Y-83163612D01*
X115802612Y-82675549D01*
X115920372Y-82391250D01*
X116256797Y-82391250D01*
X115907905Y-82740142D01*
X115506750Y-83708616D01*
X115506750Y-84756884D01*
X115907905Y-85725358D01*
X116649142Y-86466595D01*
X117617616Y-86867750D01*
X118665884Y-86867750D01*
X119634358Y-86466595D01*
X120375595Y-85725358D01*
X120776750Y-84756884D01*
X120776750Y-83708616D01*
X120375595Y-82740142D01*
X120026703Y-82391250D01*
X131793128Y-82391250D01*
X131910888Y-82675549D01*
X132398951Y-83163612D01*
X133036637Y-83427750D01*
X133726863Y-83427750D01*
X134364549Y-83163612D01*
X134852612Y-82675549D01*
X134970372Y-82391250D01*
X135306797Y-82391250D01*
X134957905Y-82740142D01*
X134556750Y-83708616D01*
X134556750Y-84756884D01*
X134957905Y-85725358D01*
X135699142Y-86466595D01*
X136667616Y-86867750D01*
X137715884Y-86867750D01*
X138684358Y-86466595D01*
X139425595Y-85725358D01*
X139826750Y-84756884D01*
X139826750Y-83708616D01*
X139425595Y-82740142D01*
X139076703Y-82391250D01*
X150843128Y-82391250D01*
X150960888Y-82675549D01*
X151448951Y-83163612D01*
X152086637Y-83427750D01*
X152776863Y-83427750D01*
X153414549Y-83163612D01*
X153902612Y-82675549D01*
X154020372Y-82391250D01*
X154356797Y-82391250D01*
X154007905Y-82740142D01*
X153606750Y-83708616D01*
X153606750Y-84756884D01*
X154007905Y-85725358D01*
X154749142Y-86466595D01*
X155717616Y-86867750D01*
X156765884Y-86867750D01*
X157734358Y-86466595D01*
X158475595Y-85725358D01*
X158876750Y-84756884D01*
X158876750Y-83708616D01*
X172656750Y-83708616D01*
X172656750Y-84756884D01*
X173057905Y-85725358D01*
X173799142Y-86466595D01*
X174767616Y-86867750D01*
X175815884Y-86867750D01*
X176784358Y-86466595D01*
X177525595Y-85725358D01*
X177926750Y-84756884D01*
X177926750Y-83708616D01*
X177525595Y-82740142D01*
X176784358Y-81998905D01*
X175815884Y-81597750D01*
X174767616Y-81597750D01*
X173799142Y-81998905D01*
X173057905Y-82740142D01*
X172656750Y-83708616D01*
X158876750Y-83708616D01*
X158475595Y-82740142D01*
X158126703Y-82391250D01*
X168285700Y-82391250D01*
X168379855Y-82485405D01*
X168723507Y-82627750D01*
X169095473Y-82627750D01*
X169439125Y-82485405D01*
X169533280Y-82391250D01*
X169893128Y-82391250D01*
X170010888Y-82675549D01*
X170498951Y-83163612D01*
X171136637Y-83427750D01*
X171826863Y-83427750D01*
X172464549Y-83163612D01*
X172952612Y-82675549D01*
X173216750Y-82037863D01*
X173216750Y-81347637D01*
X172952612Y-80709951D01*
X172464549Y-80221888D01*
X171826863Y-79957750D01*
X171136637Y-79957750D01*
X170498951Y-80221888D01*
X170010888Y-80709951D01*
X169893128Y-80994250D01*
X169533280Y-80994250D01*
X169439125Y-80900095D01*
X169095473Y-80757750D01*
X168723507Y-80757750D01*
X168379855Y-80900095D01*
X168285700Y-80994250D01*
X154020372Y-80994250D01*
X153902612Y-80709951D01*
X153414549Y-80221888D01*
X152776863Y-79957750D01*
X152086637Y-79957750D01*
X151448951Y-80221888D01*
X150960888Y-80709951D01*
X150843128Y-80994250D01*
X134970372Y-80994250D01*
X134852612Y-80709951D01*
X134364549Y-80221888D01*
X133726863Y-79957750D01*
X133036637Y-79957750D01*
X132398951Y-80221888D01*
X131910888Y-80709951D01*
X131793128Y-80994250D01*
X115920372Y-80994250D01*
X115802612Y-80709951D01*
X115314549Y-80221888D01*
X114676863Y-79957750D01*
X113986637Y-79957750D01*
X113348951Y-80221888D01*
X112860888Y-80709951D01*
X112596750Y-81347637D01*
X109275550Y-81347637D01*
X109275550Y-78807637D01*
X118946750Y-78807637D01*
X118946750Y-79497863D01*
X119210888Y-80135549D01*
X119698951Y-80623612D01*
X120336637Y-80887750D01*
X121026863Y-80887750D01*
X121664549Y-80623612D01*
X122152612Y-80135549D01*
X122416750Y-79497863D01*
X122416750Y-78807637D01*
X137996750Y-78807637D01*
X137996750Y-79497863D01*
X138260888Y-80135549D01*
X138748951Y-80623612D01*
X139386637Y-80887750D01*
X140076863Y-80887750D01*
X140714549Y-80623612D01*
X141202612Y-80135549D01*
X141466750Y-79497863D01*
X141466750Y-78807637D01*
X157046750Y-78807637D01*
X157046750Y-79497863D01*
X157310888Y-80135549D01*
X157798951Y-80623612D01*
X158436637Y-80887750D01*
X159126863Y-80887750D01*
X159764549Y-80623612D01*
X160252612Y-80135549D01*
X160516750Y-79497863D01*
X160516750Y-78807637D01*
X176096750Y-78807637D01*
X176096750Y-79497863D01*
X176360888Y-80135549D01*
X176848951Y-80623612D01*
X177486637Y-80887750D01*
X178176863Y-80887750D01*
X178814549Y-80623612D01*
X179302612Y-80135549D01*
X179566750Y-79497863D01*
X179566750Y-78807637D01*
X179302612Y-78169951D01*
X178814549Y-77681888D01*
X178176863Y-77417750D01*
X177486637Y-77417750D01*
X176848951Y-77681888D01*
X176360888Y-78169951D01*
X176096750Y-78807637D01*
X160516750Y-78807637D01*
X160252612Y-78169951D01*
X159764549Y-77681888D01*
X159126863Y-77417750D01*
X158436637Y-77417750D01*
X157798951Y-77681888D01*
X157310888Y-78169951D01*
X157046750Y-78807637D01*
X141466750Y-78807637D01*
X141202612Y-78169951D01*
X140714549Y-77681888D01*
X140076863Y-77417750D01*
X139386637Y-77417750D01*
X138748951Y-77681888D01*
X138260888Y-78169951D01*
X137996750Y-78807637D01*
X122416750Y-78807637D01*
X122152612Y-78169951D01*
X121664549Y-77681888D01*
X121026863Y-77417750D01*
X120336637Y-77417750D01*
X119698951Y-77681888D01*
X119210888Y-78169951D01*
X118946750Y-78807637D01*
X109275550Y-78807637D01*
X109275550Y-73914017D01*
X123965000Y-73914017D01*
X123965000Y-74285983D01*
X124107345Y-74629635D01*
X124370365Y-74892655D01*
X124714017Y-75035000D01*
X125085983Y-75035000D01*
X125429635Y-74892655D01*
X125523790Y-74798500D01*
X143265000Y-74798500D01*
X143265000Y-74885983D01*
X143407345Y-75229635D01*
X143670365Y-75492655D01*
X144014017Y-75635000D01*
X144385983Y-75635000D01*
X144729635Y-75492655D01*
X144823790Y-75398500D01*
X165144550Y-75398500D01*
X165213340Y-75412183D01*
X165282130Y-75398500D01*
X165282134Y-75398500D01*
X165485881Y-75357972D01*
X165716930Y-75203590D01*
X165755900Y-75145267D01*
X166644995Y-74256173D01*
X166716845Y-74429635D01*
X166979865Y-74692655D01*
X167323517Y-74835000D01*
X167456672Y-74835000D01*
X167766941Y-75145269D01*
X167805910Y-75203590D01*
X168036959Y-75357972D01*
X168240706Y-75398500D01*
X168240710Y-75398500D01*
X168309500Y-75412183D01*
X168378290Y-75398500D01*
X171476210Y-75398500D01*
X171570365Y-75492655D01*
X171914017Y-75635000D01*
X172285983Y-75635000D01*
X172629635Y-75492655D01*
X172892655Y-75229635D01*
X173035000Y-74885983D01*
X173035000Y-74514017D01*
X172892655Y-74170365D01*
X172629635Y-73907345D01*
X172285983Y-73765000D01*
X171914017Y-73765000D01*
X171570365Y-73907345D01*
X171476210Y-74001500D01*
X168598828Y-74001500D01*
X168444500Y-73847172D01*
X168444500Y-73714017D01*
X168302155Y-73370365D01*
X168039135Y-73107345D01*
X167695483Y-72965000D01*
X167664559Y-72965000D01*
X167531820Y-72644540D01*
X167420736Y-72533456D01*
X167420736Y-72306792D01*
X167278391Y-71963140D01*
X167015371Y-71700120D01*
X166671719Y-71557775D01*
X166299753Y-71557775D01*
X165956101Y-71700120D01*
X165693081Y-71963140D01*
X165550736Y-72306792D01*
X165550736Y-72439947D01*
X164589184Y-73401500D01*
X125523790Y-73401500D01*
X125429635Y-73307345D01*
X125085983Y-73165000D01*
X124714017Y-73165000D01*
X124370365Y-73307345D01*
X124107345Y-73570365D01*
X123965000Y-73914017D01*
X109275550Y-73914017D01*
X109275550Y-62297637D01*
X112596750Y-62297637D01*
X112596750Y-62987863D01*
X112860888Y-63625549D01*
X113348951Y-64113612D01*
X113986637Y-64377750D01*
X114676863Y-64377750D01*
X115314549Y-64113612D01*
X115802612Y-63625549D01*
X115920372Y-63341250D01*
X116256797Y-63341250D01*
X115907905Y-63690142D01*
X115506750Y-64658616D01*
X115506750Y-65706884D01*
X115907905Y-66675358D01*
X116649142Y-67416595D01*
X117617616Y-67817750D01*
X118665884Y-67817750D01*
X119634358Y-67416595D01*
X120375595Y-66675358D01*
X120756866Y-65754887D01*
X125965000Y-65754887D01*
X125965000Y-66445113D01*
X126229138Y-67082799D01*
X126717201Y-67570862D01*
X127354887Y-67835000D01*
X128045113Y-67835000D01*
X128682799Y-67570862D01*
X129170862Y-67082799D01*
X129435000Y-66445113D01*
X129435000Y-65754887D01*
X129170862Y-65117201D01*
X128682799Y-64629138D01*
X128045113Y-64365000D01*
X127354887Y-64365000D01*
X126717201Y-64629138D01*
X126229138Y-65117201D01*
X125965000Y-65754887D01*
X120756866Y-65754887D01*
X120776750Y-65706884D01*
X120776750Y-64658616D01*
X120375595Y-63690142D01*
X120026703Y-63341250D01*
X131793128Y-63341250D01*
X131910888Y-63625549D01*
X132398951Y-64113612D01*
X133036637Y-64377750D01*
X133726863Y-64377750D01*
X134364549Y-64113612D01*
X134852612Y-63625549D01*
X134970372Y-63341250D01*
X135306797Y-63341250D01*
X134957905Y-63690142D01*
X134556750Y-64658616D01*
X134556750Y-65706884D01*
X134957905Y-66675358D01*
X135699142Y-67416595D01*
X136667616Y-67817750D01*
X137715884Y-67817750D01*
X138684358Y-67416595D01*
X139425595Y-66675358D01*
X139826750Y-65706884D01*
X139826750Y-64658616D01*
X139425595Y-63690142D01*
X139076703Y-63341250D01*
X150843128Y-63341250D01*
X150960888Y-63625549D01*
X151448951Y-64113612D01*
X152086637Y-64377750D01*
X152776863Y-64377750D01*
X153414549Y-64113612D01*
X153902612Y-63625549D01*
X154020372Y-63341250D01*
X154356797Y-63341250D01*
X154007905Y-63690142D01*
X153606750Y-64658616D01*
X153606750Y-65706884D01*
X154007905Y-66675358D01*
X154749142Y-67416595D01*
X155717616Y-67817750D01*
X156765884Y-67817750D01*
X157734358Y-67416595D01*
X158475595Y-66675358D01*
X158856866Y-65754887D01*
X163565000Y-65754887D01*
X163565000Y-66445113D01*
X163829138Y-67082799D01*
X164317201Y-67570862D01*
X164954887Y-67835000D01*
X165645113Y-67835000D01*
X166282799Y-67570862D01*
X166770862Y-67082799D01*
X167035000Y-66445113D01*
X167035000Y-65754887D01*
X166770862Y-65117201D01*
X166312277Y-64658616D01*
X172656750Y-64658616D01*
X172656750Y-65706884D01*
X173057905Y-66675358D01*
X173799142Y-67416595D01*
X174767616Y-67817750D01*
X175815884Y-67817750D01*
X176784358Y-67416595D01*
X177525595Y-66675358D01*
X177926750Y-65706884D01*
X177926750Y-64658616D01*
X177525595Y-63690142D01*
X176784358Y-62948905D01*
X175815884Y-62547750D01*
X174767616Y-62547750D01*
X173799142Y-62948905D01*
X173057905Y-63690142D01*
X172656750Y-64658616D01*
X166312277Y-64658616D01*
X166282799Y-64629138D01*
X165645113Y-64365000D01*
X164954887Y-64365000D01*
X164317201Y-64629138D01*
X163829138Y-65117201D01*
X163565000Y-65754887D01*
X158856866Y-65754887D01*
X158876750Y-65706884D01*
X158876750Y-64658616D01*
X158475595Y-63690142D01*
X158126703Y-63341250D01*
X167885700Y-63341250D01*
X167979855Y-63435405D01*
X168323507Y-63577750D01*
X168695473Y-63577750D01*
X169039125Y-63435405D01*
X169133280Y-63341250D01*
X169893128Y-63341250D01*
X170010888Y-63625549D01*
X170498951Y-64113612D01*
X171136637Y-64377750D01*
X171826863Y-64377750D01*
X172464549Y-64113612D01*
X172952612Y-63625549D01*
X173216750Y-62987863D01*
X173216750Y-62297637D01*
X172952612Y-61659951D01*
X172464549Y-61171888D01*
X171826863Y-60907750D01*
X171136637Y-60907750D01*
X170498951Y-61171888D01*
X170010888Y-61659951D01*
X169893128Y-61944250D01*
X169133280Y-61944250D01*
X169039125Y-61850095D01*
X168695473Y-61707750D01*
X168323507Y-61707750D01*
X167979855Y-61850095D01*
X167885700Y-61944250D01*
X154020372Y-61944250D01*
X153902612Y-61659951D01*
X153414549Y-61171888D01*
X152776863Y-60907750D01*
X152086637Y-60907750D01*
X151448951Y-61171888D01*
X150960888Y-61659951D01*
X150843128Y-61944250D01*
X134970372Y-61944250D01*
X134852612Y-61659951D01*
X134364549Y-61171888D01*
X133726863Y-60907750D01*
X133036637Y-60907750D01*
X132398951Y-61171888D01*
X131910888Y-61659951D01*
X131793128Y-61944250D01*
X115920372Y-61944250D01*
X115802612Y-61659951D01*
X115314549Y-61171888D01*
X114676863Y-60907750D01*
X113986637Y-60907750D01*
X113348951Y-61171888D01*
X112860888Y-61659951D01*
X112596750Y-62297637D01*
X109275550Y-62297637D01*
X109275550Y-59757637D01*
X118946750Y-59757637D01*
X118946750Y-60447863D01*
X119210888Y-61085549D01*
X119698951Y-61573612D01*
X120336637Y-61837750D01*
X121026863Y-61837750D01*
X121664549Y-61573612D01*
X122152612Y-61085549D01*
X122416750Y-60447863D01*
X122416750Y-59757637D01*
X137996750Y-59757637D01*
X137996750Y-60447863D01*
X138260888Y-61085549D01*
X138748951Y-61573612D01*
X139386637Y-61837750D01*
X140076863Y-61837750D01*
X140714549Y-61573612D01*
X141202612Y-61085549D01*
X141466750Y-60447863D01*
X141466750Y-59757637D01*
X157046750Y-59757637D01*
X157046750Y-60447863D01*
X157310888Y-61085549D01*
X157798951Y-61573612D01*
X158436637Y-61837750D01*
X159126863Y-61837750D01*
X159764549Y-61573612D01*
X160252612Y-61085549D01*
X160516750Y-60447863D01*
X160516750Y-59757637D01*
X176096750Y-59757637D01*
X176096750Y-60447863D01*
X176360888Y-61085549D01*
X176848951Y-61573612D01*
X177486637Y-61837750D01*
X178176863Y-61837750D01*
X178814549Y-61573612D01*
X179302612Y-61085549D01*
X179566750Y-60447863D01*
X179566750Y-59757637D01*
X179302612Y-59119951D01*
X178814549Y-58631888D01*
X178176863Y-58367750D01*
X177486637Y-58367750D01*
X176848951Y-58631888D01*
X176360888Y-59119951D01*
X176096750Y-59757637D01*
X160516750Y-59757637D01*
X160252612Y-59119951D01*
X159764549Y-58631888D01*
X159126863Y-58367750D01*
X158436637Y-58367750D01*
X157798951Y-58631888D01*
X157310888Y-59119951D01*
X157046750Y-59757637D01*
X141466750Y-59757637D01*
X141202612Y-59119951D01*
X140714549Y-58631888D01*
X140076863Y-58367750D01*
X139386637Y-58367750D01*
X138748951Y-58631888D01*
X138260888Y-59119951D01*
X137996750Y-59757637D01*
X122416750Y-59757637D01*
X122152612Y-59119951D01*
X121664549Y-58631888D01*
X121026863Y-58367750D01*
X120336637Y-58367750D01*
X119698951Y-58631888D01*
X119210888Y-59119951D01*
X118946750Y-59757637D01*
X109275550Y-59757637D01*
X109275550Y-45798691D01*
X132615000Y-45798691D01*
X132615000Y-46214250D01*
X132773750Y-46373000D01*
X133823000Y-46373000D01*
X133823000Y-45448750D01*
X134077000Y-45448750D01*
X134077000Y-46373000D01*
X135126250Y-46373000D01*
X135285000Y-46214250D01*
X135285000Y-45798691D01*
X135188327Y-45565302D01*
X135009699Y-45386673D01*
X134776310Y-45290000D01*
X134235750Y-45290000D01*
X134077000Y-45448750D01*
X133823000Y-45448750D01*
X133664250Y-45290000D01*
X133123690Y-45290000D01*
X132890301Y-45386673D01*
X132711673Y-45565302D01*
X132615000Y-45798691D01*
X109275550Y-45798691D01*
X109275550Y-43510750D01*
X132615000Y-43510750D01*
X132615000Y-43926309D01*
X132711673Y-44159698D01*
X132890301Y-44338327D01*
X133123690Y-44435000D01*
X133664250Y-44435000D01*
X133823000Y-44276250D01*
X133823000Y-43352000D01*
X134077000Y-43352000D01*
X134077000Y-44276250D01*
X134235750Y-44435000D01*
X134776310Y-44435000D01*
X135009699Y-44338327D01*
X135188327Y-44159698D01*
X135285000Y-43926309D01*
X135285000Y-43510750D01*
X135126250Y-43352000D01*
X134077000Y-43352000D01*
X133823000Y-43352000D01*
X132773750Y-43352000D01*
X132615000Y-43510750D01*
X109275550Y-43510750D01*
X109275550Y-36453750D01*
X148907360Y-36453750D01*
X148665414Y-36615414D01*
G36*
X171470365Y-44392655D02*
X171814017Y-44535000D01*
X172185983Y-44535000D01*
X172390000Y-44450493D01*
X172390001Y-45606528D01*
X172134934Y-45861595D01*
X171002296Y-45861595D01*
X170754531Y-45910878D01*
X170544487Y-46051226D01*
X170506530Y-46108032D01*
X170455759Y-46118131D01*
X170392882Y-46160144D01*
X170320105Y-46051226D01*
X170110061Y-45910878D01*
X169862296Y-45861595D01*
X168302296Y-45861595D01*
X168054531Y-45910878D01*
X167917297Y-46002576D01*
X167917297Y-45882727D01*
X167820624Y-45649338D01*
X167641996Y-45470709D01*
X167408607Y-45374036D01*
X166868047Y-45374036D01*
X166709297Y-45532786D01*
X166709297Y-46457036D01*
X166729297Y-46457036D01*
X166729297Y-46711036D01*
X166709297Y-46711036D01*
X166709297Y-46731036D01*
X166455297Y-46731036D01*
X166455297Y-46711036D01*
X165406047Y-46711036D01*
X165247297Y-46869786D01*
X165247297Y-47285345D01*
X165343970Y-47518734D01*
X165498894Y-47673659D01*
X165497711Y-47674450D01*
X165303170Y-47965600D01*
X165266851Y-48148190D01*
X165239738Y-48188767D01*
X164427006Y-49001500D01*
X163785318Y-49001500D01*
X163916009Y-48685983D01*
X163916009Y-48314017D01*
X163773664Y-47970365D01*
X163510644Y-47707345D01*
X163166992Y-47565000D01*
X163033838Y-47565000D01*
X161966041Y-46497204D01*
X162134586Y-46384586D01*
X162200000Y-46286687D01*
X162265414Y-46384586D01*
X162556564Y-46579127D01*
X162899999Y-46647440D01*
X163550001Y-46647440D01*
X163893436Y-46579127D01*
X164184586Y-46384586D01*
X164379127Y-46093436D01*
X164421039Y-45882727D01*
X165247297Y-45882727D01*
X165247297Y-46298286D01*
X165406047Y-46457036D01*
X166455297Y-46457036D01*
X166455297Y-45532786D01*
X166296547Y-45374036D01*
X165755987Y-45374036D01*
X165522598Y-45470709D01*
X165343970Y-45649338D01*
X165247297Y-45882727D01*
X164421039Y-45882727D01*
X164447440Y-45750001D01*
X164447440Y-45640387D01*
X164989328Y-45098500D01*
X170033210Y-45098500D01*
X170102000Y-45112183D01*
X170170790Y-45098500D01*
X170170794Y-45098500D01*
X170374541Y-45057972D01*
X170605590Y-44903590D01*
X170644560Y-44845267D01*
X171283769Y-44206059D01*
X171470365Y-44392655D01*
X171470365Y-44392655D01*
G37*
X171470365Y-44392655D02*
X171814017Y-44535000D01*
X172185983Y-44535000D01*
X172390000Y-44450493D01*
X172390001Y-45606528D01*
X172134934Y-45861595D01*
X171002296Y-45861595D01*
X170754531Y-45910878D01*
X170544487Y-46051226D01*
X170506530Y-46108032D01*
X170455759Y-46118131D01*
X170392882Y-46160144D01*
X170320105Y-46051226D01*
X170110061Y-45910878D01*
X169862296Y-45861595D01*
X168302296Y-45861595D01*
X168054531Y-45910878D01*
X167917297Y-46002576D01*
X167917297Y-45882727D01*
X167820624Y-45649338D01*
X167641996Y-45470709D01*
X167408607Y-45374036D01*
X166868047Y-45374036D01*
X166709297Y-45532786D01*
X166709297Y-46457036D01*
X166729297Y-46457036D01*
X166729297Y-46711036D01*
X166709297Y-46711036D01*
X166709297Y-46731036D01*
X166455297Y-46731036D01*
X166455297Y-46711036D01*
X165406047Y-46711036D01*
X165247297Y-46869786D01*
X165247297Y-47285345D01*
X165343970Y-47518734D01*
X165498894Y-47673659D01*
X165497711Y-47674450D01*
X165303170Y-47965600D01*
X165266851Y-48148190D01*
X165239738Y-48188767D01*
X164427006Y-49001500D01*
X163785318Y-49001500D01*
X163916009Y-48685983D01*
X163916009Y-48314017D01*
X163773664Y-47970365D01*
X163510644Y-47707345D01*
X163166992Y-47565000D01*
X163033838Y-47565000D01*
X161966041Y-46497204D01*
X162134586Y-46384586D01*
X162200000Y-46286687D01*
X162265414Y-46384586D01*
X162556564Y-46579127D01*
X162899999Y-46647440D01*
X163550001Y-46647440D01*
X163893436Y-46579127D01*
X164184586Y-46384586D01*
X164379127Y-46093436D01*
X164421039Y-45882727D01*
X165247297Y-45882727D01*
X165247297Y-46298286D01*
X165406047Y-46457036D01*
X166455297Y-46457036D01*
X166455297Y-45532786D01*
X166296547Y-45374036D01*
X165755987Y-45374036D01*
X165522598Y-45470709D01*
X165343970Y-45649338D01*
X165247297Y-45882727D01*
X164421039Y-45882727D01*
X164447440Y-45750001D01*
X164447440Y-45640387D01*
X164989328Y-45098500D01*
X170033210Y-45098500D01*
X170102000Y-45112183D01*
X170170790Y-45098500D01*
X170170794Y-45098500D01*
X170374541Y-45057972D01*
X170605590Y-44903590D01*
X170644560Y-44845267D01*
X171283769Y-44206059D01*
X171470365Y-44392655D01*
G36*
X173268970Y-47493734D02*
X173423894Y-47648659D01*
X173422711Y-47649450D01*
X173228170Y-47940600D01*
X173221519Y-47974035D01*
X173101546Y-47974035D01*
X173038546Y-47911035D01*
X172959955Y-47911035D01*
X172810061Y-47810878D01*
X172675111Y-47784035D01*
X172810061Y-47757192D01*
X172959955Y-47657035D01*
X173038546Y-47657035D01*
X173197296Y-47498285D01*
X173197296Y-47332725D01*
X173182360Y-47296666D01*
X173183976Y-47288541D01*
X173268970Y-47493734D01*
X173268970Y-47493734D01*
G37*
X173268970Y-47493734D02*
X173423894Y-47648659D01*
X173422711Y-47649450D01*
X173228170Y-47940600D01*
X173221519Y-47974035D01*
X173101546Y-47974035D01*
X173038546Y-47911035D01*
X172959955Y-47911035D01*
X172810061Y-47810878D01*
X172675111Y-47784035D01*
X172810061Y-47757192D01*
X172959955Y-47657035D01*
X173038546Y-47657035D01*
X173197296Y-47498285D01*
X173197296Y-47332725D01*
X173182360Y-47296666D01*
X173183976Y-47288541D01*
X173268970Y-47493734D01*
G36*
X159757443Y-41745272D02*
X159796410Y-41803590D01*
X159854728Y-41842557D01*
X159854730Y-41842559D01*
X159959956Y-41912868D01*
X159995873Y-42093436D01*
X160146395Y-42318707D01*
X160020873Y-42506564D01*
X159952560Y-42849999D01*
X159952560Y-43401500D01*
X158757820Y-43401500D01*
X158751783Y-43371148D01*
X158760000Y-43351310D01*
X158760000Y-43321250D01*
X158737353Y-43298603D01*
X158723157Y-43227235D01*
X158638141Y-43100000D01*
X158723157Y-42972765D01*
X158737353Y-42901397D01*
X158760000Y-42878750D01*
X158760000Y-42848690D01*
X158751783Y-42828852D01*
X158772440Y-42725000D01*
X158772440Y-42475000D01*
X158723157Y-42227235D01*
X158582809Y-42017191D01*
X158372765Y-41876843D01*
X158173500Y-41837207D01*
X158173500Y-41214327D01*
X158465388Y-40922440D01*
X158934612Y-40922440D01*
X159757443Y-41745272D01*
X159757443Y-41745272D01*
G37*
X159757443Y-41745272D02*
X159796410Y-41803590D01*
X159854728Y-41842557D01*
X159854730Y-41842559D01*
X159959956Y-41912868D01*
X159995873Y-42093436D01*
X160146395Y-42318707D01*
X160020873Y-42506564D01*
X159952560Y-42849999D01*
X159952560Y-43401500D01*
X158757820Y-43401500D01*
X158751783Y-43371148D01*
X158760000Y-43351310D01*
X158760000Y-43321250D01*
X158737353Y-43298603D01*
X158723157Y-43227235D01*
X158638141Y-43100000D01*
X158723157Y-42972765D01*
X158737353Y-42901397D01*
X158760000Y-42878750D01*
X158760000Y-42848690D01*
X158751783Y-42828852D01*
X158772440Y-42725000D01*
X158772440Y-42475000D01*
X158723157Y-42227235D01*
X158582809Y-42017191D01*
X158372765Y-41876843D01*
X158173500Y-41837207D01*
X158173500Y-41214327D01*
X158465388Y-40922440D01*
X158934612Y-40922440D01*
X159757443Y-41745272D01*
G36*
X174823937Y-39611764D02*
X174577146Y-39660854D01*
X174201712Y-39911711D01*
X174164720Y-39967074D01*
X174133797Y-39936151D01*
X173780956Y-39790000D01*
X173399044Y-39790000D01*
X173046203Y-39936151D01*
X172886580Y-40095774D01*
X172736843Y-40065989D01*
X172736838Y-40065989D01*
X172661991Y-40051101D01*
X172587144Y-40065989D01*
X168812855Y-40065989D01*
X168738008Y-40051101D01*
X168663161Y-40065989D01*
X168663157Y-40065989D01*
X168513420Y-40095774D01*
X168353797Y-39936151D01*
X168000956Y-39790000D01*
X167619044Y-39790000D01*
X167266203Y-39936151D01*
X167235281Y-39967073D01*
X167198289Y-39911711D01*
X166822855Y-39660854D01*
X166380000Y-39572765D01*
X165937146Y-39660854D01*
X165561712Y-39911711D01*
X165310854Y-40287145D01*
X165245000Y-40618217D01*
X165245000Y-41941782D01*
X165310854Y-42272854D01*
X165561711Y-42648289D01*
X165937145Y-42899146D01*
X166380000Y-42987235D01*
X166515000Y-42960382D01*
X166515000Y-43051310D01*
X166611673Y-43284699D01*
X166728475Y-43401500D01*
X164989328Y-43401500D01*
X164447440Y-42859613D01*
X164447440Y-42849999D01*
X164379127Y-42506564D01*
X164228605Y-42281293D01*
X164354127Y-42093436D01*
X164422440Y-41750001D01*
X164422440Y-40849999D01*
X164354127Y-40506564D01*
X164159586Y-40215414D01*
X163868436Y-40020873D01*
X163525001Y-39952560D01*
X162874999Y-39952560D01*
X162531564Y-40020873D01*
X162240414Y-40215414D01*
X162175000Y-40313313D01*
X162109586Y-40215414D01*
X161818436Y-40020873D01*
X161475001Y-39952560D01*
X160824999Y-39952560D01*
X160481564Y-40020873D01*
X160198104Y-40210276D01*
X160041698Y-40053870D01*
X160047440Y-40025001D01*
X160047440Y-39498500D01*
X174710673Y-39498500D01*
X174823937Y-39611764D01*
X174823937Y-39611764D01*
G37*
X174823937Y-39611764D02*
X174577146Y-39660854D01*
X174201712Y-39911711D01*
X174164720Y-39967074D01*
X174133797Y-39936151D01*
X173780956Y-39790000D01*
X173399044Y-39790000D01*
X173046203Y-39936151D01*
X172886580Y-40095774D01*
X172736843Y-40065989D01*
X172736838Y-40065989D01*
X172661991Y-40051101D01*
X172587144Y-40065989D01*
X168812855Y-40065989D01*
X168738008Y-40051101D01*
X168663161Y-40065989D01*
X168663157Y-40065989D01*
X168513420Y-40095774D01*
X168353797Y-39936151D01*
X168000956Y-39790000D01*
X167619044Y-39790000D01*
X167266203Y-39936151D01*
X167235281Y-39967073D01*
X167198289Y-39911711D01*
X166822855Y-39660854D01*
X166380000Y-39572765D01*
X165937146Y-39660854D01*
X165561712Y-39911711D01*
X165310854Y-40287145D01*
X165245000Y-40618217D01*
X165245000Y-41941782D01*
X165310854Y-42272854D01*
X165561711Y-42648289D01*
X165937145Y-42899146D01*
X166380000Y-42987235D01*
X166515000Y-42960382D01*
X166515000Y-43051310D01*
X166611673Y-43284699D01*
X166728475Y-43401500D01*
X164989328Y-43401500D01*
X164447440Y-42859613D01*
X164447440Y-42849999D01*
X164379127Y-42506564D01*
X164228605Y-42281293D01*
X164354127Y-42093436D01*
X164422440Y-41750001D01*
X164422440Y-40849999D01*
X164354127Y-40506564D01*
X164159586Y-40215414D01*
X163868436Y-40020873D01*
X163525001Y-39952560D01*
X162874999Y-39952560D01*
X162531564Y-40020873D01*
X162240414Y-40215414D01*
X162175000Y-40313313D01*
X162109586Y-40215414D01*
X161818436Y-40020873D01*
X161475001Y-39952560D01*
X160824999Y-39952560D01*
X160481564Y-40020873D01*
X160198104Y-40210276D01*
X160041698Y-40053870D01*
X160047440Y-40025001D01*
X160047440Y-39498500D01*
X174710673Y-39498500D01*
X174823937Y-39611764D01*
G36*
X151802000Y-37573000D02*
X151822000Y-37573000D01*
X151822000Y-37827000D01*
X151802000Y-37827000D01*
X151802000Y-38876250D01*
X151960750Y-39035000D01*
X152376309Y-39035000D01*
X152560352Y-38958767D01*
X152670365Y-39068780D01*
X153014017Y-39211125D01*
X153385983Y-39211125D01*
X153620440Y-39114010D01*
X156248162Y-39114010D01*
X155637170Y-39725003D01*
X155625000Y-39727424D01*
X155500000Y-39702560D01*
X155250000Y-39702560D01*
X155125000Y-39727424D01*
X155000000Y-39702560D01*
X154750000Y-39702560D01*
X154625000Y-39727424D01*
X154500000Y-39702560D01*
X154250000Y-39702560D01*
X154125000Y-39727424D01*
X154000000Y-39702560D01*
X153750000Y-39702560D01*
X153625000Y-39727424D01*
X153500000Y-39702560D01*
X153250000Y-39702560D01*
X153125000Y-39727424D01*
X153000000Y-39702560D01*
X152750000Y-39702560D01*
X152625000Y-39727424D01*
X152500000Y-39702560D01*
X152250000Y-39702560D01*
X152125000Y-39727424D01*
X152000000Y-39702560D01*
X151750000Y-39702560D01*
X151625000Y-39727424D01*
X151500000Y-39702560D01*
X151250000Y-39702560D01*
X151146148Y-39723217D01*
X151126310Y-39715000D01*
X151096250Y-39715000D01*
X151073603Y-39737647D01*
X151073500Y-39737668D01*
X151073500Y-39035000D01*
X151389250Y-39035000D01*
X151548000Y-38876250D01*
X151548000Y-37827000D01*
X151528000Y-37827000D01*
X151528000Y-37573000D01*
X151548000Y-37573000D01*
X151548000Y-37553000D01*
X151802000Y-37553000D01*
X151802000Y-37573000D01*
X151802000Y-37573000D01*
G37*
X151802000Y-37573000D02*
X151822000Y-37573000D01*
X151822000Y-37827000D01*
X151802000Y-37827000D01*
X151802000Y-38876250D01*
X151960750Y-39035000D01*
X152376309Y-39035000D01*
X152560352Y-38958767D01*
X152670365Y-39068780D01*
X153014017Y-39211125D01*
X153385983Y-39211125D01*
X153620440Y-39114010D01*
X156248162Y-39114010D01*
X155637170Y-39725003D01*
X155625000Y-39727424D01*
X155500000Y-39702560D01*
X155250000Y-39702560D01*
X155125000Y-39727424D01*
X155000000Y-39702560D01*
X154750000Y-39702560D01*
X154625000Y-39727424D01*
X154500000Y-39702560D01*
X154250000Y-39702560D01*
X154125000Y-39727424D01*
X154000000Y-39702560D01*
X153750000Y-39702560D01*
X153625000Y-39727424D01*
X153500000Y-39702560D01*
X153250000Y-39702560D01*
X153125000Y-39727424D01*
X153000000Y-39702560D01*
X152750000Y-39702560D01*
X152625000Y-39727424D01*
X152500000Y-39702560D01*
X152250000Y-39702560D01*
X152125000Y-39727424D01*
X152000000Y-39702560D01*
X151750000Y-39702560D01*
X151625000Y-39727424D01*
X151500000Y-39702560D01*
X151250000Y-39702560D01*
X151146148Y-39723217D01*
X151126310Y-39715000D01*
X151096250Y-39715000D01*
X151073603Y-39737647D01*
X151073500Y-39737668D01*
X151073500Y-39035000D01*
X151389250Y-39035000D01*
X151548000Y-38876250D01*
X151548000Y-37827000D01*
X151528000Y-37827000D01*
X151528000Y-37573000D01*
X151548000Y-37573000D01*
X151548000Y-37553000D01*
X151802000Y-37553000D01*
X151802000Y-37573000D01*
G36*
X157640301Y-36536673D02*
X157461673Y-36715302D01*
X157365000Y-36948691D01*
X157365000Y-37364250D01*
X157523750Y-37523000D01*
X158573000Y-37523000D01*
X158573000Y-37503000D01*
X158827000Y-37503000D01*
X158827000Y-37523000D01*
X159876250Y-37523000D01*
X160035000Y-37364250D01*
X160035000Y-36948691D01*
X159938327Y-36715302D01*
X159759699Y-36536673D01*
X159559505Y-36453750D01*
X165291638Y-36453750D01*
X165245000Y-36688217D01*
X165245000Y-37511782D01*
X165285822Y-37717010D01*
X153963175Y-37717010D01*
X153729635Y-37483470D01*
X153385983Y-37341125D01*
X153014017Y-37341125D01*
X152885000Y-37394565D01*
X152885000Y-36873690D01*
X152788327Y-36640301D01*
X152609698Y-36461673D01*
X152590570Y-36453750D01*
X157840495Y-36453750D01*
X157640301Y-36536673D01*
X157640301Y-36536673D01*
G37*
X157640301Y-36536673D02*
X157461673Y-36715302D01*
X157365000Y-36948691D01*
X157365000Y-37364250D01*
X157523750Y-37523000D01*
X158573000Y-37523000D01*
X158573000Y-37503000D01*
X158827000Y-37503000D01*
X158827000Y-37523000D01*
X159876250Y-37523000D01*
X160035000Y-37364250D01*
X160035000Y-36948691D01*
X159938327Y-36715302D01*
X159759699Y-36536673D01*
X159559505Y-36453750D01*
X165291638Y-36453750D01*
X165245000Y-36688217D01*
X165245000Y-37511782D01*
X165285822Y-37717010D01*
X153963175Y-37717010D01*
X153729635Y-37483470D01*
X153385983Y-37341125D01*
X153014017Y-37341125D01*
X152885000Y-37394565D01*
X152885000Y-36873690D01*
X152788327Y-36640301D01*
X152609698Y-36461673D01*
X152590570Y-36453750D01*
X157840495Y-36453750D01*
X157640301Y-36536673D01*
G04 #@! TD*
M02*
