M48
;DRILL file {KiCad 5.0.1} date Tue 15 Jan 2019 04:18:40 PM CET
;FORMAT={-:-/ absolute / metric / decimal}
FMAT,2
METRIC,TZ
T1C0.400
T2C1.700
T3C2.200
T4C3.050
T5C3.200
T6C4.000
%
G90
G05
M71
T1
X140.7Y-44.525
X144.7Y-44.525
T2
X175.294Y-126.779
X175.294Y-136.939
T3
X125.1Y-93.75
X176.85Y-74.7
X146.7Y-54.9
X125.2Y-74.7
X164.65Y-131.85
X127.65Y-131.85
X146.65Y-103.25
X163.25Y-93.75
T4
X182.294Y-119.959
X182.294Y-143.759
T5
X156.242Y-70.283
X175.292Y-108.383
X156.242Y-108.383
X137.192Y-127.433
X170.194Y-131.859
X156.242Y-146.483
X137.192Y-108.383
X118.142Y-108.383
X118.142Y-146.483
X156.242Y-89.333
X118.142Y-127.433
X175.292Y-89.333
X137.192Y-70.283
X156.242Y-127.433
X118.142Y-70.283
X137.192Y-146.483
X137.192Y-89.333
X175.292Y-70.283
X118.142Y-89.333
T6
X167.054Y-119.959
X167.054Y-143.759
X175.294Y-131.859
X156.242Y-103.283
X156.242Y-141.383
X118.142Y-65.183
X137.192Y-103.283
X156.242Y-65.183
X137.192Y-141.383
X137.192Y-84.233
X118.142Y-103.283
X137.192Y-122.333
X175.292Y-84.233
X118.142Y-84.233
X137.192Y-65.183
X156.242Y-122.333
X156.242Y-84.233
X118.142Y-141.383
X118.142Y-122.333
X175.292Y-65.183
X175.292Y-103.283
T0
M30
