G04 #@! TF.GenerationSoftware,KiCad,Pcbnew,5.0.1*
G04 #@! TF.CreationDate,2019-03-02T19:37:36+01:00*
G04 #@! TF.ProjectId,keypad,6B65797061642E6B696361645F706362,rev?*
G04 #@! TF.SameCoordinates,Original*
G04 #@! TF.FileFunction,Legend,Top*
G04 #@! TF.FilePolarity,Positive*
%FSLAX46Y46*%
G04 Gerber Fmt 4.6, Leading zero omitted, Abs format (unit mm)*
G04 Created by KiCad (PCBNEW 5.0.1) date Sat 02 Mar 2019 07:37:36 PM CET*
%MOMM*%
%LPD*%
G01*
G04 APERTURE LIST*
%ADD10C,0.120000*%
%ADD11C,0.150000*%
%ADD12C,0.010000*%
G04 APERTURE END LIST*
D10*
G04 #@! TO.C,C1*
X160061252Y-50190000D02*
X159538748Y-50190000D01*
X160061252Y-51610000D02*
X159538748Y-51610000D01*
G04 #@! TO.C,C2*
X159410000Y-38413748D02*
X159410000Y-38936252D01*
X157990000Y-38413748D02*
X157990000Y-38936252D01*
G04 #@! TO.C,C3*
X150911252Y-36990000D02*
X150388748Y-36990000D01*
X150911252Y-38410000D02*
X150388748Y-38410000D01*
G04 #@! TO.C,C4*
X145960000Y-46913748D02*
X145960000Y-47436252D01*
X144540000Y-46913748D02*
X144540000Y-47436252D01*
G04 #@! TO.C,C5*
X142340000Y-46938748D02*
X142340000Y-47461252D01*
X143760000Y-46938748D02*
X143760000Y-47461252D01*
G04 #@! TO.C,C6*
X133240000Y-42461252D02*
X133240000Y-41938748D01*
X134660000Y-42461252D02*
X134660000Y-41938748D01*
G04 #@! TO.C,C7*
X134660000Y-47263748D02*
X134660000Y-47786252D01*
X133240000Y-47263748D02*
X133240000Y-47786252D01*
G04 #@! TO.C,R1*
X161913748Y-40590000D02*
X162436252Y-40590000D01*
X161913748Y-42010000D02*
X162436252Y-42010000D01*
G04 #@! TO.C,K1_1*
X111156750Y-58197750D02*
X125126750Y-58197750D01*
X125126750Y-58197750D02*
X125126750Y-72167750D01*
X125126750Y-72167750D02*
X111156750Y-72167750D01*
X111156750Y-72167750D02*
X111156750Y-58197750D01*
G04 #@! TO.C,K1_2*
X130206750Y-58197750D02*
X144176750Y-58197750D01*
X144176750Y-58197750D02*
X144176750Y-72167750D01*
X144176750Y-72167750D02*
X130206750Y-72167750D01*
X130206750Y-72167750D02*
X130206750Y-58197750D01*
G04 #@! TO.C,K1_3*
X149256750Y-72167750D02*
X149256750Y-58197750D01*
X163226750Y-72167750D02*
X149256750Y-72167750D01*
X163226750Y-58197750D02*
X163226750Y-72167750D01*
X149256750Y-58197750D02*
X163226750Y-58197750D01*
G04 #@! TO.C,K1_4*
X168306750Y-72167750D02*
X168306750Y-58197750D01*
X182276750Y-72167750D02*
X168306750Y-72167750D01*
X182276750Y-58197750D02*
X182276750Y-72167750D01*
X168306750Y-58197750D02*
X182276750Y-58197750D01*
G04 #@! TO.C,K2_1*
X111156750Y-91217750D02*
X111156750Y-77247750D01*
X125126750Y-91217750D02*
X111156750Y-91217750D01*
X125126750Y-77247750D02*
X125126750Y-91217750D01*
X111156750Y-77247750D02*
X125126750Y-77247750D01*
G04 #@! TO.C,K2_2*
X130206750Y-91217750D02*
X130206750Y-77247750D01*
X144176750Y-91217750D02*
X130206750Y-91217750D01*
X144176750Y-77247750D02*
X144176750Y-91217750D01*
X130206750Y-77247750D02*
X144176750Y-77247750D01*
G04 #@! TO.C,K2_3*
X149256750Y-77247750D02*
X163226750Y-77247750D01*
X163226750Y-77247750D02*
X163226750Y-91217750D01*
X163226750Y-91217750D02*
X149256750Y-91217750D01*
X149256750Y-91217750D02*
X149256750Y-77247750D01*
G04 #@! TO.C,K2_4*
X168306750Y-77247750D02*
X182276750Y-77247750D01*
X182276750Y-77247750D02*
X182276750Y-91217750D01*
X182276750Y-91217750D02*
X168306750Y-91217750D01*
X168306750Y-91217750D02*
X168306750Y-77247750D01*
G04 #@! TO.C,K3_1*
X111156750Y-110267750D02*
X111156750Y-96297750D01*
X125126750Y-110267750D02*
X111156750Y-110267750D01*
X125126750Y-96297750D02*
X125126750Y-110267750D01*
X111156750Y-96297750D02*
X125126750Y-96297750D01*
G04 #@! TO.C,K3_2*
X130206750Y-110267750D02*
X130206750Y-96297750D01*
X144176750Y-110267750D02*
X130206750Y-110267750D01*
X144176750Y-96297750D02*
X144176750Y-110267750D01*
X130206750Y-96297750D02*
X144176750Y-96297750D01*
G04 #@! TO.C,K3_3*
X149256750Y-110267750D02*
X149256750Y-96297750D01*
X163226750Y-110267750D02*
X149256750Y-110267750D01*
X163226750Y-96297750D02*
X163226750Y-110267750D01*
X149256750Y-96297750D02*
X163226750Y-96297750D01*
G04 #@! TO.C,K3_4*
X168306750Y-110267750D02*
X168306750Y-96297750D01*
X182276750Y-110267750D02*
X168306750Y-110267750D01*
X182276750Y-96297750D02*
X182276750Y-110267750D01*
X168306750Y-96297750D02*
X182276750Y-96297750D01*
G04 #@! TO.C,K4_1*
X111156750Y-115347750D02*
X125126750Y-115347750D01*
X125126750Y-115347750D02*
X125126750Y-129317750D01*
X125126750Y-129317750D02*
X111156750Y-129317750D01*
X111156750Y-129317750D02*
X111156750Y-115347750D01*
G04 #@! TO.C,K4_2*
X130206750Y-115347750D02*
X144176750Y-115347750D01*
X144176750Y-115347750D02*
X144176750Y-129317750D01*
X144176750Y-129317750D02*
X130206750Y-129317750D01*
X130206750Y-129317750D02*
X130206750Y-115347750D01*
G04 #@! TO.C,K4_3*
X149256750Y-115347750D02*
X163226750Y-115347750D01*
X163226750Y-115347750D02*
X163226750Y-129317750D01*
X163226750Y-129317750D02*
X149256750Y-129317750D01*
X149256750Y-129317750D02*
X149256750Y-115347750D01*
G04 #@! TO.C,K5_1*
X111156750Y-134397750D02*
X125126750Y-134397750D01*
X125126750Y-134397750D02*
X125126750Y-148367750D01*
X125126750Y-148367750D02*
X111156750Y-148367750D01*
X111156750Y-148367750D02*
X111156750Y-134397750D01*
G04 #@! TO.C,K5_2*
X130206750Y-148367750D02*
X130206750Y-134397750D01*
X144176750Y-148367750D02*
X130206750Y-148367750D01*
X144176750Y-134397750D02*
X144176750Y-148367750D01*
X130206750Y-134397750D02*
X144176750Y-134397750D01*
G04 #@! TO.C,K5_3*
X149256750Y-134397750D02*
X163226750Y-134397750D01*
X163226750Y-134397750D02*
X163226750Y-148367750D01*
X163226750Y-148367750D02*
X149256750Y-148367750D01*
X149256750Y-148367750D02*
X149256750Y-134397750D01*
G04 #@! TO.C,K4_4*
X182278750Y-124873750D02*
X182278750Y-138843750D01*
X182278750Y-138843750D02*
X168308750Y-138843750D01*
X168308750Y-138843750D02*
X168308750Y-124873750D01*
X168308750Y-124873750D02*
X182278750Y-124873750D01*
G04 #@! TO.C,C9*
X173797297Y-47845288D02*
X173797297Y-47322784D01*
X175217297Y-47845288D02*
X175217297Y-47322784D01*
G04 #@! TO.C,C10*
X167292297Y-47870288D02*
X167292297Y-47347784D01*
X165872297Y-47870288D02*
X165872297Y-47347784D01*
G04 #@! TO.C,R5*
X140142936Y-52686798D02*
X140142936Y-52164294D01*
X141562936Y-52686798D02*
X141562936Y-52164294D01*
G04 #@! TO.C,U1*
X156685000Y-41790000D02*
X156685000Y-42210000D01*
X156685000Y-48910000D02*
X156685000Y-48490000D01*
X149565000Y-48910000D02*
X149565000Y-48490000D01*
X149565000Y-41790000D02*
X149985000Y-41790000D01*
X156685000Y-48910000D02*
X156265000Y-48910000D01*
X156685000Y-41790000D02*
X156265000Y-41790000D01*
X149565000Y-42210000D02*
X148185000Y-42210000D01*
X149565000Y-41790000D02*
X149565000Y-42210000D01*
X149565000Y-48910000D02*
X149985000Y-48910000D01*
G04 #@! TO.C,D1*
X144862936Y-53450546D02*
X144862936Y-50590546D01*
X144862936Y-50590546D02*
X142942936Y-50590546D01*
X142942936Y-50590546D02*
X142942936Y-53450546D01*
G04 #@! TO.C,R10*
X161938748Y-44590000D02*
X162461252Y-44590000D01*
X161938748Y-46010000D02*
X162461252Y-46010000D01*
G04 #@! TO.C,R11*
X161938748Y-44010000D02*
X162461252Y-44010000D01*
X161938748Y-42590000D02*
X162461252Y-42590000D01*
G04 #@! TO.C,U2*
X171332296Y-46174035D02*
X169532296Y-46174035D01*
X169532296Y-49394035D02*
X171982296Y-49394035D01*
G04 #@! TO.C,Y1*
X139650000Y-47575000D02*
X139650000Y-40325000D01*
X139650000Y-40325000D02*
X136050000Y-40325000D01*
X136050000Y-40325000D02*
X136050000Y-47575000D01*
D11*
G04 #@! TO.C,J3*
X174300000Y-34500000D02*
X167100000Y-34500000D01*
D10*
G04 #@! TO.C,J1*
X178740000Y-50960000D02*
X180860000Y-50960000D01*
X178740000Y-44900000D02*
X178740000Y-50960000D01*
X180860000Y-44900000D02*
X180860000Y-50960000D01*
X178740000Y-44900000D02*
X180860000Y-44900000D01*
X178740000Y-43900000D02*
X178740000Y-42840000D01*
X178740000Y-42840000D02*
X179800000Y-42840000D01*
D12*
G04 #@! TO.C,H1*
G36*
X123830802Y-37959368D02*
X125098546Y-38209600D01*
X125956281Y-38492964D01*
X127190226Y-39082519D01*
X128303880Y-39834118D01*
X129289334Y-40740507D01*
X130138679Y-41794437D01*
X130830634Y-42962000D01*
X131057139Y-43419283D01*
X131244608Y-43825508D01*
X131396957Y-44206071D01*
X131518103Y-44586366D01*
X131611960Y-44991792D01*
X131682445Y-45447743D01*
X131733474Y-45979615D01*
X131768961Y-46612805D01*
X131792824Y-47372708D01*
X131808977Y-48284721D01*
X131821337Y-49374240D01*
X131821475Y-49388200D01*
X131858934Y-53172800D01*
X113228809Y-53172800D01*
X113253315Y-51496400D01*
X118129600Y-51496400D01*
X118131932Y-51914595D01*
X118146816Y-52169822D01*
X118186086Y-52302311D01*
X118261573Y-52352294D01*
X118383600Y-52360000D01*
X118506598Y-52352070D01*
X118581665Y-52301462D01*
X118620632Y-52167945D01*
X118635333Y-51911288D01*
X118635548Y-51871779D01*
X118824224Y-51871779D01*
X118935085Y-52151435D01*
X119144534Y-52353479D01*
X119410757Y-52426437D01*
X119534909Y-52404446D01*
X119720708Y-52362733D01*
X119759934Y-52360000D01*
X119904947Y-52267589D01*
X119996093Y-52017619D01*
X120023178Y-51650978D01*
X120022181Y-51637494D01*
X120183002Y-51637494D01*
X120249641Y-51821370D01*
X120434012Y-52041959D01*
X120507039Y-52116160D01*
X120749608Y-52337227D01*
X120936206Y-52432164D01*
X121139085Y-52432482D01*
X121205116Y-52420615D01*
X121514232Y-52298910D01*
X121782120Y-52106309D01*
X121994733Y-51765765D01*
X122028008Y-51383904D01*
X121944167Y-51169682D01*
X122186698Y-51169682D01*
X122203086Y-51501794D01*
X122318334Y-51726252D01*
X122461739Y-51790875D01*
X122602288Y-51700455D01*
X122691296Y-51497914D01*
X122701600Y-51388355D01*
X122742590Y-51179851D01*
X122836356Y-51072817D01*
X122939093Y-51114704D01*
X122945390Y-51124280D01*
X122926556Y-51253206D01*
X122818937Y-51487377D01*
X122718442Y-51659337D01*
X122541799Y-51940490D01*
X122403919Y-52161618D01*
X122360036Y-52233000D01*
X122366567Y-52305905D01*
X122515478Y-52345975D01*
X122834661Y-52359786D01*
X122898803Y-52360000D01*
X123241306Y-52352727D01*
X123427108Y-52320727D01*
X123502486Y-52248723D01*
X123514400Y-52156800D01*
X123450872Y-51991314D01*
X123362000Y-51953600D01*
X123247998Y-51945029D01*
X123224094Y-51885061D01*
X123248267Y-51825845D01*
X123649597Y-51825845D01*
X123685582Y-52067111D01*
X123804594Y-52228818D01*
X123971600Y-52340193D01*
X124233929Y-52444919D01*
X124454174Y-52400989D01*
X124697768Y-52201867D01*
X124878651Y-51961478D01*
X124895818Y-51742295D01*
X124889417Y-51719267D01*
X124869462Y-51631413D01*
X125057111Y-51631413D01*
X125082831Y-51951277D01*
X125216200Y-52178595D01*
X125546046Y-52398279D01*
X125843568Y-52432056D01*
X126150973Y-52283055D01*
X126193098Y-52251025D01*
X126409613Y-51988788D01*
X126459244Y-51717625D01*
X126423486Y-51394399D01*
X126290070Y-51187623D01*
X126083583Y-51052860D01*
X125923624Y-50903677D01*
X125916653Y-50783650D01*
X125903231Y-50668538D01*
X125722225Y-50632843D01*
X125711734Y-50632800D01*
X125471668Y-50724236D01*
X125270138Y-50959847D01*
X125125749Y-51281588D01*
X125057111Y-51631413D01*
X124869462Y-51631413D01*
X124829983Y-51457603D01*
X124784875Y-51153289D01*
X124710817Y-50824927D01*
X124554082Y-50655806D01*
X124278687Y-50607404D01*
X124274948Y-50607400D01*
X124008890Y-50657760D01*
X123831648Y-50829062D01*
X123721590Y-51151633D01*
X123677075Y-51445600D01*
X123649597Y-51825845D01*
X123248267Y-51825845D01*
X123290532Y-51722312D01*
X123363791Y-51574135D01*
X123450375Y-51225639D01*
X123378428Y-50918694D01*
X123183217Y-50693060D01*
X122900008Y-50588495D01*
X122564068Y-50644759D01*
X122546361Y-50652579D01*
X122306451Y-50861526D01*
X122186698Y-51169682D01*
X121944167Y-51169682D01*
X121882898Y-51013136D01*
X121759490Y-50863709D01*
X121417616Y-50642768D01*
X121048285Y-50596048D01*
X120695950Y-50707721D01*
X120405066Y-50961957D01*
X120220086Y-51342927D01*
X120202584Y-51418083D01*
X120183002Y-51637494D01*
X120022181Y-51637494D01*
X120003371Y-51383336D01*
X119934907Y-51014535D01*
X119826875Y-50787702D01*
X119691968Y-50666111D01*
X119498992Y-50565433D01*
X119339079Y-50589539D01*
X119196400Y-50674257D01*
X118991215Y-50897717D01*
X118942400Y-51085728D01*
X118904760Y-51385741D01*
X118853769Y-51565985D01*
X118824224Y-51871779D01*
X118635548Y-51871779D01*
X118637600Y-51496400D01*
X118635267Y-51078204D01*
X118620383Y-50822977D01*
X118581113Y-50690488D01*
X118505626Y-50640505D01*
X118383600Y-50632800D01*
X118260601Y-50640729D01*
X118185534Y-50691337D01*
X118146567Y-50824854D01*
X118131866Y-51081511D01*
X118129600Y-51496400D01*
X113253315Y-51496400D01*
X113281907Y-49540600D01*
X113299080Y-48498332D01*
X113317993Y-47637424D01*
X113324507Y-47427329D01*
X113862400Y-47427329D01*
X113878631Y-47568711D01*
X113959664Y-47647464D01*
X114154002Y-47686827D01*
X114445612Y-47706729D01*
X114793525Y-47738457D01*
X114983144Y-47797485D01*
X115059006Y-47898847D01*
X115062662Y-47915000D01*
X115055225Y-48014021D01*
X114956948Y-48068011D01*
X114725711Y-48089810D01*
X114479449Y-48092800D01*
X114139046Y-48098026D01*
X113954367Y-48126725D01*
X113877976Y-48198421D01*
X113862435Y-48332644D01*
X113862400Y-48346800D01*
X113874254Y-48484240D01*
X113940679Y-48560295D01*
X114107965Y-48593077D01*
X114422405Y-48600700D01*
X114511544Y-48600800D01*
X114928184Y-48580145D01*
X116298674Y-48580145D01*
X116301853Y-49040151D01*
X116318708Y-49398175D01*
X116350248Y-49612812D01*
X116368533Y-49650666D01*
X116479493Y-49662685D01*
X116776031Y-49674023D01*
X117240526Y-49684490D01*
X117855357Y-49693897D01*
X118602904Y-49702053D01*
X119465544Y-49708770D01*
X120425658Y-49713859D01*
X121465623Y-49717129D01*
X122567819Y-49718391D01*
X122667733Y-49718400D01*
X128899200Y-49718400D01*
X128899200Y-48159852D01*
X128887200Y-47779047D01*
X129689997Y-47779047D01*
X129758206Y-48208423D01*
X129962532Y-48534405D01*
X130262039Y-48737813D01*
X130615790Y-48799467D01*
X130982846Y-48700190D01*
X131243815Y-48507015D01*
X131483582Y-48160983D01*
X131527227Y-47786163D01*
X131391487Y-47387569D01*
X131146547Y-47099134D01*
X130822162Y-46957005D01*
X130467211Y-46949937D01*
X130130573Y-47066684D01*
X129861127Y-47295999D01*
X129707754Y-47626637D01*
X129689997Y-47779047D01*
X128887200Y-47779047D01*
X128864293Y-47052182D01*
X128751853Y-46103392D01*
X128550298Y-45280166D01*
X128248048Y-44549184D01*
X128183649Y-44444775D01*
X129079190Y-44444775D01*
X129114421Y-44640639D01*
X129142030Y-44711896D01*
X129247723Y-44697826D01*
X129487150Y-44625790D01*
X129756450Y-44530450D01*
X130069706Y-44424445D01*
X130300727Y-44367124D01*
X130389584Y-44367717D01*
X130400579Y-44489172D01*
X130215492Y-44628663D01*
X129840210Y-44781872D01*
X129812404Y-44791196D01*
X129483924Y-44925668D01*
X129328270Y-45060776D01*
X129305600Y-45148569D01*
X129349363Y-45336271D01*
X129498872Y-45407935D01*
X129781457Y-45369336D01*
X130016800Y-45298800D01*
X130323267Y-45216148D01*
X130557172Y-45187430D01*
X130632969Y-45201260D01*
X130693903Y-45284628D01*
X130601805Y-45379276D01*
X130339857Y-45496469D01*
X130035337Y-45601555D01*
X129711153Y-45725126D01*
X129562018Y-45834611D01*
X129552737Y-45927154D01*
X129605067Y-46117745D01*
X129610400Y-46170709D01*
X129632959Y-46239435D01*
X129725469Y-46253473D01*
X129925174Y-46207473D01*
X130269321Y-46096085D01*
X130370120Y-46061584D01*
X130854213Y-45841582D01*
X131147410Y-45583360D01*
X131246235Y-45292620D01*
X131147213Y-44975059D01*
X131086831Y-44886418D01*
X130969559Y-44630727D01*
X130934431Y-44415561D01*
X130839532Y-44130368D01*
X130599006Y-43920573D01*
X130268207Y-43831624D01*
X130222793Y-43831276D01*
X129973381Y-43873336D01*
X129645336Y-43972704D01*
X129508800Y-44024927D01*
X129226243Y-44160137D01*
X129097414Y-44286444D01*
X129079190Y-44444775D01*
X128183649Y-44444775D01*
X127833522Y-43877129D01*
X127295138Y-43230682D01*
X127124288Y-43053432D01*
X126288137Y-42346918D01*
X126203744Y-42299165D01*
X127716395Y-42299165D01*
X127793093Y-42650752D01*
X127996887Y-42951531D01*
X128309303Y-43154792D01*
X128645200Y-43216000D01*
X129042307Y-43122038D01*
X129272225Y-42972783D01*
X129505134Y-42659717D01*
X129574004Y-42304034D01*
X129497306Y-41952447D01*
X129293512Y-41651668D01*
X128981096Y-41448407D01*
X128645200Y-41387200D01*
X128248092Y-41481161D01*
X128018174Y-41630416D01*
X127785265Y-41943482D01*
X127716395Y-42299165D01*
X126203744Y-42299165D01*
X125356361Y-41819687D01*
X124328936Y-41471729D01*
X123205840Y-41303036D01*
X122680063Y-41285600D01*
X121515097Y-41376690D01*
X120426031Y-41646798D01*
X119428120Y-42091175D01*
X118810765Y-42489459D01*
X117972206Y-43228760D01*
X117298790Y-44081741D01*
X116797642Y-45037192D01*
X116475886Y-46083904D01*
X116452612Y-46199621D01*
X116402543Y-46548437D01*
X116361106Y-47002304D01*
X116329309Y-47519816D01*
X116308163Y-48059565D01*
X116298674Y-48580145D01*
X114928184Y-48580145D01*
X114946238Y-48579250D01*
X115237042Y-48506730D01*
X115392077Y-48413432D01*
X115586709Y-48136924D01*
X115623466Y-47889600D01*
X115559462Y-47558432D01*
X115356416Y-47336600D01*
X114997782Y-47213518D01*
X114511544Y-47178400D01*
X114160189Y-47183193D01*
X113965750Y-47209398D01*
X113881976Y-47274751D01*
X113862613Y-47396988D01*
X113862400Y-47427329D01*
X113324507Y-47427329D01*
X113339742Y-46936037D01*
X113365424Y-46372332D01*
X113394996Y-45941072D01*
X113964000Y-45941072D01*
X114032388Y-46288395D01*
X114239607Y-46488983D01*
X114588734Y-46545166D01*
X114744527Y-46531214D01*
X115029701Y-46507973D01*
X115160769Y-46546632D01*
X115183200Y-46614093D01*
X115267372Y-46745492D01*
X115451164Y-46818614D01*
X115615000Y-46798928D01*
X115670070Y-46680244D01*
X115691200Y-46468461D01*
X115621097Y-46129701D01*
X115416702Y-45939020D01*
X115086878Y-45900287D01*
X114649800Y-46013754D01*
X114503020Y-46019523D01*
X114472000Y-45919270D01*
X114424506Y-45777166D01*
X114378709Y-45756000D01*
X114208442Y-45722486D01*
X114124709Y-45694329D01*
X114009755Y-45695284D01*
X113966628Y-45845068D01*
X113964000Y-45941072D01*
X113394996Y-45941072D01*
X113396135Y-45924469D01*
X113432972Y-45570609D01*
X113477032Y-45288914D01*
X113501239Y-45172160D01*
X113790976Y-44218953D01*
X114479696Y-44218953D01*
X114495805Y-44555145D01*
X114593526Y-44860648D01*
X114628952Y-44918868D01*
X114905288Y-45153065D01*
X115269570Y-45256227D01*
X115654762Y-45228742D01*
X115993832Y-45070996D01*
X116149988Y-44910100D01*
X116285313Y-44644858D01*
X116246650Y-44469567D01*
X116088568Y-44381533D01*
X115871719Y-44388316D01*
X115727207Y-44527087D01*
X115512582Y-44704565D01*
X115282013Y-44719457D01*
X115092838Y-44598701D01*
X115002397Y-44369235D01*
X115018480Y-44194114D01*
X115025981Y-43996672D01*
X114886930Y-43900635D01*
X114855660Y-43891815D01*
X114645924Y-43893265D01*
X114553390Y-43956420D01*
X114479696Y-44218953D01*
X113790976Y-44218953D01*
X113897323Y-43869084D01*
X114343025Y-42923587D01*
X115180759Y-42923587D01*
X115258712Y-43205208D01*
X115476817Y-43419109D01*
X115804363Y-43518613D01*
X115865733Y-43520800D01*
X116102695Y-43543221D01*
X116185038Y-43627423D01*
X116182722Y-43698600D01*
X116203938Y-43929274D01*
X116314563Y-44096520D01*
X116406053Y-44130400D01*
X116522777Y-44053853D01*
X116665742Y-43876400D01*
X116773197Y-43677297D01*
X116755633Y-43520717D01*
X116666799Y-43370013D01*
X116450023Y-43161274D01*
X116223314Y-43056727D01*
X115915567Y-42982461D01*
X115765908Y-42918298D01*
X115732341Y-42838900D01*
X115751060Y-42771824D01*
X115723304Y-42634454D01*
X115577429Y-42548279D01*
X115397002Y-42539712D01*
X115273671Y-42620927D01*
X115180759Y-42923587D01*
X114343025Y-42923587D01*
X114472013Y-42649958D01*
X115063738Y-41755413D01*
X116103331Y-41755413D01*
X116155117Y-42051567D01*
X116378774Y-42293029D01*
X116741566Y-42444540D01*
X116932792Y-42508286D01*
X116953457Y-42593278D01*
X116897801Y-42672380D01*
X116824375Y-42815308D01*
X116915097Y-42939545D01*
X116957937Y-42972177D01*
X117128549Y-43058316D01*
X117279481Y-42993349D01*
X117335102Y-42945436D01*
X117482016Y-42721327D01*
X117520000Y-42547110D01*
X117427228Y-42245978D01*
X117160870Y-42030361D01*
X116907439Y-41945349D01*
X116692357Y-41867467D01*
X116643227Y-41745909D01*
X116654688Y-41697391D01*
X116630413Y-41488026D01*
X116546099Y-41379979D01*
X116400796Y-41300368D01*
X116279734Y-41382805D01*
X116239005Y-41435853D01*
X116103331Y-41755413D01*
X115063738Y-41755413D01*
X115212519Y-41530493D01*
X116106049Y-40526398D01*
X116266285Y-40391078D01*
X118046833Y-40391078D01*
X118102458Y-40585986D01*
X118238184Y-40884909D01*
X118308117Y-41027691D01*
X118477155Y-41350212D01*
X118619488Y-41585379D01*
X118707206Y-41687604D01*
X118712851Y-41688768D01*
X118848599Y-41630833D01*
X118961296Y-41555323D01*
X119055036Y-41462176D01*
X119062312Y-41347322D01*
X118975126Y-41151353D01*
X118885096Y-40989384D01*
X118719965Y-40645764D01*
X118643492Y-40369953D01*
X118663148Y-40201386D01*
X118729501Y-40168000D01*
X118823316Y-40249824D01*
X118976960Y-40463211D01*
X119138117Y-40729188D01*
X119318601Y-41032697D01*
X119444938Y-41186021D01*
X119553406Y-41220948D01*
X119655816Y-41182813D01*
X119784164Y-41109324D01*
X119784919Y-41108212D01*
X125800104Y-41108212D01*
X125840612Y-41195472D01*
X125907171Y-41251144D01*
X126101409Y-41367515D01*
X126224319Y-41334465D01*
X126341603Y-41131115D01*
X126351277Y-41110014D01*
X126447343Y-40930696D01*
X126517546Y-40922003D01*
X126575081Y-41007068D01*
X126611619Y-41264786D01*
X126571450Y-41370289D01*
X126529686Y-41581485D01*
X126590440Y-41679400D01*
X126789693Y-41775014D01*
X126977834Y-41684321D01*
X127122526Y-41423100D01*
X127123822Y-41419131D01*
X127252912Y-41128050D01*
X127403222Y-40904368D01*
X127560400Y-40626919D01*
X127523130Y-40346264D01*
X127288632Y-40049677D01*
X127199651Y-39972196D01*
X126953701Y-39788220D01*
X126759891Y-39676061D01*
X126703229Y-39660000D01*
X126600584Y-39741803D01*
X126430254Y-39959565D01*
X126223587Y-40271807D01*
X126153331Y-40387544D01*
X125944676Y-40745603D01*
X125830863Y-40972041D01*
X125800104Y-41108212D01*
X119784919Y-41108212D01*
X119836763Y-41031874D01*
X119809809Y-40900150D01*
X119699498Y-40663839D01*
X119602014Y-40471249D01*
X119320029Y-40037286D01*
X119038726Y-39795420D01*
X120307268Y-39795420D01*
X120388490Y-40138574D01*
X120617899Y-40429177D01*
X120759826Y-40523636D01*
X121117930Y-40656663D01*
X121455226Y-40623642D01*
X121676334Y-40528391D01*
X121976181Y-40279474D01*
X122004095Y-40218795D01*
X122768294Y-40218795D01*
X122770856Y-40408637D01*
X122825422Y-40488684D01*
X122978502Y-40561292D01*
X123137946Y-40546393D01*
X123352495Y-40458643D01*
X123568890Y-40305444D01*
X123643642Y-40082624D01*
X123586864Y-39748147D01*
X123550755Y-39634600D01*
X123478324Y-39385871D01*
X123486848Y-39284463D01*
X124431058Y-39284463D01*
X124499958Y-39435661D01*
X124581200Y-39456800D01*
X124716761Y-39477503D01*
X124733600Y-39494826D01*
X124702845Y-39604834D01*
X124625168Y-39838556D01*
X124581200Y-39964800D01*
X124458479Y-40368719D01*
X124436907Y-40621106D01*
X124519351Y-40748280D01*
X124669787Y-40777600D01*
X124820140Y-40747817D01*
X124926434Y-40627252D01*
X125022807Y-40369081D01*
X125058670Y-40244200D01*
X125174082Y-39906290D01*
X125297623Y-39730444D01*
X125416925Y-39679690D01*
X125576888Y-39590312D01*
X125687432Y-39426206D01*
X125705956Y-39267783D01*
X125663861Y-39213597D01*
X125535845Y-39164289D01*
X125278795Y-39080894D01*
X125071671Y-39018110D01*
X124763535Y-38934117D01*
X124595101Y-38915720D01*
X124513825Y-38962705D01*
X124487471Y-39015723D01*
X124431058Y-39284463D01*
X123486848Y-39284463D01*
X123487626Y-39275219D01*
X123557862Y-39253600D01*
X123676825Y-39166545D01*
X123742466Y-38999600D01*
X123750282Y-38816614D01*
X123638791Y-38751665D01*
X123507568Y-38745600D01*
X123184943Y-38822065D01*
X122980879Y-39024528D01*
X122933602Y-39312589D01*
X122939295Y-39346184D01*
X122992774Y-39616386D01*
X123024622Y-39781050D01*
X123006926Y-39925717D01*
X122960630Y-39951315D01*
X122839821Y-40033490D01*
X122768294Y-40218795D01*
X122004095Y-40218795D01*
X122124980Y-39956022D01*
X122135121Y-39604240D01*
X122018993Y-39270332D01*
X121788988Y-39000504D01*
X121457496Y-38840959D01*
X121217492Y-38817317D01*
X120829346Y-38910664D01*
X120540035Y-39135464D01*
X120361896Y-39445716D01*
X120307268Y-39795420D01*
X119038726Y-39795420D01*
X119012456Y-39772833D01*
X118701193Y-39683593D01*
X118408137Y-39775263D01*
X118155186Y-40053545D01*
X118134409Y-40089233D01*
X118060940Y-40244166D01*
X118046833Y-40391078D01*
X116266285Y-40391078D01*
X117139811Y-39653385D01*
X118301012Y-38927165D01*
X118778906Y-38690237D01*
X119966267Y-38249750D01*
X121228287Y-37980442D01*
X122528590Y-37883315D01*
X123830802Y-37959368D01*
X123830802Y-37959368D01*
G37*
X123830802Y-37959368D02*
X125098546Y-38209600D01*
X125956281Y-38492964D01*
X127190226Y-39082519D01*
X128303880Y-39834118D01*
X129289334Y-40740507D01*
X130138679Y-41794437D01*
X130830634Y-42962000D01*
X131057139Y-43419283D01*
X131244608Y-43825508D01*
X131396957Y-44206071D01*
X131518103Y-44586366D01*
X131611960Y-44991792D01*
X131682445Y-45447743D01*
X131733474Y-45979615D01*
X131768961Y-46612805D01*
X131792824Y-47372708D01*
X131808977Y-48284721D01*
X131821337Y-49374240D01*
X131821475Y-49388200D01*
X131858934Y-53172800D01*
X113228809Y-53172800D01*
X113253315Y-51496400D01*
X118129600Y-51496400D01*
X118131932Y-51914595D01*
X118146816Y-52169822D01*
X118186086Y-52302311D01*
X118261573Y-52352294D01*
X118383600Y-52360000D01*
X118506598Y-52352070D01*
X118581665Y-52301462D01*
X118620632Y-52167945D01*
X118635333Y-51911288D01*
X118635548Y-51871779D01*
X118824224Y-51871779D01*
X118935085Y-52151435D01*
X119144534Y-52353479D01*
X119410757Y-52426437D01*
X119534909Y-52404446D01*
X119720708Y-52362733D01*
X119759934Y-52360000D01*
X119904947Y-52267589D01*
X119996093Y-52017619D01*
X120023178Y-51650978D01*
X120022181Y-51637494D01*
X120183002Y-51637494D01*
X120249641Y-51821370D01*
X120434012Y-52041959D01*
X120507039Y-52116160D01*
X120749608Y-52337227D01*
X120936206Y-52432164D01*
X121139085Y-52432482D01*
X121205116Y-52420615D01*
X121514232Y-52298910D01*
X121782120Y-52106309D01*
X121994733Y-51765765D01*
X122028008Y-51383904D01*
X121944167Y-51169682D01*
X122186698Y-51169682D01*
X122203086Y-51501794D01*
X122318334Y-51726252D01*
X122461739Y-51790875D01*
X122602288Y-51700455D01*
X122691296Y-51497914D01*
X122701600Y-51388355D01*
X122742590Y-51179851D01*
X122836356Y-51072817D01*
X122939093Y-51114704D01*
X122945390Y-51124280D01*
X122926556Y-51253206D01*
X122818937Y-51487377D01*
X122718442Y-51659337D01*
X122541799Y-51940490D01*
X122403919Y-52161618D01*
X122360036Y-52233000D01*
X122366567Y-52305905D01*
X122515478Y-52345975D01*
X122834661Y-52359786D01*
X122898803Y-52360000D01*
X123241306Y-52352727D01*
X123427108Y-52320727D01*
X123502486Y-52248723D01*
X123514400Y-52156800D01*
X123450872Y-51991314D01*
X123362000Y-51953600D01*
X123247998Y-51945029D01*
X123224094Y-51885061D01*
X123248267Y-51825845D01*
X123649597Y-51825845D01*
X123685582Y-52067111D01*
X123804594Y-52228818D01*
X123971600Y-52340193D01*
X124233929Y-52444919D01*
X124454174Y-52400989D01*
X124697768Y-52201867D01*
X124878651Y-51961478D01*
X124895818Y-51742295D01*
X124889417Y-51719267D01*
X124869462Y-51631413D01*
X125057111Y-51631413D01*
X125082831Y-51951277D01*
X125216200Y-52178595D01*
X125546046Y-52398279D01*
X125843568Y-52432056D01*
X126150973Y-52283055D01*
X126193098Y-52251025D01*
X126409613Y-51988788D01*
X126459244Y-51717625D01*
X126423486Y-51394399D01*
X126290070Y-51187623D01*
X126083583Y-51052860D01*
X125923624Y-50903677D01*
X125916653Y-50783650D01*
X125903231Y-50668538D01*
X125722225Y-50632843D01*
X125711734Y-50632800D01*
X125471668Y-50724236D01*
X125270138Y-50959847D01*
X125125749Y-51281588D01*
X125057111Y-51631413D01*
X124869462Y-51631413D01*
X124829983Y-51457603D01*
X124784875Y-51153289D01*
X124710817Y-50824927D01*
X124554082Y-50655806D01*
X124278687Y-50607404D01*
X124274948Y-50607400D01*
X124008890Y-50657760D01*
X123831648Y-50829062D01*
X123721590Y-51151633D01*
X123677075Y-51445600D01*
X123649597Y-51825845D01*
X123248267Y-51825845D01*
X123290532Y-51722312D01*
X123363791Y-51574135D01*
X123450375Y-51225639D01*
X123378428Y-50918694D01*
X123183217Y-50693060D01*
X122900008Y-50588495D01*
X122564068Y-50644759D01*
X122546361Y-50652579D01*
X122306451Y-50861526D01*
X122186698Y-51169682D01*
X121944167Y-51169682D01*
X121882898Y-51013136D01*
X121759490Y-50863709D01*
X121417616Y-50642768D01*
X121048285Y-50596048D01*
X120695950Y-50707721D01*
X120405066Y-50961957D01*
X120220086Y-51342927D01*
X120202584Y-51418083D01*
X120183002Y-51637494D01*
X120022181Y-51637494D01*
X120003371Y-51383336D01*
X119934907Y-51014535D01*
X119826875Y-50787702D01*
X119691968Y-50666111D01*
X119498992Y-50565433D01*
X119339079Y-50589539D01*
X119196400Y-50674257D01*
X118991215Y-50897717D01*
X118942400Y-51085728D01*
X118904760Y-51385741D01*
X118853769Y-51565985D01*
X118824224Y-51871779D01*
X118635548Y-51871779D01*
X118637600Y-51496400D01*
X118635267Y-51078204D01*
X118620383Y-50822977D01*
X118581113Y-50690488D01*
X118505626Y-50640505D01*
X118383600Y-50632800D01*
X118260601Y-50640729D01*
X118185534Y-50691337D01*
X118146567Y-50824854D01*
X118131866Y-51081511D01*
X118129600Y-51496400D01*
X113253315Y-51496400D01*
X113281907Y-49540600D01*
X113299080Y-48498332D01*
X113317993Y-47637424D01*
X113324507Y-47427329D01*
X113862400Y-47427329D01*
X113878631Y-47568711D01*
X113959664Y-47647464D01*
X114154002Y-47686827D01*
X114445612Y-47706729D01*
X114793525Y-47738457D01*
X114983144Y-47797485D01*
X115059006Y-47898847D01*
X115062662Y-47915000D01*
X115055225Y-48014021D01*
X114956948Y-48068011D01*
X114725711Y-48089810D01*
X114479449Y-48092800D01*
X114139046Y-48098026D01*
X113954367Y-48126725D01*
X113877976Y-48198421D01*
X113862435Y-48332644D01*
X113862400Y-48346800D01*
X113874254Y-48484240D01*
X113940679Y-48560295D01*
X114107965Y-48593077D01*
X114422405Y-48600700D01*
X114511544Y-48600800D01*
X114928184Y-48580145D01*
X116298674Y-48580145D01*
X116301853Y-49040151D01*
X116318708Y-49398175D01*
X116350248Y-49612812D01*
X116368533Y-49650666D01*
X116479493Y-49662685D01*
X116776031Y-49674023D01*
X117240526Y-49684490D01*
X117855357Y-49693897D01*
X118602904Y-49702053D01*
X119465544Y-49708770D01*
X120425658Y-49713859D01*
X121465623Y-49717129D01*
X122567819Y-49718391D01*
X122667733Y-49718400D01*
X128899200Y-49718400D01*
X128899200Y-48159852D01*
X128887200Y-47779047D01*
X129689997Y-47779047D01*
X129758206Y-48208423D01*
X129962532Y-48534405D01*
X130262039Y-48737813D01*
X130615790Y-48799467D01*
X130982846Y-48700190D01*
X131243815Y-48507015D01*
X131483582Y-48160983D01*
X131527227Y-47786163D01*
X131391487Y-47387569D01*
X131146547Y-47099134D01*
X130822162Y-46957005D01*
X130467211Y-46949937D01*
X130130573Y-47066684D01*
X129861127Y-47295999D01*
X129707754Y-47626637D01*
X129689997Y-47779047D01*
X128887200Y-47779047D01*
X128864293Y-47052182D01*
X128751853Y-46103392D01*
X128550298Y-45280166D01*
X128248048Y-44549184D01*
X128183649Y-44444775D01*
X129079190Y-44444775D01*
X129114421Y-44640639D01*
X129142030Y-44711896D01*
X129247723Y-44697826D01*
X129487150Y-44625790D01*
X129756450Y-44530450D01*
X130069706Y-44424445D01*
X130300727Y-44367124D01*
X130389584Y-44367717D01*
X130400579Y-44489172D01*
X130215492Y-44628663D01*
X129840210Y-44781872D01*
X129812404Y-44791196D01*
X129483924Y-44925668D01*
X129328270Y-45060776D01*
X129305600Y-45148569D01*
X129349363Y-45336271D01*
X129498872Y-45407935D01*
X129781457Y-45369336D01*
X130016800Y-45298800D01*
X130323267Y-45216148D01*
X130557172Y-45187430D01*
X130632969Y-45201260D01*
X130693903Y-45284628D01*
X130601805Y-45379276D01*
X130339857Y-45496469D01*
X130035337Y-45601555D01*
X129711153Y-45725126D01*
X129562018Y-45834611D01*
X129552737Y-45927154D01*
X129605067Y-46117745D01*
X129610400Y-46170709D01*
X129632959Y-46239435D01*
X129725469Y-46253473D01*
X129925174Y-46207473D01*
X130269321Y-46096085D01*
X130370120Y-46061584D01*
X130854213Y-45841582D01*
X131147410Y-45583360D01*
X131246235Y-45292620D01*
X131147213Y-44975059D01*
X131086831Y-44886418D01*
X130969559Y-44630727D01*
X130934431Y-44415561D01*
X130839532Y-44130368D01*
X130599006Y-43920573D01*
X130268207Y-43831624D01*
X130222793Y-43831276D01*
X129973381Y-43873336D01*
X129645336Y-43972704D01*
X129508800Y-44024927D01*
X129226243Y-44160137D01*
X129097414Y-44286444D01*
X129079190Y-44444775D01*
X128183649Y-44444775D01*
X127833522Y-43877129D01*
X127295138Y-43230682D01*
X127124288Y-43053432D01*
X126288137Y-42346918D01*
X126203744Y-42299165D01*
X127716395Y-42299165D01*
X127793093Y-42650752D01*
X127996887Y-42951531D01*
X128309303Y-43154792D01*
X128645200Y-43216000D01*
X129042307Y-43122038D01*
X129272225Y-42972783D01*
X129505134Y-42659717D01*
X129574004Y-42304034D01*
X129497306Y-41952447D01*
X129293512Y-41651668D01*
X128981096Y-41448407D01*
X128645200Y-41387200D01*
X128248092Y-41481161D01*
X128018174Y-41630416D01*
X127785265Y-41943482D01*
X127716395Y-42299165D01*
X126203744Y-42299165D01*
X125356361Y-41819687D01*
X124328936Y-41471729D01*
X123205840Y-41303036D01*
X122680063Y-41285600D01*
X121515097Y-41376690D01*
X120426031Y-41646798D01*
X119428120Y-42091175D01*
X118810765Y-42489459D01*
X117972206Y-43228760D01*
X117298790Y-44081741D01*
X116797642Y-45037192D01*
X116475886Y-46083904D01*
X116452612Y-46199621D01*
X116402543Y-46548437D01*
X116361106Y-47002304D01*
X116329309Y-47519816D01*
X116308163Y-48059565D01*
X116298674Y-48580145D01*
X114928184Y-48580145D01*
X114946238Y-48579250D01*
X115237042Y-48506730D01*
X115392077Y-48413432D01*
X115586709Y-48136924D01*
X115623466Y-47889600D01*
X115559462Y-47558432D01*
X115356416Y-47336600D01*
X114997782Y-47213518D01*
X114511544Y-47178400D01*
X114160189Y-47183193D01*
X113965750Y-47209398D01*
X113881976Y-47274751D01*
X113862613Y-47396988D01*
X113862400Y-47427329D01*
X113324507Y-47427329D01*
X113339742Y-46936037D01*
X113365424Y-46372332D01*
X113394996Y-45941072D01*
X113964000Y-45941072D01*
X114032388Y-46288395D01*
X114239607Y-46488983D01*
X114588734Y-46545166D01*
X114744527Y-46531214D01*
X115029701Y-46507973D01*
X115160769Y-46546632D01*
X115183200Y-46614093D01*
X115267372Y-46745492D01*
X115451164Y-46818614D01*
X115615000Y-46798928D01*
X115670070Y-46680244D01*
X115691200Y-46468461D01*
X115621097Y-46129701D01*
X115416702Y-45939020D01*
X115086878Y-45900287D01*
X114649800Y-46013754D01*
X114503020Y-46019523D01*
X114472000Y-45919270D01*
X114424506Y-45777166D01*
X114378709Y-45756000D01*
X114208442Y-45722486D01*
X114124709Y-45694329D01*
X114009755Y-45695284D01*
X113966628Y-45845068D01*
X113964000Y-45941072D01*
X113394996Y-45941072D01*
X113396135Y-45924469D01*
X113432972Y-45570609D01*
X113477032Y-45288914D01*
X113501239Y-45172160D01*
X113790976Y-44218953D01*
X114479696Y-44218953D01*
X114495805Y-44555145D01*
X114593526Y-44860648D01*
X114628952Y-44918868D01*
X114905288Y-45153065D01*
X115269570Y-45256227D01*
X115654762Y-45228742D01*
X115993832Y-45070996D01*
X116149988Y-44910100D01*
X116285313Y-44644858D01*
X116246650Y-44469567D01*
X116088568Y-44381533D01*
X115871719Y-44388316D01*
X115727207Y-44527087D01*
X115512582Y-44704565D01*
X115282013Y-44719457D01*
X115092838Y-44598701D01*
X115002397Y-44369235D01*
X115018480Y-44194114D01*
X115025981Y-43996672D01*
X114886930Y-43900635D01*
X114855660Y-43891815D01*
X114645924Y-43893265D01*
X114553390Y-43956420D01*
X114479696Y-44218953D01*
X113790976Y-44218953D01*
X113897323Y-43869084D01*
X114343025Y-42923587D01*
X115180759Y-42923587D01*
X115258712Y-43205208D01*
X115476817Y-43419109D01*
X115804363Y-43518613D01*
X115865733Y-43520800D01*
X116102695Y-43543221D01*
X116185038Y-43627423D01*
X116182722Y-43698600D01*
X116203938Y-43929274D01*
X116314563Y-44096520D01*
X116406053Y-44130400D01*
X116522777Y-44053853D01*
X116665742Y-43876400D01*
X116773197Y-43677297D01*
X116755633Y-43520717D01*
X116666799Y-43370013D01*
X116450023Y-43161274D01*
X116223314Y-43056727D01*
X115915567Y-42982461D01*
X115765908Y-42918298D01*
X115732341Y-42838900D01*
X115751060Y-42771824D01*
X115723304Y-42634454D01*
X115577429Y-42548279D01*
X115397002Y-42539712D01*
X115273671Y-42620927D01*
X115180759Y-42923587D01*
X114343025Y-42923587D01*
X114472013Y-42649958D01*
X115063738Y-41755413D01*
X116103331Y-41755413D01*
X116155117Y-42051567D01*
X116378774Y-42293029D01*
X116741566Y-42444540D01*
X116932792Y-42508286D01*
X116953457Y-42593278D01*
X116897801Y-42672380D01*
X116824375Y-42815308D01*
X116915097Y-42939545D01*
X116957937Y-42972177D01*
X117128549Y-43058316D01*
X117279481Y-42993349D01*
X117335102Y-42945436D01*
X117482016Y-42721327D01*
X117520000Y-42547110D01*
X117427228Y-42245978D01*
X117160870Y-42030361D01*
X116907439Y-41945349D01*
X116692357Y-41867467D01*
X116643227Y-41745909D01*
X116654688Y-41697391D01*
X116630413Y-41488026D01*
X116546099Y-41379979D01*
X116400796Y-41300368D01*
X116279734Y-41382805D01*
X116239005Y-41435853D01*
X116103331Y-41755413D01*
X115063738Y-41755413D01*
X115212519Y-41530493D01*
X116106049Y-40526398D01*
X116266285Y-40391078D01*
X118046833Y-40391078D01*
X118102458Y-40585986D01*
X118238184Y-40884909D01*
X118308117Y-41027691D01*
X118477155Y-41350212D01*
X118619488Y-41585379D01*
X118707206Y-41687604D01*
X118712851Y-41688768D01*
X118848599Y-41630833D01*
X118961296Y-41555323D01*
X119055036Y-41462176D01*
X119062312Y-41347322D01*
X118975126Y-41151353D01*
X118885096Y-40989384D01*
X118719965Y-40645764D01*
X118643492Y-40369953D01*
X118663148Y-40201386D01*
X118729501Y-40168000D01*
X118823316Y-40249824D01*
X118976960Y-40463211D01*
X119138117Y-40729188D01*
X119318601Y-41032697D01*
X119444938Y-41186021D01*
X119553406Y-41220948D01*
X119655816Y-41182813D01*
X119784164Y-41109324D01*
X119784919Y-41108212D01*
X125800104Y-41108212D01*
X125840612Y-41195472D01*
X125907171Y-41251144D01*
X126101409Y-41367515D01*
X126224319Y-41334465D01*
X126341603Y-41131115D01*
X126351277Y-41110014D01*
X126447343Y-40930696D01*
X126517546Y-40922003D01*
X126575081Y-41007068D01*
X126611619Y-41264786D01*
X126571450Y-41370289D01*
X126529686Y-41581485D01*
X126590440Y-41679400D01*
X126789693Y-41775014D01*
X126977834Y-41684321D01*
X127122526Y-41423100D01*
X127123822Y-41419131D01*
X127252912Y-41128050D01*
X127403222Y-40904368D01*
X127560400Y-40626919D01*
X127523130Y-40346264D01*
X127288632Y-40049677D01*
X127199651Y-39972196D01*
X126953701Y-39788220D01*
X126759891Y-39676061D01*
X126703229Y-39660000D01*
X126600584Y-39741803D01*
X126430254Y-39959565D01*
X126223587Y-40271807D01*
X126153331Y-40387544D01*
X125944676Y-40745603D01*
X125830863Y-40972041D01*
X125800104Y-41108212D01*
X119784919Y-41108212D01*
X119836763Y-41031874D01*
X119809809Y-40900150D01*
X119699498Y-40663839D01*
X119602014Y-40471249D01*
X119320029Y-40037286D01*
X119038726Y-39795420D01*
X120307268Y-39795420D01*
X120388490Y-40138574D01*
X120617899Y-40429177D01*
X120759826Y-40523636D01*
X121117930Y-40656663D01*
X121455226Y-40623642D01*
X121676334Y-40528391D01*
X121976181Y-40279474D01*
X122004095Y-40218795D01*
X122768294Y-40218795D01*
X122770856Y-40408637D01*
X122825422Y-40488684D01*
X122978502Y-40561292D01*
X123137946Y-40546393D01*
X123352495Y-40458643D01*
X123568890Y-40305444D01*
X123643642Y-40082624D01*
X123586864Y-39748147D01*
X123550755Y-39634600D01*
X123478324Y-39385871D01*
X123486848Y-39284463D01*
X124431058Y-39284463D01*
X124499958Y-39435661D01*
X124581200Y-39456800D01*
X124716761Y-39477503D01*
X124733600Y-39494826D01*
X124702845Y-39604834D01*
X124625168Y-39838556D01*
X124581200Y-39964800D01*
X124458479Y-40368719D01*
X124436907Y-40621106D01*
X124519351Y-40748280D01*
X124669787Y-40777600D01*
X124820140Y-40747817D01*
X124926434Y-40627252D01*
X125022807Y-40369081D01*
X125058670Y-40244200D01*
X125174082Y-39906290D01*
X125297623Y-39730444D01*
X125416925Y-39679690D01*
X125576888Y-39590312D01*
X125687432Y-39426206D01*
X125705956Y-39267783D01*
X125663861Y-39213597D01*
X125535845Y-39164289D01*
X125278795Y-39080894D01*
X125071671Y-39018110D01*
X124763535Y-38934117D01*
X124595101Y-38915720D01*
X124513825Y-38962705D01*
X124487471Y-39015723D01*
X124431058Y-39284463D01*
X123486848Y-39284463D01*
X123487626Y-39275219D01*
X123557862Y-39253600D01*
X123676825Y-39166545D01*
X123742466Y-38999600D01*
X123750282Y-38816614D01*
X123638791Y-38751665D01*
X123507568Y-38745600D01*
X123184943Y-38822065D01*
X122980879Y-39024528D01*
X122933602Y-39312589D01*
X122939295Y-39346184D01*
X122992774Y-39616386D01*
X123024622Y-39781050D01*
X123006926Y-39925717D01*
X122960630Y-39951315D01*
X122839821Y-40033490D01*
X122768294Y-40218795D01*
X122004095Y-40218795D01*
X122124980Y-39956022D01*
X122135121Y-39604240D01*
X122018993Y-39270332D01*
X121788988Y-39000504D01*
X121457496Y-38840959D01*
X121217492Y-38817317D01*
X120829346Y-38910664D01*
X120540035Y-39135464D01*
X120361896Y-39445716D01*
X120307268Y-39795420D01*
X119038726Y-39795420D01*
X119012456Y-39772833D01*
X118701193Y-39683593D01*
X118408137Y-39775263D01*
X118155186Y-40053545D01*
X118134409Y-40089233D01*
X118060940Y-40244166D01*
X118046833Y-40391078D01*
X116266285Y-40391078D01*
X117139811Y-39653385D01*
X118301012Y-38927165D01*
X118778906Y-38690237D01*
X119966267Y-38249750D01*
X121228287Y-37980442D01*
X122528590Y-37883315D01*
X123830802Y-37959368D01*
G36*
X119553657Y-51700624D02*
X119607727Y-51817629D01*
X119531277Y-51931379D01*
X119450400Y-51953600D01*
X119317919Y-51880451D01*
X119302338Y-51859020D01*
X119308938Y-51738578D01*
X119431081Y-51674233D01*
X119553657Y-51700624D01*
X119553657Y-51700624D01*
G37*
X119553657Y-51700624D02*
X119607727Y-51817629D01*
X119531277Y-51931379D01*
X119450400Y-51953600D01*
X119317919Y-51880451D01*
X119302338Y-51859020D01*
X119308938Y-51738578D01*
X119431081Y-51674233D01*
X119553657Y-51700624D01*
G36*
X119450400Y-50988400D02*
X119547324Y-51079698D01*
X119552000Y-51095996D01*
X119473392Y-51139635D01*
X119450400Y-51140800D01*
X119352704Y-51062694D01*
X119348800Y-51033203D01*
X119411043Y-50972524D01*
X119450400Y-50988400D01*
X119450400Y-50988400D01*
G37*
X119450400Y-50988400D02*
X119547324Y-51079698D01*
X119552000Y-51095996D01*
X119473392Y-51139635D01*
X119450400Y-51140800D01*
X119352704Y-51062694D01*
X119348800Y-51033203D01*
X119411043Y-50972524D01*
X119450400Y-50988400D01*
G36*
X121183292Y-51156551D02*
X121364456Y-51224072D01*
X121428111Y-51398577D01*
X121431600Y-51496400D01*
X121400247Y-51719690D01*
X121268829Y-51813746D01*
X121159033Y-51832689D01*
X120897863Y-51794176D01*
X120781970Y-51668924D01*
X120743128Y-51426895D01*
X120862861Y-51235639D01*
X121096632Y-51152016D01*
X121183292Y-51156551D01*
X121183292Y-51156551D01*
G37*
X121183292Y-51156551D02*
X121364456Y-51224072D01*
X121428111Y-51398577D01*
X121431600Y-51496400D01*
X121400247Y-51719690D01*
X121268829Y-51813746D01*
X121159033Y-51832689D01*
X120897863Y-51794176D01*
X120781970Y-51668924D01*
X120743128Y-51426895D01*
X120862861Y-51235639D01*
X121096632Y-51152016D01*
X121183292Y-51156551D01*
G36*
X124338189Y-51773163D02*
X124342440Y-51801200D01*
X124263342Y-51920329D01*
X124233220Y-51934126D01*
X124140577Y-51885082D01*
X124124000Y-51801200D01*
X124175551Y-51674751D01*
X124233220Y-51668273D01*
X124338189Y-51773163D01*
X124338189Y-51773163D01*
G37*
X124338189Y-51773163D02*
X124342440Y-51801200D01*
X124263342Y-51920329D01*
X124233220Y-51934126D01*
X124140577Y-51885082D01*
X124124000Y-51801200D01*
X124175551Y-51674751D01*
X124233220Y-51668273D01*
X124338189Y-51773163D01*
G36*
X124326035Y-51016207D02*
X124327200Y-51039200D01*
X124249094Y-51136895D01*
X124219603Y-51140800D01*
X124158924Y-51078556D01*
X124174800Y-51039200D01*
X124266098Y-50942275D01*
X124282396Y-50937600D01*
X124326035Y-51016207D01*
X124326035Y-51016207D01*
G37*
X124326035Y-51016207D02*
X124327200Y-51039200D01*
X124249094Y-51136895D01*
X124219603Y-51140800D01*
X124158924Y-51078556D01*
X124174800Y-51039200D01*
X124266098Y-50942275D01*
X124282396Y-50937600D01*
X124326035Y-51016207D01*
G36*
X125887474Y-51559163D02*
X125937322Y-51705605D01*
X125865675Y-51825479D01*
X125757049Y-51852000D01*
X125583349Y-51785060D01*
X125546400Y-51641350D01*
X125601144Y-51479426D01*
X125723033Y-51464716D01*
X125887474Y-51559163D01*
X125887474Y-51559163D01*
G37*
X125887474Y-51559163D02*
X125937322Y-51705605D01*
X125865675Y-51825479D01*
X125757049Y-51852000D01*
X125583349Y-51785060D01*
X125546400Y-51641350D01*
X125601144Y-51479426D01*
X125723033Y-51464716D01*
X125887474Y-51559163D01*
G36*
X117088469Y-48029501D02*
X117315485Y-48344889D01*
X117528656Y-48687359D01*
X117604876Y-48918848D01*
X117546217Y-49076569D01*
X117362819Y-49194091D01*
X117100936Y-49297921D01*
X116937511Y-49301038D01*
X116849644Y-49176574D01*
X116814437Y-48897659D01*
X116808800Y-48544003D01*
X116817138Y-48128953D01*
X116854341Y-47909642D01*
X116938690Y-47878886D01*
X117088469Y-48029501D01*
X117088469Y-48029501D01*
G37*
X117088469Y-48029501D02*
X117315485Y-48344889D01*
X117528656Y-48687359D01*
X117604876Y-48918848D01*
X117546217Y-49076569D01*
X117362819Y-49194091D01*
X117100936Y-49297921D01*
X116937511Y-49301038D01*
X116849644Y-49176574D01*
X116814437Y-48897659D01*
X116808800Y-48544003D01*
X116817138Y-48128953D01*
X116854341Y-47909642D01*
X116938690Y-47878886D01*
X117088469Y-48029501D01*
G36*
X117824800Y-49261200D02*
X117774000Y-49312000D01*
X117723200Y-49261200D01*
X117774000Y-49210400D01*
X117824800Y-49261200D01*
X117824800Y-49261200D01*
G37*
X117824800Y-49261200D02*
X117774000Y-49312000D01*
X117723200Y-49261200D01*
X117774000Y-49210400D01*
X117824800Y-49261200D01*
G36*
X119461078Y-48355045D02*
X119772240Y-48689773D01*
X119909071Y-48944103D01*
X119866473Y-49125657D01*
X119639351Y-49242059D01*
X119222609Y-49300933D01*
X118821381Y-49312000D01*
X118389441Y-49301337D01*
X118136943Y-49266886D01*
X118041123Y-49204953D01*
X118038959Y-49185000D01*
X118115171Y-49058428D01*
X118305741Y-48843483D01*
X118571074Y-48584419D01*
X118599694Y-48558245D01*
X119149470Y-48058491D01*
X119461078Y-48355045D01*
X119461078Y-48355045D01*
G37*
X119461078Y-48355045D02*
X119772240Y-48689773D01*
X119909071Y-48944103D01*
X119866473Y-49125657D01*
X119639351Y-49242059D01*
X119222609Y-49300933D01*
X118821381Y-49312000D01*
X118389441Y-49301337D01*
X118136943Y-49266886D01*
X118041123Y-49204953D01*
X118038959Y-49185000D01*
X118115171Y-49058428D01*
X118305741Y-48843483D01*
X118571074Y-48584419D01*
X118599694Y-48558245D01*
X119149470Y-48058491D01*
X119461078Y-48355045D01*
G36*
X120161600Y-49261200D02*
X120110800Y-49312000D01*
X120060000Y-49261200D01*
X120110800Y-49210400D01*
X120161600Y-49261200D01*
X120161600Y-49261200D01*
G37*
X120161600Y-49261200D02*
X120110800Y-49312000D01*
X120060000Y-49261200D01*
X120110800Y-49210400D01*
X120161600Y-49261200D01*
G36*
X120823855Y-48424249D02*
X120824309Y-48530160D01*
X120806125Y-48767653D01*
X120795001Y-48880200D01*
X120726994Y-49162608D01*
X120615325Y-49310913D01*
X120491310Y-49302166D01*
X120404216Y-49166570D01*
X120424009Y-49039139D01*
X120511814Y-48836680D01*
X120631372Y-48623338D01*
X120746420Y-48463257D01*
X120820698Y-48420578D01*
X120823855Y-48424249D01*
X120823855Y-48424249D01*
G37*
X120823855Y-48424249D02*
X120824309Y-48530160D01*
X120806125Y-48767653D01*
X120795001Y-48880200D01*
X120726994Y-49162608D01*
X120615325Y-49310913D01*
X120491310Y-49302166D01*
X120404216Y-49166570D01*
X120424009Y-49039139D01*
X120511814Y-48836680D01*
X120631372Y-48623338D01*
X120746420Y-48463257D01*
X120820698Y-48420578D01*
X120823855Y-48424249D01*
G36*
X125020946Y-48409743D02*
X125038400Y-48488180D01*
X124958419Y-48587147D01*
X124748820Y-48753103D01*
X124457378Y-48948569D01*
X124081308Y-49162125D01*
X123771294Y-49273202D01*
X123438396Y-49310723D01*
X123339778Y-49312000D01*
X123040667Y-49304712D01*
X122845879Y-49285983D01*
X122803200Y-49269365D01*
X122890570Y-49216193D01*
X123114311Y-49126425D01*
X123296468Y-49062893D01*
X123684569Y-48905204D01*
X124102718Y-48693413D01*
X124274545Y-48591599D01*
X124625485Y-48405441D01*
X124882331Y-48343733D01*
X125020946Y-48409743D01*
X125020946Y-48409743D01*
G37*
X125020946Y-48409743D02*
X125038400Y-48488180D01*
X124958419Y-48587147D01*
X124748820Y-48753103D01*
X124457378Y-48948569D01*
X124081308Y-49162125D01*
X123771294Y-49273202D01*
X123438396Y-49310723D01*
X123339778Y-49312000D01*
X123040667Y-49304712D01*
X122845879Y-49285983D01*
X122803200Y-49269365D01*
X122890570Y-49216193D01*
X123114311Y-49126425D01*
X123296468Y-49062893D01*
X123684569Y-48905204D01*
X124102718Y-48693413D01*
X124274545Y-48591599D01*
X124625485Y-48405441D01*
X124882331Y-48343733D01*
X125020946Y-48409743D01*
G36*
X127099430Y-46452392D02*
X127157588Y-46674421D01*
X127129630Y-46926980D01*
X127025437Y-47122640D01*
X126803626Y-47415531D01*
X126498964Y-47768465D01*
X126146219Y-48144255D01*
X125780158Y-48505712D01*
X125435550Y-48815647D01*
X125173994Y-49018762D01*
X124830225Y-49231638D01*
X124631062Y-49310845D01*
X124586634Y-49269080D01*
X124707074Y-49119038D01*
X125002512Y-48873414D01*
X125037364Y-48847544D01*
X125661229Y-48358573D01*
X126184058Y-47888964D01*
X126591875Y-47455603D01*
X126870701Y-47075377D01*
X127006559Y-46765175D01*
X126985471Y-46541883D01*
X126967166Y-46516032D01*
X126897732Y-46392994D01*
X126959548Y-46365600D01*
X127099430Y-46452392D01*
X127099430Y-46452392D01*
G37*
X127099430Y-46452392D02*
X127157588Y-46674421D01*
X127129630Y-46926980D01*
X127025437Y-47122640D01*
X126803626Y-47415531D01*
X126498964Y-47768465D01*
X126146219Y-48144255D01*
X125780158Y-48505712D01*
X125435550Y-48815647D01*
X125173994Y-49018762D01*
X124830225Y-49231638D01*
X124631062Y-49310845D01*
X124586634Y-49269080D01*
X124707074Y-49119038D01*
X125002512Y-48873414D01*
X125037364Y-48847544D01*
X125661229Y-48358573D01*
X126184058Y-47888964D01*
X126591875Y-47455603D01*
X126870701Y-47075377D01*
X127006559Y-46765175D01*
X126985471Y-46541883D01*
X126967166Y-46516032D01*
X126897732Y-46392994D01*
X126959548Y-46365600D01*
X127099430Y-46452392D01*
G36*
X127070400Y-46017170D02*
X127316146Y-46108744D01*
X127451400Y-46187275D01*
X127548757Y-46376645D01*
X127572698Y-46678655D01*
X127524550Y-47016988D01*
X127432619Y-47267198D01*
X127312745Y-47431704D01*
X127087476Y-47686470D01*
X126789854Y-47999185D01*
X126452923Y-48337539D01*
X126109725Y-48669220D01*
X125793304Y-48961917D01*
X125536701Y-49183320D01*
X125372961Y-49301118D01*
X125341496Y-49312000D01*
X125374404Y-49246659D01*
X125530765Y-49068069D01*
X125786188Y-48802383D01*
X126116281Y-48475751D01*
X126169259Y-48424531D01*
X126536606Y-48059573D01*
X126859101Y-47719171D01*
X127102262Y-47441057D01*
X127231602Y-47262959D01*
X127232533Y-47261177D01*
X127370082Y-46836270D01*
X127325822Y-46464917D01*
X127102741Y-46171057D01*
X127095800Y-46165609D01*
X126816400Y-45948670D01*
X127070400Y-46017170D01*
X127070400Y-46017170D01*
G37*
X127070400Y-46017170D02*
X127316146Y-46108744D01*
X127451400Y-46187275D01*
X127548757Y-46376645D01*
X127572698Y-46678655D01*
X127524550Y-47016988D01*
X127432619Y-47267198D01*
X127312745Y-47431704D01*
X127087476Y-47686470D01*
X126789854Y-47999185D01*
X126452923Y-48337539D01*
X126109725Y-48669220D01*
X125793304Y-48961917D01*
X125536701Y-49183320D01*
X125372961Y-49301118D01*
X125341496Y-49312000D01*
X125374404Y-49246659D01*
X125530765Y-49068069D01*
X125786188Y-48802383D01*
X126116281Y-48475751D01*
X126169259Y-48424531D01*
X126536606Y-48059573D01*
X126859101Y-47719171D01*
X127102262Y-47441057D01*
X127231602Y-47262959D01*
X127232533Y-47261177D01*
X127370082Y-46836270D01*
X127325822Y-46464917D01*
X127102741Y-46171057D01*
X127095800Y-46165609D01*
X126816400Y-45948670D01*
X127070400Y-46017170D01*
G36*
X127503376Y-45729972D02*
X127803511Y-45942221D01*
X127961196Y-46269441D01*
X127968856Y-46689928D01*
X127818918Y-47181979D01*
X127689829Y-47435321D01*
X127518062Y-47683540D01*
X127259848Y-47996627D01*
X126949644Y-48339454D01*
X126621908Y-48676898D01*
X126311095Y-48973833D01*
X126051662Y-49195134D01*
X125878065Y-49305675D01*
X125848874Y-49312000D01*
X125875079Y-49249220D01*
X126026016Y-49080039D01*
X126274666Y-48833194D01*
X126478354Y-48642448D01*
X126914324Y-48234455D01*
X127225972Y-47918649D01*
X127444881Y-47656895D01*
X127602636Y-47411060D01*
X127730822Y-47143010D01*
X127741729Y-47117113D01*
X127853033Y-46671288D01*
X127804916Y-46284879D01*
X127605292Y-45994054D01*
X127477289Y-45908652D01*
X127206170Y-45799477D01*
X126929074Y-45769327D01*
X126598849Y-45823914D01*
X126168340Y-45968951D01*
X125825800Y-46108747D01*
X125680845Y-46129225D01*
X125648000Y-46087103D01*
X125738773Y-45996795D01*
X125973015Y-45891394D01*
X126293611Y-45788301D01*
X126643444Y-45704915D01*
X126965397Y-45658636D01*
X127068365Y-45654400D01*
X127503376Y-45729972D01*
X127503376Y-45729972D01*
G37*
X127503376Y-45729972D02*
X127803511Y-45942221D01*
X127961196Y-46269441D01*
X127968856Y-46689928D01*
X127818918Y-47181979D01*
X127689829Y-47435321D01*
X127518062Y-47683540D01*
X127259848Y-47996627D01*
X126949644Y-48339454D01*
X126621908Y-48676898D01*
X126311095Y-48973833D01*
X126051662Y-49195134D01*
X125878065Y-49305675D01*
X125848874Y-49312000D01*
X125875079Y-49249220D01*
X126026016Y-49080039D01*
X126274666Y-48833194D01*
X126478354Y-48642448D01*
X126914324Y-48234455D01*
X127225972Y-47918649D01*
X127444881Y-47656895D01*
X127602636Y-47411060D01*
X127730822Y-47143010D01*
X127741729Y-47117113D01*
X127853033Y-46671288D01*
X127804916Y-46284879D01*
X127605292Y-45994054D01*
X127477289Y-45908652D01*
X127206170Y-45799477D01*
X126929074Y-45769327D01*
X126598849Y-45823914D01*
X126168340Y-45968951D01*
X125825800Y-46108747D01*
X125680845Y-46129225D01*
X125648000Y-46087103D01*
X125738773Y-45996795D01*
X125973015Y-45891394D01*
X126293611Y-45788301D01*
X126643444Y-45704915D01*
X126965397Y-45658636D01*
X127068365Y-45654400D01*
X127503376Y-45729972D01*
G36*
X127251569Y-48852558D02*
X127272044Y-49083400D01*
X127251573Y-49221936D01*
X127152824Y-49288704D01*
X126923514Y-49308134D01*
X126791000Y-49308185D01*
X126308400Y-49304370D01*
X126712515Y-48958591D01*
X126989639Y-48754640D01*
X127163485Y-48717993D01*
X127251569Y-48852558D01*
X127251569Y-48852558D01*
G37*
X127251569Y-48852558D02*
X127272044Y-49083400D01*
X127251573Y-49221936D01*
X127152824Y-49288704D01*
X126923514Y-49308134D01*
X126791000Y-49308185D01*
X126308400Y-49304370D01*
X126712515Y-48958591D01*
X126989639Y-48754640D01*
X127163485Y-48717993D01*
X127251569Y-48852558D01*
G36*
X127070506Y-43603539D02*
X127262317Y-43811264D01*
X127489379Y-44137998D01*
X127727844Y-44550494D01*
X127890657Y-44876464D01*
X128179081Y-45622115D01*
X128369347Y-46434643D01*
X128469743Y-47358806D01*
X128491035Y-48118200D01*
X128492800Y-49312000D01*
X127496411Y-49312000D01*
X127460921Y-48785772D01*
X127466239Y-48371998D01*
X127555291Y-48098267D01*
X127589149Y-48049172D01*
X127927998Y-47523516D01*
X128139300Y-46999992D01*
X128220575Y-46509883D01*
X128169344Y-46084473D01*
X127983127Y-45755047D01*
X127782912Y-45604278D01*
X127342974Y-45474963D01*
X126798311Y-45466545D01*
X126205454Y-45576283D01*
X125849181Y-45698082D01*
X125540534Y-45809665D01*
X125321819Y-45862331D01*
X125241600Y-45845864D01*
X125322128Y-45680723D01*
X125526960Y-45468504D01*
X125800967Y-45257492D01*
X126089019Y-45095971D01*
X126106172Y-45088645D01*
X126346377Y-44959941D01*
X126445188Y-44798226D01*
X126460800Y-44610051D01*
X126504732Y-44327383D01*
X126615004Y-44010945D01*
X126759325Y-43732628D01*
X126905403Y-43564325D01*
X126937793Y-43548068D01*
X127070506Y-43603539D01*
X127070506Y-43603539D01*
G37*
X127070506Y-43603539D02*
X127262317Y-43811264D01*
X127489379Y-44137998D01*
X127727844Y-44550494D01*
X127890657Y-44876464D01*
X128179081Y-45622115D01*
X128369347Y-46434643D01*
X128469743Y-47358806D01*
X128491035Y-48118200D01*
X128492800Y-49312000D01*
X127496411Y-49312000D01*
X127460921Y-48785772D01*
X127466239Y-48371998D01*
X127555291Y-48098267D01*
X127589149Y-48049172D01*
X127927998Y-47523516D01*
X128139300Y-46999992D01*
X128220575Y-46509883D01*
X128169344Y-46084473D01*
X127983127Y-45755047D01*
X127782912Y-45604278D01*
X127342974Y-45474963D01*
X126798311Y-45466545D01*
X126205454Y-45576283D01*
X125849181Y-45698082D01*
X125540534Y-45809665D01*
X125321819Y-45862331D01*
X125241600Y-45845864D01*
X125322128Y-45680723D01*
X125526960Y-45468504D01*
X125800967Y-45257492D01*
X126089019Y-45095971D01*
X126106172Y-45088645D01*
X126346377Y-44959941D01*
X126445188Y-44798226D01*
X126460800Y-44610051D01*
X126504732Y-44327383D01*
X126615004Y-44010945D01*
X126759325Y-43732628D01*
X126905403Y-43564325D01*
X126937793Y-43548068D01*
X127070506Y-43603539D01*
G36*
X122425176Y-48463883D02*
X122445570Y-48763137D01*
X122433442Y-48971768D01*
X122414107Y-49021226D01*
X122285419Y-49063368D01*
X122012684Y-49112082D01*
X121654343Y-49156974D01*
X121645833Y-49157851D01*
X121279477Y-49192912D01*
X121074962Y-49196583D01*
X120992000Y-49158330D01*
X120990303Y-49067616D01*
X121009445Y-48991425D01*
X121062618Y-48711852D01*
X121076168Y-48550000D01*
X121113608Y-48321705D01*
X121244808Y-48177033D01*
X121510238Y-48087536D01*
X121798268Y-48042396D01*
X122368137Y-47971367D01*
X122425176Y-48463883D01*
X122425176Y-48463883D01*
G37*
X122425176Y-48463883D02*
X122445570Y-48763137D01*
X122433442Y-48971768D01*
X122414107Y-49021226D01*
X122285419Y-49063368D01*
X122012684Y-49112082D01*
X121654343Y-49156974D01*
X121645833Y-49157851D01*
X121279477Y-49192912D01*
X121074962Y-49196583D01*
X120992000Y-49158330D01*
X120990303Y-49067616D01*
X121009445Y-48991425D01*
X121062618Y-48711852D01*
X121076168Y-48550000D01*
X121113608Y-48321705D01*
X121244808Y-48177033D01*
X121510238Y-48087536D01*
X121798268Y-48042396D01*
X122368137Y-47971367D01*
X122425176Y-48463883D01*
G36*
X124294301Y-47534117D02*
X124515665Y-47757756D01*
X124595969Y-47943463D01*
X124523108Y-48117897D01*
X124284976Y-48307718D01*
X123869468Y-48539586D01*
X123828132Y-48560786D01*
X123326122Y-48799402D01*
X122978138Y-48921684D01*
X122773338Y-48930077D01*
X122700880Y-48827031D01*
X122700481Y-48815310D01*
X122683618Y-48606847D01*
X122643999Y-48317443D01*
X122639099Y-48287309D01*
X122616098Y-48037047D01*
X122687695Y-47899540D01*
X122898673Y-47790541D01*
X122904447Y-47788146D01*
X123216434Y-47634952D01*
X123540552Y-47442304D01*
X123567930Y-47423987D01*
X123905802Y-47194701D01*
X124294301Y-47534117D01*
X124294301Y-47534117D01*
G37*
X124294301Y-47534117D02*
X124515665Y-47757756D01*
X124595969Y-47943463D01*
X124523108Y-48117897D01*
X124284976Y-48307718D01*
X123869468Y-48539586D01*
X123828132Y-48560786D01*
X123326122Y-48799402D01*
X122978138Y-48921684D01*
X122773338Y-48930077D01*
X122700880Y-48827031D01*
X122700481Y-48815310D01*
X122683618Y-48606847D01*
X122643999Y-48317443D01*
X122639099Y-48287309D01*
X122616098Y-48037047D01*
X122687695Y-47899540D01*
X122898673Y-47790541D01*
X122904447Y-47788146D01*
X123216434Y-47634952D01*
X123540552Y-47442304D01*
X123567930Y-47423987D01*
X123905802Y-47194701D01*
X124294301Y-47534117D01*
G36*
X118011083Y-47279615D02*
X118111519Y-47324751D01*
X118426010Y-47491609D01*
X118702991Y-47675019D01*
X118730284Y-47696715D01*
X118975369Y-47898068D01*
X118577884Y-48308277D01*
X118249416Y-48624032D01*
X118004202Y-48811557D01*
X117858666Y-48860117D01*
X117824800Y-48800480D01*
X117771490Y-48656807D01*
X117635611Y-48415547D01*
X117537290Y-48263505D01*
X117356457Y-47993189D01*
X117219536Y-47782810D01*
X117180495Y-47719569D01*
X117209097Y-47585707D01*
X117381692Y-47409116D01*
X117424524Y-47377239D01*
X117637920Y-47239705D01*
X117800178Y-47209705D01*
X118011083Y-47279615D01*
X118011083Y-47279615D01*
G37*
X118011083Y-47279615D02*
X118111519Y-47324751D01*
X118426010Y-47491609D01*
X118702991Y-47675019D01*
X118730284Y-47696715D01*
X118975369Y-47898068D01*
X118577884Y-48308277D01*
X118249416Y-48624032D01*
X118004202Y-48811557D01*
X117858666Y-48860117D01*
X117824800Y-48800480D01*
X117771490Y-48656807D01*
X117635611Y-48415547D01*
X117537290Y-48263505D01*
X117356457Y-47993189D01*
X117219536Y-47782810D01*
X117180495Y-47719569D01*
X117209097Y-47585707D01*
X117381692Y-47409116D01*
X117424524Y-47377239D01*
X117637920Y-47239705D01*
X117800178Y-47209705D01*
X118011083Y-47279615D01*
G36*
X120310318Y-46414103D02*
X120505641Y-46537129D01*
X120753494Y-46709474D01*
X121000517Y-46892696D01*
X121193346Y-47048348D01*
X121278621Y-47137989D01*
X121279200Y-47141298D01*
X121220655Y-47312626D01*
X121063919Y-47598576D01*
X120837340Y-47954779D01*
X120569264Y-48336866D01*
X120288038Y-48700467D01*
X120265862Y-48727379D01*
X120168391Y-48701635D01*
X119978148Y-48558418D01*
X119775940Y-48367933D01*
X119549056Y-48127226D01*
X119394157Y-47944661D01*
X119348800Y-47870738D01*
X119396651Y-47768586D01*
X119520291Y-47543968D01*
X119689847Y-47247984D01*
X119875449Y-46931736D01*
X120047225Y-46646326D01*
X120175302Y-46442856D01*
X120220888Y-46378841D01*
X120310318Y-46414103D01*
X120310318Y-46414103D01*
G37*
X120310318Y-46414103D02*
X120505641Y-46537129D01*
X120753494Y-46709474D01*
X121000517Y-46892696D01*
X121193346Y-47048348D01*
X121278621Y-47137989D01*
X121279200Y-47141298D01*
X121220655Y-47312626D01*
X121063919Y-47598576D01*
X120837340Y-47954779D01*
X120569264Y-48336866D01*
X120288038Y-48700467D01*
X120265862Y-48727379D01*
X120168391Y-48701635D01*
X119978148Y-48558418D01*
X119775940Y-48367933D01*
X119549056Y-48127226D01*
X119394157Y-47944661D01*
X119348800Y-47870738D01*
X119396651Y-47768586D01*
X119520291Y-47543968D01*
X119689847Y-47247984D01*
X119875449Y-46931736D01*
X120047225Y-46646326D01*
X120175302Y-46442856D01*
X120220888Y-46378841D01*
X120310318Y-46414103D01*
G36*
X126328272Y-46892269D02*
X126476671Y-47046961D01*
X126493451Y-47166991D01*
X126384700Y-47345728D01*
X126360102Y-47380332D01*
X126168851Y-47601745D01*
X125891416Y-47870532D01*
X125708128Y-48028918D01*
X125449466Y-48233599D01*
X125299087Y-48320075D01*
X125211632Y-48303125D01*
X125148943Y-48211111D01*
X125109507Y-48043678D01*
X125209483Y-47872002D01*
X125300950Y-47779967D01*
X125512868Y-47544467D01*
X125746030Y-47233784D01*
X125828305Y-47109710D01*
X126100966Y-46678726D01*
X126328272Y-46892269D01*
X126328272Y-46892269D01*
G37*
X126328272Y-46892269D02*
X126476671Y-47046961D01*
X126493451Y-47166991D01*
X126384700Y-47345728D01*
X126360102Y-47380332D01*
X126168851Y-47601745D01*
X125891416Y-47870532D01*
X125708128Y-48028918D01*
X125449466Y-48233599D01*
X125299087Y-48320075D01*
X125211632Y-48303125D01*
X125148943Y-48211111D01*
X125109507Y-48043678D01*
X125209483Y-47872002D01*
X125300950Y-47779967D01*
X125512868Y-47544467D01*
X125746030Y-47233784D01*
X125828305Y-47109710D01*
X126100966Y-46678726D01*
X126328272Y-46892269D01*
G36*
X122364657Y-47088804D02*
X122346000Y-47737200D01*
X121812899Y-47767899D01*
X121279799Y-47798598D01*
X121478673Y-47461531D01*
X121681109Y-47175064D01*
X121945481Y-46868518D01*
X122030431Y-46782436D01*
X122383315Y-46440408D01*
X122364657Y-47088804D01*
X122364657Y-47088804D01*
G37*
X122364657Y-47088804D02*
X122346000Y-47737200D01*
X121812899Y-47767899D01*
X121279799Y-47798598D01*
X121478673Y-47461531D01*
X121681109Y-47175064D01*
X121945481Y-46868518D01*
X122030431Y-46782436D01*
X122383315Y-46440408D01*
X122364657Y-47088804D01*
G36*
X125127089Y-46112355D02*
X125382557Y-46226368D01*
X125528209Y-46299733D01*
X125967218Y-46529485D01*
X125494197Y-47158742D01*
X125261422Y-47456838D01*
X125071684Y-47678613D01*
X124959466Y-47784282D01*
X124948807Y-47788000D01*
X124842863Y-47721034D01*
X124648747Y-47549134D01*
X124498294Y-47400744D01*
X124120149Y-47013489D01*
X124491266Y-46537144D01*
X124707651Y-46282885D01*
X124888289Y-46111883D01*
X124975791Y-46065391D01*
X125127089Y-46112355D01*
X125127089Y-46112355D01*
G37*
X125127089Y-46112355D02*
X125382557Y-46226368D01*
X125528209Y-46299733D01*
X125967218Y-46529485D01*
X125494197Y-47158742D01*
X125261422Y-47456838D01*
X125071684Y-47678613D01*
X124959466Y-47784282D01*
X124948807Y-47788000D01*
X124842863Y-47721034D01*
X124648747Y-47549134D01*
X124498294Y-47400744D01*
X124120149Y-47013489D01*
X124491266Y-46537144D01*
X124707651Y-46282885D01*
X124888289Y-46111883D01*
X124975791Y-46065391D01*
X125127089Y-46112355D01*
G36*
X118986117Y-45980344D02*
X119305537Y-46031894D01*
X119615516Y-46101207D01*
X119853701Y-46174179D01*
X119957739Y-46236703D01*
X119958400Y-46240897D01*
X119910229Y-46361589D01*
X119787009Y-46599339D01*
X119620681Y-46898453D01*
X119443184Y-47203236D01*
X119286457Y-47457992D01*
X119182442Y-47607028D01*
X119165685Y-47623186D01*
X119040019Y-47601602D01*
X118843062Y-47483872D01*
X118837959Y-47480023D01*
X118571935Y-47308015D01*
X118252317Y-47138401D01*
X118212706Y-47120053D01*
X117838612Y-46950567D01*
X118111106Y-46456347D01*
X118285306Y-46167271D01*
X118431991Y-46018685D01*
X118606476Y-45965529D01*
X118719609Y-45960663D01*
X118986117Y-45980344D01*
X118986117Y-45980344D01*
G37*
X118986117Y-45980344D02*
X119305537Y-46031894D01*
X119615516Y-46101207D01*
X119853701Y-46174179D01*
X119957739Y-46236703D01*
X119958400Y-46240897D01*
X119910229Y-46361589D01*
X119787009Y-46599339D01*
X119620681Y-46898453D01*
X119443184Y-47203236D01*
X119286457Y-47457992D01*
X119182442Y-47607028D01*
X119165685Y-47623186D01*
X119040019Y-47601602D01*
X118843062Y-47483872D01*
X118837959Y-47480023D01*
X118571935Y-47308015D01*
X118252317Y-47138401D01*
X118212706Y-47120053D01*
X117838612Y-46950567D01*
X118111106Y-46456347D01*
X118285306Y-46167271D01*
X118431991Y-46018685D01*
X118606476Y-45965529D01*
X118719609Y-45960663D01*
X118986117Y-45980344D01*
G36*
X122957641Y-46613905D02*
X123257079Y-46754942D01*
X123507848Y-46898525D01*
X123525420Y-46910523D01*
X123638368Y-47002559D01*
X123641012Y-47081090D01*
X123509806Y-47186486D01*
X123285852Y-47321254D01*
X122946768Y-47506915D01*
X122742498Y-47564525D01*
X122639275Y-47479483D01*
X122603329Y-47237182D01*
X122600000Y-47024636D01*
X122600000Y-46464473D01*
X122957641Y-46613905D01*
X122957641Y-46613905D01*
G37*
X122957641Y-46613905D02*
X123257079Y-46754942D01*
X123507848Y-46898525D01*
X123525420Y-46910523D01*
X123638368Y-47002559D01*
X123641012Y-47081090D01*
X123509806Y-47186486D01*
X123285852Y-47321254D01*
X122946768Y-47506915D01*
X122742498Y-47564525D01*
X122639275Y-47479483D01*
X122603329Y-47237182D01*
X122600000Y-47024636D01*
X122600000Y-46464473D01*
X122957641Y-46613905D01*
G36*
X117253816Y-47004618D02*
X117316800Y-47061053D01*
X117250500Y-47194587D01*
X117102352Y-47335233D01*
X116948482Y-47421639D01*
X116876755Y-47415688D01*
X116818372Y-47266067D01*
X116808800Y-47161466D01*
X116878594Y-47012635D01*
X117062800Y-46975200D01*
X117253816Y-47004618D01*
X117253816Y-47004618D01*
G37*
X117253816Y-47004618D02*
X117316800Y-47061053D01*
X117250500Y-47194587D01*
X117102352Y-47335233D01*
X116948482Y-47421639D01*
X116876755Y-47415688D01*
X116818372Y-47266067D01*
X116808800Y-47161466D01*
X116878594Y-47012635D01*
X117062800Y-46975200D01*
X117253816Y-47004618D01*
G36*
X122575140Y-45237833D02*
X122596101Y-45471600D01*
X122600000Y-45654400D01*
X122581317Y-45944179D01*
X122533548Y-46128112D01*
X122496129Y-46162400D01*
X122370562Y-46226641D01*
X122152413Y-46392966D01*
X121951367Y-46568800D01*
X121709353Y-46785821D01*
X121532340Y-46933272D01*
X121468215Y-46975200D01*
X121374508Y-46911292D01*
X121208311Y-46757555D01*
X120989210Y-46538454D01*
X121312005Y-46135419D01*
X121527229Y-45902799D01*
X121806639Y-45647382D01*
X122100063Y-45409504D01*
X122357331Y-45229503D01*
X122528274Y-45147717D01*
X122542105Y-45146400D01*
X122575140Y-45237833D01*
X122575140Y-45237833D01*
G37*
X122575140Y-45237833D02*
X122596101Y-45471600D01*
X122600000Y-45654400D01*
X122581317Y-45944179D01*
X122533548Y-46128112D01*
X122496129Y-46162400D01*
X122370562Y-46226641D01*
X122152413Y-46392966D01*
X121951367Y-46568800D01*
X121709353Y-46785821D01*
X121532340Y-46933272D01*
X121468215Y-46975200D01*
X121374508Y-46911292D01*
X121208311Y-46757555D01*
X120989210Y-46538454D01*
X121312005Y-46135419D01*
X121527229Y-45902799D01*
X121806639Y-45647382D01*
X122100063Y-45409504D01*
X122357331Y-45229503D01*
X122528274Y-45147717D01*
X122542105Y-45146400D01*
X122575140Y-45237833D01*
G36*
X118088768Y-46028608D02*
X117999040Y-46216614D01*
X117992300Y-46229418D01*
X117769347Y-46597056D01*
X117581245Y-46793538D01*
X117469200Y-46819999D01*
X117300560Y-46776992D01*
X117088200Y-46728151D01*
X116857199Y-46637868D01*
X116817318Y-46517334D01*
X116960012Y-46374065D01*
X117276743Y-46215577D01*
X117758968Y-46049387D01*
X117908357Y-46006411D01*
X118064042Y-45973156D01*
X118088768Y-46028608D01*
X118088768Y-46028608D01*
G37*
X118088768Y-46028608D02*
X117999040Y-46216614D01*
X117992300Y-46229418D01*
X117769347Y-46597056D01*
X117581245Y-46793538D01*
X117469200Y-46819999D01*
X117300560Y-46776992D01*
X117088200Y-46728151D01*
X116857199Y-46637868D01*
X116817318Y-46517334D01*
X116960012Y-46374065D01*
X117276743Y-46215577D01*
X117758968Y-46049387D01*
X117908357Y-46006411D01*
X118064042Y-45973156D01*
X118088768Y-46028608D01*
G36*
X124215098Y-45977664D02*
X124655772Y-46010000D01*
X123870000Y-46862804D01*
X123388862Y-46588802D01*
X123122519Y-46426680D01*
X122947155Y-46299929D01*
X122906262Y-46251804D01*
X122995998Y-46174870D01*
X123228758Y-46096322D01*
X123544856Y-46028659D01*
X123884604Y-45984384D01*
X124188319Y-45975997D01*
X124215098Y-45977664D01*
X124215098Y-45977664D01*
G37*
X124215098Y-45977664D02*
X124655772Y-46010000D01*
X123870000Y-46862804D01*
X123388862Y-46588802D01*
X123122519Y-46426680D01*
X122947155Y-46299929D01*
X122906262Y-46251804D01*
X122995998Y-46174870D01*
X123228758Y-46096322D01*
X123544856Y-46028659D01*
X123884604Y-45984384D01*
X124188319Y-45975997D01*
X124215098Y-45977664D01*
G36*
X126762647Y-46747715D02*
X126765600Y-46772000D01*
X126688284Y-46870647D01*
X126664000Y-46873600D01*
X126565352Y-46796284D01*
X126562400Y-46772000D01*
X126639715Y-46673352D01*
X126664000Y-46670400D01*
X126762647Y-46747715D01*
X126762647Y-46747715D01*
G37*
X126762647Y-46747715D02*
X126765600Y-46772000D01*
X126688284Y-46870647D01*
X126664000Y-46873600D01*
X126565352Y-46796284D01*
X126562400Y-46772000D01*
X126639715Y-46673352D01*
X126664000Y-46670400D01*
X126762647Y-46747715D01*
G36*
X126677889Y-46387163D02*
X126701475Y-46439511D01*
X126570544Y-46494508D01*
X126413703Y-46517587D01*
X126432560Y-46454873D01*
X126437274Y-46450085D01*
X126612912Y-46378464D01*
X126677889Y-46387163D01*
X126677889Y-46387163D01*
G37*
X126677889Y-46387163D02*
X126701475Y-46439511D01*
X126570544Y-46494508D01*
X126413703Y-46517587D01*
X126432560Y-46454873D01*
X126437274Y-46450085D01*
X126612912Y-46378464D01*
X126677889Y-46387163D01*
G36*
X121771220Y-44816368D02*
X121683169Y-45060509D01*
X121529394Y-45372798D01*
X121337674Y-45705791D01*
X121135790Y-46012046D01*
X120951520Y-46244117D01*
X120812645Y-46354563D01*
X120788062Y-46357586D01*
X120665826Y-46312261D01*
X120422583Y-46204002D01*
X120212400Y-46104831D01*
X119851716Y-45950120D01*
X119501215Y-45829784D01*
X119353480Y-45792851D01*
X119228031Y-45762450D01*
X119183917Y-45724065D01*
X119241950Y-45665422D01*
X119422940Y-45574245D01*
X119747698Y-45438260D01*
X120237036Y-45245192D01*
X120369480Y-45193590D01*
X120856291Y-45006581D01*
X121270770Y-44852034D01*
X121578703Y-44742344D01*
X121745873Y-44689904D01*
X121765767Y-44687818D01*
X121771220Y-44816368D01*
X121771220Y-44816368D01*
G37*
X121771220Y-44816368D02*
X121683169Y-45060509D01*
X121529394Y-45372798D01*
X121337674Y-45705791D01*
X121135790Y-46012046D01*
X120951520Y-46244117D01*
X120812645Y-46354563D01*
X120788062Y-46357586D01*
X120665826Y-46312261D01*
X120422583Y-46204002D01*
X120212400Y-46104831D01*
X119851716Y-45950120D01*
X119501215Y-45829784D01*
X119353480Y-45792851D01*
X119228031Y-45762450D01*
X119183917Y-45724065D01*
X119241950Y-45665422D01*
X119422940Y-45574245D01*
X119747698Y-45438260D01*
X120237036Y-45245192D01*
X120369480Y-45193590D01*
X120856291Y-45006581D01*
X121270770Y-44852034D01*
X121578703Y-44742344D01*
X121745873Y-44689904D01*
X121765767Y-44687818D01*
X121771220Y-44816368D01*
G36*
X126311088Y-46182021D02*
X126280598Y-46257599D01*
X126185781Y-46308267D01*
X126067084Y-46339200D01*
X126115779Y-46264773D01*
X126128906Y-46251392D01*
X126262116Y-46171140D01*
X126311088Y-46182021D01*
X126311088Y-46182021D01*
G37*
X126311088Y-46182021D02*
X126280598Y-46257599D01*
X126185781Y-46308267D01*
X126067084Y-46339200D01*
X126115779Y-46264773D01*
X126128906Y-46251392D01*
X126262116Y-46171140D01*
X126311088Y-46182021D01*
G36*
X126738083Y-46101016D02*
X126707782Y-46147195D01*
X126604733Y-46154378D01*
X126496322Y-46129566D01*
X126543350Y-46092995D01*
X126702138Y-46080883D01*
X126738083Y-46101016D01*
X126738083Y-46101016D01*
G37*
X126738083Y-46101016D02*
X126707782Y-46147195D01*
X126604733Y-46154378D01*
X126496322Y-46129566D01*
X126543350Y-46092995D01*
X126702138Y-46080883D01*
X126738083Y-46101016D01*
G36*
X118914869Y-43172958D02*
X119185330Y-43233558D01*
X119577629Y-43348516D01*
X120127271Y-43519628D01*
X120161600Y-43530339D01*
X120665697Y-43707219D01*
X121103309Y-43897409D01*
X121415973Y-44074781D01*
X121467819Y-44114104D01*
X121808839Y-44396826D01*
X120063954Y-45076413D01*
X119493508Y-45293770D01*
X118974981Y-45482345D01*
X118543205Y-45630177D01*
X118233012Y-45725307D01*
X118084708Y-45756000D01*
X117842984Y-45789624D01*
X117522997Y-45873675D01*
X117418400Y-45908400D01*
X117118090Y-46012629D01*
X116969683Y-46042187D01*
X116931838Y-45985225D01*
X116963213Y-45829895D01*
X116975285Y-45781400D01*
X117232084Y-45060091D01*
X117634829Y-44326940D01*
X118143150Y-43651196D01*
X118341375Y-43438185D01*
X118479501Y-43299329D01*
X118597457Y-43207641D01*
X118730746Y-43164918D01*
X118914869Y-43172958D01*
X118914869Y-43172958D01*
G37*
X118914869Y-43172958D02*
X119185330Y-43233558D01*
X119577629Y-43348516D01*
X120127271Y-43519628D01*
X120161600Y-43530339D01*
X120665697Y-43707219D01*
X121103309Y-43897409D01*
X121415973Y-44074781D01*
X121467819Y-44114104D01*
X121808839Y-44396826D01*
X120063954Y-45076413D01*
X119493508Y-45293770D01*
X118974981Y-45482345D01*
X118543205Y-45630177D01*
X118233012Y-45725307D01*
X118084708Y-45756000D01*
X117842984Y-45789624D01*
X117522997Y-45873675D01*
X117418400Y-45908400D01*
X117118090Y-46012629D01*
X116969683Y-46042187D01*
X116931838Y-45985225D01*
X116963213Y-45829895D01*
X116975285Y-45781400D01*
X117232084Y-45060091D01*
X117634829Y-44326940D01*
X118143150Y-43651196D01*
X118341375Y-43438185D01*
X118479501Y-43299329D01*
X118597457Y-43207641D01*
X118730746Y-43164918D01*
X118914869Y-43172958D01*
G36*
X122982591Y-45197972D02*
X123194959Y-45321961D01*
X123416058Y-45472270D01*
X123576656Y-45602803D01*
X123616000Y-45657589D01*
X123531125Y-45747740D01*
X123387400Y-45808015D01*
X123062065Y-45899488D01*
X122887231Y-45921513D01*
X122816359Y-45854305D01*
X122802914Y-45678079D01*
X122803200Y-45559646D01*
X122813035Y-45302512D01*
X122837647Y-45157937D01*
X122848192Y-45146400D01*
X122982591Y-45197972D01*
X122982591Y-45197972D01*
G37*
X122982591Y-45197972D02*
X123194959Y-45321961D01*
X123416058Y-45472270D01*
X123576656Y-45602803D01*
X123616000Y-45657589D01*
X123531125Y-45747740D01*
X123387400Y-45808015D01*
X123062065Y-45899488D01*
X122887231Y-45921513D01*
X122816359Y-45854305D01*
X122802914Y-45678079D01*
X122803200Y-45559646D01*
X122813035Y-45302512D01*
X122837647Y-45157937D01*
X122848192Y-45146400D01*
X122982591Y-45197972D01*
G36*
X123827275Y-44767039D02*
X124120674Y-44855164D01*
X124459759Y-44976462D01*
X124864343Y-45128838D01*
X125108284Y-45234719D01*
X125221734Y-45317520D01*
X125234846Y-45400660D01*
X125177771Y-45507555D01*
X125166273Y-45525173D01*
X125040302Y-45664165D01*
X124855890Y-45733798D01*
X124547851Y-45755518D01*
X124464726Y-45756000D01*
X124098084Y-45732408D01*
X123901016Y-45664779D01*
X123875297Y-45629000D01*
X123824784Y-45437206D01*
X123777319Y-45232038D01*
X123711119Y-44970018D01*
X123660234Y-44810327D01*
X123681044Y-44753600D01*
X123827275Y-44767039D01*
X123827275Y-44767039D01*
G37*
X123827275Y-44767039D02*
X124120674Y-44855164D01*
X124459759Y-44976462D01*
X124864343Y-45128838D01*
X125108284Y-45234719D01*
X125221734Y-45317520D01*
X125234846Y-45400660D01*
X125177771Y-45507555D01*
X125166273Y-45525173D01*
X125040302Y-45664165D01*
X124855890Y-45733798D01*
X124547851Y-45755518D01*
X124464726Y-45756000D01*
X124098084Y-45732408D01*
X123901016Y-45664779D01*
X123875297Y-45629000D01*
X123824784Y-45437206D01*
X123777319Y-45232038D01*
X123711119Y-44970018D01*
X123660234Y-44810327D01*
X123681044Y-44753600D01*
X123827275Y-44767039D01*
G36*
X122768139Y-42997596D02*
X122875054Y-43209491D01*
X122920101Y-43312654D01*
X123037504Y-43556033D01*
X123170303Y-43678596D01*
X123392522Y-43729068D01*
X123574525Y-43743420D01*
X124061247Y-43774800D01*
X123681219Y-44028800D01*
X123473492Y-44180961D01*
X123368045Y-44324572D01*
X123353044Y-44517291D01*
X123416653Y-44816776D01*
X123475746Y-45029885D01*
X123543583Y-45268971D01*
X123118390Y-45000559D01*
X122860425Y-44844628D01*
X122700148Y-44789730D01*
X122563903Y-44827667D01*
X122417998Y-44922614D01*
X122117894Y-45124943D01*
X121953120Y-45217274D01*
X121895735Y-45210574D01*
X121916376Y-45119481D01*
X121977699Y-44907876D01*
X122038768Y-44623952D01*
X122039446Y-44620214D01*
X122059336Y-44396662D01*
X121990651Y-44240566D01*
X121793648Y-44078078D01*
X121721179Y-44028800D01*
X121341952Y-43774800D01*
X121828674Y-43743420D01*
X122129432Y-43711550D01*
X122301032Y-43633746D01*
X122417498Y-43461283D01*
X122483098Y-43312654D01*
X122596590Y-43067913D01*
X122682769Y-42926861D01*
X122701600Y-42913266D01*
X122768139Y-42997596D01*
X122768139Y-42997596D01*
G37*
X122768139Y-42997596D02*
X122875054Y-43209491D01*
X122920101Y-43312654D01*
X123037504Y-43556033D01*
X123170303Y-43678596D01*
X123392522Y-43729068D01*
X123574525Y-43743420D01*
X124061247Y-43774800D01*
X123681219Y-44028800D01*
X123473492Y-44180961D01*
X123368045Y-44324572D01*
X123353044Y-44517291D01*
X123416653Y-44816776D01*
X123475746Y-45029885D01*
X123543583Y-45268971D01*
X123118390Y-45000559D01*
X122860425Y-44844628D01*
X122700148Y-44789730D01*
X122563903Y-44827667D01*
X122417998Y-44922614D01*
X122117894Y-45124943D01*
X121953120Y-45217274D01*
X121895735Y-45210574D01*
X121916376Y-45119481D01*
X121977699Y-44907876D01*
X122038768Y-44623952D01*
X122039446Y-44620214D01*
X122059336Y-44396662D01*
X121990651Y-44240566D01*
X121793648Y-44078078D01*
X121721179Y-44028800D01*
X121341952Y-43774800D01*
X121828674Y-43743420D01*
X122129432Y-43711550D01*
X122301032Y-43633746D01*
X122417498Y-43461283D01*
X122483098Y-43312654D01*
X122596590Y-43067913D01*
X122682769Y-42926861D01*
X122701600Y-42913266D01*
X122768139Y-42997596D01*
G36*
X126580922Y-43498850D02*
X126497652Y-43698976D01*
X126449847Y-43796282D01*
X126326017Y-44087120D01*
X126259546Y-44336438D01*
X126256044Y-44380482D01*
X126210552Y-44631514D01*
X126048418Y-44819938D01*
X125800400Y-44966720D01*
X125645289Y-45034000D01*
X125494469Y-45056205D01*
X125299181Y-45025975D01*
X125010672Y-44935950D01*
X124597019Y-44785048D01*
X124203497Y-44635718D01*
X123888186Y-44511246D01*
X123695271Y-44429325D01*
X123657387Y-44408854D01*
X123708676Y-44332670D01*
X123884406Y-44180868D01*
X124049529Y-44056709D01*
X124307347Y-43895901D01*
X124596920Y-43775816D01*
X124974865Y-43678060D01*
X125497797Y-43584236D01*
X125509284Y-43582407D01*
X125942845Y-43514254D01*
X126296883Y-43460062D01*
X126526470Y-43426623D01*
X126588971Y-43419200D01*
X126580922Y-43498850D01*
X126580922Y-43498850D01*
G37*
X126580922Y-43498850D02*
X126497652Y-43698976D01*
X126449847Y-43796282D01*
X126326017Y-44087120D01*
X126259546Y-44336438D01*
X126256044Y-44380482D01*
X126210552Y-44631514D01*
X126048418Y-44819938D01*
X125800400Y-44966720D01*
X125645289Y-45034000D01*
X125494469Y-45056205D01*
X125299181Y-45025975D01*
X125010672Y-44935950D01*
X124597019Y-44785048D01*
X124203497Y-44635718D01*
X123888186Y-44511246D01*
X123695271Y-44429325D01*
X123657387Y-44408854D01*
X123708676Y-44332670D01*
X123884406Y-44180868D01*
X124049529Y-44056709D01*
X124307347Y-43895901D01*
X124596920Y-43775816D01*
X124974865Y-43678060D01*
X125497797Y-43584236D01*
X125509284Y-43582407D01*
X125942845Y-43514254D01*
X126296883Y-43460062D01*
X126526470Y-43426623D01*
X126588971Y-43419200D01*
X126580922Y-43498850D01*
G36*
X121173883Y-42542169D02*
X121456425Y-42847353D01*
X121697313Y-43119060D01*
X121850253Y-43304875D01*
X121862725Y-43322069D01*
X121928047Y-43432951D01*
X121900477Y-43491547D01*
X121743524Y-43513386D01*
X121420693Y-43513999D01*
X121411961Y-43513897D01*
X121014633Y-43477141D01*
X120515634Y-43385436D01*
X120003434Y-43255501D01*
X119933381Y-43234497D01*
X119548429Y-43105138D01*
X119255222Y-42984892D01*
X119095096Y-42891837D01*
X119078076Y-42860400D01*
X119177896Y-42769268D01*
X119414672Y-42615188D01*
X119743788Y-42426433D01*
X119867813Y-42359899D01*
X120624237Y-41960999D01*
X121173883Y-42542169D01*
X121173883Y-42542169D01*
G37*
X121173883Y-42542169D02*
X121456425Y-42847353D01*
X121697313Y-43119060D01*
X121850253Y-43304875D01*
X121862725Y-43322069D01*
X121928047Y-43432951D01*
X121900477Y-43491547D01*
X121743524Y-43513386D01*
X121420693Y-43513999D01*
X121411961Y-43513897D01*
X121014633Y-43477141D01*
X120515634Y-43385436D01*
X120003434Y-43255501D01*
X119933381Y-43234497D01*
X119548429Y-43105138D01*
X119255222Y-42984892D01*
X119095096Y-42891837D01*
X119078076Y-42860400D01*
X119177896Y-42769268D01*
X119414672Y-42615188D01*
X119743788Y-42426433D01*
X119867813Y-42359899D01*
X120624237Y-41960999D01*
X121173883Y-42542169D01*
G36*
X125033617Y-42147993D02*
X125314064Y-42276857D01*
X125653811Y-42455117D01*
X125996809Y-42652898D01*
X126287008Y-42840325D01*
X126359158Y-42892925D01*
X126714717Y-43163425D01*
X125647958Y-43334634D01*
X125125263Y-43409583D01*
X124601946Y-43469571D01*
X124156724Y-43506192D01*
X123974324Y-43513321D01*
X123367449Y-43520800D01*
X124073200Y-42809600D01*
X124381820Y-42507213D01*
X124641495Y-42268729D01*
X124817114Y-42125545D01*
X124868520Y-42098400D01*
X125033617Y-42147993D01*
X125033617Y-42147993D01*
G37*
X125033617Y-42147993D02*
X125314064Y-42276857D01*
X125653811Y-42455117D01*
X125996809Y-42652898D01*
X126287008Y-42840325D01*
X126359158Y-42892925D01*
X126714717Y-43163425D01*
X125647958Y-43334634D01*
X125125263Y-43409583D01*
X124601946Y-43469571D01*
X124156724Y-43506192D01*
X123974324Y-43513321D01*
X123367449Y-43520800D01*
X124073200Y-42809600D01*
X124381820Y-42507213D01*
X124641495Y-42268729D01*
X124817114Y-42125545D01*
X124868520Y-42098400D01*
X125033617Y-42147993D01*
G36*
X122600000Y-42016377D02*
X122573273Y-42277575D01*
X122505075Y-42596042D01*
X122413382Y-42912330D01*
X122316169Y-43166992D01*
X122231410Y-43300583D01*
X122209449Y-43307998D01*
X122115956Y-43233076D01*
X121922657Y-43040946D01*
X121664241Y-42766716D01*
X121540643Y-42631083D01*
X121247737Y-42298787D01*
X121092195Y-42075137D01*
X121087525Y-41932821D01*
X121247231Y-41844525D01*
X121584822Y-41782934D01*
X121983502Y-41735502D01*
X122600000Y-41665753D01*
X122600000Y-42016377D01*
X122600000Y-42016377D01*
G37*
X122600000Y-42016377D02*
X122573273Y-42277575D01*
X122505075Y-42596042D01*
X122413382Y-42912330D01*
X122316169Y-43166992D01*
X122231410Y-43300583D01*
X122209449Y-43307998D01*
X122115956Y-43233076D01*
X121922657Y-43040946D01*
X121664241Y-42766716D01*
X121540643Y-42631083D01*
X121247737Y-42298787D01*
X121092195Y-42075137D01*
X121087525Y-41932821D01*
X121247231Y-41844525D01*
X121584822Y-41782934D01*
X121983502Y-41735502D01*
X122600000Y-41665753D01*
X122600000Y-42016377D01*
G36*
X123330000Y-41711149D02*
X123652521Y-41759851D01*
X123999849Y-41824988D01*
X124304021Y-41893439D01*
X124497077Y-41952087D01*
X124524711Y-41966969D01*
X124478440Y-42047096D01*
X124322989Y-42228881D01*
X124096111Y-42473621D01*
X123835559Y-42742615D01*
X123579085Y-42997161D01*
X123364443Y-43198556D01*
X123229386Y-43308098D01*
X123207205Y-43317600D01*
X123142389Y-43230773D01*
X123041436Y-43008777D01*
X122975167Y-42835000D01*
X122870819Y-42476129D01*
X122809527Y-42134281D01*
X122802697Y-42022200D01*
X122823879Y-41794414D01*
X122924346Y-41705511D01*
X123100248Y-41692000D01*
X123330000Y-41711149D01*
X123330000Y-41711149D01*
G37*
X123330000Y-41711149D02*
X123652521Y-41759851D01*
X123999849Y-41824988D01*
X124304021Y-41893439D01*
X124497077Y-41952087D01*
X124524711Y-41966969D01*
X124478440Y-42047096D01*
X124322989Y-42228881D01*
X124096111Y-42473621D01*
X123835559Y-42742615D01*
X123579085Y-42997161D01*
X123364443Y-43198556D01*
X123229386Y-43308098D01*
X123207205Y-43317600D01*
X123142389Y-43230773D01*
X123041436Y-43008777D01*
X122975167Y-42835000D01*
X122870819Y-42476129D01*
X122809527Y-42134281D01*
X122802697Y-42022200D01*
X122823879Y-41794414D01*
X122924346Y-41705511D01*
X123100248Y-41692000D01*
X123330000Y-41711149D01*
G36*
X130834855Y-47569462D02*
X130957720Y-47767304D01*
X130959416Y-47966964D01*
X130799829Y-48154534D01*
X130556629Y-48222425D01*
X130395176Y-48180736D01*
X130243689Y-48006444D01*
X130239503Y-47788618D01*
X130359017Y-47593647D01*
X130578632Y-47487919D01*
X130643145Y-47483200D01*
X130834855Y-47569462D01*
X130834855Y-47569462D01*
G37*
X130834855Y-47569462D02*
X130957720Y-47767304D01*
X130959416Y-47966964D01*
X130799829Y-48154534D01*
X130556629Y-48222425D01*
X130395176Y-48180736D01*
X130243689Y-48006444D01*
X130239503Y-47788618D01*
X130359017Y-47593647D01*
X130578632Y-47487919D01*
X130643145Y-47483200D01*
X130834855Y-47569462D01*
G36*
X128834991Y-41994792D02*
X128956764Y-42169644D01*
X128977193Y-42389592D01*
X128895149Y-42560480D01*
X128705505Y-42689100D01*
X128450385Y-42653775D01*
X128416600Y-42640712D01*
X128310287Y-42504573D01*
X128301358Y-42282077D01*
X128385156Y-42062588D01*
X128450516Y-41989732D01*
X128652651Y-41917374D01*
X128834991Y-41994792D01*
X128834991Y-41994792D01*
G37*
X128834991Y-41994792D02*
X128956764Y-42169644D01*
X128977193Y-42389592D01*
X128895149Y-42560480D01*
X128705505Y-42689100D01*
X128450385Y-42653775D01*
X128416600Y-42640712D01*
X128310287Y-42504573D01*
X128301358Y-42282077D01*
X128385156Y-42062588D01*
X128450516Y-41989732D01*
X128652651Y-41917374D01*
X128834991Y-41994792D01*
G36*
X126986505Y-40449865D02*
X127029059Y-40566495D01*
X126936110Y-40623627D01*
X126775301Y-40580396D01*
X126697923Y-40488347D01*
X126763605Y-40423232D01*
X126933860Y-40414726D01*
X126986505Y-40449865D01*
X126986505Y-40449865D01*
G37*
X126986505Y-40449865D02*
X127029059Y-40566495D01*
X126936110Y-40623627D01*
X126775301Y-40580396D01*
X126697923Y-40488347D01*
X126763605Y-40423232D01*
X126933860Y-40414726D01*
X126986505Y-40449865D01*
G36*
X121444728Y-39431333D02*
X121523943Y-39550523D01*
X121533200Y-39710800D01*
X121502234Y-39933588D01*
X121370577Y-40027664D01*
X121253222Y-40047804D01*
X121004654Y-40020668D01*
X120914429Y-39926739D01*
X120874085Y-39640280D01*
X120998468Y-39459543D01*
X121229791Y-39406000D01*
X121444728Y-39431333D01*
X121444728Y-39431333D01*
G37*
X121444728Y-39431333D02*
X121523943Y-39550523D01*
X121533200Y-39710800D01*
X121502234Y-39933588D01*
X121370577Y-40027664D01*
X121253222Y-40047804D01*
X121004654Y-40020668D01*
X120914429Y-39926739D01*
X120874085Y-39640280D01*
X120998468Y-39459543D01*
X121229791Y-39406000D01*
X121444728Y-39431333D01*
G04 #@! TO.C,C1*
D11*
X159606383Y-49605992D02*
X159558764Y-49653611D01*
X159415907Y-49701230D01*
X159320669Y-49701230D01*
X159177811Y-49653611D01*
X159082573Y-49558373D01*
X159034954Y-49463135D01*
X158987335Y-49272659D01*
X158987335Y-49129802D01*
X159034954Y-48939326D01*
X159082573Y-48844088D01*
X159177811Y-48748850D01*
X159320669Y-48701230D01*
X159415907Y-48701230D01*
X159558764Y-48748850D01*
X159606383Y-48796469D01*
X160558764Y-49701230D02*
X159987335Y-49701230D01*
X160273050Y-49701230D02*
X160273050Y-48701230D01*
X160177811Y-48844088D01*
X160082573Y-48939326D01*
X159987335Y-48986945D01*
G04 #@! TO.C,C2*
X160707142Y-38841666D02*
X160754761Y-38889285D01*
X160802380Y-39032142D01*
X160802380Y-39127380D01*
X160754761Y-39270238D01*
X160659523Y-39365476D01*
X160564285Y-39413095D01*
X160373809Y-39460714D01*
X160230952Y-39460714D01*
X160040476Y-39413095D01*
X159945238Y-39365476D01*
X159850000Y-39270238D01*
X159802380Y-39127380D01*
X159802380Y-39032142D01*
X159850000Y-38889285D01*
X159897619Y-38841666D01*
X159897619Y-38460714D02*
X159850000Y-38413095D01*
X159802380Y-38317857D01*
X159802380Y-38079761D01*
X159850000Y-37984523D01*
X159897619Y-37936904D01*
X159992857Y-37889285D01*
X160088095Y-37889285D01*
X160230952Y-37936904D01*
X160802380Y-38508333D01*
X160802380Y-37889285D01*
G04 #@! TO.C,C3*
X150483333Y-39707142D02*
X150435714Y-39754761D01*
X150292857Y-39802380D01*
X150197619Y-39802380D01*
X150054761Y-39754761D01*
X149959523Y-39659523D01*
X149911904Y-39564285D01*
X149864285Y-39373809D01*
X149864285Y-39230952D01*
X149911904Y-39040476D01*
X149959523Y-38945238D01*
X150054761Y-38850000D01*
X150197619Y-38802380D01*
X150292857Y-38802380D01*
X150435714Y-38850000D01*
X150483333Y-38897619D01*
X150816666Y-38802380D02*
X151435714Y-38802380D01*
X151102380Y-39183333D01*
X151245238Y-39183333D01*
X151340476Y-39230952D01*
X151388095Y-39278571D01*
X151435714Y-39373809D01*
X151435714Y-39611904D01*
X151388095Y-39707142D01*
X151340476Y-39754761D01*
X151245238Y-39802380D01*
X150959523Y-39802380D01*
X150864285Y-39754761D01*
X150816666Y-39707142D01*
G04 #@! TO.C,C4*
X143907142Y-47391666D02*
X143954761Y-47439285D01*
X144002380Y-47582142D01*
X144002380Y-47677380D01*
X143954761Y-47820238D01*
X143859523Y-47915476D01*
X143764285Y-47963095D01*
X143573809Y-48010714D01*
X143430952Y-48010714D01*
X143240476Y-47963095D01*
X143145238Y-47915476D01*
X143050000Y-47820238D01*
X143002380Y-47677380D01*
X143002380Y-47582142D01*
X143050000Y-47439285D01*
X143097619Y-47391666D01*
X143335714Y-46534523D02*
X144002380Y-46534523D01*
X142954761Y-46772619D02*
X143669047Y-47010714D01*
X143669047Y-46391666D01*
G04 #@! TO.C,C5*
X145057142Y-47366666D02*
X145104761Y-47414285D01*
X145152380Y-47557142D01*
X145152380Y-47652380D01*
X145104761Y-47795238D01*
X145009523Y-47890476D01*
X144914285Y-47938095D01*
X144723809Y-47985714D01*
X144580952Y-47985714D01*
X144390476Y-47938095D01*
X144295238Y-47890476D01*
X144200000Y-47795238D01*
X144152380Y-47652380D01*
X144152380Y-47557142D01*
X144200000Y-47414285D01*
X144247619Y-47366666D01*
X144152380Y-46461904D02*
X144152380Y-46938095D01*
X144628571Y-46985714D01*
X144580952Y-46938095D01*
X144533333Y-46842857D01*
X144533333Y-46604761D01*
X144580952Y-46509523D01*
X144628571Y-46461904D01*
X144723809Y-46414285D01*
X144961904Y-46414285D01*
X145057142Y-46461904D01*
X145104761Y-46509523D01*
X145152380Y-46604761D01*
X145152380Y-46842857D01*
X145104761Y-46938095D01*
X145057142Y-46985714D01*
G04 #@! TO.C,C6*
X134307142Y-39466666D02*
X134354761Y-39514285D01*
X134402380Y-39657142D01*
X134402380Y-39752380D01*
X134354761Y-39895238D01*
X134259523Y-39990476D01*
X134164285Y-40038095D01*
X133973809Y-40085714D01*
X133830952Y-40085714D01*
X133640476Y-40038095D01*
X133545238Y-39990476D01*
X133450000Y-39895238D01*
X133402380Y-39752380D01*
X133402380Y-39657142D01*
X133450000Y-39514285D01*
X133497619Y-39466666D01*
X133402380Y-38609523D02*
X133402380Y-38800000D01*
X133450000Y-38895238D01*
X133497619Y-38942857D01*
X133640476Y-39038095D01*
X133830952Y-39085714D01*
X134211904Y-39085714D01*
X134307142Y-39038095D01*
X134354761Y-38990476D01*
X134402380Y-38895238D01*
X134402380Y-38704761D01*
X134354761Y-38609523D01*
X134307142Y-38561904D01*
X134211904Y-38514285D01*
X133973809Y-38514285D01*
X133878571Y-38561904D01*
X133830952Y-38609523D01*
X133783333Y-38704761D01*
X133783333Y-38895238D01*
X133830952Y-38990476D01*
X133878571Y-39038095D01*
X133973809Y-39085714D01*
G04 #@! TO.C,C7*
X134307142Y-45066666D02*
X134354761Y-45114285D01*
X134402380Y-45257142D01*
X134402380Y-45352380D01*
X134354761Y-45495238D01*
X134259523Y-45590476D01*
X134164285Y-45638095D01*
X133973809Y-45685714D01*
X133830952Y-45685714D01*
X133640476Y-45638095D01*
X133545238Y-45590476D01*
X133450000Y-45495238D01*
X133402380Y-45352380D01*
X133402380Y-45257142D01*
X133450000Y-45114285D01*
X133497619Y-45066666D01*
X133402380Y-44733333D02*
X133402380Y-44066666D01*
X134402380Y-44495238D01*
G04 #@! TO.C,R1*
X162008333Y-40102380D02*
X161675000Y-39626190D01*
X161436904Y-40102380D02*
X161436904Y-39102380D01*
X161817857Y-39102380D01*
X161913095Y-39150000D01*
X161960714Y-39197619D01*
X162008333Y-39292857D01*
X162008333Y-39435714D01*
X161960714Y-39530952D01*
X161913095Y-39578571D01*
X161817857Y-39626190D01*
X161436904Y-39626190D01*
X162960714Y-40102380D02*
X162389285Y-40102380D01*
X162675000Y-40102380D02*
X162675000Y-39102380D01*
X162579761Y-39245238D01*
X162484523Y-39340476D01*
X162389285Y-39388095D01*
G04 #@! TO.C,K1_1*
X116546511Y-57761130D02*
X116546511Y-56761130D01*
X117117940Y-57761130D02*
X116689369Y-57189702D01*
X117117940Y-56761130D02*
X116546511Y-57332559D01*
X118070321Y-57761130D02*
X117498892Y-57761130D01*
X117784607Y-57761130D02*
X117784607Y-56761130D01*
X117689369Y-56903988D01*
X117594130Y-56999226D01*
X117498892Y-57046845D01*
X118260797Y-57856369D02*
X119022702Y-57856369D01*
X119784607Y-57761130D02*
X119213178Y-57761130D01*
X119498892Y-57761130D02*
X119498892Y-56761130D01*
X119403654Y-56903988D01*
X119308416Y-56999226D01*
X119213178Y-57046845D01*
G04 #@! TO.C,K1_2*
X135596511Y-57761130D02*
X135596511Y-56761130D01*
X136167940Y-57761130D02*
X135739369Y-57189702D01*
X136167940Y-56761130D02*
X135596511Y-57332559D01*
X137120321Y-57761130D02*
X136548892Y-57761130D01*
X136834607Y-57761130D02*
X136834607Y-56761130D01*
X136739369Y-56903988D01*
X136644130Y-56999226D01*
X136548892Y-57046845D01*
X137310797Y-57856369D02*
X138072702Y-57856369D01*
X138263178Y-56856369D02*
X138310797Y-56808750D01*
X138406035Y-56761130D01*
X138644130Y-56761130D01*
X138739369Y-56808750D01*
X138786988Y-56856369D01*
X138834607Y-56951607D01*
X138834607Y-57046845D01*
X138786988Y-57189702D01*
X138215559Y-57761130D01*
X138834607Y-57761130D01*
G04 #@! TO.C,K1_3*
X154646511Y-57761130D02*
X154646511Y-56761130D01*
X155217940Y-57761130D02*
X154789369Y-57189702D01*
X155217940Y-56761130D02*
X154646511Y-57332559D01*
X156170321Y-57761130D02*
X155598892Y-57761130D01*
X155884607Y-57761130D02*
X155884607Y-56761130D01*
X155789369Y-56903988D01*
X155694130Y-56999226D01*
X155598892Y-57046845D01*
X156360797Y-57856369D02*
X157122702Y-57856369D01*
X157265559Y-56761130D02*
X157884607Y-56761130D01*
X157551273Y-57142083D01*
X157694130Y-57142083D01*
X157789369Y-57189702D01*
X157836988Y-57237321D01*
X157884607Y-57332559D01*
X157884607Y-57570654D01*
X157836988Y-57665892D01*
X157789369Y-57713511D01*
X157694130Y-57761130D01*
X157408416Y-57761130D01*
X157313178Y-57713511D01*
X157265559Y-57665892D01*
G04 #@! TO.C,K1_4*
X173696511Y-57761130D02*
X173696511Y-56761130D01*
X174267940Y-57761130D02*
X173839369Y-57189702D01*
X174267940Y-56761130D02*
X173696511Y-57332559D01*
X175220321Y-57761130D02*
X174648892Y-57761130D01*
X174934607Y-57761130D02*
X174934607Y-56761130D01*
X174839369Y-56903988D01*
X174744130Y-56999226D01*
X174648892Y-57046845D01*
X175410797Y-57856369D02*
X176172702Y-57856369D01*
X176839369Y-57094464D02*
X176839369Y-57761130D01*
X176601273Y-56713511D02*
X176363178Y-57427797D01*
X176982226Y-57427797D01*
G04 #@! TO.C,K2_1*
X116546511Y-76811130D02*
X116546511Y-75811130D01*
X117117940Y-76811130D02*
X116689369Y-76239702D01*
X117117940Y-75811130D02*
X116546511Y-76382559D01*
X117498892Y-75906369D02*
X117546511Y-75858750D01*
X117641750Y-75811130D01*
X117879845Y-75811130D01*
X117975083Y-75858750D01*
X118022702Y-75906369D01*
X118070321Y-76001607D01*
X118070321Y-76096845D01*
X118022702Y-76239702D01*
X117451273Y-76811130D01*
X118070321Y-76811130D01*
X118260797Y-76906369D02*
X119022702Y-76906369D01*
X119784607Y-76811130D02*
X119213178Y-76811130D01*
X119498892Y-76811130D02*
X119498892Y-75811130D01*
X119403654Y-75953988D01*
X119308416Y-76049226D01*
X119213178Y-76096845D01*
G04 #@! TO.C,K2_2*
X135596511Y-76811130D02*
X135596511Y-75811130D01*
X136167940Y-76811130D02*
X135739369Y-76239702D01*
X136167940Y-75811130D02*
X135596511Y-76382559D01*
X136548892Y-75906369D02*
X136596511Y-75858750D01*
X136691750Y-75811130D01*
X136929845Y-75811130D01*
X137025083Y-75858750D01*
X137072702Y-75906369D01*
X137120321Y-76001607D01*
X137120321Y-76096845D01*
X137072702Y-76239702D01*
X136501273Y-76811130D01*
X137120321Y-76811130D01*
X137310797Y-76906369D02*
X138072702Y-76906369D01*
X138263178Y-75906369D02*
X138310797Y-75858750D01*
X138406035Y-75811130D01*
X138644130Y-75811130D01*
X138739369Y-75858750D01*
X138786988Y-75906369D01*
X138834607Y-76001607D01*
X138834607Y-76096845D01*
X138786988Y-76239702D01*
X138215559Y-76811130D01*
X138834607Y-76811130D01*
G04 #@! TO.C,K2_3*
X154646511Y-76811130D02*
X154646511Y-75811130D01*
X155217940Y-76811130D02*
X154789369Y-76239702D01*
X155217940Y-75811130D02*
X154646511Y-76382559D01*
X155598892Y-75906369D02*
X155646511Y-75858750D01*
X155741750Y-75811130D01*
X155979845Y-75811130D01*
X156075083Y-75858750D01*
X156122702Y-75906369D01*
X156170321Y-76001607D01*
X156170321Y-76096845D01*
X156122702Y-76239702D01*
X155551273Y-76811130D01*
X156170321Y-76811130D01*
X156360797Y-76906369D02*
X157122702Y-76906369D01*
X157265559Y-75811130D02*
X157884607Y-75811130D01*
X157551273Y-76192083D01*
X157694130Y-76192083D01*
X157789369Y-76239702D01*
X157836988Y-76287321D01*
X157884607Y-76382559D01*
X157884607Y-76620654D01*
X157836988Y-76715892D01*
X157789369Y-76763511D01*
X157694130Y-76811130D01*
X157408416Y-76811130D01*
X157313178Y-76763511D01*
X157265559Y-76715892D01*
G04 #@! TO.C,K2_4*
X173696511Y-76811130D02*
X173696511Y-75811130D01*
X174267940Y-76811130D02*
X173839369Y-76239702D01*
X174267940Y-75811130D02*
X173696511Y-76382559D01*
X174648892Y-75906369D02*
X174696511Y-75858750D01*
X174791750Y-75811130D01*
X175029845Y-75811130D01*
X175125083Y-75858750D01*
X175172702Y-75906369D01*
X175220321Y-76001607D01*
X175220321Y-76096845D01*
X175172702Y-76239702D01*
X174601273Y-76811130D01*
X175220321Y-76811130D01*
X175410797Y-76906369D02*
X176172702Y-76906369D01*
X176839369Y-76144464D02*
X176839369Y-76811130D01*
X176601273Y-75763511D02*
X176363178Y-76477797D01*
X176982226Y-76477797D01*
G04 #@! TO.C,K3_1*
X116546511Y-95861130D02*
X116546511Y-94861130D01*
X117117940Y-95861130D02*
X116689369Y-95289702D01*
X117117940Y-94861130D02*
X116546511Y-95432559D01*
X117451273Y-94861130D02*
X118070321Y-94861130D01*
X117736988Y-95242083D01*
X117879845Y-95242083D01*
X117975083Y-95289702D01*
X118022702Y-95337321D01*
X118070321Y-95432559D01*
X118070321Y-95670654D01*
X118022702Y-95765892D01*
X117975083Y-95813511D01*
X117879845Y-95861130D01*
X117594130Y-95861130D01*
X117498892Y-95813511D01*
X117451273Y-95765892D01*
X118260797Y-95956369D02*
X119022702Y-95956369D01*
X119784607Y-95861130D02*
X119213178Y-95861130D01*
X119498892Y-95861130D02*
X119498892Y-94861130D01*
X119403654Y-95003988D01*
X119308416Y-95099226D01*
X119213178Y-95146845D01*
G04 #@! TO.C,K3_2*
X135596511Y-95861130D02*
X135596511Y-94861130D01*
X136167940Y-95861130D02*
X135739369Y-95289702D01*
X136167940Y-94861130D02*
X135596511Y-95432559D01*
X136501273Y-94861130D02*
X137120321Y-94861130D01*
X136786988Y-95242083D01*
X136929845Y-95242083D01*
X137025083Y-95289702D01*
X137072702Y-95337321D01*
X137120321Y-95432559D01*
X137120321Y-95670654D01*
X137072702Y-95765892D01*
X137025083Y-95813511D01*
X136929845Y-95861130D01*
X136644130Y-95861130D01*
X136548892Y-95813511D01*
X136501273Y-95765892D01*
X137310797Y-95956369D02*
X138072702Y-95956369D01*
X138263178Y-94956369D02*
X138310797Y-94908750D01*
X138406035Y-94861130D01*
X138644130Y-94861130D01*
X138739369Y-94908750D01*
X138786988Y-94956369D01*
X138834607Y-95051607D01*
X138834607Y-95146845D01*
X138786988Y-95289702D01*
X138215559Y-95861130D01*
X138834607Y-95861130D01*
G04 #@! TO.C,K3_3*
X154646511Y-95861130D02*
X154646511Y-94861130D01*
X155217940Y-95861130D02*
X154789369Y-95289702D01*
X155217940Y-94861130D02*
X154646511Y-95432559D01*
X155551273Y-94861130D02*
X156170321Y-94861130D01*
X155836988Y-95242083D01*
X155979845Y-95242083D01*
X156075083Y-95289702D01*
X156122702Y-95337321D01*
X156170321Y-95432559D01*
X156170321Y-95670654D01*
X156122702Y-95765892D01*
X156075083Y-95813511D01*
X155979845Y-95861130D01*
X155694130Y-95861130D01*
X155598892Y-95813511D01*
X155551273Y-95765892D01*
X156360797Y-95956369D02*
X157122702Y-95956369D01*
X157265559Y-94861130D02*
X157884607Y-94861130D01*
X157551273Y-95242083D01*
X157694130Y-95242083D01*
X157789369Y-95289702D01*
X157836988Y-95337321D01*
X157884607Y-95432559D01*
X157884607Y-95670654D01*
X157836988Y-95765892D01*
X157789369Y-95813511D01*
X157694130Y-95861130D01*
X157408416Y-95861130D01*
X157313178Y-95813511D01*
X157265559Y-95765892D01*
G04 #@! TO.C,K3_4*
X173696511Y-95861130D02*
X173696511Y-94861130D01*
X174267940Y-95861130D02*
X173839369Y-95289702D01*
X174267940Y-94861130D02*
X173696511Y-95432559D01*
X174601273Y-94861130D02*
X175220321Y-94861130D01*
X174886988Y-95242083D01*
X175029845Y-95242083D01*
X175125083Y-95289702D01*
X175172702Y-95337321D01*
X175220321Y-95432559D01*
X175220321Y-95670654D01*
X175172702Y-95765892D01*
X175125083Y-95813511D01*
X175029845Y-95861130D01*
X174744130Y-95861130D01*
X174648892Y-95813511D01*
X174601273Y-95765892D01*
X175410797Y-95956369D02*
X176172702Y-95956369D01*
X176839369Y-95194464D02*
X176839369Y-95861130D01*
X176601273Y-94813511D02*
X176363178Y-95527797D01*
X176982226Y-95527797D01*
G04 #@! TO.C,K4_1*
X116546511Y-114911130D02*
X116546511Y-113911130D01*
X117117940Y-114911130D02*
X116689369Y-114339702D01*
X117117940Y-113911130D02*
X116546511Y-114482559D01*
X117975083Y-114244464D02*
X117975083Y-114911130D01*
X117736988Y-113863511D02*
X117498892Y-114577797D01*
X118117940Y-114577797D01*
X118260797Y-115006369D02*
X119022702Y-115006369D01*
X119784607Y-114911130D02*
X119213178Y-114911130D01*
X119498892Y-114911130D02*
X119498892Y-113911130D01*
X119403654Y-114053988D01*
X119308416Y-114149226D01*
X119213178Y-114196845D01*
G04 #@! TO.C,K4_2*
X135596511Y-114911130D02*
X135596511Y-113911130D01*
X136167940Y-114911130D02*
X135739369Y-114339702D01*
X136167940Y-113911130D02*
X135596511Y-114482559D01*
X137025083Y-114244464D02*
X137025083Y-114911130D01*
X136786988Y-113863511D02*
X136548892Y-114577797D01*
X137167940Y-114577797D01*
X137310797Y-115006369D02*
X138072702Y-115006369D01*
X138263178Y-114006369D02*
X138310797Y-113958750D01*
X138406035Y-113911130D01*
X138644130Y-113911130D01*
X138739369Y-113958750D01*
X138786988Y-114006369D01*
X138834607Y-114101607D01*
X138834607Y-114196845D01*
X138786988Y-114339702D01*
X138215559Y-114911130D01*
X138834607Y-114911130D01*
G04 #@! TO.C,K4_3*
X154646511Y-114911130D02*
X154646511Y-113911130D01*
X155217940Y-114911130D02*
X154789369Y-114339702D01*
X155217940Y-113911130D02*
X154646511Y-114482559D01*
X156075083Y-114244464D02*
X156075083Y-114911130D01*
X155836988Y-113863511D02*
X155598892Y-114577797D01*
X156217940Y-114577797D01*
X156360797Y-115006369D02*
X157122702Y-115006369D01*
X157265559Y-113911130D02*
X157884607Y-113911130D01*
X157551273Y-114292083D01*
X157694130Y-114292083D01*
X157789369Y-114339702D01*
X157836988Y-114387321D01*
X157884607Y-114482559D01*
X157884607Y-114720654D01*
X157836988Y-114815892D01*
X157789369Y-114863511D01*
X157694130Y-114911130D01*
X157408416Y-114911130D01*
X157313178Y-114863511D01*
X157265559Y-114815892D01*
G04 #@! TO.C,K5_1*
X116546511Y-133961130D02*
X116546511Y-132961130D01*
X117117940Y-133961130D02*
X116689369Y-133389702D01*
X117117940Y-132961130D02*
X116546511Y-133532559D01*
X118022702Y-132961130D02*
X117546511Y-132961130D01*
X117498892Y-133437321D01*
X117546511Y-133389702D01*
X117641750Y-133342083D01*
X117879845Y-133342083D01*
X117975083Y-133389702D01*
X118022702Y-133437321D01*
X118070321Y-133532559D01*
X118070321Y-133770654D01*
X118022702Y-133865892D01*
X117975083Y-133913511D01*
X117879845Y-133961130D01*
X117641750Y-133961130D01*
X117546511Y-133913511D01*
X117498892Y-133865892D01*
X118260797Y-134056369D02*
X119022702Y-134056369D01*
X119784607Y-133961130D02*
X119213178Y-133961130D01*
X119498892Y-133961130D02*
X119498892Y-132961130D01*
X119403654Y-133103988D01*
X119308416Y-133199226D01*
X119213178Y-133246845D01*
G04 #@! TO.C,K5_2*
X135596511Y-133961130D02*
X135596511Y-132961130D01*
X136167940Y-133961130D02*
X135739369Y-133389702D01*
X136167940Y-132961130D02*
X135596511Y-133532559D01*
X137072702Y-132961130D02*
X136596511Y-132961130D01*
X136548892Y-133437321D01*
X136596511Y-133389702D01*
X136691750Y-133342083D01*
X136929845Y-133342083D01*
X137025083Y-133389702D01*
X137072702Y-133437321D01*
X137120321Y-133532559D01*
X137120321Y-133770654D01*
X137072702Y-133865892D01*
X137025083Y-133913511D01*
X136929845Y-133961130D01*
X136691750Y-133961130D01*
X136596511Y-133913511D01*
X136548892Y-133865892D01*
X137310797Y-134056369D02*
X138072702Y-134056369D01*
X138263178Y-133056369D02*
X138310797Y-133008750D01*
X138406035Y-132961130D01*
X138644130Y-132961130D01*
X138739369Y-133008750D01*
X138786988Y-133056369D01*
X138834607Y-133151607D01*
X138834607Y-133246845D01*
X138786988Y-133389702D01*
X138215559Y-133961130D01*
X138834607Y-133961130D01*
G04 #@! TO.C,K5_3*
X154646511Y-133961130D02*
X154646511Y-132961130D01*
X155217940Y-133961130D02*
X154789369Y-133389702D01*
X155217940Y-132961130D02*
X154646511Y-133532559D01*
X156122702Y-132961130D02*
X155646511Y-132961130D01*
X155598892Y-133437321D01*
X155646511Y-133389702D01*
X155741750Y-133342083D01*
X155979845Y-133342083D01*
X156075083Y-133389702D01*
X156122702Y-133437321D01*
X156170321Y-133532559D01*
X156170321Y-133770654D01*
X156122702Y-133865892D01*
X156075083Y-133913511D01*
X155979845Y-133961130D01*
X155741750Y-133961130D01*
X155646511Y-133913511D01*
X155598892Y-133865892D01*
X156360797Y-134056369D02*
X157122702Y-134056369D01*
X157265559Y-132961130D02*
X157884607Y-132961130D01*
X157551273Y-133342083D01*
X157694130Y-133342083D01*
X157789369Y-133389702D01*
X157836988Y-133437321D01*
X157884607Y-133532559D01*
X157884607Y-133770654D01*
X157836988Y-133865892D01*
X157789369Y-133913511D01*
X157694130Y-133961130D01*
X157408416Y-133961130D01*
X157313178Y-133913511D01*
X157265559Y-133865892D01*
G04 #@! TO.C,K4_4*
X183620130Y-133453988D02*
X182620130Y-133453988D01*
X183620130Y-132882559D02*
X183048702Y-133311130D01*
X182620130Y-132882559D02*
X183191559Y-133453988D01*
X182953464Y-132025416D02*
X183620130Y-132025416D01*
X182572511Y-132263511D02*
X183286797Y-132501607D01*
X183286797Y-131882559D01*
X183715369Y-131739702D02*
X183715369Y-130977797D01*
X182953464Y-130311130D02*
X183620130Y-130311130D01*
X182572511Y-130549226D02*
X183286797Y-130787321D01*
X183286797Y-130168273D01*
G04 #@! TO.C,C9*
X174814439Y-44875702D02*
X174862058Y-44923321D01*
X174909677Y-45066178D01*
X174909677Y-45161416D01*
X174862058Y-45304274D01*
X174766820Y-45399512D01*
X174671582Y-45447131D01*
X174481106Y-45494750D01*
X174338249Y-45494750D01*
X174147773Y-45447131D01*
X174052535Y-45399512D01*
X173957297Y-45304274D01*
X173909677Y-45161416D01*
X173909677Y-45066178D01*
X173957297Y-44923321D01*
X174004916Y-44875702D01*
X174909677Y-44399512D02*
X174909677Y-44209036D01*
X174862058Y-44113797D01*
X174814439Y-44066178D01*
X174671582Y-43970940D01*
X174481106Y-43923321D01*
X174100154Y-43923321D01*
X174004916Y-43970940D01*
X173957297Y-44018559D01*
X173909677Y-44113797D01*
X173909677Y-44304274D01*
X173957297Y-44399512D01*
X174004916Y-44447131D01*
X174100154Y-44494750D01*
X174338249Y-44494750D01*
X174433487Y-44447131D01*
X174481106Y-44399512D01*
X174528725Y-44304274D01*
X174528725Y-44113797D01*
X174481106Y-44018559D01*
X174433487Y-43970940D01*
X174338249Y-43923321D01*
G04 #@! TO.C,C10*
X165289439Y-48251893D02*
X165337058Y-48299512D01*
X165384677Y-48442369D01*
X165384677Y-48537607D01*
X165337058Y-48680464D01*
X165241820Y-48775702D01*
X165146582Y-48823321D01*
X164956106Y-48870940D01*
X164813249Y-48870940D01*
X164622773Y-48823321D01*
X164527535Y-48775702D01*
X164432297Y-48680464D01*
X164384677Y-48537607D01*
X164384677Y-48442369D01*
X164432297Y-48299512D01*
X164479916Y-48251893D01*
X165384677Y-47299512D02*
X165384677Y-47870940D01*
X165384677Y-47585226D02*
X164384677Y-47585226D01*
X164527535Y-47680464D01*
X164622773Y-47775702D01*
X164670392Y-47870940D01*
X164384677Y-46680464D02*
X164384677Y-46585226D01*
X164432297Y-46489988D01*
X164479916Y-46442369D01*
X164575154Y-46394750D01*
X164765630Y-46347131D01*
X165003725Y-46347131D01*
X165194201Y-46394750D01*
X165289439Y-46442369D01*
X165337058Y-46489988D01*
X165384677Y-46585226D01*
X165384677Y-46680464D01*
X165337058Y-46775702D01*
X165289439Y-46823321D01*
X165194201Y-46870940D01*
X165003725Y-46918559D01*
X164765630Y-46918559D01*
X164575154Y-46870940D01*
X164479916Y-46823321D01*
X164432297Y-46775702D01*
X164384677Y-46680464D01*
G04 #@! TO.C,R5*
X143105316Y-52592212D02*
X142629126Y-52925546D01*
X143105316Y-53163641D02*
X142105316Y-53163641D01*
X142105316Y-52782688D01*
X142152936Y-52687450D01*
X142200555Y-52639831D01*
X142295793Y-52592212D01*
X142438650Y-52592212D01*
X142533888Y-52639831D01*
X142581507Y-52687450D01*
X142629126Y-52782688D01*
X142629126Y-53163641D01*
X142105316Y-51687450D02*
X142105316Y-52163641D01*
X142581507Y-52211260D01*
X142533888Y-52163641D01*
X142486269Y-52068403D01*
X142486269Y-51830307D01*
X142533888Y-51735069D01*
X142581507Y-51687450D01*
X142676745Y-51639831D01*
X142914840Y-51639831D01*
X143010078Y-51687450D01*
X143057697Y-51735069D01*
X143105316Y-51830307D01*
X143105316Y-52068403D01*
X143057697Y-52163641D01*
X143010078Y-52211260D01*
G04 #@! TO.C,U1*
X152363095Y-44852380D02*
X152363095Y-45661904D01*
X152410714Y-45757142D01*
X152458333Y-45804761D01*
X152553571Y-45852380D01*
X152744047Y-45852380D01*
X152839285Y-45804761D01*
X152886904Y-45757142D01*
X152934523Y-45661904D01*
X152934523Y-44852380D01*
X153934523Y-45852380D02*
X153363095Y-45852380D01*
X153648809Y-45852380D02*
X153648809Y-44852380D01*
X153553571Y-44995238D01*
X153458333Y-45090476D01*
X153363095Y-45138095D01*
G04 #@! TO.C,D1*
X144255316Y-55913641D02*
X143255316Y-55913641D01*
X143255316Y-55675546D01*
X143302936Y-55532688D01*
X143398174Y-55437450D01*
X143493412Y-55389831D01*
X143683888Y-55342212D01*
X143826745Y-55342212D01*
X144017221Y-55389831D01*
X144112459Y-55437450D01*
X144207697Y-55532688D01*
X144255316Y-55675546D01*
X144255316Y-55913641D01*
X144255316Y-54389831D02*
X144255316Y-54961260D01*
X144255316Y-54675546D02*
X143255316Y-54675546D01*
X143398174Y-54770784D01*
X143493412Y-54866022D01*
X143541031Y-54961260D01*
G04 #@! TO.C,R10*
X161582142Y-47402380D02*
X161248809Y-46926190D01*
X161010714Y-47402380D02*
X161010714Y-46402380D01*
X161391666Y-46402380D01*
X161486904Y-46450000D01*
X161534523Y-46497619D01*
X161582142Y-46592857D01*
X161582142Y-46735714D01*
X161534523Y-46830952D01*
X161486904Y-46878571D01*
X161391666Y-46926190D01*
X161010714Y-46926190D01*
X162534523Y-47402380D02*
X161963095Y-47402380D01*
X162248809Y-47402380D02*
X162248809Y-46402380D01*
X162153571Y-46545238D01*
X162058333Y-46640476D01*
X161963095Y-46688095D01*
X163153571Y-46402380D02*
X163248809Y-46402380D01*
X163344047Y-46450000D01*
X163391666Y-46497619D01*
X163439285Y-46592857D01*
X163486904Y-46783333D01*
X163486904Y-47021428D01*
X163439285Y-47211904D01*
X163391666Y-47307142D01*
X163344047Y-47354761D01*
X163248809Y-47402380D01*
X163153571Y-47402380D01*
X163058333Y-47354761D01*
X163010714Y-47307142D01*
X162963095Y-47211904D01*
X162915476Y-47021428D01*
X162915476Y-46783333D01*
X162963095Y-46592857D01*
X163010714Y-46497619D01*
X163058333Y-46450000D01*
X163153571Y-46402380D01*
G04 #@! TO.C,R11*
X165107142Y-43752380D02*
X164773809Y-43276190D01*
X164535714Y-43752380D02*
X164535714Y-42752380D01*
X164916666Y-42752380D01*
X165011904Y-42800000D01*
X165059523Y-42847619D01*
X165107142Y-42942857D01*
X165107142Y-43085714D01*
X165059523Y-43180952D01*
X165011904Y-43228571D01*
X164916666Y-43276190D01*
X164535714Y-43276190D01*
X166059523Y-43752380D02*
X165488095Y-43752380D01*
X165773809Y-43752380D02*
X165773809Y-42752380D01*
X165678571Y-42895238D01*
X165583333Y-42990476D01*
X165488095Y-43038095D01*
X167011904Y-43752380D02*
X166440476Y-43752380D01*
X166726190Y-43752380D02*
X166726190Y-42752380D01*
X166630952Y-42895238D01*
X166535714Y-42990476D01*
X166440476Y-43038095D01*
G04 #@! TO.C,U2*
X169670391Y-50136415D02*
X169670391Y-50945939D01*
X169718010Y-51041177D01*
X169765629Y-51088796D01*
X169860867Y-51136415D01*
X170051343Y-51136415D01*
X170146581Y-51088796D01*
X170194200Y-51041177D01*
X170241819Y-50945939D01*
X170241819Y-50136415D01*
X170670391Y-50231654D02*
X170718010Y-50184035D01*
X170813248Y-50136415D01*
X171051343Y-50136415D01*
X171146581Y-50184035D01*
X171194200Y-50231654D01*
X171241819Y-50326892D01*
X171241819Y-50422130D01*
X171194200Y-50564987D01*
X170622772Y-51136415D01*
X171241819Y-51136415D01*
G04 #@! TO.C,Y1*
X140626190Y-45351190D02*
X141102380Y-45351190D01*
X140102380Y-45684523D02*
X140626190Y-45351190D01*
X140102380Y-45017857D01*
X141102380Y-44160714D02*
X141102380Y-44732142D01*
X141102380Y-44446428D02*
X140102380Y-44446428D01*
X140245238Y-44541666D01*
X140340476Y-44636904D01*
X140388095Y-44732142D01*
G04 #@! TO.C,J3*
X170366666Y-32902380D02*
X170366666Y-33616666D01*
X170319047Y-33759523D01*
X170223809Y-33854761D01*
X170080952Y-33902380D01*
X169985714Y-33902380D01*
X170747619Y-32902380D02*
X171366666Y-32902380D01*
X171033333Y-33283333D01*
X171176190Y-33283333D01*
X171271428Y-33330952D01*
X171319047Y-33378571D01*
X171366666Y-33473809D01*
X171366666Y-33711904D01*
X171319047Y-33807142D01*
X171271428Y-33854761D01*
X171176190Y-33902380D01*
X170890476Y-33902380D01*
X170795238Y-33854761D01*
X170747619Y-33807142D01*
G04 #@! TO.C,J1*
X179466666Y-41292380D02*
X179466666Y-42006666D01*
X179419047Y-42149523D01*
X179323809Y-42244761D01*
X179180952Y-42292380D01*
X179085714Y-42292380D01*
X180466666Y-42292380D02*
X179895238Y-42292380D01*
X180180952Y-42292380D02*
X180180952Y-41292380D01*
X180085714Y-41435238D01*
X179990476Y-41530476D01*
X179895238Y-41578095D01*
G04 #@! TO.C,H4*
X145938095Y-129152380D02*
X145938095Y-128152380D01*
X145938095Y-128628571D02*
X146509523Y-128628571D01*
X146509523Y-129152380D02*
X146509523Y-128152380D01*
X147414285Y-128485714D02*
X147414285Y-129152380D01*
X147176190Y-128104761D02*
X146938095Y-128819047D01*
X147557142Y-128819047D01*
G04 #@! TO.C,H5*
X127038095Y-109952380D02*
X127038095Y-108952380D01*
X127038095Y-109428571D02*
X127609523Y-109428571D01*
X127609523Y-109952380D02*
X127609523Y-108952380D01*
X128561904Y-108952380D02*
X128085714Y-108952380D01*
X128038095Y-109428571D01*
X128085714Y-109380952D01*
X128180952Y-109333333D01*
X128419047Y-109333333D01*
X128514285Y-109380952D01*
X128561904Y-109428571D01*
X128609523Y-109523809D01*
X128609523Y-109761904D01*
X128561904Y-109857142D01*
X128514285Y-109904761D01*
X128419047Y-109952380D01*
X128180952Y-109952380D01*
X128085714Y-109904761D01*
X128038095Y-109857142D01*
G04 #@! TO.C,H6*
X116838095Y-91052380D02*
X116838095Y-90052380D01*
X116838095Y-90528571D02*
X117409523Y-90528571D01*
X117409523Y-91052380D02*
X117409523Y-90052380D01*
X118314285Y-90052380D02*
X118123809Y-90052380D01*
X118028571Y-90100000D01*
X117980952Y-90147619D01*
X117885714Y-90290476D01*
X117838095Y-90480952D01*
X117838095Y-90861904D01*
X117885714Y-90957142D01*
X117933333Y-91004761D01*
X118028571Y-91052380D01*
X118219047Y-91052380D01*
X118314285Y-91004761D01*
X118361904Y-90957142D01*
X118409523Y-90861904D01*
X118409523Y-90623809D01*
X118361904Y-90528571D01*
X118314285Y-90480952D01*
X118219047Y-90433333D01*
X118028571Y-90433333D01*
X117933333Y-90480952D01*
X117885714Y-90528571D01*
X117838095Y-90623809D01*
G04 #@! TO.C,H7*
X165338095Y-110052380D02*
X165338095Y-109052380D01*
X165338095Y-109528571D02*
X165909523Y-109528571D01*
X165909523Y-110052380D02*
X165909523Y-109052380D01*
X166290476Y-109052380D02*
X166957142Y-109052380D01*
X166528571Y-110052380D01*
G04 #@! TO.C,H8*
X126938095Y-63352380D02*
X126938095Y-62352380D01*
X126938095Y-62828571D02*
X127509523Y-62828571D01*
X127509523Y-63352380D02*
X127509523Y-62352380D01*
X128128571Y-62780952D02*
X128033333Y-62733333D01*
X127985714Y-62685714D01*
X127938095Y-62590476D01*
X127938095Y-62542857D01*
X127985714Y-62447619D01*
X128033333Y-62400000D01*
X128128571Y-62352380D01*
X128319047Y-62352380D01*
X128414285Y-62400000D01*
X128461904Y-62447619D01*
X128509523Y-62542857D01*
X128509523Y-62590476D01*
X128461904Y-62685714D01*
X128414285Y-62733333D01*
X128319047Y-62780952D01*
X128128571Y-62780952D01*
X128033333Y-62828571D01*
X127985714Y-62876190D01*
X127938095Y-62971428D01*
X127938095Y-63161904D01*
X127985714Y-63257142D01*
X128033333Y-63304761D01*
X128128571Y-63352380D01*
X128319047Y-63352380D01*
X128414285Y-63304761D01*
X128461904Y-63257142D01*
X128509523Y-63161904D01*
X128509523Y-62971428D01*
X128461904Y-62876190D01*
X128414285Y-62828571D01*
X128319047Y-62780952D01*
G04 #@! TO.C,H9*
X172038095Y-90952380D02*
X172038095Y-89952380D01*
X172038095Y-90428571D02*
X172609523Y-90428571D01*
X172609523Y-90952380D02*
X172609523Y-89952380D01*
X173133333Y-90952380D02*
X173323809Y-90952380D01*
X173419047Y-90904761D01*
X173466666Y-90857142D01*
X173561904Y-90714285D01*
X173609523Y-90523809D01*
X173609523Y-90142857D01*
X173561904Y-90047619D01*
X173514285Y-90000000D01*
X173419047Y-89952380D01*
X173228571Y-89952380D01*
X173133333Y-90000000D01*
X173085714Y-90047619D01*
X173038095Y-90142857D01*
X173038095Y-90380952D01*
X173085714Y-90476190D01*
X173133333Y-90523809D01*
X173228571Y-90571428D01*
X173419047Y-90571428D01*
X173514285Y-90523809D01*
X173561904Y-90476190D01*
X173609523Y-90380952D01*
G04 #@! TO.C,H10*
X164061904Y-63352380D02*
X164061904Y-62352380D01*
X164061904Y-62828571D02*
X164633333Y-62828571D01*
X164633333Y-63352380D02*
X164633333Y-62352380D01*
X165633333Y-63352380D02*
X165061904Y-63352380D01*
X165347619Y-63352380D02*
X165347619Y-62352380D01*
X165252380Y-62495238D01*
X165157142Y-62590476D01*
X165061904Y-62638095D01*
X166252380Y-62352380D02*
X166347619Y-62352380D01*
X166442857Y-62400000D01*
X166490476Y-62447619D01*
X166538095Y-62542857D01*
X166585714Y-62733333D01*
X166585714Y-62971428D01*
X166538095Y-63161904D01*
X166490476Y-63257142D01*
X166442857Y-63304761D01*
X166347619Y-63352380D01*
X166252380Y-63352380D01*
X166157142Y-63304761D01*
X166109523Y-63257142D01*
X166061904Y-63161904D01*
X166014285Y-62971428D01*
X166014285Y-62733333D01*
X166061904Y-62542857D01*
X166109523Y-62447619D01*
X166157142Y-62400000D01*
X166252380Y-62352380D01*
G04 #@! TD*
M02*
