M48
;DRILL file {KiCad 5.0.1} date Fri 11 Jan 2019 08:11:48 PM CET
;FORMAT={-:-/ absolute / metric / decimal}
FMAT,2
METRIC,TZ
T1C0.650
T2C0.950
T3C1.700
T4C2.200
T5C3.050
T6C3.200
T7C4.000
%
G90
G05
M71
T1
X145.85Y-44.61
T2
X138.65Y-44.61
T3
X170.212Y-65.183
X180.372Y-65.183
X113.062Y-122.333
X123.222Y-122.333
X132.112Y-84.233
X142.272Y-84.233
X151.162Y-122.333
X161.322Y-122.333
X170.212Y-84.233
X180.372Y-84.233
X170.212Y-103.283
X180.372Y-103.283
X113.062Y-65.183
X123.222Y-65.183
X132.112Y-122.333
X142.272Y-122.333
X113.062Y-103.283
X123.222Y-103.283
X151.162Y-103.283
X161.322Y-103.283
X132.112Y-141.383
X142.272Y-141.383
X151.162Y-65.183
X161.322Y-65.183
X175.294Y-126.779
X175.294Y-136.939
X151.162Y-141.383
X161.322Y-141.383
X151.162Y-84.233
X161.322Y-84.233
X113.062Y-84.233
X123.222Y-84.233
X132.112Y-103.283
X142.272Y-103.283
X132.112Y-65.183
X142.272Y-65.183
X113.062Y-141.383
X123.222Y-141.383
T4
X146.65Y-103.25
X176.85Y-74.7
X125.2Y-74.7
X125.1Y-93.75
X146.7Y-54.9
X164.8Y-132.15
X127.05Y-132.4
X163.35Y-94.3
T5
X182.294Y-119.959
X182.294Y-143.759
T6
X137.192Y-146.483
X137.192Y-127.433
X118.142Y-89.333
X137.192Y-89.333
X156.242Y-108.383
X170.194Y-131.859
X156.242Y-70.283
X118.142Y-108.383
X118.142Y-127.433
X175.292Y-70.283
X118.142Y-70.283
X118.142Y-146.483
X156.242Y-127.433
X175.292Y-89.333
X156.242Y-146.483
X137.192Y-108.383
X175.292Y-108.383
X156.242Y-89.333
X137.192Y-70.283
T7
X137.192Y-65.183
X118.142Y-141.383
X175.292Y-65.183
X118.142Y-122.333
X137.192Y-84.233
X156.242Y-122.333
X175.292Y-84.233
X175.292Y-103.283
X118.142Y-65.183
X137.192Y-122.333
X118.142Y-103.283
X156.242Y-103.283
X137.192Y-141.383
X156.242Y-65.183
X167.054Y-119.959
X167.054Y-143.759
X175.294Y-131.859
X156.242Y-141.383
X156.242Y-84.233
X118.142Y-84.233
X137.192Y-103.283
T0
M30
