M48
;DRILL file {KiCad 5.0.1} date Sat 02 Mar 2019 07:37:41 PM CET
;FORMAT={-:-/ absolute / metric / decimal}
FMAT,2
METRIC,TZ
T1C0.650
T2C1.700
T3C2.200
T4C3.050
T5C4.000
%
G90
G05
M71
T1
X167.81Y-40.75
X173.59Y-40.75
T2
X175.294Y-126.779
X175.294Y-136.939
T3
X166.1Y-112.8
X165.3Y-66.1
X127.7Y-66.1
X117.6Y-93.8
X172.8Y-93.7
X127.8Y-112.7
X146.7Y-131.9
T4
X182.294Y-119.959
X182.294Y-143.759
T5
X156.242Y-84.233
X175.292Y-103.283
X175.292Y-65.183
X137.192Y-103.283
X118.142Y-141.383
X137.192Y-141.383
X118.142Y-84.233
X118.142Y-65.183
X137.192Y-65.183
X137.192Y-122.333
X137.192Y-84.233
X118.142Y-122.333
X118.142Y-103.283
X167.054Y-119.959
X167.054Y-143.759
X175.294Y-131.859
X156.242Y-103.283
X175.292Y-84.233
X156.242Y-141.383
X156.242Y-65.183
X156.242Y-122.333
T0
M30
