G04 #@! TF.GenerationSoftware,KiCad,Pcbnew,5.0.1*
G04 #@! TF.CreationDate,2019-02-06T13:48:55+01:00*
G04 #@! TF.ProjectId,keypad,6B65797061642E6B696361645F706362,rev?*
G04 #@! TF.SameCoordinates,Original*
G04 #@! TF.FileFunction,Paste,Top*
G04 #@! TF.FilePolarity,Positive*
%FSLAX46Y46*%
G04 Gerber Fmt 4.6, Leading zero omitted, Abs format (unit mm)*
G04 Created by KiCad (PCBNEW 5.0.1) date Wed 06 Feb 2019 01:48:55 PM CET*
%MOMM*%
%LPD*%
G01*
G04 APERTURE LIST*
%ADD10C,0.100000*%
%ADD11C,1.150000*%
%ADD12R,1.300000X0.250000*%
%ADD13R,0.250000X1.300000*%
%ADD14R,1.560000X0.650000*%
%ADD15R,2.400000X3.500000*%
%ADD16R,0.300000X1.450000*%
%ADD17R,0.600000X1.450000*%
G04 APERTURE END LIST*
D10*
G04 #@! TO.C,C1*
G36*
X177249505Y-53201204D02*
X177273773Y-53204804D01*
X177297572Y-53210765D01*
X177320671Y-53219030D01*
X177342850Y-53229520D01*
X177363893Y-53242132D01*
X177383599Y-53256747D01*
X177401777Y-53273223D01*
X177418253Y-53291401D01*
X177432868Y-53311107D01*
X177445480Y-53332150D01*
X177455970Y-53354329D01*
X177464235Y-53377428D01*
X177470196Y-53401227D01*
X177473796Y-53425495D01*
X177475000Y-53449999D01*
X177475000Y-54350001D01*
X177473796Y-54374505D01*
X177470196Y-54398773D01*
X177464235Y-54422572D01*
X177455970Y-54445671D01*
X177445480Y-54467850D01*
X177432868Y-54488893D01*
X177418253Y-54508599D01*
X177401777Y-54526777D01*
X177383599Y-54543253D01*
X177363893Y-54557868D01*
X177342850Y-54570480D01*
X177320671Y-54580970D01*
X177297572Y-54589235D01*
X177273773Y-54595196D01*
X177249505Y-54598796D01*
X177225001Y-54600000D01*
X176574999Y-54600000D01*
X176550495Y-54598796D01*
X176526227Y-54595196D01*
X176502428Y-54589235D01*
X176479329Y-54580970D01*
X176457150Y-54570480D01*
X176436107Y-54557868D01*
X176416401Y-54543253D01*
X176398223Y-54526777D01*
X176381747Y-54508599D01*
X176367132Y-54488893D01*
X176354520Y-54467850D01*
X176344030Y-54445671D01*
X176335765Y-54422572D01*
X176329804Y-54398773D01*
X176326204Y-54374505D01*
X176325000Y-54350001D01*
X176325000Y-53449999D01*
X176326204Y-53425495D01*
X176329804Y-53401227D01*
X176335765Y-53377428D01*
X176344030Y-53354329D01*
X176354520Y-53332150D01*
X176367132Y-53311107D01*
X176381747Y-53291401D01*
X176398223Y-53273223D01*
X176416401Y-53256747D01*
X176436107Y-53242132D01*
X176457150Y-53229520D01*
X176479329Y-53219030D01*
X176502428Y-53210765D01*
X176526227Y-53204804D01*
X176550495Y-53201204D01*
X176574999Y-53200000D01*
X177225001Y-53200000D01*
X177249505Y-53201204D01*
X177249505Y-53201204D01*
G37*
D11*
X176900000Y-53900000D03*
D10*
G36*
X175199505Y-53201204D02*
X175223773Y-53204804D01*
X175247572Y-53210765D01*
X175270671Y-53219030D01*
X175292850Y-53229520D01*
X175313893Y-53242132D01*
X175333599Y-53256747D01*
X175351777Y-53273223D01*
X175368253Y-53291401D01*
X175382868Y-53311107D01*
X175395480Y-53332150D01*
X175405970Y-53354329D01*
X175414235Y-53377428D01*
X175420196Y-53401227D01*
X175423796Y-53425495D01*
X175425000Y-53449999D01*
X175425000Y-54350001D01*
X175423796Y-54374505D01*
X175420196Y-54398773D01*
X175414235Y-54422572D01*
X175405970Y-54445671D01*
X175395480Y-54467850D01*
X175382868Y-54488893D01*
X175368253Y-54508599D01*
X175351777Y-54526777D01*
X175333599Y-54543253D01*
X175313893Y-54557868D01*
X175292850Y-54570480D01*
X175270671Y-54580970D01*
X175247572Y-54589235D01*
X175223773Y-54595196D01*
X175199505Y-54598796D01*
X175175001Y-54600000D01*
X174524999Y-54600000D01*
X174500495Y-54598796D01*
X174476227Y-54595196D01*
X174452428Y-54589235D01*
X174429329Y-54580970D01*
X174407150Y-54570480D01*
X174386107Y-54557868D01*
X174366401Y-54543253D01*
X174348223Y-54526777D01*
X174331747Y-54508599D01*
X174317132Y-54488893D01*
X174304520Y-54467850D01*
X174294030Y-54445671D01*
X174285765Y-54422572D01*
X174279804Y-54398773D01*
X174276204Y-54374505D01*
X174275000Y-54350001D01*
X174275000Y-53449999D01*
X174276204Y-53425495D01*
X174279804Y-53401227D01*
X174285765Y-53377428D01*
X174294030Y-53354329D01*
X174304520Y-53332150D01*
X174317132Y-53311107D01*
X174331747Y-53291401D01*
X174348223Y-53273223D01*
X174366401Y-53256747D01*
X174386107Y-53242132D01*
X174407150Y-53229520D01*
X174429329Y-53219030D01*
X174452428Y-53210765D01*
X174476227Y-53204804D01*
X174500495Y-53201204D01*
X174524999Y-53200000D01*
X175175001Y-53200000D01*
X175199505Y-53201204D01*
X175199505Y-53201204D01*
G37*
D11*
X174850000Y-53900000D03*
G04 #@! TD*
D10*
G04 #@! TO.C,C2*
G36*
X181374505Y-44051204D02*
X181398773Y-44054804D01*
X181422572Y-44060765D01*
X181445671Y-44069030D01*
X181467850Y-44079520D01*
X181488893Y-44092132D01*
X181508599Y-44106747D01*
X181526777Y-44123223D01*
X181543253Y-44141401D01*
X181557868Y-44161107D01*
X181570480Y-44182150D01*
X181580970Y-44204329D01*
X181589235Y-44227428D01*
X181595196Y-44251227D01*
X181598796Y-44275495D01*
X181600000Y-44299999D01*
X181600000Y-44950001D01*
X181598796Y-44974505D01*
X181595196Y-44998773D01*
X181589235Y-45022572D01*
X181580970Y-45045671D01*
X181570480Y-45067850D01*
X181557868Y-45088893D01*
X181543253Y-45108599D01*
X181526777Y-45126777D01*
X181508599Y-45143253D01*
X181488893Y-45157868D01*
X181467850Y-45170480D01*
X181445671Y-45180970D01*
X181422572Y-45189235D01*
X181398773Y-45195196D01*
X181374505Y-45198796D01*
X181350001Y-45200000D01*
X180449999Y-45200000D01*
X180425495Y-45198796D01*
X180401227Y-45195196D01*
X180377428Y-45189235D01*
X180354329Y-45180970D01*
X180332150Y-45170480D01*
X180311107Y-45157868D01*
X180291401Y-45143253D01*
X180273223Y-45126777D01*
X180256747Y-45108599D01*
X180242132Y-45088893D01*
X180229520Y-45067850D01*
X180219030Y-45045671D01*
X180210765Y-45022572D01*
X180204804Y-44998773D01*
X180201204Y-44974505D01*
X180200000Y-44950001D01*
X180200000Y-44299999D01*
X180201204Y-44275495D01*
X180204804Y-44251227D01*
X180210765Y-44227428D01*
X180219030Y-44204329D01*
X180229520Y-44182150D01*
X180242132Y-44161107D01*
X180256747Y-44141401D01*
X180273223Y-44123223D01*
X180291401Y-44106747D01*
X180311107Y-44092132D01*
X180332150Y-44079520D01*
X180354329Y-44069030D01*
X180377428Y-44060765D01*
X180401227Y-44054804D01*
X180425495Y-44051204D01*
X180449999Y-44050000D01*
X181350001Y-44050000D01*
X181374505Y-44051204D01*
X181374505Y-44051204D01*
G37*
D11*
X180900000Y-44625000D03*
D10*
G36*
X181374505Y-42001204D02*
X181398773Y-42004804D01*
X181422572Y-42010765D01*
X181445671Y-42019030D01*
X181467850Y-42029520D01*
X181488893Y-42042132D01*
X181508599Y-42056747D01*
X181526777Y-42073223D01*
X181543253Y-42091401D01*
X181557868Y-42111107D01*
X181570480Y-42132150D01*
X181580970Y-42154329D01*
X181589235Y-42177428D01*
X181595196Y-42201227D01*
X181598796Y-42225495D01*
X181600000Y-42249999D01*
X181600000Y-42900001D01*
X181598796Y-42924505D01*
X181595196Y-42948773D01*
X181589235Y-42972572D01*
X181580970Y-42995671D01*
X181570480Y-43017850D01*
X181557868Y-43038893D01*
X181543253Y-43058599D01*
X181526777Y-43076777D01*
X181508599Y-43093253D01*
X181488893Y-43107868D01*
X181467850Y-43120480D01*
X181445671Y-43130970D01*
X181422572Y-43139235D01*
X181398773Y-43145196D01*
X181374505Y-43148796D01*
X181350001Y-43150000D01*
X180449999Y-43150000D01*
X180425495Y-43148796D01*
X180401227Y-43145196D01*
X180377428Y-43139235D01*
X180354329Y-43130970D01*
X180332150Y-43120480D01*
X180311107Y-43107868D01*
X180291401Y-43093253D01*
X180273223Y-43076777D01*
X180256747Y-43058599D01*
X180242132Y-43038893D01*
X180229520Y-43017850D01*
X180219030Y-42995671D01*
X180210765Y-42972572D01*
X180204804Y-42948773D01*
X180201204Y-42924505D01*
X180200000Y-42900001D01*
X180200000Y-42249999D01*
X180201204Y-42225495D01*
X180204804Y-42201227D01*
X180210765Y-42177428D01*
X180219030Y-42154329D01*
X180229520Y-42132150D01*
X180242132Y-42111107D01*
X180256747Y-42091401D01*
X180273223Y-42073223D01*
X180291401Y-42056747D01*
X180311107Y-42042132D01*
X180332150Y-42029520D01*
X180354329Y-42019030D01*
X180377428Y-42010765D01*
X180401227Y-42004804D01*
X180425495Y-42001204D01*
X180449999Y-42000000D01*
X181350001Y-42000000D01*
X181374505Y-42001204D01*
X181374505Y-42001204D01*
G37*
D11*
X180900000Y-42575000D03*
G04 #@! TD*
D10*
G04 #@! TO.C,C3*
G36*
X170224505Y-37701204D02*
X170248773Y-37704804D01*
X170272572Y-37710765D01*
X170295671Y-37719030D01*
X170317850Y-37729520D01*
X170338893Y-37742132D01*
X170358599Y-37756747D01*
X170376777Y-37773223D01*
X170393253Y-37791401D01*
X170407868Y-37811107D01*
X170420480Y-37832150D01*
X170430970Y-37854329D01*
X170439235Y-37877428D01*
X170445196Y-37901227D01*
X170448796Y-37925495D01*
X170450000Y-37949999D01*
X170450000Y-38850001D01*
X170448796Y-38874505D01*
X170445196Y-38898773D01*
X170439235Y-38922572D01*
X170430970Y-38945671D01*
X170420480Y-38967850D01*
X170407868Y-38988893D01*
X170393253Y-39008599D01*
X170376777Y-39026777D01*
X170358599Y-39043253D01*
X170338893Y-39057868D01*
X170317850Y-39070480D01*
X170295671Y-39080970D01*
X170272572Y-39089235D01*
X170248773Y-39095196D01*
X170224505Y-39098796D01*
X170200001Y-39100000D01*
X169549999Y-39100000D01*
X169525495Y-39098796D01*
X169501227Y-39095196D01*
X169477428Y-39089235D01*
X169454329Y-39080970D01*
X169432150Y-39070480D01*
X169411107Y-39057868D01*
X169391401Y-39043253D01*
X169373223Y-39026777D01*
X169356747Y-39008599D01*
X169342132Y-38988893D01*
X169329520Y-38967850D01*
X169319030Y-38945671D01*
X169310765Y-38922572D01*
X169304804Y-38898773D01*
X169301204Y-38874505D01*
X169300000Y-38850001D01*
X169300000Y-37949999D01*
X169301204Y-37925495D01*
X169304804Y-37901227D01*
X169310765Y-37877428D01*
X169319030Y-37854329D01*
X169329520Y-37832150D01*
X169342132Y-37811107D01*
X169356747Y-37791401D01*
X169373223Y-37773223D01*
X169391401Y-37756747D01*
X169411107Y-37742132D01*
X169432150Y-37729520D01*
X169454329Y-37719030D01*
X169477428Y-37710765D01*
X169501227Y-37704804D01*
X169525495Y-37701204D01*
X169549999Y-37700000D01*
X170200001Y-37700000D01*
X170224505Y-37701204D01*
X170224505Y-37701204D01*
G37*
D11*
X169875000Y-38400000D03*
D10*
G36*
X172274505Y-37701204D02*
X172298773Y-37704804D01*
X172322572Y-37710765D01*
X172345671Y-37719030D01*
X172367850Y-37729520D01*
X172388893Y-37742132D01*
X172408599Y-37756747D01*
X172426777Y-37773223D01*
X172443253Y-37791401D01*
X172457868Y-37811107D01*
X172470480Y-37832150D01*
X172480970Y-37854329D01*
X172489235Y-37877428D01*
X172495196Y-37901227D01*
X172498796Y-37925495D01*
X172500000Y-37949999D01*
X172500000Y-38850001D01*
X172498796Y-38874505D01*
X172495196Y-38898773D01*
X172489235Y-38922572D01*
X172480970Y-38945671D01*
X172470480Y-38967850D01*
X172457868Y-38988893D01*
X172443253Y-39008599D01*
X172426777Y-39026777D01*
X172408599Y-39043253D01*
X172388893Y-39057868D01*
X172367850Y-39070480D01*
X172345671Y-39080970D01*
X172322572Y-39089235D01*
X172298773Y-39095196D01*
X172274505Y-39098796D01*
X172250001Y-39100000D01*
X171599999Y-39100000D01*
X171575495Y-39098796D01*
X171551227Y-39095196D01*
X171527428Y-39089235D01*
X171504329Y-39080970D01*
X171482150Y-39070480D01*
X171461107Y-39057868D01*
X171441401Y-39043253D01*
X171423223Y-39026777D01*
X171406747Y-39008599D01*
X171392132Y-38988893D01*
X171379520Y-38967850D01*
X171369030Y-38945671D01*
X171360765Y-38922572D01*
X171354804Y-38898773D01*
X171351204Y-38874505D01*
X171350000Y-38850001D01*
X171350000Y-37949999D01*
X171351204Y-37925495D01*
X171354804Y-37901227D01*
X171360765Y-37877428D01*
X171369030Y-37854329D01*
X171379520Y-37832150D01*
X171392132Y-37811107D01*
X171406747Y-37791401D01*
X171423223Y-37773223D01*
X171441401Y-37756747D01*
X171461107Y-37742132D01*
X171482150Y-37729520D01*
X171504329Y-37719030D01*
X171527428Y-37710765D01*
X171551227Y-37704804D01*
X171575495Y-37701204D01*
X171599999Y-37700000D01*
X172250001Y-37700000D01*
X172274505Y-37701204D01*
X172274505Y-37701204D01*
G37*
D11*
X171925000Y-38400000D03*
G04 #@! TD*
D10*
G04 #@! TO.C,C4*
G36*
X165974505Y-46276204D02*
X165998773Y-46279804D01*
X166022572Y-46285765D01*
X166045671Y-46294030D01*
X166067850Y-46304520D01*
X166088893Y-46317132D01*
X166108599Y-46331747D01*
X166126777Y-46348223D01*
X166143253Y-46366401D01*
X166157868Y-46386107D01*
X166170480Y-46407150D01*
X166180970Y-46429329D01*
X166189235Y-46452428D01*
X166195196Y-46476227D01*
X166198796Y-46500495D01*
X166200000Y-46524999D01*
X166200000Y-47175001D01*
X166198796Y-47199505D01*
X166195196Y-47223773D01*
X166189235Y-47247572D01*
X166180970Y-47270671D01*
X166170480Y-47292850D01*
X166157868Y-47313893D01*
X166143253Y-47333599D01*
X166126777Y-47351777D01*
X166108599Y-47368253D01*
X166088893Y-47382868D01*
X166067850Y-47395480D01*
X166045671Y-47405970D01*
X166022572Y-47414235D01*
X165998773Y-47420196D01*
X165974505Y-47423796D01*
X165950001Y-47425000D01*
X165049999Y-47425000D01*
X165025495Y-47423796D01*
X165001227Y-47420196D01*
X164977428Y-47414235D01*
X164954329Y-47405970D01*
X164932150Y-47395480D01*
X164911107Y-47382868D01*
X164891401Y-47368253D01*
X164873223Y-47351777D01*
X164856747Y-47333599D01*
X164842132Y-47313893D01*
X164829520Y-47292850D01*
X164819030Y-47270671D01*
X164810765Y-47247572D01*
X164804804Y-47223773D01*
X164801204Y-47199505D01*
X164800000Y-47175001D01*
X164800000Y-46524999D01*
X164801204Y-46500495D01*
X164804804Y-46476227D01*
X164810765Y-46452428D01*
X164819030Y-46429329D01*
X164829520Y-46407150D01*
X164842132Y-46386107D01*
X164856747Y-46366401D01*
X164873223Y-46348223D01*
X164891401Y-46331747D01*
X164911107Y-46317132D01*
X164932150Y-46304520D01*
X164954329Y-46294030D01*
X164977428Y-46285765D01*
X165001227Y-46279804D01*
X165025495Y-46276204D01*
X165049999Y-46275000D01*
X165950001Y-46275000D01*
X165974505Y-46276204D01*
X165974505Y-46276204D01*
G37*
D11*
X165500000Y-46850000D03*
D10*
G36*
X165974505Y-48326204D02*
X165998773Y-48329804D01*
X166022572Y-48335765D01*
X166045671Y-48344030D01*
X166067850Y-48354520D01*
X166088893Y-48367132D01*
X166108599Y-48381747D01*
X166126777Y-48398223D01*
X166143253Y-48416401D01*
X166157868Y-48436107D01*
X166170480Y-48457150D01*
X166180970Y-48479329D01*
X166189235Y-48502428D01*
X166195196Y-48526227D01*
X166198796Y-48550495D01*
X166200000Y-48574999D01*
X166200000Y-49225001D01*
X166198796Y-49249505D01*
X166195196Y-49273773D01*
X166189235Y-49297572D01*
X166180970Y-49320671D01*
X166170480Y-49342850D01*
X166157868Y-49363893D01*
X166143253Y-49383599D01*
X166126777Y-49401777D01*
X166108599Y-49418253D01*
X166088893Y-49432868D01*
X166067850Y-49445480D01*
X166045671Y-49455970D01*
X166022572Y-49464235D01*
X165998773Y-49470196D01*
X165974505Y-49473796D01*
X165950001Y-49475000D01*
X165049999Y-49475000D01*
X165025495Y-49473796D01*
X165001227Y-49470196D01*
X164977428Y-49464235D01*
X164954329Y-49455970D01*
X164932150Y-49445480D01*
X164911107Y-49432868D01*
X164891401Y-49418253D01*
X164873223Y-49401777D01*
X164856747Y-49383599D01*
X164842132Y-49363893D01*
X164829520Y-49342850D01*
X164819030Y-49320671D01*
X164810765Y-49297572D01*
X164804804Y-49273773D01*
X164801204Y-49249505D01*
X164800000Y-49225001D01*
X164800000Y-48574999D01*
X164801204Y-48550495D01*
X164804804Y-48526227D01*
X164810765Y-48502428D01*
X164819030Y-48479329D01*
X164829520Y-48457150D01*
X164842132Y-48436107D01*
X164856747Y-48416401D01*
X164873223Y-48398223D01*
X164891401Y-48381747D01*
X164911107Y-48367132D01*
X164932150Y-48354520D01*
X164954329Y-48344030D01*
X164977428Y-48335765D01*
X165001227Y-48329804D01*
X165025495Y-48326204D01*
X165049999Y-48325000D01*
X165950001Y-48325000D01*
X165974505Y-48326204D01*
X165974505Y-48326204D01*
G37*
D11*
X165500000Y-48900000D03*
G04 #@! TD*
D10*
G04 #@! TO.C,C5*
G36*
X163774505Y-48351204D02*
X163798773Y-48354804D01*
X163822572Y-48360765D01*
X163845671Y-48369030D01*
X163867850Y-48379520D01*
X163888893Y-48392132D01*
X163908599Y-48406747D01*
X163926777Y-48423223D01*
X163943253Y-48441401D01*
X163957868Y-48461107D01*
X163970480Y-48482150D01*
X163980970Y-48504329D01*
X163989235Y-48527428D01*
X163995196Y-48551227D01*
X163998796Y-48575495D01*
X164000000Y-48599999D01*
X164000000Y-49250001D01*
X163998796Y-49274505D01*
X163995196Y-49298773D01*
X163989235Y-49322572D01*
X163980970Y-49345671D01*
X163970480Y-49367850D01*
X163957868Y-49388893D01*
X163943253Y-49408599D01*
X163926777Y-49426777D01*
X163908599Y-49443253D01*
X163888893Y-49457868D01*
X163867850Y-49470480D01*
X163845671Y-49480970D01*
X163822572Y-49489235D01*
X163798773Y-49495196D01*
X163774505Y-49498796D01*
X163750001Y-49500000D01*
X162849999Y-49500000D01*
X162825495Y-49498796D01*
X162801227Y-49495196D01*
X162777428Y-49489235D01*
X162754329Y-49480970D01*
X162732150Y-49470480D01*
X162711107Y-49457868D01*
X162691401Y-49443253D01*
X162673223Y-49426777D01*
X162656747Y-49408599D01*
X162642132Y-49388893D01*
X162629520Y-49367850D01*
X162619030Y-49345671D01*
X162610765Y-49322572D01*
X162604804Y-49298773D01*
X162601204Y-49274505D01*
X162600000Y-49250001D01*
X162600000Y-48599999D01*
X162601204Y-48575495D01*
X162604804Y-48551227D01*
X162610765Y-48527428D01*
X162619030Y-48504329D01*
X162629520Y-48482150D01*
X162642132Y-48461107D01*
X162656747Y-48441401D01*
X162673223Y-48423223D01*
X162691401Y-48406747D01*
X162711107Y-48392132D01*
X162732150Y-48379520D01*
X162754329Y-48369030D01*
X162777428Y-48360765D01*
X162801227Y-48354804D01*
X162825495Y-48351204D01*
X162849999Y-48350000D01*
X163750001Y-48350000D01*
X163774505Y-48351204D01*
X163774505Y-48351204D01*
G37*
D11*
X163300000Y-48925000D03*
D10*
G36*
X163774505Y-46301204D02*
X163798773Y-46304804D01*
X163822572Y-46310765D01*
X163845671Y-46319030D01*
X163867850Y-46329520D01*
X163888893Y-46342132D01*
X163908599Y-46356747D01*
X163926777Y-46373223D01*
X163943253Y-46391401D01*
X163957868Y-46411107D01*
X163970480Y-46432150D01*
X163980970Y-46454329D01*
X163989235Y-46477428D01*
X163995196Y-46501227D01*
X163998796Y-46525495D01*
X164000000Y-46549999D01*
X164000000Y-47200001D01*
X163998796Y-47224505D01*
X163995196Y-47248773D01*
X163989235Y-47272572D01*
X163980970Y-47295671D01*
X163970480Y-47317850D01*
X163957868Y-47338893D01*
X163943253Y-47358599D01*
X163926777Y-47376777D01*
X163908599Y-47393253D01*
X163888893Y-47407868D01*
X163867850Y-47420480D01*
X163845671Y-47430970D01*
X163822572Y-47439235D01*
X163798773Y-47445196D01*
X163774505Y-47448796D01*
X163750001Y-47450000D01*
X162849999Y-47450000D01*
X162825495Y-47448796D01*
X162801227Y-47445196D01*
X162777428Y-47439235D01*
X162754329Y-47430970D01*
X162732150Y-47420480D01*
X162711107Y-47407868D01*
X162691401Y-47393253D01*
X162673223Y-47376777D01*
X162656747Y-47358599D01*
X162642132Y-47338893D01*
X162629520Y-47317850D01*
X162619030Y-47295671D01*
X162610765Y-47272572D01*
X162604804Y-47248773D01*
X162601204Y-47224505D01*
X162600000Y-47200001D01*
X162600000Y-46549999D01*
X162601204Y-46525495D01*
X162604804Y-46501227D01*
X162610765Y-46477428D01*
X162619030Y-46454329D01*
X162629520Y-46432150D01*
X162642132Y-46411107D01*
X162656747Y-46391401D01*
X162673223Y-46373223D01*
X162691401Y-46356747D01*
X162711107Y-46342132D01*
X162732150Y-46329520D01*
X162754329Y-46319030D01*
X162777428Y-46310765D01*
X162801227Y-46304804D01*
X162825495Y-46301204D01*
X162849999Y-46300000D01*
X163750001Y-46300000D01*
X163774505Y-46301204D01*
X163774505Y-46301204D01*
G37*
D11*
X163300000Y-46875000D03*
G04 #@! TD*
D10*
G04 #@! TO.C,C6*
G36*
X154674505Y-43351204D02*
X154698773Y-43354804D01*
X154722572Y-43360765D01*
X154745671Y-43369030D01*
X154767850Y-43379520D01*
X154788893Y-43392132D01*
X154808599Y-43406747D01*
X154826777Y-43423223D01*
X154843253Y-43441401D01*
X154857868Y-43461107D01*
X154870480Y-43482150D01*
X154880970Y-43504329D01*
X154889235Y-43527428D01*
X154895196Y-43551227D01*
X154898796Y-43575495D01*
X154900000Y-43599999D01*
X154900000Y-44250001D01*
X154898796Y-44274505D01*
X154895196Y-44298773D01*
X154889235Y-44322572D01*
X154880970Y-44345671D01*
X154870480Y-44367850D01*
X154857868Y-44388893D01*
X154843253Y-44408599D01*
X154826777Y-44426777D01*
X154808599Y-44443253D01*
X154788893Y-44457868D01*
X154767850Y-44470480D01*
X154745671Y-44480970D01*
X154722572Y-44489235D01*
X154698773Y-44495196D01*
X154674505Y-44498796D01*
X154650001Y-44500000D01*
X153749999Y-44500000D01*
X153725495Y-44498796D01*
X153701227Y-44495196D01*
X153677428Y-44489235D01*
X153654329Y-44480970D01*
X153632150Y-44470480D01*
X153611107Y-44457868D01*
X153591401Y-44443253D01*
X153573223Y-44426777D01*
X153556747Y-44408599D01*
X153542132Y-44388893D01*
X153529520Y-44367850D01*
X153519030Y-44345671D01*
X153510765Y-44322572D01*
X153504804Y-44298773D01*
X153501204Y-44274505D01*
X153500000Y-44250001D01*
X153500000Y-43599999D01*
X153501204Y-43575495D01*
X153504804Y-43551227D01*
X153510765Y-43527428D01*
X153519030Y-43504329D01*
X153529520Y-43482150D01*
X153542132Y-43461107D01*
X153556747Y-43441401D01*
X153573223Y-43423223D01*
X153591401Y-43406747D01*
X153611107Y-43392132D01*
X153632150Y-43379520D01*
X153654329Y-43369030D01*
X153677428Y-43360765D01*
X153701227Y-43354804D01*
X153725495Y-43351204D01*
X153749999Y-43350000D01*
X154650001Y-43350000D01*
X154674505Y-43351204D01*
X154674505Y-43351204D01*
G37*
D11*
X154200000Y-43925000D03*
D10*
G36*
X154674505Y-41301204D02*
X154698773Y-41304804D01*
X154722572Y-41310765D01*
X154745671Y-41319030D01*
X154767850Y-41329520D01*
X154788893Y-41342132D01*
X154808599Y-41356747D01*
X154826777Y-41373223D01*
X154843253Y-41391401D01*
X154857868Y-41411107D01*
X154870480Y-41432150D01*
X154880970Y-41454329D01*
X154889235Y-41477428D01*
X154895196Y-41501227D01*
X154898796Y-41525495D01*
X154900000Y-41549999D01*
X154900000Y-42200001D01*
X154898796Y-42224505D01*
X154895196Y-42248773D01*
X154889235Y-42272572D01*
X154880970Y-42295671D01*
X154870480Y-42317850D01*
X154857868Y-42338893D01*
X154843253Y-42358599D01*
X154826777Y-42376777D01*
X154808599Y-42393253D01*
X154788893Y-42407868D01*
X154767850Y-42420480D01*
X154745671Y-42430970D01*
X154722572Y-42439235D01*
X154698773Y-42445196D01*
X154674505Y-42448796D01*
X154650001Y-42450000D01*
X153749999Y-42450000D01*
X153725495Y-42448796D01*
X153701227Y-42445196D01*
X153677428Y-42439235D01*
X153654329Y-42430970D01*
X153632150Y-42420480D01*
X153611107Y-42407868D01*
X153591401Y-42393253D01*
X153573223Y-42376777D01*
X153556747Y-42358599D01*
X153542132Y-42338893D01*
X153529520Y-42317850D01*
X153519030Y-42295671D01*
X153510765Y-42272572D01*
X153504804Y-42248773D01*
X153501204Y-42224505D01*
X153500000Y-42200001D01*
X153500000Y-41549999D01*
X153501204Y-41525495D01*
X153504804Y-41501227D01*
X153510765Y-41477428D01*
X153519030Y-41454329D01*
X153529520Y-41432150D01*
X153542132Y-41411107D01*
X153556747Y-41391401D01*
X153573223Y-41373223D01*
X153591401Y-41356747D01*
X153611107Y-41342132D01*
X153632150Y-41329520D01*
X153654329Y-41319030D01*
X153677428Y-41310765D01*
X153701227Y-41304804D01*
X153725495Y-41301204D01*
X153749999Y-41300000D01*
X154650001Y-41300000D01*
X154674505Y-41301204D01*
X154674505Y-41301204D01*
G37*
D11*
X154200000Y-41875000D03*
G04 #@! TD*
D10*
G04 #@! TO.C,C7*
G36*
X154674505Y-46626204D02*
X154698773Y-46629804D01*
X154722572Y-46635765D01*
X154745671Y-46644030D01*
X154767850Y-46654520D01*
X154788893Y-46667132D01*
X154808599Y-46681747D01*
X154826777Y-46698223D01*
X154843253Y-46716401D01*
X154857868Y-46736107D01*
X154870480Y-46757150D01*
X154880970Y-46779329D01*
X154889235Y-46802428D01*
X154895196Y-46826227D01*
X154898796Y-46850495D01*
X154900000Y-46874999D01*
X154900000Y-47525001D01*
X154898796Y-47549505D01*
X154895196Y-47573773D01*
X154889235Y-47597572D01*
X154880970Y-47620671D01*
X154870480Y-47642850D01*
X154857868Y-47663893D01*
X154843253Y-47683599D01*
X154826777Y-47701777D01*
X154808599Y-47718253D01*
X154788893Y-47732868D01*
X154767850Y-47745480D01*
X154745671Y-47755970D01*
X154722572Y-47764235D01*
X154698773Y-47770196D01*
X154674505Y-47773796D01*
X154650001Y-47775000D01*
X153749999Y-47775000D01*
X153725495Y-47773796D01*
X153701227Y-47770196D01*
X153677428Y-47764235D01*
X153654329Y-47755970D01*
X153632150Y-47745480D01*
X153611107Y-47732868D01*
X153591401Y-47718253D01*
X153573223Y-47701777D01*
X153556747Y-47683599D01*
X153542132Y-47663893D01*
X153529520Y-47642850D01*
X153519030Y-47620671D01*
X153510765Y-47597572D01*
X153504804Y-47573773D01*
X153501204Y-47549505D01*
X153500000Y-47525001D01*
X153500000Y-46874999D01*
X153501204Y-46850495D01*
X153504804Y-46826227D01*
X153510765Y-46802428D01*
X153519030Y-46779329D01*
X153529520Y-46757150D01*
X153542132Y-46736107D01*
X153556747Y-46716401D01*
X153573223Y-46698223D01*
X153591401Y-46681747D01*
X153611107Y-46667132D01*
X153632150Y-46654520D01*
X153654329Y-46644030D01*
X153677428Y-46635765D01*
X153701227Y-46629804D01*
X153725495Y-46626204D01*
X153749999Y-46625000D01*
X154650001Y-46625000D01*
X154674505Y-46626204D01*
X154674505Y-46626204D01*
G37*
D11*
X154200000Y-47200000D03*
D10*
G36*
X154674505Y-48676204D02*
X154698773Y-48679804D01*
X154722572Y-48685765D01*
X154745671Y-48694030D01*
X154767850Y-48704520D01*
X154788893Y-48717132D01*
X154808599Y-48731747D01*
X154826777Y-48748223D01*
X154843253Y-48766401D01*
X154857868Y-48786107D01*
X154870480Y-48807150D01*
X154880970Y-48829329D01*
X154889235Y-48852428D01*
X154895196Y-48876227D01*
X154898796Y-48900495D01*
X154900000Y-48924999D01*
X154900000Y-49575001D01*
X154898796Y-49599505D01*
X154895196Y-49623773D01*
X154889235Y-49647572D01*
X154880970Y-49670671D01*
X154870480Y-49692850D01*
X154857868Y-49713893D01*
X154843253Y-49733599D01*
X154826777Y-49751777D01*
X154808599Y-49768253D01*
X154788893Y-49782868D01*
X154767850Y-49795480D01*
X154745671Y-49805970D01*
X154722572Y-49814235D01*
X154698773Y-49820196D01*
X154674505Y-49823796D01*
X154650001Y-49825000D01*
X153749999Y-49825000D01*
X153725495Y-49823796D01*
X153701227Y-49820196D01*
X153677428Y-49814235D01*
X153654329Y-49805970D01*
X153632150Y-49795480D01*
X153611107Y-49782868D01*
X153591401Y-49768253D01*
X153573223Y-49751777D01*
X153556747Y-49733599D01*
X153542132Y-49713893D01*
X153529520Y-49692850D01*
X153519030Y-49670671D01*
X153510765Y-49647572D01*
X153504804Y-49623773D01*
X153501204Y-49599505D01*
X153500000Y-49575001D01*
X153500000Y-48924999D01*
X153501204Y-48900495D01*
X153504804Y-48876227D01*
X153510765Y-48852428D01*
X153519030Y-48829329D01*
X153529520Y-48807150D01*
X153542132Y-48786107D01*
X153556747Y-48766401D01*
X153573223Y-48748223D01*
X153591401Y-48731747D01*
X153611107Y-48717132D01*
X153632150Y-48704520D01*
X153654329Y-48694030D01*
X153677428Y-48685765D01*
X153701227Y-48679804D01*
X153725495Y-48676204D01*
X153749999Y-48675000D01*
X154650001Y-48675000D01*
X154674505Y-48676204D01*
X154674505Y-48676204D01*
G37*
D11*
X154200000Y-49250000D03*
G04 #@! TD*
D10*
G04 #@! TO.C,C8*
G36*
X163699505Y-42201204D02*
X163723773Y-42204804D01*
X163747572Y-42210765D01*
X163770671Y-42219030D01*
X163792850Y-42229520D01*
X163813893Y-42242132D01*
X163833599Y-42256747D01*
X163851777Y-42273223D01*
X163868253Y-42291401D01*
X163882868Y-42311107D01*
X163895480Y-42332150D01*
X163905970Y-42354329D01*
X163914235Y-42377428D01*
X163920196Y-42401227D01*
X163923796Y-42425495D01*
X163925000Y-42449999D01*
X163925000Y-43350001D01*
X163923796Y-43374505D01*
X163920196Y-43398773D01*
X163914235Y-43422572D01*
X163905970Y-43445671D01*
X163895480Y-43467850D01*
X163882868Y-43488893D01*
X163868253Y-43508599D01*
X163851777Y-43526777D01*
X163833599Y-43543253D01*
X163813893Y-43557868D01*
X163792850Y-43570480D01*
X163770671Y-43580970D01*
X163747572Y-43589235D01*
X163723773Y-43595196D01*
X163699505Y-43598796D01*
X163675001Y-43600000D01*
X163024999Y-43600000D01*
X163000495Y-43598796D01*
X162976227Y-43595196D01*
X162952428Y-43589235D01*
X162929329Y-43580970D01*
X162907150Y-43570480D01*
X162886107Y-43557868D01*
X162866401Y-43543253D01*
X162848223Y-43526777D01*
X162831747Y-43508599D01*
X162817132Y-43488893D01*
X162804520Y-43467850D01*
X162794030Y-43445671D01*
X162785765Y-43422572D01*
X162779804Y-43398773D01*
X162776204Y-43374505D01*
X162775000Y-43350001D01*
X162775000Y-42449999D01*
X162776204Y-42425495D01*
X162779804Y-42401227D01*
X162785765Y-42377428D01*
X162794030Y-42354329D01*
X162804520Y-42332150D01*
X162817132Y-42311107D01*
X162831747Y-42291401D01*
X162848223Y-42273223D01*
X162866401Y-42256747D01*
X162886107Y-42242132D01*
X162907150Y-42229520D01*
X162929329Y-42219030D01*
X162952428Y-42210765D01*
X162976227Y-42204804D01*
X163000495Y-42201204D01*
X163024999Y-42200000D01*
X163675001Y-42200000D01*
X163699505Y-42201204D01*
X163699505Y-42201204D01*
G37*
D11*
X163350000Y-42900000D03*
D10*
G36*
X165749505Y-42201204D02*
X165773773Y-42204804D01*
X165797572Y-42210765D01*
X165820671Y-42219030D01*
X165842850Y-42229520D01*
X165863893Y-42242132D01*
X165883599Y-42256747D01*
X165901777Y-42273223D01*
X165918253Y-42291401D01*
X165932868Y-42311107D01*
X165945480Y-42332150D01*
X165955970Y-42354329D01*
X165964235Y-42377428D01*
X165970196Y-42401227D01*
X165973796Y-42425495D01*
X165975000Y-42449999D01*
X165975000Y-43350001D01*
X165973796Y-43374505D01*
X165970196Y-43398773D01*
X165964235Y-43422572D01*
X165955970Y-43445671D01*
X165945480Y-43467850D01*
X165932868Y-43488893D01*
X165918253Y-43508599D01*
X165901777Y-43526777D01*
X165883599Y-43543253D01*
X165863893Y-43557868D01*
X165842850Y-43570480D01*
X165820671Y-43580970D01*
X165797572Y-43589235D01*
X165773773Y-43595196D01*
X165749505Y-43598796D01*
X165725001Y-43600000D01*
X165074999Y-43600000D01*
X165050495Y-43598796D01*
X165026227Y-43595196D01*
X165002428Y-43589235D01*
X164979329Y-43580970D01*
X164957150Y-43570480D01*
X164936107Y-43557868D01*
X164916401Y-43543253D01*
X164898223Y-43526777D01*
X164881747Y-43508599D01*
X164867132Y-43488893D01*
X164854520Y-43467850D01*
X164844030Y-43445671D01*
X164835765Y-43422572D01*
X164829804Y-43398773D01*
X164826204Y-43374505D01*
X164825000Y-43350001D01*
X164825000Y-42449999D01*
X164826204Y-42425495D01*
X164829804Y-42401227D01*
X164835765Y-42377428D01*
X164844030Y-42354329D01*
X164854520Y-42332150D01*
X164867132Y-42311107D01*
X164881747Y-42291401D01*
X164898223Y-42273223D01*
X164916401Y-42256747D01*
X164936107Y-42242132D01*
X164957150Y-42229520D01*
X164979329Y-42219030D01*
X165002428Y-42210765D01*
X165026227Y-42204804D01*
X165050495Y-42201204D01*
X165074999Y-42200000D01*
X165725001Y-42200000D01*
X165749505Y-42201204D01*
X165749505Y-42201204D01*
G37*
D11*
X165400000Y-42900000D03*
G04 #@! TD*
D10*
G04 #@! TO.C,R1*
G36*
X148399505Y-53201204D02*
X148423773Y-53204804D01*
X148447572Y-53210765D01*
X148470671Y-53219030D01*
X148492850Y-53229520D01*
X148513893Y-53242132D01*
X148533599Y-53256747D01*
X148551777Y-53273223D01*
X148568253Y-53291401D01*
X148582868Y-53311107D01*
X148595480Y-53332150D01*
X148605970Y-53354329D01*
X148614235Y-53377428D01*
X148620196Y-53401227D01*
X148623796Y-53425495D01*
X148625000Y-53449999D01*
X148625000Y-54350001D01*
X148623796Y-54374505D01*
X148620196Y-54398773D01*
X148614235Y-54422572D01*
X148605970Y-54445671D01*
X148595480Y-54467850D01*
X148582868Y-54488893D01*
X148568253Y-54508599D01*
X148551777Y-54526777D01*
X148533599Y-54543253D01*
X148513893Y-54557868D01*
X148492850Y-54570480D01*
X148470671Y-54580970D01*
X148447572Y-54589235D01*
X148423773Y-54595196D01*
X148399505Y-54598796D01*
X148375001Y-54600000D01*
X147724999Y-54600000D01*
X147700495Y-54598796D01*
X147676227Y-54595196D01*
X147652428Y-54589235D01*
X147629329Y-54580970D01*
X147607150Y-54570480D01*
X147586107Y-54557868D01*
X147566401Y-54543253D01*
X147548223Y-54526777D01*
X147531747Y-54508599D01*
X147517132Y-54488893D01*
X147504520Y-54467850D01*
X147494030Y-54445671D01*
X147485765Y-54422572D01*
X147479804Y-54398773D01*
X147476204Y-54374505D01*
X147475000Y-54350001D01*
X147475000Y-53449999D01*
X147476204Y-53425495D01*
X147479804Y-53401227D01*
X147485765Y-53377428D01*
X147494030Y-53354329D01*
X147504520Y-53332150D01*
X147517132Y-53311107D01*
X147531747Y-53291401D01*
X147548223Y-53273223D01*
X147566401Y-53256747D01*
X147586107Y-53242132D01*
X147607150Y-53229520D01*
X147629329Y-53219030D01*
X147652428Y-53210765D01*
X147676227Y-53204804D01*
X147700495Y-53201204D01*
X147724999Y-53200000D01*
X148375001Y-53200000D01*
X148399505Y-53201204D01*
X148399505Y-53201204D01*
G37*
D11*
X148050000Y-53900000D03*
D10*
G36*
X146349505Y-53201204D02*
X146373773Y-53204804D01*
X146397572Y-53210765D01*
X146420671Y-53219030D01*
X146442850Y-53229520D01*
X146463893Y-53242132D01*
X146483599Y-53256747D01*
X146501777Y-53273223D01*
X146518253Y-53291401D01*
X146532868Y-53311107D01*
X146545480Y-53332150D01*
X146555970Y-53354329D01*
X146564235Y-53377428D01*
X146570196Y-53401227D01*
X146573796Y-53425495D01*
X146575000Y-53449999D01*
X146575000Y-54350001D01*
X146573796Y-54374505D01*
X146570196Y-54398773D01*
X146564235Y-54422572D01*
X146555970Y-54445671D01*
X146545480Y-54467850D01*
X146532868Y-54488893D01*
X146518253Y-54508599D01*
X146501777Y-54526777D01*
X146483599Y-54543253D01*
X146463893Y-54557868D01*
X146442850Y-54570480D01*
X146420671Y-54580970D01*
X146397572Y-54589235D01*
X146373773Y-54595196D01*
X146349505Y-54598796D01*
X146325001Y-54600000D01*
X145674999Y-54600000D01*
X145650495Y-54598796D01*
X145626227Y-54595196D01*
X145602428Y-54589235D01*
X145579329Y-54580970D01*
X145557150Y-54570480D01*
X145536107Y-54557868D01*
X145516401Y-54543253D01*
X145498223Y-54526777D01*
X145481747Y-54508599D01*
X145467132Y-54488893D01*
X145454520Y-54467850D01*
X145444030Y-54445671D01*
X145435765Y-54422572D01*
X145429804Y-54398773D01*
X145426204Y-54374505D01*
X145425000Y-54350001D01*
X145425000Y-53449999D01*
X145426204Y-53425495D01*
X145429804Y-53401227D01*
X145435765Y-53377428D01*
X145444030Y-53354329D01*
X145454520Y-53332150D01*
X145467132Y-53311107D01*
X145481747Y-53291401D01*
X145498223Y-53273223D01*
X145516401Y-53256747D01*
X145536107Y-53242132D01*
X145557150Y-53229520D01*
X145579329Y-53219030D01*
X145602428Y-53210765D01*
X145626227Y-53204804D01*
X145650495Y-53201204D01*
X145674999Y-53200000D01*
X146325001Y-53200000D01*
X146349505Y-53201204D01*
X146349505Y-53201204D01*
G37*
D11*
X146000000Y-53900000D03*
G04 #@! TD*
D10*
G04 #@! TO.C,R4*
G36*
X176749505Y-37701204D02*
X176773773Y-37704804D01*
X176797572Y-37710765D01*
X176820671Y-37719030D01*
X176842850Y-37729520D01*
X176863893Y-37742132D01*
X176883599Y-37756747D01*
X176901777Y-37773223D01*
X176918253Y-37791401D01*
X176932868Y-37811107D01*
X176945480Y-37832150D01*
X176955970Y-37854329D01*
X176964235Y-37877428D01*
X176970196Y-37901227D01*
X176973796Y-37925495D01*
X176975000Y-37949999D01*
X176975000Y-38850001D01*
X176973796Y-38874505D01*
X176970196Y-38898773D01*
X176964235Y-38922572D01*
X176955970Y-38945671D01*
X176945480Y-38967850D01*
X176932868Y-38988893D01*
X176918253Y-39008599D01*
X176901777Y-39026777D01*
X176883599Y-39043253D01*
X176863893Y-39057868D01*
X176842850Y-39070480D01*
X176820671Y-39080970D01*
X176797572Y-39089235D01*
X176773773Y-39095196D01*
X176749505Y-39098796D01*
X176725001Y-39100000D01*
X176074999Y-39100000D01*
X176050495Y-39098796D01*
X176026227Y-39095196D01*
X176002428Y-39089235D01*
X175979329Y-39080970D01*
X175957150Y-39070480D01*
X175936107Y-39057868D01*
X175916401Y-39043253D01*
X175898223Y-39026777D01*
X175881747Y-39008599D01*
X175867132Y-38988893D01*
X175854520Y-38967850D01*
X175844030Y-38945671D01*
X175835765Y-38922572D01*
X175829804Y-38898773D01*
X175826204Y-38874505D01*
X175825000Y-38850001D01*
X175825000Y-37949999D01*
X175826204Y-37925495D01*
X175829804Y-37901227D01*
X175835765Y-37877428D01*
X175844030Y-37854329D01*
X175854520Y-37832150D01*
X175867132Y-37811107D01*
X175881747Y-37791401D01*
X175898223Y-37773223D01*
X175916401Y-37756747D01*
X175936107Y-37742132D01*
X175957150Y-37729520D01*
X175979329Y-37719030D01*
X176002428Y-37710765D01*
X176026227Y-37704804D01*
X176050495Y-37701204D01*
X176074999Y-37700000D01*
X176725001Y-37700000D01*
X176749505Y-37701204D01*
X176749505Y-37701204D01*
G37*
D11*
X176400000Y-38400000D03*
D10*
G36*
X174699505Y-37701204D02*
X174723773Y-37704804D01*
X174747572Y-37710765D01*
X174770671Y-37719030D01*
X174792850Y-37729520D01*
X174813893Y-37742132D01*
X174833599Y-37756747D01*
X174851777Y-37773223D01*
X174868253Y-37791401D01*
X174882868Y-37811107D01*
X174895480Y-37832150D01*
X174905970Y-37854329D01*
X174914235Y-37877428D01*
X174920196Y-37901227D01*
X174923796Y-37925495D01*
X174925000Y-37949999D01*
X174925000Y-38850001D01*
X174923796Y-38874505D01*
X174920196Y-38898773D01*
X174914235Y-38922572D01*
X174905970Y-38945671D01*
X174895480Y-38967850D01*
X174882868Y-38988893D01*
X174868253Y-39008599D01*
X174851777Y-39026777D01*
X174833599Y-39043253D01*
X174813893Y-39057868D01*
X174792850Y-39070480D01*
X174770671Y-39080970D01*
X174747572Y-39089235D01*
X174723773Y-39095196D01*
X174699505Y-39098796D01*
X174675001Y-39100000D01*
X174024999Y-39100000D01*
X174000495Y-39098796D01*
X173976227Y-39095196D01*
X173952428Y-39089235D01*
X173929329Y-39080970D01*
X173907150Y-39070480D01*
X173886107Y-39057868D01*
X173866401Y-39043253D01*
X173848223Y-39026777D01*
X173831747Y-39008599D01*
X173817132Y-38988893D01*
X173804520Y-38967850D01*
X173794030Y-38945671D01*
X173785765Y-38922572D01*
X173779804Y-38898773D01*
X173776204Y-38874505D01*
X173775000Y-38850001D01*
X173775000Y-37949999D01*
X173776204Y-37925495D01*
X173779804Y-37901227D01*
X173785765Y-37877428D01*
X173794030Y-37854329D01*
X173804520Y-37832150D01*
X173817132Y-37811107D01*
X173831747Y-37791401D01*
X173848223Y-37773223D01*
X173866401Y-37756747D01*
X173886107Y-37742132D01*
X173907150Y-37729520D01*
X173929329Y-37719030D01*
X173952428Y-37710765D01*
X173976227Y-37704804D01*
X174000495Y-37701204D01*
X174024999Y-37700000D01*
X174675001Y-37700000D01*
X174699505Y-37701204D01*
X174699505Y-37701204D01*
G37*
D11*
X174350000Y-38400000D03*
G04 #@! TD*
D10*
G04 #@! TO.C,C9*
G36*
X154624505Y-51226204D02*
X154648773Y-51229804D01*
X154672572Y-51235765D01*
X154695671Y-51244030D01*
X154717850Y-51254520D01*
X154738893Y-51267132D01*
X154758599Y-51281747D01*
X154776777Y-51298223D01*
X154793253Y-51316401D01*
X154807868Y-51336107D01*
X154820480Y-51357150D01*
X154830970Y-51379329D01*
X154839235Y-51402428D01*
X154845196Y-51426227D01*
X154848796Y-51450495D01*
X154850000Y-51474999D01*
X154850000Y-52125001D01*
X154848796Y-52149505D01*
X154845196Y-52173773D01*
X154839235Y-52197572D01*
X154830970Y-52220671D01*
X154820480Y-52242850D01*
X154807868Y-52263893D01*
X154793253Y-52283599D01*
X154776777Y-52301777D01*
X154758599Y-52318253D01*
X154738893Y-52332868D01*
X154717850Y-52345480D01*
X154695671Y-52355970D01*
X154672572Y-52364235D01*
X154648773Y-52370196D01*
X154624505Y-52373796D01*
X154600001Y-52375000D01*
X153699999Y-52375000D01*
X153675495Y-52373796D01*
X153651227Y-52370196D01*
X153627428Y-52364235D01*
X153604329Y-52355970D01*
X153582150Y-52345480D01*
X153561107Y-52332868D01*
X153541401Y-52318253D01*
X153523223Y-52301777D01*
X153506747Y-52283599D01*
X153492132Y-52263893D01*
X153479520Y-52242850D01*
X153469030Y-52220671D01*
X153460765Y-52197572D01*
X153454804Y-52173773D01*
X153451204Y-52149505D01*
X153450000Y-52125001D01*
X153450000Y-51474999D01*
X153451204Y-51450495D01*
X153454804Y-51426227D01*
X153460765Y-51402428D01*
X153469030Y-51379329D01*
X153479520Y-51357150D01*
X153492132Y-51336107D01*
X153506747Y-51316401D01*
X153523223Y-51298223D01*
X153541401Y-51281747D01*
X153561107Y-51267132D01*
X153582150Y-51254520D01*
X153604329Y-51244030D01*
X153627428Y-51235765D01*
X153651227Y-51229804D01*
X153675495Y-51226204D01*
X153699999Y-51225000D01*
X154600001Y-51225000D01*
X154624505Y-51226204D01*
X154624505Y-51226204D01*
G37*
D11*
X154150000Y-51800000D03*
D10*
G36*
X154624505Y-53276204D02*
X154648773Y-53279804D01*
X154672572Y-53285765D01*
X154695671Y-53294030D01*
X154717850Y-53304520D01*
X154738893Y-53317132D01*
X154758599Y-53331747D01*
X154776777Y-53348223D01*
X154793253Y-53366401D01*
X154807868Y-53386107D01*
X154820480Y-53407150D01*
X154830970Y-53429329D01*
X154839235Y-53452428D01*
X154845196Y-53476227D01*
X154848796Y-53500495D01*
X154850000Y-53524999D01*
X154850000Y-54175001D01*
X154848796Y-54199505D01*
X154845196Y-54223773D01*
X154839235Y-54247572D01*
X154830970Y-54270671D01*
X154820480Y-54292850D01*
X154807868Y-54313893D01*
X154793253Y-54333599D01*
X154776777Y-54351777D01*
X154758599Y-54368253D01*
X154738893Y-54382868D01*
X154717850Y-54395480D01*
X154695671Y-54405970D01*
X154672572Y-54414235D01*
X154648773Y-54420196D01*
X154624505Y-54423796D01*
X154600001Y-54425000D01*
X153699999Y-54425000D01*
X153675495Y-54423796D01*
X153651227Y-54420196D01*
X153627428Y-54414235D01*
X153604329Y-54405970D01*
X153582150Y-54395480D01*
X153561107Y-54382868D01*
X153541401Y-54368253D01*
X153523223Y-54351777D01*
X153506747Y-54333599D01*
X153492132Y-54313893D01*
X153479520Y-54292850D01*
X153469030Y-54270671D01*
X153460765Y-54247572D01*
X153454804Y-54223773D01*
X153451204Y-54199505D01*
X153450000Y-54175001D01*
X153450000Y-53524999D01*
X153451204Y-53500495D01*
X153454804Y-53476227D01*
X153460765Y-53452428D01*
X153469030Y-53429329D01*
X153479520Y-53407150D01*
X153492132Y-53386107D01*
X153506747Y-53366401D01*
X153523223Y-53348223D01*
X153541401Y-53331747D01*
X153561107Y-53317132D01*
X153582150Y-53304520D01*
X153604329Y-53294030D01*
X153627428Y-53285765D01*
X153651227Y-53279804D01*
X153675495Y-53276204D01*
X153699999Y-53275000D01*
X154600001Y-53275000D01*
X154624505Y-53276204D01*
X154624505Y-53276204D01*
G37*
D11*
X154150000Y-53850000D03*
G04 #@! TD*
D10*
G04 #@! TO.C,C10*
G36*
X162549505Y-53251204D02*
X162573773Y-53254804D01*
X162597572Y-53260765D01*
X162620671Y-53269030D01*
X162642850Y-53279520D01*
X162663893Y-53292132D01*
X162683599Y-53306747D01*
X162701777Y-53323223D01*
X162718253Y-53341401D01*
X162732868Y-53361107D01*
X162745480Y-53382150D01*
X162755970Y-53404329D01*
X162764235Y-53427428D01*
X162770196Y-53451227D01*
X162773796Y-53475495D01*
X162775000Y-53499999D01*
X162775000Y-54150001D01*
X162773796Y-54174505D01*
X162770196Y-54198773D01*
X162764235Y-54222572D01*
X162755970Y-54245671D01*
X162745480Y-54267850D01*
X162732868Y-54288893D01*
X162718253Y-54308599D01*
X162701777Y-54326777D01*
X162683599Y-54343253D01*
X162663893Y-54357868D01*
X162642850Y-54370480D01*
X162620671Y-54380970D01*
X162597572Y-54389235D01*
X162573773Y-54395196D01*
X162549505Y-54398796D01*
X162525001Y-54400000D01*
X161624999Y-54400000D01*
X161600495Y-54398796D01*
X161576227Y-54395196D01*
X161552428Y-54389235D01*
X161529329Y-54380970D01*
X161507150Y-54370480D01*
X161486107Y-54357868D01*
X161466401Y-54343253D01*
X161448223Y-54326777D01*
X161431747Y-54308599D01*
X161417132Y-54288893D01*
X161404520Y-54267850D01*
X161394030Y-54245671D01*
X161385765Y-54222572D01*
X161379804Y-54198773D01*
X161376204Y-54174505D01*
X161375000Y-54150001D01*
X161375000Y-53499999D01*
X161376204Y-53475495D01*
X161379804Y-53451227D01*
X161385765Y-53427428D01*
X161394030Y-53404329D01*
X161404520Y-53382150D01*
X161417132Y-53361107D01*
X161431747Y-53341401D01*
X161448223Y-53323223D01*
X161466401Y-53306747D01*
X161486107Y-53292132D01*
X161507150Y-53279520D01*
X161529329Y-53269030D01*
X161552428Y-53260765D01*
X161576227Y-53254804D01*
X161600495Y-53251204D01*
X161624999Y-53250000D01*
X162525001Y-53250000D01*
X162549505Y-53251204D01*
X162549505Y-53251204D01*
G37*
D11*
X162075000Y-53825000D03*
D10*
G36*
X162549505Y-51201204D02*
X162573773Y-51204804D01*
X162597572Y-51210765D01*
X162620671Y-51219030D01*
X162642850Y-51229520D01*
X162663893Y-51242132D01*
X162683599Y-51256747D01*
X162701777Y-51273223D01*
X162718253Y-51291401D01*
X162732868Y-51311107D01*
X162745480Y-51332150D01*
X162755970Y-51354329D01*
X162764235Y-51377428D01*
X162770196Y-51401227D01*
X162773796Y-51425495D01*
X162775000Y-51449999D01*
X162775000Y-52100001D01*
X162773796Y-52124505D01*
X162770196Y-52148773D01*
X162764235Y-52172572D01*
X162755970Y-52195671D01*
X162745480Y-52217850D01*
X162732868Y-52238893D01*
X162718253Y-52258599D01*
X162701777Y-52276777D01*
X162683599Y-52293253D01*
X162663893Y-52307868D01*
X162642850Y-52320480D01*
X162620671Y-52330970D01*
X162597572Y-52339235D01*
X162573773Y-52345196D01*
X162549505Y-52348796D01*
X162525001Y-52350000D01*
X161624999Y-52350000D01*
X161600495Y-52348796D01*
X161576227Y-52345196D01*
X161552428Y-52339235D01*
X161529329Y-52330970D01*
X161507150Y-52320480D01*
X161486107Y-52307868D01*
X161466401Y-52293253D01*
X161448223Y-52276777D01*
X161431747Y-52258599D01*
X161417132Y-52238893D01*
X161404520Y-52217850D01*
X161394030Y-52195671D01*
X161385765Y-52172572D01*
X161379804Y-52148773D01*
X161376204Y-52124505D01*
X161375000Y-52100001D01*
X161375000Y-51449999D01*
X161376204Y-51425495D01*
X161379804Y-51401227D01*
X161385765Y-51377428D01*
X161394030Y-51354329D01*
X161404520Y-51332150D01*
X161417132Y-51311107D01*
X161431747Y-51291401D01*
X161448223Y-51273223D01*
X161466401Y-51256747D01*
X161486107Y-51242132D01*
X161507150Y-51229520D01*
X161529329Y-51219030D01*
X161552428Y-51210765D01*
X161576227Y-51204804D01*
X161600495Y-51201204D01*
X161624999Y-51200000D01*
X162525001Y-51200000D01*
X162549505Y-51201204D01*
X162549505Y-51201204D01*
G37*
D11*
X162075000Y-51775000D03*
G04 #@! TD*
D10*
G04 #@! TO.C,R5*
G36*
X165974505Y-53276204D02*
X165998773Y-53279804D01*
X166022572Y-53285765D01*
X166045671Y-53294030D01*
X166067850Y-53304520D01*
X166088893Y-53317132D01*
X166108599Y-53331747D01*
X166126777Y-53348223D01*
X166143253Y-53366401D01*
X166157868Y-53386107D01*
X166170480Y-53407150D01*
X166180970Y-53429329D01*
X166189235Y-53452428D01*
X166195196Y-53476227D01*
X166198796Y-53500495D01*
X166200000Y-53524999D01*
X166200000Y-54175001D01*
X166198796Y-54199505D01*
X166195196Y-54223773D01*
X166189235Y-54247572D01*
X166180970Y-54270671D01*
X166170480Y-54292850D01*
X166157868Y-54313893D01*
X166143253Y-54333599D01*
X166126777Y-54351777D01*
X166108599Y-54368253D01*
X166088893Y-54382868D01*
X166067850Y-54395480D01*
X166045671Y-54405970D01*
X166022572Y-54414235D01*
X165998773Y-54420196D01*
X165974505Y-54423796D01*
X165950001Y-54425000D01*
X165049999Y-54425000D01*
X165025495Y-54423796D01*
X165001227Y-54420196D01*
X164977428Y-54414235D01*
X164954329Y-54405970D01*
X164932150Y-54395480D01*
X164911107Y-54382868D01*
X164891401Y-54368253D01*
X164873223Y-54351777D01*
X164856747Y-54333599D01*
X164842132Y-54313893D01*
X164829520Y-54292850D01*
X164819030Y-54270671D01*
X164810765Y-54247572D01*
X164804804Y-54223773D01*
X164801204Y-54199505D01*
X164800000Y-54175001D01*
X164800000Y-53524999D01*
X164801204Y-53500495D01*
X164804804Y-53476227D01*
X164810765Y-53452428D01*
X164819030Y-53429329D01*
X164829520Y-53407150D01*
X164842132Y-53386107D01*
X164856747Y-53366401D01*
X164873223Y-53348223D01*
X164891401Y-53331747D01*
X164911107Y-53317132D01*
X164932150Y-53304520D01*
X164954329Y-53294030D01*
X164977428Y-53285765D01*
X165001227Y-53279804D01*
X165025495Y-53276204D01*
X165049999Y-53275000D01*
X165950001Y-53275000D01*
X165974505Y-53276204D01*
X165974505Y-53276204D01*
G37*
D11*
X165500000Y-53850000D03*
D10*
G36*
X165974505Y-51226204D02*
X165998773Y-51229804D01*
X166022572Y-51235765D01*
X166045671Y-51244030D01*
X166067850Y-51254520D01*
X166088893Y-51267132D01*
X166108599Y-51281747D01*
X166126777Y-51298223D01*
X166143253Y-51316401D01*
X166157868Y-51336107D01*
X166170480Y-51357150D01*
X166180970Y-51379329D01*
X166189235Y-51402428D01*
X166195196Y-51426227D01*
X166198796Y-51450495D01*
X166200000Y-51474999D01*
X166200000Y-52125001D01*
X166198796Y-52149505D01*
X166195196Y-52173773D01*
X166189235Y-52197572D01*
X166180970Y-52220671D01*
X166170480Y-52242850D01*
X166157868Y-52263893D01*
X166143253Y-52283599D01*
X166126777Y-52301777D01*
X166108599Y-52318253D01*
X166088893Y-52332868D01*
X166067850Y-52345480D01*
X166045671Y-52355970D01*
X166022572Y-52364235D01*
X165998773Y-52370196D01*
X165974505Y-52373796D01*
X165950001Y-52375000D01*
X165049999Y-52375000D01*
X165025495Y-52373796D01*
X165001227Y-52370196D01*
X164977428Y-52364235D01*
X164954329Y-52355970D01*
X164932150Y-52345480D01*
X164911107Y-52332868D01*
X164891401Y-52318253D01*
X164873223Y-52301777D01*
X164856747Y-52283599D01*
X164842132Y-52263893D01*
X164829520Y-52242850D01*
X164819030Y-52220671D01*
X164810765Y-52197572D01*
X164804804Y-52173773D01*
X164801204Y-52149505D01*
X164800000Y-52125001D01*
X164800000Y-51474999D01*
X164801204Y-51450495D01*
X164804804Y-51426227D01*
X164810765Y-51402428D01*
X164819030Y-51379329D01*
X164829520Y-51357150D01*
X164842132Y-51336107D01*
X164856747Y-51316401D01*
X164873223Y-51298223D01*
X164891401Y-51281747D01*
X164911107Y-51267132D01*
X164932150Y-51254520D01*
X164954329Y-51244030D01*
X164977428Y-51235765D01*
X165001227Y-51229804D01*
X165025495Y-51226204D01*
X165049999Y-51225000D01*
X165950001Y-51225000D01*
X165974505Y-51226204D01*
X165974505Y-51226204D01*
G37*
D11*
X165500000Y-51800000D03*
G04 #@! TD*
D12*
G04 #@! TO.C,U1*
X169025000Y-43300000D03*
X169025000Y-43800000D03*
X169025000Y-44300000D03*
X169025000Y-44800000D03*
X169025000Y-45300000D03*
X169025000Y-45800000D03*
X169025000Y-46300000D03*
X169025000Y-46800000D03*
X169025000Y-47300000D03*
X169025000Y-47800000D03*
X169025000Y-48300000D03*
X169025000Y-48800000D03*
D13*
X170625000Y-50400000D03*
X171125000Y-50400000D03*
X171625000Y-50400000D03*
X172125000Y-50400000D03*
X172625000Y-50400000D03*
X173125000Y-50400000D03*
X173625000Y-50400000D03*
X174125000Y-50400000D03*
X174625000Y-50400000D03*
X175125000Y-50400000D03*
X175625000Y-50400000D03*
X176125000Y-50400000D03*
D12*
X177725000Y-48800000D03*
X177725000Y-48300000D03*
X177725000Y-47800000D03*
X177725000Y-47300000D03*
X177725000Y-46800000D03*
X177725000Y-46300000D03*
X177725000Y-45800000D03*
X177725000Y-45300000D03*
X177725000Y-44800000D03*
X177725000Y-44300000D03*
X177725000Y-43800000D03*
X177725000Y-43300000D03*
D13*
X176125000Y-41700000D03*
X175625000Y-41700000D03*
X175125000Y-41700000D03*
X174625000Y-41700000D03*
X174125000Y-41700000D03*
X173625000Y-41700000D03*
X173125000Y-41700000D03*
X172625000Y-41700000D03*
X172125000Y-41700000D03*
X171625000Y-41700000D03*
X171125000Y-41700000D03*
X170625000Y-41700000D03*
G04 #@! TD*
D10*
G04 #@! TO.C,D1*
G36*
X151474505Y-51376204D02*
X151498773Y-51379804D01*
X151522572Y-51385765D01*
X151545671Y-51394030D01*
X151567850Y-51404520D01*
X151588893Y-51417132D01*
X151608599Y-51431747D01*
X151626777Y-51448223D01*
X151643253Y-51466401D01*
X151657868Y-51486107D01*
X151670480Y-51507150D01*
X151680970Y-51529329D01*
X151689235Y-51552428D01*
X151695196Y-51576227D01*
X151698796Y-51600495D01*
X151700000Y-51624999D01*
X151700000Y-52275001D01*
X151698796Y-52299505D01*
X151695196Y-52323773D01*
X151689235Y-52347572D01*
X151680970Y-52370671D01*
X151670480Y-52392850D01*
X151657868Y-52413893D01*
X151643253Y-52433599D01*
X151626777Y-52451777D01*
X151608599Y-52468253D01*
X151588893Y-52482868D01*
X151567850Y-52495480D01*
X151545671Y-52505970D01*
X151522572Y-52514235D01*
X151498773Y-52520196D01*
X151474505Y-52523796D01*
X151450001Y-52525000D01*
X150549999Y-52525000D01*
X150525495Y-52523796D01*
X150501227Y-52520196D01*
X150477428Y-52514235D01*
X150454329Y-52505970D01*
X150432150Y-52495480D01*
X150411107Y-52482868D01*
X150391401Y-52468253D01*
X150373223Y-52451777D01*
X150356747Y-52433599D01*
X150342132Y-52413893D01*
X150329520Y-52392850D01*
X150319030Y-52370671D01*
X150310765Y-52347572D01*
X150304804Y-52323773D01*
X150301204Y-52299505D01*
X150300000Y-52275001D01*
X150300000Y-51624999D01*
X150301204Y-51600495D01*
X150304804Y-51576227D01*
X150310765Y-51552428D01*
X150319030Y-51529329D01*
X150329520Y-51507150D01*
X150342132Y-51486107D01*
X150356747Y-51466401D01*
X150373223Y-51448223D01*
X150391401Y-51431747D01*
X150411107Y-51417132D01*
X150432150Y-51404520D01*
X150454329Y-51394030D01*
X150477428Y-51385765D01*
X150501227Y-51379804D01*
X150525495Y-51376204D01*
X150549999Y-51375000D01*
X151450001Y-51375000D01*
X151474505Y-51376204D01*
X151474505Y-51376204D01*
G37*
D11*
X151000000Y-51950000D03*
D10*
G36*
X151474505Y-53426204D02*
X151498773Y-53429804D01*
X151522572Y-53435765D01*
X151545671Y-53444030D01*
X151567850Y-53454520D01*
X151588893Y-53467132D01*
X151608599Y-53481747D01*
X151626777Y-53498223D01*
X151643253Y-53516401D01*
X151657868Y-53536107D01*
X151670480Y-53557150D01*
X151680970Y-53579329D01*
X151689235Y-53602428D01*
X151695196Y-53626227D01*
X151698796Y-53650495D01*
X151700000Y-53674999D01*
X151700000Y-54325001D01*
X151698796Y-54349505D01*
X151695196Y-54373773D01*
X151689235Y-54397572D01*
X151680970Y-54420671D01*
X151670480Y-54442850D01*
X151657868Y-54463893D01*
X151643253Y-54483599D01*
X151626777Y-54501777D01*
X151608599Y-54518253D01*
X151588893Y-54532868D01*
X151567850Y-54545480D01*
X151545671Y-54555970D01*
X151522572Y-54564235D01*
X151498773Y-54570196D01*
X151474505Y-54573796D01*
X151450001Y-54575000D01*
X150549999Y-54575000D01*
X150525495Y-54573796D01*
X150501227Y-54570196D01*
X150477428Y-54564235D01*
X150454329Y-54555970D01*
X150432150Y-54545480D01*
X150411107Y-54532868D01*
X150391401Y-54518253D01*
X150373223Y-54501777D01*
X150356747Y-54483599D01*
X150342132Y-54463893D01*
X150329520Y-54442850D01*
X150319030Y-54420671D01*
X150310765Y-54397572D01*
X150304804Y-54373773D01*
X150301204Y-54349505D01*
X150300000Y-54325001D01*
X150300000Y-53674999D01*
X150301204Y-53650495D01*
X150304804Y-53626227D01*
X150310765Y-53602428D01*
X150319030Y-53579329D01*
X150329520Y-53557150D01*
X150342132Y-53536107D01*
X150356747Y-53516401D01*
X150373223Y-53498223D01*
X150391401Y-53481747D01*
X150411107Y-53467132D01*
X150432150Y-53454520D01*
X150454329Y-53444030D01*
X150477428Y-53435765D01*
X150501227Y-53429804D01*
X150525495Y-53426204D01*
X150549999Y-53425000D01*
X151450001Y-53425000D01*
X151474505Y-53426204D01*
X151474505Y-53426204D01*
G37*
D11*
X151000000Y-54000000D03*
G04 #@! TD*
D10*
G04 #@! TO.C,R10*
G36*
X148399505Y-48651204D02*
X148423773Y-48654804D01*
X148447572Y-48660765D01*
X148470671Y-48669030D01*
X148492850Y-48679520D01*
X148513893Y-48692132D01*
X148533599Y-48706747D01*
X148551777Y-48723223D01*
X148568253Y-48741401D01*
X148582868Y-48761107D01*
X148595480Y-48782150D01*
X148605970Y-48804329D01*
X148614235Y-48827428D01*
X148620196Y-48851227D01*
X148623796Y-48875495D01*
X148625000Y-48899999D01*
X148625000Y-49800001D01*
X148623796Y-49824505D01*
X148620196Y-49848773D01*
X148614235Y-49872572D01*
X148605970Y-49895671D01*
X148595480Y-49917850D01*
X148582868Y-49938893D01*
X148568253Y-49958599D01*
X148551777Y-49976777D01*
X148533599Y-49993253D01*
X148513893Y-50007868D01*
X148492850Y-50020480D01*
X148470671Y-50030970D01*
X148447572Y-50039235D01*
X148423773Y-50045196D01*
X148399505Y-50048796D01*
X148375001Y-50050000D01*
X147724999Y-50050000D01*
X147700495Y-50048796D01*
X147676227Y-50045196D01*
X147652428Y-50039235D01*
X147629329Y-50030970D01*
X147607150Y-50020480D01*
X147586107Y-50007868D01*
X147566401Y-49993253D01*
X147548223Y-49976777D01*
X147531747Y-49958599D01*
X147517132Y-49938893D01*
X147504520Y-49917850D01*
X147494030Y-49895671D01*
X147485765Y-49872572D01*
X147479804Y-49848773D01*
X147476204Y-49824505D01*
X147475000Y-49800001D01*
X147475000Y-48899999D01*
X147476204Y-48875495D01*
X147479804Y-48851227D01*
X147485765Y-48827428D01*
X147494030Y-48804329D01*
X147504520Y-48782150D01*
X147517132Y-48761107D01*
X147531747Y-48741401D01*
X147548223Y-48723223D01*
X147566401Y-48706747D01*
X147586107Y-48692132D01*
X147607150Y-48679520D01*
X147629329Y-48669030D01*
X147652428Y-48660765D01*
X147676227Y-48654804D01*
X147700495Y-48651204D01*
X147724999Y-48650000D01*
X148375001Y-48650000D01*
X148399505Y-48651204D01*
X148399505Y-48651204D01*
G37*
D11*
X148050000Y-49350000D03*
D10*
G36*
X146349505Y-48651204D02*
X146373773Y-48654804D01*
X146397572Y-48660765D01*
X146420671Y-48669030D01*
X146442850Y-48679520D01*
X146463893Y-48692132D01*
X146483599Y-48706747D01*
X146501777Y-48723223D01*
X146518253Y-48741401D01*
X146532868Y-48761107D01*
X146545480Y-48782150D01*
X146555970Y-48804329D01*
X146564235Y-48827428D01*
X146570196Y-48851227D01*
X146573796Y-48875495D01*
X146575000Y-48899999D01*
X146575000Y-49800001D01*
X146573796Y-49824505D01*
X146570196Y-49848773D01*
X146564235Y-49872572D01*
X146555970Y-49895671D01*
X146545480Y-49917850D01*
X146532868Y-49938893D01*
X146518253Y-49958599D01*
X146501777Y-49976777D01*
X146483599Y-49993253D01*
X146463893Y-50007868D01*
X146442850Y-50020480D01*
X146420671Y-50030970D01*
X146397572Y-50039235D01*
X146373773Y-50045196D01*
X146349505Y-50048796D01*
X146325001Y-50050000D01*
X145674999Y-50050000D01*
X145650495Y-50048796D01*
X145626227Y-50045196D01*
X145602428Y-50039235D01*
X145579329Y-50030970D01*
X145557150Y-50020480D01*
X145536107Y-50007868D01*
X145516401Y-49993253D01*
X145498223Y-49976777D01*
X145481747Y-49958599D01*
X145467132Y-49938893D01*
X145454520Y-49917850D01*
X145444030Y-49895671D01*
X145435765Y-49872572D01*
X145429804Y-49848773D01*
X145426204Y-49824505D01*
X145425000Y-49800001D01*
X145425000Y-48899999D01*
X145426204Y-48875495D01*
X145429804Y-48851227D01*
X145435765Y-48827428D01*
X145444030Y-48804329D01*
X145454520Y-48782150D01*
X145467132Y-48761107D01*
X145481747Y-48741401D01*
X145498223Y-48723223D01*
X145516401Y-48706747D01*
X145536107Y-48692132D01*
X145557150Y-48679520D01*
X145579329Y-48669030D01*
X145602428Y-48660765D01*
X145626227Y-48654804D01*
X145650495Y-48651204D01*
X145674999Y-48650000D01*
X146325001Y-48650000D01*
X146349505Y-48651204D01*
X146349505Y-48651204D01*
G37*
D11*
X146000000Y-49350000D03*
G04 #@! TD*
D10*
G04 #@! TO.C,R11*
G36*
X146374505Y-50851204D02*
X146398773Y-50854804D01*
X146422572Y-50860765D01*
X146445671Y-50869030D01*
X146467850Y-50879520D01*
X146488893Y-50892132D01*
X146508599Y-50906747D01*
X146526777Y-50923223D01*
X146543253Y-50941401D01*
X146557868Y-50961107D01*
X146570480Y-50982150D01*
X146580970Y-51004329D01*
X146589235Y-51027428D01*
X146595196Y-51051227D01*
X146598796Y-51075495D01*
X146600000Y-51099999D01*
X146600000Y-52000001D01*
X146598796Y-52024505D01*
X146595196Y-52048773D01*
X146589235Y-52072572D01*
X146580970Y-52095671D01*
X146570480Y-52117850D01*
X146557868Y-52138893D01*
X146543253Y-52158599D01*
X146526777Y-52176777D01*
X146508599Y-52193253D01*
X146488893Y-52207868D01*
X146467850Y-52220480D01*
X146445671Y-52230970D01*
X146422572Y-52239235D01*
X146398773Y-52245196D01*
X146374505Y-52248796D01*
X146350001Y-52250000D01*
X145699999Y-52250000D01*
X145675495Y-52248796D01*
X145651227Y-52245196D01*
X145627428Y-52239235D01*
X145604329Y-52230970D01*
X145582150Y-52220480D01*
X145561107Y-52207868D01*
X145541401Y-52193253D01*
X145523223Y-52176777D01*
X145506747Y-52158599D01*
X145492132Y-52138893D01*
X145479520Y-52117850D01*
X145469030Y-52095671D01*
X145460765Y-52072572D01*
X145454804Y-52048773D01*
X145451204Y-52024505D01*
X145450000Y-52000001D01*
X145450000Y-51099999D01*
X145451204Y-51075495D01*
X145454804Y-51051227D01*
X145460765Y-51027428D01*
X145469030Y-51004329D01*
X145479520Y-50982150D01*
X145492132Y-50961107D01*
X145506747Y-50941401D01*
X145523223Y-50923223D01*
X145541401Y-50906747D01*
X145561107Y-50892132D01*
X145582150Y-50879520D01*
X145604329Y-50869030D01*
X145627428Y-50860765D01*
X145651227Y-50854804D01*
X145675495Y-50851204D01*
X145699999Y-50850000D01*
X146350001Y-50850000D01*
X146374505Y-50851204D01*
X146374505Y-50851204D01*
G37*
D11*
X146025000Y-51550000D03*
D10*
G36*
X148424505Y-50851204D02*
X148448773Y-50854804D01*
X148472572Y-50860765D01*
X148495671Y-50869030D01*
X148517850Y-50879520D01*
X148538893Y-50892132D01*
X148558599Y-50906747D01*
X148576777Y-50923223D01*
X148593253Y-50941401D01*
X148607868Y-50961107D01*
X148620480Y-50982150D01*
X148630970Y-51004329D01*
X148639235Y-51027428D01*
X148645196Y-51051227D01*
X148648796Y-51075495D01*
X148650000Y-51099999D01*
X148650000Y-52000001D01*
X148648796Y-52024505D01*
X148645196Y-52048773D01*
X148639235Y-52072572D01*
X148630970Y-52095671D01*
X148620480Y-52117850D01*
X148607868Y-52138893D01*
X148593253Y-52158599D01*
X148576777Y-52176777D01*
X148558599Y-52193253D01*
X148538893Y-52207868D01*
X148517850Y-52220480D01*
X148495671Y-52230970D01*
X148472572Y-52239235D01*
X148448773Y-52245196D01*
X148424505Y-52248796D01*
X148400001Y-52250000D01*
X147749999Y-52250000D01*
X147725495Y-52248796D01*
X147701227Y-52245196D01*
X147677428Y-52239235D01*
X147654329Y-52230970D01*
X147632150Y-52220480D01*
X147611107Y-52207868D01*
X147591401Y-52193253D01*
X147573223Y-52176777D01*
X147556747Y-52158599D01*
X147542132Y-52138893D01*
X147529520Y-52117850D01*
X147519030Y-52095671D01*
X147510765Y-52072572D01*
X147504804Y-52048773D01*
X147501204Y-52024505D01*
X147500000Y-52000001D01*
X147500000Y-51099999D01*
X147501204Y-51075495D01*
X147504804Y-51051227D01*
X147510765Y-51027428D01*
X147519030Y-51004329D01*
X147529520Y-50982150D01*
X147542132Y-50961107D01*
X147556747Y-50941401D01*
X147573223Y-50923223D01*
X147591401Y-50906747D01*
X147611107Y-50892132D01*
X147632150Y-50879520D01*
X147654329Y-50869030D01*
X147677428Y-50860765D01*
X147701227Y-50854804D01*
X147725495Y-50851204D01*
X147749999Y-50850000D01*
X148400001Y-50850000D01*
X148424505Y-50851204D01*
X148424505Y-50851204D01*
G37*
D11*
X148075000Y-51550000D03*
G04 #@! TD*
D14*
G04 #@! TO.C,U2*
X156875001Y-51675001D03*
X156875001Y-52625001D03*
X156875001Y-53575001D03*
X159575001Y-53575001D03*
X159575001Y-51675001D03*
G04 #@! TD*
D15*
G04 #@! TO.C,Y1*
X158100000Y-42975000D03*
X158100000Y-48175000D03*
G04 #@! TD*
D16*
G04 #@! TO.C,J3*
X134850000Y-43450000D03*
X135350000Y-43450000D03*
X135850000Y-43450000D03*
X136350000Y-43450000D03*
X136850000Y-43450000D03*
X137350000Y-43450000D03*
X137850000Y-43450000D03*
X138350000Y-43450000D03*
D17*
X134150000Y-43450000D03*
X133350000Y-43450000D03*
X139050000Y-43450000D03*
X139850000Y-43450000D03*
G04 #@! TD*
M02*
