G04 #@! TF.GenerationSoftware,KiCad,Pcbnew,5.0.1*
G04 #@! TF.CreationDate,2019-02-06T13:48:55+01:00*
G04 #@! TF.ProjectId,keypad,6B65797061642E6B696361645F706362,rev?*
G04 #@! TF.SameCoordinates,Original*
G04 #@! TF.FileFunction,Soldermask,Bot*
G04 #@! TF.FilePolarity,Negative*
%FSLAX46Y46*%
G04 Gerber Fmt 4.6, Leading zero omitted, Abs format (unit mm)*
G04 Created by KiCad (PCBNEW 5.0.1) date Wed 06 Feb 2019 01:48:55 PM CET*
%MOMM*%
%LPD*%
G01*
G04 APERTURE LIST*
%ADD10C,0.100000*%
G04 APERTURE END LIST*
D10*
G36*
X180350000Y-148400000D02*
X178750000Y-148400000D01*
X178750000Y-147550000D01*
X180350000Y-147550000D01*
X180350000Y-148400000D01*
X180350000Y-148400000D01*
G37*
G36*
X176850000Y-148400000D02*
X175250000Y-148400000D01*
X175250000Y-147550000D01*
X176850000Y-147550000D01*
X176850000Y-148400000D01*
X176850000Y-148400000D01*
G37*
G36*
X116550000Y-147800000D02*
X114950000Y-147800000D01*
X114950000Y-146950000D01*
X116550000Y-146950000D01*
X116550000Y-147800000D01*
X116550000Y-147800000D01*
G37*
G36*
X113050000Y-147800000D02*
X111450000Y-147800000D01*
X111450000Y-146950000D01*
X113050000Y-146950000D01*
X113050000Y-147800000D01*
X113050000Y-147800000D01*
G37*
G36*
X149500000Y-147725000D02*
X147900000Y-147725000D01*
X147900000Y-146875000D01*
X149500000Y-146875000D01*
X149500000Y-147725000D01*
X149500000Y-147725000D01*
G37*
G36*
X146000000Y-147725000D02*
X144400000Y-147725000D01*
X144400000Y-146875000D01*
X146000000Y-146875000D01*
X146000000Y-147725000D01*
X146000000Y-147725000D01*
G37*
G36*
X176850000Y-146650000D02*
X175250000Y-146650000D01*
X175250000Y-145800000D01*
X176850000Y-145800000D01*
X176850000Y-146650000D01*
X176850000Y-146650000D01*
G37*
G36*
X180350000Y-146650000D02*
X178750000Y-146650000D01*
X178750000Y-145800000D01*
X180350000Y-145800000D01*
X180350000Y-146650000D01*
X180350000Y-146650000D01*
G37*
G36*
X113050000Y-146050000D02*
X111450000Y-146050000D01*
X111450000Y-145200000D01*
X113050000Y-145200000D01*
X113050000Y-146050000D01*
X113050000Y-146050000D01*
G37*
G36*
X116550000Y-146050000D02*
X114950000Y-146050000D01*
X114950000Y-145200000D01*
X116550000Y-145200000D01*
X116550000Y-146050000D01*
X116550000Y-146050000D01*
G37*
G36*
X149500000Y-145975000D02*
X147900000Y-145975000D01*
X147900000Y-145125000D01*
X149500000Y-145125000D01*
X149500000Y-145975000D01*
X149500000Y-145975000D01*
G37*
G36*
X146000000Y-145975000D02*
X144400000Y-145975000D01*
X144400000Y-145125000D01*
X146000000Y-145125000D01*
X146000000Y-145975000D01*
X146000000Y-145975000D01*
G37*
G36*
X167637128Y-141835609D02*
X168001104Y-141986372D01*
X168328679Y-142205251D01*
X168607249Y-142483821D01*
X168826128Y-142811396D01*
X168976891Y-143175372D01*
X169053750Y-143561766D01*
X169053750Y-143955734D01*
X168976891Y-144342128D01*
X168826128Y-144706104D01*
X168607249Y-145033679D01*
X168328679Y-145312249D01*
X168001104Y-145531128D01*
X167637128Y-145681891D01*
X167250734Y-145758750D01*
X166856766Y-145758750D01*
X166470372Y-145681891D01*
X166106396Y-145531128D01*
X165778821Y-145312249D01*
X165500251Y-145033679D01*
X165281372Y-144706104D01*
X165130609Y-144342128D01*
X165053750Y-143955734D01*
X165053750Y-143561766D01*
X165130609Y-143175372D01*
X165281372Y-142811396D01*
X165500251Y-142483821D01*
X165778821Y-142205251D01*
X166106396Y-141986372D01*
X166470372Y-141835609D01*
X166856766Y-141758750D01*
X167250734Y-141758750D01*
X167637128Y-141835609D01*
X167637128Y-141835609D01*
G37*
G36*
X182738573Y-142292354D02*
X182738575Y-142292355D01*
X182738576Y-142292355D01*
X183016108Y-142407312D01*
X183016109Y-142407313D01*
X183265884Y-142574207D01*
X183478293Y-142786616D01*
X183478295Y-142786619D01*
X183645188Y-143036392D01*
X183760145Y-143313924D01*
X183760146Y-143313927D01*
X183809444Y-143561766D01*
X183818750Y-143608551D01*
X183818750Y-143908949D01*
X183760145Y-144203576D01*
X183645188Y-144481108D01*
X183645187Y-144481109D01*
X183478293Y-144730884D01*
X183265884Y-144943293D01*
X183265881Y-144943295D01*
X183016108Y-145110188D01*
X182738576Y-145225145D01*
X182738575Y-145225145D01*
X182738573Y-145225146D01*
X182443951Y-145283750D01*
X182143549Y-145283750D01*
X181848927Y-145225146D01*
X181848925Y-145225145D01*
X181848924Y-145225145D01*
X181571392Y-145110188D01*
X181321619Y-144943295D01*
X181321616Y-144943293D01*
X181109207Y-144730884D01*
X180942313Y-144481109D01*
X180942312Y-144481108D01*
X180827355Y-144203576D01*
X180768750Y-143908949D01*
X180768750Y-143608551D01*
X180778056Y-143561766D01*
X180827354Y-143313927D01*
X180827355Y-143313924D01*
X180942312Y-143036392D01*
X181109205Y-142786619D01*
X181109207Y-142786616D01*
X181321616Y-142574207D01*
X181571391Y-142407313D01*
X181571392Y-142407312D01*
X181848924Y-142292355D01*
X181848925Y-142292355D01*
X181848927Y-142292354D01*
X182143549Y-142233750D01*
X182443951Y-142233750D01*
X182738573Y-142292354D01*
X182738573Y-142292354D01*
G37*
G36*
X118725128Y-139459609D02*
X119089104Y-139610372D01*
X119416679Y-139829251D01*
X119695249Y-140107821D01*
X119914128Y-140435396D01*
X120064891Y-140799372D01*
X120141750Y-141185766D01*
X120141750Y-141579734D01*
X120064891Y-141966128D01*
X119914128Y-142330104D01*
X119695249Y-142657679D01*
X119416679Y-142936249D01*
X119089104Y-143155128D01*
X118725128Y-143305891D01*
X118338734Y-143382750D01*
X117944766Y-143382750D01*
X117558372Y-143305891D01*
X117194396Y-143155128D01*
X116866821Y-142936249D01*
X116588251Y-142657679D01*
X116369372Y-142330104D01*
X116218609Y-141966128D01*
X116141750Y-141579734D01*
X116141750Y-141185766D01*
X116218609Y-140799372D01*
X116369372Y-140435396D01*
X116588251Y-140107821D01*
X116866821Y-139829251D01*
X117194396Y-139610372D01*
X117558372Y-139459609D01*
X117944766Y-139382750D01*
X118338734Y-139382750D01*
X118725128Y-139459609D01*
X118725128Y-139459609D01*
G37*
G36*
X156825128Y-139459609D02*
X157189104Y-139610372D01*
X157516679Y-139829251D01*
X157795249Y-140107821D01*
X158014128Y-140435396D01*
X158164891Y-140799372D01*
X158241750Y-141185766D01*
X158241750Y-141579734D01*
X158164891Y-141966128D01*
X158014128Y-142330104D01*
X157795249Y-142657679D01*
X157516679Y-142936249D01*
X157189104Y-143155128D01*
X156825128Y-143305891D01*
X156438734Y-143382750D01*
X156044766Y-143382750D01*
X155658372Y-143305891D01*
X155294396Y-143155128D01*
X154966821Y-142936249D01*
X154688251Y-142657679D01*
X154469372Y-142330104D01*
X154318609Y-141966128D01*
X154241750Y-141579734D01*
X154241750Y-141185766D01*
X154318609Y-140799372D01*
X154469372Y-140435396D01*
X154688251Y-140107821D01*
X154966821Y-139829251D01*
X155294396Y-139610372D01*
X155658372Y-139459609D01*
X156044766Y-139382750D01*
X156438734Y-139382750D01*
X156825128Y-139459609D01*
X156825128Y-139459609D01*
G37*
G36*
X137775128Y-139459609D02*
X138139104Y-139610372D01*
X138466679Y-139829251D01*
X138745249Y-140107821D01*
X138964128Y-140435396D01*
X139114891Y-140799372D01*
X139191750Y-141185766D01*
X139191750Y-141579734D01*
X139114891Y-141966128D01*
X138964128Y-142330104D01*
X138745249Y-142657679D01*
X138466679Y-142936249D01*
X138139104Y-143155128D01*
X137775128Y-143305891D01*
X137388734Y-143382750D01*
X136994766Y-143382750D01*
X136608372Y-143305891D01*
X136244396Y-143155128D01*
X135916821Y-142936249D01*
X135638251Y-142657679D01*
X135419372Y-142330104D01*
X135268609Y-141966128D01*
X135191750Y-141579734D01*
X135191750Y-141185766D01*
X135268609Y-140799372D01*
X135419372Y-140435396D01*
X135638251Y-140107821D01*
X135916821Y-139829251D01*
X136244396Y-139610372D01*
X136608372Y-139459609D01*
X136994766Y-139382750D01*
X137388734Y-139382750D01*
X137775128Y-139459609D01*
X137775128Y-139459609D01*
G37*
G36*
X133702607Y-137785022D02*
X133902792Y-137867941D01*
X134082963Y-137988328D01*
X134236172Y-138141537D01*
X134356559Y-138321708D01*
X134439478Y-138521893D01*
X134481750Y-138734408D01*
X134481750Y-138951092D01*
X134439478Y-139163607D01*
X134356559Y-139363792D01*
X134236172Y-139543963D01*
X134082963Y-139697172D01*
X133902792Y-139817559D01*
X133702607Y-139900478D01*
X133490092Y-139942750D01*
X133273408Y-139942750D01*
X133060893Y-139900478D01*
X132860708Y-139817559D01*
X132680537Y-139697172D01*
X132527328Y-139543963D01*
X132406941Y-139363792D01*
X132324022Y-139163607D01*
X132281750Y-138951092D01*
X132281750Y-138734408D01*
X132324022Y-138521893D01*
X132406941Y-138321708D01*
X132527328Y-138141537D01*
X132680537Y-137988328D01*
X132860708Y-137867941D01*
X133060893Y-137785022D01*
X133273408Y-137742750D01*
X133490092Y-137742750D01*
X133702607Y-137785022D01*
X133702607Y-137785022D01*
G37*
G36*
X114652607Y-137785022D02*
X114852792Y-137867941D01*
X115032963Y-137988328D01*
X115186172Y-138141537D01*
X115306559Y-138321708D01*
X115389478Y-138521893D01*
X115431750Y-138734408D01*
X115431750Y-138951092D01*
X115389478Y-139163607D01*
X115306559Y-139363792D01*
X115186172Y-139543963D01*
X115032963Y-139697172D01*
X114852792Y-139817559D01*
X114652607Y-139900478D01*
X114440092Y-139942750D01*
X114223408Y-139942750D01*
X114010893Y-139900478D01*
X113810708Y-139817559D01*
X113630537Y-139697172D01*
X113477328Y-139543963D01*
X113356941Y-139363792D01*
X113274022Y-139163607D01*
X113231750Y-138951092D01*
X113231750Y-138734408D01*
X113274022Y-138521893D01*
X113356941Y-138321708D01*
X113477328Y-138141537D01*
X113630537Y-137988328D01*
X113810708Y-137867941D01*
X114010893Y-137785022D01*
X114223408Y-137742750D01*
X114440092Y-137742750D01*
X114652607Y-137785022D01*
X114652607Y-137785022D01*
G37*
G36*
X152752607Y-137785022D02*
X152952792Y-137867941D01*
X153132963Y-137988328D01*
X153286172Y-138141537D01*
X153406559Y-138321708D01*
X153489478Y-138521893D01*
X153531750Y-138734408D01*
X153531750Y-138951092D01*
X153489478Y-139163607D01*
X153406559Y-139363792D01*
X153286172Y-139543963D01*
X153132963Y-139697172D01*
X152952792Y-139817559D01*
X152752607Y-139900478D01*
X152540092Y-139942750D01*
X152323408Y-139942750D01*
X152110893Y-139900478D01*
X151910708Y-139817559D01*
X151730537Y-139697172D01*
X151577328Y-139543963D01*
X151456941Y-139363792D01*
X151374022Y-139163607D01*
X151331750Y-138951092D01*
X151331750Y-138734408D01*
X151374022Y-138521893D01*
X151456941Y-138321708D01*
X151577328Y-138141537D01*
X151730537Y-137988328D01*
X151910708Y-137867941D01*
X152110893Y-137785022D01*
X152323408Y-137742750D01*
X152540092Y-137742750D01*
X152752607Y-137785022D01*
X152752607Y-137785022D01*
G37*
G36*
X175541684Y-136121414D02*
X175696377Y-136185490D01*
X175835597Y-136278514D01*
X175953986Y-136396903D01*
X176047010Y-136536123D01*
X176111086Y-136690816D01*
X176143750Y-136855031D01*
X176143750Y-137022469D01*
X176111086Y-137186684D01*
X176047010Y-137341377D01*
X175953986Y-137480597D01*
X175835597Y-137598986D01*
X175696377Y-137692010D01*
X175541684Y-137756086D01*
X175377469Y-137788750D01*
X175210031Y-137788750D01*
X175045816Y-137756086D01*
X174891123Y-137692010D01*
X174751903Y-137598986D01*
X174633514Y-137480597D01*
X174540490Y-137341377D01*
X174476414Y-137186684D01*
X174443750Y-137022469D01*
X174443750Y-136855031D01*
X174476414Y-136690816D01*
X174540490Y-136536123D01*
X174633514Y-136396903D01*
X174751903Y-136278514D01*
X174891123Y-136185490D01*
X175045816Y-136121414D01*
X175210031Y-136088750D01*
X175377469Y-136088750D01*
X175541684Y-136121414D01*
X175541684Y-136121414D01*
G37*
G36*
X121002607Y-135245022D02*
X121202792Y-135327941D01*
X121382963Y-135448328D01*
X121536172Y-135601537D01*
X121656559Y-135781708D01*
X121739478Y-135981893D01*
X121781750Y-136194408D01*
X121781750Y-136411092D01*
X121739478Y-136623607D01*
X121656559Y-136823792D01*
X121536172Y-137003963D01*
X121382963Y-137157172D01*
X121382960Y-137157174D01*
X121382959Y-137157175D01*
X121202795Y-137277557D01*
X121202792Y-137277559D01*
X121002607Y-137360478D01*
X120790092Y-137402750D01*
X120573408Y-137402750D01*
X120360893Y-137360478D01*
X120160708Y-137277559D01*
X120160705Y-137277557D01*
X119980541Y-137157175D01*
X119980540Y-137157174D01*
X119980537Y-137157172D01*
X119827328Y-137003963D01*
X119706941Y-136823792D01*
X119624022Y-136623607D01*
X119581750Y-136411092D01*
X119581750Y-136194408D01*
X119624022Y-135981893D01*
X119706941Y-135781708D01*
X119827328Y-135601537D01*
X119980537Y-135448328D01*
X120160708Y-135327941D01*
X120360893Y-135245022D01*
X120573408Y-135202750D01*
X120790092Y-135202750D01*
X121002607Y-135245022D01*
X121002607Y-135245022D01*
G37*
G36*
X140052607Y-135245022D02*
X140252792Y-135327941D01*
X140432963Y-135448328D01*
X140586172Y-135601537D01*
X140706559Y-135781708D01*
X140789478Y-135981893D01*
X140831750Y-136194408D01*
X140831750Y-136411092D01*
X140789478Y-136623607D01*
X140706559Y-136823792D01*
X140586172Y-137003963D01*
X140432963Y-137157172D01*
X140432960Y-137157174D01*
X140432959Y-137157175D01*
X140252795Y-137277557D01*
X140252792Y-137277559D01*
X140052607Y-137360478D01*
X139840092Y-137402750D01*
X139623408Y-137402750D01*
X139410893Y-137360478D01*
X139210708Y-137277559D01*
X139210705Y-137277557D01*
X139030541Y-137157175D01*
X139030540Y-137157174D01*
X139030537Y-137157172D01*
X138877328Y-137003963D01*
X138756941Y-136823792D01*
X138674022Y-136623607D01*
X138631750Y-136411092D01*
X138631750Y-136194408D01*
X138674022Y-135981893D01*
X138756941Y-135781708D01*
X138877328Y-135601537D01*
X139030537Y-135448328D01*
X139210708Y-135327941D01*
X139410893Y-135245022D01*
X139623408Y-135202750D01*
X139840092Y-135202750D01*
X140052607Y-135245022D01*
X140052607Y-135245022D01*
G37*
G36*
X159102607Y-135245022D02*
X159302792Y-135327941D01*
X159482963Y-135448328D01*
X159636172Y-135601537D01*
X159756559Y-135781708D01*
X159839478Y-135981893D01*
X159881750Y-136194408D01*
X159881750Y-136411092D01*
X159839478Y-136623607D01*
X159756559Y-136823792D01*
X159636172Y-137003963D01*
X159482963Y-137157172D01*
X159482960Y-137157174D01*
X159482959Y-137157175D01*
X159302795Y-137277557D01*
X159302792Y-137277559D01*
X159102607Y-137360478D01*
X158890092Y-137402750D01*
X158673408Y-137402750D01*
X158460893Y-137360478D01*
X158260708Y-137277559D01*
X158260705Y-137277557D01*
X158080541Y-137157175D01*
X158080540Y-137157174D01*
X158080537Y-137157172D01*
X157927328Y-137003963D01*
X157806941Y-136823792D01*
X157724022Y-136623607D01*
X157681750Y-136411092D01*
X157681750Y-136194408D01*
X157724022Y-135981893D01*
X157806941Y-135781708D01*
X157927328Y-135601537D01*
X158080537Y-135448328D01*
X158260708Y-135327941D01*
X158460893Y-135245022D01*
X158673408Y-135202750D01*
X158890092Y-135202750D01*
X159102607Y-135245022D01*
X159102607Y-135245022D01*
G37*
G36*
X180694607Y-133341022D02*
X180894792Y-133423941D01*
X181074963Y-133544328D01*
X181228172Y-133697537D01*
X181348559Y-133877708D01*
X181431478Y-134077893D01*
X181473750Y-134290408D01*
X181473750Y-134507092D01*
X181431478Y-134719607D01*
X181348559Y-134919792D01*
X181228172Y-135099963D01*
X181074963Y-135253172D01*
X180894792Y-135373559D01*
X180694607Y-135456478D01*
X180482092Y-135498750D01*
X180265408Y-135498750D01*
X180052893Y-135456478D01*
X179852708Y-135373559D01*
X179672537Y-135253172D01*
X179519328Y-135099963D01*
X179398941Y-134919792D01*
X179316022Y-134719607D01*
X179273750Y-134507092D01*
X179273750Y-134290408D01*
X179316022Y-134077893D01*
X179398941Y-133877708D01*
X179519328Y-133697537D01*
X179672537Y-133544328D01*
X179852708Y-133423941D01*
X180052893Y-133341022D01*
X180265408Y-133298750D01*
X180482092Y-133298750D01*
X180694607Y-133341022D01*
X180694607Y-133341022D01*
G37*
G36*
X175877128Y-129935609D02*
X176241104Y-130086372D01*
X176568679Y-130305251D01*
X176847249Y-130583821D01*
X177066128Y-130911396D01*
X177216891Y-131275372D01*
X177293750Y-131661766D01*
X177293750Y-132055734D01*
X177216891Y-132442128D01*
X177066128Y-132806104D01*
X176847249Y-133133679D01*
X176568679Y-133412249D01*
X176241104Y-133631128D01*
X175877128Y-133781891D01*
X175490734Y-133858750D01*
X175096766Y-133858750D01*
X174710372Y-133781891D01*
X174346396Y-133631128D01*
X174018821Y-133412249D01*
X173740251Y-133133679D01*
X173521372Y-132806104D01*
X173370609Y-132442128D01*
X173293750Y-132055734D01*
X173293750Y-131661766D01*
X173370609Y-131275372D01*
X173521372Y-130911396D01*
X173740251Y-130583821D01*
X174018821Y-130305251D01*
X174346396Y-130086372D01*
X174710372Y-129935609D01*
X175096766Y-129858750D01*
X175490734Y-129858750D01*
X175877128Y-129935609D01*
X175877128Y-129935609D01*
G37*
G36*
X128020857Y-130742272D02*
X128221042Y-130825191D01*
X128221045Y-130825193D01*
X128350057Y-130911396D01*
X128401213Y-130945578D01*
X128554422Y-131098787D01*
X128554424Y-131098790D01*
X128554425Y-131098791D01*
X128604159Y-131173223D01*
X128674809Y-131278958D01*
X128757728Y-131479143D01*
X128800000Y-131691658D01*
X128800000Y-131908342D01*
X128757728Y-132120857D01*
X128674809Y-132321042D01*
X128674807Y-132321045D01*
X128557932Y-132495961D01*
X128554422Y-132501213D01*
X128401213Y-132654422D01*
X128221042Y-132774809D01*
X128020857Y-132857728D01*
X127808342Y-132900000D01*
X127591658Y-132900000D01*
X127379143Y-132857728D01*
X127178958Y-132774809D01*
X126998787Y-132654422D01*
X126845578Y-132501213D01*
X126842069Y-132495961D01*
X126725193Y-132321045D01*
X126725191Y-132321042D01*
X126642272Y-132120857D01*
X126600000Y-131908342D01*
X126600000Y-131691658D01*
X126642272Y-131479143D01*
X126725191Y-131278958D01*
X126795841Y-131173223D01*
X126845575Y-131098791D01*
X126845576Y-131098790D01*
X126845578Y-131098787D01*
X126998787Y-130945578D01*
X127049944Y-130911396D01*
X127178955Y-130825193D01*
X127178958Y-130825191D01*
X127379143Y-130742272D01*
X127591658Y-130700000D01*
X127808342Y-130700000D01*
X128020857Y-130742272D01*
X128020857Y-130742272D01*
G37*
G36*
X140033022Y-131104039D02*
X140066553Y-131114211D01*
X140097460Y-131130731D01*
X140124543Y-131152957D01*
X140146769Y-131180040D01*
X140163289Y-131210947D01*
X140173461Y-131244478D01*
X140177500Y-131285487D01*
X140177500Y-132314513D01*
X140173461Y-132355522D01*
X140163289Y-132389053D01*
X140146769Y-132419960D01*
X140124543Y-132447043D01*
X140097460Y-132469269D01*
X140066553Y-132485789D01*
X140033022Y-132495961D01*
X139992013Y-132500000D01*
X139212987Y-132500000D01*
X139171978Y-132495961D01*
X139138447Y-132485789D01*
X139107540Y-132469269D01*
X139080457Y-132447043D01*
X139058231Y-132419960D01*
X139041711Y-132389053D01*
X139031539Y-132355522D01*
X139027500Y-132314513D01*
X139027500Y-131285487D01*
X139031539Y-131244478D01*
X139041711Y-131210947D01*
X139058231Y-131180040D01*
X139080457Y-131152957D01*
X139107540Y-131130731D01*
X139138447Y-131114211D01*
X139171978Y-131104039D01*
X139212987Y-131100000D01*
X139992013Y-131100000D01*
X140033022Y-131104039D01*
X140033022Y-131104039D01*
G37*
G36*
X161110522Y-131104039D02*
X161144053Y-131114211D01*
X161174960Y-131130731D01*
X161202043Y-131152957D01*
X161224269Y-131180040D01*
X161240789Y-131210947D01*
X161250961Y-131244478D01*
X161255000Y-131285487D01*
X161255000Y-132314513D01*
X161250961Y-132355522D01*
X161240789Y-132389053D01*
X161224269Y-132419960D01*
X161202043Y-132447043D01*
X161174960Y-132469269D01*
X161144053Y-132485789D01*
X161110522Y-132495961D01*
X161069513Y-132500000D01*
X160290487Y-132500000D01*
X160249478Y-132495961D01*
X160215947Y-132485789D01*
X160185040Y-132469269D01*
X160157957Y-132447043D01*
X160135731Y-132419960D01*
X160119211Y-132389053D01*
X160109039Y-132355522D01*
X160105000Y-132314513D01*
X160105000Y-131285487D01*
X160109039Y-131244478D01*
X160119211Y-131210947D01*
X160135731Y-131180040D01*
X160157957Y-131152957D01*
X160185040Y-131130731D01*
X160215947Y-131114211D01*
X160249478Y-131104039D01*
X160290487Y-131100000D01*
X161069513Y-131100000D01*
X161110522Y-131104039D01*
X161110522Y-131104039D01*
G37*
G36*
X159060522Y-131104039D02*
X159094053Y-131114211D01*
X159124960Y-131130731D01*
X159152043Y-131152957D01*
X159174269Y-131180040D01*
X159190789Y-131210947D01*
X159200961Y-131244478D01*
X159205000Y-131285487D01*
X159205000Y-132314513D01*
X159200961Y-132355522D01*
X159190789Y-132389053D01*
X159174269Y-132419960D01*
X159152043Y-132447043D01*
X159124960Y-132469269D01*
X159094053Y-132485789D01*
X159060522Y-132495961D01*
X159019513Y-132500000D01*
X158240487Y-132500000D01*
X158199478Y-132495961D01*
X158165947Y-132485789D01*
X158135040Y-132469269D01*
X158107957Y-132447043D01*
X158085731Y-132419960D01*
X158069211Y-132389053D01*
X158059039Y-132355522D01*
X158055000Y-132314513D01*
X158055000Y-131285487D01*
X158059039Y-131244478D01*
X158069211Y-131210947D01*
X158085731Y-131180040D01*
X158107957Y-131152957D01*
X158135040Y-131130731D01*
X158165947Y-131114211D01*
X158199478Y-131104039D01*
X158240487Y-131100000D01*
X159019513Y-131100000D01*
X159060522Y-131104039D01*
X159060522Y-131104039D01*
G37*
G36*
X121005522Y-131104039D02*
X121039053Y-131114211D01*
X121069960Y-131130731D01*
X121097043Y-131152957D01*
X121119269Y-131180040D01*
X121135789Y-131210947D01*
X121145961Y-131244478D01*
X121150000Y-131285487D01*
X121150000Y-132314513D01*
X121145961Y-132355522D01*
X121135789Y-132389053D01*
X121119269Y-132419960D01*
X121097043Y-132447043D01*
X121069960Y-132469269D01*
X121039053Y-132485789D01*
X121005522Y-132495961D01*
X120964513Y-132500000D01*
X120185487Y-132500000D01*
X120144478Y-132495961D01*
X120110947Y-132485789D01*
X120080040Y-132469269D01*
X120052957Y-132447043D01*
X120030731Y-132419960D01*
X120014211Y-132389053D01*
X120004039Y-132355522D01*
X120000000Y-132314513D01*
X120000000Y-131285487D01*
X120004039Y-131244478D01*
X120014211Y-131210947D01*
X120030731Y-131180040D01*
X120052957Y-131152957D01*
X120080040Y-131130731D01*
X120110947Y-131114211D01*
X120144478Y-131104039D01*
X120185487Y-131100000D01*
X120964513Y-131100000D01*
X121005522Y-131104039D01*
X121005522Y-131104039D01*
G37*
G36*
X123055522Y-131104039D02*
X123089053Y-131114211D01*
X123119960Y-131130731D01*
X123147043Y-131152957D01*
X123169269Y-131180040D01*
X123185789Y-131210947D01*
X123195961Y-131244478D01*
X123200000Y-131285487D01*
X123200000Y-132314513D01*
X123195961Y-132355522D01*
X123185789Y-132389053D01*
X123169269Y-132419960D01*
X123147043Y-132447043D01*
X123119960Y-132469269D01*
X123089053Y-132485789D01*
X123055522Y-132495961D01*
X123014513Y-132500000D01*
X122235487Y-132500000D01*
X122194478Y-132495961D01*
X122160947Y-132485789D01*
X122130040Y-132469269D01*
X122102957Y-132447043D01*
X122080731Y-132419960D01*
X122064211Y-132389053D01*
X122054039Y-132355522D01*
X122050000Y-132314513D01*
X122050000Y-131285487D01*
X122054039Y-131244478D01*
X122064211Y-131210947D01*
X122080731Y-131180040D01*
X122102957Y-131152957D01*
X122130040Y-131130731D01*
X122160947Y-131114211D01*
X122194478Y-131104039D01*
X122235487Y-131100000D01*
X123014513Y-131100000D01*
X123055522Y-131104039D01*
X123055522Y-131104039D01*
G37*
G36*
X142083022Y-131104039D02*
X142116553Y-131114211D01*
X142147460Y-131130731D01*
X142174543Y-131152957D01*
X142196769Y-131180040D01*
X142213289Y-131210947D01*
X142223461Y-131244478D01*
X142227500Y-131285487D01*
X142227500Y-132314513D01*
X142223461Y-132355522D01*
X142213289Y-132389053D01*
X142196769Y-132419960D01*
X142174543Y-132447043D01*
X142147460Y-132469269D01*
X142116553Y-132485789D01*
X142083022Y-132495961D01*
X142042013Y-132500000D01*
X141262987Y-132500000D01*
X141221978Y-132495961D01*
X141188447Y-132485789D01*
X141157540Y-132469269D01*
X141130457Y-132447043D01*
X141108231Y-132419960D01*
X141091711Y-132389053D01*
X141081539Y-132355522D01*
X141077500Y-132314513D01*
X141077500Y-131285487D01*
X141081539Y-131244478D01*
X141091711Y-131210947D01*
X141108231Y-131180040D01*
X141130457Y-131152957D01*
X141157540Y-131130731D01*
X141188447Y-131114211D01*
X141221978Y-131104039D01*
X141262987Y-131100000D01*
X142042013Y-131100000D01*
X142083022Y-131104039D01*
X142083022Y-131104039D01*
G37*
G36*
X178154607Y-126991022D02*
X178354792Y-127073941D01*
X178534963Y-127194328D01*
X178688172Y-127347537D01*
X178808559Y-127527708D01*
X178891478Y-127727893D01*
X178933750Y-127940408D01*
X178933750Y-128157092D01*
X178891478Y-128369607D01*
X178808559Y-128569792D01*
X178688172Y-128749963D01*
X178534963Y-128903172D01*
X178354792Y-129023559D01*
X178154607Y-129106478D01*
X177942092Y-129148750D01*
X177725408Y-129148750D01*
X177512893Y-129106478D01*
X177312708Y-129023559D01*
X177132537Y-128903172D01*
X176979328Y-128749963D01*
X176858941Y-128569792D01*
X176776022Y-128369607D01*
X176733750Y-128157092D01*
X176733750Y-127940408D01*
X176776022Y-127727893D01*
X176858941Y-127527708D01*
X176979328Y-127347537D01*
X177132537Y-127194328D01*
X177312708Y-127073941D01*
X177512893Y-126991022D01*
X177725408Y-126948750D01*
X177942092Y-126948750D01*
X178154607Y-126991022D01*
X178154607Y-126991022D01*
G37*
G36*
X175541684Y-125961414D02*
X175696377Y-126025490D01*
X175835597Y-126118514D01*
X175953986Y-126236903D01*
X176047010Y-126376123D01*
X176111086Y-126530816D01*
X176143750Y-126695031D01*
X176143750Y-126862469D01*
X176111086Y-127026684D01*
X176047010Y-127181377D01*
X175953986Y-127320597D01*
X175835597Y-127438986D01*
X175696377Y-127532010D01*
X175541684Y-127596086D01*
X175377469Y-127628750D01*
X175210031Y-127628750D01*
X175045816Y-127596086D01*
X174891123Y-127532010D01*
X174751903Y-127438986D01*
X174633514Y-127320597D01*
X174540490Y-127181377D01*
X174476414Y-127026684D01*
X174443750Y-126862469D01*
X174443750Y-126695031D01*
X174476414Y-126530816D01*
X174540490Y-126376123D01*
X174633514Y-126236903D01*
X174751903Y-126118514D01*
X174891123Y-126025490D01*
X175045816Y-125961414D01*
X175210031Y-125928750D01*
X175377469Y-125928750D01*
X175541684Y-125961414D01*
X175541684Y-125961414D01*
G37*
G36*
X156825128Y-120409609D02*
X157189104Y-120560372D01*
X157516679Y-120779251D01*
X157795249Y-121057821D01*
X158014128Y-121385396D01*
X158164891Y-121749372D01*
X158241750Y-122135766D01*
X158241750Y-122529734D01*
X158164891Y-122916128D01*
X158014128Y-123280104D01*
X157795249Y-123607679D01*
X157516679Y-123886249D01*
X157189104Y-124105128D01*
X156825128Y-124255891D01*
X156438734Y-124332750D01*
X156044766Y-124332750D01*
X155658372Y-124255891D01*
X155294396Y-124105128D01*
X154966821Y-123886249D01*
X154688251Y-123607679D01*
X154469372Y-123280104D01*
X154318609Y-122916128D01*
X154241750Y-122529734D01*
X154241750Y-122135766D01*
X154318609Y-121749372D01*
X154469372Y-121385396D01*
X154688251Y-121057821D01*
X154966821Y-120779251D01*
X155294396Y-120560372D01*
X155658372Y-120409609D01*
X156044766Y-120332750D01*
X156438734Y-120332750D01*
X156825128Y-120409609D01*
X156825128Y-120409609D01*
G37*
G36*
X137775128Y-120409609D02*
X138139104Y-120560372D01*
X138466679Y-120779251D01*
X138745249Y-121057821D01*
X138964128Y-121385396D01*
X139114891Y-121749372D01*
X139191750Y-122135766D01*
X139191750Y-122529734D01*
X139114891Y-122916128D01*
X138964128Y-123280104D01*
X138745249Y-123607679D01*
X138466679Y-123886249D01*
X138139104Y-124105128D01*
X137775128Y-124255891D01*
X137388734Y-124332750D01*
X136994766Y-124332750D01*
X136608372Y-124255891D01*
X136244396Y-124105128D01*
X135916821Y-123886249D01*
X135638251Y-123607679D01*
X135419372Y-123280104D01*
X135268609Y-122916128D01*
X135191750Y-122529734D01*
X135191750Y-122135766D01*
X135268609Y-121749372D01*
X135419372Y-121385396D01*
X135638251Y-121057821D01*
X135916821Y-120779251D01*
X136244396Y-120560372D01*
X136608372Y-120409609D01*
X136994766Y-120332750D01*
X137388734Y-120332750D01*
X137775128Y-120409609D01*
X137775128Y-120409609D01*
G37*
G36*
X118725128Y-120409609D02*
X119089104Y-120560372D01*
X119416679Y-120779251D01*
X119695249Y-121057821D01*
X119914128Y-121385396D01*
X120064891Y-121749372D01*
X120141750Y-122135766D01*
X120141750Y-122529734D01*
X120064891Y-122916128D01*
X119914128Y-123280104D01*
X119695249Y-123607679D01*
X119416679Y-123886249D01*
X119089104Y-124105128D01*
X118725128Y-124255891D01*
X118338734Y-124332750D01*
X117944766Y-124332750D01*
X117558372Y-124255891D01*
X117194396Y-124105128D01*
X116866821Y-123886249D01*
X116588251Y-123607679D01*
X116369372Y-123280104D01*
X116218609Y-122916128D01*
X116141750Y-122529734D01*
X116141750Y-122135766D01*
X116218609Y-121749372D01*
X116369372Y-121385396D01*
X116588251Y-121057821D01*
X116866821Y-120779251D01*
X117194396Y-120560372D01*
X117558372Y-120409609D01*
X117944766Y-120332750D01*
X118338734Y-120332750D01*
X118725128Y-120409609D01*
X118725128Y-120409609D01*
G37*
G36*
X167637128Y-118035609D02*
X168001104Y-118186372D01*
X168328679Y-118405251D01*
X168607249Y-118683821D01*
X168826128Y-119011396D01*
X168976891Y-119375372D01*
X169053750Y-119761766D01*
X169053750Y-120155734D01*
X168976891Y-120542128D01*
X168826128Y-120906104D01*
X168607249Y-121233679D01*
X168328679Y-121512249D01*
X168001104Y-121731128D01*
X167637128Y-121881891D01*
X167250734Y-121958750D01*
X166856766Y-121958750D01*
X166470372Y-121881891D01*
X166106396Y-121731128D01*
X165778821Y-121512249D01*
X165500251Y-121233679D01*
X165281372Y-120906104D01*
X165130609Y-120542128D01*
X165053750Y-120155734D01*
X165053750Y-119761766D01*
X165130609Y-119375372D01*
X165281372Y-119011396D01*
X165500251Y-118683821D01*
X165778821Y-118405251D01*
X166106396Y-118186372D01*
X166470372Y-118035609D01*
X166856766Y-117958750D01*
X167250734Y-117958750D01*
X167637128Y-118035609D01*
X167637128Y-118035609D01*
G37*
G36*
X182738573Y-118492354D02*
X182738575Y-118492355D01*
X182738576Y-118492355D01*
X183016108Y-118607312D01*
X183207241Y-118735023D01*
X183265884Y-118774207D01*
X183478293Y-118986616D01*
X183478295Y-118986619D01*
X183645188Y-119236392D01*
X183659815Y-119271705D01*
X183760146Y-119513927D01*
X183818750Y-119808549D01*
X183818750Y-120108951D01*
X183774234Y-120332750D01*
X183760145Y-120403576D01*
X183645188Y-120681108D01*
X183503773Y-120892750D01*
X183478293Y-120930884D01*
X183265884Y-121143293D01*
X183265881Y-121143295D01*
X183016108Y-121310188D01*
X182738576Y-121425145D01*
X182738575Y-121425145D01*
X182738573Y-121425146D01*
X182443951Y-121483750D01*
X182143549Y-121483750D01*
X181848927Y-121425146D01*
X181848925Y-121425145D01*
X181848924Y-121425145D01*
X181571392Y-121310188D01*
X181321619Y-121143295D01*
X181321616Y-121143293D01*
X181109207Y-120930884D01*
X181083727Y-120892750D01*
X180942312Y-120681108D01*
X180827355Y-120403576D01*
X180813267Y-120332750D01*
X180768750Y-120108951D01*
X180768750Y-119808549D01*
X180827354Y-119513927D01*
X180927685Y-119271705D01*
X180942312Y-119236392D01*
X181109205Y-118986619D01*
X181109207Y-118986616D01*
X181321616Y-118774207D01*
X181380259Y-118735023D01*
X181571392Y-118607312D01*
X181848924Y-118492355D01*
X181848925Y-118492355D01*
X181848927Y-118492354D01*
X182143549Y-118433750D01*
X182443951Y-118433750D01*
X182738573Y-118492354D01*
X182738573Y-118492354D01*
G37*
G36*
X133702607Y-118735022D02*
X133902792Y-118817941D01*
X134082963Y-118938328D01*
X134236172Y-119091537D01*
X134236174Y-119091540D01*
X134236175Y-119091541D01*
X134356557Y-119271705D01*
X134356559Y-119271708D01*
X134439478Y-119471893D01*
X134481750Y-119684408D01*
X134481750Y-119901092D01*
X134439478Y-120113607D01*
X134356559Y-120313792D01*
X134236172Y-120493963D01*
X134082963Y-120647172D01*
X134082960Y-120647174D01*
X134082959Y-120647175D01*
X134032173Y-120681109D01*
X133902792Y-120767559D01*
X133702607Y-120850478D01*
X133490092Y-120892750D01*
X133273408Y-120892750D01*
X133060893Y-120850478D01*
X132860708Y-120767559D01*
X132731327Y-120681109D01*
X132680541Y-120647175D01*
X132680540Y-120647174D01*
X132680537Y-120647172D01*
X132527328Y-120493963D01*
X132406941Y-120313792D01*
X132324022Y-120113607D01*
X132281750Y-119901092D01*
X132281750Y-119684408D01*
X132324022Y-119471893D01*
X132406941Y-119271708D01*
X132406943Y-119271705D01*
X132527325Y-119091541D01*
X132527326Y-119091540D01*
X132527328Y-119091537D01*
X132680537Y-118938328D01*
X132860708Y-118817941D01*
X133060893Y-118735022D01*
X133273408Y-118692750D01*
X133490092Y-118692750D01*
X133702607Y-118735022D01*
X133702607Y-118735022D01*
G37*
G36*
X114652607Y-118735022D02*
X114852792Y-118817941D01*
X115032963Y-118938328D01*
X115186172Y-119091537D01*
X115186174Y-119091540D01*
X115186175Y-119091541D01*
X115306557Y-119271705D01*
X115306559Y-119271708D01*
X115389478Y-119471893D01*
X115431750Y-119684408D01*
X115431750Y-119901092D01*
X115389478Y-120113607D01*
X115306559Y-120313792D01*
X115186172Y-120493963D01*
X115032963Y-120647172D01*
X115032960Y-120647174D01*
X115032959Y-120647175D01*
X114982173Y-120681109D01*
X114852792Y-120767559D01*
X114652607Y-120850478D01*
X114440092Y-120892750D01*
X114223408Y-120892750D01*
X114010893Y-120850478D01*
X113810708Y-120767559D01*
X113681327Y-120681109D01*
X113630541Y-120647175D01*
X113630540Y-120647174D01*
X113630537Y-120647172D01*
X113477328Y-120493963D01*
X113356941Y-120313792D01*
X113274022Y-120113607D01*
X113231750Y-119901092D01*
X113231750Y-119684408D01*
X113274022Y-119471893D01*
X113356941Y-119271708D01*
X113356943Y-119271705D01*
X113477325Y-119091541D01*
X113477326Y-119091540D01*
X113477328Y-119091537D01*
X113630537Y-118938328D01*
X113810708Y-118817941D01*
X114010893Y-118735022D01*
X114223408Y-118692750D01*
X114440092Y-118692750D01*
X114652607Y-118735022D01*
X114652607Y-118735022D01*
G37*
G36*
X152752607Y-118735022D02*
X152952792Y-118817941D01*
X153132963Y-118938328D01*
X153286172Y-119091537D01*
X153286174Y-119091540D01*
X153286175Y-119091541D01*
X153406557Y-119271705D01*
X153406559Y-119271708D01*
X153489478Y-119471893D01*
X153531750Y-119684408D01*
X153531750Y-119901092D01*
X153489478Y-120113607D01*
X153406559Y-120313792D01*
X153286172Y-120493963D01*
X153132963Y-120647172D01*
X153132960Y-120647174D01*
X153132959Y-120647175D01*
X153082173Y-120681109D01*
X152952792Y-120767559D01*
X152752607Y-120850478D01*
X152540092Y-120892750D01*
X152323408Y-120892750D01*
X152110893Y-120850478D01*
X151910708Y-120767559D01*
X151781327Y-120681109D01*
X151730541Y-120647175D01*
X151730540Y-120647174D01*
X151730537Y-120647172D01*
X151577328Y-120493963D01*
X151456941Y-120313792D01*
X151374022Y-120113607D01*
X151331750Y-119901092D01*
X151331750Y-119684408D01*
X151374022Y-119471893D01*
X151456941Y-119271708D01*
X151456943Y-119271705D01*
X151577325Y-119091541D01*
X151577326Y-119091540D01*
X151577328Y-119091537D01*
X151730537Y-118938328D01*
X151910708Y-118817941D01*
X152110893Y-118735022D01*
X152323408Y-118692750D01*
X152540092Y-118692750D01*
X152752607Y-118735022D01*
X152752607Y-118735022D01*
G37*
G36*
X121002607Y-116195022D02*
X121202792Y-116277941D01*
X121382963Y-116398328D01*
X121536172Y-116551537D01*
X121656559Y-116731708D01*
X121739478Y-116931893D01*
X121781750Y-117144408D01*
X121781750Y-117361092D01*
X121739478Y-117573607D01*
X121656559Y-117773792D01*
X121536172Y-117953963D01*
X121382963Y-118107172D01*
X121382960Y-118107174D01*
X121382959Y-118107175D01*
X121264431Y-118186373D01*
X121202792Y-118227559D01*
X121002607Y-118310478D01*
X120790092Y-118352750D01*
X120573408Y-118352750D01*
X120360893Y-118310478D01*
X120160708Y-118227559D01*
X120099069Y-118186373D01*
X119980541Y-118107175D01*
X119980540Y-118107174D01*
X119980537Y-118107172D01*
X119827328Y-117953963D01*
X119706941Y-117773792D01*
X119624022Y-117573607D01*
X119581750Y-117361092D01*
X119581750Y-117144408D01*
X119624022Y-116931893D01*
X119706941Y-116731708D01*
X119827328Y-116551537D01*
X119980537Y-116398328D01*
X120160708Y-116277941D01*
X120360893Y-116195022D01*
X120573408Y-116152750D01*
X120790092Y-116152750D01*
X121002607Y-116195022D01*
X121002607Y-116195022D01*
G37*
G36*
X140052607Y-116195022D02*
X140252792Y-116277941D01*
X140432963Y-116398328D01*
X140586172Y-116551537D01*
X140706559Y-116731708D01*
X140789478Y-116931893D01*
X140831750Y-117144408D01*
X140831750Y-117361092D01*
X140789478Y-117573607D01*
X140706559Y-117773792D01*
X140586172Y-117953963D01*
X140432963Y-118107172D01*
X140432960Y-118107174D01*
X140432959Y-118107175D01*
X140314431Y-118186373D01*
X140252792Y-118227559D01*
X140052607Y-118310478D01*
X139840092Y-118352750D01*
X139623408Y-118352750D01*
X139410893Y-118310478D01*
X139210708Y-118227559D01*
X139149069Y-118186373D01*
X139030541Y-118107175D01*
X139030540Y-118107174D01*
X139030537Y-118107172D01*
X138877328Y-117953963D01*
X138756941Y-117773792D01*
X138674022Y-117573607D01*
X138631750Y-117361092D01*
X138631750Y-117144408D01*
X138674022Y-116931893D01*
X138756941Y-116731708D01*
X138877328Y-116551537D01*
X139030537Y-116398328D01*
X139210708Y-116277941D01*
X139410893Y-116195022D01*
X139623408Y-116152750D01*
X139840092Y-116152750D01*
X140052607Y-116195022D01*
X140052607Y-116195022D01*
G37*
G36*
X159102607Y-116195022D02*
X159302792Y-116277941D01*
X159482963Y-116398328D01*
X159636172Y-116551537D01*
X159756559Y-116731708D01*
X159839478Y-116931893D01*
X159881750Y-117144408D01*
X159881750Y-117361092D01*
X159839478Y-117573607D01*
X159756559Y-117773792D01*
X159636172Y-117953963D01*
X159482963Y-118107172D01*
X159482960Y-118107174D01*
X159482959Y-118107175D01*
X159364431Y-118186373D01*
X159302792Y-118227559D01*
X159102607Y-118310478D01*
X158890092Y-118352750D01*
X158673408Y-118352750D01*
X158460893Y-118310478D01*
X158260708Y-118227559D01*
X158199069Y-118186373D01*
X158080541Y-118107175D01*
X158080540Y-118107174D01*
X158080537Y-118107172D01*
X157927328Y-117953963D01*
X157806941Y-117773792D01*
X157724022Y-117573607D01*
X157681750Y-117361092D01*
X157681750Y-117144408D01*
X157724022Y-116931893D01*
X157806941Y-116731708D01*
X157927328Y-116551537D01*
X158080537Y-116398328D01*
X158260708Y-116277941D01*
X158460893Y-116195022D01*
X158673408Y-116152750D01*
X158890092Y-116152750D01*
X159102607Y-116195022D01*
X159102607Y-116195022D01*
G37*
G36*
X181600000Y-115450000D02*
X180750000Y-115450000D01*
X180750000Y-113850000D01*
X181600000Y-113850000D01*
X181600000Y-115450000D01*
X181600000Y-115450000D01*
G37*
G36*
X179850000Y-115450000D02*
X179000000Y-115450000D01*
X179000000Y-113850000D01*
X179850000Y-113850000D01*
X179850000Y-115450000D01*
X179850000Y-115450000D01*
G37*
G36*
X114375000Y-115400000D02*
X113525000Y-115400000D01*
X113525000Y-113800000D01*
X114375000Y-113800000D01*
X114375000Y-115400000D01*
X114375000Y-115400000D01*
G37*
G36*
X112625000Y-115400000D02*
X111775000Y-115400000D01*
X111775000Y-113800000D01*
X112625000Y-113800000D01*
X112625000Y-115400000D01*
X112625000Y-115400000D01*
G37*
G36*
X140325000Y-114150000D02*
X139125000Y-114150000D01*
X139125000Y-113350000D01*
X140325000Y-113350000D01*
X140325000Y-114150000D01*
X140325000Y-114150000D01*
G37*
G36*
X121275000Y-114150000D02*
X120075000Y-114150000D01*
X120075000Y-113350000D01*
X121275000Y-113350000D01*
X121275000Y-114150000D01*
X121275000Y-114150000D01*
G37*
G36*
X174425000Y-114150000D02*
X173225000Y-114150000D01*
X173225000Y-113350000D01*
X174425000Y-113350000D01*
X174425000Y-114150000D01*
X174425000Y-114150000D01*
G37*
G36*
X159375000Y-114150000D02*
X158175000Y-114150000D01*
X158175000Y-113350000D01*
X159375000Y-113350000D01*
X159375000Y-114150000D01*
X159375000Y-114150000D01*
G37*
G36*
X166120857Y-111642272D02*
X166321042Y-111725191D01*
X166501213Y-111845578D01*
X166654422Y-111998787D01*
X166774809Y-112178958D01*
X166857728Y-112379143D01*
X166900000Y-112591658D01*
X166900000Y-112808342D01*
X166857728Y-113020857D01*
X166774809Y-113221042D01*
X166654422Y-113401213D01*
X166501213Y-113554422D01*
X166321042Y-113674809D01*
X166120857Y-113757728D01*
X165908342Y-113800000D01*
X165691658Y-113800000D01*
X165479143Y-113757728D01*
X165278958Y-113674809D01*
X165098787Y-113554422D01*
X164945578Y-113401213D01*
X164825191Y-113221042D01*
X164742272Y-113020857D01*
X164700000Y-112808342D01*
X164700000Y-112591658D01*
X164742272Y-112379143D01*
X164825191Y-112178958D01*
X164945578Y-111998787D01*
X165098787Y-111845578D01*
X165278958Y-111725191D01*
X165479143Y-111642272D01*
X165691658Y-111600000D01*
X165908342Y-111600000D01*
X166120857Y-111642272D01*
X166120857Y-111642272D01*
G37*
G36*
X161975000Y-113200000D02*
X160775000Y-113200000D01*
X160775000Y-112400000D01*
X161975000Y-112400000D01*
X161975000Y-113200000D01*
X161975000Y-113200000D01*
G37*
G36*
X177025000Y-113200000D02*
X175825000Y-113200000D01*
X175825000Y-112400000D01*
X177025000Y-112400000D01*
X177025000Y-113200000D01*
X177025000Y-113200000D01*
G37*
G36*
X123875000Y-113200000D02*
X122675000Y-113200000D01*
X122675000Y-112400000D01*
X123875000Y-112400000D01*
X123875000Y-113200000D01*
X123875000Y-113200000D01*
G37*
G36*
X142925000Y-113200000D02*
X141725000Y-113200000D01*
X141725000Y-112400000D01*
X142925000Y-112400000D01*
X142925000Y-113200000D01*
X142925000Y-113200000D01*
G37*
G36*
X174425000Y-112250000D02*
X173225000Y-112250000D01*
X173225000Y-111450000D01*
X174425000Y-111450000D01*
X174425000Y-112250000D01*
X174425000Y-112250000D01*
G37*
G36*
X140325000Y-112250000D02*
X139125000Y-112250000D01*
X139125000Y-111450000D01*
X140325000Y-111450000D01*
X140325000Y-112250000D01*
X140325000Y-112250000D01*
G37*
G36*
X121275000Y-112250000D02*
X120075000Y-112250000D01*
X120075000Y-111450000D01*
X121275000Y-111450000D01*
X121275000Y-112250000D01*
X121275000Y-112250000D01*
G37*
G36*
X159375000Y-112250000D02*
X158175000Y-112250000D01*
X158175000Y-111450000D01*
X159375000Y-111450000D01*
X159375000Y-112250000D01*
X159375000Y-112250000D01*
G37*
G36*
X181600000Y-111950000D02*
X180750000Y-111950000D01*
X180750000Y-110350000D01*
X181600000Y-110350000D01*
X181600000Y-111950000D01*
X181600000Y-111950000D01*
G37*
G36*
X179850000Y-111950000D02*
X179000000Y-111950000D01*
X179000000Y-110350000D01*
X179850000Y-110350000D01*
X179850000Y-111950000D01*
X179850000Y-111950000D01*
G37*
G36*
X112625000Y-111900000D02*
X111775000Y-111900000D01*
X111775000Y-110300000D01*
X112625000Y-110300000D01*
X112625000Y-111900000D01*
X112625000Y-111900000D01*
G37*
G36*
X114375000Y-111900000D02*
X113525000Y-111900000D01*
X113525000Y-110300000D01*
X114375000Y-110300000D01*
X114375000Y-111900000D01*
X114375000Y-111900000D01*
G37*
G36*
X175875128Y-101359609D02*
X176239104Y-101510372D01*
X176566679Y-101729251D01*
X176845249Y-102007821D01*
X177064128Y-102335396D01*
X177214891Y-102699372D01*
X177291750Y-103085766D01*
X177291750Y-103479734D01*
X177214891Y-103866128D01*
X177064128Y-104230104D01*
X176845249Y-104557679D01*
X176566679Y-104836249D01*
X176239104Y-105055128D01*
X175875128Y-105205891D01*
X175488734Y-105282750D01*
X175094766Y-105282750D01*
X174708372Y-105205891D01*
X174344396Y-105055128D01*
X174016821Y-104836249D01*
X173738251Y-104557679D01*
X173519372Y-104230104D01*
X173368609Y-103866128D01*
X173291750Y-103479734D01*
X173291750Y-103085766D01*
X173368609Y-102699372D01*
X173519372Y-102335396D01*
X173738251Y-102007821D01*
X174016821Y-101729251D01*
X174344396Y-101510372D01*
X174708372Y-101359609D01*
X175094766Y-101282750D01*
X175488734Y-101282750D01*
X175875128Y-101359609D01*
X175875128Y-101359609D01*
G37*
G36*
X156825128Y-101359609D02*
X157189104Y-101510372D01*
X157516679Y-101729251D01*
X157795249Y-102007821D01*
X158014128Y-102335396D01*
X158164891Y-102699372D01*
X158241750Y-103085766D01*
X158241750Y-103479734D01*
X158164891Y-103866128D01*
X158014128Y-104230104D01*
X157795249Y-104557679D01*
X157516679Y-104836249D01*
X157189104Y-105055128D01*
X156825128Y-105205891D01*
X156438734Y-105282750D01*
X156044766Y-105282750D01*
X155658372Y-105205891D01*
X155294396Y-105055128D01*
X154966821Y-104836249D01*
X154688251Y-104557679D01*
X154469372Y-104230104D01*
X154318609Y-103866128D01*
X154241750Y-103479734D01*
X154241750Y-103085766D01*
X154318609Y-102699372D01*
X154469372Y-102335396D01*
X154688251Y-102007821D01*
X154966821Y-101729251D01*
X155294396Y-101510372D01*
X155658372Y-101359609D01*
X156044766Y-101282750D01*
X156438734Y-101282750D01*
X156825128Y-101359609D01*
X156825128Y-101359609D01*
G37*
G36*
X137775128Y-101359609D02*
X138139104Y-101510372D01*
X138466679Y-101729251D01*
X138745249Y-102007821D01*
X138964128Y-102335396D01*
X139114891Y-102699372D01*
X139191750Y-103085766D01*
X139191750Y-103479734D01*
X139114891Y-103866128D01*
X138964128Y-104230104D01*
X138745249Y-104557679D01*
X138466679Y-104836249D01*
X138139104Y-105055128D01*
X137775128Y-105205891D01*
X137388734Y-105282750D01*
X136994766Y-105282750D01*
X136608372Y-105205891D01*
X136244396Y-105055128D01*
X135916821Y-104836249D01*
X135638251Y-104557679D01*
X135419372Y-104230104D01*
X135268609Y-103866128D01*
X135191750Y-103479734D01*
X135191750Y-103085766D01*
X135268609Y-102699372D01*
X135419372Y-102335396D01*
X135638251Y-102007821D01*
X135916821Y-101729251D01*
X136244396Y-101510372D01*
X136608372Y-101359609D01*
X136994766Y-101282750D01*
X137388734Y-101282750D01*
X137775128Y-101359609D01*
X137775128Y-101359609D01*
G37*
G36*
X118725128Y-101359609D02*
X119089104Y-101510372D01*
X119416679Y-101729251D01*
X119695249Y-102007821D01*
X119914128Y-102335396D01*
X120064891Y-102699372D01*
X120141750Y-103085766D01*
X120141750Y-103479734D01*
X120064891Y-103866128D01*
X119914128Y-104230104D01*
X119695249Y-104557679D01*
X119416679Y-104836249D01*
X119089104Y-105055128D01*
X118725128Y-105205891D01*
X118338734Y-105282750D01*
X117944766Y-105282750D01*
X117558372Y-105205891D01*
X117194396Y-105055128D01*
X116866821Y-104836249D01*
X116588251Y-104557679D01*
X116369372Y-104230104D01*
X116218609Y-103866128D01*
X116141750Y-103479734D01*
X116141750Y-103085766D01*
X116218609Y-102699372D01*
X116369372Y-102335396D01*
X116588251Y-102007821D01*
X116866821Y-101729251D01*
X117194396Y-101510372D01*
X117558372Y-101359609D01*
X117944766Y-101282750D01*
X118338734Y-101282750D01*
X118725128Y-101359609D01*
X118725128Y-101359609D01*
G37*
G36*
X171802607Y-99685022D02*
X172002792Y-99767941D01*
X172182963Y-99888328D01*
X172336172Y-100041537D01*
X172456559Y-100221708D01*
X172539478Y-100421893D01*
X172581750Y-100634408D01*
X172581750Y-100851092D01*
X172539478Y-101063607D01*
X172456559Y-101263792D01*
X172336172Y-101443963D01*
X172182963Y-101597172D01*
X172002792Y-101717559D01*
X171802607Y-101800478D01*
X171590092Y-101842750D01*
X171373408Y-101842750D01*
X171160893Y-101800478D01*
X170960708Y-101717559D01*
X170780537Y-101597172D01*
X170627328Y-101443963D01*
X170506941Y-101263792D01*
X170424022Y-101063607D01*
X170381750Y-100851092D01*
X170381750Y-100634408D01*
X170424022Y-100421893D01*
X170506941Y-100221708D01*
X170627328Y-100041537D01*
X170780537Y-99888328D01*
X170960708Y-99767941D01*
X171160893Y-99685022D01*
X171373408Y-99642750D01*
X171590092Y-99642750D01*
X171802607Y-99685022D01*
X171802607Y-99685022D01*
G37*
G36*
X152752607Y-99685022D02*
X152952792Y-99767941D01*
X153132963Y-99888328D01*
X153286172Y-100041537D01*
X153406559Y-100221708D01*
X153489478Y-100421893D01*
X153531750Y-100634408D01*
X153531750Y-100851092D01*
X153489478Y-101063607D01*
X153406559Y-101263792D01*
X153286172Y-101443963D01*
X153132963Y-101597172D01*
X152952792Y-101717559D01*
X152752607Y-101800478D01*
X152540092Y-101842750D01*
X152323408Y-101842750D01*
X152110893Y-101800478D01*
X151910708Y-101717559D01*
X151730537Y-101597172D01*
X151577328Y-101443963D01*
X151456941Y-101263792D01*
X151374022Y-101063607D01*
X151331750Y-100851092D01*
X151331750Y-100634408D01*
X151374022Y-100421893D01*
X151456941Y-100221708D01*
X151577328Y-100041537D01*
X151730537Y-99888328D01*
X151910708Y-99767941D01*
X152110893Y-99685022D01*
X152323408Y-99642750D01*
X152540092Y-99642750D01*
X152752607Y-99685022D01*
X152752607Y-99685022D01*
G37*
G36*
X133702607Y-99685022D02*
X133902792Y-99767941D01*
X134082963Y-99888328D01*
X134236172Y-100041537D01*
X134356559Y-100221708D01*
X134439478Y-100421893D01*
X134481750Y-100634408D01*
X134481750Y-100851092D01*
X134439478Y-101063607D01*
X134356559Y-101263792D01*
X134236172Y-101443963D01*
X134082963Y-101597172D01*
X133902792Y-101717559D01*
X133702607Y-101800478D01*
X133490092Y-101842750D01*
X133273408Y-101842750D01*
X133060893Y-101800478D01*
X132860708Y-101717559D01*
X132680537Y-101597172D01*
X132527328Y-101443963D01*
X132406941Y-101263792D01*
X132324022Y-101063607D01*
X132281750Y-100851092D01*
X132281750Y-100634408D01*
X132324022Y-100421893D01*
X132406941Y-100221708D01*
X132527328Y-100041537D01*
X132680537Y-99888328D01*
X132860708Y-99767941D01*
X133060893Y-99685022D01*
X133273408Y-99642750D01*
X133490092Y-99642750D01*
X133702607Y-99685022D01*
X133702607Y-99685022D01*
G37*
G36*
X114652607Y-99685022D02*
X114852792Y-99767941D01*
X115032963Y-99888328D01*
X115186172Y-100041537D01*
X115306559Y-100221708D01*
X115389478Y-100421893D01*
X115431750Y-100634408D01*
X115431750Y-100851092D01*
X115389478Y-101063607D01*
X115306559Y-101263792D01*
X115186172Y-101443963D01*
X115032963Y-101597172D01*
X114852792Y-101717559D01*
X114652607Y-101800478D01*
X114440092Y-101842750D01*
X114223408Y-101842750D01*
X114010893Y-101800478D01*
X113810708Y-101717559D01*
X113630537Y-101597172D01*
X113477328Y-101443963D01*
X113356941Y-101263792D01*
X113274022Y-101063607D01*
X113231750Y-100851092D01*
X113231750Y-100634408D01*
X113274022Y-100421893D01*
X113356941Y-100221708D01*
X113477328Y-100041537D01*
X113630537Y-99888328D01*
X113810708Y-99767941D01*
X114010893Y-99685022D01*
X114223408Y-99642750D01*
X114440092Y-99642750D01*
X114652607Y-99685022D01*
X114652607Y-99685022D01*
G37*
G36*
X159102607Y-97145022D02*
X159302792Y-97227941D01*
X159482963Y-97348328D01*
X159636172Y-97501537D01*
X159756559Y-97681708D01*
X159839478Y-97881893D01*
X159881750Y-98094408D01*
X159881750Y-98311092D01*
X159839478Y-98523607D01*
X159756559Y-98723792D01*
X159636172Y-98903963D01*
X159482963Y-99057172D01*
X159302792Y-99177559D01*
X159102607Y-99260478D01*
X158890092Y-99302750D01*
X158673408Y-99302750D01*
X158460893Y-99260478D01*
X158260708Y-99177559D01*
X158080537Y-99057172D01*
X157927328Y-98903963D01*
X157806941Y-98723792D01*
X157724022Y-98523607D01*
X157681750Y-98311092D01*
X157681750Y-98094408D01*
X157724022Y-97881893D01*
X157806941Y-97681708D01*
X157927328Y-97501537D01*
X158080537Y-97348328D01*
X158260708Y-97227941D01*
X158460893Y-97145022D01*
X158673408Y-97102750D01*
X158890092Y-97102750D01*
X159102607Y-97145022D01*
X159102607Y-97145022D01*
G37*
G36*
X140052607Y-97145022D02*
X140252792Y-97227941D01*
X140432963Y-97348328D01*
X140586172Y-97501537D01*
X140706559Y-97681708D01*
X140789478Y-97881893D01*
X140831750Y-98094408D01*
X140831750Y-98311092D01*
X140789478Y-98523607D01*
X140706559Y-98723792D01*
X140586172Y-98903963D01*
X140432963Y-99057172D01*
X140252792Y-99177559D01*
X140052607Y-99260478D01*
X139840092Y-99302750D01*
X139623408Y-99302750D01*
X139410893Y-99260478D01*
X139210708Y-99177559D01*
X139030537Y-99057172D01*
X138877328Y-98903963D01*
X138756941Y-98723792D01*
X138674022Y-98523607D01*
X138631750Y-98311092D01*
X138631750Y-98094408D01*
X138674022Y-97881893D01*
X138756941Y-97681708D01*
X138877328Y-97501537D01*
X139030537Y-97348328D01*
X139210708Y-97227941D01*
X139410893Y-97145022D01*
X139623408Y-97102750D01*
X139840092Y-97102750D01*
X140052607Y-97145022D01*
X140052607Y-97145022D01*
G37*
G36*
X178152607Y-97145022D02*
X178352792Y-97227941D01*
X178532963Y-97348328D01*
X178686172Y-97501537D01*
X178806559Y-97681708D01*
X178889478Y-97881893D01*
X178931750Y-98094408D01*
X178931750Y-98311092D01*
X178889478Y-98523607D01*
X178806559Y-98723792D01*
X178686172Y-98903963D01*
X178532963Y-99057172D01*
X178352792Y-99177559D01*
X178152607Y-99260478D01*
X177940092Y-99302750D01*
X177723408Y-99302750D01*
X177510893Y-99260478D01*
X177310708Y-99177559D01*
X177130537Y-99057172D01*
X176977328Y-98903963D01*
X176856941Y-98723792D01*
X176774022Y-98523607D01*
X176731750Y-98311092D01*
X176731750Y-98094408D01*
X176774022Y-97881893D01*
X176856941Y-97681708D01*
X176977328Y-97501537D01*
X177130537Y-97348328D01*
X177310708Y-97227941D01*
X177510893Y-97145022D01*
X177723408Y-97102750D01*
X177940092Y-97102750D01*
X178152607Y-97145022D01*
X178152607Y-97145022D01*
G37*
G36*
X121002607Y-97145022D02*
X121202792Y-97227941D01*
X121382963Y-97348328D01*
X121536172Y-97501537D01*
X121656559Y-97681708D01*
X121739478Y-97881893D01*
X121781750Y-98094408D01*
X121781750Y-98311092D01*
X121739478Y-98523607D01*
X121656559Y-98723792D01*
X121536172Y-98903963D01*
X121382963Y-99057172D01*
X121202792Y-99177559D01*
X121002607Y-99260478D01*
X120790092Y-99302750D01*
X120573408Y-99302750D01*
X120360893Y-99260478D01*
X120160708Y-99177559D01*
X119980537Y-99057172D01*
X119827328Y-98903963D01*
X119706941Y-98723792D01*
X119624022Y-98523607D01*
X119581750Y-98311092D01*
X119581750Y-98094408D01*
X119624022Y-97881893D01*
X119706941Y-97681708D01*
X119827328Y-97501537D01*
X119980537Y-97348328D01*
X120160708Y-97227941D01*
X120360893Y-97145022D01*
X120573408Y-97102750D01*
X120790092Y-97102750D01*
X121002607Y-97145022D01*
X121002607Y-97145022D01*
G37*
G36*
X147020857Y-92742272D02*
X147221042Y-92825191D01*
X147401213Y-92945578D01*
X147554422Y-93098787D01*
X147674809Y-93278958D01*
X147757728Y-93479143D01*
X147800000Y-93691658D01*
X147800000Y-93908342D01*
X147757728Y-94120857D01*
X147674809Y-94321042D01*
X147554422Y-94501213D01*
X147401213Y-94654422D01*
X147221042Y-94774809D01*
X147020857Y-94857728D01*
X146808342Y-94900000D01*
X146591658Y-94900000D01*
X146379143Y-94857728D01*
X146178958Y-94774809D01*
X145998787Y-94654422D01*
X145845578Y-94501213D01*
X145725191Y-94321042D01*
X145642272Y-94120857D01*
X145600000Y-93908342D01*
X145600000Y-93691658D01*
X145642272Y-93479143D01*
X145725191Y-93278958D01*
X145845578Y-93098787D01*
X145998787Y-92945578D01*
X146178958Y-92825191D01*
X146379143Y-92742272D01*
X146591658Y-92700000D01*
X146808342Y-92700000D01*
X147020857Y-92742272D01*
X147020857Y-92742272D01*
G37*
G36*
X175875128Y-82309609D02*
X176239104Y-82460372D01*
X176566679Y-82679251D01*
X176845249Y-82957821D01*
X177064128Y-83285396D01*
X177214891Y-83649372D01*
X177291750Y-84035766D01*
X177291750Y-84429734D01*
X177214891Y-84816128D01*
X177064128Y-85180104D01*
X176845249Y-85507679D01*
X176566679Y-85786249D01*
X176239104Y-86005128D01*
X175875128Y-86155891D01*
X175488734Y-86232750D01*
X175094766Y-86232750D01*
X174708372Y-86155891D01*
X174344396Y-86005128D01*
X174016821Y-85786249D01*
X173738251Y-85507679D01*
X173519372Y-85180104D01*
X173368609Y-84816128D01*
X173291750Y-84429734D01*
X173291750Y-84035766D01*
X173368609Y-83649372D01*
X173519372Y-83285396D01*
X173738251Y-82957821D01*
X174016821Y-82679251D01*
X174344396Y-82460372D01*
X174708372Y-82309609D01*
X175094766Y-82232750D01*
X175488734Y-82232750D01*
X175875128Y-82309609D01*
X175875128Y-82309609D01*
G37*
G36*
X156825128Y-82309609D02*
X157189104Y-82460372D01*
X157516679Y-82679251D01*
X157795249Y-82957821D01*
X158014128Y-83285396D01*
X158164891Y-83649372D01*
X158241750Y-84035766D01*
X158241750Y-84429734D01*
X158164891Y-84816128D01*
X158014128Y-85180104D01*
X157795249Y-85507679D01*
X157516679Y-85786249D01*
X157189104Y-86005128D01*
X156825128Y-86155891D01*
X156438734Y-86232750D01*
X156044766Y-86232750D01*
X155658372Y-86155891D01*
X155294396Y-86005128D01*
X154966821Y-85786249D01*
X154688251Y-85507679D01*
X154469372Y-85180104D01*
X154318609Y-84816128D01*
X154241750Y-84429734D01*
X154241750Y-84035766D01*
X154318609Y-83649372D01*
X154469372Y-83285396D01*
X154688251Y-82957821D01*
X154966821Y-82679251D01*
X155294396Y-82460372D01*
X155658372Y-82309609D01*
X156044766Y-82232750D01*
X156438734Y-82232750D01*
X156825128Y-82309609D01*
X156825128Y-82309609D01*
G37*
G36*
X137775128Y-82309609D02*
X138139104Y-82460372D01*
X138466679Y-82679251D01*
X138745249Y-82957821D01*
X138964128Y-83285396D01*
X139114891Y-83649372D01*
X139191750Y-84035766D01*
X139191750Y-84429734D01*
X139114891Y-84816128D01*
X138964128Y-85180104D01*
X138745249Y-85507679D01*
X138466679Y-85786249D01*
X138139104Y-86005128D01*
X137775128Y-86155891D01*
X137388734Y-86232750D01*
X136994766Y-86232750D01*
X136608372Y-86155891D01*
X136244396Y-86005128D01*
X135916821Y-85786249D01*
X135638251Y-85507679D01*
X135419372Y-85180104D01*
X135268609Y-84816128D01*
X135191750Y-84429734D01*
X135191750Y-84035766D01*
X135268609Y-83649372D01*
X135419372Y-83285396D01*
X135638251Y-82957821D01*
X135916821Y-82679251D01*
X136244396Y-82460372D01*
X136608372Y-82309609D01*
X136994766Y-82232750D01*
X137388734Y-82232750D01*
X137775128Y-82309609D01*
X137775128Y-82309609D01*
G37*
G36*
X118725128Y-82309609D02*
X119089104Y-82460372D01*
X119416679Y-82679251D01*
X119695249Y-82957821D01*
X119914128Y-83285396D01*
X120064891Y-83649372D01*
X120141750Y-84035766D01*
X120141750Y-84429734D01*
X120064891Y-84816128D01*
X119914128Y-85180104D01*
X119695249Y-85507679D01*
X119416679Y-85786249D01*
X119089104Y-86005128D01*
X118725128Y-86155891D01*
X118338734Y-86232750D01*
X117944766Y-86232750D01*
X117558372Y-86155891D01*
X117194396Y-86005128D01*
X116866821Y-85786249D01*
X116588251Y-85507679D01*
X116369372Y-85180104D01*
X116218609Y-84816128D01*
X116141750Y-84429734D01*
X116141750Y-84035766D01*
X116218609Y-83649372D01*
X116369372Y-83285396D01*
X116588251Y-82957821D01*
X116866821Y-82679251D01*
X117194396Y-82460372D01*
X117558372Y-82309609D01*
X117944766Y-82232750D01*
X118338734Y-82232750D01*
X118725128Y-82309609D01*
X118725128Y-82309609D01*
G37*
G36*
X114652607Y-80635022D02*
X114852792Y-80717941D01*
X115032963Y-80838328D01*
X115186172Y-80991537D01*
X115306559Y-81171708D01*
X115389478Y-81371893D01*
X115431750Y-81584408D01*
X115431750Y-81801092D01*
X115389478Y-82013607D01*
X115306559Y-82213792D01*
X115186172Y-82393963D01*
X115032963Y-82547172D01*
X114852792Y-82667559D01*
X114652607Y-82750478D01*
X114440092Y-82792750D01*
X114223408Y-82792750D01*
X114010893Y-82750478D01*
X113810708Y-82667559D01*
X113630537Y-82547172D01*
X113477328Y-82393963D01*
X113356941Y-82213792D01*
X113274022Y-82013607D01*
X113231750Y-81801092D01*
X113231750Y-81584408D01*
X113274022Y-81371893D01*
X113356941Y-81171708D01*
X113477328Y-80991537D01*
X113630537Y-80838328D01*
X113810708Y-80717941D01*
X114010893Y-80635022D01*
X114223408Y-80592750D01*
X114440092Y-80592750D01*
X114652607Y-80635022D01*
X114652607Y-80635022D01*
G37*
G36*
X133702607Y-80635022D02*
X133902792Y-80717941D01*
X134082963Y-80838328D01*
X134236172Y-80991537D01*
X134356559Y-81171708D01*
X134439478Y-81371893D01*
X134481750Y-81584408D01*
X134481750Y-81801092D01*
X134439478Y-82013607D01*
X134356559Y-82213792D01*
X134236172Y-82393963D01*
X134082963Y-82547172D01*
X133902792Y-82667559D01*
X133702607Y-82750478D01*
X133490092Y-82792750D01*
X133273408Y-82792750D01*
X133060893Y-82750478D01*
X132860708Y-82667559D01*
X132680537Y-82547172D01*
X132527328Y-82393963D01*
X132406941Y-82213792D01*
X132324022Y-82013607D01*
X132281750Y-81801092D01*
X132281750Y-81584408D01*
X132324022Y-81371893D01*
X132406941Y-81171708D01*
X132527328Y-80991537D01*
X132680537Y-80838328D01*
X132860708Y-80717941D01*
X133060893Y-80635022D01*
X133273408Y-80592750D01*
X133490092Y-80592750D01*
X133702607Y-80635022D01*
X133702607Y-80635022D01*
G37*
G36*
X152752607Y-80635022D02*
X152952792Y-80717941D01*
X153132963Y-80838328D01*
X153286172Y-80991537D01*
X153406559Y-81171708D01*
X153489478Y-81371893D01*
X153531750Y-81584408D01*
X153531750Y-81801092D01*
X153489478Y-82013607D01*
X153406559Y-82213792D01*
X153286172Y-82393963D01*
X153132963Y-82547172D01*
X152952792Y-82667559D01*
X152752607Y-82750478D01*
X152540092Y-82792750D01*
X152323408Y-82792750D01*
X152110893Y-82750478D01*
X151910708Y-82667559D01*
X151730537Y-82547172D01*
X151577328Y-82393963D01*
X151456941Y-82213792D01*
X151374022Y-82013607D01*
X151331750Y-81801092D01*
X151331750Y-81584408D01*
X151374022Y-81371893D01*
X151456941Y-81171708D01*
X151577328Y-80991537D01*
X151730537Y-80838328D01*
X151910708Y-80717941D01*
X152110893Y-80635022D01*
X152323408Y-80592750D01*
X152540092Y-80592750D01*
X152752607Y-80635022D01*
X152752607Y-80635022D01*
G37*
G36*
X171802607Y-80635022D02*
X172002792Y-80717941D01*
X172182963Y-80838328D01*
X172336172Y-80991537D01*
X172456559Y-81171708D01*
X172539478Y-81371893D01*
X172581750Y-81584408D01*
X172581750Y-81801092D01*
X172539478Y-82013607D01*
X172456559Y-82213792D01*
X172336172Y-82393963D01*
X172182963Y-82547172D01*
X172002792Y-82667559D01*
X171802607Y-82750478D01*
X171590092Y-82792750D01*
X171373408Y-82792750D01*
X171160893Y-82750478D01*
X170960708Y-82667559D01*
X170780537Y-82547172D01*
X170627328Y-82393963D01*
X170506941Y-82213792D01*
X170424022Y-82013607D01*
X170381750Y-81801092D01*
X170381750Y-81584408D01*
X170424022Y-81371893D01*
X170506941Y-81171708D01*
X170627328Y-80991537D01*
X170780537Y-80838328D01*
X170960708Y-80717941D01*
X171160893Y-80635022D01*
X171373408Y-80592750D01*
X171590092Y-80592750D01*
X171802607Y-80635022D01*
X171802607Y-80635022D01*
G37*
G36*
X121002607Y-78095022D02*
X121202792Y-78177941D01*
X121382963Y-78298328D01*
X121536172Y-78451537D01*
X121656559Y-78631708D01*
X121739478Y-78831893D01*
X121781750Y-79044408D01*
X121781750Y-79261092D01*
X121739478Y-79473607D01*
X121656559Y-79673792D01*
X121536172Y-79853963D01*
X121382963Y-80007172D01*
X121202792Y-80127559D01*
X121002607Y-80210478D01*
X120790092Y-80252750D01*
X120573408Y-80252750D01*
X120360893Y-80210478D01*
X120160708Y-80127559D01*
X119980537Y-80007172D01*
X119827328Y-79853963D01*
X119706941Y-79673792D01*
X119624022Y-79473607D01*
X119581750Y-79261092D01*
X119581750Y-79044408D01*
X119624022Y-78831893D01*
X119706941Y-78631708D01*
X119827328Y-78451537D01*
X119980537Y-78298328D01*
X120160708Y-78177941D01*
X120360893Y-78095022D01*
X120573408Y-78052750D01*
X120790092Y-78052750D01*
X121002607Y-78095022D01*
X121002607Y-78095022D01*
G37*
G36*
X140052607Y-78095022D02*
X140252792Y-78177941D01*
X140432963Y-78298328D01*
X140586172Y-78451537D01*
X140706559Y-78631708D01*
X140789478Y-78831893D01*
X140831750Y-79044408D01*
X140831750Y-79261092D01*
X140789478Y-79473607D01*
X140706559Y-79673792D01*
X140586172Y-79853963D01*
X140432963Y-80007172D01*
X140252792Y-80127559D01*
X140052607Y-80210478D01*
X139840092Y-80252750D01*
X139623408Y-80252750D01*
X139410893Y-80210478D01*
X139210708Y-80127559D01*
X139030537Y-80007172D01*
X138877328Y-79853963D01*
X138756941Y-79673792D01*
X138674022Y-79473607D01*
X138631750Y-79261092D01*
X138631750Y-79044408D01*
X138674022Y-78831893D01*
X138756941Y-78631708D01*
X138877328Y-78451537D01*
X139030537Y-78298328D01*
X139210708Y-78177941D01*
X139410893Y-78095022D01*
X139623408Y-78052750D01*
X139840092Y-78052750D01*
X140052607Y-78095022D01*
X140052607Y-78095022D01*
G37*
G36*
X159102607Y-78095022D02*
X159302792Y-78177941D01*
X159482963Y-78298328D01*
X159636172Y-78451537D01*
X159756559Y-78631708D01*
X159839478Y-78831893D01*
X159881750Y-79044408D01*
X159881750Y-79261092D01*
X159839478Y-79473607D01*
X159756559Y-79673792D01*
X159636172Y-79853963D01*
X159482963Y-80007172D01*
X159302792Y-80127559D01*
X159102607Y-80210478D01*
X158890092Y-80252750D01*
X158673408Y-80252750D01*
X158460893Y-80210478D01*
X158260708Y-80127559D01*
X158080537Y-80007172D01*
X157927328Y-79853963D01*
X157806941Y-79673792D01*
X157724022Y-79473607D01*
X157681750Y-79261092D01*
X157681750Y-79044408D01*
X157724022Y-78831893D01*
X157806941Y-78631708D01*
X157927328Y-78451537D01*
X158080537Y-78298328D01*
X158260708Y-78177941D01*
X158460893Y-78095022D01*
X158673408Y-78052750D01*
X158890092Y-78052750D01*
X159102607Y-78095022D01*
X159102607Y-78095022D01*
G37*
G36*
X178152607Y-78095022D02*
X178352792Y-78177941D01*
X178532963Y-78298328D01*
X178686172Y-78451537D01*
X178806559Y-78631708D01*
X178889478Y-78831893D01*
X178931750Y-79044408D01*
X178931750Y-79261092D01*
X178889478Y-79473607D01*
X178806559Y-79673792D01*
X178686172Y-79853963D01*
X178532963Y-80007172D01*
X178352792Y-80127559D01*
X178152607Y-80210478D01*
X177940092Y-80252750D01*
X177723408Y-80252750D01*
X177510893Y-80210478D01*
X177310708Y-80127559D01*
X177130537Y-80007172D01*
X176977328Y-79853963D01*
X176856941Y-79673792D01*
X176774022Y-79473607D01*
X176731750Y-79261092D01*
X176731750Y-79044408D01*
X176774022Y-78831893D01*
X176856941Y-78631708D01*
X176977328Y-78451537D01*
X177130537Y-78298328D01*
X177310708Y-78177941D01*
X177510893Y-78095022D01*
X177723408Y-78052750D01*
X177940092Y-78052750D01*
X178152607Y-78095022D01*
X178152607Y-78095022D01*
G37*
G36*
X181600000Y-77050000D02*
X180750000Y-77050000D01*
X180750000Y-75450000D01*
X181600000Y-75450000D01*
X181600000Y-77050000D01*
X181600000Y-77050000D01*
G37*
G36*
X179850000Y-77050000D02*
X179000000Y-77050000D01*
X179000000Y-75450000D01*
X179850000Y-75450000D01*
X179850000Y-77050000D01*
X179850000Y-77050000D01*
G37*
G36*
X114400000Y-76950000D02*
X113550000Y-76950000D01*
X113550000Y-75350000D01*
X114400000Y-75350000D01*
X114400000Y-76950000D01*
X114400000Y-76950000D01*
G37*
G36*
X112650000Y-76950000D02*
X111800000Y-76950000D01*
X111800000Y-75350000D01*
X112650000Y-75350000D01*
X112650000Y-76950000D01*
X112650000Y-76950000D01*
G37*
G36*
X140325000Y-76050000D02*
X139125000Y-76050000D01*
X139125000Y-75250000D01*
X140325000Y-75250000D01*
X140325000Y-76050000D01*
X140325000Y-76050000D01*
G37*
G36*
X159375000Y-76050000D02*
X158175000Y-76050000D01*
X158175000Y-75250000D01*
X159375000Y-75250000D01*
X159375000Y-76050000D01*
X159375000Y-76050000D01*
G37*
G36*
X121275000Y-76050000D02*
X120075000Y-76050000D01*
X120075000Y-75250000D01*
X121275000Y-75250000D01*
X121275000Y-76050000D01*
X121275000Y-76050000D01*
G37*
G36*
X174425000Y-76050000D02*
X173225000Y-76050000D01*
X173225000Y-75250000D01*
X174425000Y-75250000D01*
X174425000Y-76050000D01*
X174425000Y-76050000D01*
G37*
G36*
X123875000Y-75100000D02*
X122675000Y-75100000D01*
X122675000Y-74300000D01*
X123875000Y-74300000D01*
X123875000Y-75100000D01*
X123875000Y-75100000D01*
G37*
G36*
X177025000Y-75100000D02*
X175825000Y-75100000D01*
X175825000Y-74300000D01*
X177025000Y-74300000D01*
X177025000Y-75100000D01*
X177025000Y-75100000D01*
G37*
G36*
X161975000Y-75100000D02*
X160775000Y-75100000D01*
X160775000Y-74300000D01*
X161975000Y-74300000D01*
X161975000Y-75100000D01*
X161975000Y-75100000D01*
G37*
G36*
X142925000Y-75100000D02*
X141725000Y-75100000D01*
X141725000Y-74300000D01*
X142925000Y-74300000D01*
X142925000Y-75100000D01*
X142925000Y-75100000D01*
G37*
G36*
X159375000Y-74150000D02*
X158175000Y-74150000D01*
X158175000Y-73350000D01*
X159375000Y-73350000D01*
X159375000Y-74150000D01*
X159375000Y-74150000D01*
G37*
G36*
X174425000Y-74150000D02*
X173225000Y-74150000D01*
X173225000Y-73350000D01*
X174425000Y-73350000D01*
X174425000Y-74150000D01*
X174425000Y-74150000D01*
G37*
G36*
X140325000Y-74150000D02*
X139125000Y-74150000D01*
X139125000Y-73350000D01*
X140325000Y-73350000D01*
X140325000Y-74150000D01*
X140325000Y-74150000D01*
G37*
G36*
X121275000Y-74150000D02*
X120075000Y-74150000D01*
X120075000Y-73350000D01*
X121275000Y-73350000D01*
X121275000Y-74150000D01*
X121275000Y-74150000D01*
G37*
G36*
X181600000Y-73550000D02*
X180750000Y-73550000D01*
X180750000Y-71950000D01*
X181600000Y-71950000D01*
X181600000Y-73550000D01*
X181600000Y-73550000D01*
G37*
G36*
X179850000Y-73550000D02*
X179000000Y-73550000D01*
X179000000Y-71950000D01*
X179850000Y-71950000D01*
X179850000Y-73550000D01*
X179850000Y-73550000D01*
G37*
G36*
X114400000Y-73450000D02*
X113550000Y-73450000D01*
X113550000Y-71850000D01*
X114400000Y-71850000D01*
X114400000Y-73450000D01*
X114400000Y-73450000D01*
G37*
G36*
X112650000Y-73450000D02*
X111800000Y-73450000D01*
X111800000Y-71850000D01*
X112650000Y-71850000D01*
X112650000Y-73450000D01*
X112650000Y-73450000D01*
G37*
G36*
X175875128Y-63259609D02*
X176239104Y-63410372D01*
X176566679Y-63629251D01*
X176845249Y-63907821D01*
X177064128Y-64235396D01*
X177214891Y-64599372D01*
X177291750Y-64985766D01*
X177291750Y-65379734D01*
X177214891Y-65766128D01*
X177064128Y-66130104D01*
X176845249Y-66457679D01*
X176566679Y-66736249D01*
X176239104Y-66955128D01*
X175875128Y-67105891D01*
X175488734Y-67182750D01*
X175094766Y-67182750D01*
X174708372Y-67105891D01*
X174344396Y-66955128D01*
X174016821Y-66736249D01*
X173738251Y-66457679D01*
X173519372Y-66130104D01*
X173368609Y-65766128D01*
X173291750Y-65379734D01*
X173291750Y-64985766D01*
X173368609Y-64599372D01*
X173519372Y-64235396D01*
X173738251Y-63907821D01*
X174016821Y-63629251D01*
X174344396Y-63410372D01*
X174708372Y-63259609D01*
X175094766Y-63182750D01*
X175488734Y-63182750D01*
X175875128Y-63259609D01*
X175875128Y-63259609D01*
G37*
G36*
X118725128Y-63259609D02*
X119089104Y-63410372D01*
X119416679Y-63629251D01*
X119695249Y-63907821D01*
X119914128Y-64235396D01*
X120064891Y-64599372D01*
X120141750Y-64985766D01*
X120141750Y-65379734D01*
X120064891Y-65766128D01*
X119914128Y-66130104D01*
X119695249Y-66457679D01*
X119416679Y-66736249D01*
X119089104Y-66955128D01*
X118725128Y-67105891D01*
X118338734Y-67182750D01*
X117944766Y-67182750D01*
X117558372Y-67105891D01*
X117194396Y-66955128D01*
X116866821Y-66736249D01*
X116588251Y-66457679D01*
X116369372Y-66130104D01*
X116218609Y-65766128D01*
X116141750Y-65379734D01*
X116141750Y-64985766D01*
X116218609Y-64599372D01*
X116369372Y-64235396D01*
X116588251Y-63907821D01*
X116866821Y-63629251D01*
X117194396Y-63410372D01*
X117558372Y-63259609D01*
X117944766Y-63182750D01*
X118338734Y-63182750D01*
X118725128Y-63259609D01*
X118725128Y-63259609D01*
G37*
G36*
X137775128Y-63259609D02*
X138139104Y-63410372D01*
X138466679Y-63629251D01*
X138745249Y-63907821D01*
X138964128Y-64235396D01*
X139114891Y-64599372D01*
X139191750Y-64985766D01*
X139191750Y-65379734D01*
X139114891Y-65766128D01*
X138964128Y-66130104D01*
X138745249Y-66457679D01*
X138466679Y-66736249D01*
X138139104Y-66955128D01*
X137775128Y-67105891D01*
X137388734Y-67182750D01*
X136994766Y-67182750D01*
X136608372Y-67105891D01*
X136244396Y-66955128D01*
X135916821Y-66736249D01*
X135638251Y-66457679D01*
X135419372Y-66130104D01*
X135268609Y-65766128D01*
X135191750Y-65379734D01*
X135191750Y-64985766D01*
X135268609Y-64599372D01*
X135419372Y-64235396D01*
X135638251Y-63907821D01*
X135916821Y-63629251D01*
X136244396Y-63410372D01*
X136608372Y-63259609D01*
X136994766Y-63182750D01*
X137388734Y-63182750D01*
X137775128Y-63259609D01*
X137775128Y-63259609D01*
G37*
G36*
X156825128Y-63259609D02*
X157189104Y-63410372D01*
X157516679Y-63629251D01*
X157795249Y-63907821D01*
X158014128Y-64235396D01*
X158164891Y-64599372D01*
X158241750Y-64985766D01*
X158241750Y-65379734D01*
X158164891Y-65766128D01*
X158014128Y-66130104D01*
X157795249Y-66457679D01*
X157516679Y-66736249D01*
X157189104Y-66955128D01*
X156825128Y-67105891D01*
X156438734Y-67182750D01*
X156044766Y-67182750D01*
X155658372Y-67105891D01*
X155294396Y-66955128D01*
X154966821Y-66736249D01*
X154688251Y-66457679D01*
X154469372Y-66130104D01*
X154318609Y-65766128D01*
X154241750Y-65379734D01*
X154241750Y-64985766D01*
X154318609Y-64599372D01*
X154469372Y-64235396D01*
X154688251Y-63907821D01*
X154966821Y-63629251D01*
X155294396Y-63410372D01*
X155658372Y-63259609D01*
X156044766Y-63182750D01*
X156438734Y-63182750D01*
X156825128Y-63259609D01*
X156825128Y-63259609D01*
G37*
G36*
X128020857Y-63942272D02*
X128221042Y-64025191D01*
X128401213Y-64145578D01*
X128554422Y-64298787D01*
X128674809Y-64478958D01*
X128757728Y-64679143D01*
X128800000Y-64891658D01*
X128800000Y-65108342D01*
X128757728Y-65320857D01*
X128674809Y-65521042D01*
X128554422Y-65701213D01*
X128401213Y-65854422D01*
X128221042Y-65974809D01*
X128020857Y-66057728D01*
X127808342Y-66100000D01*
X127591658Y-66100000D01*
X127379143Y-66057728D01*
X127178958Y-65974809D01*
X126998787Y-65854422D01*
X126845578Y-65701213D01*
X126725191Y-65521042D01*
X126642272Y-65320857D01*
X126600000Y-65108342D01*
X126600000Y-64891658D01*
X126642272Y-64679143D01*
X126725191Y-64478958D01*
X126845578Y-64298787D01*
X126998787Y-64145578D01*
X127178958Y-64025191D01*
X127379143Y-63942272D01*
X127591658Y-63900000D01*
X127808342Y-63900000D01*
X128020857Y-63942272D01*
X128020857Y-63942272D01*
G37*
G36*
X152752607Y-61585022D02*
X152952792Y-61667941D01*
X153132963Y-61788328D01*
X153286172Y-61941537D01*
X153406559Y-62121708D01*
X153489478Y-62321893D01*
X153531750Y-62534408D01*
X153531750Y-62751092D01*
X153489478Y-62963607D01*
X153406559Y-63163792D01*
X153286172Y-63343963D01*
X153132963Y-63497172D01*
X152952792Y-63617559D01*
X152752607Y-63700478D01*
X152540092Y-63742750D01*
X152323408Y-63742750D01*
X152110893Y-63700478D01*
X151910708Y-63617559D01*
X151730537Y-63497172D01*
X151577328Y-63343963D01*
X151456941Y-63163792D01*
X151374022Y-62963607D01*
X151331750Y-62751092D01*
X151331750Y-62534408D01*
X151374022Y-62321893D01*
X151456941Y-62121708D01*
X151577328Y-61941537D01*
X151730537Y-61788328D01*
X151910708Y-61667941D01*
X152110893Y-61585022D01*
X152323408Y-61542750D01*
X152540092Y-61542750D01*
X152752607Y-61585022D01*
X152752607Y-61585022D01*
G37*
G36*
X133702607Y-61585022D02*
X133902792Y-61667941D01*
X134082963Y-61788328D01*
X134236172Y-61941537D01*
X134356559Y-62121708D01*
X134439478Y-62321893D01*
X134481750Y-62534408D01*
X134481750Y-62751092D01*
X134439478Y-62963607D01*
X134356559Y-63163792D01*
X134236172Y-63343963D01*
X134082963Y-63497172D01*
X133902792Y-63617559D01*
X133702607Y-63700478D01*
X133490092Y-63742750D01*
X133273408Y-63742750D01*
X133060893Y-63700478D01*
X132860708Y-63617559D01*
X132680537Y-63497172D01*
X132527328Y-63343963D01*
X132406941Y-63163792D01*
X132324022Y-62963607D01*
X132281750Y-62751092D01*
X132281750Y-62534408D01*
X132324022Y-62321893D01*
X132406941Y-62121708D01*
X132527328Y-61941537D01*
X132680537Y-61788328D01*
X132860708Y-61667941D01*
X133060893Y-61585022D01*
X133273408Y-61542750D01*
X133490092Y-61542750D01*
X133702607Y-61585022D01*
X133702607Y-61585022D01*
G37*
G36*
X114652607Y-61585022D02*
X114852792Y-61667941D01*
X115032963Y-61788328D01*
X115186172Y-61941537D01*
X115306559Y-62121708D01*
X115389478Y-62321893D01*
X115431750Y-62534408D01*
X115431750Y-62751092D01*
X115389478Y-62963607D01*
X115306559Y-63163792D01*
X115186172Y-63343963D01*
X115032963Y-63497172D01*
X114852792Y-63617559D01*
X114652607Y-63700478D01*
X114440092Y-63742750D01*
X114223408Y-63742750D01*
X114010893Y-63700478D01*
X113810708Y-63617559D01*
X113630537Y-63497172D01*
X113477328Y-63343963D01*
X113356941Y-63163792D01*
X113274022Y-62963607D01*
X113231750Y-62751092D01*
X113231750Y-62534408D01*
X113274022Y-62321893D01*
X113356941Y-62121708D01*
X113477328Y-61941537D01*
X113630537Y-61788328D01*
X113810708Y-61667941D01*
X114010893Y-61585022D01*
X114223408Y-61542750D01*
X114440092Y-61542750D01*
X114652607Y-61585022D01*
X114652607Y-61585022D01*
G37*
G36*
X171802607Y-61585022D02*
X172002792Y-61667941D01*
X172182963Y-61788328D01*
X172336172Y-61941537D01*
X172456559Y-62121708D01*
X172539478Y-62321893D01*
X172581750Y-62534408D01*
X172581750Y-62751092D01*
X172539478Y-62963607D01*
X172456559Y-63163792D01*
X172336172Y-63343963D01*
X172182963Y-63497172D01*
X172002792Y-63617559D01*
X171802607Y-63700478D01*
X171590092Y-63742750D01*
X171373408Y-63742750D01*
X171160893Y-63700478D01*
X170960708Y-63617559D01*
X170780537Y-63497172D01*
X170627328Y-63343963D01*
X170506941Y-63163792D01*
X170424022Y-62963607D01*
X170381750Y-62751092D01*
X170381750Y-62534408D01*
X170424022Y-62321893D01*
X170506941Y-62121708D01*
X170627328Y-61941537D01*
X170780537Y-61788328D01*
X170960708Y-61667941D01*
X171160893Y-61585022D01*
X171373408Y-61542750D01*
X171590092Y-61542750D01*
X171802607Y-61585022D01*
X171802607Y-61585022D01*
G37*
G36*
X140052607Y-59045022D02*
X140252792Y-59127941D01*
X140432963Y-59248328D01*
X140586172Y-59401537D01*
X140706559Y-59581708D01*
X140789478Y-59781893D01*
X140831750Y-59994408D01*
X140831750Y-60211092D01*
X140789478Y-60423607D01*
X140706559Y-60623792D01*
X140586172Y-60803963D01*
X140432963Y-60957172D01*
X140252792Y-61077559D01*
X140052607Y-61160478D01*
X139840092Y-61202750D01*
X139623408Y-61202750D01*
X139410893Y-61160478D01*
X139210708Y-61077559D01*
X139030537Y-60957172D01*
X138877328Y-60803963D01*
X138756941Y-60623792D01*
X138674022Y-60423607D01*
X138631750Y-60211092D01*
X138631750Y-59994408D01*
X138674022Y-59781893D01*
X138756941Y-59581708D01*
X138877328Y-59401537D01*
X139030537Y-59248328D01*
X139210708Y-59127941D01*
X139410893Y-59045022D01*
X139623408Y-59002750D01*
X139840092Y-59002750D01*
X140052607Y-59045022D01*
X140052607Y-59045022D01*
G37*
G36*
X159102607Y-59045022D02*
X159302792Y-59127941D01*
X159482963Y-59248328D01*
X159636172Y-59401537D01*
X159756559Y-59581708D01*
X159839478Y-59781893D01*
X159881750Y-59994408D01*
X159881750Y-60211092D01*
X159839478Y-60423607D01*
X159756559Y-60623792D01*
X159636172Y-60803963D01*
X159482963Y-60957172D01*
X159302792Y-61077559D01*
X159102607Y-61160478D01*
X158890092Y-61202750D01*
X158673408Y-61202750D01*
X158460893Y-61160478D01*
X158260708Y-61077559D01*
X158080537Y-60957172D01*
X157927328Y-60803963D01*
X157806941Y-60623792D01*
X157724022Y-60423607D01*
X157681750Y-60211092D01*
X157681750Y-59994408D01*
X157724022Y-59781893D01*
X157806941Y-59581708D01*
X157927328Y-59401537D01*
X158080537Y-59248328D01*
X158260708Y-59127941D01*
X158460893Y-59045022D01*
X158673408Y-59002750D01*
X158890092Y-59002750D01*
X159102607Y-59045022D01*
X159102607Y-59045022D01*
G37*
G36*
X178152607Y-59045022D02*
X178352792Y-59127941D01*
X178532963Y-59248328D01*
X178686172Y-59401537D01*
X178806559Y-59581708D01*
X178889478Y-59781893D01*
X178931750Y-59994408D01*
X178931750Y-60211092D01*
X178889478Y-60423607D01*
X178806559Y-60623792D01*
X178686172Y-60803963D01*
X178532963Y-60957172D01*
X178352792Y-61077559D01*
X178152607Y-61160478D01*
X177940092Y-61202750D01*
X177723408Y-61202750D01*
X177510893Y-61160478D01*
X177310708Y-61077559D01*
X177130537Y-60957172D01*
X176977328Y-60803963D01*
X176856941Y-60623792D01*
X176774022Y-60423607D01*
X176731750Y-60211092D01*
X176731750Y-59994408D01*
X176774022Y-59781893D01*
X176856941Y-59581708D01*
X176977328Y-59401537D01*
X177130537Y-59248328D01*
X177310708Y-59127941D01*
X177510893Y-59045022D01*
X177723408Y-59002750D01*
X177940092Y-59002750D01*
X178152607Y-59045022D01*
X178152607Y-59045022D01*
G37*
G36*
X121002607Y-59045022D02*
X121202792Y-59127941D01*
X121382963Y-59248328D01*
X121536172Y-59401537D01*
X121656559Y-59581708D01*
X121739478Y-59781893D01*
X121781750Y-59994408D01*
X121781750Y-60211092D01*
X121739478Y-60423607D01*
X121656559Y-60623792D01*
X121536172Y-60803963D01*
X121382963Y-60957172D01*
X121202792Y-61077559D01*
X121002607Y-61160478D01*
X120790092Y-61202750D01*
X120573408Y-61202750D01*
X120360893Y-61160478D01*
X120160708Y-61077559D01*
X119980537Y-60957172D01*
X119827328Y-60803963D01*
X119706941Y-60623792D01*
X119624022Y-60423607D01*
X119581750Y-60211092D01*
X119581750Y-59994408D01*
X119624022Y-59781893D01*
X119706941Y-59581708D01*
X119827328Y-59401537D01*
X119980537Y-59248328D01*
X120160708Y-59127941D01*
X120360893Y-59045022D01*
X120573408Y-59002750D01*
X120790092Y-59002750D01*
X121002607Y-59045022D01*
X121002607Y-59045022D01*
G37*
G36*
X166120857Y-57742272D02*
X166321042Y-57825191D01*
X166501213Y-57945578D01*
X166654422Y-58098787D01*
X166774809Y-58278958D01*
X166857728Y-58479143D01*
X166900000Y-58691658D01*
X166900000Y-58908342D01*
X166857728Y-59120857D01*
X166774809Y-59321042D01*
X166654422Y-59501213D01*
X166501213Y-59654422D01*
X166321042Y-59774809D01*
X166120857Y-59857728D01*
X165908342Y-59900000D01*
X165691658Y-59900000D01*
X165479143Y-59857728D01*
X165278958Y-59774809D01*
X165098787Y-59654422D01*
X164945578Y-59501213D01*
X164825191Y-59321042D01*
X164742272Y-59120857D01*
X164700000Y-58908342D01*
X164700000Y-58691658D01*
X164742272Y-58479143D01*
X164825191Y-58278958D01*
X164945578Y-58098787D01*
X165098787Y-57945578D01*
X165278958Y-57825191D01*
X165479143Y-57742272D01*
X165691658Y-57700000D01*
X165908342Y-57700000D01*
X166120857Y-57742272D01*
X166120857Y-57742272D01*
G37*
G36*
X169400000Y-53550000D02*
X167800000Y-53550000D01*
X167800000Y-52150000D01*
X169400000Y-52150000D01*
X169400000Y-53550000D01*
X169400000Y-53550000D01*
G37*
G36*
X161400000Y-53550000D02*
X159800000Y-53550000D01*
X159800000Y-52150000D01*
X161400000Y-52150000D01*
X161400000Y-53550000D01*
X161400000Y-53550000D01*
G37*
G36*
X151532323Y-48034767D02*
X151659561Y-48073364D01*
X151776824Y-48136042D01*
X151879606Y-48220394D01*
X151963958Y-48323176D01*
X152026636Y-48440439D01*
X152065233Y-48567677D01*
X152078266Y-48700000D01*
X152065233Y-48832323D01*
X152026636Y-48959561D01*
X151963958Y-49076824D01*
X151879606Y-49179606D01*
X151776824Y-49263958D01*
X151659561Y-49326636D01*
X151532323Y-49365233D01*
X151433159Y-49375000D01*
X151366841Y-49375000D01*
X151267677Y-49365233D01*
X151140439Y-49326636D01*
X151023176Y-49263958D01*
X150920394Y-49179606D01*
X150836042Y-49076824D01*
X150773364Y-48959561D01*
X150734767Y-48832323D01*
X150721734Y-48700000D01*
X150734767Y-48567677D01*
X150773364Y-48440439D01*
X150836042Y-48323176D01*
X150920394Y-48220394D01*
X151023176Y-48136042D01*
X151140439Y-48073364D01*
X151267677Y-48034767D01*
X151366841Y-48025000D01*
X151433159Y-48025000D01*
X151532323Y-48034767D01*
X151532323Y-48034767D01*
G37*
G36*
X138455522Y-48054039D02*
X138489053Y-48064211D01*
X138519960Y-48080731D01*
X138547043Y-48102957D01*
X138569269Y-48130040D01*
X138585789Y-48160947D01*
X138595961Y-48194478D01*
X138600000Y-48235487D01*
X138600000Y-49014513D01*
X138595961Y-49055522D01*
X138585789Y-49089053D01*
X138569269Y-49119960D01*
X138547043Y-49147043D01*
X138519960Y-49169269D01*
X138489053Y-49185789D01*
X138455522Y-49195961D01*
X138414513Y-49200000D01*
X137385487Y-49200000D01*
X137344478Y-49195961D01*
X137310947Y-49185789D01*
X137280040Y-49169269D01*
X137252957Y-49147043D01*
X137230731Y-49119960D01*
X137214211Y-49089053D01*
X137204039Y-49055522D01*
X137200000Y-49014513D01*
X137200000Y-48235487D01*
X137204039Y-48194478D01*
X137214211Y-48160947D01*
X137230731Y-48130040D01*
X137252957Y-48102957D01*
X137280040Y-48080731D01*
X137310947Y-48064211D01*
X137344478Y-48054039D01*
X137385487Y-48050000D01*
X138414513Y-48050000D01*
X138455522Y-48054039D01*
X138455522Y-48054039D01*
G37*
G36*
X135355522Y-48054039D02*
X135389053Y-48064211D01*
X135419960Y-48080731D01*
X135447043Y-48102957D01*
X135469269Y-48130040D01*
X135485789Y-48160947D01*
X135495961Y-48194478D01*
X135500000Y-48235487D01*
X135500000Y-49014513D01*
X135495961Y-49055522D01*
X135485789Y-49089053D01*
X135469269Y-49119960D01*
X135447043Y-49147043D01*
X135419960Y-49169269D01*
X135389053Y-49185789D01*
X135355522Y-49195961D01*
X135314513Y-49200000D01*
X134285487Y-49200000D01*
X134244478Y-49195961D01*
X134210947Y-49185789D01*
X134180040Y-49169269D01*
X134152957Y-49147043D01*
X134130731Y-49119960D01*
X134114211Y-49089053D01*
X134104039Y-49055522D01*
X134100000Y-49014513D01*
X134100000Y-48235487D01*
X134104039Y-48194478D01*
X134114211Y-48160947D01*
X134130731Y-48130040D01*
X134152957Y-48102957D01*
X134180040Y-48080731D01*
X134210947Y-48064211D01*
X134244478Y-48054039D01*
X134285487Y-48050000D01*
X135314513Y-48050000D01*
X135355522Y-48054039D01*
X135355522Y-48054039D01*
G37*
G36*
X169400000Y-49050000D02*
X167800000Y-49050000D01*
X167800000Y-47650000D01*
X169400000Y-47650000D01*
X169400000Y-49050000D01*
X169400000Y-49050000D01*
G37*
G36*
X161400000Y-49050000D02*
X159800000Y-49050000D01*
X159800000Y-47650000D01*
X161400000Y-47650000D01*
X161400000Y-49050000D01*
X161400000Y-49050000D01*
G37*
G36*
X151532323Y-46034767D02*
X151659561Y-46073364D01*
X151776824Y-46136042D01*
X151879606Y-46220394D01*
X151963958Y-46323176D01*
X152026636Y-46440439D01*
X152065233Y-46567677D01*
X152078266Y-46700000D01*
X152065233Y-46832323D01*
X152026636Y-46959561D01*
X151963958Y-47076824D01*
X151879606Y-47179606D01*
X151776824Y-47263958D01*
X151659561Y-47326636D01*
X151532323Y-47365233D01*
X151433159Y-47375000D01*
X151366841Y-47375000D01*
X151267677Y-47365233D01*
X151140439Y-47326636D01*
X151023176Y-47263958D01*
X150920394Y-47179606D01*
X150836042Y-47076824D01*
X150773364Y-46959561D01*
X150734767Y-46832323D01*
X150721734Y-46700000D01*
X150734767Y-46567677D01*
X150773364Y-46440439D01*
X150836042Y-46323176D01*
X150920394Y-46220394D01*
X151023176Y-46136042D01*
X151140439Y-46073364D01*
X151267677Y-46034767D01*
X151366841Y-46025000D01*
X151433159Y-46025000D01*
X151532323Y-46034767D01*
X151532323Y-46034767D01*
G37*
G36*
X135355522Y-46004039D02*
X135389053Y-46014211D01*
X135419960Y-46030731D01*
X135447043Y-46052957D01*
X135469269Y-46080040D01*
X135485789Y-46110947D01*
X135495961Y-46144478D01*
X135500000Y-46185487D01*
X135500000Y-46964513D01*
X135495961Y-47005522D01*
X135485789Y-47039053D01*
X135469269Y-47069960D01*
X135447043Y-47097043D01*
X135419960Y-47119269D01*
X135389053Y-47135789D01*
X135355522Y-47145961D01*
X135314513Y-47150000D01*
X134285487Y-47150000D01*
X134244478Y-47145961D01*
X134210947Y-47135789D01*
X134180040Y-47119269D01*
X134152957Y-47097043D01*
X134130731Y-47069960D01*
X134114211Y-47039053D01*
X134104039Y-47005522D01*
X134100000Y-46964513D01*
X134100000Y-46185487D01*
X134104039Y-46144478D01*
X134114211Y-46110947D01*
X134130731Y-46080040D01*
X134152957Y-46052957D01*
X134180040Y-46030731D01*
X134210947Y-46014211D01*
X134244478Y-46004039D01*
X134285487Y-46000000D01*
X135314513Y-46000000D01*
X135355522Y-46004039D01*
X135355522Y-46004039D01*
G37*
G36*
X138455522Y-46004039D02*
X138489053Y-46014211D01*
X138519960Y-46030731D01*
X138547043Y-46052957D01*
X138569269Y-46080040D01*
X138585789Y-46110947D01*
X138595961Y-46144478D01*
X138600000Y-46185487D01*
X138600000Y-46964513D01*
X138595961Y-47005522D01*
X138585789Y-47039053D01*
X138569269Y-47069960D01*
X138547043Y-47097043D01*
X138519960Y-47119269D01*
X138489053Y-47135789D01*
X138455522Y-47145961D01*
X138414513Y-47150000D01*
X137385487Y-47150000D01*
X137344478Y-47145961D01*
X137310947Y-47135789D01*
X137280040Y-47119269D01*
X137252957Y-47097043D01*
X137230731Y-47069960D01*
X137214211Y-47039053D01*
X137204039Y-47005522D01*
X137200000Y-46964513D01*
X137200000Y-46185487D01*
X137204039Y-46144478D01*
X137214211Y-46110947D01*
X137230731Y-46080040D01*
X137252957Y-46052957D01*
X137280040Y-46030731D01*
X137310947Y-46014211D01*
X137344478Y-46004039D01*
X137385487Y-46000000D01*
X138414513Y-46000000D01*
X138455522Y-46004039D01*
X138455522Y-46004039D01*
G37*
G36*
X151532323Y-44034767D02*
X151659561Y-44073364D01*
X151776824Y-44136042D01*
X151879606Y-44220394D01*
X151963958Y-44323176D01*
X152026636Y-44440439D01*
X152065233Y-44567677D01*
X152078266Y-44700000D01*
X152065233Y-44832323D01*
X152026636Y-44959561D01*
X151963958Y-45076824D01*
X151879606Y-45179606D01*
X151776824Y-45263958D01*
X151659561Y-45326636D01*
X151532323Y-45365233D01*
X151433159Y-45375000D01*
X151366841Y-45375000D01*
X151267677Y-45365233D01*
X151140439Y-45326636D01*
X151023176Y-45263958D01*
X150920394Y-45179606D01*
X150836042Y-45076824D01*
X150773364Y-44959561D01*
X150734767Y-44832323D01*
X150721734Y-44700000D01*
X150734767Y-44567677D01*
X150773364Y-44440439D01*
X150836042Y-44323176D01*
X150920394Y-44220394D01*
X151023176Y-44136042D01*
X151140439Y-44073364D01*
X151267677Y-44034767D01*
X151366841Y-44025000D01*
X151433159Y-44025000D01*
X151532323Y-44034767D01*
X151532323Y-44034767D01*
G37*
G36*
X141018015Y-41487234D02*
X141112268Y-41515825D01*
X141158697Y-41540643D01*
X141199129Y-41562254D01*
X141199131Y-41562255D01*
X141199130Y-41562255D01*
X141275264Y-41624736D01*
X141337745Y-41700870D01*
X141384175Y-41787732D01*
X141412766Y-41881985D01*
X141420000Y-41955436D01*
X141420000Y-43104564D01*
X141412766Y-43178015D01*
X141384175Y-43272268D01*
X141359357Y-43318697D01*
X141337748Y-43359126D01*
X141337745Y-43359130D01*
X141275267Y-43435261D01*
X141275265Y-43435262D01*
X141275264Y-43435264D01*
X141199129Y-43497746D01*
X141153063Y-43522369D01*
X141112267Y-43544175D01*
X141018014Y-43572766D01*
X140920000Y-43582419D01*
X140821985Y-43572766D01*
X140727732Y-43544175D01*
X140681303Y-43519357D01*
X140640871Y-43497746D01*
X140621837Y-43482126D01*
X140564739Y-43435267D01*
X140564738Y-43435265D01*
X140564736Y-43435264D01*
X140502254Y-43359129D01*
X140455826Y-43272268D01*
X140455825Y-43272267D01*
X140427234Y-43178014D01*
X140420000Y-43104563D01*
X140420001Y-41955436D01*
X140427235Y-41881985D01*
X140455826Y-41787732D01*
X140502256Y-41700870D01*
X140564737Y-41624736D01*
X140640871Y-41562255D01*
X140640870Y-41562255D01*
X140640872Y-41562254D01*
X140681304Y-41540643D01*
X140727733Y-41515825D01*
X140821986Y-41487234D01*
X140920000Y-41477581D01*
X141018015Y-41487234D01*
X141018015Y-41487234D01*
G37*
G36*
X132378015Y-41487234D02*
X132472268Y-41515825D01*
X132518697Y-41540643D01*
X132559129Y-41562254D01*
X132559131Y-41562255D01*
X132559130Y-41562255D01*
X132635264Y-41624736D01*
X132697745Y-41700870D01*
X132744175Y-41787732D01*
X132772766Y-41881985D01*
X132780000Y-41955436D01*
X132780000Y-43104564D01*
X132772766Y-43178015D01*
X132744175Y-43272268D01*
X132719357Y-43318697D01*
X132697748Y-43359126D01*
X132697745Y-43359130D01*
X132635267Y-43435261D01*
X132635265Y-43435262D01*
X132635264Y-43435264D01*
X132559129Y-43497746D01*
X132513063Y-43522369D01*
X132472267Y-43544175D01*
X132378014Y-43572766D01*
X132280000Y-43582419D01*
X132181985Y-43572766D01*
X132087732Y-43544175D01*
X132041303Y-43519357D01*
X132000871Y-43497746D01*
X131981837Y-43482126D01*
X131924739Y-43435267D01*
X131924738Y-43435265D01*
X131924736Y-43435264D01*
X131862254Y-43359129D01*
X131815826Y-43272268D01*
X131815825Y-43272267D01*
X131787234Y-43178014D01*
X131780000Y-43104563D01*
X131780001Y-41955436D01*
X131787235Y-41881985D01*
X131815826Y-41787732D01*
X131862256Y-41700870D01*
X131924737Y-41624736D01*
X132000871Y-41562255D01*
X132000870Y-41562255D01*
X132000872Y-41562254D01*
X132041304Y-41540643D01*
X132087733Y-41515825D01*
X132181986Y-41487234D01*
X132280000Y-41477581D01*
X132378015Y-41487234D01*
X132378015Y-41487234D01*
G37*
G36*
X152075000Y-43375000D02*
X150725000Y-43375000D01*
X150725000Y-42025000D01*
X152075000Y-42025000D01*
X152075000Y-43375000D01*
X152075000Y-43375000D01*
G37*
G36*
X161450000Y-43325000D02*
X159850000Y-43325000D01*
X159850000Y-41925000D01*
X161450000Y-41925000D01*
X161450000Y-43325000D01*
X161450000Y-43325000D01*
G37*
G36*
X169450000Y-43325000D02*
X167850000Y-43325000D01*
X167850000Y-41925000D01*
X169450000Y-41925000D01*
X169450000Y-43325000D01*
X169450000Y-43325000D01*
G37*
G36*
X139584799Y-41687489D02*
X139619293Y-41701777D01*
X139643941Y-41711986D01*
X139643942Y-41711987D01*
X139643945Y-41711988D01*
X139697176Y-41747556D01*
X139742444Y-41792824D01*
X139778012Y-41846055D01*
X139802511Y-41905201D01*
X139815000Y-41967990D01*
X139815000Y-42032010D01*
X139802511Y-42094799D01*
X139778012Y-42153945D01*
X139742444Y-42207176D01*
X139697176Y-42252444D01*
X139643945Y-42288012D01*
X139643942Y-42288013D01*
X139643941Y-42288014D01*
X139630543Y-42293563D01*
X139584799Y-42312511D01*
X139522010Y-42325000D01*
X139457990Y-42325000D01*
X139395201Y-42312511D01*
X139349457Y-42293563D01*
X139336059Y-42288014D01*
X139336058Y-42288013D01*
X139336055Y-42288012D01*
X139282824Y-42252444D01*
X139237556Y-42207176D01*
X139201988Y-42153945D01*
X139177489Y-42094799D01*
X139165000Y-42032010D01*
X139165000Y-41967990D01*
X139177489Y-41905201D01*
X139201988Y-41846055D01*
X139237556Y-41792824D01*
X139282824Y-41747556D01*
X139336055Y-41711988D01*
X139336058Y-41711987D01*
X139336059Y-41711986D01*
X139360707Y-41701777D01*
X139395201Y-41687489D01*
X139457990Y-41675000D01*
X139522010Y-41675000D01*
X139584799Y-41687489D01*
X139584799Y-41687489D01*
G37*
G36*
X133804799Y-41687489D02*
X133839293Y-41701777D01*
X133863941Y-41711986D01*
X133863942Y-41711987D01*
X133863945Y-41711988D01*
X133917176Y-41747556D01*
X133962444Y-41792824D01*
X133998012Y-41846055D01*
X134022511Y-41905201D01*
X134035000Y-41967990D01*
X134035000Y-42032010D01*
X134022511Y-42094799D01*
X133998012Y-42153945D01*
X133962444Y-42207176D01*
X133917176Y-42252444D01*
X133863945Y-42288012D01*
X133863942Y-42288013D01*
X133863941Y-42288014D01*
X133850543Y-42293563D01*
X133804799Y-42312511D01*
X133742010Y-42325000D01*
X133677990Y-42325000D01*
X133615201Y-42312511D01*
X133569457Y-42293563D01*
X133556059Y-42288014D01*
X133556058Y-42288013D01*
X133556055Y-42288012D01*
X133502824Y-42252444D01*
X133457556Y-42207176D01*
X133421988Y-42153945D01*
X133397489Y-42094799D01*
X133385000Y-42032010D01*
X133385000Y-41967990D01*
X133397489Y-41905201D01*
X133421988Y-41846055D01*
X133457556Y-41792824D01*
X133502824Y-41747556D01*
X133556055Y-41711988D01*
X133556058Y-41711987D01*
X133556059Y-41711986D01*
X133580707Y-41701777D01*
X133615201Y-41687489D01*
X133677990Y-41675000D01*
X133742010Y-41675000D01*
X133804799Y-41687489D01*
X133804799Y-41687489D01*
G37*
G36*
X136155522Y-40629039D02*
X136189053Y-40639211D01*
X136219960Y-40655731D01*
X136247043Y-40677957D01*
X136269269Y-40705040D01*
X136285789Y-40735947D01*
X136295961Y-40769478D01*
X136300000Y-40810487D01*
X136300000Y-41589513D01*
X136295961Y-41630522D01*
X136285789Y-41664053D01*
X136269269Y-41694960D01*
X136247043Y-41722043D01*
X136219960Y-41744269D01*
X136189053Y-41760789D01*
X136155522Y-41770961D01*
X136114513Y-41775000D01*
X135085487Y-41775000D01*
X135044478Y-41770961D01*
X135010947Y-41760789D01*
X134980040Y-41744269D01*
X134952957Y-41722043D01*
X134930731Y-41694960D01*
X134914211Y-41664053D01*
X134904039Y-41630522D01*
X134900000Y-41589513D01*
X134900000Y-40810487D01*
X134904039Y-40769478D01*
X134914211Y-40735947D01*
X134930731Y-40705040D01*
X134952957Y-40677957D01*
X134980040Y-40655731D01*
X135010947Y-40639211D01*
X135044478Y-40629039D01*
X135085487Y-40625000D01*
X136114513Y-40625000D01*
X136155522Y-40629039D01*
X136155522Y-40629039D01*
G37*
G36*
X138355522Y-40620174D02*
X138389053Y-40630346D01*
X138419960Y-40646866D01*
X138447043Y-40669092D01*
X138469269Y-40696175D01*
X138485789Y-40727082D01*
X138495961Y-40760613D01*
X138500000Y-40801622D01*
X138500000Y-41580648D01*
X138495961Y-41621657D01*
X138485789Y-41655188D01*
X138469269Y-41686095D01*
X138447043Y-41713178D01*
X138419960Y-41735404D01*
X138389053Y-41751924D01*
X138355522Y-41762096D01*
X138314513Y-41766135D01*
X137285487Y-41766135D01*
X137244478Y-41762096D01*
X137210947Y-41751924D01*
X137180040Y-41735404D01*
X137152957Y-41713178D01*
X137130731Y-41686095D01*
X137114211Y-41655188D01*
X137104039Y-41621657D01*
X137100000Y-41580648D01*
X137100000Y-40801622D01*
X137104039Y-40760613D01*
X137114211Y-40727082D01*
X137130731Y-40696175D01*
X137152957Y-40669092D01*
X137180040Y-40646866D01*
X137210947Y-40630346D01*
X137244478Y-40620174D01*
X137285487Y-40616135D01*
X138314513Y-40616135D01*
X138355522Y-40620174D01*
X138355522Y-40620174D01*
G37*
G36*
X113150000Y-41400000D02*
X111550000Y-41400000D01*
X111550000Y-40550000D01*
X113150000Y-40550000D01*
X113150000Y-41400000D01*
X113150000Y-41400000D01*
G37*
G36*
X182250000Y-41400000D02*
X180650000Y-41400000D01*
X180650000Y-40550000D01*
X182250000Y-40550000D01*
X182250000Y-41400000D01*
X182250000Y-41400000D01*
G37*
G36*
X116650000Y-41400000D02*
X115050000Y-41400000D01*
X115050000Y-40550000D01*
X116650000Y-40550000D01*
X116650000Y-41400000D01*
X116650000Y-41400000D01*
G37*
G36*
X178750000Y-41400000D02*
X177150000Y-41400000D01*
X177150000Y-40550000D01*
X178750000Y-40550000D01*
X178750000Y-41400000D01*
X178750000Y-41400000D01*
G37*
G36*
X145750000Y-41300000D02*
X144150000Y-41300000D01*
X144150000Y-40450000D01*
X145750000Y-40450000D01*
X145750000Y-41300000D01*
X145750000Y-41300000D01*
G37*
G36*
X149250000Y-41300000D02*
X147650000Y-41300000D01*
X147650000Y-40450000D01*
X149250000Y-40450000D01*
X149250000Y-41300000D01*
X149250000Y-41300000D01*
G37*
G36*
X136155522Y-38579039D02*
X136189053Y-38589211D01*
X136219960Y-38605731D01*
X136247043Y-38627957D01*
X136269269Y-38655040D01*
X136285789Y-38685947D01*
X136295961Y-38719478D01*
X136300000Y-38760487D01*
X136300000Y-39539513D01*
X136295961Y-39580522D01*
X136285789Y-39614053D01*
X136269269Y-39644960D01*
X136247043Y-39672043D01*
X136219960Y-39694269D01*
X136189053Y-39710789D01*
X136155522Y-39720961D01*
X136114513Y-39725000D01*
X135085487Y-39725000D01*
X135044478Y-39720961D01*
X135010947Y-39710789D01*
X134980040Y-39694269D01*
X134952957Y-39672043D01*
X134930731Y-39644960D01*
X134914211Y-39614053D01*
X134904039Y-39580522D01*
X134900000Y-39539513D01*
X134900000Y-38760487D01*
X134904039Y-38719478D01*
X134914211Y-38685947D01*
X134930731Y-38655040D01*
X134952957Y-38627957D01*
X134980040Y-38605731D01*
X135010947Y-38589211D01*
X135044478Y-38579039D01*
X135085487Y-38575000D01*
X136114513Y-38575000D01*
X136155522Y-38579039D01*
X136155522Y-38579039D01*
G37*
G36*
X138355522Y-38570174D02*
X138389053Y-38580346D01*
X138419960Y-38596866D01*
X138447043Y-38619092D01*
X138469269Y-38646175D01*
X138485789Y-38677082D01*
X138495961Y-38710613D01*
X138500000Y-38751622D01*
X138500000Y-39530648D01*
X138495961Y-39571657D01*
X138485789Y-39605188D01*
X138469269Y-39636095D01*
X138447043Y-39663178D01*
X138419960Y-39685404D01*
X138389053Y-39701924D01*
X138355522Y-39712096D01*
X138314513Y-39716135D01*
X137285487Y-39716135D01*
X137244478Y-39712096D01*
X137210947Y-39701924D01*
X137180040Y-39685404D01*
X137152957Y-39663178D01*
X137130731Y-39636095D01*
X137114211Y-39605188D01*
X137104039Y-39571657D01*
X137100000Y-39530648D01*
X137100000Y-38751622D01*
X137104039Y-38710613D01*
X137114211Y-38677082D01*
X137130731Y-38646175D01*
X137152957Y-38619092D01*
X137180040Y-38596866D01*
X137210947Y-38580346D01*
X137244478Y-38570174D01*
X137285487Y-38566135D01*
X138314513Y-38566135D01*
X138355522Y-38570174D01*
X138355522Y-38570174D01*
G37*
G36*
X113150000Y-39650000D02*
X111550000Y-39650000D01*
X111550000Y-38800000D01*
X113150000Y-38800000D01*
X113150000Y-39650000D01*
X113150000Y-39650000D01*
G37*
G36*
X182250000Y-39650000D02*
X180650000Y-39650000D01*
X180650000Y-38800000D01*
X182250000Y-38800000D01*
X182250000Y-39650000D01*
X182250000Y-39650000D01*
G37*
G36*
X116650000Y-39650000D02*
X115050000Y-39650000D01*
X115050000Y-38800000D01*
X116650000Y-38800000D01*
X116650000Y-39650000D01*
X116650000Y-39650000D01*
G37*
G36*
X178750000Y-39650000D02*
X177150000Y-39650000D01*
X177150000Y-38800000D01*
X178750000Y-38800000D01*
X178750000Y-39650000D01*
X178750000Y-39650000D01*
G37*
G36*
X149250000Y-39550000D02*
X147650000Y-39550000D01*
X147650000Y-38700000D01*
X149250000Y-38700000D01*
X149250000Y-39550000D01*
X149250000Y-39550000D01*
G37*
G36*
X145750000Y-39550000D02*
X144150000Y-39550000D01*
X144150000Y-38700000D01*
X145750000Y-38700000D01*
X145750000Y-39550000D01*
X145750000Y-39550000D01*
G37*
G36*
X141018015Y-37557234D02*
X141112268Y-37585825D01*
X141158697Y-37610643D01*
X141199129Y-37632254D01*
X141275264Y-37694736D01*
X141337744Y-37770868D01*
X141337745Y-37770870D01*
X141384175Y-37857732D01*
X141412766Y-37951985D01*
X141420000Y-38025436D01*
X141420000Y-38674564D01*
X141412766Y-38748015D01*
X141384175Y-38842268D01*
X141359357Y-38888697D01*
X141337748Y-38929126D01*
X141337745Y-38929130D01*
X141275267Y-39005261D01*
X141275265Y-39005262D01*
X141275264Y-39005264D01*
X141199129Y-39067746D01*
X141153063Y-39092369D01*
X141112267Y-39114175D01*
X141018014Y-39142766D01*
X140920000Y-39152419D01*
X140821985Y-39142766D01*
X140727732Y-39114175D01*
X140681303Y-39089357D01*
X140640871Y-39067746D01*
X140621837Y-39052126D01*
X140564739Y-39005267D01*
X140564738Y-39005265D01*
X140564736Y-39005264D01*
X140502254Y-38929129D01*
X140455826Y-38842268D01*
X140455825Y-38842267D01*
X140427234Y-38748014D01*
X140420000Y-38674563D01*
X140420000Y-38025436D01*
X140427234Y-37951985D01*
X140455824Y-37857735D01*
X140502257Y-37770868D01*
X140564737Y-37694736D01*
X140640871Y-37632255D01*
X140640870Y-37632255D01*
X140640872Y-37632254D01*
X140681304Y-37610643D01*
X140727733Y-37585825D01*
X140821986Y-37557234D01*
X140920000Y-37547581D01*
X141018015Y-37557234D01*
X141018015Y-37557234D01*
G37*
G36*
X132378015Y-37557234D02*
X132472268Y-37585825D01*
X132518697Y-37610643D01*
X132559129Y-37632254D01*
X132635264Y-37694736D01*
X132697744Y-37770868D01*
X132697745Y-37770870D01*
X132744175Y-37857732D01*
X132772766Y-37951985D01*
X132780000Y-38025436D01*
X132780000Y-38674564D01*
X132772766Y-38748015D01*
X132744175Y-38842268D01*
X132719357Y-38888697D01*
X132697748Y-38929126D01*
X132697745Y-38929130D01*
X132635267Y-39005261D01*
X132635265Y-39005262D01*
X132635264Y-39005264D01*
X132559129Y-39067746D01*
X132513063Y-39092369D01*
X132472267Y-39114175D01*
X132378014Y-39142766D01*
X132280000Y-39152419D01*
X132181985Y-39142766D01*
X132087732Y-39114175D01*
X132041303Y-39089357D01*
X132000871Y-39067746D01*
X131981837Y-39052126D01*
X131924739Y-39005267D01*
X131924738Y-39005265D01*
X131924736Y-39005264D01*
X131862254Y-38929129D01*
X131815826Y-38842268D01*
X131815825Y-38842267D01*
X131787234Y-38748014D01*
X131780000Y-38674563D01*
X131780000Y-38025436D01*
X131787234Y-37951985D01*
X131815824Y-37857735D01*
X131862257Y-37770868D01*
X131924737Y-37694736D01*
X132000871Y-37632255D01*
X132000870Y-37632255D01*
X132000872Y-37632254D01*
X132041304Y-37610643D01*
X132087733Y-37585825D01*
X132181986Y-37557234D01*
X132280000Y-37547581D01*
X132378015Y-37557234D01*
X132378015Y-37557234D01*
G37*
G36*
X161450000Y-38825000D02*
X159850000Y-38825000D01*
X159850000Y-37425000D01*
X161450000Y-37425000D01*
X161450000Y-38825000D01*
X161450000Y-38825000D01*
G37*
G36*
X169450000Y-38825000D02*
X167850000Y-38825000D01*
X167850000Y-37425000D01*
X169450000Y-37425000D01*
X169450000Y-38825000D01*
X169450000Y-38825000D01*
G37*
M02*
