G04 #@! TF.GenerationSoftware,KiCad,Pcbnew,5.0.1*
G04 #@! TF.CreationDate,2019-01-11T20:34:33+01:00*
G04 #@! TF.ProjectId,keypad,6B65797061642E6B696361645F706362,rev?*
G04 #@! TF.SameCoordinates,Original*
G04 #@! TF.FileFunction,Legend,Bot*
G04 #@! TF.FilePolarity,Positive*
%FSLAX46Y46*%
G04 Gerber Fmt 4.6, Leading zero omitted, Abs format (unit mm)*
G04 Created by KiCad (PCBNEW 5.0.1) date Fri 11 Jan 2019 08:34:33 PM CET*
%MOMM*%
%LPD*%
G01*
G04 APERTURE LIST*
%ADD10C,0.127000*%
%ADD11C,0.300000*%
%ADD12C,0.120000*%
%ADD13C,0.150000*%
G04 APERTURE END LIST*
D10*
X125505663Y-52069873D02*
X126467913Y-50403207D01*
X126467913Y-50403207D02*
X132045264Y-50403207D01*
X131083013Y-52069873D02*
X125505663Y-52069873D01*
X130650000Y-52319873D02*
X128150000Y-56650000D01*
X119926461Y-56900000D02*
X125543162Y-56900000D01*
X121330637Y-54467898D02*
X119926461Y-56900000D01*
X125543162Y-56900000D02*
X121330637Y-54467898D01*
X121455637Y-54251391D02*
X125667149Y-56682909D01*
X121872303Y-53529704D02*
X121455637Y-54251391D01*
X124833816Y-55239534D02*
X121872303Y-53529704D01*
X125667149Y-56682909D02*
X124833816Y-55239534D01*
X132478276Y-50153207D02*
X132261770Y-50278207D01*
X137768803Y-59316667D02*
X132478276Y-50153207D01*
X137480127Y-59316667D02*
X137768803Y-59316667D01*
X132261770Y-50278207D02*
X137480127Y-59316667D01*
X129545264Y-45073080D02*
X126736913Y-49937285D01*
X130949439Y-47505182D02*
X129545264Y-45073080D01*
X126736913Y-49937285D02*
X130949439Y-47505182D01*
X131074439Y-47721689D02*
X126862926Y-50153207D01*
X135266951Y-59316667D02*
X131083013Y-52069873D01*
X137191452Y-59316667D02*
X135266951Y-59316667D01*
X129400926Y-44823080D02*
X125216988Y-52069873D01*
X128438676Y-43156413D02*
X129400926Y-44823080D01*
X123292487Y-52069873D02*
X128438676Y-43156413D01*
X126081162Y-56900000D02*
X123292487Y-52069873D01*
X128005663Y-56900000D02*
X126081162Y-56900000D01*
X125216988Y-52069873D02*
X128005663Y-56900000D01*
X125650000Y-52319873D02*
X130650000Y-52319873D01*
X132045264Y-50403207D02*
X137191452Y-59316667D01*
X132169926Y-59316667D02*
X134978276Y-59316667D01*
X119782124Y-57150000D02*
X128150000Y-57150000D01*
X118819873Y-58816667D02*
X119782124Y-57150000D01*
X129112251Y-58816667D02*
X118819873Y-58816667D01*
X131900926Y-53986540D02*
X129112251Y-58816667D01*
X130938676Y-52319873D02*
X131900926Y-53986540D01*
X128150000Y-57150000D02*
X130938676Y-52319873D01*
X122859474Y-51819873D02*
X123075980Y-51944873D01*
X128150000Y-42656413D02*
X122859474Y-51819873D01*
X128294338Y-42906413D02*
X128150000Y-42656413D01*
X123075980Y-51944873D02*
X128294338Y-42906413D01*
X131086593Y-59316667D02*
X131919926Y-59316667D01*
X131086593Y-55897007D02*
X131086593Y-59316667D01*
X131919926Y-54453631D02*
X131086593Y-55897007D01*
X131919926Y-59316667D02*
X131919926Y-54453631D01*
X132169926Y-54452462D02*
X132169926Y-59316667D01*
X134978276Y-59316667D02*
X132169926Y-54452462D01*
X131491105Y-48443377D02*
X131074439Y-47721689D01*
X128529593Y-50153207D02*
X131491105Y-48443377D01*
X126862926Y-50153207D02*
X128529593Y-50153207D01*
X129112251Y-59316667D02*
X129112251Y-59066667D01*
X118531198Y-59316667D02*
X129112251Y-59316667D01*
X118675536Y-59066667D02*
X118531198Y-59316667D01*
X129112251Y-59066667D02*
X118675536Y-59066667D01*
X128150000Y-56650000D02*
X125650000Y-52319873D01*
D11*
X121021428Y-42928571D02*
X121021428Y-44142857D01*
X120950000Y-44285714D01*
X120878571Y-44357142D01*
X120735714Y-44428571D01*
X120450000Y-44428571D01*
X120307142Y-44357142D01*
X120235714Y-44285714D01*
X120164285Y-44142857D01*
X120164285Y-42928571D01*
X119521428Y-44357142D02*
X119307142Y-44428571D01*
X118950000Y-44428571D01*
X118807142Y-44357142D01*
X118735714Y-44285714D01*
X118664285Y-44142857D01*
X118664285Y-44000000D01*
X118735714Y-43857142D01*
X118807142Y-43785714D01*
X118950000Y-43714285D01*
X119235714Y-43642857D01*
X119378571Y-43571428D01*
X119450000Y-43500000D01*
X119521428Y-43357142D01*
X119521428Y-43214285D01*
X119450000Y-43071428D01*
X119378571Y-43000000D01*
X119235714Y-42928571D01*
X118878571Y-42928571D01*
X118664285Y-43000000D01*
X117164285Y-44285714D02*
X117235714Y-44357142D01*
X117450000Y-44428571D01*
X117592857Y-44428571D01*
X117807142Y-44357142D01*
X117950000Y-44214285D01*
X118021428Y-44071428D01*
X118092857Y-43785714D01*
X118092857Y-43571428D01*
X118021428Y-43285714D01*
X117950000Y-43142857D01*
X117807142Y-43000000D01*
X117592857Y-42928571D01*
X117450000Y-42928571D01*
X117235714Y-43000000D01*
X117164285Y-43071428D01*
X116592857Y-44357142D02*
X116378571Y-44428571D01*
X116021428Y-44428571D01*
X115878571Y-44357142D01*
X115807142Y-44285714D01*
X115735714Y-44142857D01*
X115735714Y-44000000D01*
X115807142Y-43857142D01*
X115878571Y-43785714D01*
X116021428Y-43714285D01*
X116307142Y-43642857D01*
X116450000Y-43571428D01*
X116521428Y-43500000D01*
X116592857Y-43357142D01*
X116592857Y-43214285D01*
X116521428Y-43071428D01*
X116450000Y-43000000D01*
X116307142Y-42928571D01*
X115950000Y-42928571D01*
X115735714Y-43000000D01*
X115164285Y-44357142D02*
X114950000Y-44428571D01*
X114592857Y-44428571D01*
X114450000Y-44357142D01*
X114378571Y-44285714D01*
X114307142Y-44142857D01*
X114307142Y-44000000D01*
X114378571Y-43857142D01*
X114450000Y-43785714D01*
X114592857Y-43714285D01*
X114878571Y-43642857D01*
X115021428Y-43571428D01*
X115092857Y-43500000D01*
X115164285Y-43357142D01*
X115164285Y-43214285D01*
X115092857Y-43071428D01*
X115021428Y-43000000D01*
X114878571Y-42928571D01*
X114521428Y-42928571D01*
X114307142Y-43000000D01*
X123378571Y-46978571D02*
X123378571Y-45478571D01*
X122521428Y-46978571D01*
X122521428Y-45478571D01*
X121521428Y-45478571D02*
X121235714Y-45478571D01*
X121092857Y-45550000D01*
X120950000Y-45692857D01*
X120878571Y-45978571D01*
X120878571Y-46478571D01*
X120950000Y-46764285D01*
X121092857Y-46907142D01*
X121235714Y-46978571D01*
X121521428Y-46978571D01*
X121664285Y-46907142D01*
X121807142Y-46764285D01*
X121878571Y-46478571D01*
X121878571Y-45978571D01*
X121807142Y-45692857D01*
X121664285Y-45550000D01*
X121521428Y-45478571D01*
X120307142Y-46907142D02*
X120092857Y-46978571D01*
X119735714Y-46978571D01*
X119592857Y-46907142D01*
X119521428Y-46835714D01*
X119450000Y-46692857D01*
X119450000Y-46550000D01*
X119521428Y-46407142D01*
X119592857Y-46335714D01*
X119735714Y-46264285D01*
X120021428Y-46192857D01*
X120164285Y-46121428D01*
X120235714Y-46050000D01*
X120307142Y-45907142D01*
X120307142Y-45764285D01*
X120235714Y-45621428D01*
X120164285Y-45550000D01*
X120021428Y-45478571D01*
X119664285Y-45478571D01*
X119450000Y-45550000D01*
X119021428Y-45478571D02*
X118164285Y-45478571D01*
X118592857Y-46978571D02*
X118592857Y-45478571D01*
X116807142Y-46978571D02*
X117307142Y-46264285D01*
X117664285Y-46978571D02*
X117664285Y-45478571D01*
X117092857Y-45478571D01*
X116950000Y-45550000D01*
X116878571Y-45621428D01*
X116807142Y-45764285D01*
X116807142Y-45978571D01*
X116878571Y-46121428D01*
X116950000Y-46192857D01*
X117092857Y-46264285D01*
X117664285Y-46264285D01*
X115878571Y-45478571D02*
X115592857Y-45478571D01*
X115450000Y-45550000D01*
X115307142Y-45692857D01*
X115235714Y-45978571D01*
X115235714Y-46478571D01*
X115307142Y-46764285D01*
X115450000Y-46907142D01*
X115592857Y-46978571D01*
X115878571Y-46978571D01*
X116021428Y-46907142D01*
X116164285Y-46764285D01*
X116235714Y-46478571D01*
X116235714Y-45978571D01*
X116164285Y-45692857D01*
X116021428Y-45550000D01*
X115878571Y-45478571D01*
X114592857Y-46978571D02*
X114592857Y-45478571D01*
X114092857Y-46550000D01*
X113592857Y-45478571D01*
X113592857Y-46978571D01*
X112592857Y-45478571D02*
X112307142Y-45478571D01*
X112164285Y-45550000D01*
X112021428Y-45692857D01*
X111950000Y-45978571D01*
X111950000Y-46478571D01*
X112021428Y-46764285D01*
X112164285Y-46907142D01*
X112307142Y-46978571D01*
X112592857Y-46978571D01*
X112735714Y-46907142D01*
X112878571Y-46764285D01*
X112950000Y-46478571D01*
X112950000Y-45978571D01*
X112878571Y-45692857D01*
X112735714Y-45550000D01*
X112592857Y-45478571D01*
X120128571Y-49528571D02*
X120985714Y-49528571D01*
X120557142Y-49528571D02*
X120557142Y-48028571D01*
X120700000Y-48242857D01*
X120842857Y-48385714D01*
X120985714Y-48457142D01*
X119271428Y-48671428D02*
X119414285Y-48600000D01*
X119485714Y-48528571D01*
X119557142Y-48385714D01*
X119557142Y-48314285D01*
X119485714Y-48171428D01*
X119414285Y-48100000D01*
X119271428Y-48028571D01*
X118985714Y-48028571D01*
X118842857Y-48100000D01*
X118771428Y-48171428D01*
X118700000Y-48314285D01*
X118700000Y-48385714D01*
X118771428Y-48528571D01*
X118842857Y-48600000D01*
X118985714Y-48671428D01*
X119271428Y-48671428D01*
X119414285Y-48742857D01*
X119485714Y-48814285D01*
X119557142Y-48957142D01*
X119557142Y-49242857D01*
X119485714Y-49385714D01*
X119414285Y-49457142D01*
X119271428Y-49528571D01*
X118985714Y-49528571D01*
X118842857Y-49457142D01*
X118771428Y-49385714D01*
X118700000Y-49242857D01*
X118700000Y-48957142D01*
X118771428Y-48814285D01*
X118842857Y-48742857D01*
X118985714Y-48671428D01*
X118128571Y-48171428D02*
X118057142Y-48100000D01*
X117914285Y-48028571D01*
X117557142Y-48028571D01*
X117414285Y-48100000D01*
X117342857Y-48171428D01*
X117271428Y-48314285D01*
X117271428Y-48457142D01*
X117342857Y-48671428D01*
X118200000Y-49528571D01*
X117271428Y-49528571D01*
X116414285Y-48671428D02*
X116557142Y-48600000D01*
X116628571Y-48528571D01*
X116700000Y-48385714D01*
X116700000Y-48314285D01*
X116628571Y-48171428D01*
X116557142Y-48100000D01*
X116414285Y-48028571D01*
X116128571Y-48028571D01*
X115985714Y-48100000D01*
X115914285Y-48171428D01*
X115842857Y-48314285D01*
X115842857Y-48385714D01*
X115914285Y-48528571D01*
X115985714Y-48600000D01*
X116128571Y-48671428D01*
X116414285Y-48671428D01*
X116557142Y-48742857D01*
X116628571Y-48814285D01*
X116700000Y-48957142D01*
X116700000Y-49242857D01*
X116628571Y-49385714D01*
X116557142Y-49457142D01*
X116414285Y-49528571D01*
X116128571Y-49528571D01*
X115985714Y-49457142D01*
X115914285Y-49385714D01*
X115842857Y-49242857D01*
X115842857Y-48957142D01*
X115914285Y-48814285D01*
X115985714Y-48742857D01*
X116128571Y-48671428D01*
X114557142Y-48028571D02*
X114842857Y-48028571D01*
X114985714Y-48100000D01*
X115057142Y-48171428D01*
X115200000Y-48385714D01*
X115271428Y-48671428D01*
X115271428Y-49242857D01*
X115200000Y-49385714D01*
X115128571Y-49457142D01*
X114985714Y-49528571D01*
X114700000Y-49528571D01*
X114557142Y-49457142D01*
X114485714Y-49385714D01*
X114414285Y-49242857D01*
X114414285Y-48885714D01*
X114485714Y-48742857D01*
X114557142Y-48671428D01*
X114700000Y-48600000D01*
X114985714Y-48600000D01*
X115128571Y-48671428D01*
X115200000Y-48742857D01*
X115271428Y-48885714D01*
D12*
G04 #@! TO.C,D9*
X120640550Y-132553750D02*
X118180550Y-132553750D01*
X118180550Y-132553750D02*
X118180550Y-131083750D01*
X118180550Y-131083750D02*
X120640550Y-131083750D01*
G04 #@! TO.C,D10*
X137253050Y-131083750D02*
X139713050Y-131083750D01*
X137253050Y-132553750D02*
X137253050Y-131083750D01*
X139713050Y-132553750D02*
X137253050Y-132553750D01*
G04 #@! TO.C,D11*
X158785550Y-132553750D02*
X156325550Y-132553750D01*
X156325550Y-132553750D02*
X156325550Y-131083750D01*
X156325550Y-131083750D02*
X158785550Y-131083750D01*
G04 #@! TO.C,D12*
X184290550Y-58168750D02*
X183215550Y-58168750D01*
X184290550Y-52268750D02*
X184290550Y-58168750D01*
X180390550Y-52268750D02*
X180390550Y-58168750D01*
G04 #@! TO.C,D13*
X162390550Y-39950000D02*
X168290550Y-39950000D01*
X162390550Y-36050000D02*
X168290550Y-36050000D01*
X168290550Y-36050000D02*
X168290550Y-37125000D01*
G04 #@! TO.C,D14*
X125090550Y-39950000D02*
X130990550Y-39950000D01*
X125090550Y-36050000D02*
X130990550Y-36050000D01*
X130990550Y-36050000D02*
X130990550Y-37125000D01*
G04 #@! TO.C,D15*
X112890550Y-58168750D02*
X112890550Y-52268750D01*
X108990550Y-58168750D02*
X108990550Y-52268750D01*
X108990550Y-52268750D02*
X110065550Y-52268750D01*
G04 #@! TO.C,D16*
X112850000Y-82550000D02*
X112850000Y-76650000D01*
X108950000Y-82550000D02*
X108950000Y-76650000D01*
X108950000Y-76650000D02*
X110025000Y-76650000D01*
G04 #@! TO.C,D17*
X109100000Y-104450000D02*
X110175000Y-104450000D01*
X109100000Y-110350000D02*
X109100000Y-104450000D01*
X113000000Y-110350000D02*
X113000000Y-104450000D01*
G04 #@! TO.C,D18*
X112890550Y-134468750D02*
X112890550Y-128568750D01*
X108990550Y-134468750D02*
X108990550Y-128568750D01*
X108990550Y-128568750D02*
X110065550Y-128568750D01*
G04 #@! TO.C,D19*
X125090550Y-150468750D02*
X125090550Y-149393750D01*
X130990550Y-150468750D02*
X125090550Y-150468750D01*
X130990550Y-146568750D02*
X125090550Y-146568750D01*
G04 #@! TO.C,D20*
X162390550Y-150468750D02*
X162390550Y-149393750D01*
X168290550Y-150468750D02*
X162390550Y-150468750D01*
X168290550Y-146568750D02*
X162390550Y-146568750D01*
G04 #@! TO.C,D21*
X180275000Y-127000000D02*
X180275000Y-132900000D01*
X184175000Y-127000000D02*
X184175000Y-132900000D01*
X184175000Y-132900000D02*
X183100000Y-132900000D01*
G04 #@! TO.C,D22*
X184250000Y-110350000D02*
X183175000Y-110350000D01*
X184250000Y-104450000D02*
X184250000Y-110350000D01*
X180350000Y-104450000D02*
X180350000Y-110350000D01*
G04 #@! TO.C,D23*
X184350000Y-82850000D02*
X183275000Y-82850000D01*
X184350000Y-76950000D02*
X184350000Y-82850000D01*
X180450000Y-76950000D02*
X180450000Y-82850000D01*
G04 #@! TO.C,D_LED_1*
D13*
X120998892Y-70235130D02*
X120998892Y-69235130D01*
X120760797Y-69235130D01*
X120617940Y-69282750D01*
X120522702Y-69377988D01*
X120475083Y-69473226D01*
X120427464Y-69663702D01*
X120427464Y-69806559D01*
X120475083Y-69997035D01*
X120522702Y-70092273D01*
X120617940Y-70187511D01*
X120760797Y-70235130D01*
X120998892Y-70235130D01*
X120236988Y-70330369D02*
X119475083Y-70330369D01*
X118760797Y-70235130D02*
X119236988Y-70235130D01*
X119236988Y-69235130D01*
X118427464Y-69711321D02*
X118094130Y-69711321D01*
X117951273Y-70235130D02*
X118427464Y-70235130D01*
X118427464Y-69235130D01*
X117951273Y-69235130D01*
X117522702Y-70235130D02*
X117522702Y-69235130D01*
X117284607Y-69235130D01*
X117141750Y-69282750D01*
X117046511Y-69377988D01*
X116998892Y-69473226D01*
X116951273Y-69663702D01*
X116951273Y-69806559D01*
X116998892Y-69997035D01*
X117046511Y-70092273D01*
X117141750Y-70187511D01*
X117284607Y-70235130D01*
X117522702Y-70235130D01*
X116760797Y-70330369D02*
X115998892Y-70330369D01*
X115236988Y-70235130D02*
X115808416Y-70235130D01*
X115522702Y-70235130D02*
X115522702Y-69235130D01*
X115617940Y-69377988D01*
X115713178Y-69473226D01*
X115808416Y-69520845D01*
G04 #@! TO.C,D9*
X120578645Y-133701130D02*
X120578645Y-132701130D01*
X120340550Y-132701130D01*
X120197692Y-132748750D01*
X120102454Y-132843988D01*
X120054835Y-132939226D01*
X120007216Y-133129702D01*
X120007216Y-133272559D01*
X120054835Y-133463035D01*
X120102454Y-133558273D01*
X120197692Y-133653511D01*
X120340550Y-133701130D01*
X120578645Y-133701130D01*
X119531026Y-133701130D02*
X119340550Y-133701130D01*
X119245311Y-133653511D01*
X119197692Y-133605892D01*
X119102454Y-133463035D01*
X119054835Y-133272559D01*
X119054835Y-132891607D01*
X119102454Y-132796369D01*
X119150073Y-132748750D01*
X119245311Y-132701130D01*
X119435788Y-132701130D01*
X119531026Y-132748750D01*
X119578645Y-132796369D01*
X119626264Y-132891607D01*
X119626264Y-133129702D01*
X119578645Y-133224940D01*
X119531026Y-133272559D01*
X119435788Y-133320178D01*
X119245311Y-133320178D01*
X119150073Y-133272559D01*
X119102454Y-133224940D01*
X119054835Y-133129702D01*
G04 #@! TO.C,D10*
X140127335Y-133701130D02*
X140127335Y-132701130D01*
X139889240Y-132701130D01*
X139746383Y-132748750D01*
X139651145Y-132843988D01*
X139603526Y-132939226D01*
X139555907Y-133129702D01*
X139555907Y-133272559D01*
X139603526Y-133463035D01*
X139651145Y-133558273D01*
X139746383Y-133653511D01*
X139889240Y-133701130D01*
X140127335Y-133701130D01*
X138603526Y-133701130D02*
X139174954Y-133701130D01*
X138889240Y-133701130D02*
X138889240Y-132701130D01*
X138984478Y-132843988D01*
X139079716Y-132939226D01*
X139174954Y-132986845D01*
X137984478Y-132701130D02*
X137889240Y-132701130D01*
X137794002Y-132748750D01*
X137746383Y-132796369D01*
X137698764Y-132891607D01*
X137651145Y-133082083D01*
X137651145Y-133320178D01*
X137698764Y-133510654D01*
X137746383Y-133605892D01*
X137794002Y-133653511D01*
X137889240Y-133701130D01*
X137984478Y-133701130D01*
X138079716Y-133653511D01*
X138127335Y-133605892D01*
X138174954Y-133510654D01*
X138222573Y-133320178D01*
X138222573Y-133082083D01*
X138174954Y-132891607D01*
X138127335Y-132796369D01*
X138079716Y-132748750D01*
X137984478Y-132701130D01*
G04 #@! TO.C,D11*
X159199835Y-133701130D02*
X159199835Y-132701130D01*
X158961740Y-132701130D01*
X158818883Y-132748750D01*
X158723645Y-132843988D01*
X158676026Y-132939226D01*
X158628407Y-133129702D01*
X158628407Y-133272559D01*
X158676026Y-133463035D01*
X158723645Y-133558273D01*
X158818883Y-133653511D01*
X158961740Y-133701130D01*
X159199835Y-133701130D01*
X157676026Y-133701130D02*
X158247454Y-133701130D01*
X157961740Y-133701130D02*
X157961740Y-132701130D01*
X158056978Y-132843988D01*
X158152216Y-132939226D01*
X158247454Y-132986845D01*
X156723645Y-133701130D02*
X157295073Y-133701130D01*
X157009359Y-133701130D02*
X157009359Y-132701130D01*
X157104597Y-132843988D01*
X157199835Y-132939226D01*
X157295073Y-132986845D01*
G04 #@! TO.C,D_LED_2*
X140048892Y-70235130D02*
X140048892Y-69235130D01*
X139810797Y-69235130D01*
X139667940Y-69282750D01*
X139572702Y-69377988D01*
X139525083Y-69473226D01*
X139477464Y-69663702D01*
X139477464Y-69806559D01*
X139525083Y-69997035D01*
X139572702Y-70092273D01*
X139667940Y-70187511D01*
X139810797Y-70235130D01*
X140048892Y-70235130D01*
X139286988Y-70330369D02*
X138525083Y-70330369D01*
X137810797Y-70235130D02*
X138286988Y-70235130D01*
X138286988Y-69235130D01*
X137477464Y-69711321D02*
X137144130Y-69711321D01*
X137001273Y-70235130D02*
X137477464Y-70235130D01*
X137477464Y-69235130D01*
X137001273Y-69235130D01*
X136572702Y-70235130D02*
X136572702Y-69235130D01*
X136334607Y-69235130D01*
X136191750Y-69282750D01*
X136096511Y-69377988D01*
X136048892Y-69473226D01*
X136001273Y-69663702D01*
X136001273Y-69806559D01*
X136048892Y-69997035D01*
X136096511Y-70092273D01*
X136191750Y-70187511D01*
X136334607Y-70235130D01*
X136572702Y-70235130D01*
X135810797Y-70330369D02*
X135048892Y-70330369D01*
X134858416Y-69330369D02*
X134810797Y-69282750D01*
X134715559Y-69235130D01*
X134477464Y-69235130D01*
X134382226Y-69282750D01*
X134334607Y-69330369D01*
X134286988Y-69425607D01*
X134286988Y-69520845D01*
X134334607Y-69663702D01*
X134906035Y-70235130D01*
X134286988Y-70235130D01*
G04 #@! TO.C,D_LED_3*
X159098892Y-70235130D02*
X159098892Y-69235130D01*
X158860797Y-69235130D01*
X158717940Y-69282750D01*
X158622702Y-69377988D01*
X158575083Y-69473226D01*
X158527464Y-69663702D01*
X158527464Y-69806559D01*
X158575083Y-69997035D01*
X158622702Y-70092273D01*
X158717940Y-70187511D01*
X158860797Y-70235130D01*
X159098892Y-70235130D01*
X158336988Y-70330369D02*
X157575083Y-70330369D01*
X156860797Y-70235130D02*
X157336988Y-70235130D01*
X157336988Y-69235130D01*
X156527464Y-69711321D02*
X156194130Y-69711321D01*
X156051273Y-70235130D02*
X156527464Y-70235130D01*
X156527464Y-69235130D01*
X156051273Y-69235130D01*
X155622702Y-70235130D02*
X155622702Y-69235130D01*
X155384607Y-69235130D01*
X155241750Y-69282750D01*
X155146511Y-69377988D01*
X155098892Y-69473226D01*
X155051273Y-69663702D01*
X155051273Y-69806559D01*
X155098892Y-69997035D01*
X155146511Y-70092273D01*
X155241750Y-70187511D01*
X155384607Y-70235130D01*
X155622702Y-70235130D01*
X154860797Y-70330369D02*
X154098892Y-70330369D01*
X153956035Y-69235130D02*
X153336988Y-69235130D01*
X153670321Y-69616083D01*
X153527464Y-69616083D01*
X153432226Y-69663702D01*
X153384607Y-69711321D01*
X153336988Y-69806559D01*
X153336988Y-70044654D01*
X153384607Y-70139892D01*
X153432226Y-70187511D01*
X153527464Y-70235130D01*
X153813178Y-70235130D01*
X153908416Y-70187511D01*
X153956035Y-70139892D01*
G04 #@! TO.C,D_LED_4*
X178148892Y-70235130D02*
X178148892Y-69235130D01*
X177910797Y-69235130D01*
X177767940Y-69282750D01*
X177672702Y-69377988D01*
X177625083Y-69473226D01*
X177577464Y-69663702D01*
X177577464Y-69806559D01*
X177625083Y-69997035D01*
X177672702Y-70092273D01*
X177767940Y-70187511D01*
X177910797Y-70235130D01*
X178148892Y-70235130D01*
X177386988Y-70330369D02*
X176625083Y-70330369D01*
X175910797Y-70235130D02*
X176386988Y-70235130D01*
X176386988Y-69235130D01*
X175577464Y-69711321D02*
X175244130Y-69711321D01*
X175101273Y-70235130D02*
X175577464Y-70235130D01*
X175577464Y-69235130D01*
X175101273Y-69235130D01*
X174672702Y-70235130D02*
X174672702Y-69235130D01*
X174434607Y-69235130D01*
X174291750Y-69282750D01*
X174196511Y-69377988D01*
X174148892Y-69473226D01*
X174101273Y-69663702D01*
X174101273Y-69806559D01*
X174148892Y-69997035D01*
X174196511Y-70092273D01*
X174291750Y-70187511D01*
X174434607Y-70235130D01*
X174672702Y-70235130D01*
X173910797Y-70330369D02*
X173148892Y-70330369D01*
X172482226Y-69568464D02*
X172482226Y-70235130D01*
X172720321Y-69187511D02*
X172958416Y-69901797D01*
X172339369Y-69901797D01*
G04 #@! TO.C,D_LED_5*
X120998892Y-89285130D02*
X120998892Y-88285130D01*
X120760797Y-88285130D01*
X120617940Y-88332750D01*
X120522702Y-88427988D01*
X120475083Y-88523226D01*
X120427464Y-88713702D01*
X120427464Y-88856559D01*
X120475083Y-89047035D01*
X120522702Y-89142273D01*
X120617940Y-89237511D01*
X120760797Y-89285130D01*
X120998892Y-89285130D01*
X120236988Y-89380369D02*
X119475083Y-89380369D01*
X118760797Y-89285130D02*
X119236988Y-89285130D01*
X119236988Y-88285130D01*
X118427464Y-88761321D02*
X118094130Y-88761321D01*
X117951273Y-89285130D02*
X118427464Y-89285130D01*
X118427464Y-88285130D01*
X117951273Y-88285130D01*
X117522702Y-89285130D02*
X117522702Y-88285130D01*
X117284607Y-88285130D01*
X117141750Y-88332750D01*
X117046511Y-88427988D01*
X116998892Y-88523226D01*
X116951273Y-88713702D01*
X116951273Y-88856559D01*
X116998892Y-89047035D01*
X117046511Y-89142273D01*
X117141750Y-89237511D01*
X117284607Y-89285130D01*
X117522702Y-89285130D01*
X116760797Y-89380369D02*
X115998892Y-89380369D01*
X115284607Y-88285130D02*
X115760797Y-88285130D01*
X115808416Y-88761321D01*
X115760797Y-88713702D01*
X115665559Y-88666083D01*
X115427464Y-88666083D01*
X115332226Y-88713702D01*
X115284607Y-88761321D01*
X115236988Y-88856559D01*
X115236988Y-89094654D01*
X115284607Y-89189892D01*
X115332226Y-89237511D01*
X115427464Y-89285130D01*
X115665559Y-89285130D01*
X115760797Y-89237511D01*
X115808416Y-89189892D01*
G04 #@! TO.C,D_LED_6*
X140048892Y-89285130D02*
X140048892Y-88285130D01*
X139810797Y-88285130D01*
X139667940Y-88332750D01*
X139572702Y-88427988D01*
X139525083Y-88523226D01*
X139477464Y-88713702D01*
X139477464Y-88856559D01*
X139525083Y-89047035D01*
X139572702Y-89142273D01*
X139667940Y-89237511D01*
X139810797Y-89285130D01*
X140048892Y-89285130D01*
X139286988Y-89380369D02*
X138525083Y-89380369D01*
X137810797Y-89285130D02*
X138286988Y-89285130D01*
X138286988Y-88285130D01*
X137477464Y-88761321D02*
X137144130Y-88761321D01*
X137001273Y-89285130D02*
X137477464Y-89285130D01*
X137477464Y-88285130D01*
X137001273Y-88285130D01*
X136572702Y-89285130D02*
X136572702Y-88285130D01*
X136334607Y-88285130D01*
X136191750Y-88332750D01*
X136096511Y-88427988D01*
X136048892Y-88523226D01*
X136001273Y-88713702D01*
X136001273Y-88856559D01*
X136048892Y-89047035D01*
X136096511Y-89142273D01*
X136191750Y-89237511D01*
X136334607Y-89285130D01*
X136572702Y-89285130D01*
X135810797Y-89380369D02*
X135048892Y-89380369D01*
X134382226Y-88285130D02*
X134572702Y-88285130D01*
X134667940Y-88332750D01*
X134715559Y-88380369D01*
X134810797Y-88523226D01*
X134858416Y-88713702D01*
X134858416Y-89094654D01*
X134810797Y-89189892D01*
X134763178Y-89237511D01*
X134667940Y-89285130D01*
X134477464Y-89285130D01*
X134382226Y-89237511D01*
X134334607Y-89189892D01*
X134286988Y-89094654D01*
X134286988Y-88856559D01*
X134334607Y-88761321D01*
X134382226Y-88713702D01*
X134477464Y-88666083D01*
X134667940Y-88666083D01*
X134763178Y-88713702D01*
X134810797Y-88761321D01*
X134858416Y-88856559D01*
G04 #@! TO.C,D_LED_7*
X159098892Y-89285130D02*
X159098892Y-88285130D01*
X158860797Y-88285130D01*
X158717940Y-88332750D01*
X158622702Y-88427988D01*
X158575083Y-88523226D01*
X158527464Y-88713702D01*
X158527464Y-88856559D01*
X158575083Y-89047035D01*
X158622702Y-89142273D01*
X158717940Y-89237511D01*
X158860797Y-89285130D01*
X159098892Y-89285130D01*
X158336988Y-89380369D02*
X157575083Y-89380369D01*
X156860797Y-89285130D02*
X157336988Y-89285130D01*
X157336988Y-88285130D01*
X156527464Y-88761321D02*
X156194130Y-88761321D01*
X156051273Y-89285130D02*
X156527464Y-89285130D01*
X156527464Y-88285130D01*
X156051273Y-88285130D01*
X155622702Y-89285130D02*
X155622702Y-88285130D01*
X155384607Y-88285130D01*
X155241750Y-88332750D01*
X155146511Y-88427988D01*
X155098892Y-88523226D01*
X155051273Y-88713702D01*
X155051273Y-88856559D01*
X155098892Y-89047035D01*
X155146511Y-89142273D01*
X155241750Y-89237511D01*
X155384607Y-89285130D01*
X155622702Y-89285130D01*
X154860797Y-89380369D02*
X154098892Y-89380369D01*
X153956035Y-88285130D02*
X153289369Y-88285130D01*
X153717940Y-89285130D01*
G04 #@! TO.C,D_LED_8*
X178148892Y-89285130D02*
X178148892Y-88285130D01*
X177910797Y-88285130D01*
X177767940Y-88332750D01*
X177672702Y-88427988D01*
X177625083Y-88523226D01*
X177577464Y-88713702D01*
X177577464Y-88856559D01*
X177625083Y-89047035D01*
X177672702Y-89142273D01*
X177767940Y-89237511D01*
X177910797Y-89285130D01*
X178148892Y-89285130D01*
X177386988Y-89380369D02*
X176625083Y-89380369D01*
X175910797Y-89285130D02*
X176386988Y-89285130D01*
X176386988Y-88285130D01*
X175577464Y-88761321D02*
X175244130Y-88761321D01*
X175101273Y-89285130D02*
X175577464Y-89285130D01*
X175577464Y-88285130D01*
X175101273Y-88285130D01*
X174672702Y-89285130D02*
X174672702Y-88285130D01*
X174434607Y-88285130D01*
X174291750Y-88332750D01*
X174196511Y-88427988D01*
X174148892Y-88523226D01*
X174101273Y-88713702D01*
X174101273Y-88856559D01*
X174148892Y-89047035D01*
X174196511Y-89142273D01*
X174291750Y-89237511D01*
X174434607Y-89285130D01*
X174672702Y-89285130D01*
X173910797Y-89380369D02*
X173148892Y-89380369D01*
X172767940Y-88713702D02*
X172863178Y-88666083D01*
X172910797Y-88618464D01*
X172958416Y-88523226D01*
X172958416Y-88475607D01*
X172910797Y-88380369D01*
X172863178Y-88332750D01*
X172767940Y-88285130D01*
X172577464Y-88285130D01*
X172482226Y-88332750D01*
X172434607Y-88380369D01*
X172386988Y-88475607D01*
X172386988Y-88523226D01*
X172434607Y-88618464D01*
X172482226Y-88666083D01*
X172577464Y-88713702D01*
X172767940Y-88713702D01*
X172863178Y-88761321D01*
X172910797Y-88808940D01*
X172958416Y-88904178D01*
X172958416Y-89094654D01*
X172910797Y-89189892D01*
X172863178Y-89237511D01*
X172767940Y-89285130D01*
X172577464Y-89285130D01*
X172482226Y-89237511D01*
X172434607Y-89189892D01*
X172386988Y-89094654D01*
X172386988Y-88904178D01*
X172434607Y-88808940D01*
X172482226Y-88761321D01*
X172577464Y-88713702D01*
G04 #@! TO.C,D_LED_9*
X120998892Y-108335130D02*
X120998892Y-107335130D01*
X120760797Y-107335130D01*
X120617940Y-107382750D01*
X120522702Y-107477988D01*
X120475083Y-107573226D01*
X120427464Y-107763702D01*
X120427464Y-107906559D01*
X120475083Y-108097035D01*
X120522702Y-108192273D01*
X120617940Y-108287511D01*
X120760797Y-108335130D01*
X120998892Y-108335130D01*
X120236988Y-108430369D02*
X119475083Y-108430369D01*
X118760797Y-108335130D02*
X119236988Y-108335130D01*
X119236988Y-107335130D01*
X118427464Y-107811321D02*
X118094130Y-107811321D01*
X117951273Y-108335130D02*
X118427464Y-108335130D01*
X118427464Y-107335130D01*
X117951273Y-107335130D01*
X117522702Y-108335130D02*
X117522702Y-107335130D01*
X117284607Y-107335130D01*
X117141750Y-107382750D01*
X117046511Y-107477988D01*
X116998892Y-107573226D01*
X116951273Y-107763702D01*
X116951273Y-107906559D01*
X116998892Y-108097035D01*
X117046511Y-108192273D01*
X117141750Y-108287511D01*
X117284607Y-108335130D01*
X117522702Y-108335130D01*
X116760797Y-108430369D02*
X115998892Y-108430369D01*
X115713178Y-108335130D02*
X115522702Y-108335130D01*
X115427464Y-108287511D01*
X115379845Y-108239892D01*
X115284607Y-108097035D01*
X115236988Y-107906559D01*
X115236988Y-107525607D01*
X115284607Y-107430369D01*
X115332226Y-107382750D01*
X115427464Y-107335130D01*
X115617940Y-107335130D01*
X115713178Y-107382750D01*
X115760797Y-107430369D01*
X115808416Y-107525607D01*
X115808416Y-107763702D01*
X115760797Y-107858940D01*
X115713178Y-107906559D01*
X115617940Y-107954178D01*
X115427464Y-107954178D01*
X115332226Y-107906559D01*
X115284607Y-107858940D01*
X115236988Y-107763702D01*
G04 #@! TO.C,D_LED_10*
X140525083Y-108335130D02*
X140525083Y-107335130D01*
X140286988Y-107335130D01*
X140144130Y-107382750D01*
X140048892Y-107477988D01*
X140001273Y-107573226D01*
X139953654Y-107763702D01*
X139953654Y-107906559D01*
X140001273Y-108097035D01*
X140048892Y-108192273D01*
X140144130Y-108287511D01*
X140286988Y-108335130D01*
X140525083Y-108335130D01*
X139763178Y-108430369D02*
X139001273Y-108430369D01*
X138286988Y-108335130D02*
X138763178Y-108335130D01*
X138763178Y-107335130D01*
X137953654Y-107811321D02*
X137620321Y-107811321D01*
X137477464Y-108335130D02*
X137953654Y-108335130D01*
X137953654Y-107335130D01*
X137477464Y-107335130D01*
X137048892Y-108335130D02*
X137048892Y-107335130D01*
X136810797Y-107335130D01*
X136667940Y-107382750D01*
X136572702Y-107477988D01*
X136525083Y-107573226D01*
X136477464Y-107763702D01*
X136477464Y-107906559D01*
X136525083Y-108097035D01*
X136572702Y-108192273D01*
X136667940Y-108287511D01*
X136810797Y-108335130D01*
X137048892Y-108335130D01*
X136286988Y-108430369D02*
X135525083Y-108430369D01*
X134763178Y-108335130D02*
X135334607Y-108335130D01*
X135048892Y-108335130D02*
X135048892Y-107335130D01*
X135144130Y-107477988D01*
X135239369Y-107573226D01*
X135334607Y-107620845D01*
X134144130Y-107335130D02*
X134048892Y-107335130D01*
X133953654Y-107382750D01*
X133906035Y-107430369D01*
X133858416Y-107525607D01*
X133810797Y-107716083D01*
X133810797Y-107954178D01*
X133858416Y-108144654D01*
X133906035Y-108239892D01*
X133953654Y-108287511D01*
X134048892Y-108335130D01*
X134144130Y-108335130D01*
X134239369Y-108287511D01*
X134286988Y-108239892D01*
X134334607Y-108144654D01*
X134382226Y-107954178D01*
X134382226Y-107716083D01*
X134334607Y-107525607D01*
X134286988Y-107430369D01*
X134239369Y-107382750D01*
X134144130Y-107335130D01*
G04 #@! TO.C,D_LED_11*
X159575083Y-108335130D02*
X159575083Y-107335130D01*
X159336988Y-107335130D01*
X159194130Y-107382750D01*
X159098892Y-107477988D01*
X159051273Y-107573226D01*
X159003654Y-107763702D01*
X159003654Y-107906559D01*
X159051273Y-108097035D01*
X159098892Y-108192273D01*
X159194130Y-108287511D01*
X159336988Y-108335130D01*
X159575083Y-108335130D01*
X158813178Y-108430369D02*
X158051273Y-108430369D01*
X157336988Y-108335130D02*
X157813178Y-108335130D01*
X157813178Y-107335130D01*
X157003654Y-107811321D02*
X156670321Y-107811321D01*
X156527464Y-108335130D02*
X157003654Y-108335130D01*
X157003654Y-107335130D01*
X156527464Y-107335130D01*
X156098892Y-108335130D02*
X156098892Y-107335130D01*
X155860797Y-107335130D01*
X155717940Y-107382750D01*
X155622702Y-107477988D01*
X155575083Y-107573226D01*
X155527464Y-107763702D01*
X155527464Y-107906559D01*
X155575083Y-108097035D01*
X155622702Y-108192273D01*
X155717940Y-108287511D01*
X155860797Y-108335130D01*
X156098892Y-108335130D01*
X155336988Y-108430369D02*
X154575083Y-108430369D01*
X153813178Y-108335130D02*
X154384607Y-108335130D01*
X154098892Y-108335130D02*
X154098892Y-107335130D01*
X154194130Y-107477988D01*
X154289369Y-107573226D01*
X154384607Y-107620845D01*
X152860797Y-108335130D02*
X153432226Y-108335130D01*
X153146511Y-108335130D02*
X153146511Y-107335130D01*
X153241750Y-107477988D01*
X153336988Y-107573226D01*
X153432226Y-107620845D01*
G04 #@! TO.C,D_LED_12*
X178625083Y-108335130D02*
X178625083Y-107335130D01*
X178386988Y-107335130D01*
X178244130Y-107382750D01*
X178148892Y-107477988D01*
X178101273Y-107573226D01*
X178053654Y-107763702D01*
X178053654Y-107906559D01*
X178101273Y-108097035D01*
X178148892Y-108192273D01*
X178244130Y-108287511D01*
X178386988Y-108335130D01*
X178625083Y-108335130D01*
X177863178Y-108430369D02*
X177101273Y-108430369D01*
X176386988Y-108335130D02*
X176863178Y-108335130D01*
X176863178Y-107335130D01*
X176053654Y-107811321D02*
X175720321Y-107811321D01*
X175577464Y-108335130D02*
X176053654Y-108335130D01*
X176053654Y-107335130D01*
X175577464Y-107335130D01*
X175148892Y-108335130D02*
X175148892Y-107335130D01*
X174910797Y-107335130D01*
X174767940Y-107382750D01*
X174672702Y-107477988D01*
X174625083Y-107573226D01*
X174577464Y-107763702D01*
X174577464Y-107906559D01*
X174625083Y-108097035D01*
X174672702Y-108192273D01*
X174767940Y-108287511D01*
X174910797Y-108335130D01*
X175148892Y-108335130D01*
X174386988Y-108430369D02*
X173625083Y-108430369D01*
X172863178Y-108335130D02*
X173434607Y-108335130D01*
X173148892Y-108335130D02*
X173148892Y-107335130D01*
X173244130Y-107477988D01*
X173339369Y-107573226D01*
X173434607Y-107620845D01*
X172482226Y-107430369D02*
X172434607Y-107382750D01*
X172339369Y-107335130D01*
X172101273Y-107335130D01*
X172006035Y-107382750D01*
X171958416Y-107430369D01*
X171910797Y-107525607D01*
X171910797Y-107620845D01*
X171958416Y-107763702D01*
X172529845Y-108335130D01*
X171910797Y-108335130D01*
G04 #@! TO.C,D_LED_13*
X121475083Y-127385130D02*
X121475083Y-126385130D01*
X121236988Y-126385130D01*
X121094130Y-126432750D01*
X120998892Y-126527988D01*
X120951273Y-126623226D01*
X120903654Y-126813702D01*
X120903654Y-126956559D01*
X120951273Y-127147035D01*
X120998892Y-127242273D01*
X121094130Y-127337511D01*
X121236988Y-127385130D01*
X121475083Y-127385130D01*
X120713178Y-127480369D02*
X119951273Y-127480369D01*
X119236988Y-127385130D02*
X119713178Y-127385130D01*
X119713178Y-126385130D01*
X118903654Y-126861321D02*
X118570321Y-126861321D01*
X118427464Y-127385130D02*
X118903654Y-127385130D01*
X118903654Y-126385130D01*
X118427464Y-126385130D01*
X117998892Y-127385130D02*
X117998892Y-126385130D01*
X117760797Y-126385130D01*
X117617940Y-126432750D01*
X117522702Y-126527988D01*
X117475083Y-126623226D01*
X117427464Y-126813702D01*
X117427464Y-126956559D01*
X117475083Y-127147035D01*
X117522702Y-127242273D01*
X117617940Y-127337511D01*
X117760797Y-127385130D01*
X117998892Y-127385130D01*
X117236988Y-127480369D02*
X116475083Y-127480369D01*
X115713178Y-127385130D02*
X116284607Y-127385130D01*
X115998892Y-127385130D02*
X115998892Y-126385130D01*
X116094130Y-126527988D01*
X116189369Y-126623226D01*
X116284607Y-126670845D01*
X115379845Y-126385130D02*
X114760797Y-126385130D01*
X115094130Y-126766083D01*
X114951273Y-126766083D01*
X114856035Y-126813702D01*
X114808416Y-126861321D01*
X114760797Y-126956559D01*
X114760797Y-127194654D01*
X114808416Y-127289892D01*
X114856035Y-127337511D01*
X114951273Y-127385130D01*
X115236988Y-127385130D01*
X115332226Y-127337511D01*
X115379845Y-127289892D01*
G04 #@! TO.C,D_LED_14*
X140525083Y-127385130D02*
X140525083Y-126385130D01*
X140286988Y-126385130D01*
X140144130Y-126432750D01*
X140048892Y-126527988D01*
X140001273Y-126623226D01*
X139953654Y-126813702D01*
X139953654Y-126956559D01*
X140001273Y-127147035D01*
X140048892Y-127242273D01*
X140144130Y-127337511D01*
X140286988Y-127385130D01*
X140525083Y-127385130D01*
X139763178Y-127480369D02*
X139001273Y-127480369D01*
X138286988Y-127385130D02*
X138763178Y-127385130D01*
X138763178Y-126385130D01*
X137953654Y-126861321D02*
X137620321Y-126861321D01*
X137477464Y-127385130D02*
X137953654Y-127385130D01*
X137953654Y-126385130D01*
X137477464Y-126385130D01*
X137048892Y-127385130D02*
X137048892Y-126385130D01*
X136810797Y-126385130D01*
X136667940Y-126432750D01*
X136572702Y-126527988D01*
X136525083Y-126623226D01*
X136477464Y-126813702D01*
X136477464Y-126956559D01*
X136525083Y-127147035D01*
X136572702Y-127242273D01*
X136667940Y-127337511D01*
X136810797Y-127385130D01*
X137048892Y-127385130D01*
X136286988Y-127480369D02*
X135525083Y-127480369D01*
X134763178Y-127385130D02*
X135334607Y-127385130D01*
X135048892Y-127385130D02*
X135048892Y-126385130D01*
X135144130Y-126527988D01*
X135239369Y-126623226D01*
X135334607Y-126670845D01*
X133906035Y-126718464D02*
X133906035Y-127385130D01*
X134144130Y-126337511D02*
X134382226Y-127051797D01*
X133763178Y-127051797D01*
G04 #@! TO.C,D_LED_15*
X159575083Y-127385130D02*
X159575083Y-126385130D01*
X159336988Y-126385130D01*
X159194130Y-126432750D01*
X159098892Y-126527988D01*
X159051273Y-126623226D01*
X159003654Y-126813702D01*
X159003654Y-126956559D01*
X159051273Y-127147035D01*
X159098892Y-127242273D01*
X159194130Y-127337511D01*
X159336988Y-127385130D01*
X159575083Y-127385130D01*
X158813178Y-127480369D02*
X158051273Y-127480369D01*
X157336988Y-127385130D02*
X157813178Y-127385130D01*
X157813178Y-126385130D01*
X157003654Y-126861321D02*
X156670321Y-126861321D01*
X156527464Y-127385130D02*
X157003654Y-127385130D01*
X157003654Y-126385130D01*
X156527464Y-126385130D01*
X156098892Y-127385130D02*
X156098892Y-126385130D01*
X155860797Y-126385130D01*
X155717940Y-126432750D01*
X155622702Y-126527988D01*
X155575083Y-126623226D01*
X155527464Y-126813702D01*
X155527464Y-126956559D01*
X155575083Y-127147035D01*
X155622702Y-127242273D01*
X155717940Y-127337511D01*
X155860797Y-127385130D01*
X156098892Y-127385130D01*
X155336988Y-127480369D02*
X154575083Y-127480369D01*
X153813178Y-127385130D02*
X154384607Y-127385130D01*
X154098892Y-127385130D02*
X154098892Y-126385130D01*
X154194130Y-126527988D01*
X154289369Y-126623226D01*
X154384607Y-126670845D01*
X152908416Y-126385130D02*
X153384607Y-126385130D01*
X153432226Y-126861321D01*
X153384607Y-126813702D01*
X153289369Y-126766083D01*
X153051273Y-126766083D01*
X152956035Y-126813702D01*
X152908416Y-126861321D01*
X152860797Y-126956559D01*
X152860797Y-127194654D01*
X152908416Y-127289892D01*
X152956035Y-127337511D01*
X153051273Y-127385130D01*
X153289369Y-127385130D01*
X153384607Y-127337511D01*
X153432226Y-127289892D01*
G04 #@! TO.C,D_LED_16*
X171146130Y-128525416D02*
X170146130Y-128525416D01*
X170146130Y-128763511D01*
X170193750Y-128906369D01*
X170288988Y-129001607D01*
X170384226Y-129049226D01*
X170574702Y-129096845D01*
X170717559Y-129096845D01*
X170908035Y-129049226D01*
X171003273Y-129001607D01*
X171098511Y-128906369D01*
X171146130Y-128763511D01*
X171146130Y-128525416D01*
X171241369Y-129287321D02*
X171241369Y-130049226D01*
X171146130Y-130763511D02*
X171146130Y-130287321D01*
X170146130Y-130287321D01*
X170622321Y-131096845D02*
X170622321Y-131430178D01*
X171146130Y-131573035D02*
X171146130Y-131096845D01*
X170146130Y-131096845D01*
X170146130Y-131573035D01*
X171146130Y-132001607D02*
X170146130Y-132001607D01*
X170146130Y-132239702D01*
X170193750Y-132382559D01*
X170288988Y-132477797D01*
X170384226Y-132525416D01*
X170574702Y-132573035D01*
X170717559Y-132573035D01*
X170908035Y-132525416D01*
X171003273Y-132477797D01*
X171098511Y-132382559D01*
X171146130Y-132239702D01*
X171146130Y-132001607D01*
X171241369Y-132763511D02*
X171241369Y-133525416D01*
X171146130Y-134287321D02*
X171146130Y-133715892D01*
X171146130Y-134001607D02*
X170146130Y-134001607D01*
X170288988Y-133906369D01*
X170384226Y-133811130D01*
X170431845Y-133715892D01*
X170146130Y-135144464D02*
X170146130Y-134953988D01*
X170193750Y-134858750D01*
X170241369Y-134811130D01*
X170384226Y-134715892D01*
X170574702Y-134668273D01*
X170955654Y-134668273D01*
X171050892Y-134715892D01*
X171098511Y-134763511D01*
X171146130Y-134858750D01*
X171146130Y-135049226D01*
X171098511Y-135144464D01*
X171050892Y-135192083D01*
X170955654Y-135239702D01*
X170717559Y-135239702D01*
X170622321Y-135192083D01*
X170574702Y-135144464D01*
X170527083Y-135049226D01*
X170527083Y-134858750D01*
X170574702Y-134763511D01*
X170622321Y-134715892D01*
X170717559Y-134668273D01*
G04 #@! TO.C,D_LED_17*
X121475083Y-146435130D02*
X121475083Y-145435130D01*
X121236988Y-145435130D01*
X121094130Y-145482750D01*
X120998892Y-145577988D01*
X120951273Y-145673226D01*
X120903654Y-145863702D01*
X120903654Y-146006559D01*
X120951273Y-146197035D01*
X120998892Y-146292273D01*
X121094130Y-146387511D01*
X121236988Y-146435130D01*
X121475083Y-146435130D01*
X120713178Y-146530369D02*
X119951273Y-146530369D01*
X119236988Y-146435130D02*
X119713178Y-146435130D01*
X119713178Y-145435130D01*
X118903654Y-145911321D02*
X118570321Y-145911321D01*
X118427464Y-146435130D02*
X118903654Y-146435130D01*
X118903654Y-145435130D01*
X118427464Y-145435130D01*
X117998892Y-146435130D02*
X117998892Y-145435130D01*
X117760797Y-145435130D01*
X117617940Y-145482750D01*
X117522702Y-145577988D01*
X117475083Y-145673226D01*
X117427464Y-145863702D01*
X117427464Y-146006559D01*
X117475083Y-146197035D01*
X117522702Y-146292273D01*
X117617940Y-146387511D01*
X117760797Y-146435130D01*
X117998892Y-146435130D01*
X117236988Y-146530369D02*
X116475083Y-146530369D01*
X115713178Y-146435130D02*
X116284607Y-146435130D01*
X115998892Y-146435130D02*
X115998892Y-145435130D01*
X116094130Y-145577988D01*
X116189369Y-145673226D01*
X116284607Y-145720845D01*
X115379845Y-145435130D02*
X114713178Y-145435130D01*
X115141750Y-146435130D01*
G04 #@! TO.C,D_LED_18*
X140525083Y-146435130D02*
X140525083Y-145435130D01*
X140286988Y-145435130D01*
X140144130Y-145482750D01*
X140048892Y-145577988D01*
X140001273Y-145673226D01*
X139953654Y-145863702D01*
X139953654Y-146006559D01*
X140001273Y-146197035D01*
X140048892Y-146292273D01*
X140144130Y-146387511D01*
X140286988Y-146435130D01*
X140525083Y-146435130D01*
X139763178Y-146530369D02*
X139001273Y-146530369D01*
X138286988Y-146435130D02*
X138763178Y-146435130D01*
X138763178Y-145435130D01*
X137953654Y-145911321D02*
X137620321Y-145911321D01*
X137477464Y-146435130D02*
X137953654Y-146435130D01*
X137953654Y-145435130D01*
X137477464Y-145435130D01*
X137048892Y-146435130D02*
X137048892Y-145435130D01*
X136810797Y-145435130D01*
X136667940Y-145482750D01*
X136572702Y-145577988D01*
X136525083Y-145673226D01*
X136477464Y-145863702D01*
X136477464Y-146006559D01*
X136525083Y-146197035D01*
X136572702Y-146292273D01*
X136667940Y-146387511D01*
X136810797Y-146435130D01*
X137048892Y-146435130D01*
X136286988Y-146530369D02*
X135525083Y-146530369D01*
X134763178Y-146435130D02*
X135334607Y-146435130D01*
X135048892Y-146435130D02*
X135048892Y-145435130D01*
X135144130Y-145577988D01*
X135239369Y-145673226D01*
X135334607Y-145720845D01*
X134191750Y-145863702D02*
X134286988Y-145816083D01*
X134334607Y-145768464D01*
X134382226Y-145673226D01*
X134382226Y-145625607D01*
X134334607Y-145530369D01*
X134286988Y-145482750D01*
X134191750Y-145435130D01*
X134001273Y-145435130D01*
X133906035Y-145482750D01*
X133858416Y-145530369D01*
X133810797Y-145625607D01*
X133810797Y-145673226D01*
X133858416Y-145768464D01*
X133906035Y-145816083D01*
X134001273Y-145863702D01*
X134191750Y-145863702D01*
X134286988Y-145911321D01*
X134334607Y-145958940D01*
X134382226Y-146054178D01*
X134382226Y-146244654D01*
X134334607Y-146339892D01*
X134286988Y-146387511D01*
X134191750Y-146435130D01*
X134001273Y-146435130D01*
X133906035Y-146387511D01*
X133858416Y-146339892D01*
X133810797Y-146244654D01*
X133810797Y-146054178D01*
X133858416Y-145958940D01*
X133906035Y-145911321D01*
X134001273Y-145863702D01*
G04 #@! TO.C,D_LED_19*
X159575083Y-146435130D02*
X159575083Y-145435130D01*
X159336988Y-145435130D01*
X159194130Y-145482750D01*
X159098892Y-145577988D01*
X159051273Y-145673226D01*
X159003654Y-145863702D01*
X159003654Y-146006559D01*
X159051273Y-146197035D01*
X159098892Y-146292273D01*
X159194130Y-146387511D01*
X159336988Y-146435130D01*
X159575083Y-146435130D01*
X158813178Y-146530369D02*
X158051273Y-146530369D01*
X157336988Y-146435130D02*
X157813178Y-146435130D01*
X157813178Y-145435130D01*
X157003654Y-145911321D02*
X156670321Y-145911321D01*
X156527464Y-146435130D02*
X157003654Y-146435130D01*
X157003654Y-145435130D01*
X156527464Y-145435130D01*
X156098892Y-146435130D02*
X156098892Y-145435130D01*
X155860797Y-145435130D01*
X155717940Y-145482750D01*
X155622702Y-145577988D01*
X155575083Y-145673226D01*
X155527464Y-145863702D01*
X155527464Y-146006559D01*
X155575083Y-146197035D01*
X155622702Y-146292273D01*
X155717940Y-146387511D01*
X155860797Y-146435130D01*
X156098892Y-146435130D01*
X155336988Y-146530369D02*
X154575083Y-146530369D01*
X153813178Y-146435130D02*
X154384607Y-146435130D01*
X154098892Y-146435130D02*
X154098892Y-145435130D01*
X154194130Y-145577988D01*
X154289369Y-145673226D01*
X154384607Y-145720845D01*
X153336988Y-146435130D02*
X153146511Y-146435130D01*
X153051273Y-146387511D01*
X153003654Y-146339892D01*
X152908416Y-146197035D01*
X152860797Y-146006559D01*
X152860797Y-145625607D01*
X152908416Y-145530369D01*
X152956035Y-145482750D01*
X153051273Y-145435130D01*
X153241750Y-145435130D01*
X153336988Y-145482750D01*
X153384607Y-145530369D01*
X153432226Y-145625607D01*
X153432226Y-145863702D01*
X153384607Y-145958940D01*
X153336988Y-146006559D01*
X153241750Y-146054178D01*
X153051273Y-146054178D01*
X152956035Y-146006559D01*
X152908416Y-145958940D01*
X152860797Y-145863702D01*
G04 #@! TO.C,J3*
X167332380Y-46556666D02*
X168046666Y-46556666D01*
X168189523Y-46509047D01*
X168284761Y-46413809D01*
X168332380Y-46270952D01*
X168332380Y-46175714D01*
X167332380Y-46937619D02*
X167332380Y-47556666D01*
X167713333Y-47223333D01*
X167713333Y-47366190D01*
X167760952Y-47461428D01*
X167808571Y-47509047D01*
X167903809Y-47556666D01*
X168141904Y-47556666D01*
X168237142Y-47509047D01*
X168284761Y-47461428D01*
X168332380Y-47366190D01*
X168332380Y-47080476D01*
X168284761Y-46985238D01*
X168237142Y-46937619D01*
G04 #@! TO.C,D12*
X180042930Y-54004464D02*
X179042930Y-54004464D01*
X179042930Y-54242559D01*
X179090550Y-54385416D01*
X179185788Y-54480654D01*
X179281026Y-54528273D01*
X179471502Y-54575892D01*
X179614359Y-54575892D01*
X179804835Y-54528273D01*
X179900073Y-54480654D01*
X179995311Y-54385416D01*
X180042930Y-54242559D01*
X180042930Y-54004464D01*
X180042930Y-55528273D02*
X180042930Y-54956845D01*
X180042930Y-55242559D02*
X179042930Y-55242559D01*
X179185788Y-55147321D01*
X179281026Y-55052083D01*
X179328645Y-54956845D01*
X179138169Y-55909226D02*
X179090550Y-55956845D01*
X179042930Y-56052083D01*
X179042930Y-56290178D01*
X179090550Y-56385416D01*
X179138169Y-56433035D01*
X179233407Y-56480654D01*
X179328645Y-56480654D01*
X179471502Y-56433035D01*
X180042930Y-55861607D01*
X180042930Y-56480654D01*
X181917930Y-52004464D02*
X181917930Y-51433035D01*
X181917930Y-51718750D02*
X180917930Y-51718750D01*
X181060788Y-51623511D01*
X181156026Y-51528273D01*
X181203645Y-51433035D01*
G04 #@! TO.C,D13*
X166554835Y-41202380D02*
X166554835Y-40202380D01*
X166316740Y-40202380D01*
X166173883Y-40250000D01*
X166078645Y-40345238D01*
X166031026Y-40440476D01*
X165983407Y-40630952D01*
X165983407Y-40773809D01*
X166031026Y-40964285D01*
X166078645Y-41059523D01*
X166173883Y-41154761D01*
X166316740Y-41202380D01*
X166554835Y-41202380D01*
X165031026Y-41202380D02*
X165602454Y-41202380D01*
X165316740Y-41202380D02*
X165316740Y-40202380D01*
X165411978Y-40345238D01*
X165507216Y-40440476D01*
X165602454Y-40488095D01*
X164697692Y-40202380D02*
X164078645Y-40202380D01*
X164411978Y-40583333D01*
X164269121Y-40583333D01*
X164173883Y-40630952D01*
X164126264Y-40678571D01*
X164078645Y-40773809D01*
X164078645Y-41011904D01*
X164126264Y-41107142D01*
X164173883Y-41154761D01*
X164269121Y-41202380D01*
X164554835Y-41202380D01*
X164650073Y-41154761D01*
X164697692Y-41107142D01*
X161554835Y-39327380D02*
X162126264Y-39327380D01*
X161840550Y-39327380D02*
X161840550Y-38327380D01*
X161935788Y-38470238D01*
X162031026Y-38565476D01*
X162126264Y-38613095D01*
G04 #@! TO.C,D14*
X129254835Y-41202380D02*
X129254835Y-40202380D01*
X129016740Y-40202380D01*
X128873883Y-40250000D01*
X128778645Y-40345238D01*
X128731026Y-40440476D01*
X128683407Y-40630952D01*
X128683407Y-40773809D01*
X128731026Y-40964285D01*
X128778645Y-41059523D01*
X128873883Y-41154761D01*
X129016740Y-41202380D01*
X129254835Y-41202380D01*
X127731026Y-41202380D02*
X128302454Y-41202380D01*
X128016740Y-41202380D02*
X128016740Y-40202380D01*
X128111978Y-40345238D01*
X128207216Y-40440476D01*
X128302454Y-40488095D01*
X126873883Y-40535714D02*
X126873883Y-41202380D01*
X127111978Y-40154761D02*
X127350073Y-40869047D01*
X126731026Y-40869047D01*
X124254835Y-39327380D02*
X124826264Y-39327380D01*
X124540550Y-39327380D02*
X124540550Y-38327380D01*
X124635788Y-38470238D01*
X124731026Y-38565476D01*
X124826264Y-38613095D01*
G04 #@! TO.C,D15*
X114142930Y-54004464D02*
X113142930Y-54004464D01*
X113142930Y-54242559D01*
X113190550Y-54385416D01*
X113285788Y-54480654D01*
X113381026Y-54528273D01*
X113571502Y-54575892D01*
X113714359Y-54575892D01*
X113904835Y-54528273D01*
X114000073Y-54480654D01*
X114095311Y-54385416D01*
X114142930Y-54242559D01*
X114142930Y-54004464D01*
X114142930Y-55528273D02*
X114142930Y-54956845D01*
X114142930Y-55242559D02*
X113142930Y-55242559D01*
X113285788Y-55147321D01*
X113381026Y-55052083D01*
X113428645Y-54956845D01*
X113142930Y-56433035D02*
X113142930Y-55956845D01*
X113619121Y-55909226D01*
X113571502Y-55956845D01*
X113523883Y-56052083D01*
X113523883Y-56290178D01*
X113571502Y-56385416D01*
X113619121Y-56433035D01*
X113714359Y-56480654D01*
X113952454Y-56480654D01*
X114047692Y-56433035D01*
X114095311Y-56385416D01*
X114142930Y-56290178D01*
X114142930Y-56052083D01*
X114095311Y-55956845D01*
X114047692Y-55909226D01*
X112267930Y-59004464D02*
X112267930Y-58433035D01*
X112267930Y-58718750D02*
X111267930Y-58718750D01*
X111410788Y-58623511D01*
X111506026Y-58528273D01*
X111553645Y-58433035D01*
G04 #@! TO.C,D16*
X114102380Y-78385714D02*
X113102380Y-78385714D01*
X113102380Y-78623809D01*
X113150000Y-78766666D01*
X113245238Y-78861904D01*
X113340476Y-78909523D01*
X113530952Y-78957142D01*
X113673809Y-78957142D01*
X113864285Y-78909523D01*
X113959523Y-78861904D01*
X114054761Y-78766666D01*
X114102380Y-78623809D01*
X114102380Y-78385714D01*
X114102380Y-79909523D02*
X114102380Y-79338095D01*
X114102380Y-79623809D02*
X113102380Y-79623809D01*
X113245238Y-79528571D01*
X113340476Y-79433333D01*
X113388095Y-79338095D01*
X113102380Y-80766666D02*
X113102380Y-80576190D01*
X113150000Y-80480952D01*
X113197619Y-80433333D01*
X113340476Y-80338095D01*
X113530952Y-80290476D01*
X113911904Y-80290476D01*
X114007142Y-80338095D01*
X114054761Y-80385714D01*
X114102380Y-80480952D01*
X114102380Y-80671428D01*
X114054761Y-80766666D01*
X114007142Y-80814285D01*
X113911904Y-80861904D01*
X113673809Y-80861904D01*
X113578571Y-80814285D01*
X113530952Y-80766666D01*
X113483333Y-80671428D01*
X113483333Y-80480952D01*
X113530952Y-80385714D01*
X113578571Y-80338095D01*
X113673809Y-80290476D01*
X112227380Y-83385714D02*
X112227380Y-82814285D01*
X112227380Y-83100000D02*
X111227380Y-83100000D01*
X111370238Y-83004761D01*
X111465476Y-82909523D01*
X111513095Y-82814285D01*
G04 #@! TO.C,D17*
X114252380Y-106185714D02*
X113252380Y-106185714D01*
X113252380Y-106423809D01*
X113300000Y-106566666D01*
X113395238Y-106661904D01*
X113490476Y-106709523D01*
X113680952Y-106757142D01*
X113823809Y-106757142D01*
X114014285Y-106709523D01*
X114109523Y-106661904D01*
X114204761Y-106566666D01*
X114252380Y-106423809D01*
X114252380Y-106185714D01*
X114252380Y-107709523D02*
X114252380Y-107138095D01*
X114252380Y-107423809D02*
X113252380Y-107423809D01*
X113395238Y-107328571D01*
X113490476Y-107233333D01*
X113538095Y-107138095D01*
X113252380Y-108042857D02*
X113252380Y-108709523D01*
X114252380Y-108280952D01*
X112377380Y-111185714D02*
X112377380Y-110614285D01*
X112377380Y-110900000D02*
X111377380Y-110900000D01*
X111520238Y-110804761D01*
X111615476Y-110709523D01*
X111663095Y-110614285D01*
G04 #@! TO.C,D18*
X114142930Y-130304464D02*
X113142930Y-130304464D01*
X113142930Y-130542559D01*
X113190550Y-130685416D01*
X113285788Y-130780654D01*
X113381026Y-130828273D01*
X113571502Y-130875892D01*
X113714359Y-130875892D01*
X113904835Y-130828273D01*
X114000073Y-130780654D01*
X114095311Y-130685416D01*
X114142930Y-130542559D01*
X114142930Y-130304464D01*
X114142930Y-131828273D02*
X114142930Y-131256845D01*
X114142930Y-131542559D02*
X113142930Y-131542559D01*
X113285788Y-131447321D01*
X113381026Y-131352083D01*
X113428645Y-131256845D01*
X113571502Y-132399702D02*
X113523883Y-132304464D01*
X113476264Y-132256845D01*
X113381026Y-132209226D01*
X113333407Y-132209226D01*
X113238169Y-132256845D01*
X113190550Y-132304464D01*
X113142930Y-132399702D01*
X113142930Y-132590178D01*
X113190550Y-132685416D01*
X113238169Y-132733035D01*
X113333407Y-132780654D01*
X113381026Y-132780654D01*
X113476264Y-132733035D01*
X113523883Y-132685416D01*
X113571502Y-132590178D01*
X113571502Y-132399702D01*
X113619121Y-132304464D01*
X113666740Y-132256845D01*
X113761978Y-132209226D01*
X113952454Y-132209226D01*
X114047692Y-132256845D01*
X114095311Y-132304464D01*
X114142930Y-132399702D01*
X114142930Y-132590178D01*
X114095311Y-132685416D01*
X114047692Y-132733035D01*
X113952454Y-132780654D01*
X113761978Y-132780654D01*
X113666740Y-132733035D01*
X113619121Y-132685416D01*
X113571502Y-132590178D01*
X112267930Y-135304464D02*
X112267930Y-134733035D01*
X112267930Y-135018750D02*
X111267930Y-135018750D01*
X111410788Y-134923511D01*
X111506026Y-134828273D01*
X111553645Y-134733035D01*
G04 #@! TO.C,D19*
X129254835Y-146221130D02*
X129254835Y-145221130D01*
X129016740Y-145221130D01*
X128873883Y-145268750D01*
X128778645Y-145363988D01*
X128731026Y-145459226D01*
X128683407Y-145649702D01*
X128683407Y-145792559D01*
X128731026Y-145983035D01*
X128778645Y-146078273D01*
X128873883Y-146173511D01*
X129016740Y-146221130D01*
X129254835Y-146221130D01*
X127731026Y-146221130D02*
X128302454Y-146221130D01*
X128016740Y-146221130D02*
X128016740Y-145221130D01*
X128111978Y-145363988D01*
X128207216Y-145459226D01*
X128302454Y-145506845D01*
X127254835Y-146221130D02*
X127064359Y-146221130D01*
X126969121Y-146173511D01*
X126921502Y-146125892D01*
X126826264Y-145983035D01*
X126778645Y-145792559D01*
X126778645Y-145411607D01*
X126826264Y-145316369D01*
X126873883Y-145268750D01*
X126969121Y-145221130D01*
X127159597Y-145221130D01*
X127254835Y-145268750D01*
X127302454Y-145316369D01*
X127350073Y-145411607D01*
X127350073Y-145649702D01*
X127302454Y-145744940D01*
X127254835Y-145792559D01*
X127159597Y-145840178D01*
X126969121Y-145840178D01*
X126873883Y-145792559D01*
X126826264Y-145744940D01*
X126778645Y-145649702D01*
X131254835Y-148096130D02*
X131826264Y-148096130D01*
X131540550Y-148096130D02*
X131540550Y-147096130D01*
X131635788Y-147238988D01*
X131731026Y-147334226D01*
X131826264Y-147381845D01*
G04 #@! TO.C,D20*
X166554835Y-146221130D02*
X166554835Y-145221130D01*
X166316740Y-145221130D01*
X166173883Y-145268750D01*
X166078645Y-145363988D01*
X166031026Y-145459226D01*
X165983407Y-145649702D01*
X165983407Y-145792559D01*
X166031026Y-145983035D01*
X166078645Y-146078273D01*
X166173883Y-146173511D01*
X166316740Y-146221130D01*
X166554835Y-146221130D01*
X165602454Y-145316369D02*
X165554835Y-145268750D01*
X165459597Y-145221130D01*
X165221502Y-145221130D01*
X165126264Y-145268750D01*
X165078645Y-145316369D01*
X165031026Y-145411607D01*
X165031026Y-145506845D01*
X165078645Y-145649702D01*
X165650073Y-146221130D01*
X165031026Y-146221130D01*
X164411978Y-145221130D02*
X164316740Y-145221130D01*
X164221502Y-145268750D01*
X164173883Y-145316369D01*
X164126264Y-145411607D01*
X164078645Y-145602083D01*
X164078645Y-145840178D01*
X164126264Y-146030654D01*
X164173883Y-146125892D01*
X164221502Y-146173511D01*
X164316740Y-146221130D01*
X164411978Y-146221130D01*
X164507216Y-146173511D01*
X164554835Y-146125892D01*
X164602454Y-146030654D01*
X164650073Y-145840178D01*
X164650073Y-145602083D01*
X164602454Y-145411607D01*
X164554835Y-145316369D01*
X164507216Y-145268750D01*
X164411978Y-145221130D01*
X168554835Y-148096130D02*
X169126264Y-148096130D01*
X168840550Y-148096130D02*
X168840550Y-147096130D01*
X168935788Y-147238988D01*
X169031026Y-147334226D01*
X169126264Y-147381845D01*
G04 #@! TO.C,D21*
X179927380Y-128735714D02*
X178927380Y-128735714D01*
X178927380Y-128973809D01*
X178975000Y-129116666D01*
X179070238Y-129211904D01*
X179165476Y-129259523D01*
X179355952Y-129307142D01*
X179498809Y-129307142D01*
X179689285Y-129259523D01*
X179784523Y-129211904D01*
X179879761Y-129116666D01*
X179927380Y-128973809D01*
X179927380Y-128735714D01*
X179022619Y-129688095D02*
X178975000Y-129735714D01*
X178927380Y-129830952D01*
X178927380Y-130069047D01*
X178975000Y-130164285D01*
X179022619Y-130211904D01*
X179117857Y-130259523D01*
X179213095Y-130259523D01*
X179355952Y-130211904D01*
X179927380Y-129640476D01*
X179927380Y-130259523D01*
X179927380Y-131211904D02*
X179927380Y-130640476D01*
X179927380Y-130926190D02*
X178927380Y-130926190D01*
X179070238Y-130830952D01*
X179165476Y-130735714D01*
X179213095Y-130640476D01*
X181802380Y-126735714D02*
X181802380Y-126164285D01*
X181802380Y-126450000D02*
X180802380Y-126450000D01*
X180945238Y-126354761D01*
X181040476Y-126259523D01*
X181088095Y-126164285D01*
G04 #@! TO.C,D22*
X180002380Y-106185714D02*
X179002380Y-106185714D01*
X179002380Y-106423809D01*
X179050000Y-106566666D01*
X179145238Y-106661904D01*
X179240476Y-106709523D01*
X179430952Y-106757142D01*
X179573809Y-106757142D01*
X179764285Y-106709523D01*
X179859523Y-106661904D01*
X179954761Y-106566666D01*
X180002380Y-106423809D01*
X180002380Y-106185714D01*
X179097619Y-107138095D02*
X179050000Y-107185714D01*
X179002380Y-107280952D01*
X179002380Y-107519047D01*
X179050000Y-107614285D01*
X179097619Y-107661904D01*
X179192857Y-107709523D01*
X179288095Y-107709523D01*
X179430952Y-107661904D01*
X180002380Y-107090476D01*
X180002380Y-107709523D01*
X179097619Y-108090476D02*
X179050000Y-108138095D01*
X179002380Y-108233333D01*
X179002380Y-108471428D01*
X179050000Y-108566666D01*
X179097619Y-108614285D01*
X179192857Y-108661904D01*
X179288095Y-108661904D01*
X179430952Y-108614285D01*
X180002380Y-108042857D01*
X180002380Y-108661904D01*
X181877380Y-104185714D02*
X181877380Y-103614285D01*
X181877380Y-103900000D02*
X180877380Y-103900000D01*
X181020238Y-103804761D01*
X181115476Y-103709523D01*
X181163095Y-103614285D01*
G04 #@! TO.C,D23*
X180102380Y-78685714D02*
X179102380Y-78685714D01*
X179102380Y-78923809D01*
X179150000Y-79066666D01*
X179245238Y-79161904D01*
X179340476Y-79209523D01*
X179530952Y-79257142D01*
X179673809Y-79257142D01*
X179864285Y-79209523D01*
X179959523Y-79161904D01*
X180054761Y-79066666D01*
X180102380Y-78923809D01*
X180102380Y-78685714D01*
X179197619Y-79638095D02*
X179150000Y-79685714D01*
X179102380Y-79780952D01*
X179102380Y-80019047D01*
X179150000Y-80114285D01*
X179197619Y-80161904D01*
X179292857Y-80209523D01*
X179388095Y-80209523D01*
X179530952Y-80161904D01*
X180102380Y-79590476D01*
X180102380Y-80209523D01*
X179102380Y-80542857D02*
X179102380Y-81161904D01*
X179483333Y-80828571D01*
X179483333Y-80971428D01*
X179530952Y-81066666D01*
X179578571Y-81114285D01*
X179673809Y-81161904D01*
X179911904Y-81161904D01*
X180007142Y-81114285D01*
X180054761Y-81066666D01*
X180102380Y-80971428D01*
X180102380Y-80685714D01*
X180054761Y-80590476D01*
X180007142Y-80542857D01*
X181977380Y-76685714D02*
X181977380Y-76114285D01*
X181977380Y-76400000D02*
X180977380Y-76400000D01*
X181120238Y-76304761D01*
X181215476Y-76209523D01*
X181263095Y-76114285D01*
G04 #@! TD*
M02*
