M48
;DRILL file {KiCad 5.0.1} date Wed 06 Feb 2019 01:48:59 PM CET
;FORMAT={-:-/ absolute / metric / decimal}
FMAT,2
METRIC,TZ
T1C0.650
T2C1.700
T3C2.200
T4C3.050
T5C4.000
%
G90
G05
M71
T1
X133.71Y-42.
X139.49Y-42.
T2
X175.294Y-126.779
X175.294Y-136.939
T3
X165.8Y-112.7
X127.7Y-65.
X146.7Y-93.8
X127.7Y-131.8
X165.8Y-58.8
T4
X182.294Y-119.959
X182.294Y-143.759
T5
X118.142Y-103.283
X156.242Y-141.383
X175.292Y-65.183
X118.142Y-122.333
X156.242Y-65.183
X118.142Y-84.233
X156.242Y-122.333
X156.242Y-84.233
X137.192Y-141.383
X175.292Y-103.283
X156.242Y-103.283
X167.054Y-119.959
X167.054Y-143.759
X175.294Y-131.859
X137.192Y-103.283
X137.192Y-84.233
X175.292Y-84.233
X118.142Y-141.383
X118.142Y-65.183
X137.192Y-65.183
X137.192Y-122.333
T0
M30
