M48
;DRILL file {KiCad 5.0.1} date Wed 06 Feb 2019 01:48:59 PM CET
;FORMAT={-:-/ absolute / metric / decimal}
FMAT,2
METRIC,TZ
T1C0.300
T2C0.600
T3C0.800
T4C1.500
%
G90
G05
M71
T1
X111.5Y-120.8
X124.9Y-74.1
X132.3Y-44.85
X134.9Y-45.2
X137.9Y-45.2
X139.7Y-39.2
X140.9Y-44.85
X144.2Y-74.7
X144.4Y-49.55
X151.1Y-36.8
X152.55Y-53.8
X152.75Y-51.45
X158.65Y-52.6
X161.6Y-46.7
X164.Y-53.75
X164.6Y-137.3
X166.486Y-72.493
X166.739Y-73.174
X166.8Y-42.9
X167.225Y-51.775
X167.5Y-46.3
X167.51Y-73.9
X167.8Y-148.
X168.509Y-62.643
X168.55Y-116.7
X168.909Y-81.693
X169.309Y-100.743
X169.8Y-128.049
X171.8Y-52.3
X172.1Y-74.7
X172.55Y-52.85
X172.6Y-40.3
X172.7Y-148.
X173.1Y-38.4
X173.115Y-52.3
X173.65Y-52.85
X176.4Y-39.9
X177.3Y-118.5
X177.8Y-42.3
X178.Y-36.8
X178.9Y-117.
X179.2Y-49.4
X179.5Y-144.4
X180.Y-49.4
X180.8Y-49.4
X181.6Y-49.4
X181.7Y-148.
X182.4Y-49.4
T3
X151.4Y-42.7
X151.4Y-44.7
X151.4Y-46.7
X151.4Y-48.7
T4
X133.382Y-119.793
X139.732Y-117.253
X114.332Y-100.743
X120.682Y-98.203
X152.432Y-138.843
X158.782Y-136.303
X171.482Y-62.643
X177.832Y-60.103
X114.332Y-119.793
X120.682Y-117.253
X152.432Y-62.643
X158.782Y-60.103
X114.332Y-81.693
X120.682Y-79.153
X152.432Y-119.793
X158.782Y-117.253
X152.432Y-81.693
X158.782Y-79.153
X133.382Y-138.843
X139.732Y-136.303
X171.482Y-100.743
X177.832Y-98.203
X152.432Y-100.743
X158.782Y-98.203
X177.834Y-128.049
X180.374Y-134.399
X133.382Y-100.743
X139.732Y-98.203
X133.382Y-81.693
X139.732Y-79.153
X171.482Y-81.693
X177.832Y-79.153
X114.332Y-138.843
X120.682Y-136.303
X114.332Y-62.643
X120.682Y-60.103
X133.382Y-62.643
X139.732Y-60.103
T2
X132.28Y-38.65G85X132.28Y-38.05
G05
X132.28Y-43.08G85X132.28Y-41.98
G05
X140.92Y-38.65G85X140.92Y-38.05
G05
X140.92Y-43.08G85X140.92Y-41.98
G05
T0
M30
