G04 #@! TF.GenerationSoftware,KiCad,Pcbnew,5.0.1*
G04 #@! TF.CreationDate,2019-02-06T13:48:55+01:00*
G04 #@! TF.ProjectId,keypad,6B65797061642E6B696361645F706362,rev?*
G04 #@! TF.SameCoordinates,Original*
G04 #@! TF.FileFunction,Legend,Top*
G04 #@! TF.FilePolarity,Positive*
%FSLAX46Y46*%
G04 Gerber Fmt 4.6, Leading zero omitted, Abs format (unit mm)*
G04 Created by KiCad (PCBNEW 5.0.1) date Wed 06 Feb 2019 01:48:55 PM CET*
%MOMM*%
%LPD*%
G01*
G04 APERTURE LIST*
%ADD10C,0.120000*%
%ADD11C,0.150000*%
%ADD12C,0.010000*%
G04 APERTURE END LIST*
D10*
G04 #@! TO.C,C1*
X175613748Y-54610000D02*
X176136252Y-54610000D01*
X175613748Y-53190000D02*
X176136252Y-53190000D01*
G04 #@! TO.C,C2*
X180190000Y-43861252D02*
X180190000Y-43338748D01*
X181610000Y-43861252D02*
X181610000Y-43338748D01*
G04 #@! TO.C,C3*
X171161252Y-37690000D02*
X170638748Y-37690000D01*
X171161252Y-39110000D02*
X170638748Y-39110000D01*
G04 #@! TO.C,C4*
X166210000Y-47613748D02*
X166210000Y-48136252D01*
X164790000Y-47613748D02*
X164790000Y-48136252D01*
G04 #@! TO.C,C5*
X162590000Y-47638748D02*
X162590000Y-48161252D01*
X164010000Y-47638748D02*
X164010000Y-48161252D01*
G04 #@! TO.C,C6*
X153490000Y-43161252D02*
X153490000Y-42638748D01*
X154910000Y-43161252D02*
X154910000Y-42638748D01*
G04 #@! TO.C,C7*
X154910000Y-47963748D02*
X154910000Y-48486252D01*
X153490000Y-47963748D02*
X153490000Y-48486252D01*
G04 #@! TO.C,C8*
X164113748Y-42190000D02*
X164636252Y-42190000D01*
X164113748Y-43610000D02*
X164636252Y-43610000D01*
G04 #@! TO.C,R1*
X147286252Y-54610000D02*
X146763748Y-54610000D01*
X147286252Y-53190000D02*
X146763748Y-53190000D01*
G04 #@! TO.C,R4*
X175636252Y-39110000D02*
X175113748Y-39110000D01*
X175636252Y-37690000D02*
X175113748Y-37690000D01*
G04 #@! TO.C,K1_1*
X111156750Y-58197750D02*
X125126750Y-58197750D01*
X125126750Y-58197750D02*
X125126750Y-72167750D01*
X125126750Y-72167750D02*
X111156750Y-72167750D01*
X111156750Y-72167750D02*
X111156750Y-58197750D01*
G04 #@! TO.C,K1_2*
X130206750Y-58197750D02*
X144176750Y-58197750D01*
X144176750Y-58197750D02*
X144176750Y-72167750D01*
X144176750Y-72167750D02*
X130206750Y-72167750D01*
X130206750Y-72167750D02*
X130206750Y-58197750D01*
G04 #@! TO.C,K1_3*
X149256750Y-72167750D02*
X149256750Y-58197750D01*
X163226750Y-72167750D02*
X149256750Y-72167750D01*
X163226750Y-58197750D02*
X163226750Y-72167750D01*
X149256750Y-58197750D02*
X163226750Y-58197750D01*
G04 #@! TO.C,K1_4*
X168306750Y-72167750D02*
X168306750Y-58197750D01*
X182276750Y-72167750D02*
X168306750Y-72167750D01*
X182276750Y-58197750D02*
X182276750Y-72167750D01*
X168306750Y-58197750D02*
X182276750Y-58197750D01*
G04 #@! TO.C,K2_1*
X111156750Y-91217750D02*
X111156750Y-77247750D01*
X125126750Y-91217750D02*
X111156750Y-91217750D01*
X125126750Y-77247750D02*
X125126750Y-91217750D01*
X111156750Y-77247750D02*
X125126750Y-77247750D01*
G04 #@! TO.C,K2_2*
X130206750Y-91217750D02*
X130206750Y-77247750D01*
X144176750Y-91217750D02*
X130206750Y-91217750D01*
X144176750Y-77247750D02*
X144176750Y-91217750D01*
X130206750Y-77247750D02*
X144176750Y-77247750D01*
G04 #@! TO.C,K2_3*
X149256750Y-77247750D02*
X163226750Y-77247750D01*
X163226750Y-77247750D02*
X163226750Y-91217750D01*
X163226750Y-91217750D02*
X149256750Y-91217750D01*
X149256750Y-91217750D02*
X149256750Y-77247750D01*
G04 #@! TO.C,K2_4*
X168306750Y-77247750D02*
X182276750Y-77247750D01*
X182276750Y-77247750D02*
X182276750Y-91217750D01*
X182276750Y-91217750D02*
X168306750Y-91217750D01*
X168306750Y-91217750D02*
X168306750Y-77247750D01*
G04 #@! TO.C,K3_1*
X111156750Y-110267750D02*
X111156750Y-96297750D01*
X125126750Y-110267750D02*
X111156750Y-110267750D01*
X125126750Y-96297750D02*
X125126750Y-110267750D01*
X111156750Y-96297750D02*
X125126750Y-96297750D01*
G04 #@! TO.C,K3_2*
X130206750Y-110267750D02*
X130206750Y-96297750D01*
X144176750Y-110267750D02*
X130206750Y-110267750D01*
X144176750Y-96297750D02*
X144176750Y-110267750D01*
X130206750Y-96297750D02*
X144176750Y-96297750D01*
G04 #@! TO.C,K3_3*
X149256750Y-110267750D02*
X149256750Y-96297750D01*
X163226750Y-110267750D02*
X149256750Y-110267750D01*
X163226750Y-96297750D02*
X163226750Y-110267750D01*
X149256750Y-96297750D02*
X163226750Y-96297750D01*
G04 #@! TO.C,K3_4*
X168306750Y-110267750D02*
X168306750Y-96297750D01*
X182276750Y-110267750D02*
X168306750Y-110267750D01*
X182276750Y-96297750D02*
X182276750Y-110267750D01*
X168306750Y-96297750D02*
X182276750Y-96297750D01*
G04 #@! TO.C,K4_1*
X111156750Y-115347750D02*
X125126750Y-115347750D01*
X125126750Y-115347750D02*
X125126750Y-129317750D01*
X125126750Y-129317750D02*
X111156750Y-129317750D01*
X111156750Y-129317750D02*
X111156750Y-115347750D01*
G04 #@! TO.C,K4_2*
X130206750Y-115347750D02*
X144176750Y-115347750D01*
X144176750Y-115347750D02*
X144176750Y-129317750D01*
X144176750Y-129317750D02*
X130206750Y-129317750D01*
X130206750Y-129317750D02*
X130206750Y-115347750D01*
G04 #@! TO.C,K4_3*
X149256750Y-115347750D02*
X163226750Y-115347750D01*
X163226750Y-115347750D02*
X163226750Y-129317750D01*
X163226750Y-129317750D02*
X149256750Y-129317750D01*
X149256750Y-129317750D02*
X149256750Y-115347750D01*
G04 #@! TO.C,K5_1*
X111156750Y-134397750D02*
X125126750Y-134397750D01*
X125126750Y-134397750D02*
X125126750Y-148367750D01*
X125126750Y-148367750D02*
X111156750Y-148367750D01*
X111156750Y-148367750D02*
X111156750Y-134397750D01*
G04 #@! TO.C,K5_2*
X130206750Y-148367750D02*
X130206750Y-134397750D01*
X144176750Y-148367750D02*
X130206750Y-148367750D01*
X144176750Y-134397750D02*
X144176750Y-148367750D01*
X130206750Y-134397750D02*
X144176750Y-134397750D01*
G04 #@! TO.C,K5_3*
X149256750Y-134397750D02*
X163226750Y-134397750D01*
X163226750Y-134397750D02*
X163226750Y-148367750D01*
X163226750Y-148367750D02*
X149256750Y-148367750D01*
X149256750Y-148367750D02*
X149256750Y-134397750D01*
G04 #@! TO.C,K4_4*
X182278750Y-124873750D02*
X182278750Y-138843750D01*
X182278750Y-138843750D02*
X168308750Y-138843750D01*
X168308750Y-138843750D02*
X168308750Y-124873750D01*
X168308750Y-124873750D02*
X182278750Y-124873750D01*
G04 #@! TO.C,C9*
X154860000Y-52563748D02*
X154860000Y-53086252D01*
X153440000Y-52563748D02*
X153440000Y-53086252D01*
G04 #@! TO.C,C10*
X161365000Y-52538748D02*
X161365000Y-53061252D01*
X162785000Y-52538748D02*
X162785000Y-53061252D01*
G04 #@! TO.C,R5*
X164790000Y-53086252D02*
X164790000Y-52563748D01*
X166210000Y-53086252D02*
X166210000Y-52563748D01*
G04 #@! TO.C,U1*
X176935000Y-42490000D02*
X176935000Y-42910000D01*
X176935000Y-49610000D02*
X176935000Y-49190000D01*
X169815000Y-49610000D02*
X169815000Y-49190000D01*
X169815000Y-42490000D02*
X170235000Y-42490000D01*
X176935000Y-49610000D02*
X176515000Y-49610000D01*
X176935000Y-42490000D02*
X176515000Y-42490000D01*
X169815000Y-42910000D02*
X168435000Y-42910000D01*
X169815000Y-42490000D02*
X169815000Y-42910000D01*
X169815000Y-49610000D02*
X170235000Y-49610000D01*
G04 #@! TO.C,D1*
X151960000Y-53975000D02*
X151960000Y-51115000D01*
X151960000Y-51115000D02*
X150040000Y-51115000D01*
X150040000Y-51115000D02*
X150040000Y-53975000D01*
G04 #@! TO.C,R10*
X147286252Y-50060000D02*
X146763748Y-50060000D01*
X147286252Y-48640000D02*
X146763748Y-48640000D01*
G04 #@! TO.C,R11*
X147311252Y-50840000D02*
X146788748Y-50840000D01*
X147311252Y-52260000D02*
X146788748Y-52260000D01*
G04 #@! TO.C,U2*
X157325001Y-54235001D02*
X159125001Y-54235001D01*
X159125001Y-51015001D02*
X156675001Y-51015001D01*
G04 #@! TO.C,Y1*
X159900000Y-48275000D02*
X159900000Y-41025000D01*
X159900000Y-41025000D02*
X156300000Y-41025000D01*
X156300000Y-41025000D02*
X156300000Y-48275000D01*
D11*
G04 #@! TO.C,J3*
X140200000Y-35750000D02*
X133000000Y-35750000D01*
D10*
G04 #@! TO.C,J1*
X150340000Y-49760000D02*
X152460000Y-49760000D01*
X150340000Y-43700000D02*
X150340000Y-49760000D01*
X152460000Y-43700000D02*
X152460000Y-49760000D01*
X150340000Y-43700000D02*
X152460000Y-43700000D01*
X150340000Y-42700000D02*
X150340000Y-41640000D01*
X150340000Y-41640000D02*
X151400000Y-41640000D01*
D12*
G04 #@! TO.C,G\002A\002A\002A*
G36*
X120744728Y-40031333D02*
X120823943Y-40150523D01*
X120833200Y-40310800D01*
X120802234Y-40533588D01*
X120670577Y-40627664D01*
X120553222Y-40647804D01*
X120304654Y-40620668D01*
X120214429Y-40526739D01*
X120174085Y-40240280D01*
X120298468Y-40059543D01*
X120529791Y-40006000D01*
X120744728Y-40031333D01*
X120744728Y-40031333D01*
G37*
X120744728Y-40031333D02*
X120823943Y-40150523D01*
X120833200Y-40310800D01*
X120802234Y-40533588D01*
X120670577Y-40627664D01*
X120553222Y-40647804D01*
X120304654Y-40620668D01*
X120214429Y-40526739D01*
X120174085Y-40240280D01*
X120298468Y-40059543D01*
X120529791Y-40006000D01*
X120744728Y-40031333D01*
G36*
X126286505Y-41049865D02*
X126329059Y-41166495D01*
X126236110Y-41223627D01*
X126075301Y-41180396D01*
X125997923Y-41088347D01*
X126063605Y-41023232D01*
X126233860Y-41014726D01*
X126286505Y-41049865D01*
X126286505Y-41049865D01*
G37*
X126286505Y-41049865D02*
X126329059Y-41166495D01*
X126236110Y-41223627D01*
X126075301Y-41180396D01*
X125997923Y-41088347D01*
X126063605Y-41023232D01*
X126233860Y-41014726D01*
X126286505Y-41049865D01*
G36*
X128134991Y-42594792D02*
X128256764Y-42769644D01*
X128277193Y-42989592D01*
X128195149Y-43160480D01*
X128005505Y-43289100D01*
X127750385Y-43253775D01*
X127716600Y-43240712D01*
X127610287Y-43104573D01*
X127601358Y-42882077D01*
X127685156Y-42662588D01*
X127750516Y-42589732D01*
X127952651Y-42517374D01*
X128134991Y-42594792D01*
X128134991Y-42594792D01*
G37*
X128134991Y-42594792D02*
X128256764Y-42769644D01*
X128277193Y-42989592D01*
X128195149Y-43160480D01*
X128005505Y-43289100D01*
X127750385Y-43253775D01*
X127716600Y-43240712D01*
X127610287Y-43104573D01*
X127601358Y-42882077D01*
X127685156Y-42662588D01*
X127750516Y-42589732D01*
X127952651Y-42517374D01*
X128134991Y-42594792D01*
G36*
X130134855Y-48169462D02*
X130257720Y-48367304D01*
X130259416Y-48566964D01*
X130099829Y-48754534D01*
X129856629Y-48822425D01*
X129695176Y-48780736D01*
X129543689Y-48606444D01*
X129539503Y-48388618D01*
X129659017Y-48193647D01*
X129878632Y-48087919D01*
X129943145Y-48083200D01*
X130134855Y-48169462D01*
X130134855Y-48169462D01*
G37*
X130134855Y-48169462D02*
X130257720Y-48367304D01*
X130259416Y-48566964D01*
X130099829Y-48754534D01*
X129856629Y-48822425D01*
X129695176Y-48780736D01*
X129543689Y-48606444D01*
X129539503Y-48388618D01*
X129659017Y-48193647D01*
X129878632Y-48087919D01*
X129943145Y-48083200D01*
X130134855Y-48169462D01*
G36*
X122630000Y-42311149D02*
X122952521Y-42359851D01*
X123299849Y-42424988D01*
X123604021Y-42493439D01*
X123797077Y-42552087D01*
X123824711Y-42566969D01*
X123778440Y-42647096D01*
X123622989Y-42828881D01*
X123396111Y-43073621D01*
X123135559Y-43342615D01*
X122879085Y-43597161D01*
X122664443Y-43798556D01*
X122529386Y-43908098D01*
X122507205Y-43917600D01*
X122442389Y-43830773D01*
X122341436Y-43608777D01*
X122275167Y-43435000D01*
X122170819Y-43076129D01*
X122109527Y-42734281D01*
X122102697Y-42622200D01*
X122123879Y-42394414D01*
X122224346Y-42305511D01*
X122400248Y-42292000D01*
X122630000Y-42311149D01*
X122630000Y-42311149D01*
G37*
X122630000Y-42311149D02*
X122952521Y-42359851D01*
X123299849Y-42424988D01*
X123604021Y-42493439D01*
X123797077Y-42552087D01*
X123824711Y-42566969D01*
X123778440Y-42647096D01*
X123622989Y-42828881D01*
X123396111Y-43073621D01*
X123135559Y-43342615D01*
X122879085Y-43597161D01*
X122664443Y-43798556D01*
X122529386Y-43908098D01*
X122507205Y-43917600D01*
X122442389Y-43830773D01*
X122341436Y-43608777D01*
X122275167Y-43435000D01*
X122170819Y-43076129D01*
X122109527Y-42734281D01*
X122102697Y-42622200D01*
X122123879Y-42394414D01*
X122224346Y-42305511D01*
X122400248Y-42292000D01*
X122630000Y-42311149D01*
G36*
X121900000Y-42616377D02*
X121873273Y-42877575D01*
X121805075Y-43196042D01*
X121713382Y-43512330D01*
X121616169Y-43766992D01*
X121531410Y-43900583D01*
X121509449Y-43907998D01*
X121415956Y-43833076D01*
X121222657Y-43640946D01*
X120964241Y-43366716D01*
X120840643Y-43231083D01*
X120547737Y-42898787D01*
X120392195Y-42675137D01*
X120387525Y-42532821D01*
X120547231Y-42444525D01*
X120884822Y-42382934D01*
X121283502Y-42335502D01*
X121900000Y-42265753D01*
X121900000Y-42616377D01*
X121900000Y-42616377D01*
G37*
X121900000Y-42616377D02*
X121873273Y-42877575D01*
X121805075Y-43196042D01*
X121713382Y-43512330D01*
X121616169Y-43766992D01*
X121531410Y-43900583D01*
X121509449Y-43907998D01*
X121415956Y-43833076D01*
X121222657Y-43640946D01*
X120964241Y-43366716D01*
X120840643Y-43231083D01*
X120547737Y-42898787D01*
X120392195Y-42675137D01*
X120387525Y-42532821D01*
X120547231Y-42444525D01*
X120884822Y-42382934D01*
X121283502Y-42335502D01*
X121900000Y-42265753D01*
X121900000Y-42616377D01*
G36*
X124333617Y-42747993D02*
X124614064Y-42876857D01*
X124953811Y-43055117D01*
X125296809Y-43252898D01*
X125587008Y-43440325D01*
X125659158Y-43492925D01*
X126014717Y-43763425D01*
X124947958Y-43934634D01*
X124425263Y-44009583D01*
X123901946Y-44069571D01*
X123456724Y-44106192D01*
X123274324Y-44113321D01*
X122667449Y-44120800D01*
X123373200Y-43409600D01*
X123681820Y-43107213D01*
X123941495Y-42868729D01*
X124117114Y-42725545D01*
X124168520Y-42698400D01*
X124333617Y-42747993D01*
X124333617Y-42747993D01*
G37*
X124333617Y-42747993D02*
X124614064Y-42876857D01*
X124953811Y-43055117D01*
X125296809Y-43252898D01*
X125587008Y-43440325D01*
X125659158Y-43492925D01*
X126014717Y-43763425D01*
X124947958Y-43934634D01*
X124425263Y-44009583D01*
X123901946Y-44069571D01*
X123456724Y-44106192D01*
X123274324Y-44113321D01*
X122667449Y-44120800D01*
X123373200Y-43409600D01*
X123681820Y-43107213D01*
X123941495Y-42868729D01*
X124117114Y-42725545D01*
X124168520Y-42698400D01*
X124333617Y-42747993D01*
G36*
X120473883Y-43142169D02*
X120756425Y-43447353D01*
X120997313Y-43719060D01*
X121150253Y-43904875D01*
X121162725Y-43922069D01*
X121228047Y-44032951D01*
X121200477Y-44091547D01*
X121043524Y-44113386D01*
X120720693Y-44113999D01*
X120711961Y-44113897D01*
X120314633Y-44077141D01*
X119815634Y-43985436D01*
X119303434Y-43855501D01*
X119233381Y-43834497D01*
X118848429Y-43705138D01*
X118555222Y-43584892D01*
X118395096Y-43491837D01*
X118378076Y-43460400D01*
X118477896Y-43369268D01*
X118714672Y-43215188D01*
X119043788Y-43026433D01*
X119167813Y-42959899D01*
X119924237Y-42560999D01*
X120473883Y-43142169D01*
X120473883Y-43142169D01*
G37*
X120473883Y-43142169D02*
X120756425Y-43447353D01*
X120997313Y-43719060D01*
X121150253Y-43904875D01*
X121162725Y-43922069D01*
X121228047Y-44032951D01*
X121200477Y-44091547D01*
X121043524Y-44113386D01*
X120720693Y-44113999D01*
X120711961Y-44113897D01*
X120314633Y-44077141D01*
X119815634Y-43985436D01*
X119303434Y-43855501D01*
X119233381Y-43834497D01*
X118848429Y-43705138D01*
X118555222Y-43584892D01*
X118395096Y-43491837D01*
X118378076Y-43460400D01*
X118477896Y-43369268D01*
X118714672Y-43215188D01*
X119043788Y-43026433D01*
X119167813Y-42959899D01*
X119924237Y-42560999D01*
X120473883Y-43142169D01*
G36*
X125880922Y-44098850D02*
X125797652Y-44298976D01*
X125749847Y-44396282D01*
X125626017Y-44687120D01*
X125559546Y-44936438D01*
X125556044Y-44980482D01*
X125510552Y-45231514D01*
X125348418Y-45419938D01*
X125100400Y-45566720D01*
X124945289Y-45634000D01*
X124794469Y-45656205D01*
X124599181Y-45625975D01*
X124310672Y-45535950D01*
X123897019Y-45385048D01*
X123503497Y-45235718D01*
X123188186Y-45111246D01*
X122995271Y-45029325D01*
X122957387Y-45008854D01*
X123008676Y-44932670D01*
X123184406Y-44780868D01*
X123349529Y-44656709D01*
X123607347Y-44495901D01*
X123896920Y-44375816D01*
X124274865Y-44278060D01*
X124797797Y-44184236D01*
X124809284Y-44182407D01*
X125242845Y-44114254D01*
X125596883Y-44060062D01*
X125826470Y-44026623D01*
X125888971Y-44019200D01*
X125880922Y-44098850D01*
X125880922Y-44098850D01*
G37*
X125880922Y-44098850D02*
X125797652Y-44298976D01*
X125749847Y-44396282D01*
X125626017Y-44687120D01*
X125559546Y-44936438D01*
X125556044Y-44980482D01*
X125510552Y-45231514D01*
X125348418Y-45419938D01*
X125100400Y-45566720D01*
X124945289Y-45634000D01*
X124794469Y-45656205D01*
X124599181Y-45625975D01*
X124310672Y-45535950D01*
X123897019Y-45385048D01*
X123503497Y-45235718D01*
X123188186Y-45111246D01*
X122995271Y-45029325D01*
X122957387Y-45008854D01*
X123008676Y-44932670D01*
X123184406Y-44780868D01*
X123349529Y-44656709D01*
X123607347Y-44495901D01*
X123896920Y-44375816D01*
X124274865Y-44278060D01*
X124797797Y-44184236D01*
X124809284Y-44182407D01*
X125242845Y-44114254D01*
X125596883Y-44060062D01*
X125826470Y-44026623D01*
X125888971Y-44019200D01*
X125880922Y-44098850D01*
G36*
X122068139Y-43597596D02*
X122175054Y-43809491D01*
X122220101Y-43912654D01*
X122337504Y-44156033D01*
X122470303Y-44278596D01*
X122692522Y-44329068D01*
X122874525Y-44343420D01*
X123361247Y-44374800D01*
X122981219Y-44628800D01*
X122773492Y-44780961D01*
X122668045Y-44924572D01*
X122653044Y-45117291D01*
X122716653Y-45416776D01*
X122775746Y-45629885D01*
X122843583Y-45868971D01*
X122418390Y-45600559D01*
X122160425Y-45444628D01*
X122000148Y-45389730D01*
X121863903Y-45427667D01*
X121717998Y-45522614D01*
X121417894Y-45724943D01*
X121253120Y-45817274D01*
X121195735Y-45810574D01*
X121216376Y-45719481D01*
X121277699Y-45507876D01*
X121338768Y-45223952D01*
X121339446Y-45220214D01*
X121359336Y-44996662D01*
X121290651Y-44840566D01*
X121093648Y-44678078D01*
X121021179Y-44628800D01*
X120641952Y-44374800D01*
X121128674Y-44343420D01*
X121429432Y-44311550D01*
X121601032Y-44233746D01*
X121717498Y-44061283D01*
X121783098Y-43912654D01*
X121896590Y-43667913D01*
X121982769Y-43526861D01*
X122001600Y-43513266D01*
X122068139Y-43597596D01*
X122068139Y-43597596D01*
G37*
X122068139Y-43597596D02*
X122175054Y-43809491D01*
X122220101Y-43912654D01*
X122337504Y-44156033D01*
X122470303Y-44278596D01*
X122692522Y-44329068D01*
X122874525Y-44343420D01*
X123361247Y-44374800D01*
X122981219Y-44628800D01*
X122773492Y-44780961D01*
X122668045Y-44924572D01*
X122653044Y-45117291D01*
X122716653Y-45416776D01*
X122775746Y-45629885D01*
X122843583Y-45868971D01*
X122418390Y-45600559D01*
X122160425Y-45444628D01*
X122000148Y-45389730D01*
X121863903Y-45427667D01*
X121717998Y-45522614D01*
X121417894Y-45724943D01*
X121253120Y-45817274D01*
X121195735Y-45810574D01*
X121216376Y-45719481D01*
X121277699Y-45507876D01*
X121338768Y-45223952D01*
X121339446Y-45220214D01*
X121359336Y-44996662D01*
X121290651Y-44840566D01*
X121093648Y-44678078D01*
X121021179Y-44628800D01*
X120641952Y-44374800D01*
X121128674Y-44343420D01*
X121429432Y-44311550D01*
X121601032Y-44233746D01*
X121717498Y-44061283D01*
X121783098Y-43912654D01*
X121896590Y-43667913D01*
X121982769Y-43526861D01*
X122001600Y-43513266D01*
X122068139Y-43597596D01*
G36*
X123127275Y-45367039D02*
X123420674Y-45455164D01*
X123759759Y-45576462D01*
X124164343Y-45728838D01*
X124408284Y-45834719D01*
X124521734Y-45917520D01*
X124534846Y-46000660D01*
X124477771Y-46107555D01*
X124466273Y-46125173D01*
X124340302Y-46264165D01*
X124155890Y-46333798D01*
X123847851Y-46355518D01*
X123764726Y-46356000D01*
X123398084Y-46332408D01*
X123201016Y-46264779D01*
X123175297Y-46229000D01*
X123124784Y-46037206D01*
X123077319Y-45832038D01*
X123011119Y-45570018D01*
X122960234Y-45410327D01*
X122981044Y-45353600D01*
X123127275Y-45367039D01*
X123127275Y-45367039D01*
G37*
X123127275Y-45367039D02*
X123420674Y-45455164D01*
X123759759Y-45576462D01*
X124164343Y-45728838D01*
X124408284Y-45834719D01*
X124521734Y-45917520D01*
X124534846Y-46000660D01*
X124477771Y-46107555D01*
X124466273Y-46125173D01*
X124340302Y-46264165D01*
X124155890Y-46333798D01*
X123847851Y-46355518D01*
X123764726Y-46356000D01*
X123398084Y-46332408D01*
X123201016Y-46264779D01*
X123175297Y-46229000D01*
X123124784Y-46037206D01*
X123077319Y-45832038D01*
X123011119Y-45570018D01*
X122960234Y-45410327D01*
X122981044Y-45353600D01*
X123127275Y-45367039D01*
G36*
X122282591Y-45797972D02*
X122494959Y-45921961D01*
X122716058Y-46072270D01*
X122876656Y-46202803D01*
X122916000Y-46257589D01*
X122831125Y-46347740D01*
X122687400Y-46408015D01*
X122362065Y-46499488D01*
X122187231Y-46521513D01*
X122116359Y-46454305D01*
X122102914Y-46278079D01*
X122103200Y-46159646D01*
X122113035Y-45902512D01*
X122137647Y-45757937D01*
X122148192Y-45746400D01*
X122282591Y-45797972D01*
X122282591Y-45797972D01*
G37*
X122282591Y-45797972D02*
X122494959Y-45921961D01*
X122716058Y-46072270D01*
X122876656Y-46202803D01*
X122916000Y-46257589D01*
X122831125Y-46347740D01*
X122687400Y-46408015D01*
X122362065Y-46499488D01*
X122187231Y-46521513D01*
X122116359Y-46454305D01*
X122102914Y-46278079D01*
X122103200Y-46159646D01*
X122113035Y-45902512D01*
X122137647Y-45757937D01*
X122148192Y-45746400D01*
X122282591Y-45797972D01*
G36*
X118214869Y-43772958D02*
X118485330Y-43833558D01*
X118877629Y-43948516D01*
X119427271Y-44119628D01*
X119461600Y-44130339D01*
X119965697Y-44307219D01*
X120403309Y-44497409D01*
X120715973Y-44674781D01*
X120767819Y-44714104D01*
X121108839Y-44996826D01*
X119363954Y-45676413D01*
X118793508Y-45893770D01*
X118274981Y-46082345D01*
X117843205Y-46230177D01*
X117533012Y-46325307D01*
X117384708Y-46356000D01*
X117142984Y-46389624D01*
X116822997Y-46473675D01*
X116718400Y-46508400D01*
X116418090Y-46612629D01*
X116269683Y-46642187D01*
X116231838Y-46585225D01*
X116263213Y-46429895D01*
X116275285Y-46381400D01*
X116532084Y-45660091D01*
X116934829Y-44926940D01*
X117443150Y-44251196D01*
X117641375Y-44038185D01*
X117779501Y-43899329D01*
X117897457Y-43807641D01*
X118030746Y-43764918D01*
X118214869Y-43772958D01*
X118214869Y-43772958D01*
G37*
X118214869Y-43772958D02*
X118485330Y-43833558D01*
X118877629Y-43948516D01*
X119427271Y-44119628D01*
X119461600Y-44130339D01*
X119965697Y-44307219D01*
X120403309Y-44497409D01*
X120715973Y-44674781D01*
X120767819Y-44714104D01*
X121108839Y-44996826D01*
X119363954Y-45676413D01*
X118793508Y-45893770D01*
X118274981Y-46082345D01*
X117843205Y-46230177D01*
X117533012Y-46325307D01*
X117384708Y-46356000D01*
X117142984Y-46389624D01*
X116822997Y-46473675D01*
X116718400Y-46508400D01*
X116418090Y-46612629D01*
X116269683Y-46642187D01*
X116231838Y-46585225D01*
X116263213Y-46429895D01*
X116275285Y-46381400D01*
X116532084Y-45660091D01*
X116934829Y-44926940D01*
X117443150Y-44251196D01*
X117641375Y-44038185D01*
X117779501Y-43899329D01*
X117897457Y-43807641D01*
X118030746Y-43764918D01*
X118214869Y-43772958D01*
G36*
X126038083Y-46701016D02*
X126007782Y-46747195D01*
X125904733Y-46754378D01*
X125796322Y-46729566D01*
X125843350Y-46692995D01*
X126002138Y-46680883D01*
X126038083Y-46701016D01*
X126038083Y-46701016D01*
G37*
X126038083Y-46701016D02*
X126007782Y-46747195D01*
X125904733Y-46754378D01*
X125796322Y-46729566D01*
X125843350Y-46692995D01*
X126002138Y-46680883D01*
X126038083Y-46701016D01*
G36*
X125611088Y-46782021D02*
X125580598Y-46857599D01*
X125485781Y-46908267D01*
X125367084Y-46939200D01*
X125415779Y-46864773D01*
X125428906Y-46851392D01*
X125562116Y-46771140D01*
X125611088Y-46782021D01*
X125611088Y-46782021D01*
G37*
X125611088Y-46782021D02*
X125580598Y-46857599D01*
X125485781Y-46908267D01*
X125367084Y-46939200D01*
X125415779Y-46864773D01*
X125428906Y-46851392D01*
X125562116Y-46771140D01*
X125611088Y-46782021D01*
G36*
X121071220Y-45416368D02*
X120983169Y-45660509D01*
X120829394Y-45972798D01*
X120637674Y-46305791D01*
X120435790Y-46612046D01*
X120251520Y-46844117D01*
X120112645Y-46954563D01*
X120088062Y-46957586D01*
X119965826Y-46912261D01*
X119722583Y-46804002D01*
X119512400Y-46704831D01*
X119151716Y-46550120D01*
X118801215Y-46429784D01*
X118653480Y-46392851D01*
X118528031Y-46362450D01*
X118483917Y-46324065D01*
X118541950Y-46265422D01*
X118722940Y-46174245D01*
X119047698Y-46038260D01*
X119537036Y-45845192D01*
X119669480Y-45793590D01*
X120156291Y-45606581D01*
X120570770Y-45452034D01*
X120878703Y-45342344D01*
X121045873Y-45289904D01*
X121065767Y-45287818D01*
X121071220Y-45416368D01*
X121071220Y-45416368D01*
G37*
X121071220Y-45416368D02*
X120983169Y-45660509D01*
X120829394Y-45972798D01*
X120637674Y-46305791D01*
X120435790Y-46612046D01*
X120251520Y-46844117D01*
X120112645Y-46954563D01*
X120088062Y-46957586D01*
X119965826Y-46912261D01*
X119722583Y-46804002D01*
X119512400Y-46704831D01*
X119151716Y-46550120D01*
X118801215Y-46429784D01*
X118653480Y-46392851D01*
X118528031Y-46362450D01*
X118483917Y-46324065D01*
X118541950Y-46265422D01*
X118722940Y-46174245D01*
X119047698Y-46038260D01*
X119537036Y-45845192D01*
X119669480Y-45793590D01*
X120156291Y-45606581D01*
X120570770Y-45452034D01*
X120878703Y-45342344D01*
X121045873Y-45289904D01*
X121065767Y-45287818D01*
X121071220Y-45416368D01*
G36*
X125977889Y-46987163D02*
X126001475Y-47039511D01*
X125870544Y-47094508D01*
X125713703Y-47117587D01*
X125732560Y-47054873D01*
X125737274Y-47050085D01*
X125912912Y-46978464D01*
X125977889Y-46987163D01*
X125977889Y-46987163D01*
G37*
X125977889Y-46987163D02*
X126001475Y-47039511D01*
X125870544Y-47094508D01*
X125713703Y-47117587D01*
X125732560Y-47054873D01*
X125737274Y-47050085D01*
X125912912Y-46978464D01*
X125977889Y-46987163D01*
G36*
X126062647Y-47347715D02*
X126065600Y-47372000D01*
X125988284Y-47470647D01*
X125964000Y-47473600D01*
X125865352Y-47396284D01*
X125862400Y-47372000D01*
X125939715Y-47273352D01*
X125964000Y-47270400D01*
X126062647Y-47347715D01*
X126062647Y-47347715D01*
G37*
X126062647Y-47347715D02*
X126065600Y-47372000D01*
X125988284Y-47470647D01*
X125964000Y-47473600D01*
X125865352Y-47396284D01*
X125862400Y-47372000D01*
X125939715Y-47273352D01*
X125964000Y-47270400D01*
X126062647Y-47347715D01*
G36*
X123515098Y-46577664D02*
X123955772Y-46610000D01*
X123170000Y-47462804D01*
X122688862Y-47188802D01*
X122422519Y-47026680D01*
X122247155Y-46899929D01*
X122206262Y-46851804D01*
X122295998Y-46774870D01*
X122528758Y-46696322D01*
X122844856Y-46628659D01*
X123184604Y-46584384D01*
X123488319Y-46575997D01*
X123515098Y-46577664D01*
X123515098Y-46577664D01*
G37*
X123515098Y-46577664D02*
X123955772Y-46610000D01*
X123170000Y-47462804D01*
X122688862Y-47188802D01*
X122422519Y-47026680D01*
X122247155Y-46899929D01*
X122206262Y-46851804D01*
X122295998Y-46774870D01*
X122528758Y-46696322D01*
X122844856Y-46628659D01*
X123184604Y-46584384D01*
X123488319Y-46575997D01*
X123515098Y-46577664D01*
G36*
X117388768Y-46628608D02*
X117299040Y-46816614D01*
X117292300Y-46829418D01*
X117069347Y-47197056D01*
X116881245Y-47393538D01*
X116769200Y-47419999D01*
X116600560Y-47376992D01*
X116388200Y-47328151D01*
X116157199Y-47237868D01*
X116117318Y-47117334D01*
X116260012Y-46974065D01*
X116576743Y-46815577D01*
X117058968Y-46649387D01*
X117208357Y-46606411D01*
X117364042Y-46573156D01*
X117388768Y-46628608D01*
X117388768Y-46628608D01*
G37*
X117388768Y-46628608D02*
X117299040Y-46816614D01*
X117292300Y-46829418D01*
X117069347Y-47197056D01*
X116881245Y-47393538D01*
X116769200Y-47419999D01*
X116600560Y-47376992D01*
X116388200Y-47328151D01*
X116157199Y-47237868D01*
X116117318Y-47117334D01*
X116260012Y-46974065D01*
X116576743Y-46815577D01*
X117058968Y-46649387D01*
X117208357Y-46606411D01*
X117364042Y-46573156D01*
X117388768Y-46628608D01*
G36*
X121875140Y-45837833D02*
X121896101Y-46071600D01*
X121900000Y-46254400D01*
X121881317Y-46544179D01*
X121833548Y-46728112D01*
X121796129Y-46762400D01*
X121670562Y-46826641D01*
X121452413Y-46992966D01*
X121251367Y-47168800D01*
X121009353Y-47385821D01*
X120832340Y-47533272D01*
X120768215Y-47575200D01*
X120674508Y-47511292D01*
X120508311Y-47357555D01*
X120289210Y-47138454D01*
X120612005Y-46735419D01*
X120827229Y-46502799D01*
X121106639Y-46247382D01*
X121400063Y-46009504D01*
X121657331Y-45829503D01*
X121828274Y-45747717D01*
X121842105Y-45746400D01*
X121875140Y-45837833D01*
X121875140Y-45837833D01*
G37*
X121875140Y-45837833D02*
X121896101Y-46071600D01*
X121900000Y-46254400D01*
X121881317Y-46544179D01*
X121833548Y-46728112D01*
X121796129Y-46762400D01*
X121670562Y-46826641D01*
X121452413Y-46992966D01*
X121251367Y-47168800D01*
X121009353Y-47385821D01*
X120832340Y-47533272D01*
X120768215Y-47575200D01*
X120674508Y-47511292D01*
X120508311Y-47357555D01*
X120289210Y-47138454D01*
X120612005Y-46735419D01*
X120827229Y-46502799D01*
X121106639Y-46247382D01*
X121400063Y-46009504D01*
X121657331Y-45829503D01*
X121828274Y-45747717D01*
X121842105Y-45746400D01*
X121875140Y-45837833D01*
G36*
X116553816Y-47604618D02*
X116616800Y-47661053D01*
X116550500Y-47794587D01*
X116402352Y-47935233D01*
X116248482Y-48021639D01*
X116176755Y-48015688D01*
X116118372Y-47866067D01*
X116108800Y-47761466D01*
X116178594Y-47612635D01*
X116362800Y-47575200D01*
X116553816Y-47604618D01*
X116553816Y-47604618D01*
G37*
X116553816Y-47604618D02*
X116616800Y-47661053D01*
X116550500Y-47794587D01*
X116402352Y-47935233D01*
X116248482Y-48021639D01*
X116176755Y-48015688D01*
X116118372Y-47866067D01*
X116108800Y-47761466D01*
X116178594Y-47612635D01*
X116362800Y-47575200D01*
X116553816Y-47604618D01*
G36*
X122257641Y-47213905D02*
X122557079Y-47354942D01*
X122807848Y-47498525D01*
X122825420Y-47510523D01*
X122938368Y-47602559D01*
X122941012Y-47681090D01*
X122809806Y-47786486D01*
X122585852Y-47921254D01*
X122246768Y-48106915D01*
X122042498Y-48164525D01*
X121939275Y-48079483D01*
X121903329Y-47837182D01*
X121900000Y-47624636D01*
X121900000Y-47064473D01*
X122257641Y-47213905D01*
X122257641Y-47213905D01*
G37*
X122257641Y-47213905D02*
X122557079Y-47354942D01*
X122807848Y-47498525D01*
X122825420Y-47510523D01*
X122938368Y-47602559D01*
X122941012Y-47681090D01*
X122809806Y-47786486D01*
X122585852Y-47921254D01*
X122246768Y-48106915D01*
X122042498Y-48164525D01*
X121939275Y-48079483D01*
X121903329Y-47837182D01*
X121900000Y-47624636D01*
X121900000Y-47064473D01*
X122257641Y-47213905D01*
G36*
X118286117Y-46580344D02*
X118605537Y-46631894D01*
X118915516Y-46701207D01*
X119153701Y-46774179D01*
X119257739Y-46836703D01*
X119258400Y-46840897D01*
X119210229Y-46961589D01*
X119087009Y-47199339D01*
X118920681Y-47498453D01*
X118743184Y-47803236D01*
X118586457Y-48057992D01*
X118482442Y-48207028D01*
X118465685Y-48223186D01*
X118340019Y-48201602D01*
X118143062Y-48083872D01*
X118137959Y-48080023D01*
X117871935Y-47908015D01*
X117552317Y-47738401D01*
X117512706Y-47720053D01*
X117138612Y-47550567D01*
X117411106Y-47056347D01*
X117585306Y-46767271D01*
X117731991Y-46618685D01*
X117906476Y-46565529D01*
X118019609Y-46560663D01*
X118286117Y-46580344D01*
X118286117Y-46580344D01*
G37*
X118286117Y-46580344D02*
X118605537Y-46631894D01*
X118915516Y-46701207D01*
X119153701Y-46774179D01*
X119257739Y-46836703D01*
X119258400Y-46840897D01*
X119210229Y-46961589D01*
X119087009Y-47199339D01*
X118920681Y-47498453D01*
X118743184Y-47803236D01*
X118586457Y-48057992D01*
X118482442Y-48207028D01*
X118465685Y-48223186D01*
X118340019Y-48201602D01*
X118143062Y-48083872D01*
X118137959Y-48080023D01*
X117871935Y-47908015D01*
X117552317Y-47738401D01*
X117512706Y-47720053D01*
X117138612Y-47550567D01*
X117411106Y-47056347D01*
X117585306Y-46767271D01*
X117731991Y-46618685D01*
X117906476Y-46565529D01*
X118019609Y-46560663D01*
X118286117Y-46580344D01*
G36*
X124427089Y-46712355D02*
X124682557Y-46826368D01*
X124828209Y-46899733D01*
X125267218Y-47129485D01*
X124794197Y-47758742D01*
X124561422Y-48056838D01*
X124371684Y-48278613D01*
X124259466Y-48384282D01*
X124248807Y-48388000D01*
X124142863Y-48321034D01*
X123948747Y-48149134D01*
X123798294Y-48000744D01*
X123420149Y-47613489D01*
X123791266Y-47137144D01*
X124007651Y-46882885D01*
X124188289Y-46711883D01*
X124275791Y-46665391D01*
X124427089Y-46712355D01*
X124427089Y-46712355D01*
G37*
X124427089Y-46712355D02*
X124682557Y-46826368D01*
X124828209Y-46899733D01*
X125267218Y-47129485D01*
X124794197Y-47758742D01*
X124561422Y-48056838D01*
X124371684Y-48278613D01*
X124259466Y-48384282D01*
X124248807Y-48388000D01*
X124142863Y-48321034D01*
X123948747Y-48149134D01*
X123798294Y-48000744D01*
X123420149Y-47613489D01*
X123791266Y-47137144D01*
X124007651Y-46882885D01*
X124188289Y-46711883D01*
X124275791Y-46665391D01*
X124427089Y-46712355D01*
G36*
X121664657Y-47688804D02*
X121646000Y-48337200D01*
X121112899Y-48367899D01*
X120579799Y-48398598D01*
X120778673Y-48061531D01*
X120981109Y-47775064D01*
X121245481Y-47468518D01*
X121330431Y-47382436D01*
X121683315Y-47040408D01*
X121664657Y-47688804D01*
X121664657Y-47688804D01*
G37*
X121664657Y-47688804D02*
X121646000Y-48337200D01*
X121112899Y-48367899D01*
X120579799Y-48398598D01*
X120778673Y-48061531D01*
X120981109Y-47775064D01*
X121245481Y-47468518D01*
X121330431Y-47382436D01*
X121683315Y-47040408D01*
X121664657Y-47688804D01*
G36*
X125628272Y-47492269D02*
X125776671Y-47646961D01*
X125793451Y-47766991D01*
X125684700Y-47945728D01*
X125660102Y-47980332D01*
X125468851Y-48201745D01*
X125191416Y-48470532D01*
X125008128Y-48628918D01*
X124749466Y-48833599D01*
X124599087Y-48920075D01*
X124511632Y-48903125D01*
X124448943Y-48811111D01*
X124409507Y-48643678D01*
X124509483Y-48472002D01*
X124600950Y-48379967D01*
X124812868Y-48144467D01*
X125046030Y-47833784D01*
X125128305Y-47709710D01*
X125400966Y-47278726D01*
X125628272Y-47492269D01*
X125628272Y-47492269D01*
G37*
X125628272Y-47492269D02*
X125776671Y-47646961D01*
X125793451Y-47766991D01*
X125684700Y-47945728D01*
X125660102Y-47980332D01*
X125468851Y-48201745D01*
X125191416Y-48470532D01*
X125008128Y-48628918D01*
X124749466Y-48833599D01*
X124599087Y-48920075D01*
X124511632Y-48903125D01*
X124448943Y-48811111D01*
X124409507Y-48643678D01*
X124509483Y-48472002D01*
X124600950Y-48379967D01*
X124812868Y-48144467D01*
X125046030Y-47833784D01*
X125128305Y-47709710D01*
X125400966Y-47278726D01*
X125628272Y-47492269D01*
G36*
X119610318Y-47014103D02*
X119805641Y-47137129D01*
X120053494Y-47309474D01*
X120300517Y-47492696D01*
X120493346Y-47648348D01*
X120578621Y-47737989D01*
X120579200Y-47741298D01*
X120520655Y-47912626D01*
X120363919Y-48198576D01*
X120137340Y-48554779D01*
X119869264Y-48936866D01*
X119588038Y-49300467D01*
X119565862Y-49327379D01*
X119468391Y-49301635D01*
X119278148Y-49158418D01*
X119075940Y-48967933D01*
X118849056Y-48727226D01*
X118694157Y-48544661D01*
X118648800Y-48470738D01*
X118696651Y-48368586D01*
X118820291Y-48143968D01*
X118989847Y-47847984D01*
X119175449Y-47531736D01*
X119347225Y-47246326D01*
X119475302Y-47042856D01*
X119520888Y-46978841D01*
X119610318Y-47014103D01*
X119610318Y-47014103D01*
G37*
X119610318Y-47014103D02*
X119805641Y-47137129D01*
X120053494Y-47309474D01*
X120300517Y-47492696D01*
X120493346Y-47648348D01*
X120578621Y-47737989D01*
X120579200Y-47741298D01*
X120520655Y-47912626D01*
X120363919Y-48198576D01*
X120137340Y-48554779D01*
X119869264Y-48936866D01*
X119588038Y-49300467D01*
X119565862Y-49327379D01*
X119468391Y-49301635D01*
X119278148Y-49158418D01*
X119075940Y-48967933D01*
X118849056Y-48727226D01*
X118694157Y-48544661D01*
X118648800Y-48470738D01*
X118696651Y-48368586D01*
X118820291Y-48143968D01*
X118989847Y-47847984D01*
X119175449Y-47531736D01*
X119347225Y-47246326D01*
X119475302Y-47042856D01*
X119520888Y-46978841D01*
X119610318Y-47014103D01*
G36*
X117311083Y-47879615D02*
X117411519Y-47924751D01*
X117726010Y-48091609D01*
X118002991Y-48275019D01*
X118030284Y-48296715D01*
X118275369Y-48498068D01*
X117877884Y-48908277D01*
X117549416Y-49224032D01*
X117304202Y-49411557D01*
X117158666Y-49460117D01*
X117124800Y-49400480D01*
X117071490Y-49256807D01*
X116935611Y-49015547D01*
X116837290Y-48863505D01*
X116656457Y-48593189D01*
X116519536Y-48382810D01*
X116480495Y-48319569D01*
X116509097Y-48185707D01*
X116681692Y-48009116D01*
X116724524Y-47977239D01*
X116937920Y-47839705D01*
X117100178Y-47809705D01*
X117311083Y-47879615D01*
X117311083Y-47879615D01*
G37*
X117311083Y-47879615D02*
X117411519Y-47924751D01*
X117726010Y-48091609D01*
X118002991Y-48275019D01*
X118030284Y-48296715D01*
X118275369Y-48498068D01*
X117877884Y-48908277D01*
X117549416Y-49224032D01*
X117304202Y-49411557D01*
X117158666Y-49460117D01*
X117124800Y-49400480D01*
X117071490Y-49256807D01*
X116935611Y-49015547D01*
X116837290Y-48863505D01*
X116656457Y-48593189D01*
X116519536Y-48382810D01*
X116480495Y-48319569D01*
X116509097Y-48185707D01*
X116681692Y-48009116D01*
X116724524Y-47977239D01*
X116937920Y-47839705D01*
X117100178Y-47809705D01*
X117311083Y-47879615D01*
G36*
X123594301Y-48134117D02*
X123815665Y-48357756D01*
X123895969Y-48543463D01*
X123823108Y-48717897D01*
X123584976Y-48907718D01*
X123169468Y-49139586D01*
X123128132Y-49160786D01*
X122626122Y-49399402D01*
X122278138Y-49521684D01*
X122073338Y-49530077D01*
X122000880Y-49427031D01*
X122000481Y-49415310D01*
X121983618Y-49206847D01*
X121943999Y-48917443D01*
X121939099Y-48887309D01*
X121916098Y-48637047D01*
X121987695Y-48499540D01*
X122198673Y-48390541D01*
X122204447Y-48388146D01*
X122516434Y-48234952D01*
X122840552Y-48042304D01*
X122867930Y-48023987D01*
X123205802Y-47794701D01*
X123594301Y-48134117D01*
X123594301Y-48134117D01*
G37*
X123594301Y-48134117D02*
X123815665Y-48357756D01*
X123895969Y-48543463D01*
X123823108Y-48717897D01*
X123584976Y-48907718D01*
X123169468Y-49139586D01*
X123128132Y-49160786D01*
X122626122Y-49399402D01*
X122278138Y-49521684D01*
X122073338Y-49530077D01*
X122000880Y-49427031D01*
X122000481Y-49415310D01*
X121983618Y-49206847D01*
X121943999Y-48917443D01*
X121939099Y-48887309D01*
X121916098Y-48637047D01*
X121987695Y-48499540D01*
X122198673Y-48390541D01*
X122204447Y-48388146D01*
X122516434Y-48234952D01*
X122840552Y-48042304D01*
X122867930Y-48023987D01*
X123205802Y-47794701D01*
X123594301Y-48134117D01*
G36*
X121725176Y-49063883D02*
X121745570Y-49363137D01*
X121733442Y-49571768D01*
X121714107Y-49621226D01*
X121585419Y-49663368D01*
X121312684Y-49712082D01*
X120954343Y-49756974D01*
X120945833Y-49757851D01*
X120579477Y-49792912D01*
X120374962Y-49796583D01*
X120292000Y-49758330D01*
X120290303Y-49667616D01*
X120309445Y-49591425D01*
X120362618Y-49311852D01*
X120376168Y-49150000D01*
X120413608Y-48921705D01*
X120544808Y-48777033D01*
X120810238Y-48687536D01*
X121098268Y-48642396D01*
X121668137Y-48571367D01*
X121725176Y-49063883D01*
X121725176Y-49063883D01*
G37*
X121725176Y-49063883D02*
X121745570Y-49363137D01*
X121733442Y-49571768D01*
X121714107Y-49621226D01*
X121585419Y-49663368D01*
X121312684Y-49712082D01*
X120954343Y-49756974D01*
X120945833Y-49757851D01*
X120579477Y-49792912D01*
X120374962Y-49796583D01*
X120292000Y-49758330D01*
X120290303Y-49667616D01*
X120309445Y-49591425D01*
X120362618Y-49311852D01*
X120376168Y-49150000D01*
X120413608Y-48921705D01*
X120544808Y-48777033D01*
X120810238Y-48687536D01*
X121098268Y-48642396D01*
X121668137Y-48571367D01*
X121725176Y-49063883D01*
G36*
X126370506Y-44203539D02*
X126562317Y-44411264D01*
X126789379Y-44737998D01*
X127027844Y-45150494D01*
X127190657Y-45476464D01*
X127479081Y-46222115D01*
X127669347Y-47034643D01*
X127769743Y-47958806D01*
X127791035Y-48718200D01*
X127792800Y-49912000D01*
X126796411Y-49912000D01*
X126760921Y-49385772D01*
X126766239Y-48971998D01*
X126855291Y-48698267D01*
X126889149Y-48649172D01*
X127227998Y-48123516D01*
X127439300Y-47599992D01*
X127520575Y-47109883D01*
X127469344Y-46684473D01*
X127283127Y-46355047D01*
X127082912Y-46204278D01*
X126642974Y-46074963D01*
X126098311Y-46066545D01*
X125505454Y-46176283D01*
X125149181Y-46298082D01*
X124840534Y-46409665D01*
X124621819Y-46462331D01*
X124541600Y-46445864D01*
X124622128Y-46280723D01*
X124826960Y-46068504D01*
X125100967Y-45857492D01*
X125389019Y-45695971D01*
X125406172Y-45688645D01*
X125646377Y-45559941D01*
X125745188Y-45398226D01*
X125760800Y-45210051D01*
X125804732Y-44927383D01*
X125915004Y-44610945D01*
X126059325Y-44332628D01*
X126205403Y-44164325D01*
X126237793Y-44148068D01*
X126370506Y-44203539D01*
X126370506Y-44203539D01*
G37*
X126370506Y-44203539D02*
X126562317Y-44411264D01*
X126789379Y-44737998D01*
X127027844Y-45150494D01*
X127190657Y-45476464D01*
X127479081Y-46222115D01*
X127669347Y-47034643D01*
X127769743Y-47958806D01*
X127791035Y-48718200D01*
X127792800Y-49912000D01*
X126796411Y-49912000D01*
X126760921Y-49385772D01*
X126766239Y-48971998D01*
X126855291Y-48698267D01*
X126889149Y-48649172D01*
X127227998Y-48123516D01*
X127439300Y-47599992D01*
X127520575Y-47109883D01*
X127469344Y-46684473D01*
X127283127Y-46355047D01*
X127082912Y-46204278D01*
X126642974Y-46074963D01*
X126098311Y-46066545D01*
X125505454Y-46176283D01*
X125149181Y-46298082D01*
X124840534Y-46409665D01*
X124621819Y-46462331D01*
X124541600Y-46445864D01*
X124622128Y-46280723D01*
X124826960Y-46068504D01*
X125100967Y-45857492D01*
X125389019Y-45695971D01*
X125406172Y-45688645D01*
X125646377Y-45559941D01*
X125745188Y-45398226D01*
X125760800Y-45210051D01*
X125804732Y-44927383D01*
X125915004Y-44610945D01*
X126059325Y-44332628D01*
X126205403Y-44164325D01*
X126237793Y-44148068D01*
X126370506Y-44203539D01*
G36*
X126551569Y-49452558D02*
X126572044Y-49683400D01*
X126551573Y-49821936D01*
X126452824Y-49888704D01*
X126223514Y-49908134D01*
X126091000Y-49908185D01*
X125608400Y-49904370D01*
X126012515Y-49558591D01*
X126289639Y-49354640D01*
X126463485Y-49317993D01*
X126551569Y-49452558D01*
X126551569Y-49452558D01*
G37*
X126551569Y-49452558D02*
X126572044Y-49683400D01*
X126551573Y-49821936D01*
X126452824Y-49888704D01*
X126223514Y-49908134D01*
X126091000Y-49908185D01*
X125608400Y-49904370D01*
X126012515Y-49558591D01*
X126289639Y-49354640D01*
X126463485Y-49317993D01*
X126551569Y-49452558D01*
G36*
X126803376Y-46329972D02*
X127103511Y-46542221D01*
X127261196Y-46869441D01*
X127268856Y-47289928D01*
X127118918Y-47781979D01*
X126989829Y-48035321D01*
X126818062Y-48283540D01*
X126559848Y-48596627D01*
X126249644Y-48939454D01*
X125921908Y-49276898D01*
X125611095Y-49573833D01*
X125351662Y-49795134D01*
X125178065Y-49905675D01*
X125148874Y-49912000D01*
X125175079Y-49849220D01*
X125326016Y-49680039D01*
X125574666Y-49433194D01*
X125778354Y-49242448D01*
X126214324Y-48834455D01*
X126525972Y-48518649D01*
X126744881Y-48256895D01*
X126902636Y-48011060D01*
X127030822Y-47743010D01*
X127041729Y-47717113D01*
X127153033Y-47271288D01*
X127104916Y-46884879D01*
X126905292Y-46594054D01*
X126777289Y-46508652D01*
X126506170Y-46399477D01*
X126229074Y-46369327D01*
X125898849Y-46423914D01*
X125468340Y-46568951D01*
X125125800Y-46708747D01*
X124980845Y-46729225D01*
X124948000Y-46687103D01*
X125038773Y-46596795D01*
X125273015Y-46491394D01*
X125593611Y-46388301D01*
X125943444Y-46304915D01*
X126265397Y-46258636D01*
X126368365Y-46254400D01*
X126803376Y-46329972D01*
X126803376Y-46329972D01*
G37*
X126803376Y-46329972D02*
X127103511Y-46542221D01*
X127261196Y-46869441D01*
X127268856Y-47289928D01*
X127118918Y-47781979D01*
X126989829Y-48035321D01*
X126818062Y-48283540D01*
X126559848Y-48596627D01*
X126249644Y-48939454D01*
X125921908Y-49276898D01*
X125611095Y-49573833D01*
X125351662Y-49795134D01*
X125178065Y-49905675D01*
X125148874Y-49912000D01*
X125175079Y-49849220D01*
X125326016Y-49680039D01*
X125574666Y-49433194D01*
X125778354Y-49242448D01*
X126214324Y-48834455D01*
X126525972Y-48518649D01*
X126744881Y-48256895D01*
X126902636Y-48011060D01*
X127030822Y-47743010D01*
X127041729Y-47717113D01*
X127153033Y-47271288D01*
X127104916Y-46884879D01*
X126905292Y-46594054D01*
X126777289Y-46508652D01*
X126506170Y-46399477D01*
X126229074Y-46369327D01*
X125898849Y-46423914D01*
X125468340Y-46568951D01*
X125125800Y-46708747D01*
X124980845Y-46729225D01*
X124948000Y-46687103D01*
X125038773Y-46596795D01*
X125273015Y-46491394D01*
X125593611Y-46388301D01*
X125943444Y-46304915D01*
X126265397Y-46258636D01*
X126368365Y-46254400D01*
X126803376Y-46329972D01*
G36*
X126370400Y-46617170D02*
X126616146Y-46708744D01*
X126751400Y-46787275D01*
X126848757Y-46976645D01*
X126872698Y-47278655D01*
X126824550Y-47616988D01*
X126732619Y-47867198D01*
X126612745Y-48031704D01*
X126387476Y-48286470D01*
X126089854Y-48599185D01*
X125752923Y-48937539D01*
X125409725Y-49269220D01*
X125093304Y-49561917D01*
X124836701Y-49783320D01*
X124672961Y-49901118D01*
X124641496Y-49912000D01*
X124674404Y-49846659D01*
X124830765Y-49668069D01*
X125086188Y-49402383D01*
X125416281Y-49075751D01*
X125469259Y-49024531D01*
X125836606Y-48659573D01*
X126159101Y-48319171D01*
X126402262Y-48041057D01*
X126531602Y-47862959D01*
X126532533Y-47861177D01*
X126670082Y-47436270D01*
X126625822Y-47064917D01*
X126402741Y-46771057D01*
X126395800Y-46765609D01*
X126116400Y-46548670D01*
X126370400Y-46617170D01*
X126370400Y-46617170D01*
G37*
X126370400Y-46617170D02*
X126616146Y-46708744D01*
X126751400Y-46787275D01*
X126848757Y-46976645D01*
X126872698Y-47278655D01*
X126824550Y-47616988D01*
X126732619Y-47867198D01*
X126612745Y-48031704D01*
X126387476Y-48286470D01*
X126089854Y-48599185D01*
X125752923Y-48937539D01*
X125409725Y-49269220D01*
X125093304Y-49561917D01*
X124836701Y-49783320D01*
X124672961Y-49901118D01*
X124641496Y-49912000D01*
X124674404Y-49846659D01*
X124830765Y-49668069D01*
X125086188Y-49402383D01*
X125416281Y-49075751D01*
X125469259Y-49024531D01*
X125836606Y-48659573D01*
X126159101Y-48319171D01*
X126402262Y-48041057D01*
X126531602Y-47862959D01*
X126532533Y-47861177D01*
X126670082Y-47436270D01*
X126625822Y-47064917D01*
X126402741Y-46771057D01*
X126395800Y-46765609D01*
X126116400Y-46548670D01*
X126370400Y-46617170D01*
G36*
X126399430Y-47052392D02*
X126457588Y-47274421D01*
X126429630Y-47526980D01*
X126325437Y-47722640D01*
X126103626Y-48015531D01*
X125798964Y-48368465D01*
X125446219Y-48744255D01*
X125080158Y-49105712D01*
X124735550Y-49415647D01*
X124473994Y-49618762D01*
X124130225Y-49831638D01*
X123931062Y-49910845D01*
X123886634Y-49869080D01*
X124007074Y-49719038D01*
X124302512Y-49473414D01*
X124337364Y-49447544D01*
X124961229Y-48958573D01*
X125484058Y-48488964D01*
X125891875Y-48055603D01*
X126170701Y-47675377D01*
X126306559Y-47365175D01*
X126285471Y-47141883D01*
X126267166Y-47116032D01*
X126197732Y-46992994D01*
X126259548Y-46965600D01*
X126399430Y-47052392D01*
X126399430Y-47052392D01*
G37*
X126399430Y-47052392D02*
X126457588Y-47274421D01*
X126429630Y-47526980D01*
X126325437Y-47722640D01*
X126103626Y-48015531D01*
X125798964Y-48368465D01*
X125446219Y-48744255D01*
X125080158Y-49105712D01*
X124735550Y-49415647D01*
X124473994Y-49618762D01*
X124130225Y-49831638D01*
X123931062Y-49910845D01*
X123886634Y-49869080D01*
X124007074Y-49719038D01*
X124302512Y-49473414D01*
X124337364Y-49447544D01*
X124961229Y-48958573D01*
X125484058Y-48488964D01*
X125891875Y-48055603D01*
X126170701Y-47675377D01*
X126306559Y-47365175D01*
X126285471Y-47141883D01*
X126267166Y-47116032D01*
X126197732Y-46992994D01*
X126259548Y-46965600D01*
X126399430Y-47052392D01*
G36*
X124320946Y-49009743D02*
X124338400Y-49088180D01*
X124258419Y-49187147D01*
X124048820Y-49353103D01*
X123757378Y-49548569D01*
X123381308Y-49762125D01*
X123071294Y-49873202D01*
X122738396Y-49910723D01*
X122639778Y-49912000D01*
X122340667Y-49904712D01*
X122145879Y-49885983D01*
X122103200Y-49869365D01*
X122190570Y-49816193D01*
X122414311Y-49726425D01*
X122596468Y-49662893D01*
X122984569Y-49505204D01*
X123402718Y-49293413D01*
X123574545Y-49191599D01*
X123925485Y-49005441D01*
X124182331Y-48943733D01*
X124320946Y-49009743D01*
X124320946Y-49009743D01*
G37*
X124320946Y-49009743D02*
X124338400Y-49088180D01*
X124258419Y-49187147D01*
X124048820Y-49353103D01*
X123757378Y-49548569D01*
X123381308Y-49762125D01*
X123071294Y-49873202D01*
X122738396Y-49910723D01*
X122639778Y-49912000D01*
X122340667Y-49904712D01*
X122145879Y-49885983D01*
X122103200Y-49869365D01*
X122190570Y-49816193D01*
X122414311Y-49726425D01*
X122596468Y-49662893D01*
X122984569Y-49505204D01*
X123402718Y-49293413D01*
X123574545Y-49191599D01*
X123925485Y-49005441D01*
X124182331Y-48943733D01*
X124320946Y-49009743D01*
G36*
X120123855Y-49024249D02*
X120124309Y-49130160D01*
X120106125Y-49367653D01*
X120095001Y-49480200D01*
X120026994Y-49762608D01*
X119915325Y-49910913D01*
X119791310Y-49902166D01*
X119704216Y-49766570D01*
X119724009Y-49639139D01*
X119811814Y-49436680D01*
X119931372Y-49223338D01*
X120046420Y-49063257D01*
X120120698Y-49020578D01*
X120123855Y-49024249D01*
X120123855Y-49024249D01*
G37*
X120123855Y-49024249D02*
X120124309Y-49130160D01*
X120106125Y-49367653D01*
X120095001Y-49480200D01*
X120026994Y-49762608D01*
X119915325Y-49910913D01*
X119791310Y-49902166D01*
X119704216Y-49766570D01*
X119724009Y-49639139D01*
X119811814Y-49436680D01*
X119931372Y-49223338D01*
X120046420Y-49063257D01*
X120120698Y-49020578D01*
X120123855Y-49024249D01*
G36*
X119461600Y-49861200D02*
X119410800Y-49912000D01*
X119360000Y-49861200D01*
X119410800Y-49810400D01*
X119461600Y-49861200D01*
X119461600Y-49861200D01*
G37*
X119461600Y-49861200D02*
X119410800Y-49912000D01*
X119360000Y-49861200D01*
X119410800Y-49810400D01*
X119461600Y-49861200D01*
G36*
X118761078Y-48955045D02*
X119072240Y-49289773D01*
X119209071Y-49544103D01*
X119166473Y-49725657D01*
X118939351Y-49842059D01*
X118522609Y-49900933D01*
X118121381Y-49912000D01*
X117689441Y-49901337D01*
X117436943Y-49866886D01*
X117341123Y-49804953D01*
X117338959Y-49785000D01*
X117415171Y-49658428D01*
X117605741Y-49443483D01*
X117871074Y-49184419D01*
X117899694Y-49158245D01*
X118449470Y-48658491D01*
X118761078Y-48955045D01*
X118761078Y-48955045D01*
G37*
X118761078Y-48955045D02*
X119072240Y-49289773D01*
X119209071Y-49544103D01*
X119166473Y-49725657D01*
X118939351Y-49842059D01*
X118522609Y-49900933D01*
X118121381Y-49912000D01*
X117689441Y-49901337D01*
X117436943Y-49866886D01*
X117341123Y-49804953D01*
X117338959Y-49785000D01*
X117415171Y-49658428D01*
X117605741Y-49443483D01*
X117871074Y-49184419D01*
X117899694Y-49158245D01*
X118449470Y-48658491D01*
X118761078Y-48955045D01*
G36*
X117124800Y-49861200D02*
X117074000Y-49912000D01*
X117023200Y-49861200D01*
X117074000Y-49810400D01*
X117124800Y-49861200D01*
X117124800Y-49861200D01*
G37*
X117124800Y-49861200D02*
X117074000Y-49912000D01*
X117023200Y-49861200D01*
X117074000Y-49810400D01*
X117124800Y-49861200D01*
G36*
X116388469Y-48629501D02*
X116615485Y-48944889D01*
X116828656Y-49287359D01*
X116904876Y-49518848D01*
X116846217Y-49676569D01*
X116662819Y-49794091D01*
X116400936Y-49897921D01*
X116237511Y-49901038D01*
X116149644Y-49776574D01*
X116114437Y-49497659D01*
X116108800Y-49144003D01*
X116117138Y-48728953D01*
X116154341Y-48509642D01*
X116238690Y-48478886D01*
X116388469Y-48629501D01*
X116388469Y-48629501D01*
G37*
X116388469Y-48629501D02*
X116615485Y-48944889D01*
X116828656Y-49287359D01*
X116904876Y-49518848D01*
X116846217Y-49676569D01*
X116662819Y-49794091D01*
X116400936Y-49897921D01*
X116237511Y-49901038D01*
X116149644Y-49776574D01*
X116114437Y-49497659D01*
X116108800Y-49144003D01*
X116117138Y-48728953D01*
X116154341Y-48509642D01*
X116238690Y-48478886D01*
X116388469Y-48629501D01*
G36*
X125187474Y-52159163D02*
X125237322Y-52305605D01*
X125165675Y-52425479D01*
X125057049Y-52452000D01*
X124883349Y-52385060D01*
X124846400Y-52241350D01*
X124901144Y-52079426D01*
X125023033Y-52064716D01*
X125187474Y-52159163D01*
X125187474Y-52159163D01*
G37*
X125187474Y-52159163D02*
X125237322Y-52305605D01*
X125165675Y-52425479D01*
X125057049Y-52452000D01*
X124883349Y-52385060D01*
X124846400Y-52241350D01*
X124901144Y-52079426D01*
X125023033Y-52064716D01*
X125187474Y-52159163D01*
G36*
X123626035Y-51616207D02*
X123627200Y-51639200D01*
X123549094Y-51736895D01*
X123519603Y-51740800D01*
X123458924Y-51678556D01*
X123474800Y-51639200D01*
X123566098Y-51542275D01*
X123582396Y-51537600D01*
X123626035Y-51616207D01*
X123626035Y-51616207D01*
G37*
X123626035Y-51616207D02*
X123627200Y-51639200D01*
X123549094Y-51736895D01*
X123519603Y-51740800D01*
X123458924Y-51678556D01*
X123474800Y-51639200D01*
X123566098Y-51542275D01*
X123582396Y-51537600D01*
X123626035Y-51616207D01*
G36*
X123638189Y-52373163D02*
X123642440Y-52401200D01*
X123563342Y-52520329D01*
X123533220Y-52534126D01*
X123440577Y-52485082D01*
X123424000Y-52401200D01*
X123475551Y-52274751D01*
X123533220Y-52268273D01*
X123638189Y-52373163D01*
X123638189Y-52373163D01*
G37*
X123638189Y-52373163D02*
X123642440Y-52401200D01*
X123563342Y-52520329D01*
X123533220Y-52534126D01*
X123440577Y-52485082D01*
X123424000Y-52401200D01*
X123475551Y-52274751D01*
X123533220Y-52268273D01*
X123638189Y-52373163D01*
G36*
X120483292Y-51756551D02*
X120664456Y-51824072D01*
X120728111Y-51998577D01*
X120731600Y-52096400D01*
X120700247Y-52319690D01*
X120568829Y-52413746D01*
X120459033Y-52432689D01*
X120197863Y-52394176D01*
X120081970Y-52268924D01*
X120043128Y-52026895D01*
X120162861Y-51835639D01*
X120396632Y-51752016D01*
X120483292Y-51756551D01*
X120483292Y-51756551D01*
G37*
X120483292Y-51756551D02*
X120664456Y-51824072D01*
X120728111Y-51998577D01*
X120731600Y-52096400D01*
X120700247Y-52319690D01*
X120568829Y-52413746D01*
X120459033Y-52432689D01*
X120197863Y-52394176D01*
X120081970Y-52268924D01*
X120043128Y-52026895D01*
X120162861Y-51835639D01*
X120396632Y-51752016D01*
X120483292Y-51756551D01*
G36*
X118750400Y-51588400D02*
X118847324Y-51679698D01*
X118852000Y-51695996D01*
X118773392Y-51739635D01*
X118750400Y-51740800D01*
X118652704Y-51662694D01*
X118648800Y-51633203D01*
X118711043Y-51572524D01*
X118750400Y-51588400D01*
X118750400Y-51588400D01*
G37*
X118750400Y-51588400D02*
X118847324Y-51679698D01*
X118852000Y-51695996D01*
X118773392Y-51739635D01*
X118750400Y-51740800D01*
X118652704Y-51662694D01*
X118648800Y-51633203D01*
X118711043Y-51572524D01*
X118750400Y-51588400D01*
G36*
X118853657Y-52300624D02*
X118907727Y-52417629D01*
X118831277Y-52531379D01*
X118750400Y-52553600D01*
X118617919Y-52480451D01*
X118602338Y-52459020D01*
X118608938Y-52338578D01*
X118731081Y-52274233D01*
X118853657Y-52300624D01*
X118853657Y-52300624D01*
G37*
X118853657Y-52300624D02*
X118907727Y-52417629D01*
X118831277Y-52531379D01*
X118750400Y-52553600D01*
X118617919Y-52480451D01*
X118602338Y-52459020D01*
X118608938Y-52338578D01*
X118731081Y-52274233D01*
X118853657Y-52300624D01*
G36*
X123130802Y-38559368D02*
X124398546Y-38809600D01*
X125256281Y-39092964D01*
X126490226Y-39682519D01*
X127603880Y-40434118D01*
X128589334Y-41340507D01*
X129438679Y-42394437D01*
X130130634Y-43562000D01*
X130357139Y-44019283D01*
X130544608Y-44425508D01*
X130696957Y-44806071D01*
X130818103Y-45186366D01*
X130911960Y-45591792D01*
X130982445Y-46047743D01*
X131033474Y-46579615D01*
X131068961Y-47212805D01*
X131092824Y-47972708D01*
X131108977Y-48884721D01*
X131121337Y-49974240D01*
X131121475Y-49988200D01*
X131158934Y-53772800D01*
X112528809Y-53772800D01*
X112553315Y-52096400D01*
X117429600Y-52096400D01*
X117431932Y-52514595D01*
X117446816Y-52769822D01*
X117486086Y-52902311D01*
X117561573Y-52952294D01*
X117683600Y-52960000D01*
X117806598Y-52952070D01*
X117881665Y-52901462D01*
X117920632Y-52767945D01*
X117935333Y-52511288D01*
X117935548Y-52471779D01*
X118124224Y-52471779D01*
X118235085Y-52751435D01*
X118444534Y-52953479D01*
X118710757Y-53026437D01*
X118834909Y-53004446D01*
X119020708Y-52962733D01*
X119059934Y-52960000D01*
X119204947Y-52867589D01*
X119296093Y-52617619D01*
X119323178Y-52250978D01*
X119322181Y-52237494D01*
X119483002Y-52237494D01*
X119549641Y-52421370D01*
X119734012Y-52641959D01*
X119807039Y-52716160D01*
X120049608Y-52937227D01*
X120236206Y-53032164D01*
X120439085Y-53032482D01*
X120505116Y-53020615D01*
X120814232Y-52898910D01*
X121082120Y-52706309D01*
X121294733Y-52365765D01*
X121328008Y-51983904D01*
X121244167Y-51769682D01*
X121486698Y-51769682D01*
X121503086Y-52101794D01*
X121618334Y-52326252D01*
X121761739Y-52390875D01*
X121902288Y-52300455D01*
X121991296Y-52097914D01*
X122001600Y-51988355D01*
X122042590Y-51779851D01*
X122136356Y-51672817D01*
X122239093Y-51714704D01*
X122245390Y-51724280D01*
X122226556Y-51853206D01*
X122118937Y-52087377D01*
X122018442Y-52259337D01*
X121841799Y-52540490D01*
X121703919Y-52761618D01*
X121660036Y-52833000D01*
X121666567Y-52905905D01*
X121815478Y-52945975D01*
X122134661Y-52959786D01*
X122198803Y-52960000D01*
X122541306Y-52952727D01*
X122727108Y-52920727D01*
X122802486Y-52848723D01*
X122814400Y-52756800D01*
X122750872Y-52591314D01*
X122662000Y-52553600D01*
X122547998Y-52545029D01*
X122524094Y-52485061D01*
X122548267Y-52425845D01*
X122949597Y-52425845D01*
X122985582Y-52667111D01*
X123104594Y-52828818D01*
X123271600Y-52940193D01*
X123533929Y-53044919D01*
X123754174Y-53000989D01*
X123997768Y-52801867D01*
X124178651Y-52561478D01*
X124195818Y-52342295D01*
X124189417Y-52319267D01*
X124169462Y-52231413D01*
X124357111Y-52231413D01*
X124382831Y-52551277D01*
X124516200Y-52778595D01*
X124846046Y-52998279D01*
X125143568Y-53032056D01*
X125450973Y-52883055D01*
X125493098Y-52851025D01*
X125709613Y-52588788D01*
X125759244Y-52317625D01*
X125723486Y-51994399D01*
X125590070Y-51787623D01*
X125383583Y-51652860D01*
X125223624Y-51503677D01*
X125216653Y-51383650D01*
X125203231Y-51268538D01*
X125022225Y-51232843D01*
X125011734Y-51232800D01*
X124771668Y-51324236D01*
X124570138Y-51559847D01*
X124425749Y-51881588D01*
X124357111Y-52231413D01*
X124169462Y-52231413D01*
X124129983Y-52057603D01*
X124084875Y-51753289D01*
X124010817Y-51424927D01*
X123854082Y-51255806D01*
X123578687Y-51207404D01*
X123574948Y-51207400D01*
X123308890Y-51257760D01*
X123131648Y-51429062D01*
X123021590Y-51751633D01*
X122977075Y-52045600D01*
X122949597Y-52425845D01*
X122548267Y-52425845D01*
X122590532Y-52322312D01*
X122663791Y-52174135D01*
X122750375Y-51825639D01*
X122678428Y-51518694D01*
X122483217Y-51293060D01*
X122200008Y-51188495D01*
X121864068Y-51244759D01*
X121846361Y-51252579D01*
X121606451Y-51461526D01*
X121486698Y-51769682D01*
X121244167Y-51769682D01*
X121182898Y-51613136D01*
X121059490Y-51463709D01*
X120717616Y-51242768D01*
X120348285Y-51196048D01*
X119995950Y-51307721D01*
X119705066Y-51561957D01*
X119520086Y-51942927D01*
X119502584Y-52018083D01*
X119483002Y-52237494D01*
X119322181Y-52237494D01*
X119303371Y-51983336D01*
X119234907Y-51614535D01*
X119126875Y-51387702D01*
X118991968Y-51266111D01*
X118798992Y-51165433D01*
X118639079Y-51189539D01*
X118496400Y-51274257D01*
X118291215Y-51497717D01*
X118242400Y-51685728D01*
X118204760Y-51985741D01*
X118153769Y-52165985D01*
X118124224Y-52471779D01*
X117935548Y-52471779D01*
X117937600Y-52096400D01*
X117935267Y-51678204D01*
X117920383Y-51422977D01*
X117881113Y-51290488D01*
X117805626Y-51240505D01*
X117683600Y-51232800D01*
X117560601Y-51240729D01*
X117485534Y-51291337D01*
X117446567Y-51424854D01*
X117431866Y-51681511D01*
X117429600Y-52096400D01*
X112553315Y-52096400D01*
X112581907Y-50140600D01*
X112599080Y-49098332D01*
X112617993Y-48237424D01*
X112624507Y-48027329D01*
X113162400Y-48027329D01*
X113178631Y-48168711D01*
X113259664Y-48247464D01*
X113454002Y-48286827D01*
X113745612Y-48306729D01*
X114093525Y-48338457D01*
X114283144Y-48397485D01*
X114359006Y-48498847D01*
X114362662Y-48515000D01*
X114355225Y-48614021D01*
X114256948Y-48668011D01*
X114025711Y-48689810D01*
X113779449Y-48692800D01*
X113439046Y-48698026D01*
X113254367Y-48726725D01*
X113177976Y-48798421D01*
X113162435Y-48932644D01*
X113162400Y-48946800D01*
X113174254Y-49084240D01*
X113240679Y-49160295D01*
X113407965Y-49193077D01*
X113722405Y-49200700D01*
X113811544Y-49200800D01*
X114228184Y-49180145D01*
X115598674Y-49180145D01*
X115601853Y-49640151D01*
X115618708Y-49998175D01*
X115650248Y-50212812D01*
X115668533Y-50250666D01*
X115779493Y-50262685D01*
X116076031Y-50274023D01*
X116540526Y-50284490D01*
X117155357Y-50293897D01*
X117902904Y-50302053D01*
X118765544Y-50308770D01*
X119725658Y-50313859D01*
X120765623Y-50317129D01*
X121867819Y-50318391D01*
X121967733Y-50318400D01*
X128199200Y-50318400D01*
X128199200Y-48759852D01*
X128187200Y-48379047D01*
X128989997Y-48379047D01*
X129058206Y-48808423D01*
X129262532Y-49134405D01*
X129562039Y-49337813D01*
X129915790Y-49399467D01*
X130282846Y-49300190D01*
X130543815Y-49107015D01*
X130783582Y-48760983D01*
X130827227Y-48386163D01*
X130691487Y-47987569D01*
X130446547Y-47699134D01*
X130122162Y-47557005D01*
X129767211Y-47549937D01*
X129430573Y-47666684D01*
X129161127Y-47895999D01*
X129007754Y-48226637D01*
X128989997Y-48379047D01*
X128187200Y-48379047D01*
X128164293Y-47652182D01*
X128051853Y-46703392D01*
X127850298Y-45880166D01*
X127548048Y-45149184D01*
X127483649Y-45044775D01*
X128379190Y-45044775D01*
X128414421Y-45240639D01*
X128442030Y-45311896D01*
X128547723Y-45297826D01*
X128787150Y-45225790D01*
X129056450Y-45130450D01*
X129369706Y-45024445D01*
X129600727Y-44967124D01*
X129689584Y-44967717D01*
X129700579Y-45089172D01*
X129515492Y-45228663D01*
X129140210Y-45381872D01*
X129112404Y-45391196D01*
X128783924Y-45525668D01*
X128628270Y-45660776D01*
X128605600Y-45748569D01*
X128649363Y-45936271D01*
X128798872Y-46007935D01*
X129081457Y-45969336D01*
X129316800Y-45898800D01*
X129623267Y-45816148D01*
X129857172Y-45787430D01*
X129932969Y-45801260D01*
X129993903Y-45884628D01*
X129901805Y-45979276D01*
X129639857Y-46096469D01*
X129335337Y-46201555D01*
X129011153Y-46325126D01*
X128862018Y-46434611D01*
X128852737Y-46527154D01*
X128905067Y-46717745D01*
X128910400Y-46770709D01*
X128932959Y-46839435D01*
X129025469Y-46853473D01*
X129225174Y-46807473D01*
X129569321Y-46696085D01*
X129670120Y-46661584D01*
X130154213Y-46441582D01*
X130447410Y-46183360D01*
X130546235Y-45892620D01*
X130447213Y-45575059D01*
X130386831Y-45486418D01*
X130269559Y-45230727D01*
X130234431Y-45015561D01*
X130139532Y-44730368D01*
X129899006Y-44520573D01*
X129568207Y-44431624D01*
X129522793Y-44431276D01*
X129273381Y-44473336D01*
X128945336Y-44572704D01*
X128808800Y-44624927D01*
X128526243Y-44760137D01*
X128397414Y-44886444D01*
X128379190Y-45044775D01*
X127483649Y-45044775D01*
X127133522Y-44477129D01*
X126595138Y-43830682D01*
X126424288Y-43653432D01*
X125588137Y-42946918D01*
X125503744Y-42899165D01*
X127016395Y-42899165D01*
X127093093Y-43250752D01*
X127296887Y-43551531D01*
X127609303Y-43754792D01*
X127945200Y-43816000D01*
X128342307Y-43722038D01*
X128572225Y-43572783D01*
X128805134Y-43259717D01*
X128874004Y-42904034D01*
X128797306Y-42552447D01*
X128593512Y-42251668D01*
X128281096Y-42048407D01*
X127945200Y-41987200D01*
X127548092Y-42081161D01*
X127318174Y-42230416D01*
X127085265Y-42543482D01*
X127016395Y-42899165D01*
X125503744Y-42899165D01*
X124656361Y-42419687D01*
X123628936Y-42071729D01*
X122505840Y-41903036D01*
X121980063Y-41885600D01*
X120815097Y-41976690D01*
X119726031Y-42246798D01*
X118728120Y-42691175D01*
X118110765Y-43089459D01*
X117272206Y-43828760D01*
X116598790Y-44681741D01*
X116097642Y-45637192D01*
X115775886Y-46683904D01*
X115752612Y-46799621D01*
X115702543Y-47148437D01*
X115661106Y-47602304D01*
X115629309Y-48119816D01*
X115608163Y-48659565D01*
X115598674Y-49180145D01*
X114228184Y-49180145D01*
X114246238Y-49179250D01*
X114537042Y-49106730D01*
X114692077Y-49013432D01*
X114886709Y-48736924D01*
X114923466Y-48489600D01*
X114859462Y-48158432D01*
X114656416Y-47936600D01*
X114297782Y-47813518D01*
X113811544Y-47778400D01*
X113460189Y-47783193D01*
X113265750Y-47809398D01*
X113181976Y-47874751D01*
X113162613Y-47996988D01*
X113162400Y-48027329D01*
X112624507Y-48027329D01*
X112639742Y-47536037D01*
X112665424Y-46972332D01*
X112694996Y-46541072D01*
X113264000Y-46541072D01*
X113332388Y-46888395D01*
X113539607Y-47088983D01*
X113888734Y-47145166D01*
X114044527Y-47131214D01*
X114329701Y-47107973D01*
X114460769Y-47146632D01*
X114483200Y-47214093D01*
X114567372Y-47345492D01*
X114751164Y-47418614D01*
X114915000Y-47398928D01*
X114970070Y-47280244D01*
X114991200Y-47068461D01*
X114921097Y-46729701D01*
X114716702Y-46539020D01*
X114386878Y-46500287D01*
X113949800Y-46613754D01*
X113803020Y-46619523D01*
X113772000Y-46519270D01*
X113724506Y-46377166D01*
X113678709Y-46356000D01*
X113508442Y-46322486D01*
X113424709Y-46294329D01*
X113309755Y-46295284D01*
X113266628Y-46445068D01*
X113264000Y-46541072D01*
X112694996Y-46541072D01*
X112696135Y-46524469D01*
X112732972Y-46170609D01*
X112777032Y-45888914D01*
X112801239Y-45772160D01*
X113090976Y-44818953D01*
X113779696Y-44818953D01*
X113795805Y-45155145D01*
X113893526Y-45460648D01*
X113928952Y-45518868D01*
X114205288Y-45753065D01*
X114569570Y-45856227D01*
X114954762Y-45828742D01*
X115293832Y-45670996D01*
X115449988Y-45510100D01*
X115585313Y-45244858D01*
X115546650Y-45069567D01*
X115388568Y-44981533D01*
X115171719Y-44988316D01*
X115027207Y-45127087D01*
X114812582Y-45304565D01*
X114582013Y-45319457D01*
X114392838Y-45198701D01*
X114302397Y-44969235D01*
X114318480Y-44794114D01*
X114325981Y-44596672D01*
X114186930Y-44500635D01*
X114155660Y-44491815D01*
X113945924Y-44493265D01*
X113853390Y-44556420D01*
X113779696Y-44818953D01*
X113090976Y-44818953D01*
X113197323Y-44469084D01*
X113643025Y-43523587D01*
X114480759Y-43523587D01*
X114558712Y-43805208D01*
X114776817Y-44019109D01*
X115104363Y-44118613D01*
X115165733Y-44120800D01*
X115402695Y-44143221D01*
X115485038Y-44227423D01*
X115482722Y-44298600D01*
X115503938Y-44529274D01*
X115614563Y-44696520D01*
X115706053Y-44730400D01*
X115822777Y-44653853D01*
X115965742Y-44476400D01*
X116073197Y-44277297D01*
X116055633Y-44120717D01*
X115966799Y-43970013D01*
X115750023Y-43761274D01*
X115523314Y-43656727D01*
X115215567Y-43582461D01*
X115065908Y-43518298D01*
X115032341Y-43438900D01*
X115051060Y-43371824D01*
X115023304Y-43234454D01*
X114877429Y-43148279D01*
X114697002Y-43139712D01*
X114573671Y-43220927D01*
X114480759Y-43523587D01*
X113643025Y-43523587D01*
X113772013Y-43249958D01*
X114363738Y-42355413D01*
X115403331Y-42355413D01*
X115455117Y-42651567D01*
X115678774Y-42893029D01*
X116041566Y-43044540D01*
X116232792Y-43108286D01*
X116253457Y-43193278D01*
X116197801Y-43272380D01*
X116124375Y-43415308D01*
X116215097Y-43539545D01*
X116257937Y-43572177D01*
X116428549Y-43658316D01*
X116579481Y-43593349D01*
X116635102Y-43545436D01*
X116782016Y-43321327D01*
X116820000Y-43147110D01*
X116727228Y-42845978D01*
X116460870Y-42630361D01*
X116207439Y-42545349D01*
X115992357Y-42467467D01*
X115943227Y-42345909D01*
X115954688Y-42297391D01*
X115930413Y-42088026D01*
X115846099Y-41979979D01*
X115700796Y-41900368D01*
X115579734Y-41982805D01*
X115539005Y-42035853D01*
X115403331Y-42355413D01*
X114363738Y-42355413D01*
X114512519Y-42130493D01*
X115406049Y-41126398D01*
X115566285Y-40991078D01*
X117346833Y-40991078D01*
X117402458Y-41185986D01*
X117538184Y-41484909D01*
X117608117Y-41627691D01*
X117777155Y-41950212D01*
X117919488Y-42185379D01*
X118007206Y-42287604D01*
X118012851Y-42288768D01*
X118148599Y-42230833D01*
X118261296Y-42155323D01*
X118355036Y-42062176D01*
X118362312Y-41947322D01*
X118275126Y-41751353D01*
X118185096Y-41589384D01*
X118019965Y-41245764D01*
X117943492Y-40969953D01*
X117963148Y-40801386D01*
X118029501Y-40768000D01*
X118123316Y-40849824D01*
X118276960Y-41063211D01*
X118438117Y-41329188D01*
X118618601Y-41632697D01*
X118744938Y-41786021D01*
X118853406Y-41820948D01*
X118955816Y-41782813D01*
X119084164Y-41709324D01*
X119084919Y-41708212D01*
X125100104Y-41708212D01*
X125140612Y-41795472D01*
X125207171Y-41851144D01*
X125401409Y-41967515D01*
X125524319Y-41934465D01*
X125641603Y-41731115D01*
X125651277Y-41710014D01*
X125747343Y-41530696D01*
X125817546Y-41522003D01*
X125875081Y-41607068D01*
X125911619Y-41864786D01*
X125871450Y-41970289D01*
X125829686Y-42181485D01*
X125890440Y-42279400D01*
X126089693Y-42375014D01*
X126277834Y-42284321D01*
X126422526Y-42023100D01*
X126423822Y-42019131D01*
X126552912Y-41728050D01*
X126703222Y-41504368D01*
X126860400Y-41226919D01*
X126823130Y-40946264D01*
X126588632Y-40649677D01*
X126499651Y-40572196D01*
X126253701Y-40388220D01*
X126059891Y-40276061D01*
X126003229Y-40260000D01*
X125900584Y-40341803D01*
X125730254Y-40559565D01*
X125523587Y-40871807D01*
X125453331Y-40987544D01*
X125244676Y-41345603D01*
X125130863Y-41572041D01*
X125100104Y-41708212D01*
X119084919Y-41708212D01*
X119136763Y-41631874D01*
X119109809Y-41500150D01*
X118999498Y-41263839D01*
X118902014Y-41071249D01*
X118620029Y-40637286D01*
X118338726Y-40395420D01*
X119607268Y-40395420D01*
X119688490Y-40738574D01*
X119917899Y-41029177D01*
X120059826Y-41123636D01*
X120417930Y-41256663D01*
X120755226Y-41223642D01*
X120976334Y-41128391D01*
X121276181Y-40879474D01*
X121304095Y-40818795D01*
X122068294Y-40818795D01*
X122070856Y-41008637D01*
X122125422Y-41088684D01*
X122278502Y-41161292D01*
X122437946Y-41146393D01*
X122652495Y-41058643D01*
X122868890Y-40905444D01*
X122943642Y-40682624D01*
X122886864Y-40348147D01*
X122850755Y-40234600D01*
X122778324Y-39985871D01*
X122786848Y-39884463D01*
X123731058Y-39884463D01*
X123799958Y-40035661D01*
X123881200Y-40056800D01*
X124016761Y-40077503D01*
X124033600Y-40094826D01*
X124002845Y-40204834D01*
X123925168Y-40438556D01*
X123881200Y-40564800D01*
X123758479Y-40968719D01*
X123736907Y-41221106D01*
X123819351Y-41348280D01*
X123969787Y-41377600D01*
X124120140Y-41347817D01*
X124226434Y-41227252D01*
X124322807Y-40969081D01*
X124358670Y-40844200D01*
X124474082Y-40506290D01*
X124597623Y-40330444D01*
X124716925Y-40279690D01*
X124876888Y-40190312D01*
X124987432Y-40026206D01*
X125005956Y-39867783D01*
X124963861Y-39813597D01*
X124835845Y-39764289D01*
X124578795Y-39680894D01*
X124371671Y-39618110D01*
X124063535Y-39534117D01*
X123895101Y-39515720D01*
X123813825Y-39562705D01*
X123787471Y-39615723D01*
X123731058Y-39884463D01*
X122786848Y-39884463D01*
X122787626Y-39875219D01*
X122857862Y-39853600D01*
X122976825Y-39766545D01*
X123042466Y-39599600D01*
X123050282Y-39416614D01*
X122938791Y-39351665D01*
X122807568Y-39345600D01*
X122484943Y-39422065D01*
X122280879Y-39624528D01*
X122233602Y-39912589D01*
X122239295Y-39946184D01*
X122292774Y-40216386D01*
X122324622Y-40381050D01*
X122306926Y-40525717D01*
X122260630Y-40551315D01*
X122139821Y-40633490D01*
X122068294Y-40818795D01*
X121304095Y-40818795D01*
X121424980Y-40556022D01*
X121435121Y-40204240D01*
X121318993Y-39870332D01*
X121088988Y-39600504D01*
X120757496Y-39440959D01*
X120517492Y-39417317D01*
X120129346Y-39510664D01*
X119840035Y-39735464D01*
X119661896Y-40045716D01*
X119607268Y-40395420D01*
X118338726Y-40395420D01*
X118312456Y-40372833D01*
X118001193Y-40283593D01*
X117708137Y-40375263D01*
X117455186Y-40653545D01*
X117434409Y-40689233D01*
X117360940Y-40844166D01*
X117346833Y-40991078D01*
X115566285Y-40991078D01*
X116439811Y-40253385D01*
X117601012Y-39527165D01*
X118078906Y-39290237D01*
X119266267Y-38849750D01*
X120528287Y-38580442D01*
X121828590Y-38483315D01*
X123130802Y-38559368D01*
X123130802Y-38559368D01*
G37*
X123130802Y-38559368D02*
X124398546Y-38809600D01*
X125256281Y-39092964D01*
X126490226Y-39682519D01*
X127603880Y-40434118D01*
X128589334Y-41340507D01*
X129438679Y-42394437D01*
X130130634Y-43562000D01*
X130357139Y-44019283D01*
X130544608Y-44425508D01*
X130696957Y-44806071D01*
X130818103Y-45186366D01*
X130911960Y-45591792D01*
X130982445Y-46047743D01*
X131033474Y-46579615D01*
X131068961Y-47212805D01*
X131092824Y-47972708D01*
X131108977Y-48884721D01*
X131121337Y-49974240D01*
X131121475Y-49988200D01*
X131158934Y-53772800D01*
X112528809Y-53772800D01*
X112553315Y-52096400D01*
X117429600Y-52096400D01*
X117431932Y-52514595D01*
X117446816Y-52769822D01*
X117486086Y-52902311D01*
X117561573Y-52952294D01*
X117683600Y-52960000D01*
X117806598Y-52952070D01*
X117881665Y-52901462D01*
X117920632Y-52767945D01*
X117935333Y-52511288D01*
X117935548Y-52471779D01*
X118124224Y-52471779D01*
X118235085Y-52751435D01*
X118444534Y-52953479D01*
X118710757Y-53026437D01*
X118834909Y-53004446D01*
X119020708Y-52962733D01*
X119059934Y-52960000D01*
X119204947Y-52867589D01*
X119296093Y-52617619D01*
X119323178Y-52250978D01*
X119322181Y-52237494D01*
X119483002Y-52237494D01*
X119549641Y-52421370D01*
X119734012Y-52641959D01*
X119807039Y-52716160D01*
X120049608Y-52937227D01*
X120236206Y-53032164D01*
X120439085Y-53032482D01*
X120505116Y-53020615D01*
X120814232Y-52898910D01*
X121082120Y-52706309D01*
X121294733Y-52365765D01*
X121328008Y-51983904D01*
X121244167Y-51769682D01*
X121486698Y-51769682D01*
X121503086Y-52101794D01*
X121618334Y-52326252D01*
X121761739Y-52390875D01*
X121902288Y-52300455D01*
X121991296Y-52097914D01*
X122001600Y-51988355D01*
X122042590Y-51779851D01*
X122136356Y-51672817D01*
X122239093Y-51714704D01*
X122245390Y-51724280D01*
X122226556Y-51853206D01*
X122118937Y-52087377D01*
X122018442Y-52259337D01*
X121841799Y-52540490D01*
X121703919Y-52761618D01*
X121660036Y-52833000D01*
X121666567Y-52905905D01*
X121815478Y-52945975D01*
X122134661Y-52959786D01*
X122198803Y-52960000D01*
X122541306Y-52952727D01*
X122727108Y-52920727D01*
X122802486Y-52848723D01*
X122814400Y-52756800D01*
X122750872Y-52591314D01*
X122662000Y-52553600D01*
X122547998Y-52545029D01*
X122524094Y-52485061D01*
X122548267Y-52425845D01*
X122949597Y-52425845D01*
X122985582Y-52667111D01*
X123104594Y-52828818D01*
X123271600Y-52940193D01*
X123533929Y-53044919D01*
X123754174Y-53000989D01*
X123997768Y-52801867D01*
X124178651Y-52561478D01*
X124195818Y-52342295D01*
X124189417Y-52319267D01*
X124169462Y-52231413D01*
X124357111Y-52231413D01*
X124382831Y-52551277D01*
X124516200Y-52778595D01*
X124846046Y-52998279D01*
X125143568Y-53032056D01*
X125450973Y-52883055D01*
X125493098Y-52851025D01*
X125709613Y-52588788D01*
X125759244Y-52317625D01*
X125723486Y-51994399D01*
X125590070Y-51787623D01*
X125383583Y-51652860D01*
X125223624Y-51503677D01*
X125216653Y-51383650D01*
X125203231Y-51268538D01*
X125022225Y-51232843D01*
X125011734Y-51232800D01*
X124771668Y-51324236D01*
X124570138Y-51559847D01*
X124425749Y-51881588D01*
X124357111Y-52231413D01*
X124169462Y-52231413D01*
X124129983Y-52057603D01*
X124084875Y-51753289D01*
X124010817Y-51424927D01*
X123854082Y-51255806D01*
X123578687Y-51207404D01*
X123574948Y-51207400D01*
X123308890Y-51257760D01*
X123131648Y-51429062D01*
X123021590Y-51751633D01*
X122977075Y-52045600D01*
X122949597Y-52425845D01*
X122548267Y-52425845D01*
X122590532Y-52322312D01*
X122663791Y-52174135D01*
X122750375Y-51825639D01*
X122678428Y-51518694D01*
X122483217Y-51293060D01*
X122200008Y-51188495D01*
X121864068Y-51244759D01*
X121846361Y-51252579D01*
X121606451Y-51461526D01*
X121486698Y-51769682D01*
X121244167Y-51769682D01*
X121182898Y-51613136D01*
X121059490Y-51463709D01*
X120717616Y-51242768D01*
X120348285Y-51196048D01*
X119995950Y-51307721D01*
X119705066Y-51561957D01*
X119520086Y-51942927D01*
X119502584Y-52018083D01*
X119483002Y-52237494D01*
X119322181Y-52237494D01*
X119303371Y-51983336D01*
X119234907Y-51614535D01*
X119126875Y-51387702D01*
X118991968Y-51266111D01*
X118798992Y-51165433D01*
X118639079Y-51189539D01*
X118496400Y-51274257D01*
X118291215Y-51497717D01*
X118242400Y-51685728D01*
X118204760Y-51985741D01*
X118153769Y-52165985D01*
X118124224Y-52471779D01*
X117935548Y-52471779D01*
X117937600Y-52096400D01*
X117935267Y-51678204D01*
X117920383Y-51422977D01*
X117881113Y-51290488D01*
X117805626Y-51240505D01*
X117683600Y-51232800D01*
X117560601Y-51240729D01*
X117485534Y-51291337D01*
X117446567Y-51424854D01*
X117431866Y-51681511D01*
X117429600Y-52096400D01*
X112553315Y-52096400D01*
X112581907Y-50140600D01*
X112599080Y-49098332D01*
X112617993Y-48237424D01*
X112624507Y-48027329D01*
X113162400Y-48027329D01*
X113178631Y-48168711D01*
X113259664Y-48247464D01*
X113454002Y-48286827D01*
X113745612Y-48306729D01*
X114093525Y-48338457D01*
X114283144Y-48397485D01*
X114359006Y-48498847D01*
X114362662Y-48515000D01*
X114355225Y-48614021D01*
X114256948Y-48668011D01*
X114025711Y-48689810D01*
X113779449Y-48692800D01*
X113439046Y-48698026D01*
X113254367Y-48726725D01*
X113177976Y-48798421D01*
X113162435Y-48932644D01*
X113162400Y-48946800D01*
X113174254Y-49084240D01*
X113240679Y-49160295D01*
X113407965Y-49193077D01*
X113722405Y-49200700D01*
X113811544Y-49200800D01*
X114228184Y-49180145D01*
X115598674Y-49180145D01*
X115601853Y-49640151D01*
X115618708Y-49998175D01*
X115650248Y-50212812D01*
X115668533Y-50250666D01*
X115779493Y-50262685D01*
X116076031Y-50274023D01*
X116540526Y-50284490D01*
X117155357Y-50293897D01*
X117902904Y-50302053D01*
X118765544Y-50308770D01*
X119725658Y-50313859D01*
X120765623Y-50317129D01*
X121867819Y-50318391D01*
X121967733Y-50318400D01*
X128199200Y-50318400D01*
X128199200Y-48759852D01*
X128187200Y-48379047D01*
X128989997Y-48379047D01*
X129058206Y-48808423D01*
X129262532Y-49134405D01*
X129562039Y-49337813D01*
X129915790Y-49399467D01*
X130282846Y-49300190D01*
X130543815Y-49107015D01*
X130783582Y-48760983D01*
X130827227Y-48386163D01*
X130691487Y-47987569D01*
X130446547Y-47699134D01*
X130122162Y-47557005D01*
X129767211Y-47549937D01*
X129430573Y-47666684D01*
X129161127Y-47895999D01*
X129007754Y-48226637D01*
X128989997Y-48379047D01*
X128187200Y-48379047D01*
X128164293Y-47652182D01*
X128051853Y-46703392D01*
X127850298Y-45880166D01*
X127548048Y-45149184D01*
X127483649Y-45044775D01*
X128379190Y-45044775D01*
X128414421Y-45240639D01*
X128442030Y-45311896D01*
X128547723Y-45297826D01*
X128787150Y-45225790D01*
X129056450Y-45130450D01*
X129369706Y-45024445D01*
X129600727Y-44967124D01*
X129689584Y-44967717D01*
X129700579Y-45089172D01*
X129515492Y-45228663D01*
X129140210Y-45381872D01*
X129112404Y-45391196D01*
X128783924Y-45525668D01*
X128628270Y-45660776D01*
X128605600Y-45748569D01*
X128649363Y-45936271D01*
X128798872Y-46007935D01*
X129081457Y-45969336D01*
X129316800Y-45898800D01*
X129623267Y-45816148D01*
X129857172Y-45787430D01*
X129932969Y-45801260D01*
X129993903Y-45884628D01*
X129901805Y-45979276D01*
X129639857Y-46096469D01*
X129335337Y-46201555D01*
X129011153Y-46325126D01*
X128862018Y-46434611D01*
X128852737Y-46527154D01*
X128905067Y-46717745D01*
X128910400Y-46770709D01*
X128932959Y-46839435D01*
X129025469Y-46853473D01*
X129225174Y-46807473D01*
X129569321Y-46696085D01*
X129670120Y-46661584D01*
X130154213Y-46441582D01*
X130447410Y-46183360D01*
X130546235Y-45892620D01*
X130447213Y-45575059D01*
X130386831Y-45486418D01*
X130269559Y-45230727D01*
X130234431Y-45015561D01*
X130139532Y-44730368D01*
X129899006Y-44520573D01*
X129568207Y-44431624D01*
X129522793Y-44431276D01*
X129273381Y-44473336D01*
X128945336Y-44572704D01*
X128808800Y-44624927D01*
X128526243Y-44760137D01*
X128397414Y-44886444D01*
X128379190Y-45044775D01*
X127483649Y-45044775D01*
X127133522Y-44477129D01*
X126595138Y-43830682D01*
X126424288Y-43653432D01*
X125588137Y-42946918D01*
X125503744Y-42899165D01*
X127016395Y-42899165D01*
X127093093Y-43250752D01*
X127296887Y-43551531D01*
X127609303Y-43754792D01*
X127945200Y-43816000D01*
X128342307Y-43722038D01*
X128572225Y-43572783D01*
X128805134Y-43259717D01*
X128874004Y-42904034D01*
X128797306Y-42552447D01*
X128593512Y-42251668D01*
X128281096Y-42048407D01*
X127945200Y-41987200D01*
X127548092Y-42081161D01*
X127318174Y-42230416D01*
X127085265Y-42543482D01*
X127016395Y-42899165D01*
X125503744Y-42899165D01*
X124656361Y-42419687D01*
X123628936Y-42071729D01*
X122505840Y-41903036D01*
X121980063Y-41885600D01*
X120815097Y-41976690D01*
X119726031Y-42246798D01*
X118728120Y-42691175D01*
X118110765Y-43089459D01*
X117272206Y-43828760D01*
X116598790Y-44681741D01*
X116097642Y-45637192D01*
X115775886Y-46683904D01*
X115752612Y-46799621D01*
X115702543Y-47148437D01*
X115661106Y-47602304D01*
X115629309Y-48119816D01*
X115608163Y-48659565D01*
X115598674Y-49180145D01*
X114228184Y-49180145D01*
X114246238Y-49179250D01*
X114537042Y-49106730D01*
X114692077Y-49013432D01*
X114886709Y-48736924D01*
X114923466Y-48489600D01*
X114859462Y-48158432D01*
X114656416Y-47936600D01*
X114297782Y-47813518D01*
X113811544Y-47778400D01*
X113460189Y-47783193D01*
X113265750Y-47809398D01*
X113181976Y-47874751D01*
X113162613Y-47996988D01*
X113162400Y-48027329D01*
X112624507Y-48027329D01*
X112639742Y-47536037D01*
X112665424Y-46972332D01*
X112694996Y-46541072D01*
X113264000Y-46541072D01*
X113332388Y-46888395D01*
X113539607Y-47088983D01*
X113888734Y-47145166D01*
X114044527Y-47131214D01*
X114329701Y-47107973D01*
X114460769Y-47146632D01*
X114483200Y-47214093D01*
X114567372Y-47345492D01*
X114751164Y-47418614D01*
X114915000Y-47398928D01*
X114970070Y-47280244D01*
X114991200Y-47068461D01*
X114921097Y-46729701D01*
X114716702Y-46539020D01*
X114386878Y-46500287D01*
X113949800Y-46613754D01*
X113803020Y-46619523D01*
X113772000Y-46519270D01*
X113724506Y-46377166D01*
X113678709Y-46356000D01*
X113508442Y-46322486D01*
X113424709Y-46294329D01*
X113309755Y-46295284D01*
X113266628Y-46445068D01*
X113264000Y-46541072D01*
X112694996Y-46541072D01*
X112696135Y-46524469D01*
X112732972Y-46170609D01*
X112777032Y-45888914D01*
X112801239Y-45772160D01*
X113090976Y-44818953D01*
X113779696Y-44818953D01*
X113795805Y-45155145D01*
X113893526Y-45460648D01*
X113928952Y-45518868D01*
X114205288Y-45753065D01*
X114569570Y-45856227D01*
X114954762Y-45828742D01*
X115293832Y-45670996D01*
X115449988Y-45510100D01*
X115585313Y-45244858D01*
X115546650Y-45069567D01*
X115388568Y-44981533D01*
X115171719Y-44988316D01*
X115027207Y-45127087D01*
X114812582Y-45304565D01*
X114582013Y-45319457D01*
X114392838Y-45198701D01*
X114302397Y-44969235D01*
X114318480Y-44794114D01*
X114325981Y-44596672D01*
X114186930Y-44500635D01*
X114155660Y-44491815D01*
X113945924Y-44493265D01*
X113853390Y-44556420D01*
X113779696Y-44818953D01*
X113090976Y-44818953D01*
X113197323Y-44469084D01*
X113643025Y-43523587D01*
X114480759Y-43523587D01*
X114558712Y-43805208D01*
X114776817Y-44019109D01*
X115104363Y-44118613D01*
X115165733Y-44120800D01*
X115402695Y-44143221D01*
X115485038Y-44227423D01*
X115482722Y-44298600D01*
X115503938Y-44529274D01*
X115614563Y-44696520D01*
X115706053Y-44730400D01*
X115822777Y-44653853D01*
X115965742Y-44476400D01*
X116073197Y-44277297D01*
X116055633Y-44120717D01*
X115966799Y-43970013D01*
X115750023Y-43761274D01*
X115523314Y-43656727D01*
X115215567Y-43582461D01*
X115065908Y-43518298D01*
X115032341Y-43438900D01*
X115051060Y-43371824D01*
X115023304Y-43234454D01*
X114877429Y-43148279D01*
X114697002Y-43139712D01*
X114573671Y-43220927D01*
X114480759Y-43523587D01*
X113643025Y-43523587D01*
X113772013Y-43249958D01*
X114363738Y-42355413D01*
X115403331Y-42355413D01*
X115455117Y-42651567D01*
X115678774Y-42893029D01*
X116041566Y-43044540D01*
X116232792Y-43108286D01*
X116253457Y-43193278D01*
X116197801Y-43272380D01*
X116124375Y-43415308D01*
X116215097Y-43539545D01*
X116257937Y-43572177D01*
X116428549Y-43658316D01*
X116579481Y-43593349D01*
X116635102Y-43545436D01*
X116782016Y-43321327D01*
X116820000Y-43147110D01*
X116727228Y-42845978D01*
X116460870Y-42630361D01*
X116207439Y-42545349D01*
X115992357Y-42467467D01*
X115943227Y-42345909D01*
X115954688Y-42297391D01*
X115930413Y-42088026D01*
X115846099Y-41979979D01*
X115700796Y-41900368D01*
X115579734Y-41982805D01*
X115539005Y-42035853D01*
X115403331Y-42355413D01*
X114363738Y-42355413D01*
X114512519Y-42130493D01*
X115406049Y-41126398D01*
X115566285Y-40991078D01*
X117346833Y-40991078D01*
X117402458Y-41185986D01*
X117538184Y-41484909D01*
X117608117Y-41627691D01*
X117777155Y-41950212D01*
X117919488Y-42185379D01*
X118007206Y-42287604D01*
X118012851Y-42288768D01*
X118148599Y-42230833D01*
X118261296Y-42155323D01*
X118355036Y-42062176D01*
X118362312Y-41947322D01*
X118275126Y-41751353D01*
X118185096Y-41589384D01*
X118019965Y-41245764D01*
X117943492Y-40969953D01*
X117963148Y-40801386D01*
X118029501Y-40768000D01*
X118123316Y-40849824D01*
X118276960Y-41063211D01*
X118438117Y-41329188D01*
X118618601Y-41632697D01*
X118744938Y-41786021D01*
X118853406Y-41820948D01*
X118955816Y-41782813D01*
X119084164Y-41709324D01*
X119084919Y-41708212D01*
X125100104Y-41708212D01*
X125140612Y-41795472D01*
X125207171Y-41851144D01*
X125401409Y-41967515D01*
X125524319Y-41934465D01*
X125641603Y-41731115D01*
X125651277Y-41710014D01*
X125747343Y-41530696D01*
X125817546Y-41522003D01*
X125875081Y-41607068D01*
X125911619Y-41864786D01*
X125871450Y-41970289D01*
X125829686Y-42181485D01*
X125890440Y-42279400D01*
X126089693Y-42375014D01*
X126277834Y-42284321D01*
X126422526Y-42023100D01*
X126423822Y-42019131D01*
X126552912Y-41728050D01*
X126703222Y-41504368D01*
X126860400Y-41226919D01*
X126823130Y-40946264D01*
X126588632Y-40649677D01*
X126499651Y-40572196D01*
X126253701Y-40388220D01*
X126059891Y-40276061D01*
X126003229Y-40260000D01*
X125900584Y-40341803D01*
X125730254Y-40559565D01*
X125523587Y-40871807D01*
X125453331Y-40987544D01*
X125244676Y-41345603D01*
X125130863Y-41572041D01*
X125100104Y-41708212D01*
X119084919Y-41708212D01*
X119136763Y-41631874D01*
X119109809Y-41500150D01*
X118999498Y-41263839D01*
X118902014Y-41071249D01*
X118620029Y-40637286D01*
X118338726Y-40395420D01*
X119607268Y-40395420D01*
X119688490Y-40738574D01*
X119917899Y-41029177D01*
X120059826Y-41123636D01*
X120417930Y-41256663D01*
X120755226Y-41223642D01*
X120976334Y-41128391D01*
X121276181Y-40879474D01*
X121304095Y-40818795D01*
X122068294Y-40818795D01*
X122070856Y-41008637D01*
X122125422Y-41088684D01*
X122278502Y-41161292D01*
X122437946Y-41146393D01*
X122652495Y-41058643D01*
X122868890Y-40905444D01*
X122943642Y-40682624D01*
X122886864Y-40348147D01*
X122850755Y-40234600D01*
X122778324Y-39985871D01*
X122786848Y-39884463D01*
X123731058Y-39884463D01*
X123799958Y-40035661D01*
X123881200Y-40056800D01*
X124016761Y-40077503D01*
X124033600Y-40094826D01*
X124002845Y-40204834D01*
X123925168Y-40438556D01*
X123881200Y-40564800D01*
X123758479Y-40968719D01*
X123736907Y-41221106D01*
X123819351Y-41348280D01*
X123969787Y-41377600D01*
X124120140Y-41347817D01*
X124226434Y-41227252D01*
X124322807Y-40969081D01*
X124358670Y-40844200D01*
X124474082Y-40506290D01*
X124597623Y-40330444D01*
X124716925Y-40279690D01*
X124876888Y-40190312D01*
X124987432Y-40026206D01*
X125005956Y-39867783D01*
X124963861Y-39813597D01*
X124835845Y-39764289D01*
X124578795Y-39680894D01*
X124371671Y-39618110D01*
X124063535Y-39534117D01*
X123895101Y-39515720D01*
X123813825Y-39562705D01*
X123787471Y-39615723D01*
X123731058Y-39884463D01*
X122786848Y-39884463D01*
X122787626Y-39875219D01*
X122857862Y-39853600D01*
X122976825Y-39766545D01*
X123042466Y-39599600D01*
X123050282Y-39416614D01*
X122938791Y-39351665D01*
X122807568Y-39345600D01*
X122484943Y-39422065D01*
X122280879Y-39624528D01*
X122233602Y-39912589D01*
X122239295Y-39946184D01*
X122292774Y-40216386D01*
X122324622Y-40381050D01*
X122306926Y-40525717D01*
X122260630Y-40551315D01*
X122139821Y-40633490D01*
X122068294Y-40818795D01*
X121304095Y-40818795D01*
X121424980Y-40556022D01*
X121435121Y-40204240D01*
X121318993Y-39870332D01*
X121088988Y-39600504D01*
X120757496Y-39440959D01*
X120517492Y-39417317D01*
X120129346Y-39510664D01*
X119840035Y-39735464D01*
X119661896Y-40045716D01*
X119607268Y-40395420D01*
X118338726Y-40395420D01*
X118312456Y-40372833D01*
X118001193Y-40283593D01*
X117708137Y-40375263D01*
X117455186Y-40653545D01*
X117434409Y-40689233D01*
X117360940Y-40844166D01*
X117346833Y-40991078D01*
X115566285Y-40991078D01*
X116439811Y-40253385D01*
X117601012Y-39527165D01*
X118078906Y-39290237D01*
X119266267Y-38849750D01*
X120528287Y-38580442D01*
X121828590Y-38483315D01*
X123130802Y-38559368D01*
G04 #@! TO.C,C1*
D11*
X175735283Y-55908292D02*
X175687664Y-55955911D01*
X175544807Y-56003530D01*
X175449569Y-56003530D01*
X175306711Y-55955911D01*
X175211473Y-55860673D01*
X175163854Y-55765435D01*
X175116235Y-55574959D01*
X175116235Y-55432102D01*
X175163854Y-55241626D01*
X175211473Y-55146388D01*
X175306711Y-55051150D01*
X175449569Y-55003530D01*
X175544807Y-55003530D01*
X175687664Y-55051150D01*
X175735283Y-55098769D01*
X176687664Y-56003530D02*
X176116235Y-56003530D01*
X176401950Y-56003530D02*
X176401950Y-55003530D01*
X176306711Y-55146388D01*
X176211473Y-55241626D01*
X176116235Y-55289245D01*
G04 #@! TO.C,C2*
X179607142Y-43766666D02*
X179654761Y-43814285D01*
X179702380Y-43957142D01*
X179702380Y-44052380D01*
X179654761Y-44195238D01*
X179559523Y-44290476D01*
X179464285Y-44338095D01*
X179273809Y-44385714D01*
X179130952Y-44385714D01*
X178940476Y-44338095D01*
X178845238Y-44290476D01*
X178750000Y-44195238D01*
X178702380Y-44052380D01*
X178702380Y-43957142D01*
X178750000Y-43814285D01*
X178797619Y-43766666D01*
X178797619Y-43385714D02*
X178750000Y-43338095D01*
X178702380Y-43242857D01*
X178702380Y-43004761D01*
X178750000Y-42909523D01*
X178797619Y-42861904D01*
X178892857Y-42814285D01*
X178988095Y-42814285D01*
X179130952Y-42861904D01*
X179702380Y-43433333D01*
X179702380Y-42814285D01*
G04 #@! TO.C,C3*
X170733333Y-40407142D02*
X170685714Y-40454761D01*
X170542857Y-40502380D01*
X170447619Y-40502380D01*
X170304761Y-40454761D01*
X170209523Y-40359523D01*
X170161904Y-40264285D01*
X170114285Y-40073809D01*
X170114285Y-39930952D01*
X170161904Y-39740476D01*
X170209523Y-39645238D01*
X170304761Y-39550000D01*
X170447619Y-39502380D01*
X170542857Y-39502380D01*
X170685714Y-39550000D01*
X170733333Y-39597619D01*
X171066666Y-39502380D02*
X171685714Y-39502380D01*
X171352380Y-39883333D01*
X171495238Y-39883333D01*
X171590476Y-39930952D01*
X171638095Y-39978571D01*
X171685714Y-40073809D01*
X171685714Y-40311904D01*
X171638095Y-40407142D01*
X171590476Y-40454761D01*
X171495238Y-40502380D01*
X171209523Y-40502380D01*
X171114285Y-40454761D01*
X171066666Y-40407142D01*
G04 #@! TO.C,C4*
X164157142Y-48091666D02*
X164204761Y-48139285D01*
X164252380Y-48282142D01*
X164252380Y-48377380D01*
X164204761Y-48520238D01*
X164109523Y-48615476D01*
X164014285Y-48663095D01*
X163823809Y-48710714D01*
X163680952Y-48710714D01*
X163490476Y-48663095D01*
X163395238Y-48615476D01*
X163300000Y-48520238D01*
X163252380Y-48377380D01*
X163252380Y-48282142D01*
X163300000Y-48139285D01*
X163347619Y-48091666D01*
X163585714Y-47234523D02*
X164252380Y-47234523D01*
X163204761Y-47472619D02*
X163919047Y-47710714D01*
X163919047Y-47091666D01*
G04 #@! TO.C,C5*
X165307142Y-48066666D02*
X165354761Y-48114285D01*
X165402380Y-48257142D01*
X165402380Y-48352380D01*
X165354761Y-48495238D01*
X165259523Y-48590476D01*
X165164285Y-48638095D01*
X164973809Y-48685714D01*
X164830952Y-48685714D01*
X164640476Y-48638095D01*
X164545238Y-48590476D01*
X164450000Y-48495238D01*
X164402380Y-48352380D01*
X164402380Y-48257142D01*
X164450000Y-48114285D01*
X164497619Y-48066666D01*
X164402380Y-47161904D02*
X164402380Y-47638095D01*
X164878571Y-47685714D01*
X164830952Y-47638095D01*
X164783333Y-47542857D01*
X164783333Y-47304761D01*
X164830952Y-47209523D01*
X164878571Y-47161904D01*
X164973809Y-47114285D01*
X165211904Y-47114285D01*
X165307142Y-47161904D01*
X165354761Y-47209523D01*
X165402380Y-47304761D01*
X165402380Y-47542857D01*
X165354761Y-47638095D01*
X165307142Y-47685714D01*
G04 #@! TO.C,C6*
X154557142Y-40166666D02*
X154604761Y-40214285D01*
X154652380Y-40357142D01*
X154652380Y-40452380D01*
X154604761Y-40595238D01*
X154509523Y-40690476D01*
X154414285Y-40738095D01*
X154223809Y-40785714D01*
X154080952Y-40785714D01*
X153890476Y-40738095D01*
X153795238Y-40690476D01*
X153700000Y-40595238D01*
X153652380Y-40452380D01*
X153652380Y-40357142D01*
X153700000Y-40214285D01*
X153747619Y-40166666D01*
X153652380Y-39309523D02*
X153652380Y-39500000D01*
X153700000Y-39595238D01*
X153747619Y-39642857D01*
X153890476Y-39738095D01*
X154080952Y-39785714D01*
X154461904Y-39785714D01*
X154557142Y-39738095D01*
X154604761Y-39690476D01*
X154652380Y-39595238D01*
X154652380Y-39404761D01*
X154604761Y-39309523D01*
X154557142Y-39261904D01*
X154461904Y-39214285D01*
X154223809Y-39214285D01*
X154128571Y-39261904D01*
X154080952Y-39309523D01*
X154033333Y-39404761D01*
X154033333Y-39595238D01*
X154080952Y-39690476D01*
X154128571Y-39738095D01*
X154223809Y-39785714D01*
G04 #@! TO.C,C7*
X154557142Y-45766666D02*
X154604761Y-45814285D01*
X154652380Y-45957142D01*
X154652380Y-46052380D01*
X154604761Y-46195238D01*
X154509523Y-46290476D01*
X154414285Y-46338095D01*
X154223809Y-46385714D01*
X154080952Y-46385714D01*
X153890476Y-46338095D01*
X153795238Y-46290476D01*
X153700000Y-46195238D01*
X153652380Y-46052380D01*
X153652380Y-45957142D01*
X153700000Y-45814285D01*
X153747619Y-45766666D01*
X153652380Y-45433333D02*
X153652380Y-44766666D01*
X154652380Y-45195238D01*
G04 #@! TO.C,C8*
X164189907Y-44999869D02*
X164142288Y-45047488D01*
X163999431Y-45095107D01*
X163904193Y-45095107D01*
X163761335Y-45047488D01*
X163666097Y-44952250D01*
X163618478Y-44857012D01*
X163570859Y-44666536D01*
X163570859Y-44523679D01*
X163618478Y-44333203D01*
X163666097Y-44237965D01*
X163761335Y-44142727D01*
X163904193Y-44095107D01*
X163999431Y-44095107D01*
X164142288Y-44142727D01*
X164189907Y-44190346D01*
X164761335Y-44523679D02*
X164666097Y-44476060D01*
X164618478Y-44428441D01*
X164570859Y-44333203D01*
X164570859Y-44285584D01*
X164618478Y-44190346D01*
X164666097Y-44142727D01*
X164761335Y-44095107D01*
X164951812Y-44095107D01*
X165047050Y-44142727D01*
X165094669Y-44190346D01*
X165142288Y-44285584D01*
X165142288Y-44333203D01*
X165094669Y-44428441D01*
X165047050Y-44476060D01*
X164951812Y-44523679D01*
X164761335Y-44523679D01*
X164666097Y-44571298D01*
X164618478Y-44618917D01*
X164570859Y-44714155D01*
X164570859Y-44904631D01*
X164618478Y-44999869D01*
X164666097Y-45047488D01*
X164761335Y-45095107D01*
X164951812Y-45095107D01*
X165047050Y-45047488D01*
X165094669Y-44999869D01*
X165142288Y-44904631D01*
X165142288Y-44714155D01*
X165094669Y-44618917D01*
X165047050Y-44571298D01*
X164951812Y-44523679D01*
G04 #@! TO.C,R1*
X146858333Y-56002380D02*
X146525000Y-55526190D01*
X146286904Y-56002380D02*
X146286904Y-55002380D01*
X146667857Y-55002380D01*
X146763095Y-55050000D01*
X146810714Y-55097619D01*
X146858333Y-55192857D01*
X146858333Y-55335714D01*
X146810714Y-55430952D01*
X146763095Y-55478571D01*
X146667857Y-55526190D01*
X146286904Y-55526190D01*
X147810714Y-56002380D02*
X147239285Y-56002380D01*
X147525000Y-56002380D02*
X147525000Y-55002380D01*
X147429761Y-55145238D01*
X147334523Y-55240476D01*
X147239285Y-55288095D01*
G04 #@! TO.C,R4*
X175218333Y-40452380D02*
X174885000Y-39976190D01*
X174646904Y-40452380D02*
X174646904Y-39452380D01*
X175027857Y-39452380D01*
X175123095Y-39500000D01*
X175170714Y-39547619D01*
X175218333Y-39642857D01*
X175218333Y-39785714D01*
X175170714Y-39880952D01*
X175123095Y-39928571D01*
X175027857Y-39976190D01*
X174646904Y-39976190D01*
X176075476Y-39785714D02*
X176075476Y-40452380D01*
X175837380Y-39404761D02*
X175599285Y-40119047D01*
X176218333Y-40119047D01*
G04 #@! TO.C,K1_1*
X116546511Y-57761130D02*
X116546511Y-56761130D01*
X117117940Y-57761130D02*
X116689369Y-57189702D01*
X117117940Y-56761130D02*
X116546511Y-57332559D01*
X118070321Y-57761130D02*
X117498892Y-57761130D01*
X117784607Y-57761130D02*
X117784607Y-56761130D01*
X117689369Y-56903988D01*
X117594130Y-56999226D01*
X117498892Y-57046845D01*
X118260797Y-57856369D02*
X119022702Y-57856369D01*
X119784607Y-57761130D02*
X119213178Y-57761130D01*
X119498892Y-57761130D02*
X119498892Y-56761130D01*
X119403654Y-56903988D01*
X119308416Y-56999226D01*
X119213178Y-57046845D01*
G04 #@! TO.C,K1_2*
X135596511Y-57761130D02*
X135596511Y-56761130D01*
X136167940Y-57761130D02*
X135739369Y-57189702D01*
X136167940Y-56761130D02*
X135596511Y-57332559D01*
X137120321Y-57761130D02*
X136548892Y-57761130D01*
X136834607Y-57761130D02*
X136834607Y-56761130D01*
X136739369Y-56903988D01*
X136644130Y-56999226D01*
X136548892Y-57046845D01*
X137310797Y-57856369D02*
X138072702Y-57856369D01*
X138263178Y-56856369D02*
X138310797Y-56808750D01*
X138406035Y-56761130D01*
X138644130Y-56761130D01*
X138739369Y-56808750D01*
X138786988Y-56856369D01*
X138834607Y-56951607D01*
X138834607Y-57046845D01*
X138786988Y-57189702D01*
X138215559Y-57761130D01*
X138834607Y-57761130D01*
G04 #@! TO.C,K1_3*
X154646511Y-57761130D02*
X154646511Y-56761130D01*
X155217940Y-57761130D02*
X154789369Y-57189702D01*
X155217940Y-56761130D02*
X154646511Y-57332559D01*
X156170321Y-57761130D02*
X155598892Y-57761130D01*
X155884607Y-57761130D02*
X155884607Y-56761130D01*
X155789369Y-56903988D01*
X155694130Y-56999226D01*
X155598892Y-57046845D01*
X156360797Y-57856369D02*
X157122702Y-57856369D01*
X157265559Y-56761130D02*
X157884607Y-56761130D01*
X157551273Y-57142083D01*
X157694130Y-57142083D01*
X157789369Y-57189702D01*
X157836988Y-57237321D01*
X157884607Y-57332559D01*
X157884607Y-57570654D01*
X157836988Y-57665892D01*
X157789369Y-57713511D01*
X157694130Y-57761130D01*
X157408416Y-57761130D01*
X157313178Y-57713511D01*
X157265559Y-57665892D01*
G04 #@! TO.C,K1_4*
X173696511Y-57761130D02*
X173696511Y-56761130D01*
X174267940Y-57761130D02*
X173839369Y-57189702D01*
X174267940Y-56761130D02*
X173696511Y-57332559D01*
X175220321Y-57761130D02*
X174648892Y-57761130D01*
X174934607Y-57761130D02*
X174934607Y-56761130D01*
X174839369Y-56903988D01*
X174744130Y-56999226D01*
X174648892Y-57046845D01*
X175410797Y-57856369D02*
X176172702Y-57856369D01*
X176839369Y-57094464D02*
X176839369Y-57761130D01*
X176601273Y-56713511D02*
X176363178Y-57427797D01*
X176982226Y-57427797D01*
G04 #@! TO.C,K2_1*
X116546511Y-76811130D02*
X116546511Y-75811130D01*
X117117940Y-76811130D02*
X116689369Y-76239702D01*
X117117940Y-75811130D02*
X116546511Y-76382559D01*
X117498892Y-75906369D02*
X117546511Y-75858750D01*
X117641750Y-75811130D01*
X117879845Y-75811130D01*
X117975083Y-75858750D01*
X118022702Y-75906369D01*
X118070321Y-76001607D01*
X118070321Y-76096845D01*
X118022702Y-76239702D01*
X117451273Y-76811130D01*
X118070321Y-76811130D01*
X118260797Y-76906369D02*
X119022702Y-76906369D01*
X119784607Y-76811130D02*
X119213178Y-76811130D01*
X119498892Y-76811130D02*
X119498892Y-75811130D01*
X119403654Y-75953988D01*
X119308416Y-76049226D01*
X119213178Y-76096845D01*
G04 #@! TO.C,K2_2*
X135596511Y-76811130D02*
X135596511Y-75811130D01*
X136167940Y-76811130D02*
X135739369Y-76239702D01*
X136167940Y-75811130D02*
X135596511Y-76382559D01*
X136548892Y-75906369D02*
X136596511Y-75858750D01*
X136691750Y-75811130D01*
X136929845Y-75811130D01*
X137025083Y-75858750D01*
X137072702Y-75906369D01*
X137120321Y-76001607D01*
X137120321Y-76096845D01*
X137072702Y-76239702D01*
X136501273Y-76811130D01*
X137120321Y-76811130D01*
X137310797Y-76906369D02*
X138072702Y-76906369D01*
X138263178Y-75906369D02*
X138310797Y-75858750D01*
X138406035Y-75811130D01*
X138644130Y-75811130D01*
X138739369Y-75858750D01*
X138786988Y-75906369D01*
X138834607Y-76001607D01*
X138834607Y-76096845D01*
X138786988Y-76239702D01*
X138215559Y-76811130D01*
X138834607Y-76811130D01*
G04 #@! TO.C,K2_3*
X154646511Y-76811130D02*
X154646511Y-75811130D01*
X155217940Y-76811130D02*
X154789369Y-76239702D01*
X155217940Y-75811130D02*
X154646511Y-76382559D01*
X155598892Y-75906369D02*
X155646511Y-75858750D01*
X155741750Y-75811130D01*
X155979845Y-75811130D01*
X156075083Y-75858750D01*
X156122702Y-75906369D01*
X156170321Y-76001607D01*
X156170321Y-76096845D01*
X156122702Y-76239702D01*
X155551273Y-76811130D01*
X156170321Y-76811130D01*
X156360797Y-76906369D02*
X157122702Y-76906369D01*
X157265559Y-75811130D02*
X157884607Y-75811130D01*
X157551273Y-76192083D01*
X157694130Y-76192083D01*
X157789369Y-76239702D01*
X157836988Y-76287321D01*
X157884607Y-76382559D01*
X157884607Y-76620654D01*
X157836988Y-76715892D01*
X157789369Y-76763511D01*
X157694130Y-76811130D01*
X157408416Y-76811130D01*
X157313178Y-76763511D01*
X157265559Y-76715892D01*
G04 #@! TO.C,K2_4*
X173696511Y-76811130D02*
X173696511Y-75811130D01*
X174267940Y-76811130D02*
X173839369Y-76239702D01*
X174267940Y-75811130D02*
X173696511Y-76382559D01*
X174648892Y-75906369D02*
X174696511Y-75858750D01*
X174791750Y-75811130D01*
X175029845Y-75811130D01*
X175125083Y-75858750D01*
X175172702Y-75906369D01*
X175220321Y-76001607D01*
X175220321Y-76096845D01*
X175172702Y-76239702D01*
X174601273Y-76811130D01*
X175220321Y-76811130D01*
X175410797Y-76906369D02*
X176172702Y-76906369D01*
X176839369Y-76144464D02*
X176839369Y-76811130D01*
X176601273Y-75763511D02*
X176363178Y-76477797D01*
X176982226Y-76477797D01*
G04 #@! TO.C,K3_1*
X116546511Y-95861130D02*
X116546511Y-94861130D01*
X117117940Y-95861130D02*
X116689369Y-95289702D01*
X117117940Y-94861130D02*
X116546511Y-95432559D01*
X117451273Y-94861130D02*
X118070321Y-94861130D01*
X117736988Y-95242083D01*
X117879845Y-95242083D01*
X117975083Y-95289702D01*
X118022702Y-95337321D01*
X118070321Y-95432559D01*
X118070321Y-95670654D01*
X118022702Y-95765892D01*
X117975083Y-95813511D01*
X117879845Y-95861130D01*
X117594130Y-95861130D01*
X117498892Y-95813511D01*
X117451273Y-95765892D01*
X118260797Y-95956369D02*
X119022702Y-95956369D01*
X119784607Y-95861130D02*
X119213178Y-95861130D01*
X119498892Y-95861130D02*
X119498892Y-94861130D01*
X119403654Y-95003988D01*
X119308416Y-95099226D01*
X119213178Y-95146845D01*
G04 #@! TO.C,K3_2*
X135596511Y-95861130D02*
X135596511Y-94861130D01*
X136167940Y-95861130D02*
X135739369Y-95289702D01*
X136167940Y-94861130D02*
X135596511Y-95432559D01*
X136501273Y-94861130D02*
X137120321Y-94861130D01*
X136786988Y-95242083D01*
X136929845Y-95242083D01*
X137025083Y-95289702D01*
X137072702Y-95337321D01*
X137120321Y-95432559D01*
X137120321Y-95670654D01*
X137072702Y-95765892D01*
X137025083Y-95813511D01*
X136929845Y-95861130D01*
X136644130Y-95861130D01*
X136548892Y-95813511D01*
X136501273Y-95765892D01*
X137310797Y-95956369D02*
X138072702Y-95956369D01*
X138263178Y-94956369D02*
X138310797Y-94908750D01*
X138406035Y-94861130D01*
X138644130Y-94861130D01*
X138739369Y-94908750D01*
X138786988Y-94956369D01*
X138834607Y-95051607D01*
X138834607Y-95146845D01*
X138786988Y-95289702D01*
X138215559Y-95861130D01*
X138834607Y-95861130D01*
G04 #@! TO.C,K3_3*
X154646511Y-95861130D02*
X154646511Y-94861130D01*
X155217940Y-95861130D02*
X154789369Y-95289702D01*
X155217940Y-94861130D02*
X154646511Y-95432559D01*
X155551273Y-94861130D02*
X156170321Y-94861130D01*
X155836988Y-95242083D01*
X155979845Y-95242083D01*
X156075083Y-95289702D01*
X156122702Y-95337321D01*
X156170321Y-95432559D01*
X156170321Y-95670654D01*
X156122702Y-95765892D01*
X156075083Y-95813511D01*
X155979845Y-95861130D01*
X155694130Y-95861130D01*
X155598892Y-95813511D01*
X155551273Y-95765892D01*
X156360797Y-95956369D02*
X157122702Y-95956369D01*
X157265559Y-94861130D02*
X157884607Y-94861130D01*
X157551273Y-95242083D01*
X157694130Y-95242083D01*
X157789369Y-95289702D01*
X157836988Y-95337321D01*
X157884607Y-95432559D01*
X157884607Y-95670654D01*
X157836988Y-95765892D01*
X157789369Y-95813511D01*
X157694130Y-95861130D01*
X157408416Y-95861130D01*
X157313178Y-95813511D01*
X157265559Y-95765892D01*
G04 #@! TO.C,K3_4*
X173696511Y-95861130D02*
X173696511Y-94861130D01*
X174267940Y-95861130D02*
X173839369Y-95289702D01*
X174267940Y-94861130D02*
X173696511Y-95432559D01*
X174601273Y-94861130D02*
X175220321Y-94861130D01*
X174886988Y-95242083D01*
X175029845Y-95242083D01*
X175125083Y-95289702D01*
X175172702Y-95337321D01*
X175220321Y-95432559D01*
X175220321Y-95670654D01*
X175172702Y-95765892D01*
X175125083Y-95813511D01*
X175029845Y-95861130D01*
X174744130Y-95861130D01*
X174648892Y-95813511D01*
X174601273Y-95765892D01*
X175410797Y-95956369D02*
X176172702Y-95956369D01*
X176839369Y-95194464D02*
X176839369Y-95861130D01*
X176601273Y-94813511D02*
X176363178Y-95527797D01*
X176982226Y-95527797D01*
G04 #@! TO.C,K4_1*
X116546511Y-114911130D02*
X116546511Y-113911130D01*
X117117940Y-114911130D02*
X116689369Y-114339702D01*
X117117940Y-113911130D02*
X116546511Y-114482559D01*
X117975083Y-114244464D02*
X117975083Y-114911130D01*
X117736988Y-113863511D02*
X117498892Y-114577797D01*
X118117940Y-114577797D01*
X118260797Y-115006369D02*
X119022702Y-115006369D01*
X119784607Y-114911130D02*
X119213178Y-114911130D01*
X119498892Y-114911130D02*
X119498892Y-113911130D01*
X119403654Y-114053988D01*
X119308416Y-114149226D01*
X119213178Y-114196845D01*
G04 #@! TO.C,K4_2*
X135596511Y-114911130D02*
X135596511Y-113911130D01*
X136167940Y-114911130D02*
X135739369Y-114339702D01*
X136167940Y-113911130D02*
X135596511Y-114482559D01*
X137025083Y-114244464D02*
X137025083Y-114911130D01*
X136786988Y-113863511D02*
X136548892Y-114577797D01*
X137167940Y-114577797D01*
X137310797Y-115006369D02*
X138072702Y-115006369D01*
X138263178Y-114006369D02*
X138310797Y-113958750D01*
X138406035Y-113911130D01*
X138644130Y-113911130D01*
X138739369Y-113958750D01*
X138786988Y-114006369D01*
X138834607Y-114101607D01*
X138834607Y-114196845D01*
X138786988Y-114339702D01*
X138215559Y-114911130D01*
X138834607Y-114911130D01*
G04 #@! TO.C,K4_3*
X154646511Y-114911130D02*
X154646511Y-113911130D01*
X155217940Y-114911130D02*
X154789369Y-114339702D01*
X155217940Y-113911130D02*
X154646511Y-114482559D01*
X156075083Y-114244464D02*
X156075083Y-114911130D01*
X155836988Y-113863511D02*
X155598892Y-114577797D01*
X156217940Y-114577797D01*
X156360797Y-115006369D02*
X157122702Y-115006369D01*
X157265559Y-113911130D02*
X157884607Y-113911130D01*
X157551273Y-114292083D01*
X157694130Y-114292083D01*
X157789369Y-114339702D01*
X157836988Y-114387321D01*
X157884607Y-114482559D01*
X157884607Y-114720654D01*
X157836988Y-114815892D01*
X157789369Y-114863511D01*
X157694130Y-114911130D01*
X157408416Y-114911130D01*
X157313178Y-114863511D01*
X157265559Y-114815892D01*
G04 #@! TO.C,K5_1*
X116546511Y-133961130D02*
X116546511Y-132961130D01*
X117117940Y-133961130D02*
X116689369Y-133389702D01*
X117117940Y-132961130D02*
X116546511Y-133532559D01*
X118022702Y-132961130D02*
X117546511Y-132961130D01*
X117498892Y-133437321D01*
X117546511Y-133389702D01*
X117641750Y-133342083D01*
X117879845Y-133342083D01*
X117975083Y-133389702D01*
X118022702Y-133437321D01*
X118070321Y-133532559D01*
X118070321Y-133770654D01*
X118022702Y-133865892D01*
X117975083Y-133913511D01*
X117879845Y-133961130D01*
X117641750Y-133961130D01*
X117546511Y-133913511D01*
X117498892Y-133865892D01*
X118260797Y-134056369D02*
X119022702Y-134056369D01*
X119784607Y-133961130D02*
X119213178Y-133961130D01*
X119498892Y-133961130D02*
X119498892Y-132961130D01*
X119403654Y-133103988D01*
X119308416Y-133199226D01*
X119213178Y-133246845D01*
G04 #@! TO.C,K5_2*
X135596511Y-133961130D02*
X135596511Y-132961130D01*
X136167940Y-133961130D02*
X135739369Y-133389702D01*
X136167940Y-132961130D02*
X135596511Y-133532559D01*
X137072702Y-132961130D02*
X136596511Y-132961130D01*
X136548892Y-133437321D01*
X136596511Y-133389702D01*
X136691750Y-133342083D01*
X136929845Y-133342083D01*
X137025083Y-133389702D01*
X137072702Y-133437321D01*
X137120321Y-133532559D01*
X137120321Y-133770654D01*
X137072702Y-133865892D01*
X137025083Y-133913511D01*
X136929845Y-133961130D01*
X136691750Y-133961130D01*
X136596511Y-133913511D01*
X136548892Y-133865892D01*
X137310797Y-134056369D02*
X138072702Y-134056369D01*
X138263178Y-133056369D02*
X138310797Y-133008750D01*
X138406035Y-132961130D01*
X138644130Y-132961130D01*
X138739369Y-133008750D01*
X138786988Y-133056369D01*
X138834607Y-133151607D01*
X138834607Y-133246845D01*
X138786988Y-133389702D01*
X138215559Y-133961130D01*
X138834607Y-133961130D01*
G04 #@! TO.C,K5_3*
X154646511Y-133961130D02*
X154646511Y-132961130D01*
X155217940Y-133961130D02*
X154789369Y-133389702D01*
X155217940Y-132961130D02*
X154646511Y-133532559D01*
X156122702Y-132961130D02*
X155646511Y-132961130D01*
X155598892Y-133437321D01*
X155646511Y-133389702D01*
X155741750Y-133342083D01*
X155979845Y-133342083D01*
X156075083Y-133389702D01*
X156122702Y-133437321D01*
X156170321Y-133532559D01*
X156170321Y-133770654D01*
X156122702Y-133865892D01*
X156075083Y-133913511D01*
X155979845Y-133961130D01*
X155741750Y-133961130D01*
X155646511Y-133913511D01*
X155598892Y-133865892D01*
X156360797Y-134056369D02*
X157122702Y-134056369D01*
X157265559Y-132961130D02*
X157884607Y-132961130D01*
X157551273Y-133342083D01*
X157694130Y-133342083D01*
X157789369Y-133389702D01*
X157836988Y-133437321D01*
X157884607Y-133532559D01*
X157884607Y-133770654D01*
X157836988Y-133865892D01*
X157789369Y-133913511D01*
X157694130Y-133961130D01*
X157408416Y-133961130D01*
X157313178Y-133913511D01*
X157265559Y-133865892D01*
G04 #@! TO.C,K4_4*
X183620130Y-133453988D02*
X182620130Y-133453988D01*
X183620130Y-132882559D02*
X183048702Y-133311130D01*
X182620130Y-132882559D02*
X183191559Y-133453988D01*
X182953464Y-132025416D02*
X183620130Y-132025416D01*
X182572511Y-132263511D02*
X183286797Y-132501607D01*
X183286797Y-131882559D01*
X183715369Y-131739702D02*
X183715369Y-130977797D01*
X182953464Y-130311130D02*
X183620130Y-130311130D01*
X182572511Y-130549226D02*
X183286797Y-130787321D01*
X183286797Y-130168273D01*
G04 #@! TO.C,C9*
X154557142Y-55866666D02*
X154604761Y-55914285D01*
X154652380Y-56057142D01*
X154652380Y-56152380D01*
X154604761Y-56295238D01*
X154509523Y-56390476D01*
X154414285Y-56438095D01*
X154223809Y-56485714D01*
X154080952Y-56485714D01*
X153890476Y-56438095D01*
X153795238Y-56390476D01*
X153700000Y-56295238D01*
X153652380Y-56152380D01*
X153652380Y-56057142D01*
X153700000Y-55914285D01*
X153747619Y-55866666D01*
X154652380Y-55390476D02*
X154652380Y-55200000D01*
X154604761Y-55104761D01*
X154557142Y-55057142D01*
X154414285Y-54961904D01*
X154223809Y-54914285D01*
X153842857Y-54914285D01*
X153747619Y-54961904D01*
X153700000Y-55009523D01*
X153652380Y-55104761D01*
X153652380Y-55295238D01*
X153700000Y-55390476D01*
X153747619Y-55438095D01*
X153842857Y-55485714D01*
X154080952Y-55485714D01*
X154176190Y-55438095D01*
X154223809Y-55390476D01*
X154271428Y-55295238D01*
X154271428Y-55104761D01*
X154223809Y-55009523D01*
X154176190Y-54961904D01*
X154080952Y-54914285D01*
G04 #@! TO.C,C10*
X164082142Y-53442857D02*
X164129761Y-53490476D01*
X164177380Y-53633333D01*
X164177380Y-53728571D01*
X164129761Y-53871428D01*
X164034523Y-53966666D01*
X163939285Y-54014285D01*
X163748809Y-54061904D01*
X163605952Y-54061904D01*
X163415476Y-54014285D01*
X163320238Y-53966666D01*
X163225000Y-53871428D01*
X163177380Y-53728571D01*
X163177380Y-53633333D01*
X163225000Y-53490476D01*
X163272619Y-53442857D01*
X164177380Y-52490476D02*
X164177380Y-53061904D01*
X164177380Y-52776190D02*
X163177380Y-52776190D01*
X163320238Y-52871428D01*
X163415476Y-52966666D01*
X163463095Y-53061904D01*
X163177380Y-51871428D02*
X163177380Y-51776190D01*
X163225000Y-51680952D01*
X163272619Y-51633333D01*
X163367857Y-51585714D01*
X163558333Y-51538095D01*
X163796428Y-51538095D01*
X163986904Y-51585714D01*
X164082142Y-51633333D01*
X164129761Y-51680952D01*
X164177380Y-51776190D01*
X164177380Y-51871428D01*
X164129761Y-51966666D01*
X164082142Y-52014285D01*
X163986904Y-52061904D01*
X163796428Y-52109523D01*
X163558333Y-52109523D01*
X163367857Y-52061904D01*
X163272619Y-52014285D01*
X163225000Y-51966666D01*
X163177380Y-51871428D01*
G04 #@! TO.C,R5*
X167752380Y-52991666D02*
X167276190Y-53325000D01*
X167752380Y-53563095D02*
X166752380Y-53563095D01*
X166752380Y-53182142D01*
X166800000Y-53086904D01*
X166847619Y-53039285D01*
X166942857Y-52991666D01*
X167085714Y-52991666D01*
X167180952Y-53039285D01*
X167228571Y-53086904D01*
X167276190Y-53182142D01*
X167276190Y-53563095D01*
X166752380Y-52086904D02*
X166752380Y-52563095D01*
X167228571Y-52610714D01*
X167180952Y-52563095D01*
X167133333Y-52467857D01*
X167133333Y-52229761D01*
X167180952Y-52134523D01*
X167228571Y-52086904D01*
X167323809Y-52039285D01*
X167561904Y-52039285D01*
X167657142Y-52086904D01*
X167704761Y-52134523D01*
X167752380Y-52229761D01*
X167752380Y-52467857D01*
X167704761Y-52563095D01*
X167657142Y-52610714D01*
G04 #@! TO.C,U1*
X172613095Y-45552380D02*
X172613095Y-46361904D01*
X172660714Y-46457142D01*
X172708333Y-46504761D01*
X172803571Y-46552380D01*
X172994047Y-46552380D01*
X173089285Y-46504761D01*
X173136904Y-46457142D01*
X173184523Y-46361904D01*
X173184523Y-45552380D01*
X174184523Y-46552380D02*
X173613095Y-46552380D01*
X173898809Y-46552380D02*
X173898809Y-45552380D01*
X173803571Y-45695238D01*
X173708333Y-45790476D01*
X173613095Y-45838095D01*
G04 #@! TO.C,D1*
X151352380Y-56438095D02*
X150352380Y-56438095D01*
X150352380Y-56200000D01*
X150400000Y-56057142D01*
X150495238Y-55961904D01*
X150590476Y-55914285D01*
X150780952Y-55866666D01*
X150923809Y-55866666D01*
X151114285Y-55914285D01*
X151209523Y-55961904D01*
X151304761Y-56057142D01*
X151352380Y-56200000D01*
X151352380Y-56438095D01*
X151352380Y-54914285D02*
X151352380Y-55485714D01*
X151352380Y-55200000D02*
X150352380Y-55200000D01*
X150495238Y-55295238D01*
X150590476Y-55390476D01*
X150638095Y-55485714D01*
G04 #@! TO.C,R10*
X146357142Y-48152380D02*
X146023809Y-47676190D01*
X145785714Y-48152380D02*
X145785714Y-47152380D01*
X146166666Y-47152380D01*
X146261904Y-47200000D01*
X146309523Y-47247619D01*
X146357142Y-47342857D01*
X146357142Y-47485714D01*
X146309523Y-47580952D01*
X146261904Y-47628571D01*
X146166666Y-47676190D01*
X145785714Y-47676190D01*
X147309523Y-48152380D02*
X146738095Y-48152380D01*
X147023809Y-48152380D02*
X147023809Y-47152380D01*
X146928571Y-47295238D01*
X146833333Y-47390476D01*
X146738095Y-47438095D01*
X147928571Y-47152380D02*
X148023809Y-47152380D01*
X148119047Y-47200000D01*
X148166666Y-47247619D01*
X148214285Y-47342857D01*
X148261904Y-47533333D01*
X148261904Y-47771428D01*
X148214285Y-47961904D01*
X148166666Y-48057142D01*
X148119047Y-48104761D01*
X148023809Y-48152380D01*
X147928571Y-48152380D01*
X147833333Y-48104761D01*
X147785714Y-48057142D01*
X147738095Y-47961904D01*
X147690476Y-47771428D01*
X147690476Y-47533333D01*
X147738095Y-47342857D01*
X147785714Y-47247619D01*
X147833333Y-47200000D01*
X147928571Y-47152380D01*
G04 #@! TO.C,R11*
X142857142Y-52002380D02*
X142523809Y-51526190D01*
X142285714Y-52002380D02*
X142285714Y-51002380D01*
X142666666Y-51002380D01*
X142761904Y-51050000D01*
X142809523Y-51097619D01*
X142857142Y-51192857D01*
X142857142Y-51335714D01*
X142809523Y-51430952D01*
X142761904Y-51478571D01*
X142666666Y-51526190D01*
X142285714Y-51526190D01*
X143809523Y-52002380D02*
X143238095Y-52002380D01*
X143523809Y-52002380D02*
X143523809Y-51002380D01*
X143428571Y-51145238D01*
X143333333Y-51240476D01*
X143238095Y-51288095D01*
X144761904Y-52002380D02*
X144190476Y-52002380D01*
X144476190Y-52002380D02*
X144476190Y-51002380D01*
X144380952Y-51145238D01*
X144285714Y-51240476D01*
X144190476Y-51288095D01*
G04 #@! TO.C,U2*
X157463096Y-49177381D02*
X157463096Y-49986905D01*
X157510715Y-50082143D01*
X157558334Y-50129762D01*
X157653572Y-50177381D01*
X157844048Y-50177381D01*
X157939286Y-50129762D01*
X157986905Y-50082143D01*
X158034524Y-49986905D01*
X158034524Y-49177381D01*
X158463096Y-49272620D02*
X158510715Y-49225001D01*
X158605953Y-49177381D01*
X158844048Y-49177381D01*
X158939286Y-49225001D01*
X158986905Y-49272620D01*
X159034524Y-49367858D01*
X159034524Y-49463096D01*
X158986905Y-49605953D01*
X158415477Y-50177381D01*
X159034524Y-50177381D01*
G04 #@! TO.C,Y1*
X160876190Y-46051190D02*
X161352380Y-46051190D01*
X160352380Y-46384523D02*
X160876190Y-46051190D01*
X160352380Y-45717857D01*
X161352380Y-44860714D02*
X161352380Y-45432142D01*
X161352380Y-45146428D02*
X160352380Y-45146428D01*
X160495238Y-45241666D01*
X160590476Y-45336904D01*
X160638095Y-45432142D01*
G04 #@! TO.C,J3*
X136266666Y-34152380D02*
X136266666Y-34866666D01*
X136219047Y-35009523D01*
X136123809Y-35104761D01*
X135980952Y-35152380D01*
X135885714Y-35152380D01*
X136647619Y-34152380D02*
X137266666Y-34152380D01*
X136933333Y-34533333D01*
X137076190Y-34533333D01*
X137171428Y-34580952D01*
X137219047Y-34628571D01*
X137266666Y-34723809D01*
X137266666Y-34961904D01*
X137219047Y-35057142D01*
X137171428Y-35104761D01*
X137076190Y-35152380D01*
X136790476Y-35152380D01*
X136695238Y-35104761D01*
X136647619Y-35057142D01*
G04 #@! TO.C,J1*
X151066666Y-40092380D02*
X151066666Y-40806666D01*
X151019047Y-40949523D01*
X150923809Y-41044761D01*
X150780952Y-41092380D01*
X150685714Y-41092380D01*
X152066666Y-41092380D02*
X151495238Y-41092380D01*
X151780952Y-41092380D02*
X151780952Y-40092380D01*
X151685714Y-40235238D01*
X151590476Y-40330476D01*
X151495238Y-40378095D01*
G04 #@! TO.C,REF\002A\002A*
X126366666Y-62552380D02*
X126033333Y-62076190D01*
X125795238Y-62552380D02*
X125795238Y-61552380D01*
X126176190Y-61552380D01*
X126271428Y-61600000D01*
X126319047Y-61647619D01*
X126366666Y-61742857D01*
X126366666Y-61885714D01*
X126319047Y-61980952D01*
X126271428Y-62028571D01*
X126176190Y-62076190D01*
X125795238Y-62076190D01*
X126795238Y-62028571D02*
X127128571Y-62028571D01*
X127271428Y-62552380D02*
X126795238Y-62552380D01*
X126795238Y-61552380D01*
X127271428Y-61552380D01*
X128033333Y-62028571D02*
X127700000Y-62028571D01*
X127700000Y-62552380D02*
X127700000Y-61552380D01*
X128176190Y-61552380D01*
X128700000Y-61552380D02*
X128700000Y-61790476D01*
X128461904Y-61695238D02*
X128700000Y-61790476D01*
X128938095Y-61695238D01*
X128557142Y-61980952D02*
X128700000Y-61790476D01*
X128842857Y-61980952D01*
X129461904Y-61552380D02*
X129461904Y-61790476D01*
X129223809Y-61695238D02*
X129461904Y-61790476D01*
X129700000Y-61695238D01*
X129319047Y-61980952D02*
X129461904Y-61790476D01*
X129604761Y-61980952D01*
X164466666Y-56352380D02*
X164133333Y-55876190D01*
X163895238Y-56352380D02*
X163895238Y-55352380D01*
X164276190Y-55352380D01*
X164371428Y-55400000D01*
X164419047Y-55447619D01*
X164466666Y-55542857D01*
X164466666Y-55685714D01*
X164419047Y-55780952D01*
X164371428Y-55828571D01*
X164276190Y-55876190D01*
X163895238Y-55876190D01*
X164895238Y-55828571D02*
X165228571Y-55828571D01*
X165371428Y-56352380D02*
X164895238Y-56352380D01*
X164895238Y-55352380D01*
X165371428Y-55352380D01*
X166133333Y-55828571D02*
X165800000Y-55828571D01*
X165800000Y-56352380D02*
X165800000Y-55352380D01*
X166276190Y-55352380D01*
X166800000Y-55352380D02*
X166800000Y-55590476D01*
X166561904Y-55495238D02*
X166800000Y-55590476D01*
X167038095Y-55495238D01*
X166657142Y-55780952D02*
X166800000Y-55590476D01*
X166942857Y-55780952D01*
X167561904Y-55352380D02*
X167561904Y-55590476D01*
X167323809Y-55495238D02*
X167561904Y-55590476D01*
X167800000Y-55495238D01*
X167419047Y-55780952D02*
X167561904Y-55590476D01*
X167704761Y-55780952D01*
X126366666Y-129352380D02*
X126033333Y-128876190D01*
X125795238Y-129352380D02*
X125795238Y-128352380D01*
X126176190Y-128352380D01*
X126271428Y-128400000D01*
X126319047Y-128447619D01*
X126366666Y-128542857D01*
X126366666Y-128685714D01*
X126319047Y-128780952D01*
X126271428Y-128828571D01*
X126176190Y-128876190D01*
X125795238Y-128876190D01*
X126795238Y-128828571D02*
X127128571Y-128828571D01*
X127271428Y-129352380D02*
X126795238Y-129352380D01*
X126795238Y-128352380D01*
X127271428Y-128352380D01*
X128033333Y-128828571D02*
X127700000Y-128828571D01*
X127700000Y-129352380D02*
X127700000Y-128352380D01*
X128176190Y-128352380D01*
X128700000Y-128352380D02*
X128700000Y-128590476D01*
X128461904Y-128495238D02*
X128700000Y-128590476D01*
X128938095Y-128495238D01*
X128557142Y-128780952D02*
X128700000Y-128590476D01*
X128842857Y-128780952D01*
X129461904Y-128352380D02*
X129461904Y-128590476D01*
X129223809Y-128495238D02*
X129461904Y-128590476D01*
X129700000Y-128495238D01*
X129319047Y-128780952D02*
X129461904Y-128590476D01*
X129604761Y-128780952D01*
X164466666Y-110252380D02*
X164133333Y-109776190D01*
X163895238Y-110252380D02*
X163895238Y-109252380D01*
X164276190Y-109252380D01*
X164371428Y-109300000D01*
X164419047Y-109347619D01*
X164466666Y-109442857D01*
X164466666Y-109585714D01*
X164419047Y-109680952D01*
X164371428Y-109728571D01*
X164276190Y-109776190D01*
X163895238Y-109776190D01*
X164895238Y-109728571D02*
X165228571Y-109728571D01*
X165371428Y-110252380D02*
X164895238Y-110252380D01*
X164895238Y-109252380D01*
X165371428Y-109252380D01*
X166133333Y-109728571D02*
X165800000Y-109728571D01*
X165800000Y-110252380D02*
X165800000Y-109252380D01*
X166276190Y-109252380D01*
X166800000Y-109252380D02*
X166800000Y-109490476D01*
X166561904Y-109395238D02*
X166800000Y-109490476D01*
X167038095Y-109395238D01*
X166657142Y-109680952D02*
X166800000Y-109490476D01*
X166942857Y-109680952D01*
X167561904Y-109252380D02*
X167561904Y-109490476D01*
X167323809Y-109395238D02*
X167561904Y-109490476D01*
X167800000Y-109395238D01*
X167419047Y-109680952D02*
X167561904Y-109490476D01*
X167704761Y-109680952D01*
X145366666Y-91352380D02*
X145033333Y-90876190D01*
X144795238Y-91352380D02*
X144795238Y-90352380D01*
X145176190Y-90352380D01*
X145271428Y-90400000D01*
X145319047Y-90447619D01*
X145366666Y-90542857D01*
X145366666Y-90685714D01*
X145319047Y-90780952D01*
X145271428Y-90828571D01*
X145176190Y-90876190D01*
X144795238Y-90876190D01*
X145795238Y-90828571D02*
X146128571Y-90828571D01*
X146271428Y-91352380D02*
X145795238Y-91352380D01*
X145795238Y-90352380D01*
X146271428Y-90352380D01*
X147033333Y-90828571D02*
X146700000Y-90828571D01*
X146700000Y-91352380D02*
X146700000Y-90352380D01*
X147176190Y-90352380D01*
X147700000Y-90352380D02*
X147700000Y-90590476D01*
X147461904Y-90495238D02*
X147700000Y-90590476D01*
X147938095Y-90495238D01*
X147557142Y-90780952D02*
X147700000Y-90590476D01*
X147842857Y-90780952D01*
X148461904Y-90352380D02*
X148461904Y-90590476D01*
X148223809Y-90495238D02*
X148461904Y-90590476D01*
X148700000Y-90495238D01*
X148319047Y-90780952D02*
X148461904Y-90590476D01*
X148604761Y-90780952D01*
G04 #@! TD*
M02*
