G04 #@! TF.GenerationSoftware,KiCad,Pcbnew,5.0.1*
G04 #@! TF.CreationDate,2019-01-11T20:34:33+01:00*
G04 #@! TF.ProjectId,keypad,6B65797061642E6B696361645F706362,rev?*
G04 #@! TF.SameCoordinates,Original*
G04 #@! TF.FileFunction,Paste,Bot*
G04 #@! TF.FilePolarity,Positive*
%FSLAX46Y46*%
G04 Gerber Fmt 4.6, Leading zero omitted, Abs format (unit mm)*
G04 Created by KiCad (PCBNEW 5.0.1) date Fri 11 Jan 2019 08:34:33 PM CET*
%MOMM*%
%LPD*%
G01*
G04 APERTURE LIST*
%ADD10R,1.400000X0.600000*%
%ADD11C,0.100000*%
%ADD12C,0.950000*%
%ADD13R,0.600000X1.400000*%
%ADD14R,1.400000X1.600000*%
%ADD15R,0.850000X1.600000*%
%ADD16R,1.600000X0.850000*%
G04 APERTURE END LIST*
D10*
G04 #@! TO.C,D_LED_1*
X120741750Y-69657750D03*
X120741750Y-70907750D03*
X115541750Y-70907750D03*
X115541750Y-69657750D03*
G04 #@! TD*
D11*
G04 #@! TO.C,D9*
G36*
X119276329Y-131344894D02*
X119299384Y-131348313D01*
X119321993Y-131353977D01*
X119343937Y-131361829D01*
X119365007Y-131371794D01*
X119384998Y-131383776D01*
X119403718Y-131397660D01*
X119420988Y-131413312D01*
X119436640Y-131430582D01*
X119450524Y-131449302D01*
X119462506Y-131469293D01*
X119472471Y-131490363D01*
X119480323Y-131512307D01*
X119485987Y-131534916D01*
X119489406Y-131557971D01*
X119490550Y-131581250D01*
X119490550Y-132056250D01*
X119489406Y-132079529D01*
X119485987Y-132102584D01*
X119480323Y-132125193D01*
X119472471Y-132147137D01*
X119462506Y-132168207D01*
X119450524Y-132188198D01*
X119436640Y-132206918D01*
X119420988Y-132224188D01*
X119403718Y-132239840D01*
X119384998Y-132253724D01*
X119365007Y-132265706D01*
X119343937Y-132275671D01*
X119321993Y-132283523D01*
X119299384Y-132289187D01*
X119276329Y-132292606D01*
X119253050Y-132293750D01*
X118678050Y-132293750D01*
X118654771Y-132292606D01*
X118631716Y-132289187D01*
X118609107Y-132283523D01*
X118587163Y-132275671D01*
X118566093Y-132265706D01*
X118546102Y-132253724D01*
X118527382Y-132239840D01*
X118510112Y-132224188D01*
X118494460Y-132206918D01*
X118480576Y-132188198D01*
X118468594Y-132168207D01*
X118458629Y-132147137D01*
X118450777Y-132125193D01*
X118445113Y-132102584D01*
X118441694Y-132079529D01*
X118440550Y-132056250D01*
X118440550Y-131581250D01*
X118441694Y-131557971D01*
X118445113Y-131534916D01*
X118450777Y-131512307D01*
X118458629Y-131490363D01*
X118468594Y-131469293D01*
X118480576Y-131449302D01*
X118494460Y-131430582D01*
X118510112Y-131413312D01*
X118527382Y-131397660D01*
X118546102Y-131383776D01*
X118566093Y-131371794D01*
X118587163Y-131361829D01*
X118609107Y-131353977D01*
X118631716Y-131348313D01*
X118654771Y-131344894D01*
X118678050Y-131343750D01*
X119253050Y-131343750D01*
X119276329Y-131344894D01*
X119276329Y-131344894D01*
G37*
D12*
X118965550Y-131818750D03*
D11*
G36*
X121026329Y-131344894D02*
X121049384Y-131348313D01*
X121071993Y-131353977D01*
X121093937Y-131361829D01*
X121115007Y-131371794D01*
X121134998Y-131383776D01*
X121153718Y-131397660D01*
X121170988Y-131413312D01*
X121186640Y-131430582D01*
X121200524Y-131449302D01*
X121212506Y-131469293D01*
X121222471Y-131490363D01*
X121230323Y-131512307D01*
X121235987Y-131534916D01*
X121239406Y-131557971D01*
X121240550Y-131581250D01*
X121240550Y-132056250D01*
X121239406Y-132079529D01*
X121235987Y-132102584D01*
X121230323Y-132125193D01*
X121222471Y-132147137D01*
X121212506Y-132168207D01*
X121200524Y-132188198D01*
X121186640Y-132206918D01*
X121170988Y-132224188D01*
X121153718Y-132239840D01*
X121134998Y-132253724D01*
X121115007Y-132265706D01*
X121093937Y-132275671D01*
X121071993Y-132283523D01*
X121049384Y-132289187D01*
X121026329Y-132292606D01*
X121003050Y-132293750D01*
X120428050Y-132293750D01*
X120404771Y-132292606D01*
X120381716Y-132289187D01*
X120359107Y-132283523D01*
X120337163Y-132275671D01*
X120316093Y-132265706D01*
X120296102Y-132253724D01*
X120277382Y-132239840D01*
X120260112Y-132224188D01*
X120244460Y-132206918D01*
X120230576Y-132188198D01*
X120218594Y-132168207D01*
X120208629Y-132147137D01*
X120200777Y-132125193D01*
X120195113Y-132102584D01*
X120191694Y-132079529D01*
X120190550Y-132056250D01*
X120190550Y-131581250D01*
X120191694Y-131557971D01*
X120195113Y-131534916D01*
X120200777Y-131512307D01*
X120208629Y-131490363D01*
X120218594Y-131469293D01*
X120230576Y-131449302D01*
X120244460Y-131430582D01*
X120260112Y-131413312D01*
X120277382Y-131397660D01*
X120296102Y-131383776D01*
X120316093Y-131371794D01*
X120337163Y-131361829D01*
X120359107Y-131353977D01*
X120381716Y-131348313D01*
X120404771Y-131344894D01*
X120428050Y-131343750D01*
X121003050Y-131343750D01*
X121026329Y-131344894D01*
X121026329Y-131344894D01*
G37*
D12*
X120715550Y-131818750D03*
G04 #@! TD*
D11*
G04 #@! TO.C,D10*
G36*
X140098829Y-131344894D02*
X140121884Y-131348313D01*
X140144493Y-131353977D01*
X140166437Y-131361829D01*
X140187507Y-131371794D01*
X140207498Y-131383776D01*
X140226218Y-131397660D01*
X140243488Y-131413312D01*
X140259140Y-131430582D01*
X140273024Y-131449302D01*
X140285006Y-131469293D01*
X140294971Y-131490363D01*
X140302823Y-131512307D01*
X140308487Y-131534916D01*
X140311906Y-131557971D01*
X140313050Y-131581250D01*
X140313050Y-132056250D01*
X140311906Y-132079529D01*
X140308487Y-132102584D01*
X140302823Y-132125193D01*
X140294971Y-132147137D01*
X140285006Y-132168207D01*
X140273024Y-132188198D01*
X140259140Y-132206918D01*
X140243488Y-132224188D01*
X140226218Y-132239840D01*
X140207498Y-132253724D01*
X140187507Y-132265706D01*
X140166437Y-132275671D01*
X140144493Y-132283523D01*
X140121884Y-132289187D01*
X140098829Y-132292606D01*
X140075550Y-132293750D01*
X139500550Y-132293750D01*
X139477271Y-132292606D01*
X139454216Y-132289187D01*
X139431607Y-132283523D01*
X139409663Y-132275671D01*
X139388593Y-132265706D01*
X139368602Y-132253724D01*
X139349882Y-132239840D01*
X139332612Y-132224188D01*
X139316960Y-132206918D01*
X139303076Y-132188198D01*
X139291094Y-132168207D01*
X139281129Y-132147137D01*
X139273277Y-132125193D01*
X139267613Y-132102584D01*
X139264194Y-132079529D01*
X139263050Y-132056250D01*
X139263050Y-131581250D01*
X139264194Y-131557971D01*
X139267613Y-131534916D01*
X139273277Y-131512307D01*
X139281129Y-131490363D01*
X139291094Y-131469293D01*
X139303076Y-131449302D01*
X139316960Y-131430582D01*
X139332612Y-131413312D01*
X139349882Y-131397660D01*
X139368602Y-131383776D01*
X139388593Y-131371794D01*
X139409663Y-131361829D01*
X139431607Y-131353977D01*
X139454216Y-131348313D01*
X139477271Y-131344894D01*
X139500550Y-131343750D01*
X140075550Y-131343750D01*
X140098829Y-131344894D01*
X140098829Y-131344894D01*
G37*
D12*
X139788050Y-131818750D03*
D11*
G36*
X138348829Y-131344894D02*
X138371884Y-131348313D01*
X138394493Y-131353977D01*
X138416437Y-131361829D01*
X138437507Y-131371794D01*
X138457498Y-131383776D01*
X138476218Y-131397660D01*
X138493488Y-131413312D01*
X138509140Y-131430582D01*
X138523024Y-131449302D01*
X138535006Y-131469293D01*
X138544971Y-131490363D01*
X138552823Y-131512307D01*
X138558487Y-131534916D01*
X138561906Y-131557971D01*
X138563050Y-131581250D01*
X138563050Y-132056250D01*
X138561906Y-132079529D01*
X138558487Y-132102584D01*
X138552823Y-132125193D01*
X138544971Y-132147137D01*
X138535006Y-132168207D01*
X138523024Y-132188198D01*
X138509140Y-132206918D01*
X138493488Y-132224188D01*
X138476218Y-132239840D01*
X138457498Y-132253724D01*
X138437507Y-132265706D01*
X138416437Y-132275671D01*
X138394493Y-132283523D01*
X138371884Y-132289187D01*
X138348829Y-132292606D01*
X138325550Y-132293750D01*
X137750550Y-132293750D01*
X137727271Y-132292606D01*
X137704216Y-132289187D01*
X137681607Y-132283523D01*
X137659663Y-132275671D01*
X137638593Y-132265706D01*
X137618602Y-132253724D01*
X137599882Y-132239840D01*
X137582612Y-132224188D01*
X137566960Y-132206918D01*
X137553076Y-132188198D01*
X137541094Y-132168207D01*
X137531129Y-132147137D01*
X137523277Y-132125193D01*
X137517613Y-132102584D01*
X137514194Y-132079529D01*
X137513050Y-132056250D01*
X137513050Y-131581250D01*
X137514194Y-131557971D01*
X137517613Y-131534916D01*
X137523277Y-131512307D01*
X137531129Y-131490363D01*
X137541094Y-131469293D01*
X137553076Y-131449302D01*
X137566960Y-131430582D01*
X137582612Y-131413312D01*
X137599882Y-131397660D01*
X137618602Y-131383776D01*
X137638593Y-131371794D01*
X137659663Y-131361829D01*
X137681607Y-131353977D01*
X137704216Y-131348313D01*
X137727271Y-131344894D01*
X137750550Y-131343750D01*
X138325550Y-131343750D01*
X138348829Y-131344894D01*
X138348829Y-131344894D01*
G37*
D12*
X138038050Y-131818750D03*
G04 #@! TD*
D11*
G04 #@! TO.C,D11*
G36*
X157421329Y-131344894D02*
X157444384Y-131348313D01*
X157466993Y-131353977D01*
X157488937Y-131361829D01*
X157510007Y-131371794D01*
X157529998Y-131383776D01*
X157548718Y-131397660D01*
X157565988Y-131413312D01*
X157581640Y-131430582D01*
X157595524Y-131449302D01*
X157607506Y-131469293D01*
X157617471Y-131490363D01*
X157625323Y-131512307D01*
X157630987Y-131534916D01*
X157634406Y-131557971D01*
X157635550Y-131581250D01*
X157635550Y-132056250D01*
X157634406Y-132079529D01*
X157630987Y-132102584D01*
X157625323Y-132125193D01*
X157617471Y-132147137D01*
X157607506Y-132168207D01*
X157595524Y-132188198D01*
X157581640Y-132206918D01*
X157565988Y-132224188D01*
X157548718Y-132239840D01*
X157529998Y-132253724D01*
X157510007Y-132265706D01*
X157488937Y-132275671D01*
X157466993Y-132283523D01*
X157444384Y-132289187D01*
X157421329Y-132292606D01*
X157398050Y-132293750D01*
X156823050Y-132293750D01*
X156799771Y-132292606D01*
X156776716Y-132289187D01*
X156754107Y-132283523D01*
X156732163Y-132275671D01*
X156711093Y-132265706D01*
X156691102Y-132253724D01*
X156672382Y-132239840D01*
X156655112Y-132224188D01*
X156639460Y-132206918D01*
X156625576Y-132188198D01*
X156613594Y-132168207D01*
X156603629Y-132147137D01*
X156595777Y-132125193D01*
X156590113Y-132102584D01*
X156586694Y-132079529D01*
X156585550Y-132056250D01*
X156585550Y-131581250D01*
X156586694Y-131557971D01*
X156590113Y-131534916D01*
X156595777Y-131512307D01*
X156603629Y-131490363D01*
X156613594Y-131469293D01*
X156625576Y-131449302D01*
X156639460Y-131430582D01*
X156655112Y-131413312D01*
X156672382Y-131397660D01*
X156691102Y-131383776D01*
X156711093Y-131371794D01*
X156732163Y-131361829D01*
X156754107Y-131353977D01*
X156776716Y-131348313D01*
X156799771Y-131344894D01*
X156823050Y-131343750D01*
X157398050Y-131343750D01*
X157421329Y-131344894D01*
X157421329Y-131344894D01*
G37*
D12*
X157110550Y-131818750D03*
D11*
G36*
X159171329Y-131344894D02*
X159194384Y-131348313D01*
X159216993Y-131353977D01*
X159238937Y-131361829D01*
X159260007Y-131371794D01*
X159279998Y-131383776D01*
X159298718Y-131397660D01*
X159315988Y-131413312D01*
X159331640Y-131430582D01*
X159345524Y-131449302D01*
X159357506Y-131469293D01*
X159367471Y-131490363D01*
X159375323Y-131512307D01*
X159380987Y-131534916D01*
X159384406Y-131557971D01*
X159385550Y-131581250D01*
X159385550Y-132056250D01*
X159384406Y-132079529D01*
X159380987Y-132102584D01*
X159375323Y-132125193D01*
X159367471Y-132147137D01*
X159357506Y-132168207D01*
X159345524Y-132188198D01*
X159331640Y-132206918D01*
X159315988Y-132224188D01*
X159298718Y-132239840D01*
X159279998Y-132253724D01*
X159260007Y-132265706D01*
X159238937Y-132275671D01*
X159216993Y-132283523D01*
X159194384Y-132289187D01*
X159171329Y-132292606D01*
X159148050Y-132293750D01*
X158573050Y-132293750D01*
X158549771Y-132292606D01*
X158526716Y-132289187D01*
X158504107Y-132283523D01*
X158482163Y-132275671D01*
X158461093Y-132265706D01*
X158441102Y-132253724D01*
X158422382Y-132239840D01*
X158405112Y-132224188D01*
X158389460Y-132206918D01*
X158375576Y-132188198D01*
X158363594Y-132168207D01*
X158353629Y-132147137D01*
X158345777Y-132125193D01*
X158340113Y-132102584D01*
X158336694Y-132079529D01*
X158335550Y-132056250D01*
X158335550Y-131581250D01*
X158336694Y-131557971D01*
X158340113Y-131534916D01*
X158345777Y-131512307D01*
X158353629Y-131490363D01*
X158363594Y-131469293D01*
X158375576Y-131449302D01*
X158389460Y-131430582D01*
X158405112Y-131413312D01*
X158422382Y-131397660D01*
X158441102Y-131383776D01*
X158461093Y-131371794D01*
X158482163Y-131361829D01*
X158504107Y-131353977D01*
X158526716Y-131348313D01*
X158549771Y-131344894D01*
X158573050Y-131343750D01*
X159148050Y-131343750D01*
X159171329Y-131344894D01*
X159171329Y-131344894D01*
G37*
D12*
X158860550Y-131818750D03*
G04 #@! TD*
D10*
G04 #@! TO.C,D_LED_2*
X139791750Y-69657750D03*
X139791750Y-70907750D03*
X134591750Y-70907750D03*
X134591750Y-69657750D03*
G04 #@! TD*
G04 #@! TO.C,D_LED_3*
X158841750Y-69657750D03*
X158841750Y-70907750D03*
X153641750Y-70907750D03*
X153641750Y-69657750D03*
G04 #@! TD*
G04 #@! TO.C,D_LED_4*
X172691750Y-69657750D03*
X172691750Y-70907750D03*
X177891750Y-70907750D03*
X177891750Y-69657750D03*
G04 #@! TD*
G04 #@! TO.C,D_LED_5*
X120741750Y-88707750D03*
X120741750Y-89957750D03*
X115541750Y-89957750D03*
X115541750Y-88707750D03*
G04 #@! TD*
G04 #@! TO.C,D_LED_6*
X134591750Y-88707750D03*
X134591750Y-89957750D03*
X139791750Y-89957750D03*
X139791750Y-88707750D03*
G04 #@! TD*
G04 #@! TO.C,D_LED_7*
X153641750Y-88707750D03*
X153641750Y-89957750D03*
X158841750Y-89957750D03*
X158841750Y-88707750D03*
G04 #@! TD*
G04 #@! TO.C,D_LED_8*
X177891750Y-88707750D03*
X177891750Y-89957750D03*
X172691750Y-89957750D03*
X172691750Y-88707750D03*
G04 #@! TD*
G04 #@! TO.C,D_LED_9*
X115541750Y-107757750D03*
X115541750Y-109007750D03*
X120741750Y-109007750D03*
X120741750Y-107757750D03*
G04 #@! TD*
G04 #@! TO.C,D_LED_10*
X139791750Y-107757750D03*
X139791750Y-109007750D03*
X134591750Y-109007750D03*
X134591750Y-107757750D03*
G04 #@! TD*
G04 #@! TO.C,D_LED_11*
X158841750Y-107757750D03*
X158841750Y-109007750D03*
X153641750Y-109007750D03*
X153641750Y-107757750D03*
G04 #@! TD*
G04 #@! TO.C,D_LED_12*
X172691750Y-107757750D03*
X172691750Y-109007750D03*
X177891750Y-109007750D03*
X177891750Y-107757750D03*
G04 #@! TD*
G04 #@! TO.C,D_LED_13*
X120741750Y-126807750D03*
X120741750Y-128057750D03*
X115541750Y-128057750D03*
X115541750Y-126807750D03*
G04 #@! TD*
G04 #@! TO.C,D_LED_14*
X134591750Y-126807750D03*
X134591750Y-128057750D03*
X139791750Y-128057750D03*
X139791750Y-126807750D03*
G04 #@! TD*
G04 #@! TO.C,D_LED_15*
X153641750Y-126807750D03*
X153641750Y-128057750D03*
X158841750Y-128057750D03*
X158841750Y-126807750D03*
G04 #@! TD*
D13*
G04 #@! TO.C,D_LED_16*
X170818750Y-134458750D03*
X169568750Y-134458750D03*
X169568750Y-129258750D03*
X170818750Y-129258750D03*
G04 #@! TD*
D10*
G04 #@! TO.C,D_LED_17*
X115541750Y-145857750D03*
X115541750Y-147107750D03*
X120741750Y-147107750D03*
X120741750Y-145857750D03*
G04 #@! TD*
G04 #@! TO.C,D_LED_18*
X139791750Y-145857750D03*
X139791750Y-147107750D03*
X134591750Y-147107750D03*
X134591750Y-145857750D03*
G04 #@! TD*
G04 #@! TO.C,D_LED_19*
X158841750Y-145857750D03*
X158841750Y-147107750D03*
X153641750Y-147107750D03*
X153641750Y-145857750D03*
G04 #@! TD*
D14*
G04 #@! TO.C,J3*
X170630000Y-42890000D03*
X170630000Y-50890000D03*
X166130000Y-42890000D03*
X166130000Y-50890000D03*
G04 #@! TD*
D15*
G04 #@! TO.C,D12*
X181465550Y-53468750D03*
X183215550Y-53468750D03*
X181465550Y-56968750D03*
X183215550Y-56968750D03*
G04 #@! TD*
D16*
G04 #@! TO.C,D13*
X167090550Y-37125000D03*
X167090550Y-38875000D03*
X163590550Y-37125000D03*
X163590550Y-38875000D03*
G04 #@! TD*
G04 #@! TO.C,D14*
X129790550Y-37125000D03*
X129790550Y-38875000D03*
X126290550Y-37125000D03*
X126290550Y-38875000D03*
G04 #@! TD*
D15*
G04 #@! TO.C,D15*
X110065550Y-53468750D03*
X111815550Y-53468750D03*
X110065550Y-56968750D03*
X111815550Y-56968750D03*
G04 #@! TD*
G04 #@! TO.C,D16*
X110025000Y-77850000D03*
X111775000Y-77850000D03*
X110025000Y-81350000D03*
X111775000Y-81350000D03*
G04 #@! TD*
G04 #@! TO.C,D17*
X111925000Y-109150000D03*
X110175000Y-109150000D03*
X111925000Y-105650000D03*
X110175000Y-105650000D03*
G04 #@! TD*
G04 #@! TO.C,D18*
X110065550Y-129768750D03*
X111815550Y-129768750D03*
X110065550Y-133268750D03*
X111815550Y-133268750D03*
G04 #@! TD*
D16*
G04 #@! TO.C,D19*
X129790550Y-147643750D03*
X129790550Y-149393750D03*
X126290550Y-147643750D03*
X126290550Y-149393750D03*
G04 #@! TD*
G04 #@! TO.C,D20*
X167090550Y-147643750D03*
X167090550Y-149393750D03*
X163590550Y-147643750D03*
X163590550Y-149393750D03*
G04 #@! TD*
D15*
G04 #@! TO.C,D21*
X183100000Y-131700000D03*
X181350000Y-131700000D03*
X183100000Y-128200000D03*
X181350000Y-128200000D03*
G04 #@! TD*
G04 #@! TO.C,D22*
X181425000Y-105650000D03*
X183175000Y-105650000D03*
X181425000Y-109150000D03*
X183175000Y-109150000D03*
G04 #@! TD*
G04 #@! TO.C,D23*
X181525000Y-78150000D03*
X183275000Y-78150000D03*
X181525000Y-81650000D03*
X183275000Y-81650000D03*
G04 #@! TD*
M02*
