G04 #@! TF.GenerationSoftware,KiCad,Pcbnew,5.0.1*
G04 #@! TF.CreationDate,2019-02-06T13:48:55+01:00*
G04 #@! TF.ProjectId,keypad,6B65797061642E6B696361645F706362,rev?*
G04 #@! TF.SameCoordinates,Original*
G04 #@! TF.FileFunction,Paste,Bot*
G04 #@! TF.FilePolarity,Positive*
%FSLAX46Y46*%
G04 Gerber Fmt 4.6, Leading zero omitted, Abs format (unit mm)*
G04 Created by KiCad (PCBNEW 5.0.1) date Wed 06 Feb 2019 01:48:55 PM CET*
%MOMM*%
%LPD*%
G01*
G04 APERTURE LIST*
%ADD10R,1.200000X0.800000*%
%ADD11C,0.100000*%
%ADD12C,1.150000*%
%ADD13R,1.600000X0.850000*%
%ADD14R,0.850000X1.600000*%
%ADD15R,1.600000X1.400000*%
G04 APERTURE END LIST*
D10*
G04 #@! TO.C,D2*
X120675000Y-73750000D03*
X123275000Y-74700000D03*
X120675000Y-75650000D03*
G04 #@! TD*
G04 #@! TO.C,D3*
X120675000Y-111850000D03*
X123275000Y-112800000D03*
X120675000Y-113750000D03*
G04 #@! TD*
G04 #@! TO.C,D5*
X139725000Y-73750000D03*
X142325000Y-74700000D03*
X139725000Y-75650000D03*
G04 #@! TD*
G04 #@! TO.C,D6*
X139725000Y-111850000D03*
X142325000Y-112800000D03*
X139725000Y-113750000D03*
G04 #@! TD*
G04 #@! TO.C,D8*
X158775000Y-75650000D03*
X161375000Y-74700000D03*
X158775000Y-73750000D03*
G04 #@! TD*
D11*
G04 #@! TO.C,D10*
G36*
X161029505Y-131101204D02*
X161053773Y-131104804D01*
X161077572Y-131110765D01*
X161100671Y-131119030D01*
X161122850Y-131129520D01*
X161143893Y-131142132D01*
X161163599Y-131156747D01*
X161181777Y-131173223D01*
X161198253Y-131191401D01*
X161212868Y-131211107D01*
X161225480Y-131232150D01*
X161235970Y-131254329D01*
X161244235Y-131277428D01*
X161250196Y-131301227D01*
X161253796Y-131325495D01*
X161255000Y-131349999D01*
X161255000Y-132250001D01*
X161253796Y-132274505D01*
X161250196Y-132298773D01*
X161244235Y-132322572D01*
X161235970Y-132345671D01*
X161225480Y-132367850D01*
X161212868Y-132388893D01*
X161198253Y-132408599D01*
X161181777Y-132426777D01*
X161163599Y-132443253D01*
X161143893Y-132457868D01*
X161122850Y-132470480D01*
X161100671Y-132480970D01*
X161077572Y-132489235D01*
X161053773Y-132495196D01*
X161029505Y-132498796D01*
X161005001Y-132500000D01*
X160354999Y-132500000D01*
X160330495Y-132498796D01*
X160306227Y-132495196D01*
X160282428Y-132489235D01*
X160259329Y-132480970D01*
X160237150Y-132470480D01*
X160216107Y-132457868D01*
X160196401Y-132443253D01*
X160178223Y-132426777D01*
X160161747Y-132408599D01*
X160147132Y-132388893D01*
X160134520Y-132367850D01*
X160124030Y-132345671D01*
X160115765Y-132322572D01*
X160109804Y-132298773D01*
X160106204Y-132274505D01*
X160105000Y-132250001D01*
X160105000Y-131349999D01*
X160106204Y-131325495D01*
X160109804Y-131301227D01*
X160115765Y-131277428D01*
X160124030Y-131254329D01*
X160134520Y-131232150D01*
X160147132Y-131211107D01*
X160161747Y-131191401D01*
X160178223Y-131173223D01*
X160196401Y-131156747D01*
X160216107Y-131142132D01*
X160237150Y-131129520D01*
X160259329Y-131119030D01*
X160282428Y-131110765D01*
X160306227Y-131104804D01*
X160330495Y-131101204D01*
X160354999Y-131100000D01*
X161005001Y-131100000D01*
X161029505Y-131101204D01*
X161029505Y-131101204D01*
G37*
D12*
X160680000Y-131800000D03*
D11*
G36*
X158979505Y-131101204D02*
X159003773Y-131104804D01*
X159027572Y-131110765D01*
X159050671Y-131119030D01*
X159072850Y-131129520D01*
X159093893Y-131142132D01*
X159113599Y-131156747D01*
X159131777Y-131173223D01*
X159148253Y-131191401D01*
X159162868Y-131211107D01*
X159175480Y-131232150D01*
X159185970Y-131254329D01*
X159194235Y-131277428D01*
X159200196Y-131301227D01*
X159203796Y-131325495D01*
X159205000Y-131349999D01*
X159205000Y-132250001D01*
X159203796Y-132274505D01*
X159200196Y-132298773D01*
X159194235Y-132322572D01*
X159185970Y-132345671D01*
X159175480Y-132367850D01*
X159162868Y-132388893D01*
X159148253Y-132408599D01*
X159131777Y-132426777D01*
X159113599Y-132443253D01*
X159093893Y-132457868D01*
X159072850Y-132470480D01*
X159050671Y-132480970D01*
X159027572Y-132489235D01*
X159003773Y-132495196D01*
X158979505Y-132498796D01*
X158955001Y-132500000D01*
X158304999Y-132500000D01*
X158280495Y-132498796D01*
X158256227Y-132495196D01*
X158232428Y-132489235D01*
X158209329Y-132480970D01*
X158187150Y-132470480D01*
X158166107Y-132457868D01*
X158146401Y-132443253D01*
X158128223Y-132426777D01*
X158111747Y-132408599D01*
X158097132Y-132388893D01*
X158084520Y-132367850D01*
X158074030Y-132345671D01*
X158065765Y-132322572D01*
X158059804Y-132298773D01*
X158056204Y-132274505D01*
X158055000Y-132250001D01*
X158055000Y-131349999D01*
X158056204Y-131325495D01*
X158059804Y-131301227D01*
X158065765Y-131277428D01*
X158074030Y-131254329D01*
X158084520Y-131232150D01*
X158097132Y-131211107D01*
X158111747Y-131191401D01*
X158128223Y-131173223D01*
X158146401Y-131156747D01*
X158166107Y-131142132D01*
X158187150Y-131129520D01*
X158209329Y-131119030D01*
X158232428Y-131110765D01*
X158256227Y-131104804D01*
X158280495Y-131101204D01*
X158304999Y-131100000D01*
X158955001Y-131100000D01*
X158979505Y-131101204D01*
X158979505Y-131101204D01*
G37*
D12*
X158630000Y-131800000D03*
G04 #@! TD*
D13*
G04 #@! TO.C,D13*
X181450000Y-39225000D03*
X181450000Y-40975000D03*
X177950000Y-39225000D03*
X177950000Y-40975000D03*
G04 #@! TD*
G04 #@! TO.C,D14*
X148450000Y-39125000D03*
X148450000Y-40875000D03*
X144950000Y-39125000D03*
X144950000Y-40875000D03*
G04 #@! TD*
D14*
G04 #@! TO.C,D16*
X112225000Y-72650000D03*
X113975000Y-72650000D03*
X112225000Y-76150000D03*
X113975000Y-76150000D03*
G04 #@! TD*
D13*
G04 #@! TO.C,D18*
X112250000Y-147375000D03*
X112250000Y-145625000D03*
X115750000Y-147375000D03*
X115750000Y-145625000D03*
G04 #@! TD*
D15*
G04 #@! TO.C,SW1*
X168600000Y-52850000D03*
X160600000Y-52850000D03*
X168600000Y-48350000D03*
X160600000Y-48350000D03*
G04 #@! TD*
G04 #@! TO.C,SW2*
X160650000Y-38125000D03*
X168650000Y-38125000D03*
X160650000Y-42625000D03*
X168650000Y-42625000D03*
G04 #@! TD*
D11*
G04 #@! TO.C,D4*
G36*
X122974505Y-131101204D02*
X122998773Y-131104804D01*
X123022572Y-131110765D01*
X123045671Y-131119030D01*
X123067850Y-131129520D01*
X123088893Y-131142132D01*
X123108599Y-131156747D01*
X123126777Y-131173223D01*
X123143253Y-131191401D01*
X123157868Y-131211107D01*
X123170480Y-131232150D01*
X123180970Y-131254329D01*
X123189235Y-131277428D01*
X123195196Y-131301227D01*
X123198796Y-131325495D01*
X123200000Y-131349999D01*
X123200000Y-132250001D01*
X123198796Y-132274505D01*
X123195196Y-132298773D01*
X123189235Y-132322572D01*
X123180970Y-132345671D01*
X123170480Y-132367850D01*
X123157868Y-132388893D01*
X123143253Y-132408599D01*
X123126777Y-132426777D01*
X123108599Y-132443253D01*
X123088893Y-132457868D01*
X123067850Y-132470480D01*
X123045671Y-132480970D01*
X123022572Y-132489235D01*
X122998773Y-132495196D01*
X122974505Y-132498796D01*
X122950001Y-132500000D01*
X122299999Y-132500000D01*
X122275495Y-132498796D01*
X122251227Y-132495196D01*
X122227428Y-132489235D01*
X122204329Y-132480970D01*
X122182150Y-132470480D01*
X122161107Y-132457868D01*
X122141401Y-132443253D01*
X122123223Y-132426777D01*
X122106747Y-132408599D01*
X122092132Y-132388893D01*
X122079520Y-132367850D01*
X122069030Y-132345671D01*
X122060765Y-132322572D01*
X122054804Y-132298773D01*
X122051204Y-132274505D01*
X122050000Y-132250001D01*
X122050000Y-131349999D01*
X122051204Y-131325495D01*
X122054804Y-131301227D01*
X122060765Y-131277428D01*
X122069030Y-131254329D01*
X122079520Y-131232150D01*
X122092132Y-131211107D01*
X122106747Y-131191401D01*
X122123223Y-131173223D01*
X122141401Y-131156747D01*
X122161107Y-131142132D01*
X122182150Y-131129520D01*
X122204329Y-131119030D01*
X122227428Y-131110765D01*
X122251227Y-131104804D01*
X122275495Y-131101204D01*
X122299999Y-131100000D01*
X122950001Y-131100000D01*
X122974505Y-131101204D01*
X122974505Y-131101204D01*
G37*
D12*
X122625000Y-131800000D03*
D11*
G36*
X120924505Y-131101204D02*
X120948773Y-131104804D01*
X120972572Y-131110765D01*
X120995671Y-131119030D01*
X121017850Y-131129520D01*
X121038893Y-131142132D01*
X121058599Y-131156747D01*
X121076777Y-131173223D01*
X121093253Y-131191401D01*
X121107868Y-131211107D01*
X121120480Y-131232150D01*
X121130970Y-131254329D01*
X121139235Y-131277428D01*
X121145196Y-131301227D01*
X121148796Y-131325495D01*
X121150000Y-131349999D01*
X121150000Y-132250001D01*
X121148796Y-132274505D01*
X121145196Y-132298773D01*
X121139235Y-132322572D01*
X121130970Y-132345671D01*
X121120480Y-132367850D01*
X121107868Y-132388893D01*
X121093253Y-132408599D01*
X121076777Y-132426777D01*
X121058599Y-132443253D01*
X121038893Y-132457868D01*
X121017850Y-132470480D01*
X120995671Y-132480970D01*
X120972572Y-132489235D01*
X120948773Y-132495196D01*
X120924505Y-132498796D01*
X120900001Y-132500000D01*
X120249999Y-132500000D01*
X120225495Y-132498796D01*
X120201227Y-132495196D01*
X120177428Y-132489235D01*
X120154329Y-132480970D01*
X120132150Y-132470480D01*
X120111107Y-132457868D01*
X120091401Y-132443253D01*
X120073223Y-132426777D01*
X120056747Y-132408599D01*
X120042132Y-132388893D01*
X120029520Y-132367850D01*
X120019030Y-132345671D01*
X120010765Y-132322572D01*
X120004804Y-132298773D01*
X120001204Y-132274505D01*
X120000000Y-132250001D01*
X120000000Y-131349999D01*
X120001204Y-131325495D01*
X120004804Y-131301227D01*
X120010765Y-131277428D01*
X120019030Y-131254329D01*
X120029520Y-131232150D01*
X120042132Y-131211107D01*
X120056747Y-131191401D01*
X120073223Y-131173223D01*
X120091401Y-131156747D01*
X120111107Y-131142132D01*
X120132150Y-131129520D01*
X120154329Y-131119030D01*
X120177428Y-131110765D01*
X120201227Y-131104804D01*
X120225495Y-131101204D01*
X120249999Y-131100000D01*
X120900001Y-131100000D01*
X120924505Y-131101204D01*
X120924505Y-131101204D01*
G37*
D12*
X120575000Y-131800000D03*
G04 #@! TD*
D11*
G04 #@! TO.C,D7*
G36*
X139952005Y-131101204D02*
X139976273Y-131104804D01*
X140000072Y-131110765D01*
X140023171Y-131119030D01*
X140045350Y-131129520D01*
X140066393Y-131142132D01*
X140086099Y-131156747D01*
X140104277Y-131173223D01*
X140120753Y-131191401D01*
X140135368Y-131211107D01*
X140147980Y-131232150D01*
X140158470Y-131254329D01*
X140166735Y-131277428D01*
X140172696Y-131301227D01*
X140176296Y-131325495D01*
X140177500Y-131349999D01*
X140177500Y-132250001D01*
X140176296Y-132274505D01*
X140172696Y-132298773D01*
X140166735Y-132322572D01*
X140158470Y-132345671D01*
X140147980Y-132367850D01*
X140135368Y-132388893D01*
X140120753Y-132408599D01*
X140104277Y-132426777D01*
X140086099Y-132443253D01*
X140066393Y-132457868D01*
X140045350Y-132470480D01*
X140023171Y-132480970D01*
X140000072Y-132489235D01*
X139976273Y-132495196D01*
X139952005Y-132498796D01*
X139927501Y-132500000D01*
X139277499Y-132500000D01*
X139252995Y-132498796D01*
X139228727Y-132495196D01*
X139204928Y-132489235D01*
X139181829Y-132480970D01*
X139159650Y-132470480D01*
X139138607Y-132457868D01*
X139118901Y-132443253D01*
X139100723Y-132426777D01*
X139084247Y-132408599D01*
X139069632Y-132388893D01*
X139057020Y-132367850D01*
X139046530Y-132345671D01*
X139038265Y-132322572D01*
X139032304Y-132298773D01*
X139028704Y-132274505D01*
X139027500Y-132250001D01*
X139027500Y-131349999D01*
X139028704Y-131325495D01*
X139032304Y-131301227D01*
X139038265Y-131277428D01*
X139046530Y-131254329D01*
X139057020Y-131232150D01*
X139069632Y-131211107D01*
X139084247Y-131191401D01*
X139100723Y-131173223D01*
X139118901Y-131156747D01*
X139138607Y-131142132D01*
X139159650Y-131129520D01*
X139181829Y-131119030D01*
X139204928Y-131110765D01*
X139228727Y-131104804D01*
X139252995Y-131101204D01*
X139277499Y-131100000D01*
X139927501Y-131100000D01*
X139952005Y-131101204D01*
X139952005Y-131101204D01*
G37*
D12*
X139602500Y-131800000D03*
D11*
G36*
X142002005Y-131101204D02*
X142026273Y-131104804D01*
X142050072Y-131110765D01*
X142073171Y-131119030D01*
X142095350Y-131129520D01*
X142116393Y-131142132D01*
X142136099Y-131156747D01*
X142154277Y-131173223D01*
X142170753Y-131191401D01*
X142185368Y-131211107D01*
X142197980Y-131232150D01*
X142208470Y-131254329D01*
X142216735Y-131277428D01*
X142222696Y-131301227D01*
X142226296Y-131325495D01*
X142227500Y-131349999D01*
X142227500Y-132250001D01*
X142226296Y-132274505D01*
X142222696Y-132298773D01*
X142216735Y-132322572D01*
X142208470Y-132345671D01*
X142197980Y-132367850D01*
X142185368Y-132388893D01*
X142170753Y-132408599D01*
X142154277Y-132426777D01*
X142136099Y-132443253D01*
X142116393Y-132457868D01*
X142095350Y-132470480D01*
X142073171Y-132480970D01*
X142050072Y-132489235D01*
X142026273Y-132495196D01*
X142002005Y-132498796D01*
X141977501Y-132500000D01*
X141327499Y-132500000D01*
X141302995Y-132498796D01*
X141278727Y-132495196D01*
X141254928Y-132489235D01*
X141231829Y-132480970D01*
X141209650Y-132470480D01*
X141188607Y-132457868D01*
X141168901Y-132443253D01*
X141150723Y-132426777D01*
X141134247Y-132408599D01*
X141119632Y-132388893D01*
X141107020Y-132367850D01*
X141096530Y-132345671D01*
X141088265Y-132322572D01*
X141082304Y-132298773D01*
X141078704Y-132274505D01*
X141077500Y-132250001D01*
X141077500Y-131349999D01*
X141078704Y-131325495D01*
X141082304Y-131301227D01*
X141088265Y-131277428D01*
X141096530Y-131254329D01*
X141107020Y-131232150D01*
X141119632Y-131211107D01*
X141134247Y-131191401D01*
X141150723Y-131173223D01*
X141168901Y-131156747D01*
X141188607Y-131142132D01*
X141209650Y-131129520D01*
X141231829Y-131119030D01*
X141254928Y-131110765D01*
X141278727Y-131104804D01*
X141302995Y-131101204D01*
X141327499Y-131100000D01*
X141977501Y-131100000D01*
X142002005Y-131101204D01*
X142002005Y-131101204D01*
G37*
D12*
X141652500Y-131800000D03*
G04 #@! TD*
D10*
G04 #@! TO.C,D9*
X158775000Y-111850000D03*
X161375000Y-112800000D03*
X158775000Y-113750000D03*
G04 #@! TD*
G04 #@! TO.C,D11*
X173825000Y-75650000D03*
X176425000Y-74700000D03*
X173825000Y-73750000D03*
G04 #@! TD*
G04 #@! TO.C,D12*
X173825000Y-113750000D03*
X176425000Y-112800000D03*
X173825000Y-111850000D03*
G04 #@! TD*
D13*
G04 #@! TO.C,D15*
X112350000Y-40975000D03*
X112350000Y-39225000D03*
X115850000Y-40975000D03*
X115850000Y-39225000D03*
G04 #@! TD*
D14*
G04 #@! TO.C,D17*
X112200000Y-111100000D03*
X113950000Y-111100000D03*
X112200000Y-114600000D03*
X113950000Y-114600000D03*
G04 #@! TD*
D11*
G04 #@! TO.C,C11*
G36*
X138274505Y-40617339D02*
X138298773Y-40620939D01*
X138322572Y-40626900D01*
X138345671Y-40635165D01*
X138367850Y-40645655D01*
X138388893Y-40658267D01*
X138408599Y-40672882D01*
X138426777Y-40689358D01*
X138443253Y-40707536D01*
X138457868Y-40727242D01*
X138470480Y-40748285D01*
X138480970Y-40770464D01*
X138489235Y-40793563D01*
X138495196Y-40817362D01*
X138498796Y-40841630D01*
X138500000Y-40866134D01*
X138500000Y-41516136D01*
X138498796Y-41540640D01*
X138495196Y-41564908D01*
X138489235Y-41588707D01*
X138480970Y-41611806D01*
X138470480Y-41633985D01*
X138457868Y-41655028D01*
X138443253Y-41674734D01*
X138426777Y-41692912D01*
X138408599Y-41709388D01*
X138388893Y-41724003D01*
X138367850Y-41736615D01*
X138345671Y-41747105D01*
X138322572Y-41755370D01*
X138298773Y-41761331D01*
X138274505Y-41764931D01*
X138250001Y-41766135D01*
X137349999Y-41766135D01*
X137325495Y-41764931D01*
X137301227Y-41761331D01*
X137277428Y-41755370D01*
X137254329Y-41747105D01*
X137232150Y-41736615D01*
X137211107Y-41724003D01*
X137191401Y-41709388D01*
X137173223Y-41692912D01*
X137156747Y-41674734D01*
X137142132Y-41655028D01*
X137129520Y-41633985D01*
X137119030Y-41611806D01*
X137110765Y-41588707D01*
X137104804Y-41564908D01*
X137101204Y-41540640D01*
X137100000Y-41516136D01*
X137100000Y-40866134D01*
X137101204Y-40841630D01*
X137104804Y-40817362D01*
X137110765Y-40793563D01*
X137119030Y-40770464D01*
X137129520Y-40748285D01*
X137142132Y-40727242D01*
X137156747Y-40707536D01*
X137173223Y-40689358D01*
X137191401Y-40672882D01*
X137211107Y-40658267D01*
X137232150Y-40645655D01*
X137254329Y-40635165D01*
X137277428Y-40626900D01*
X137301227Y-40620939D01*
X137325495Y-40617339D01*
X137349999Y-40616135D01*
X138250001Y-40616135D01*
X138274505Y-40617339D01*
X138274505Y-40617339D01*
G37*
D12*
X137800000Y-41191135D03*
D11*
G36*
X138274505Y-38567339D02*
X138298773Y-38570939D01*
X138322572Y-38576900D01*
X138345671Y-38585165D01*
X138367850Y-38595655D01*
X138388893Y-38608267D01*
X138408599Y-38622882D01*
X138426777Y-38639358D01*
X138443253Y-38657536D01*
X138457868Y-38677242D01*
X138470480Y-38698285D01*
X138480970Y-38720464D01*
X138489235Y-38743563D01*
X138495196Y-38767362D01*
X138498796Y-38791630D01*
X138500000Y-38816134D01*
X138500000Y-39466136D01*
X138498796Y-39490640D01*
X138495196Y-39514908D01*
X138489235Y-39538707D01*
X138480970Y-39561806D01*
X138470480Y-39583985D01*
X138457868Y-39605028D01*
X138443253Y-39624734D01*
X138426777Y-39642912D01*
X138408599Y-39659388D01*
X138388893Y-39674003D01*
X138367850Y-39686615D01*
X138345671Y-39697105D01*
X138322572Y-39705370D01*
X138298773Y-39711331D01*
X138274505Y-39714931D01*
X138250001Y-39716135D01*
X137349999Y-39716135D01*
X137325495Y-39714931D01*
X137301227Y-39711331D01*
X137277428Y-39705370D01*
X137254329Y-39697105D01*
X137232150Y-39686615D01*
X137211107Y-39674003D01*
X137191401Y-39659388D01*
X137173223Y-39642912D01*
X137156747Y-39624734D01*
X137142132Y-39605028D01*
X137129520Y-39583985D01*
X137119030Y-39561806D01*
X137110765Y-39538707D01*
X137104804Y-39514908D01*
X137101204Y-39490640D01*
X137100000Y-39466136D01*
X137100000Y-38816134D01*
X137101204Y-38791630D01*
X137104804Y-38767362D01*
X137110765Y-38743563D01*
X137119030Y-38720464D01*
X137129520Y-38698285D01*
X137142132Y-38677242D01*
X137156747Y-38657536D01*
X137173223Y-38639358D01*
X137191401Y-38622882D01*
X137211107Y-38608267D01*
X137232150Y-38595655D01*
X137254329Y-38585165D01*
X137277428Y-38576900D01*
X137301227Y-38570939D01*
X137325495Y-38567339D01*
X137349999Y-38566135D01*
X138250001Y-38566135D01*
X138274505Y-38567339D01*
X138274505Y-38567339D01*
G37*
D12*
X137800000Y-39141135D03*
G04 #@! TD*
D11*
G04 #@! TO.C,R6*
G36*
X136074505Y-38576204D02*
X136098773Y-38579804D01*
X136122572Y-38585765D01*
X136145671Y-38594030D01*
X136167850Y-38604520D01*
X136188893Y-38617132D01*
X136208599Y-38631747D01*
X136226777Y-38648223D01*
X136243253Y-38666401D01*
X136257868Y-38686107D01*
X136270480Y-38707150D01*
X136280970Y-38729329D01*
X136289235Y-38752428D01*
X136295196Y-38776227D01*
X136298796Y-38800495D01*
X136300000Y-38824999D01*
X136300000Y-39475001D01*
X136298796Y-39499505D01*
X136295196Y-39523773D01*
X136289235Y-39547572D01*
X136280970Y-39570671D01*
X136270480Y-39592850D01*
X136257868Y-39613893D01*
X136243253Y-39633599D01*
X136226777Y-39651777D01*
X136208599Y-39668253D01*
X136188893Y-39682868D01*
X136167850Y-39695480D01*
X136145671Y-39705970D01*
X136122572Y-39714235D01*
X136098773Y-39720196D01*
X136074505Y-39723796D01*
X136050001Y-39725000D01*
X135149999Y-39725000D01*
X135125495Y-39723796D01*
X135101227Y-39720196D01*
X135077428Y-39714235D01*
X135054329Y-39705970D01*
X135032150Y-39695480D01*
X135011107Y-39682868D01*
X134991401Y-39668253D01*
X134973223Y-39651777D01*
X134956747Y-39633599D01*
X134942132Y-39613893D01*
X134929520Y-39592850D01*
X134919030Y-39570671D01*
X134910765Y-39547572D01*
X134904804Y-39523773D01*
X134901204Y-39499505D01*
X134900000Y-39475001D01*
X134900000Y-38824999D01*
X134901204Y-38800495D01*
X134904804Y-38776227D01*
X134910765Y-38752428D01*
X134919030Y-38729329D01*
X134929520Y-38707150D01*
X134942132Y-38686107D01*
X134956747Y-38666401D01*
X134973223Y-38648223D01*
X134991401Y-38631747D01*
X135011107Y-38617132D01*
X135032150Y-38604520D01*
X135054329Y-38594030D01*
X135077428Y-38585765D01*
X135101227Y-38579804D01*
X135125495Y-38576204D01*
X135149999Y-38575000D01*
X136050001Y-38575000D01*
X136074505Y-38576204D01*
X136074505Y-38576204D01*
G37*
D12*
X135600000Y-39150000D03*
D11*
G36*
X136074505Y-40626204D02*
X136098773Y-40629804D01*
X136122572Y-40635765D01*
X136145671Y-40644030D01*
X136167850Y-40654520D01*
X136188893Y-40667132D01*
X136208599Y-40681747D01*
X136226777Y-40698223D01*
X136243253Y-40716401D01*
X136257868Y-40736107D01*
X136270480Y-40757150D01*
X136280970Y-40779329D01*
X136289235Y-40802428D01*
X136295196Y-40826227D01*
X136298796Y-40850495D01*
X136300000Y-40874999D01*
X136300000Y-41525001D01*
X136298796Y-41549505D01*
X136295196Y-41573773D01*
X136289235Y-41597572D01*
X136280970Y-41620671D01*
X136270480Y-41642850D01*
X136257868Y-41663893D01*
X136243253Y-41683599D01*
X136226777Y-41701777D01*
X136208599Y-41718253D01*
X136188893Y-41732868D01*
X136167850Y-41745480D01*
X136145671Y-41755970D01*
X136122572Y-41764235D01*
X136098773Y-41770196D01*
X136074505Y-41773796D01*
X136050001Y-41775000D01*
X135149999Y-41775000D01*
X135125495Y-41773796D01*
X135101227Y-41770196D01*
X135077428Y-41764235D01*
X135054329Y-41755970D01*
X135032150Y-41745480D01*
X135011107Y-41732868D01*
X134991401Y-41718253D01*
X134973223Y-41701777D01*
X134956747Y-41683599D01*
X134942132Y-41663893D01*
X134929520Y-41642850D01*
X134919030Y-41620671D01*
X134910765Y-41597572D01*
X134904804Y-41573773D01*
X134901204Y-41549505D01*
X134900000Y-41525001D01*
X134900000Y-40874999D01*
X134901204Y-40850495D01*
X134904804Y-40826227D01*
X134910765Y-40802428D01*
X134919030Y-40779329D01*
X134929520Y-40757150D01*
X134942132Y-40736107D01*
X134956747Y-40716401D01*
X134973223Y-40698223D01*
X134991401Y-40681747D01*
X135011107Y-40667132D01*
X135032150Y-40654520D01*
X135054329Y-40644030D01*
X135077428Y-40635765D01*
X135101227Y-40629804D01*
X135125495Y-40626204D01*
X135149999Y-40625000D01*
X136050001Y-40625000D01*
X136074505Y-40626204D01*
X136074505Y-40626204D01*
G37*
D12*
X135600000Y-41200000D03*
G04 #@! TD*
D11*
G04 #@! TO.C,R7*
G36*
X138374505Y-48051204D02*
X138398773Y-48054804D01*
X138422572Y-48060765D01*
X138445671Y-48069030D01*
X138467850Y-48079520D01*
X138488893Y-48092132D01*
X138508599Y-48106747D01*
X138526777Y-48123223D01*
X138543253Y-48141401D01*
X138557868Y-48161107D01*
X138570480Y-48182150D01*
X138580970Y-48204329D01*
X138589235Y-48227428D01*
X138595196Y-48251227D01*
X138598796Y-48275495D01*
X138600000Y-48299999D01*
X138600000Y-48950001D01*
X138598796Y-48974505D01*
X138595196Y-48998773D01*
X138589235Y-49022572D01*
X138580970Y-49045671D01*
X138570480Y-49067850D01*
X138557868Y-49088893D01*
X138543253Y-49108599D01*
X138526777Y-49126777D01*
X138508599Y-49143253D01*
X138488893Y-49157868D01*
X138467850Y-49170480D01*
X138445671Y-49180970D01*
X138422572Y-49189235D01*
X138398773Y-49195196D01*
X138374505Y-49198796D01*
X138350001Y-49200000D01*
X137449999Y-49200000D01*
X137425495Y-49198796D01*
X137401227Y-49195196D01*
X137377428Y-49189235D01*
X137354329Y-49180970D01*
X137332150Y-49170480D01*
X137311107Y-49157868D01*
X137291401Y-49143253D01*
X137273223Y-49126777D01*
X137256747Y-49108599D01*
X137242132Y-49088893D01*
X137229520Y-49067850D01*
X137219030Y-49045671D01*
X137210765Y-49022572D01*
X137204804Y-48998773D01*
X137201204Y-48974505D01*
X137200000Y-48950001D01*
X137200000Y-48299999D01*
X137201204Y-48275495D01*
X137204804Y-48251227D01*
X137210765Y-48227428D01*
X137219030Y-48204329D01*
X137229520Y-48182150D01*
X137242132Y-48161107D01*
X137256747Y-48141401D01*
X137273223Y-48123223D01*
X137291401Y-48106747D01*
X137311107Y-48092132D01*
X137332150Y-48079520D01*
X137354329Y-48069030D01*
X137377428Y-48060765D01*
X137401227Y-48054804D01*
X137425495Y-48051204D01*
X137449999Y-48050000D01*
X138350001Y-48050000D01*
X138374505Y-48051204D01*
X138374505Y-48051204D01*
G37*
D12*
X137900000Y-48625000D03*
D11*
G36*
X138374505Y-46001204D02*
X138398773Y-46004804D01*
X138422572Y-46010765D01*
X138445671Y-46019030D01*
X138467850Y-46029520D01*
X138488893Y-46042132D01*
X138508599Y-46056747D01*
X138526777Y-46073223D01*
X138543253Y-46091401D01*
X138557868Y-46111107D01*
X138570480Y-46132150D01*
X138580970Y-46154329D01*
X138589235Y-46177428D01*
X138595196Y-46201227D01*
X138598796Y-46225495D01*
X138600000Y-46249999D01*
X138600000Y-46900001D01*
X138598796Y-46924505D01*
X138595196Y-46948773D01*
X138589235Y-46972572D01*
X138580970Y-46995671D01*
X138570480Y-47017850D01*
X138557868Y-47038893D01*
X138543253Y-47058599D01*
X138526777Y-47076777D01*
X138508599Y-47093253D01*
X138488893Y-47107868D01*
X138467850Y-47120480D01*
X138445671Y-47130970D01*
X138422572Y-47139235D01*
X138398773Y-47145196D01*
X138374505Y-47148796D01*
X138350001Y-47150000D01*
X137449999Y-47150000D01*
X137425495Y-47148796D01*
X137401227Y-47145196D01*
X137377428Y-47139235D01*
X137354329Y-47130970D01*
X137332150Y-47120480D01*
X137311107Y-47107868D01*
X137291401Y-47093253D01*
X137273223Y-47076777D01*
X137256747Y-47058599D01*
X137242132Y-47038893D01*
X137229520Y-47017850D01*
X137219030Y-46995671D01*
X137210765Y-46972572D01*
X137204804Y-46948773D01*
X137201204Y-46924505D01*
X137200000Y-46900001D01*
X137200000Y-46249999D01*
X137201204Y-46225495D01*
X137204804Y-46201227D01*
X137210765Y-46177428D01*
X137219030Y-46154329D01*
X137229520Y-46132150D01*
X137242132Y-46111107D01*
X137256747Y-46091401D01*
X137273223Y-46073223D01*
X137291401Y-46056747D01*
X137311107Y-46042132D01*
X137332150Y-46029520D01*
X137354329Y-46019030D01*
X137377428Y-46010765D01*
X137401227Y-46004804D01*
X137425495Y-46001204D01*
X137449999Y-46000000D01*
X138350001Y-46000000D01*
X138374505Y-46001204D01*
X138374505Y-46001204D01*
G37*
D12*
X137900000Y-46575000D03*
G04 #@! TD*
D11*
G04 #@! TO.C,R8*
G36*
X135274505Y-46001204D02*
X135298773Y-46004804D01*
X135322572Y-46010765D01*
X135345671Y-46019030D01*
X135367850Y-46029520D01*
X135388893Y-46042132D01*
X135408599Y-46056747D01*
X135426777Y-46073223D01*
X135443253Y-46091401D01*
X135457868Y-46111107D01*
X135470480Y-46132150D01*
X135480970Y-46154329D01*
X135489235Y-46177428D01*
X135495196Y-46201227D01*
X135498796Y-46225495D01*
X135500000Y-46249999D01*
X135500000Y-46900001D01*
X135498796Y-46924505D01*
X135495196Y-46948773D01*
X135489235Y-46972572D01*
X135480970Y-46995671D01*
X135470480Y-47017850D01*
X135457868Y-47038893D01*
X135443253Y-47058599D01*
X135426777Y-47076777D01*
X135408599Y-47093253D01*
X135388893Y-47107868D01*
X135367850Y-47120480D01*
X135345671Y-47130970D01*
X135322572Y-47139235D01*
X135298773Y-47145196D01*
X135274505Y-47148796D01*
X135250001Y-47150000D01*
X134349999Y-47150000D01*
X134325495Y-47148796D01*
X134301227Y-47145196D01*
X134277428Y-47139235D01*
X134254329Y-47130970D01*
X134232150Y-47120480D01*
X134211107Y-47107868D01*
X134191401Y-47093253D01*
X134173223Y-47076777D01*
X134156747Y-47058599D01*
X134142132Y-47038893D01*
X134129520Y-47017850D01*
X134119030Y-46995671D01*
X134110765Y-46972572D01*
X134104804Y-46948773D01*
X134101204Y-46924505D01*
X134100000Y-46900001D01*
X134100000Y-46249999D01*
X134101204Y-46225495D01*
X134104804Y-46201227D01*
X134110765Y-46177428D01*
X134119030Y-46154329D01*
X134129520Y-46132150D01*
X134142132Y-46111107D01*
X134156747Y-46091401D01*
X134173223Y-46073223D01*
X134191401Y-46056747D01*
X134211107Y-46042132D01*
X134232150Y-46029520D01*
X134254329Y-46019030D01*
X134277428Y-46010765D01*
X134301227Y-46004804D01*
X134325495Y-46001204D01*
X134349999Y-46000000D01*
X135250001Y-46000000D01*
X135274505Y-46001204D01*
X135274505Y-46001204D01*
G37*
D12*
X134800000Y-46575000D03*
D11*
G36*
X135274505Y-48051204D02*
X135298773Y-48054804D01*
X135322572Y-48060765D01*
X135345671Y-48069030D01*
X135367850Y-48079520D01*
X135388893Y-48092132D01*
X135408599Y-48106747D01*
X135426777Y-48123223D01*
X135443253Y-48141401D01*
X135457868Y-48161107D01*
X135470480Y-48182150D01*
X135480970Y-48204329D01*
X135489235Y-48227428D01*
X135495196Y-48251227D01*
X135498796Y-48275495D01*
X135500000Y-48299999D01*
X135500000Y-48950001D01*
X135498796Y-48974505D01*
X135495196Y-48998773D01*
X135489235Y-49022572D01*
X135480970Y-49045671D01*
X135470480Y-49067850D01*
X135457868Y-49088893D01*
X135443253Y-49108599D01*
X135426777Y-49126777D01*
X135408599Y-49143253D01*
X135388893Y-49157868D01*
X135367850Y-49170480D01*
X135345671Y-49180970D01*
X135322572Y-49189235D01*
X135298773Y-49195196D01*
X135274505Y-49198796D01*
X135250001Y-49200000D01*
X134349999Y-49200000D01*
X134325495Y-49198796D01*
X134301227Y-49195196D01*
X134277428Y-49189235D01*
X134254329Y-49180970D01*
X134232150Y-49170480D01*
X134211107Y-49157868D01*
X134191401Y-49143253D01*
X134173223Y-49126777D01*
X134156747Y-49108599D01*
X134142132Y-49088893D01*
X134129520Y-49067850D01*
X134119030Y-49045671D01*
X134110765Y-49022572D01*
X134104804Y-48998773D01*
X134101204Y-48974505D01*
X134100000Y-48950001D01*
X134100000Y-48299999D01*
X134101204Y-48275495D01*
X134104804Y-48251227D01*
X134110765Y-48227428D01*
X134119030Y-48204329D01*
X134129520Y-48182150D01*
X134142132Y-48161107D01*
X134156747Y-48141401D01*
X134173223Y-48123223D01*
X134191401Y-48106747D01*
X134211107Y-48092132D01*
X134232150Y-48079520D01*
X134254329Y-48069030D01*
X134277428Y-48060765D01*
X134301227Y-48054804D01*
X134325495Y-48051204D01*
X134349999Y-48050000D01*
X135250001Y-48050000D01*
X135274505Y-48051204D01*
X135274505Y-48051204D01*
G37*
D12*
X134800000Y-48625000D03*
G04 #@! TD*
D13*
G04 #@! TO.C,D19*
X145200000Y-147300000D03*
X145200000Y-145550000D03*
X148700000Y-147300000D03*
X148700000Y-145550000D03*
G04 #@! TD*
G04 #@! TO.C,D20*
X176050000Y-147975000D03*
X176050000Y-146225000D03*
X179550000Y-147975000D03*
X179550000Y-146225000D03*
G04 #@! TD*
D14*
G04 #@! TO.C,D21*
X179425000Y-111150000D03*
X181175000Y-111150000D03*
X179425000Y-114650000D03*
X181175000Y-114650000D03*
G04 #@! TD*
G04 #@! TO.C,D22*
X179425000Y-72750000D03*
X181175000Y-72750000D03*
X179425000Y-76250000D03*
X181175000Y-76250000D03*
G04 #@! TD*
M02*
