G04 #@! TF.GenerationSoftware,KiCad,Pcbnew,5.0.1*
G04 #@! TF.CreationDate,2019-02-06T13:48:55+01:00*
G04 #@! TF.ProjectId,keypad,6B65797061642E6B696361645F706362,rev?*
G04 #@! TF.SameCoordinates,Original*
G04 #@! TF.FileFunction,Soldermask,Top*
G04 #@! TF.FilePolarity,Negative*
%FSLAX46Y46*%
G04 Gerber Fmt 4.6, Leading zero omitted, Abs format (unit mm)*
G04 Created by KiCad (PCBNEW 5.0.1) date Wed 06 Feb 2019 01:48:55 PM CET*
%MOMM*%
%LPD*%
G01*
G04 APERTURE LIST*
%ADD10C,0.100000*%
G04 APERTURE END LIST*
D10*
G36*
X167637128Y-141835609D02*
X168001104Y-141986372D01*
X168328679Y-142205251D01*
X168607249Y-142483821D01*
X168826128Y-142811396D01*
X168976891Y-143175372D01*
X169053750Y-143561766D01*
X169053750Y-143955734D01*
X168976891Y-144342128D01*
X168826128Y-144706104D01*
X168607249Y-145033679D01*
X168328679Y-145312249D01*
X168001104Y-145531128D01*
X167637128Y-145681891D01*
X167250734Y-145758750D01*
X166856766Y-145758750D01*
X166470372Y-145681891D01*
X166106396Y-145531128D01*
X165778821Y-145312249D01*
X165500251Y-145033679D01*
X165281372Y-144706104D01*
X165130609Y-144342128D01*
X165053750Y-143955734D01*
X165053750Y-143561766D01*
X165130609Y-143175372D01*
X165281372Y-142811396D01*
X165500251Y-142483821D01*
X165778821Y-142205251D01*
X166106396Y-141986372D01*
X166470372Y-141835609D01*
X166856766Y-141758750D01*
X167250734Y-141758750D01*
X167637128Y-141835609D01*
X167637128Y-141835609D01*
G37*
G36*
X182738573Y-142292354D02*
X182738575Y-142292355D01*
X182738576Y-142292355D01*
X183016108Y-142407312D01*
X183016109Y-142407313D01*
X183265884Y-142574207D01*
X183478293Y-142786616D01*
X183478295Y-142786619D01*
X183645188Y-143036392D01*
X183760145Y-143313924D01*
X183760146Y-143313927D01*
X183809444Y-143561766D01*
X183818750Y-143608551D01*
X183818750Y-143908949D01*
X183760145Y-144203576D01*
X183645188Y-144481108D01*
X183645187Y-144481109D01*
X183478293Y-144730884D01*
X183265884Y-144943293D01*
X183265881Y-144943295D01*
X183016108Y-145110188D01*
X182738576Y-145225145D01*
X182738575Y-145225145D01*
X182738573Y-145225146D01*
X182443951Y-145283750D01*
X182143549Y-145283750D01*
X181848927Y-145225146D01*
X181848925Y-145225145D01*
X181848924Y-145225145D01*
X181571392Y-145110188D01*
X181321619Y-144943295D01*
X181321616Y-144943293D01*
X181109207Y-144730884D01*
X180942313Y-144481109D01*
X180942312Y-144481108D01*
X180827355Y-144203576D01*
X180768750Y-143908949D01*
X180768750Y-143608551D01*
X180778056Y-143561766D01*
X180827354Y-143313927D01*
X180827355Y-143313924D01*
X180942312Y-143036392D01*
X181109205Y-142786619D01*
X181109207Y-142786616D01*
X181321616Y-142574207D01*
X181571391Y-142407313D01*
X181571392Y-142407312D01*
X181848924Y-142292355D01*
X181848925Y-142292355D01*
X181848927Y-142292354D01*
X182143549Y-142233750D01*
X182443951Y-142233750D01*
X182738573Y-142292354D01*
X182738573Y-142292354D01*
G37*
G36*
X137775128Y-139459609D02*
X138139104Y-139610372D01*
X138466679Y-139829251D01*
X138745249Y-140107821D01*
X138964128Y-140435396D01*
X139114891Y-140799372D01*
X139191750Y-141185766D01*
X139191750Y-141579734D01*
X139114891Y-141966128D01*
X138964128Y-142330104D01*
X138745249Y-142657679D01*
X138466679Y-142936249D01*
X138139104Y-143155128D01*
X137775128Y-143305891D01*
X137388734Y-143382750D01*
X136994766Y-143382750D01*
X136608372Y-143305891D01*
X136244396Y-143155128D01*
X135916821Y-142936249D01*
X135638251Y-142657679D01*
X135419372Y-142330104D01*
X135268609Y-141966128D01*
X135191750Y-141579734D01*
X135191750Y-141185766D01*
X135268609Y-140799372D01*
X135419372Y-140435396D01*
X135638251Y-140107821D01*
X135916821Y-139829251D01*
X136244396Y-139610372D01*
X136608372Y-139459609D01*
X136994766Y-139382750D01*
X137388734Y-139382750D01*
X137775128Y-139459609D01*
X137775128Y-139459609D01*
G37*
G36*
X118725128Y-139459609D02*
X119089104Y-139610372D01*
X119416679Y-139829251D01*
X119695249Y-140107821D01*
X119914128Y-140435396D01*
X120064891Y-140799372D01*
X120141750Y-141185766D01*
X120141750Y-141579734D01*
X120064891Y-141966128D01*
X119914128Y-142330104D01*
X119695249Y-142657679D01*
X119416679Y-142936249D01*
X119089104Y-143155128D01*
X118725128Y-143305891D01*
X118338734Y-143382750D01*
X117944766Y-143382750D01*
X117558372Y-143305891D01*
X117194396Y-143155128D01*
X116866821Y-142936249D01*
X116588251Y-142657679D01*
X116369372Y-142330104D01*
X116218609Y-141966128D01*
X116141750Y-141579734D01*
X116141750Y-141185766D01*
X116218609Y-140799372D01*
X116369372Y-140435396D01*
X116588251Y-140107821D01*
X116866821Y-139829251D01*
X117194396Y-139610372D01*
X117558372Y-139459609D01*
X117944766Y-139382750D01*
X118338734Y-139382750D01*
X118725128Y-139459609D01*
X118725128Y-139459609D01*
G37*
G36*
X156825128Y-139459609D02*
X157189104Y-139610372D01*
X157516679Y-139829251D01*
X157795249Y-140107821D01*
X158014128Y-140435396D01*
X158164891Y-140799372D01*
X158241750Y-141185766D01*
X158241750Y-141579734D01*
X158164891Y-141966128D01*
X158014128Y-142330104D01*
X157795249Y-142657679D01*
X157516679Y-142936249D01*
X157189104Y-143155128D01*
X156825128Y-143305891D01*
X156438734Y-143382750D01*
X156044766Y-143382750D01*
X155658372Y-143305891D01*
X155294396Y-143155128D01*
X154966821Y-142936249D01*
X154688251Y-142657679D01*
X154469372Y-142330104D01*
X154318609Y-141966128D01*
X154241750Y-141579734D01*
X154241750Y-141185766D01*
X154318609Y-140799372D01*
X154469372Y-140435396D01*
X154688251Y-140107821D01*
X154966821Y-139829251D01*
X155294396Y-139610372D01*
X155658372Y-139459609D01*
X156044766Y-139382750D01*
X156438734Y-139382750D01*
X156825128Y-139459609D01*
X156825128Y-139459609D01*
G37*
G36*
X152752607Y-137785022D02*
X152952792Y-137867941D01*
X153132963Y-137988328D01*
X153286172Y-138141537D01*
X153406559Y-138321708D01*
X153489478Y-138521893D01*
X153531750Y-138734408D01*
X153531750Y-138951092D01*
X153489478Y-139163607D01*
X153406559Y-139363792D01*
X153286172Y-139543963D01*
X153132963Y-139697172D01*
X152952792Y-139817559D01*
X152752607Y-139900478D01*
X152540092Y-139942750D01*
X152323408Y-139942750D01*
X152110893Y-139900478D01*
X151910708Y-139817559D01*
X151730537Y-139697172D01*
X151577328Y-139543963D01*
X151456941Y-139363792D01*
X151374022Y-139163607D01*
X151331750Y-138951092D01*
X151331750Y-138734408D01*
X151374022Y-138521893D01*
X151456941Y-138321708D01*
X151577328Y-138141537D01*
X151730537Y-137988328D01*
X151910708Y-137867941D01*
X152110893Y-137785022D01*
X152323408Y-137742750D01*
X152540092Y-137742750D01*
X152752607Y-137785022D01*
X152752607Y-137785022D01*
G37*
G36*
X133702607Y-137785022D02*
X133902792Y-137867941D01*
X134082963Y-137988328D01*
X134236172Y-138141537D01*
X134356559Y-138321708D01*
X134439478Y-138521893D01*
X134481750Y-138734408D01*
X134481750Y-138951092D01*
X134439478Y-139163607D01*
X134356559Y-139363792D01*
X134236172Y-139543963D01*
X134082963Y-139697172D01*
X133902792Y-139817559D01*
X133702607Y-139900478D01*
X133490092Y-139942750D01*
X133273408Y-139942750D01*
X133060893Y-139900478D01*
X132860708Y-139817559D01*
X132680537Y-139697172D01*
X132527328Y-139543963D01*
X132406941Y-139363792D01*
X132324022Y-139163607D01*
X132281750Y-138951092D01*
X132281750Y-138734408D01*
X132324022Y-138521893D01*
X132406941Y-138321708D01*
X132527328Y-138141537D01*
X132680537Y-137988328D01*
X132860708Y-137867941D01*
X133060893Y-137785022D01*
X133273408Y-137742750D01*
X133490092Y-137742750D01*
X133702607Y-137785022D01*
X133702607Y-137785022D01*
G37*
G36*
X114652607Y-137785022D02*
X114852792Y-137867941D01*
X115032963Y-137988328D01*
X115186172Y-138141537D01*
X115306559Y-138321708D01*
X115389478Y-138521893D01*
X115431750Y-138734408D01*
X115431750Y-138951092D01*
X115389478Y-139163607D01*
X115306559Y-139363792D01*
X115186172Y-139543963D01*
X115032963Y-139697172D01*
X114852792Y-139817559D01*
X114652607Y-139900478D01*
X114440092Y-139942750D01*
X114223408Y-139942750D01*
X114010893Y-139900478D01*
X113810708Y-139817559D01*
X113630537Y-139697172D01*
X113477328Y-139543963D01*
X113356941Y-139363792D01*
X113274022Y-139163607D01*
X113231750Y-138951092D01*
X113231750Y-138734408D01*
X113274022Y-138521893D01*
X113356941Y-138321708D01*
X113477328Y-138141537D01*
X113630537Y-137988328D01*
X113810708Y-137867941D01*
X114010893Y-137785022D01*
X114223408Y-137742750D01*
X114440092Y-137742750D01*
X114652607Y-137785022D01*
X114652607Y-137785022D01*
G37*
G36*
X175541684Y-136121414D02*
X175696377Y-136185490D01*
X175835597Y-136278514D01*
X175953986Y-136396903D01*
X176047010Y-136536123D01*
X176111086Y-136690816D01*
X176143750Y-136855031D01*
X176143750Y-137022469D01*
X176111086Y-137186684D01*
X176047010Y-137341377D01*
X175953986Y-137480597D01*
X175835597Y-137598986D01*
X175696377Y-137692010D01*
X175541684Y-137756086D01*
X175377469Y-137788750D01*
X175210031Y-137788750D01*
X175045816Y-137756086D01*
X174891123Y-137692010D01*
X174751903Y-137598986D01*
X174633514Y-137480597D01*
X174540490Y-137341377D01*
X174476414Y-137186684D01*
X174443750Y-137022469D01*
X174443750Y-136855031D01*
X174476414Y-136690816D01*
X174540490Y-136536123D01*
X174633514Y-136396903D01*
X174751903Y-136278514D01*
X174891123Y-136185490D01*
X175045816Y-136121414D01*
X175210031Y-136088750D01*
X175377469Y-136088750D01*
X175541684Y-136121414D01*
X175541684Y-136121414D01*
G37*
G36*
X140052607Y-135245022D02*
X140252792Y-135327941D01*
X140432963Y-135448328D01*
X140586172Y-135601537D01*
X140706559Y-135781708D01*
X140789478Y-135981893D01*
X140831750Y-136194408D01*
X140831750Y-136411092D01*
X140789478Y-136623607D01*
X140706559Y-136823792D01*
X140586172Y-137003963D01*
X140432963Y-137157172D01*
X140432960Y-137157174D01*
X140432959Y-137157175D01*
X140252795Y-137277557D01*
X140252792Y-137277559D01*
X140052607Y-137360478D01*
X139840092Y-137402750D01*
X139623408Y-137402750D01*
X139410893Y-137360478D01*
X139210708Y-137277559D01*
X139210705Y-137277557D01*
X139030541Y-137157175D01*
X139030540Y-137157174D01*
X139030537Y-137157172D01*
X138877328Y-137003963D01*
X138756941Y-136823792D01*
X138674022Y-136623607D01*
X138631750Y-136411092D01*
X138631750Y-136194408D01*
X138674022Y-135981893D01*
X138756941Y-135781708D01*
X138877328Y-135601537D01*
X139030537Y-135448328D01*
X139210708Y-135327941D01*
X139410893Y-135245022D01*
X139623408Y-135202750D01*
X139840092Y-135202750D01*
X140052607Y-135245022D01*
X140052607Y-135245022D01*
G37*
G36*
X159102607Y-135245022D02*
X159302792Y-135327941D01*
X159482963Y-135448328D01*
X159636172Y-135601537D01*
X159756559Y-135781708D01*
X159839478Y-135981893D01*
X159881750Y-136194408D01*
X159881750Y-136411092D01*
X159839478Y-136623607D01*
X159756559Y-136823792D01*
X159636172Y-137003963D01*
X159482963Y-137157172D01*
X159482960Y-137157174D01*
X159482959Y-137157175D01*
X159302795Y-137277557D01*
X159302792Y-137277559D01*
X159102607Y-137360478D01*
X158890092Y-137402750D01*
X158673408Y-137402750D01*
X158460893Y-137360478D01*
X158260708Y-137277559D01*
X158260705Y-137277557D01*
X158080541Y-137157175D01*
X158080540Y-137157174D01*
X158080537Y-137157172D01*
X157927328Y-137003963D01*
X157806941Y-136823792D01*
X157724022Y-136623607D01*
X157681750Y-136411092D01*
X157681750Y-136194408D01*
X157724022Y-135981893D01*
X157806941Y-135781708D01*
X157927328Y-135601537D01*
X158080537Y-135448328D01*
X158260708Y-135327941D01*
X158460893Y-135245022D01*
X158673408Y-135202750D01*
X158890092Y-135202750D01*
X159102607Y-135245022D01*
X159102607Y-135245022D01*
G37*
G36*
X121002607Y-135245022D02*
X121202792Y-135327941D01*
X121382963Y-135448328D01*
X121536172Y-135601537D01*
X121656559Y-135781708D01*
X121739478Y-135981893D01*
X121781750Y-136194408D01*
X121781750Y-136411092D01*
X121739478Y-136623607D01*
X121656559Y-136823792D01*
X121536172Y-137003963D01*
X121382963Y-137157172D01*
X121382960Y-137157174D01*
X121382959Y-137157175D01*
X121202795Y-137277557D01*
X121202792Y-137277559D01*
X121002607Y-137360478D01*
X120790092Y-137402750D01*
X120573408Y-137402750D01*
X120360893Y-137360478D01*
X120160708Y-137277559D01*
X120160705Y-137277557D01*
X119980541Y-137157175D01*
X119980540Y-137157174D01*
X119980537Y-137157172D01*
X119827328Y-137003963D01*
X119706941Y-136823792D01*
X119624022Y-136623607D01*
X119581750Y-136411092D01*
X119581750Y-136194408D01*
X119624022Y-135981893D01*
X119706941Y-135781708D01*
X119827328Y-135601537D01*
X119980537Y-135448328D01*
X120160708Y-135327941D01*
X120360893Y-135245022D01*
X120573408Y-135202750D01*
X120790092Y-135202750D01*
X121002607Y-135245022D01*
X121002607Y-135245022D01*
G37*
G36*
X180694607Y-133341022D02*
X180894792Y-133423941D01*
X181074963Y-133544328D01*
X181228172Y-133697537D01*
X181348559Y-133877708D01*
X181431478Y-134077893D01*
X181473750Y-134290408D01*
X181473750Y-134507092D01*
X181431478Y-134719607D01*
X181348559Y-134919792D01*
X181228172Y-135099963D01*
X181074963Y-135253172D01*
X180894792Y-135373559D01*
X180694607Y-135456478D01*
X180482092Y-135498750D01*
X180265408Y-135498750D01*
X180052893Y-135456478D01*
X179852708Y-135373559D01*
X179672537Y-135253172D01*
X179519328Y-135099963D01*
X179398941Y-134919792D01*
X179316022Y-134719607D01*
X179273750Y-134507092D01*
X179273750Y-134290408D01*
X179316022Y-134077893D01*
X179398941Y-133877708D01*
X179519328Y-133697537D01*
X179672537Y-133544328D01*
X179852708Y-133423941D01*
X180052893Y-133341022D01*
X180265408Y-133298750D01*
X180482092Y-133298750D01*
X180694607Y-133341022D01*
X180694607Y-133341022D01*
G37*
G36*
X175877128Y-129935609D02*
X176241104Y-130086372D01*
X176568679Y-130305251D01*
X176847249Y-130583821D01*
X177066128Y-130911396D01*
X177216891Y-131275372D01*
X177293750Y-131661766D01*
X177293750Y-132055734D01*
X177216891Y-132442128D01*
X177066128Y-132806104D01*
X176847249Y-133133679D01*
X176568679Y-133412249D01*
X176241104Y-133631128D01*
X175877128Y-133781891D01*
X175490734Y-133858750D01*
X175096766Y-133858750D01*
X174710372Y-133781891D01*
X174346396Y-133631128D01*
X174018821Y-133412249D01*
X173740251Y-133133679D01*
X173521372Y-132806104D01*
X173370609Y-132442128D01*
X173293750Y-132055734D01*
X173293750Y-131661766D01*
X173370609Y-131275372D01*
X173521372Y-130911396D01*
X173740251Y-130583821D01*
X174018821Y-130305251D01*
X174346396Y-130086372D01*
X174710372Y-129935609D01*
X175096766Y-129858750D01*
X175490734Y-129858750D01*
X175877128Y-129935609D01*
X175877128Y-129935609D01*
G37*
G36*
X128020857Y-130742272D02*
X128221042Y-130825191D01*
X128221045Y-130825193D01*
X128350057Y-130911396D01*
X128401213Y-130945578D01*
X128554422Y-131098787D01*
X128674809Y-131278958D01*
X128757728Y-131479143D01*
X128800000Y-131691658D01*
X128800000Y-131908342D01*
X128757728Y-132120857D01*
X128674809Y-132321042D01*
X128554422Y-132501213D01*
X128401213Y-132654422D01*
X128221042Y-132774809D01*
X128020857Y-132857728D01*
X127808342Y-132900000D01*
X127591658Y-132900000D01*
X127379143Y-132857728D01*
X127178958Y-132774809D01*
X126998787Y-132654422D01*
X126845578Y-132501213D01*
X126725191Y-132321042D01*
X126642272Y-132120857D01*
X126600000Y-131908342D01*
X126600000Y-131691658D01*
X126642272Y-131479143D01*
X126725191Y-131278958D01*
X126845578Y-131098787D01*
X126998787Y-130945578D01*
X127049944Y-130911396D01*
X127178955Y-130825193D01*
X127178958Y-130825191D01*
X127379143Y-130742272D01*
X127591658Y-130700000D01*
X127808342Y-130700000D01*
X128020857Y-130742272D01*
X128020857Y-130742272D01*
G37*
G36*
X178154607Y-126991022D02*
X178354792Y-127073941D01*
X178534963Y-127194328D01*
X178688172Y-127347537D01*
X178808559Y-127527708D01*
X178891478Y-127727893D01*
X178933750Y-127940408D01*
X178933750Y-128157092D01*
X178891478Y-128369607D01*
X178808559Y-128569792D01*
X178688172Y-128749963D01*
X178534963Y-128903172D01*
X178354792Y-129023559D01*
X178154607Y-129106478D01*
X177942092Y-129148750D01*
X177725408Y-129148750D01*
X177512893Y-129106478D01*
X177312708Y-129023559D01*
X177132537Y-128903172D01*
X176979328Y-128749963D01*
X176858941Y-128569792D01*
X176776022Y-128369607D01*
X176733750Y-128157092D01*
X176733750Y-127940408D01*
X176776022Y-127727893D01*
X176858941Y-127527708D01*
X176979328Y-127347537D01*
X177132537Y-127194328D01*
X177312708Y-127073941D01*
X177512893Y-126991022D01*
X177725408Y-126948750D01*
X177942092Y-126948750D01*
X178154607Y-126991022D01*
X178154607Y-126991022D01*
G37*
G36*
X175541684Y-125961414D02*
X175696377Y-126025490D01*
X175835597Y-126118514D01*
X175953986Y-126236903D01*
X176047010Y-126376123D01*
X176111086Y-126530816D01*
X176143750Y-126695031D01*
X176143750Y-126862469D01*
X176111086Y-127026684D01*
X176047010Y-127181377D01*
X175953986Y-127320597D01*
X175835597Y-127438986D01*
X175696377Y-127532010D01*
X175541684Y-127596086D01*
X175377469Y-127628750D01*
X175210031Y-127628750D01*
X175045816Y-127596086D01*
X174891123Y-127532010D01*
X174751903Y-127438986D01*
X174633514Y-127320597D01*
X174540490Y-127181377D01*
X174476414Y-127026684D01*
X174443750Y-126862469D01*
X174443750Y-126695031D01*
X174476414Y-126530816D01*
X174540490Y-126376123D01*
X174633514Y-126236903D01*
X174751903Y-126118514D01*
X174891123Y-126025490D01*
X175045816Y-125961414D01*
X175210031Y-125928750D01*
X175377469Y-125928750D01*
X175541684Y-125961414D01*
X175541684Y-125961414D01*
G37*
G36*
X156825128Y-120409609D02*
X157189104Y-120560372D01*
X157516679Y-120779251D01*
X157795249Y-121057821D01*
X158014128Y-121385396D01*
X158164891Y-121749372D01*
X158241750Y-122135766D01*
X158241750Y-122529734D01*
X158164891Y-122916128D01*
X158014128Y-123280104D01*
X157795249Y-123607679D01*
X157516679Y-123886249D01*
X157189104Y-124105128D01*
X156825128Y-124255891D01*
X156438734Y-124332750D01*
X156044766Y-124332750D01*
X155658372Y-124255891D01*
X155294396Y-124105128D01*
X154966821Y-123886249D01*
X154688251Y-123607679D01*
X154469372Y-123280104D01*
X154318609Y-122916128D01*
X154241750Y-122529734D01*
X154241750Y-122135766D01*
X154318609Y-121749372D01*
X154469372Y-121385396D01*
X154688251Y-121057821D01*
X154966821Y-120779251D01*
X155294396Y-120560372D01*
X155658372Y-120409609D01*
X156044766Y-120332750D01*
X156438734Y-120332750D01*
X156825128Y-120409609D01*
X156825128Y-120409609D01*
G37*
G36*
X118725128Y-120409609D02*
X119089104Y-120560372D01*
X119416679Y-120779251D01*
X119695249Y-121057821D01*
X119914128Y-121385396D01*
X120064891Y-121749372D01*
X120141750Y-122135766D01*
X120141750Y-122529734D01*
X120064891Y-122916128D01*
X119914128Y-123280104D01*
X119695249Y-123607679D01*
X119416679Y-123886249D01*
X119089104Y-124105128D01*
X118725128Y-124255891D01*
X118338734Y-124332750D01*
X117944766Y-124332750D01*
X117558372Y-124255891D01*
X117194396Y-124105128D01*
X116866821Y-123886249D01*
X116588251Y-123607679D01*
X116369372Y-123280104D01*
X116218609Y-122916128D01*
X116141750Y-122529734D01*
X116141750Y-122135766D01*
X116218609Y-121749372D01*
X116369372Y-121385396D01*
X116588251Y-121057821D01*
X116866821Y-120779251D01*
X117194396Y-120560372D01*
X117558372Y-120409609D01*
X117944766Y-120332750D01*
X118338734Y-120332750D01*
X118725128Y-120409609D01*
X118725128Y-120409609D01*
G37*
G36*
X137775128Y-120409609D02*
X138139104Y-120560372D01*
X138466679Y-120779251D01*
X138745249Y-121057821D01*
X138964128Y-121385396D01*
X139114891Y-121749372D01*
X139191750Y-122135766D01*
X139191750Y-122529734D01*
X139114891Y-122916128D01*
X138964128Y-123280104D01*
X138745249Y-123607679D01*
X138466679Y-123886249D01*
X138139104Y-124105128D01*
X137775128Y-124255891D01*
X137388734Y-124332750D01*
X136994766Y-124332750D01*
X136608372Y-124255891D01*
X136244396Y-124105128D01*
X135916821Y-123886249D01*
X135638251Y-123607679D01*
X135419372Y-123280104D01*
X135268609Y-122916128D01*
X135191750Y-122529734D01*
X135191750Y-122135766D01*
X135268609Y-121749372D01*
X135419372Y-121385396D01*
X135638251Y-121057821D01*
X135916821Y-120779251D01*
X136244396Y-120560372D01*
X136608372Y-120409609D01*
X136994766Y-120332750D01*
X137388734Y-120332750D01*
X137775128Y-120409609D01*
X137775128Y-120409609D01*
G37*
G36*
X167637128Y-118035609D02*
X168001104Y-118186372D01*
X168328679Y-118405251D01*
X168607249Y-118683821D01*
X168826128Y-119011396D01*
X168976891Y-119375372D01*
X169053750Y-119761766D01*
X169053750Y-120155734D01*
X168976891Y-120542128D01*
X168826128Y-120906104D01*
X168607249Y-121233679D01*
X168328679Y-121512249D01*
X168001104Y-121731128D01*
X167637128Y-121881891D01*
X167250734Y-121958750D01*
X166856766Y-121958750D01*
X166470372Y-121881891D01*
X166106396Y-121731128D01*
X165778821Y-121512249D01*
X165500251Y-121233679D01*
X165281372Y-120906104D01*
X165130609Y-120542128D01*
X165053750Y-120155734D01*
X165053750Y-119761766D01*
X165130609Y-119375372D01*
X165281372Y-119011396D01*
X165500251Y-118683821D01*
X165778821Y-118405251D01*
X166106396Y-118186372D01*
X166470372Y-118035609D01*
X166856766Y-117958750D01*
X167250734Y-117958750D01*
X167637128Y-118035609D01*
X167637128Y-118035609D01*
G37*
G36*
X182738573Y-118492354D02*
X182738575Y-118492355D01*
X182738576Y-118492355D01*
X183016108Y-118607312D01*
X183207241Y-118735023D01*
X183265884Y-118774207D01*
X183478293Y-118986616D01*
X183478295Y-118986619D01*
X183645188Y-119236392D01*
X183659815Y-119271705D01*
X183760146Y-119513927D01*
X183818750Y-119808549D01*
X183818750Y-120108951D01*
X183774234Y-120332750D01*
X183760145Y-120403576D01*
X183645188Y-120681108D01*
X183503773Y-120892750D01*
X183478293Y-120930884D01*
X183265884Y-121143293D01*
X183265881Y-121143295D01*
X183016108Y-121310188D01*
X182738576Y-121425145D01*
X182738575Y-121425145D01*
X182738573Y-121425146D01*
X182443951Y-121483750D01*
X182143549Y-121483750D01*
X181848927Y-121425146D01*
X181848925Y-121425145D01*
X181848924Y-121425145D01*
X181571392Y-121310188D01*
X181321619Y-121143295D01*
X181321616Y-121143293D01*
X181109207Y-120930884D01*
X181083727Y-120892750D01*
X180942312Y-120681108D01*
X180827355Y-120403576D01*
X180813267Y-120332750D01*
X180768750Y-120108951D01*
X180768750Y-119808549D01*
X180827354Y-119513927D01*
X180927685Y-119271705D01*
X180942312Y-119236392D01*
X181109205Y-118986619D01*
X181109207Y-118986616D01*
X181321616Y-118774207D01*
X181380259Y-118735023D01*
X181571392Y-118607312D01*
X181848924Y-118492355D01*
X181848925Y-118492355D01*
X181848927Y-118492354D01*
X182143549Y-118433750D01*
X182443951Y-118433750D01*
X182738573Y-118492354D01*
X182738573Y-118492354D01*
G37*
G36*
X114652607Y-118735022D02*
X114852792Y-118817941D01*
X115032963Y-118938328D01*
X115186172Y-119091537D01*
X115186174Y-119091540D01*
X115186175Y-119091541D01*
X115306557Y-119271705D01*
X115306559Y-119271708D01*
X115389478Y-119471893D01*
X115431750Y-119684408D01*
X115431750Y-119901092D01*
X115389478Y-120113607D01*
X115306559Y-120313792D01*
X115186172Y-120493963D01*
X115032963Y-120647172D01*
X115032960Y-120647174D01*
X115032959Y-120647175D01*
X114982173Y-120681109D01*
X114852792Y-120767559D01*
X114652607Y-120850478D01*
X114440092Y-120892750D01*
X114223408Y-120892750D01*
X114010893Y-120850478D01*
X113810708Y-120767559D01*
X113681327Y-120681109D01*
X113630541Y-120647175D01*
X113630540Y-120647174D01*
X113630537Y-120647172D01*
X113477328Y-120493963D01*
X113356941Y-120313792D01*
X113274022Y-120113607D01*
X113231750Y-119901092D01*
X113231750Y-119684408D01*
X113274022Y-119471893D01*
X113356941Y-119271708D01*
X113356943Y-119271705D01*
X113477325Y-119091541D01*
X113477326Y-119091540D01*
X113477328Y-119091537D01*
X113630537Y-118938328D01*
X113810708Y-118817941D01*
X114010893Y-118735022D01*
X114223408Y-118692750D01*
X114440092Y-118692750D01*
X114652607Y-118735022D01*
X114652607Y-118735022D01*
G37*
G36*
X152752607Y-118735022D02*
X152952792Y-118817941D01*
X153132963Y-118938328D01*
X153286172Y-119091537D01*
X153286174Y-119091540D01*
X153286175Y-119091541D01*
X153406557Y-119271705D01*
X153406559Y-119271708D01*
X153489478Y-119471893D01*
X153531750Y-119684408D01*
X153531750Y-119901092D01*
X153489478Y-120113607D01*
X153406559Y-120313792D01*
X153286172Y-120493963D01*
X153132963Y-120647172D01*
X153132960Y-120647174D01*
X153132959Y-120647175D01*
X153082173Y-120681109D01*
X152952792Y-120767559D01*
X152752607Y-120850478D01*
X152540092Y-120892750D01*
X152323408Y-120892750D01*
X152110893Y-120850478D01*
X151910708Y-120767559D01*
X151781327Y-120681109D01*
X151730541Y-120647175D01*
X151730540Y-120647174D01*
X151730537Y-120647172D01*
X151577328Y-120493963D01*
X151456941Y-120313792D01*
X151374022Y-120113607D01*
X151331750Y-119901092D01*
X151331750Y-119684408D01*
X151374022Y-119471893D01*
X151456941Y-119271708D01*
X151456943Y-119271705D01*
X151577325Y-119091541D01*
X151577326Y-119091540D01*
X151577328Y-119091537D01*
X151730537Y-118938328D01*
X151910708Y-118817941D01*
X152110893Y-118735022D01*
X152323408Y-118692750D01*
X152540092Y-118692750D01*
X152752607Y-118735022D01*
X152752607Y-118735022D01*
G37*
G36*
X133702607Y-118735022D02*
X133902792Y-118817941D01*
X134082963Y-118938328D01*
X134236172Y-119091537D01*
X134236174Y-119091540D01*
X134236175Y-119091541D01*
X134356557Y-119271705D01*
X134356559Y-119271708D01*
X134439478Y-119471893D01*
X134481750Y-119684408D01*
X134481750Y-119901092D01*
X134439478Y-120113607D01*
X134356559Y-120313792D01*
X134236172Y-120493963D01*
X134082963Y-120647172D01*
X134082960Y-120647174D01*
X134082959Y-120647175D01*
X134032173Y-120681109D01*
X133902792Y-120767559D01*
X133702607Y-120850478D01*
X133490092Y-120892750D01*
X133273408Y-120892750D01*
X133060893Y-120850478D01*
X132860708Y-120767559D01*
X132731327Y-120681109D01*
X132680541Y-120647175D01*
X132680540Y-120647174D01*
X132680537Y-120647172D01*
X132527328Y-120493963D01*
X132406941Y-120313792D01*
X132324022Y-120113607D01*
X132281750Y-119901092D01*
X132281750Y-119684408D01*
X132324022Y-119471893D01*
X132406941Y-119271708D01*
X132406943Y-119271705D01*
X132527325Y-119091541D01*
X132527326Y-119091540D01*
X132527328Y-119091537D01*
X132680537Y-118938328D01*
X132860708Y-118817941D01*
X133060893Y-118735022D01*
X133273408Y-118692750D01*
X133490092Y-118692750D01*
X133702607Y-118735022D01*
X133702607Y-118735022D01*
G37*
G36*
X121002607Y-116195022D02*
X121202792Y-116277941D01*
X121382963Y-116398328D01*
X121536172Y-116551537D01*
X121656559Y-116731708D01*
X121739478Y-116931893D01*
X121781750Y-117144408D01*
X121781750Y-117361092D01*
X121739478Y-117573607D01*
X121656559Y-117773792D01*
X121536172Y-117953963D01*
X121382963Y-118107172D01*
X121382960Y-118107174D01*
X121382959Y-118107175D01*
X121264431Y-118186373D01*
X121202792Y-118227559D01*
X121002607Y-118310478D01*
X120790092Y-118352750D01*
X120573408Y-118352750D01*
X120360893Y-118310478D01*
X120160708Y-118227559D01*
X120099069Y-118186373D01*
X119980541Y-118107175D01*
X119980540Y-118107174D01*
X119980537Y-118107172D01*
X119827328Y-117953963D01*
X119706941Y-117773792D01*
X119624022Y-117573607D01*
X119581750Y-117361092D01*
X119581750Y-117144408D01*
X119624022Y-116931893D01*
X119706941Y-116731708D01*
X119827328Y-116551537D01*
X119980537Y-116398328D01*
X120160708Y-116277941D01*
X120360893Y-116195022D01*
X120573408Y-116152750D01*
X120790092Y-116152750D01*
X121002607Y-116195022D01*
X121002607Y-116195022D01*
G37*
G36*
X140052607Y-116195022D02*
X140252792Y-116277941D01*
X140432963Y-116398328D01*
X140586172Y-116551537D01*
X140706559Y-116731708D01*
X140789478Y-116931893D01*
X140831750Y-117144408D01*
X140831750Y-117361092D01*
X140789478Y-117573607D01*
X140706559Y-117773792D01*
X140586172Y-117953963D01*
X140432963Y-118107172D01*
X140432960Y-118107174D01*
X140432959Y-118107175D01*
X140314431Y-118186373D01*
X140252792Y-118227559D01*
X140052607Y-118310478D01*
X139840092Y-118352750D01*
X139623408Y-118352750D01*
X139410893Y-118310478D01*
X139210708Y-118227559D01*
X139149069Y-118186373D01*
X139030541Y-118107175D01*
X139030540Y-118107174D01*
X139030537Y-118107172D01*
X138877328Y-117953963D01*
X138756941Y-117773792D01*
X138674022Y-117573607D01*
X138631750Y-117361092D01*
X138631750Y-117144408D01*
X138674022Y-116931893D01*
X138756941Y-116731708D01*
X138877328Y-116551537D01*
X139030537Y-116398328D01*
X139210708Y-116277941D01*
X139410893Y-116195022D01*
X139623408Y-116152750D01*
X139840092Y-116152750D01*
X140052607Y-116195022D01*
X140052607Y-116195022D01*
G37*
G36*
X159102607Y-116195022D02*
X159302792Y-116277941D01*
X159482963Y-116398328D01*
X159636172Y-116551537D01*
X159756559Y-116731708D01*
X159839478Y-116931893D01*
X159881750Y-117144408D01*
X159881750Y-117361092D01*
X159839478Y-117573607D01*
X159756559Y-117773792D01*
X159636172Y-117953963D01*
X159482963Y-118107172D01*
X159482960Y-118107174D01*
X159482959Y-118107175D01*
X159364431Y-118186373D01*
X159302792Y-118227559D01*
X159102607Y-118310478D01*
X158890092Y-118352750D01*
X158673408Y-118352750D01*
X158460893Y-118310478D01*
X158260708Y-118227559D01*
X158199069Y-118186373D01*
X158080541Y-118107175D01*
X158080540Y-118107174D01*
X158080537Y-118107172D01*
X157927328Y-117953963D01*
X157806941Y-117773792D01*
X157724022Y-117573607D01*
X157681750Y-117361092D01*
X157681750Y-117144408D01*
X157724022Y-116931893D01*
X157806941Y-116731708D01*
X157927328Y-116551537D01*
X158080537Y-116398328D01*
X158260708Y-116277941D01*
X158460893Y-116195022D01*
X158673408Y-116152750D01*
X158890092Y-116152750D01*
X159102607Y-116195022D01*
X159102607Y-116195022D01*
G37*
G36*
X166120857Y-111642272D02*
X166321042Y-111725191D01*
X166501213Y-111845578D01*
X166654422Y-111998787D01*
X166774809Y-112178958D01*
X166857728Y-112379143D01*
X166900000Y-112591658D01*
X166900000Y-112808342D01*
X166857728Y-113020857D01*
X166774809Y-113221042D01*
X166654422Y-113401213D01*
X166501213Y-113554422D01*
X166321042Y-113674809D01*
X166120857Y-113757728D01*
X165908342Y-113800000D01*
X165691658Y-113800000D01*
X165479143Y-113757728D01*
X165278958Y-113674809D01*
X165098787Y-113554422D01*
X164945578Y-113401213D01*
X164825191Y-113221042D01*
X164742272Y-113020857D01*
X164700000Y-112808342D01*
X164700000Y-112591658D01*
X164742272Y-112379143D01*
X164825191Y-112178958D01*
X164945578Y-111998787D01*
X165098787Y-111845578D01*
X165278958Y-111725191D01*
X165479143Y-111642272D01*
X165691658Y-111600000D01*
X165908342Y-111600000D01*
X166120857Y-111642272D01*
X166120857Y-111642272D01*
G37*
G36*
X137775128Y-101359609D02*
X138139104Y-101510372D01*
X138466679Y-101729251D01*
X138745249Y-102007821D01*
X138964128Y-102335396D01*
X139114891Y-102699372D01*
X139191750Y-103085766D01*
X139191750Y-103479734D01*
X139114891Y-103866128D01*
X138964128Y-104230104D01*
X138745249Y-104557679D01*
X138466679Y-104836249D01*
X138139104Y-105055128D01*
X137775128Y-105205891D01*
X137388734Y-105282750D01*
X136994766Y-105282750D01*
X136608372Y-105205891D01*
X136244396Y-105055128D01*
X135916821Y-104836249D01*
X135638251Y-104557679D01*
X135419372Y-104230104D01*
X135268609Y-103866128D01*
X135191750Y-103479734D01*
X135191750Y-103085766D01*
X135268609Y-102699372D01*
X135419372Y-102335396D01*
X135638251Y-102007821D01*
X135916821Y-101729251D01*
X136244396Y-101510372D01*
X136608372Y-101359609D01*
X136994766Y-101282750D01*
X137388734Y-101282750D01*
X137775128Y-101359609D01*
X137775128Y-101359609D01*
G37*
G36*
X156825128Y-101359609D02*
X157189104Y-101510372D01*
X157516679Y-101729251D01*
X157795249Y-102007821D01*
X158014128Y-102335396D01*
X158164891Y-102699372D01*
X158241750Y-103085766D01*
X158241750Y-103479734D01*
X158164891Y-103866128D01*
X158014128Y-104230104D01*
X157795249Y-104557679D01*
X157516679Y-104836249D01*
X157189104Y-105055128D01*
X156825128Y-105205891D01*
X156438734Y-105282750D01*
X156044766Y-105282750D01*
X155658372Y-105205891D01*
X155294396Y-105055128D01*
X154966821Y-104836249D01*
X154688251Y-104557679D01*
X154469372Y-104230104D01*
X154318609Y-103866128D01*
X154241750Y-103479734D01*
X154241750Y-103085766D01*
X154318609Y-102699372D01*
X154469372Y-102335396D01*
X154688251Y-102007821D01*
X154966821Y-101729251D01*
X155294396Y-101510372D01*
X155658372Y-101359609D01*
X156044766Y-101282750D01*
X156438734Y-101282750D01*
X156825128Y-101359609D01*
X156825128Y-101359609D01*
G37*
G36*
X118725128Y-101359609D02*
X119089104Y-101510372D01*
X119416679Y-101729251D01*
X119695249Y-102007821D01*
X119914128Y-102335396D01*
X120064891Y-102699372D01*
X120141750Y-103085766D01*
X120141750Y-103479734D01*
X120064891Y-103866128D01*
X119914128Y-104230104D01*
X119695249Y-104557679D01*
X119416679Y-104836249D01*
X119089104Y-105055128D01*
X118725128Y-105205891D01*
X118338734Y-105282750D01*
X117944766Y-105282750D01*
X117558372Y-105205891D01*
X117194396Y-105055128D01*
X116866821Y-104836249D01*
X116588251Y-104557679D01*
X116369372Y-104230104D01*
X116218609Y-103866128D01*
X116141750Y-103479734D01*
X116141750Y-103085766D01*
X116218609Y-102699372D01*
X116369372Y-102335396D01*
X116588251Y-102007821D01*
X116866821Y-101729251D01*
X117194396Y-101510372D01*
X117558372Y-101359609D01*
X117944766Y-101282750D01*
X118338734Y-101282750D01*
X118725128Y-101359609D01*
X118725128Y-101359609D01*
G37*
G36*
X175875128Y-101359609D02*
X176239104Y-101510372D01*
X176566679Y-101729251D01*
X176845249Y-102007821D01*
X177064128Y-102335396D01*
X177214891Y-102699372D01*
X177291750Y-103085766D01*
X177291750Y-103479734D01*
X177214891Y-103866128D01*
X177064128Y-104230104D01*
X176845249Y-104557679D01*
X176566679Y-104836249D01*
X176239104Y-105055128D01*
X175875128Y-105205891D01*
X175488734Y-105282750D01*
X175094766Y-105282750D01*
X174708372Y-105205891D01*
X174344396Y-105055128D01*
X174016821Y-104836249D01*
X173738251Y-104557679D01*
X173519372Y-104230104D01*
X173368609Y-103866128D01*
X173291750Y-103479734D01*
X173291750Y-103085766D01*
X173368609Y-102699372D01*
X173519372Y-102335396D01*
X173738251Y-102007821D01*
X174016821Y-101729251D01*
X174344396Y-101510372D01*
X174708372Y-101359609D01*
X175094766Y-101282750D01*
X175488734Y-101282750D01*
X175875128Y-101359609D01*
X175875128Y-101359609D01*
G37*
G36*
X171802607Y-99685022D02*
X172002792Y-99767941D01*
X172182963Y-99888328D01*
X172336172Y-100041537D01*
X172456559Y-100221708D01*
X172539478Y-100421893D01*
X172581750Y-100634408D01*
X172581750Y-100851092D01*
X172539478Y-101063607D01*
X172456559Y-101263792D01*
X172336172Y-101443963D01*
X172182963Y-101597172D01*
X172002792Y-101717559D01*
X171802607Y-101800478D01*
X171590092Y-101842750D01*
X171373408Y-101842750D01*
X171160893Y-101800478D01*
X170960708Y-101717559D01*
X170780537Y-101597172D01*
X170627328Y-101443963D01*
X170506941Y-101263792D01*
X170424022Y-101063607D01*
X170381750Y-100851092D01*
X170381750Y-100634408D01*
X170424022Y-100421893D01*
X170506941Y-100221708D01*
X170627328Y-100041537D01*
X170780537Y-99888328D01*
X170960708Y-99767941D01*
X171160893Y-99685022D01*
X171373408Y-99642750D01*
X171590092Y-99642750D01*
X171802607Y-99685022D01*
X171802607Y-99685022D01*
G37*
G36*
X114652607Y-99685022D02*
X114852792Y-99767941D01*
X115032963Y-99888328D01*
X115186172Y-100041537D01*
X115306559Y-100221708D01*
X115389478Y-100421893D01*
X115431750Y-100634408D01*
X115431750Y-100851092D01*
X115389478Y-101063607D01*
X115306559Y-101263792D01*
X115186172Y-101443963D01*
X115032963Y-101597172D01*
X114852792Y-101717559D01*
X114652607Y-101800478D01*
X114440092Y-101842750D01*
X114223408Y-101842750D01*
X114010893Y-101800478D01*
X113810708Y-101717559D01*
X113630537Y-101597172D01*
X113477328Y-101443963D01*
X113356941Y-101263792D01*
X113274022Y-101063607D01*
X113231750Y-100851092D01*
X113231750Y-100634408D01*
X113274022Y-100421893D01*
X113356941Y-100221708D01*
X113477328Y-100041537D01*
X113630537Y-99888328D01*
X113810708Y-99767941D01*
X114010893Y-99685022D01*
X114223408Y-99642750D01*
X114440092Y-99642750D01*
X114652607Y-99685022D01*
X114652607Y-99685022D01*
G37*
G36*
X133702607Y-99685022D02*
X133902792Y-99767941D01*
X134082963Y-99888328D01*
X134236172Y-100041537D01*
X134356559Y-100221708D01*
X134439478Y-100421893D01*
X134481750Y-100634408D01*
X134481750Y-100851092D01*
X134439478Y-101063607D01*
X134356559Y-101263792D01*
X134236172Y-101443963D01*
X134082963Y-101597172D01*
X133902792Y-101717559D01*
X133702607Y-101800478D01*
X133490092Y-101842750D01*
X133273408Y-101842750D01*
X133060893Y-101800478D01*
X132860708Y-101717559D01*
X132680537Y-101597172D01*
X132527328Y-101443963D01*
X132406941Y-101263792D01*
X132324022Y-101063607D01*
X132281750Y-100851092D01*
X132281750Y-100634408D01*
X132324022Y-100421893D01*
X132406941Y-100221708D01*
X132527328Y-100041537D01*
X132680537Y-99888328D01*
X132860708Y-99767941D01*
X133060893Y-99685022D01*
X133273408Y-99642750D01*
X133490092Y-99642750D01*
X133702607Y-99685022D01*
X133702607Y-99685022D01*
G37*
G36*
X152752607Y-99685022D02*
X152952792Y-99767941D01*
X153132963Y-99888328D01*
X153286172Y-100041537D01*
X153406559Y-100221708D01*
X153489478Y-100421893D01*
X153531750Y-100634408D01*
X153531750Y-100851092D01*
X153489478Y-101063607D01*
X153406559Y-101263792D01*
X153286172Y-101443963D01*
X153132963Y-101597172D01*
X152952792Y-101717559D01*
X152752607Y-101800478D01*
X152540092Y-101842750D01*
X152323408Y-101842750D01*
X152110893Y-101800478D01*
X151910708Y-101717559D01*
X151730537Y-101597172D01*
X151577328Y-101443963D01*
X151456941Y-101263792D01*
X151374022Y-101063607D01*
X151331750Y-100851092D01*
X151331750Y-100634408D01*
X151374022Y-100421893D01*
X151456941Y-100221708D01*
X151577328Y-100041537D01*
X151730537Y-99888328D01*
X151910708Y-99767941D01*
X152110893Y-99685022D01*
X152323408Y-99642750D01*
X152540092Y-99642750D01*
X152752607Y-99685022D01*
X152752607Y-99685022D01*
G37*
G36*
X140052607Y-97145022D02*
X140252792Y-97227941D01*
X140432963Y-97348328D01*
X140586172Y-97501537D01*
X140706559Y-97681708D01*
X140789478Y-97881893D01*
X140831750Y-98094408D01*
X140831750Y-98311092D01*
X140789478Y-98523607D01*
X140706559Y-98723792D01*
X140586172Y-98903963D01*
X140432963Y-99057172D01*
X140252792Y-99177559D01*
X140052607Y-99260478D01*
X139840092Y-99302750D01*
X139623408Y-99302750D01*
X139410893Y-99260478D01*
X139210708Y-99177559D01*
X139030537Y-99057172D01*
X138877328Y-98903963D01*
X138756941Y-98723792D01*
X138674022Y-98523607D01*
X138631750Y-98311092D01*
X138631750Y-98094408D01*
X138674022Y-97881893D01*
X138756941Y-97681708D01*
X138877328Y-97501537D01*
X139030537Y-97348328D01*
X139210708Y-97227941D01*
X139410893Y-97145022D01*
X139623408Y-97102750D01*
X139840092Y-97102750D01*
X140052607Y-97145022D01*
X140052607Y-97145022D01*
G37*
G36*
X121002607Y-97145022D02*
X121202792Y-97227941D01*
X121382963Y-97348328D01*
X121536172Y-97501537D01*
X121656559Y-97681708D01*
X121739478Y-97881893D01*
X121781750Y-98094408D01*
X121781750Y-98311092D01*
X121739478Y-98523607D01*
X121656559Y-98723792D01*
X121536172Y-98903963D01*
X121382963Y-99057172D01*
X121202792Y-99177559D01*
X121002607Y-99260478D01*
X120790092Y-99302750D01*
X120573408Y-99302750D01*
X120360893Y-99260478D01*
X120160708Y-99177559D01*
X119980537Y-99057172D01*
X119827328Y-98903963D01*
X119706941Y-98723792D01*
X119624022Y-98523607D01*
X119581750Y-98311092D01*
X119581750Y-98094408D01*
X119624022Y-97881893D01*
X119706941Y-97681708D01*
X119827328Y-97501537D01*
X119980537Y-97348328D01*
X120160708Y-97227941D01*
X120360893Y-97145022D01*
X120573408Y-97102750D01*
X120790092Y-97102750D01*
X121002607Y-97145022D01*
X121002607Y-97145022D01*
G37*
G36*
X159102607Y-97145022D02*
X159302792Y-97227941D01*
X159482963Y-97348328D01*
X159636172Y-97501537D01*
X159756559Y-97681708D01*
X159839478Y-97881893D01*
X159881750Y-98094408D01*
X159881750Y-98311092D01*
X159839478Y-98523607D01*
X159756559Y-98723792D01*
X159636172Y-98903963D01*
X159482963Y-99057172D01*
X159302792Y-99177559D01*
X159102607Y-99260478D01*
X158890092Y-99302750D01*
X158673408Y-99302750D01*
X158460893Y-99260478D01*
X158260708Y-99177559D01*
X158080537Y-99057172D01*
X157927328Y-98903963D01*
X157806941Y-98723792D01*
X157724022Y-98523607D01*
X157681750Y-98311092D01*
X157681750Y-98094408D01*
X157724022Y-97881893D01*
X157806941Y-97681708D01*
X157927328Y-97501537D01*
X158080537Y-97348328D01*
X158260708Y-97227941D01*
X158460893Y-97145022D01*
X158673408Y-97102750D01*
X158890092Y-97102750D01*
X159102607Y-97145022D01*
X159102607Y-97145022D01*
G37*
G36*
X178152607Y-97145022D02*
X178352792Y-97227941D01*
X178532963Y-97348328D01*
X178686172Y-97501537D01*
X178806559Y-97681708D01*
X178889478Y-97881893D01*
X178931750Y-98094408D01*
X178931750Y-98311092D01*
X178889478Y-98523607D01*
X178806559Y-98723792D01*
X178686172Y-98903963D01*
X178532963Y-99057172D01*
X178352792Y-99177559D01*
X178152607Y-99260478D01*
X177940092Y-99302750D01*
X177723408Y-99302750D01*
X177510893Y-99260478D01*
X177310708Y-99177559D01*
X177130537Y-99057172D01*
X176977328Y-98903963D01*
X176856941Y-98723792D01*
X176774022Y-98523607D01*
X176731750Y-98311092D01*
X176731750Y-98094408D01*
X176774022Y-97881893D01*
X176856941Y-97681708D01*
X176977328Y-97501537D01*
X177130537Y-97348328D01*
X177310708Y-97227941D01*
X177510893Y-97145022D01*
X177723408Y-97102750D01*
X177940092Y-97102750D01*
X178152607Y-97145022D01*
X178152607Y-97145022D01*
G37*
G36*
X147020857Y-92742272D02*
X147221042Y-92825191D01*
X147401213Y-92945578D01*
X147554422Y-93098787D01*
X147674809Y-93278958D01*
X147757728Y-93479143D01*
X147800000Y-93691658D01*
X147800000Y-93908342D01*
X147757728Y-94120857D01*
X147674809Y-94321042D01*
X147554422Y-94501213D01*
X147401213Y-94654422D01*
X147221042Y-94774809D01*
X147020857Y-94857728D01*
X146808342Y-94900000D01*
X146591658Y-94900000D01*
X146379143Y-94857728D01*
X146178958Y-94774809D01*
X145998787Y-94654422D01*
X145845578Y-94501213D01*
X145725191Y-94321042D01*
X145642272Y-94120857D01*
X145600000Y-93908342D01*
X145600000Y-93691658D01*
X145642272Y-93479143D01*
X145725191Y-93278958D01*
X145845578Y-93098787D01*
X145998787Y-92945578D01*
X146178958Y-92825191D01*
X146379143Y-92742272D01*
X146591658Y-92700000D01*
X146808342Y-92700000D01*
X147020857Y-92742272D01*
X147020857Y-92742272D01*
G37*
G36*
X118725128Y-82309609D02*
X119089104Y-82460372D01*
X119416679Y-82679251D01*
X119695249Y-82957821D01*
X119914128Y-83285396D01*
X120064891Y-83649372D01*
X120141750Y-84035766D01*
X120141750Y-84429734D01*
X120064891Y-84816128D01*
X119914128Y-85180104D01*
X119695249Y-85507679D01*
X119416679Y-85786249D01*
X119089104Y-86005128D01*
X118725128Y-86155891D01*
X118338734Y-86232750D01*
X117944766Y-86232750D01*
X117558372Y-86155891D01*
X117194396Y-86005128D01*
X116866821Y-85786249D01*
X116588251Y-85507679D01*
X116369372Y-85180104D01*
X116218609Y-84816128D01*
X116141750Y-84429734D01*
X116141750Y-84035766D01*
X116218609Y-83649372D01*
X116369372Y-83285396D01*
X116588251Y-82957821D01*
X116866821Y-82679251D01*
X117194396Y-82460372D01*
X117558372Y-82309609D01*
X117944766Y-82232750D01*
X118338734Y-82232750D01*
X118725128Y-82309609D01*
X118725128Y-82309609D01*
G37*
G36*
X137775128Y-82309609D02*
X138139104Y-82460372D01*
X138466679Y-82679251D01*
X138745249Y-82957821D01*
X138964128Y-83285396D01*
X139114891Y-83649372D01*
X139191750Y-84035766D01*
X139191750Y-84429734D01*
X139114891Y-84816128D01*
X138964128Y-85180104D01*
X138745249Y-85507679D01*
X138466679Y-85786249D01*
X138139104Y-86005128D01*
X137775128Y-86155891D01*
X137388734Y-86232750D01*
X136994766Y-86232750D01*
X136608372Y-86155891D01*
X136244396Y-86005128D01*
X135916821Y-85786249D01*
X135638251Y-85507679D01*
X135419372Y-85180104D01*
X135268609Y-84816128D01*
X135191750Y-84429734D01*
X135191750Y-84035766D01*
X135268609Y-83649372D01*
X135419372Y-83285396D01*
X135638251Y-82957821D01*
X135916821Y-82679251D01*
X136244396Y-82460372D01*
X136608372Y-82309609D01*
X136994766Y-82232750D01*
X137388734Y-82232750D01*
X137775128Y-82309609D01*
X137775128Y-82309609D01*
G37*
G36*
X156825128Y-82309609D02*
X157189104Y-82460372D01*
X157516679Y-82679251D01*
X157795249Y-82957821D01*
X158014128Y-83285396D01*
X158164891Y-83649372D01*
X158241750Y-84035766D01*
X158241750Y-84429734D01*
X158164891Y-84816128D01*
X158014128Y-85180104D01*
X157795249Y-85507679D01*
X157516679Y-85786249D01*
X157189104Y-86005128D01*
X156825128Y-86155891D01*
X156438734Y-86232750D01*
X156044766Y-86232750D01*
X155658372Y-86155891D01*
X155294396Y-86005128D01*
X154966821Y-85786249D01*
X154688251Y-85507679D01*
X154469372Y-85180104D01*
X154318609Y-84816128D01*
X154241750Y-84429734D01*
X154241750Y-84035766D01*
X154318609Y-83649372D01*
X154469372Y-83285396D01*
X154688251Y-82957821D01*
X154966821Y-82679251D01*
X155294396Y-82460372D01*
X155658372Y-82309609D01*
X156044766Y-82232750D01*
X156438734Y-82232750D01*
X156825128Y-82309609D01*
X156825128Y-82309609D01*
G37*
G36*
X175875128Y-82309609D02*
X176239104Y-82460372D01*
X176566679Y-82679251D01*
X176845249Y-82957821D01*
X177064128Y-83285396D01*
X177214891Y-83649372D01*
X177291750Y-84035766D01*
X177291750Y-84429734D01*
X177214891Y-84816128D01*
X177064128Y-85180104D01*
X176845249Y-85507679D01*
X176566679Y-85786249D01*
X176239104Y-86005128D01*
X175875128Y-86155891D01*
X175488734Y-86232750D01*
X175094766Y-86232750D01*
X174708372Y-86155891D01*
X174344396Y-86005128D01*
X174016821Y-85786249D01*
X173738251Y-85507679D01*
X173519372Y-85180104D01*
X173368609Y-84816128D01*
X173291750Y-84429734D01*
X173291750Y-84035766D01*
X173368609Y-83649372D01*
X173519372Y-83285396D01*
X173738251Y-82957821D01*
X174016821Y-82679251D01*
X174344396Y-82460372D01*
X174708372Y-82309609D01*
X175094766Y-82232750D01*
X175488734Y-82232750D01*
X175875128Y-82309609D01*
X175875128Y-82309609D01*
G37*
G36*
X171802607Y-80635022D02*
X172002792Y-80717941D01*
X172182963Y-80838328D01*
X172336172Y-80991537D01*
X172456559Y-81171708D01*
X172539478Y-81371893D01*
X172581750Y-81584408D01*
X172581750Y-81801092D01*
X172539478Y-82013607D01*
X172456559Y-82213792D01*
X172336172Y-82393963D01*
X172182963Y-82547172D01*
X172002792Y-82667559D01*
X171802607Y-82750478D01*
X171590092Y-82792750D01*
X171373408Y-82792750D01*
X171160893Y-82750478D01*
X170960708Y-82667559D01*
X170780537Y-82547172D01*
X170627328Y-82393963D01*
X170506941Y-82213792D01*
X170424022Y-82013607D01*
X170381750Y-81801092D01*
X170381750Y-81584408D01*
X170424022Y-81371893D01*
X170506941Y-81171708D01*
X170627328Y-80991537D01*
X170780537Y-80838328D01*
X170960708Y-80717941D01*
X171160893Y-80635022D01*
X171373408Y-80592750D01*
X171590092Y-80592750D01*
X171802607Y-80635022D01*
X171802607Y-80635022D01*
G37*
G36*
X152752607Y-80635022D02*
X152952792Y-80717941D01*
X153132963Y-80838328D01*
X153286172Y-80991537D01*
X153406559Y-81171708D01*
X153489478Y-81371893D01*
X153531750Y-81584408D01*
X153531750Y-81801092D01*
X153489478Y-82013607D01*
X153406559Y-82213792D01*
X153286172Y-82393963D01*
X153132963Y-82547172D01*
X152952792Y-82667559D01*
X152752607Y-82750478D01*
X152540092Y-82792750D01*
X152323408Y-82792750D01*
X152110893Y-82750478D01*
X151910708Y-82667559D01*
X151730537Y-82547172D01*
X151577328Y-82393963D01*
X151456941Y-82213792D01*
X151374022Y-82013607D01*
X151331750Y-81801092D01*
X151331750Y-81584408D01*
X151374022Y-81371893D01*
X151456941Y-81171708D01*
X151577328Y-80991537D01*
X151730537Y-80838328D01*
X151910708Y-80717941D01*
X152110893Y-80635022D01*
X152323408Y-80592750D01*
X152540092Y-80592750D01*
X152752607Y-80635022D01*
X152752607Y-80635022D01*
G37*
G36*
X133702607Y-80635022D02*
X133902792Y-80717941D01*
X134082963Y-80838328D01*
X134236172Y-80991537D01*
X134356559Y-81171708D01*
X134439478Y-81371893D01*
X134481750Y-81584408D01*
X134481750Y-81801092D01*
X134439478Y-82013607D01*
X134356559Y-82213792D01*
X134236172Y-82393963D01*
X134082963Y-82547172D01*
X133902792Y-82667559D01*
X133702607Y-82750478D01*
X133490092Y-82792750D01*
X133273408Y-82792750D01*
X133060893Y-82750478D01*
X132860708Y-82667559D01*
X132680537Y-82547172D01*
X132527328Y-82393963D01*
X132406941Y-82213792D01*
X132324022Y-82013607D01*
X132281750Y-81801092D01*
X132281750Y-81584408D01*
X132324022Y-81371893D01*
X132406941Y-81171708D01*
X132527328Y-80991537D01*
X132680537Y-80838328D01*
X132860708Y-80717941D01*
X133060893Y-80635022D01*
X133273408Y-80592750D01*
X133490092Y-80592750D01*
X133702607Y-80635022D01*
X133702607Y-80635022D01*
G37*
G36*
X114652607Y-80635022D02*
X114852792Y-80717941D01*
X115032963Y-80838328D01*
X115186172Y-80991537D01*
X115306559Y-81171708D01*
X115389478Y-81371893D01*
X115431750Y-81584408D01*
X115431750Y-81801092D01*
X115389478Y-82013607D01*
X115306559Y-82213792D01*
X115186172Y-82393963D01*
X115032963Y-82547172D01*
X114852792Y-82667559D01*
X114652607Y-82750478D01*
X114440092Y-82792750D01*
X114223408Y-82792750D01*
X114010893Y-82750478D01*
X113810708Y-82667559D01*
X113630537Y-82547172D01*
X113477328Y-82393963D01*
X113356941Y-82213792D01*
X113274022Y-82013607D01*
X113231750Y-81801092D01*
X113231750Y-81584408D01*
X113274022Y-81371893D01*
X113356941Y-81171708D01*
X113477328Y-80991537D01*
X113630537Y-80838328D01*
X113810708Y-80717941D01*
X114010893Y-80635022D01*
X114223408Y-80592750D01*
X114440092Y-80592750D01*
X114652607Y-80635022D01*
X114652607Y-80635022D01*
G37*
G36*
X121002607Y-78095022D02*
X121202792Y-78177941D01*
X121382963Y-78298328D01*
X121536172Y-78451537D01*
X121656559Y-78631708D01*
X121739478Y-78831893D01*
X121781750Y-79044408D01*
X121781750Y-79261092D01*
X121739478Y-79473607D01*
X121656559Y-79673792D01*
X121536172Y-79853963D01*
X121382963Y-80007172D01*
X121202792Y-80127559D01*
X121002607Y-80210478D01*
X120790092Y-80252750D01*
X120573408Y-80252750D01*
X120360893Y-80210478D01*
X120160708Y-80127559D01*
X119980537Y-80007172D01*
X119827328Y-79853963D01*
X119706941Y-79673792D01*
X119624022Y-79473607D01*
X119581750Y-79261092D01*
X119581750Y-79044408D01*
X119624022Y-78831893D01*
X119706941Y-78631708D01*
X119827328Y-78451537D01*
X119980537Y-78298328D01*
X120160708Y-78177941D01*
X120360893Y-78095022D01*
X120573408Y-78052750D01*
X120790092Y-78052750D01*
X121002607Y-78095022D01*
X121002607Y-78095022D01*
G37*
G36*
X140052607Y-78095022D02*
X140252792Y-78177941D01*
X140432963Y-78298328D01*
X140586172Y-78451537D01*
X140706559Y-78631708D01*
X140789478Y-78831893D01*
X140831750Y-79044408D01*
X140831750Y-79261092D01*
X140789478Y-79473607D01*
X140706559Y-79673792D01*
X140586172Y-79853963D01*
X140432963Y-80007172D01*
X140252792Y-80127559D01*
X140052607Y-80210478D01*
X139840092Y-80252750D01*
X139623408Y-80252750D01*
X139410893Y-80210478D01*
X139210708Y-80127559D01*
X139030537Y-80007172D01*
X138877328Y-79853963D01*
X138756941Y-79673792D01*
X138674022Y-79473607D01*
X138631750Y-79261092D01*
X138631750Y-79044408D01*
X138674022Y-78831893D01*
X138756941Y-78631708D01*
X138877328Y-78451537D01*
X139030537Y-78298328D01*
X139210708Y-78177941D01*
X139410893Y-78095022D01*
X139623408Y-78052750D01*
X139840092Y-78052750D01*
X140052607Y-78095022D01*
X140052607Y-78095022D01*
G37*
G36*
X178152607Y-78095022D02*
X178352792Y-78177941D01*
X178532963Y-78298328D01*
X178686172Y-78451537D01*
X178806559Y-78631708D01*
X178889478Y-78831893D01*
X178931750Y-79044408D01*
X178931750Y-79261092D01*
X178889478Y-79473607D01*
X178806559Y-79673792D01*
X178686172Y-79853963D01*
X178532963Y-80007172D01*
X178352792Y-80127559D01*
X178152607Y-80210478D01*
X177940092Y-80252750D01*
X177723408Y-80252750D01*
X177510893Y-80210478D01*
X177310708Y-80127559D01*
X177130537Y-80007172D01*
X176977328Y-79853963D01*
X176856941Y-79673792D01*
X176774022Y-79473607D01*
X176731750Y-79261092D01*
X176731750Y-79044408D01*
X176774022Y-78831893D01*
X176856941Y-78631708D01*
X176977328Y-78451537D01*
X177130537Y-78298328D01*
X177310708Y-78177941D01*
X177510893Y-78095022D01*
X177723408Y-78052750D01*
X177940092Y-78052750D01*
X178152607Y-78095022D01*
X178152607Y-78095022D01*
G37*
G36*
X159102607Y-78095022D02*
X159302792Y-78177941D01*
X159482963Y-78298328D01*
X159636172Y-78451537D01*
X159756559Y-78631708D01*
X159839478Y-78831893D01*
X159881750Y-79044408D01*
X159881750Y-79261092D01*
X159839478Y-79473607D01*
X159756559Y-79673792D01*
X159636172Y-79853963D01*
X159482963Y-80007172D01*
X159302792Y-80127559D01*
X159102607Y-80210478D01*
X158890092Y-80252750D01*
X158673408Y-80252750D01*
X158460893Y-80210478D01*
X158260708Y-80127559D01*
X158080537Y-80007172D01*
X157927328Y-79853963D01*
X157806941Y-79673792D01*
X157724022Y-79473607D01*
X157681750Y-79261092D01*
X157681750Y-79044408D01*
X157724022Y-78831893D01*
X157806941Y-78631708D01*
X157927328Y-78451537D01*
X158080537Y-78298328D01*
X158260708Y-78177941D01*
X158460893Y-78095022D01*
X158673408Y-78052750D01*
X158890092Y-78052750D01*
X159102607Y-78095022D01*
X159102607Y-78095022D01*
G37*
G36*
X118725128Y-63259609D02*
X119089104Y-63410372D01*
X119416679Y-63629251D01*
X119695249Y-63907821D01*
X119914128Y-64235396D01*
X120064891Y-64599372D01*
X120141750Y-64985766D01*
X120141750Y-65379734D01*
X120064891Y-65766128D01*
X119914128Y-66130104D01*
X119695249Y-66457679D01*
X119416679Y-66736249D01*
X119089104Y-66955128D01*
X118725128Y-67105891D01*
X118338734Y-67182750D01*
X117944766Y-67182750D01*
X117558372Y-67105891D01*
X117194396Y-66955128D01*
X116866821Y-66736249D01*
X116588251Y-66457679D01*
X116369372Y-66130104D01*
X116218609Y-65766128D01*
X116141750Y-65379734D01*
X116141750Y-64985766D01*
X116218609Y-64599372D01*
X116369372Y-64235396D01*
X116588251Y-63907821D01*
X116866821Y-63629251D01*
X117194396Y-63410372D01*
X117558372Y-63259609D01*
X117944766Y-63182750D01*
X118338734Y-63182750D01*
X118725128Y-63259609D01*
X118725128Y-63259609D01*
G37*
G36*
X137775128Y-63259609D02*
X138139104Y-63410372D01*
X138466679Y-63629251D01*
X138745249Y-63907821D01*
X138964128Y-64235396D01*
X139114891Y-64599372D01*
X139191750Y-64985766D01*
X139191750Y-65379734D01*
X139114891Y-65766128D01*
X138964128Y-66130104D01*
X138745249Y-66457679D01*
X138466679Y-66736249D01*
X138139104Y-66955128D01*
X137775128Y-67105891D01*
X137388734Y-67182750D01*
X136994766Y-67182750D01*
X136608372Y-67105891D01*
X136244396Y-66955128D01*
X135916821Y-66736249D01*
X135638251Y-66457679D01*
X135419372Y-66130104D01*
X135268609Y-65766128D01*
X135191750Y-65379734D01*
X135191750Y-64985766D01*
X135268609Y-64599372D01*
X135419372Y-64235396D01*
X135638251Y-63907821D01*
X135916821Y-63629251D01*
X136244396Y-63410372D01*
X136608372Y-63259609D01*
X136994766Y-63182750D01*
X137388734Y-63182750D01*
X137775128Y-63259609D01*
X137775128Y-63259609D01*
G37*
G36*
X156825128Y-63259609D02*
X157189104Y-63410372D01*
X157516679Y-63629251D01*
X157795249Y-63907821D01*
X158014128Y-64235396D01*
X158164891Y-64599372D01*
X158241750Y-64985766D01*
X158241750Y-65379734D01*
X158164891Y-65766128D01*
X158014128Y-66130104D01*
X157795249Y-66457679D01*
X157516679Y-66736249D01*
X157189104Y-66955128D01*
X156825128Y-67105891D01*
X156438734Y-67182750D01*
X156044766Y-67182750D01*
X155658372Y-67105891D01*
X155294396Y-66955128D01*
X154966821Y-66736249D01*
X154688251Y-66457679D01*
X154469372Y-66130104D01*
X154318609Y-65766128D01*
X154241750Y-65379734D01*
X154241750Y-64985766D01*
X154318609Y-64599372D01*
X154469372Y-64235396D01*
X154688251Y-63907821D01*
X154966821Y-63629251D01*
X155294396Y-63410372D01*
X155658372Y-63259609D01*
X156044766Y-63182750D01*
X156438734Y-63182750D01*
X156825128Y-63259609D01*
X156825128Y-63259609D01*
G37*
G36*
X175875128Y-63259609D02*
X176239104Y-63410372D01*
X176566679Y-63629251D01*
X176845249Y-63907821D01*
X177064128Y-64235396D01*
X177214891Y-64599372D01*
X177291750Y-64985766D01*
X177291750Y-65379734D01*
X177214891Y-65766128D01*
X177064128Y-66130104D01*
X176845249Y-66457679D01*
X176566679Y-66736249D01*
X176239104Y-66955128D01*
X175875128Y-67105891D01*
X175488734Y-67182750D01*
X175094766Y-67182750D01*
X174708372Y-67105891D01*
X174344396Y-66955128D01*
X174016821Y-66736249D01*
X173738251Y-66457679D01*
X173519372Y-66130104D01*
X173368609Y-65766128D01*
X173291750Y-65379734D01*
X173291750Y-64985766D01*
X173368609Y-64599372D01*
X173519372Y-64235396D01*
X173738251Y-63907821D01*
X174016821Y-63629251D01*
X174344396Y-63410372D01*
X174708372Y-63259609D01*
X175094766Y-63182750D01*
X175488734Y-63182750D01*
X175875128Y-63259609D01*
X175875128Y-63259609D01*
G37*
G36*
X128020857Y-63942272D02*
X128221042Y-64025191D01*
X128401213Y-64145578D01*
X128554422Y-64298787D01*
X128674809Y-64478958D01*
X128757728Y-64679143D01*
X128800000Y-64891658D01*
X128800000Y-65108342D01*
X128757728Y-65320857D01*
X128674809Y-65521042D01*
X128554422Y-65701213D01*
X128401213Y-65854422D01*
X128221042Y-65974809D01*
X128020857Y-66057728D01*
X127808342Y-66100000D01*
X127591658Y-66100000D01*
X127379143Y-66057728D01*
X127178958Y-65974809D01*
X126998787Y-65854422D01*
X126845578Y-65701213D01*
X126725191Y-65521042D01*
X126642272Y-65320857D01*
X126600000Y-65108342D01*
X126600000Y-64891658D01*
X126642272Y-64679143D01*
X126725191Y-64478958D01*
X126845578Y-64298787D01*
X126998787Y-64145578D01*
X127178958Y-64025191D01*
X127379143Y-63942272D01*
X127591658Y-63900000D01*
X127808342Y-63900000D01*
X128020857Y-63942272D01*
X128020857Y-63942272D01*
G37*
G36*
X114652607Y-61585022D02*
X114852792Y-61667941D01*
X115032963Y-61788328D01*
X115186172Y-61941537D01*
X115306559Y-62121708D01*
X115389478Y-62321893D01*
X115431750Y-62534408D01*
X115431750Y-62751092D01*
X115389478Y-62963607D01*
X115306559Y-63163792D01*
X115186172Y-63343963D01*
X115032963Y-63497172D01*
X114852792Y-63617559D01*
X114652607Y-63700478D01*
X114440092Y-63742750D01*
X114223408Y-63742750D01*
X114010893Y-63700478D01*
X113810708Y-63617559D01*
X113630537Y-63497172D01*
X113477328Y-63343963D01*
X113356941Y-63163792D01*
X113274022Y-62963607D01*
X113231750Y-62751092D01*
X113231750Y-62534408D01*
X113274022Y-62321893D01*
X113356941Y-62121708D01*
X113477328Y-61941537D01*
X113630537Y-61788328D01*
X113810708Y-61667941D01*
X114010893Y-61585022D01*
X114223408Y-61542750D01*
X114440092Y-61542750D01*
X114652607Y-61585022D01*
X114652607Y-61585022D01*
G37*
G36*
X152752607Y-61585022D02*
X152952792Y-61667941D01*
X153132963Y-61788328D01*
X153286172Y-61941537D01*
X153406559Y-62121708D01*
X153489478Y-62321893D01*
X153531750Y-62534408D01*
X153531750Y-62751092D01*
X153489478Y-62963607D01*
X153406559Y-63163792D01*
X153286172Y-63343963D01*
X153132963Y-63497172D01*
X152952792Y-63617559D01*
X152752607Y-63700478D01*
X152540092Y-63742750D01*
X152323408Y-63742750D01*
X152110893Y-63700478D01*
X151910708Y-63617559D01*
X151730537Y-63497172D01*
X151577328Y-63343963D01*
X151456941Y-63163792D01*
X151374022Y-62963607D01*
X151331750Y-62751092D01*
X151331750Y-62534408D01*
X151374022Y-62321893D01*
X151456941Y-62121708D01*
X151577328Y-61941537D01*
X151730537Y-61788328D01*
X151910708Y-61667941D01*
X152110893Y-61585022D01*
X152323408Y-61542750D01*
X152540092Y-61542750D01*
X152752607Y-61585022D01*
X152752607Y-61585022D01*
G37*
G36*
X133702607Y-61585022D02*
X133902792Y-61667941D01*
X134082963Y-61788328D01*
X134236172Y-61941537D01*
X134356559Y-62121708D01*
X134439478Y-62321893D01*
X134481750Y-62534408D01*
X134481750Y-62751092D01*
X134439478Y-62963607D01*
X134356559Y-63163792D01*
X134236172Y-63343963D01*
X134082963Y-63497172D01*
X133902792Y-63617559D01*
X133702607Y-63700478D01*
X133490092Y-63742750D01*
X133273408Y-63742750D01*
X133060893Y-63700478D01*
X132860708Y-63617559D01*
X132680537Y-63497172D01*
X132527328Y-63343963D01*
X132406941Y-63163792D01*
X132324022Y-62963607D01*
X132281750Y-62751092D01*
X132281750Y-62534408D01*
X132324022Y-62321893D01*
X132406941Y-62121708D01*
X132527328Y-61941537D01*
X132680537Y-61788328D01*
X132860708Y-61667941D01*
X133060893Y-61585022D01*
X133273408Y-61542750D01*
X133490092Y-61542750D01*
X133702607Y-61585022D01*
X133702607Y-61585022D01*
G37*
G36*
X171802607Y-61585022D02*
X172002792Y-61667941D01*
X172182963Y-61788328D01*
X172336172Y-61941537D01*
X172456559Y-62121708D01*
X172539478Y-62321893D01*
X172581750Y-62534408D01*
X172581750Y-62751092D01*
X172539478Y-62963607D01*
X172456559Y-63163792D01*
X172336172Y-63343963D01*
X172182963Y-63497172D01*
X172002792Y-63617559D01*
X171802607Y-63700478D01*
X171590092Y-63742750D01*
X171373408Y-63742750D01*
X171160893Y-63700478D01*
X170960708Y-63617559D01*
X170780537Y-63497172D01*
X170627328Y-63343963D01*
X170506941Y-63163792D01*
X170424022Y-62963607D01*
X170381750Y-62751092D01*
X170381750Y-62534408D01*
X170424022Y-62321893D01*
X170506941Y-62121708D01*
X170627328Y-61941537D01*
X170780537Y-61788328D01*
X170960708Y-61667941D01*
X171160893Y-61585022D01*
X171373408Y-61542750D01*
X171590092Y-61542750D01*
X171802607Y-61585022D01*
X171802607Y-61585022D01*
G37*
G36*
X159102607Y-59045022D02*
X159302792Y-59127941D01*
X159482963Y-59248328D01*
X159636172Y-59401537D01*
X159756559Y-59581708D01*
X159839478Y-59781893D01*
X159881750Y-59994408D01*
X159881750Y-60211092D01*
X159839478Y-60423607D01*
X159756559Y-60623792D01*
X159636172Y-60803963D01*
X159482963Y-60957172D01*
X159302792Y-61077559D01*
X159102607Y-61160478D01*
X158890092Y-61202750D01*
X158673408Y-61202750D01*
X158460893Y-61160478D01*
X158260708Y-61077559D01*
X158080537Y-60957172D01*
X157927328Y-60803963D01*
X157806941Y-60623792D01*
X157724022Y-60423607D01*
X157681750Y-60211092D01*
X157681750Y-59994408D01*
X157724022Y-59781893D01*
X157806941Y-59581708D01*
X157927328Y-59401537D01*
X158080537Y-59248328D01*
X158260708Y-59127941D01*
X158460893Y-59045022D01*
X158673408Y-59002750D01*
X158890092Y-59002750D01*
X159102607Y-59045022D01*
X159102607Y-59045022D01*
G37*
G36*
X178152607Y-59045022D02*
X178352792Y-59127941D01*
X178532963Y-59248328D01*
X178686172Y-59401537D01*
X178806559Y-59581708D01*
X178889478Y-59781893D01*
X178931750Y-59994408D01*
X178931750Y-60211092D01*
X178889478Y-60423607D01*
X178806559Y-60623792D01*
X178686172Y-60803963D01*
X178532963Y-60957172D01*
X178352792Y-61077559D01*
X178152607Y-61160478D01*
X177940092Y-61202750D01*
X177723408Y-61202750D01*
X177510893Y-61160478D01*
X177310708Y-61077559D01*
X177130537Y-60957172D01*
X176977328Y-60803963D01*
X176856941Y-60623792D01*
X176774022Y-60423607D01*
X176731750Y-60211092D01*
X176731750Y-59994408D01*
X176774022Y-59781893D01*
X176856941Y-59581708D01*
X176977328Y-59401537D01*
X177130537Y-59248328D01*
X177310708Y-59127941D01*
X177510893Y-59045022D01*
X177723408Y-59002750D01*
X177940092Y-59002750D01*
X178152607Y-59045022D01*
X178152607Y-59045022D01*
G37*
G36*
X121002607Y-59045022D02*
X121202792Y-59127941D01*
X121382963Y-59248328D01*
X121536172Y-59401537D01*
X121656559Y-59581708D01*
X121739478Y-59781893D01*
X121781750Y-59994408D01*
X121781750Y-60211092D01*
X121739478Y-60423607D01*
X121656559Y-60623792D01*
X121536172Y-60803963D01*
X121382963Y-60957172D01*
X121202792Y-61077559D01*
X121002607Y-61160478D01*
X120790092Y-61202750D01*
X120573408Y-61202750D01*
X120360893Y-61160478D01*
X120160708Y-61077559D01*
X119980537Y-60957172D01*
X119827328Y-60803963D01*
X119706941Y-60623792D01*
X119624022Y-60423607D01*
X119581750Y-60211092D01*
X119581750Y-59994408D01*
X119624022Y-59781893D01*
X119706941Y-59581708D01*
X119827328Y-59401537D01*
X119980537Y-59248328D01*
X120160708Y-59127941D01*
X120360893Y-59045022D01*
X120573408Y-59002750D01*
X120790092Y-59002750D01*
X121002607Y-59045022D01*
X121002607Y-59045022D01*
G37*
G36*
X140052607Y-59045022D02*
X140252792Y-59127941D01*
X140432963Y-59248328D01*
X140586172Y-59401537D01*
X140706559Y-59581708D01*
X140789478Y-59781893D01*
X140831750Y-59994408D01*
X140831750Y-60211092D01*
X140789478Y-60423607D01*
X140706559Y-60623792D01*
X140586172Y-60803963D01*
X140432963Y-60957172D01*
X140252792Y-61077559D01*
X140052607Y-61160478D01*
X139840092Y-61202750D01*
X139623408Y-61202750D01*
X139410893Y-61160478D01*
X139210708Y-61077559D01*
X139030537Y-60957172D01*
X138877328Y-60803963D01*
X138756941Y-60623792D01*
X138674022Y-60423607D01*
X138631750Y-60211092D01*
X138631750Y-59994408D01*
X138674022Y-59781893D01*
X138756941Y-59581708D01*
X138877328Y-59401537D01*
X139030537Y-59248328D01*
X139210708Y-59127941D01*
X139410893Y-59045022D01*
X139623408Y-59002750D01*
X139840092Y-59002750D01*
X140052607Y-59045022D01*
X140052607Y-59045022D01*
G37*
G36*
X166120857Y-57742272D02*
X166321042Y-57825191D01*
X166501213Y-57945578D01*
X166654422Y-58098787D01*
X166774809Y-58278958D01*
X166857728Y-58479143D01*
X166900000Y-58691658D01*
X166900000Y-58908342D01*
X166857728Y-59120857D01*
X166774809Y-59321042D01*
X166654422Y-59501213D01*
X166501213Y-59654422D01*
X166321042Y-59774809D01*
X166120857Y-59857728D01*
X165908342Y-59900000D01*
X165691658Y-59900000D01*
X165479143Y-59857728D01*
X165278958Y-59774809D01*
X165098787Y-59654422D01*
X164945578Y-59501213D01*
X164825191Y-59321042D01*
X164742272Y-59120857D01*
X164700000Y-58908342D01*
X164700000Y-58691658D01*
X164742272Y-58479143D01*
X164825191Y-58278958D01*
X164945578Y-58098787D01*
X165098787Y-57945578D01*
X165278958Y-57825191D01*
X165479143Y-57742272D01*
X165691658Y-57700000D01*
X165908342Y-57700000D01*
X166120857Y-57742272D01*
X166120857Y-57742272D01*
G37*
G36*
X146430522Y-53204039D02*
X146464053Y-53214211D01*
X146494960Y-53230731D01*
X146522043Y-53252957D01*
X146544269Y-53280040D01*
X146560789Y-53310947D01*
X146570961Y-53344478D01*
X146575000Y-53385487D01*
X146575000Y-54414513D01*
X146570961Y-54455522D01*
X146560789Y-54489053D01*
X146544269Y-54519960D01*
X146522043Y-54547043D01*
X146494960Y-54569269D01*
X146464053Y-54585789D01*
X146430522Y-54595961D01*
X146389513Y-54600000D01*
X145610487Y-54600000D01*
X145569478Y-54595961D01*
X145535947Y-54585789D01*
X145505040Y-54569269D01*
X145477957Y-54547043D01*
X145455731Y-54519960D01*
X145439211Y-54489053D01*
X145429039Y-54455522D01*
X145425000Y-54414513D01*
X145425000Y-53385487D01*
X145429039Y-53344478D01*
X145439211Y-53310947D01*
X145455731Y-53280040D01*
X145477957Y-53252957D01*
X145505040Y-53230731D01*
X145535947Y-53214211D01*
X145569478Y-53204039D01*
X145610487Y-53200000D01*
X146389513Y-53200000D01*
X146430522Y-53204039D01*
X146430522Y-53204039D01*
G37*
G36*
X148480522Y-53204039D02*
X148514053Y-53214211D01*
X148544960Y-53230731D01*
X148572043Y-53252957D01*
X148594269Y-53280040D01*
X148610789Y-53310947D01*
X148620961Y-53344478D01*
X148625000Y-53385487D01*
X148625000Y-54414513D01*
X148620961Y-54455522D01*
X148610789Y-54489053D01*
X148594269Y-54519960D01*
X148572043Y-54547043D01*
X148544960Y-54569269D01*
X148514053Y-54585789D01*
X148480522Y-54595961D01*
X148439513Y-54600000D01*
X147660487Y-54600000D01*
X147619478Y-54595961D01*
X147585947Y-54585789D01*
X147555040Y-54569269D01*
X147527957Y-54547043D01*
X147505731Y-54519960D01*
X147489211Y-54489053D01*
X147479039Y-54455522D01*
X147475000Y-54414513D01*
X147475000Y-53385487D01*
X147479039Y-53344478D01*
X147489211Y-53310947D01*
X147505731Y-53280040D01*
X147527957Y-53252957D01*
X147555040Y-53230731D01*
X147585947Y-53214211D01*
X147619478Y-53204039D01*
X147660487Y-53200000D01*
X148439513Y-53200000D01*
X148480522Y-53204039D01*
X148480522Y-53204039D01*
G37*
G36*
X175280522Y-53204039D02*
X175314053Y-53214211D01*
X175344960Y-53230731D01*
X175372043Y-53252957D01*
X175394269Y-53280040D01*
X175410789Y-53310947D01*
X175420961Y-53344478D01*
X175425000Y-53385487D01*
X175425000Y-54414513D01*
X175420961Y-54455522D01*
X175410789Y-54489053D01*
X175394269Y-54519960D01*
X175372043Y-54547043D01*
X175344960Y-54569269D01*
X175314053Y-54585789D01*
X175280522Y-54595961D01*
X175239513Y-54600000D01*
X174460487Y-54600000D01*
X174419478Y-54595961D01*
X174385947Y-54585789D01*
X174355040Y-54569269D01*
X174327957Y-54547043D01*
X174305731Y-54519960D01*
X174289211Y-54489053D01*
X174279039Y-54455522D01*
X174275000Y-54414513D01*
X174275000Y-53385487D01*
X174279039Y-53344478D01*
X174289211Y-53310947D01*
X174305731Y-53280040D01*
X174327957Y-53252957D01*
X174355040Y-53230731D01*
X174385947Y-53214211D01*
X174419478Y-53204039D01*
X174460487Y-53200000D01*
X175239513Y-53200000D01*
X175280522Y-53204039D01*
X175280522Y-53204039D01*
G37*
G36*
X177330522Y-53204039D02*
X177364053Y-53214211D01*
X177394960Y-53230731D01*
X177422043Y-53252957D01*
X177444269Y-53280040D01*
X177460789Y-53310947D01*
X177470961Y-53344478D01*
X177475000Y-53385487D01*
X177475000Y-54414513D01*
X177470961Y-54455522D01*
X177460789Y-54489053D01*
X177444269Y-54519960D01*
X177422043Y-54547043D01*
X177394960Y-54569269D01*
X177364053Y-54585789D01*
X177330522Y-54595961D01*
X177289513Y-54600000D01*
X176510487Y-54600000D01*
X176469478Y-54595961D01*
X176435947Y-54585789D01*
X176405040Y-54569269D01*
X176377957Y-54547043D01*
X176355731Y-54519960D01*
X176339211Y-54489053D01*
X176329039Y-54455522D01*
X176325000Y-54414513D01*
X176325000Y-53385487D01*
X176329039Y-53344478D01*
X176339211Y-53310947D01*
X176355731Y-53280040D01*
X176377957Y-53252957D01*
X176405040Y-53230731D01*
X176435947Y-53214211D01*
X176469478Y-53204039D01*
X176510487Y-53200000D01*
X177289513Y-53200000D01*
X177330522Y-53204039D01*
X177330522Y-53204039D01*
G37*
G36*
X151555522Y-53429039D02*
X151589053Y-53439211D01*
X151619960Y-53455731D01*
X151647043Y-53477957D01*
X151669269Y-53505040D01*
X151685789Y-53535947D01*
X151695961Y-53569478D01*
X151700000Y-53610487D01*
X151700000Y-54389513D01*
X151695961Y-54430522D01*
X151685789Y-54464053D01*
X151669269Y-54494960D01*
X151647043Y-54522043D01*
X151619960Y-54544269D01*
X151589053Y-54560789D01*
X151555522Y-54570961D01*
X151514513Y-54575000D01*
X150485487Y-54575000D01*
X150444478Y-54570961D01*
X150410947Y-54560789D01*
X150380040Y-54544269D01*
X150352957Y-54522043D01*
X150330731Y-54494960D01*
X150314211Y-54464053D01*
X150304039Y-54430522D01*
X150300000Y-54389513D01*
X150300000Y-53610487D01*
X150304039Y-53569478D01*
X150314211Y-53535947D01*
X150330731Y-53505040D01*
X150352957Y-53477957D01*
X150380040Y-53455731D01*
X150410947Y-53439211D01*
X150444478Y-53429039D01*
X150485487Y-53425000D01*
X151514513Y-53425000D01*
X151555522Y-53429039D01*
X151555522Y-53429039D01*
G37*
G36*
X154705522Y-53279039D02*
X154739053Y-53289211D01*
X154769960Y-53305731D01*
X154797043Y-53327957D01*
X154819269Y-53355040D01*
X154835789Y-53385947D01*
X154845961Y-53419478D01*
X154850000Y-53460487D01*
X154850000Y-54239513D01*
X154845961Y-54280522D01*
X154835789Y-54314053D01*
X154819269Y-54344960D01*
X154797043Y-54372043D01*
X154769960Y-54394269D01*
X154739053Y-54410789D01*
X154705522Y-54420961D01*
X154664513Y-54425000D01*
X153635487Y-54425000D01*
X153594478Y-54420961D01*
X153560947Y-54410789D01*
X153530040Y-54394269D01*
X153502957Y-54372043D01*
X153480731Y-54344960D01*
X153464211Y-54314053D01*
X153454039Y-54280522D01*
X153450000Y-54239513D01*
X153450000Y-53460487D01*
X153454039Y-53419478D01*
X153464211Y-53385947D01*
X153480731Y-53355040D01*
X153502957Y-53327957D01*
X153530040Y-53305731D01*
X153560947Y-53289211D01*
X153594478Y-53279039D01*
X153635487Y-53275000D01*
X154664513Y-53275000D01*
X154705522Y-53279039D01*
X154705522Y-53279039D01*
G37*
G36*
X166055522Y-53279039D02*
X166089053Y-53289211D01*
X166119960Y-53305731D01*
X166147043Y-53327957D01*
X166169269Y-53355040D01*
X166185789Y-53385947D01*
X166195961Y-53419478D01*
X166200000Y-53460487D01*
X166200000Y-54239513D01*
X166195961Y-54280522D01*
X166185789Y-54314053D01*
X166169269Y-54344960D01*
X166147043Y-54372043D01*
X166119960Y-54394269D01*
X166089053Y-54410789D01*
X166055522Y-54420961D01*
X166014513Y-54425000D01*
X164985487Y-54425000D01*
X164944478Y-54420961D01*
X164910947Y-54410789D01*
X164880040Y-54394269D01*
X164852957Y-54372043D01*
X164830731Y-54344960D01*
X164814211Y-54314053D01*
X164804039Y-54280522D01*
X164800000Y-54239513D01*
X164800000Y-53460487D01*
X164804039Y-53419478D01*
X164814211Y-53385947D01*
X164830731Y-53355040D01*
X164852957Y-53327957D01*
X164880040Y-53305731D01*
X164910947Y-53289211D01*
X164944478Y-53279039D01*
X164985487Y-53275000D01*
X166014513Y-53275000D01*
X166055522Y-53279039D01*
X166055522Y-53279039D01*
G37*
G36*
X162630522Y-53254039D02*
X162664053Y-53264211D01*
X162694960Y-53280731D01*
X162722043Y-53302957D01*
X162744269Y-53330040D01*
X162760789Y-53360947D01*
X162770961Y-53394478D01*
X162775000Y-53435487D01*
X162775000Y-54214513D01*
X162770961Y-54255522D01*
X162760789Y-54289053D01*
X162744269Y-54319960D01*
X162722043Y-54347043D01*
X162694960Y-54369269D01*
X162664053Y-54385789D01*
X162630522Y-54395961D01*
X162589513Y-54400000D01*
X161560487Y-54400000D01*
X161519478Y-54395961D01*
X161485947Y-54385789D01*
X161455040Y-54369269D01*
X161427957Y-54347043D01*
X161405731Y-54319960D01*
X161389211Y-54289053D01*
X161379039Y-54255522D01*
X161375000Y-54214513D01*
X161375000Y-53435487D01*
X161379039Y-53394478D01*
X161389211Y-53360947D01*
X161405731Y-53330040D01*
X161427957Y-53302957D01*
X161455040Y-53280731D01*
X161485947Y-53264211D01*
X161519478Y-53254039D01*
X161560487Y-53250000D01*
X162589513Y-53250000D01*
X162630522Y-53254039D01*
X162630522Y-53254039D01*
G37*
G36*
X157655001Y-53900001D02*
X156095001Y-53900001D01*
X156095001Y-53250001D01*
X157655001Y-53250001D01*
X157655001Y-53900001D01*
X157655001Y-53900001D01*
G37*
G36*
X160355001Y-53900001D02*
X158795001Y-53900001D01*
X158795001Y-53250001D01*
X160355001Y-53250001D01*
X160355001Y-53900001D01*
X160355001Y-53900001D01*
G37*
G36*
X157655001Y-52950001D02*
X156095001Y-52950001D01*
X156095001Y-52300001D01*
X157655001Y-52300001D01*
X157655001Y-52950001D01*
X157655001Y-52950001D01*
G37*
G36*
X151555522Y-51379039D02*
X151589053Y-51389211D01*
X151619960Y-51405731D01*
X151647043Y-51427957D01*
X151669269Y-51455040D01*
X151685789Y-51485947D01*
X151695961Y-51519478D01*
X151700000Y-51560487D01*
X151700000Y-52339513D01*
X151695961Y-52380522D01*
X151685789Y-52414053D01*
X151669269Y-52444960D01*
X151647043Y-52472043D01*
X151619960Y-52494269D01*
X151589053Y-52510789D01*
X151555522Y-52520961D01*
X151514513Y-52525000D01*
X150485487Y-52525000D01*
X150444478Y-52520961D01*
X150410947Y-52510789D01*
X150380040Y-52494269D01*
X150352957Y-52472043D01*
X150330731Y-52444960D01*
X150314211Y-52414053D01*
X150304039Y-52380522D01*
X150300000Y-52339513D01*
X150300000Y-51560487D01*
X150304039Y-51519478D01*
X150314211Y-51485947D01*
X150330731Y-51455040D01*
X150352957Y-51427957D01*
X150380040Y-51405731D01*
X150410947Y-51389211D01*
X150444478Y-51379039D01*
X150485487Y-51375000D01*
X151514513Y-51375000D01*
X151555522Y-51379039D01*
X151555522Y-51379039D01*
G37*
G36*
X166055522Y-51229039D02*
X166089053Y-51239211D01*
X166119960Y-51255731D01*
X166147043Y-51277957D01*
X166169269Y-51305040D01*
X166185789Y-51335947D01*
X166195961Y-51369478D01*
X166200000Y-51410487D01*
X166200000Y-52189513D01*
X166195961Y-52230522D01*
X166185789Y-52264053D01*
X166169269Y-52294960D01*
X166147043Y-52322043D01*
X166119960Y-52344269D01*
X166089053Y-52360789D01*
X166055522Y-52370961D01*
X166014513Y-52375000D01*
X164985487Y-52375000D01*
X164944478Y-52370961D01*
X164910947Y-52360789D01*
X164880040Y-52344269D01*
X164852957Y-52322043D01*
X164830731Y-52294960D01*
X164814211Y-52264053D01*
X164804039Y-52230522D01*
X164800000Y-52189513D01*
X164800000Y-51410487D01*
X164804039Y-51369478D01*
X164814211Y-51335947D01*
X164830731Y-51305040D01*
X164852957Y-51277957D01*
X164880040Y-51255731D01*
X164910947Y-51239211D01*
X164944478Y-51229039D01*
X164985487Y-51225000D01*
X166014513Y-51225000D01*
X166055522Y-51229039D01*
X166055522Y-51229039D01*
G37*
G36*
X154705522Y-51229039D02*
X154739053Y-51239211D01*
X154769960Y-51255731D01*
X154797043Y-51277957D01*
X154819269Y-51305040D01*
X154835789Y-51335947D01*
X154845961Y-51369478D01*
X154850000Y-51410487D01*
X154850000Y-52189513D01*
X154845961Y-52230522D01*
X154835789Y-52264053D01*
X154819269Y-52294960D01*
X154797043Y-52322043D01*
X154769960Y-52344269D01*
X154739053Y-52360789D01*
X154705522Y-52370961D01*
X154664513Y-52375000D01*
X153635487Y-52375000D01*
X153594478Y-52370961D01*
X153560947Y-52360789D01*
X153530040Y-52344269D01*
X153502957Y-52322043D01*
X153480731Y-52294960D01*
X153464211Y-52264053D01*
X153454039Y-52230522D01*
X153450000Y-52189513D01*
X153450000Y-51410487D01*
X153454039Y-51369478D01*
X153464211Y-51335947D01*
X153480731Y-51305040D01*
X153502957Y-51277957D01*
X153530040Y-51255731D01*
X153560947Y-51239211D01*
X153594478Y-51229039D01*
X153635487Y-51225000D01*
X154664513Y-51225000D01*
X154705522Y-51229039D01*
X154705522Y-51229039D01*
G37*
G36*
X162630522Y-51204039D02*
X162664053Y-51214211D01*
X162694960Y-51230731D01*
X162722043Y-51252957D01*
X162744269Y-51280040D01*
X162760789Y-51310947D01*
X162770961Y-51344478D01*
X162775000Y-51385487D01*
X162775000Y-52164513D01*
X162770961Y-52205522D01*
X162760789Y-52239053D01*
X162744269Y-52269960D01*
X162722043Y-52297043D01*
X162694960Y-52319269D01*
X162664053Y-52335789D01*
X162630522Y-52345961D01*
X162589513Y-52350000D01*
X161560487Y-52350000D01*
X161519478Y-52345961D01*
X161485947Y-52335789D01*
X161455040Y-52319269D01*
X161427957Y-52297043D01*
X161405731Y-52269960D01*
X161389211Y-52239053D01*
X161379039Y-52205522D01*
X161375000Y-52164513D01*
X161375000Y-51385487D01*
X161379039Y-51344478D01*
X161389211Y-51310947D01*
X161405731Y-51280040D01*
X161427957Y-51252957D01*
X161455040Y-51230731D01*
X161485947Y-51214211D01*
X161519478Y-51204039D01*
X161560487Y-51200000D01*
X162589513Y-51200000D01*
X162630522Y-51204039D01*
X162630522Y-51204039D01*
G37*
G36*
X146455522Y-50854039D02*
X146489053Y-50864211D01*
X146519960Y-50880731D01*
X146547043Y-50902957D01*
X146569269Y-50930040D01*
X146585789Y-50960947D01*
X146595961Y-50994478D01*
X146600000Y-51035487D01*
X146600000Y-52064513D01*
X146595961Y-52105522D01*
X146585789Y-52139053D01*
X146569269Y-52169960D01*
X146547043Y-52197043D01*
X146519960Y-52219269D01*
X146489053Y-52235789D01*
X146455522Y-52245961D01*
X146414513Y-52250000D01*
X145635487Y-52250000D01*
X145594478Y-52245961D01*
X145560947Y-52235789D01*
X145530040Y-52219269D01*
X145502957Y-52197043D01*
X145480731Y-52169960D01*
X145464211Y-52139053D01*
X145454039Y-52105522D01*
X145450000Y-52064513D01*
X145450000Y-51035487D01*
X145454039Y-50994478D01*
X145464211Y-50960947D01*
X145480731Y-50930040D01*
X145502957Y-50902957D01*
X145530040Y-50880731D01*
X145560947Y-50864211D01*
X145594478Y-50854039D01*
X145635487Y-50850000D01*
X146414513Y-50850000D01*
X146455522Y-50854039D01*
X146455522Y-50854039D01*
G37*
G36*
X148505522Y-50854039D02*
X148539053Y-50864211D01*
X148569960Y-50880731D01*
X148597043Y-50902957D01*
X148619269Y-50930040D01*
X148635789Y-50960947D01*
X148645961Y-50994478D01*
X148650000Y-51035487D01*
X148650000Y-52064513D01*
X148645961Y-52105522D01*
X148635789Y-52139053D01*
X148619269Y-52169960D01*
X148597043Y-52197043D01*
X148569960Y-52219269D01*
X148539053Y-52235789D01*
X148505522Y-52245961D01*
X148464513Y-52250000D01*
X147685487Y-52250000D01*
X147644478Y-52245961D01*
X147610947Y-52235789D01*
X147580040Y-52219269D01*
X147552957Y-52197043D01*
X147530731Y-52169960D01*
X147514211Y-52139053D01*
X147504039Y-52105522D01*
X147500000Y-52064513D01*
X147500000Y-51035487D01*
X147504039Y-50994478D01*
X147514211Y-50960947D01*
X147530731Y-50930040D01*
X147552957Y-50902957D01*
X147580040Y-50880731D01*
X147610947Y-50864211D01*
X147644478Y-50854039D01*
X147685487Y-50850000D01*
X148464513Y-50850000D01*
X148505522Y-50854039D01*
X148505522Y-50854039D01*
G37*
G36*
X160355001Y-52000001D02*
X158795001Y-52000001D01*
X158795001Y-51350001D01*
X160355001Y-51350001D01*
X160355001Y-52000001D01*
X160355001Y-52000001D01*
G37*
G36*
X157655001Y-52000001D02*
X156095001Y-52000001D01*
X156095001Y-51350001D01*
X157655001Y-51350001D01*
X157655001Y-52000001D01*
X157655001Y-52000001D01*
G37*
G36*
X176250000Y-51050000D02*
X170500000Y-51050000D01*
X170500000Y-49750000D01*
X176250000Y-49750000D01*
X176250000Y-51050000D01*
X176250000Y-51050000D01*
G37*
G36*
X148480522Y-48654039D02*
X148514053Y-48664211D01*
X148544960Y-48680731D01*
X148572043Y-48702957D01*
X148594269Y-48730040D01*
X148610789Y-48760947D01*
X148620961Y-48794478D01*
X148625000Y-48835487D01*
X148625000Y-49864513D01*
X148620961Y-49905522D01*
X148610789Y-49939053D01*
X148594269Y-49969960D01*
X148572043Y-49997043D01*
X148544960Y-50019269D01*
X148514053Y-50035789D01*
X148480522Y-50045961D01*
X148439513Y-50050000D01*
X147660487Y-50050000D01*
X147619478Y-50045961D01*
X147585947Y-50035789D01*
X147555040Y-50019269D01*
X147527957Y-49997043D01*
X147505731Y-49969960D01*
X147489211Y-49939053D01*
X147479039Y-49905522D01*
X147475000Y-49864513D01*
X147475000Y-48835487D01*
X147479039Y-48794478D01*
X147489211Y-48760947D01*
X147505731Y-48730040D01*
X147527957Y-48702957D01*
X147555040Y-48680731D01*
X147585947Y-48664211D01*
X147619478Y-48654039D01*
X147660487Y-48650000D01*
X148439513Y-48650000D01*
X148480522Y-48654039D01*
X148480522Y-48654039D01*
G37*
G36*
X146430522Y-48654039D02*
X146464053Y-48664211D01*
X146494960Y-48680731D01*
X146522043Y-48702957D01*
X146544269Y-48730040D01*
X146560789Y-48760947D01*
X146570961Y-48794478D01*
X146575000Y-48835487D01*
X146575000Y-49864513D01*
X146570961Y-49905522D01*
X146560789Y-49939053D01*
X146544269Y-49969960D01*
X146522043Y-49997043D01*
X146494960Y-50019269D01*
X146464053Y-50035789D01*
X146430522Y-50045961D01*
X146389513Y-50050000D01*
X145610487Y-50050000D01*
X145569478Y-50045961D01*
X145535947Y-50035789D01*
X145505040Y-50019269D01*
X145477957Y-49997043D01*
X145455731Y-49969960D01*
X145439211Y-49939053D01*
X145429039Y-49905522D01*
X145425000Y-49864513D01*
X145425000Y-48835487D01*
X145429039Y-48794478D01*
X145439211Y-48760947D01*
X145455731Y-48730040D01*
X145477957Y-48702957D01*
X145505040Y-48680731D01*
X145535947Y-48664211D01*
X145569478Y-48654039D01*
X145610487Y-48650000D01*
X146389513Y-48650000D01*
X146430522Y-48654039D01*
X146430522Y-48654039D01*
G37*
G36*
X159300000Y-49925000D02*
X156900000Y-49925000D01*
X156900000Y-46425000D01*
X159300000Y-46425000D01*
X159300000Y-49925000D01*
X159300000Y-49925000D01*
G37*
G36*
X154755522Y-48679039D02*
X154789053Y-48689211D01*
X154819960Y-48705731D01*
X154847043Y-48727957D01*
X154869269Y-48755040D01*
X154885789Y-48785947D01*
X154895961Y-48819478D01*
X154900000Y-48860487D01*
X154900000Y-49639513D01*
X154895961Y-49680522D01*
X154885789Y-49714053D01*
X154869269Y-49744960D01*
X154847043Y-49772043D01*
X154819960Y-49794269D01*
X154789053Y-49810789D01*
X154755522Y-49820961D01*
X154714513Y-49825000D01*
X153685487Y-49825000D01*
X153644478Y-49820961D01*
X153610947Y-49810789D01*
X153580040Y-49794269D01*
X153552957Y-49772043D01*
X153530731Y-49744960D01*
X153514211Y-49714053D01*
X153504039Y-49680522D01*
X153500000Y-49639513D01*
X153500000Y-48860487D01*
X153504039Y-48819478D01*
X153514211Y-48785947D01*
X153530731Y-48755040D01*
X153552957Y-48727957D01*
X153580040Y-48705731D01*
X153610947Y-48689211D01*
X153644478Y-48679039D01*
X153685487Y-48675000D01*
X154714513Y-48675000D01*
X154755522Y-48679039D01*
X154755522Y-48679039D01*
G37*
G36*
X163855522Y-48354039D02*
X163889053Y-48364211D01*
X163919960Y-48380731D01*
X163947043Y-48402957D01*
X163969269Y-48430040D01*
X163985789Y-48460947D01*
X163995961Y-48494478D01*
X164000000Y-48535487D01*
X164000000Y-49314513D01*
X163995961Y-49355522D01*
X163985789Y-49389053D01*
X163969269Y-49419960D01*
X163947043Y-49447043D01*
X163919960Y-49469269D01*
X163889053Y-49485789D01*
X163855522Y-49495961D01*
X163814513Y-49500000D01*
X162785487Y-49500000D01*
X162744478Y-49495961D01*
X162710947Y-49485789D01*
X162680040Y-49469269D01*
X162652957Y-49447043D01*
X162630731Y-49419960D01*
X162614211Y-49389053D01*
X162604039Y-49355522D01*
X162600000Y-49314513D01*
X162600000Y-48535487D01*
X162604039Y-48494478D01*
X162614211Y-48460947D01*
X162630731Y-48430040D01*
X162652957Y-48402957D01*
X162680040Y-48380731D01*
X162710947Y-48364211D01*
X162744478Y-48354039D01*
X162785487Y-48350000D01*
X163814513Y-48350000D01*
X163855522Y-48354039D01*
X163855522Y-48354039D01*
G37*
G36*
X166055522Y-48329039D02*
X166089053Y-48339211D01*
X166119960Y-48355731D01*
X166147043Y-48377957D01*
X166169269Y-48405040D01*
X166185789Y-48435947D01*
X166195961Y-48469478D01*
X166200000Y-48510487D01*
X166200000Y-49289513D01*
X166195961Y-49330522D01*
X166185789Y-49364053D01*
X166169269Y-49394960D01*
X166147043Y-49422043D01*
X166119960Y-49444269D01*
X166089053Y-49460789D01*
X166055522Y-49470961D01*
X166014513Y-49475000D01*
X164985487Y-49475000D01*
X164944478Y-49470961D01*
X164910947Y-49460789D01*
X164880040Y-49444269D01*
X164852957Y-49422043D01*
X164830731Y-49394960D01*
X164814211Y-49364053D01*
X164804039Y-49330522D01*
X164800000Y-49289513D01*
X164800000Y-48510487D01*
X164804039Y-48469478D01*
X164814211Y-48435947D01*
X164830731Y-48405040D01*
X164852957Y-48377957D01*
X164880040Y-48355731D01*
X164910947Y-48339211D01*
X164944478Y-48329039D01*
X164985487Y-48325000D01*
X166014513Y-48325000D01*
X166055522Y-48329039D01*
X166055522Y-48329039D01*
G37*
G36*
X151532323Y-48034767D02*
X151659561Y-48073364D01*
X151776824Y-48136042D01*
X151879606Y-48220394D01*
X151963958Y-48323176D01*
X152026636Y-48440439D01*
X152065233Y-48567677D01*
X152078266Y-48700000D01*
X152065233Y-48832323D01*
X152026636Y-48959561D01*
X151963958Y-49076824D01*
X151879606Y-49179606D01*
X151776824Y-49263958D01*
X151659561Y-49326636D01*
X151532323Y-49365233D01*
X151433159Y-49375000D01*
X151366841Y-49375000D01*
X151267677Y-49365233D01*
X151140439Y-49326636D01*
X151023176Y-49263958D01*
X150920394Y-49179606D01*
X150836042Y-49076824D01*
X150773364Y-48959561D01*
X150734767Y-48832323D01*
X150721734Y-48700000D01*
X150734767Y-48567677D01*
X150773364Y-48440439D01*
X150836042Y-48323176D01*
X150920394Y-48220394D01*
X151023176Y-48136042D01*
X151140439Y-48073364D01*
X151267677Y-48034767D01*
X151366841Y-48025000D01*
X151433159Y-48025000D01*
X151532323Y-48034767D01*
X151532323Y-48034767D01*
G37*
G36*
X178375000Y-48925000D02*
X177075000Y-48925000D01*
X177075000Y-43175000D01*
X178375000Y-43175000D01*
X178375000Y-48925000D01*
X178375000Y-48925000D01*
G37*
G36*
X169675000Y-48925000D02*
X168375000Y-48925000D01*
X168375000Y-43175000D01*
X169675000Y-43175000D01*
X169675000Y-48925000D01*
X169675000Y-48925000D01*
G37*
G36*
X154755522Y-46629039D02*
X154789053Y-46639211D01*
X154819960Y-46655731D01*
X154847043Y-46677957D01*
X154869269Y-46705040D01*
X154885789Y-46735947D01*
X154895961Y-46769478D01*
X154900000Y-46810487D01*
X154900000Y-47589513D01*
X154895961Y-47630522D01*
X154885789Y-47664053D01*
X154869269Y-47694960D01*
X154847043Y-47722043D01*
X154819960Y-47744269D01*
X154789053Y-47760789D01*
X154755522Y-47770961D01*
X154714513Y-47775000D01*
X153685487Y-47775000D01*
X153644478Y-47770961D01*
X153610947Y-47760789D01*
X153580040Y-47744269D01*
X153552957Y-47722043D01*
X153530731Y-47694960D01*
X153514211Y-47664053D01*
X153504039Y-47630522D01*
X153500000Y-47589513D01*
X153500000Y-46810487D01*
X153504039Y-46769478D01*
X153514211Y-46735947D01*
X153530731Y-46705040D01*
X153552957Y-46677957D01*
X153580040Y-46655731D01*
X153610947Y-46639211D01*
X153644478Y-46629039D01*
X153685487Y-46625000D01*
X154714513Y-46625000D01*
X154755522Y-46629039D01*
X154755522Y-46629039D01*
G37*
G36*
X163855522Y-46304039D02*
X163889053Y-46314211D01*
X163919960Y-46330731D01*
X163947043Y-46352957D01*
X163969269Y-46380040D01*
X163985789Y-46410947D01*
X163995961Y-46444478D01*
X164000000Y-46485487D01*
X164000000Y-47264513D01*
X163995961Y-47305522D01*
X163985789Y-47339053D01*
X163969269Y-47369960D01*
X163947043Y-47397043D01*
X163919960Y-47419269D01*
X163889053Y-47435789D01*
X163855522Y-47445961D01*
X163814513Y-47450000D01*
X162785487Y-47450000D01*
X162744478Y-47445961D01*
X162710947Y-47435789D01*
X162680040Y-47419269D01*
X162652957Y-47397043D01*
X162630731Y-47369960D01*
X162614211Y-47339053D01*
X162604039Y-47305522D01*
X162600000Y-47264513D01*
X162600000Y-46485487D01*
X162604039Y-46444478D01*
X162614211Y-46410947D01*
X162630731Y-46380040D01*
X162652957Y-46352957D01*
X162680040Y-46330731D01*
X162710947Y-46314211D01*
X162744478Y-46304039D01*
X162785487Y-46300000D01*
X163814513Y-46300000D01*
X163855522Y-46304039D01*
X163855522Y-46304039D01*
G37*
G36*
X166055522Y-46279039D02*
X166089053Y-46289211D01*
X166119960Y-46305731D01*
X166147043Y-46327957D01*
X166169269Y-46355040D01*
X166185789Y-46385947D01*
X166195961Y-46419478D01*
X166200000Y-46460487D01*
X166200000Y-47239513D01*
X166195961Y-47280522D01*
X166185789Y-47314053D01*
X166169269Y-47344960D01*
X166147043Y-47372043D01*
X166119960Y-47394269D01*
X166089053Y-47410789D01*
X166055522Y-47420961D01*
X166014513Y-47425000D01*
X164985487Y-47425000D01*
X164944478Y-47420961D01*
X164910947Y-47410789D01*
X164880040Y-47394269D01*
X164852957Y-47372043D01*
X164830731Y-47344960D01*
X164814211Y-47314053D01*
X164804039Y-47280522D01*
X164800000Y-47239513D01*
X164800000Y-46460487D01*
X164804039Y-46419478D01*
X164814211Y-46385947D01*
X164830731Y-46355040D01*
X164852957Y-46327957D01*
X164880040Y-46305731D01*
X164910947Y-46289211D01*
X164944478Y-46279039D01*
X164985487Y-46275000D01*
X166014513Y-46275000D01*
X166055522Y-46279039D01*
X166055522Y-46279039D01*
G37*
G36*
X151532323Y-46034767D02*
X151659561Y-46073364D01*
X151776824Y-46136042D01*
X151879606Y-46220394D01*
X151963958Y-46323176D01*
X152026636Y-46440439D01*
X152065233Y-46567677D01*
X152078266Y-46700000D01*
X152065233Y-46832323D01*
X152026636Y-46959561D01*
X151963958Y-47076824D01*
X151879606Y-47179606D01*
X151776824Y-47263958D01*
X151659561Y-47326636D01*
X151532323Y-47365233D01*
X151433159Y-47375000D01*
X151366841Y-47375000D01*
X151267677Y-47365233D01*
X151140439Y-47326636D01*
X151023176Y-47263958D01*
X150920394Y-47179606D01*
X150836042Y-47076824D01*
X150773364Y-46959561D01*
X150734767Y-46832323D01*
X150721734Y-46700000D01*
X150734767Y-46567677D01*
X150773364Y-46440439D01*
X150836042Y-46323176D01*
X150920394Y-46220394D01*
X151023176Y-46136042D01*
X151140439Y-46073364D01*
X151267677Y-46034767D01*
X151366841Y-46025000D01*
X151433159Y-46025000D01*
X151532323Y-46034767D01*
X151532323Y-46034767D01*
G37*
G36*
X151532323Y-44034767D02*
X151659561Y-44073364D01*
X151776824Y-44136042D01*
X151879606Y-44220394D01*
X151963958Y-44323176D01*
X152026636Y-44440439D01*
X152065233Y-44567677D01*
X152078266Y-44700000D01*
X152065233Y-44832323D01*
X152026636Y-44959561D01*
X151963958Y-45076824D01*
X151879606Y-45179606D01*
X151776824Y-45263958D01*
X151659561Y-45326636D01*
X151532323Y-45365233D01*
X151433159Y-45375000D01*
X151366841Y-45375000D01*
X151267677Y-45365233D01*
X151140439Y-45326636D01*
X151023176Y-45263958D01*
X150920394Y-45179606D01*
X150836042Y-45076824D01*
X150773364Y-44959561D01*
X150734767Y-44832323D01*
X150721734Y-44700000D01*
X150734767Y-44567677D01*
X150773364Y-44440439D01*
X150836042Y-44323176D01*
X150920394Y-44220394D01*
X151023176Y-44136042D01*
X151140439Y-44073364D01*
X151267677Y-44034767D01*
X151366841Y-44025000D01*
X151433159Y-44025000D01*
X151532323Y-44034767D01*
X151532323Y-44034767D01*
G37*
G36*
X181455522Y-44054039D02*
X181489053Y-44064211D01*
X181519960Y-44080731D01*
X181547043Y-44102957D01*
X181569269Y-44130040D01*
X181585789Y-44160947D01*
X181595961Y-44194478D01*
X181600000Y-44235487D01*
X181600000Y-45014513D01*
X181595961Y-45055522D01*
X181585789Y-45089053D01*
X181569269Y-45119960D01*
X181547043Y-45147043D01*
X181519960Y-45169269D01*
X181489053Y-45185789D01*
X181455522Y-45195961D01*
X181414513Y-45200000D01*
X180385487Y-45200000D01*
X180344478Y-45195961D01*
X180310947Y-45185789D01*
X180280040Y-45169269D01*
X180252957Y-45147043D01*
X180230731Y-45119960D01*
X180214211Y-45089053D01*
X180204039Y-45055522D01*
X180200000Y-45014513D01*
X180200000Y-44235487D01*
X180204039Y-44194478D01*
X180214211Y-44160947D01*
X180230731Y-44130040D01*
X180252957Y-44102957D01*
X180280040Y-44080731D01*
X180310947Y-44064211D01*
X180344478Y-44054039D01*
X180385487Y-44050000D01*
X181414513Y-44050000D01*
X181455522Y-44054039D01*
X181455522Y-44054039D01*
G37*
G36*
X159300000Y-44725000D02*
X156900000Y-44725000D01*
X156900000Y-41225000D01*
X159300000Y-41225000D01*
X159300000Y-44725000D01*
X159300000Y-44725000D01*
G37*
G36*
X154755522Y-43354039D02*
X154789053Y-43364211D01*
X154819960Y-43380731D01*
X154847043Y-43402957D01*
X154869269Y-43430040D01*
X154885789Y-43460947D01*
X154895961Y-43494478D01*
X154900000Y-43535487D01*
X154900000Y-44314513D01*
X154895961Y-44355522D01*
X154885789Y-44389053D01*
X154869269Y-44419960D01*
X154847043Y-44447043D01*
X154819960Y-44469269D01*
X154789053Y-44485789D01*
X154755522Y-44495961D01*
X154714513Y-44500000D01*
X153685487Y-44500000D01*
X153644478Y-44495961D01*
X153610947Y-44485789D01*
X153580040Y-44469269D01*
X153552957Y-44447043D01*
X153530731Y-44419960D01*
X153514211Y-44389053D01*
X153504039Y-44355522D01*
X153500000Y-44314513D01*
X153500000Y-43535487D01*
X153504039Y-43494478D01*
X153514211Y-43460947D01*
X153530731Y-43430040D01*
X153552957Y-43402957D01*
X153580040Y-43380731D01*
X153610947Y-43364211D01*
X153644478Y-43354039D01*
X153685487Y-43350000D01*
X154714513Y-43350000D01*
X154755522Y-43354039D01*
X154755522Y-43354039D01*
G37*
G36*
X140150000Y-44175000D02*
X133050000Y-44175000D01*
X133050000Y-42725000D01*
X140150000Y-42725000D01*
X140150000Y-44175000D01*
X140150000Y-44175000D01*
G37*
G36*
X165830522Y-42204039D02*
X165864053Y-42214211D01*
X165894960Y-42230731D01*
X165922043Y-42252957D01*
X165944269Y-42280040D01*
X165960789Y-42310947D01*
X165970961Y-42344478D01*
X165975000Y-42385487D01*
X165975000Y-43414513D01*
X165970961Y-43455522D01*
X165960789Y-43489053D01*
X165944269Y-43519960D01*
X165922043Y-43547043D01*
X165894960Y-43569269D01*
X165864053Y-43585789D01*
X165830522Y-43595961D01*
X165789513Y-43600000D01*
X165010487Y-43600000D01*
X164969478Y-43595961D01*
X164935947Y-43585789D01*
X164905040Y-43569269D01*
X164877957Y-43547043D01*
X164855731Y-43519960D01*
X164839211Y-43489053D01*
X164829039Y-43455522D01*
X164825000Y-43414513D01*
X164825000Y-42385487D01*
X164829039Y-42344478D01*
X164839211Y-42310947D01*
X164855731Y-42280040D01*
X164877957Y-42252957D01*
X164905040Y-42230731D01*
X164935947Y-42214211D01*
X164969478Y-42204039D01*
X165010487Y-42200000D01*
X165789513Y-42200000D01*
X165830522Y-42204039D01*
X165830522Y-42204039D01*
G37*
G36*
X163780522Y-42204039D02*
X163814053Y-42214211D01*
X163844960Y-42230731D01*
X163872043Y-42252957D01*
X163894269Y-42280040D01*
X163910789Y-42310947D01*
X163920961Y-42344478D01*
X163925000Y-42385487D01*
X163925000Y-43414513D01*
X163920961Y-43455522D01*
X163910789Y-43489053D01*
X163894269Y-43519960D01*
X163872043Y-43547043D01*
X163844960Y-43569269D01*
X163814053Y-43585789D01*
X163780522Y-43595961D01*
X163739513Y-43600000D01*
X162960487Y-43600000D01*
X162919478Y-43595961D01*
X162885947Y-43585789D01*
X162855040Y-43569269D01*
X162827957Y-43547043D01*
X162805731Y-43519960D01*
X162789211Y-43489053D01*
X162779039Y-43455522D01*
X162775000Y-43414513D01*
X162775000Y-42385487D01*
X162779039Y-42344478D01*
X162789211Y-42310947D01*
X162805731Y-42280040D01*
X162827957Y-42252957D01*
X162855040Y-42230731D01*
X162885947Y-42214211D01*
X162919478Y-42204039D01*
X162960487Y-42200000D01*
X163739513Y-42200000D01*
X163780522Y-42204039D01*
X163780522Y-42204039D01*
G37*
G36*
X132378015Y-41487234D02*
X132472268Y-41515825D01*
X132518697Y-41540643D01*
X132559129Y-41562254D01*
X132559131Y-41562255D01*
X132559130Y-41562255D01*
X132635264Y-41624736D01*
X132697745Y-41700870D01*
X132744175Y-41787732D01*
X132772766Y-41881985D01*
X132780000Y-41955436D01*
X132780000Y-43104564D01*
X132772766Y-43178015D01*
X132744175Y-43272268D01*
X132719357Y-43318697D01*
X132697746Y-43359129D01*
X132684721Y-43375000D01*
X132635267Y-43435261D01*
X132635265Y-43435262D01*
X132635264Y-43435264D01*
X132559129Y-43497746D01*
X132517569Y-43519960D01*
X132472267Y-43544175D01*
X132378014Y-43572766D01*
X132280000Y-43582419D01*
X132181985Y-43572766D01*
X132087732Y-43544175D01*
X132013187Y-43504329D01*
X132000871Y-43497746D01*
X131956031Y-43460947D01*
X131924739Y-43435267D01*
X131924738Y-43435265D01*
X131924736Y-43435264D01*
X131862254Y-43359129D01*
X131815826Y-43272268D01*
X131815825Y-43272267D01*
X131787234Y-43178014D01*
X131780000Y-43104563D01*
X131780001Y-41955436D01*
X131787235Y-41881985D01*
X131815826Y-41787732D01*
X131862256Y-41700870D01*
X131924737Y-41624736D01*
X132000871Y-41562255D01*
X132000870Y-41562255D01*
X132000872Y-41562254D01*
X132041304Y-41540643D01*
X132087733Y-41515825D01*
X132181986Y-41487234D01*
X132280000Y-41477581D01*
X132378015Y-41487234D01*
X132378015Y-41487234D01*
G37*
G36*
X141018015Y-41487234D02*
X141112268Y-41515825D01*
X141158697Y-41540643D01*
X141199129Y-41562254D01*
X141199131Y-41562255D01*
X141199130Y-41562255D01*
X141275264Y-41624736D01*
X141337745Y-41700870D01*
X141384175Y-41787732D01*
X141412766Y-41881985D01*
X141420000Y-41955436D01*
X141420000Y-43104564D01*
X141412766Y-43178015D01*
X141384175Y-43272268D01*
X141359357Y-43318697D01*
X141337746Y-43359129D01*
X141324721Y-43375000D01*
X141275267Y-43435261D01*
X141275265Y-43435262D01*
X141275264Y-43435264D01*
X141199129Y-43497746D01*
X141157569Y-43519960D01*
X141112267Y-43544175D01*
X141018014Y-43572766D01*
X140920000Y-43582419D01*
X140821985Y-43572766D01*
X140727732Y-43544175D01*
X140653187Y-43504329D01*
X140640871Y-43497746D01*
X140596031Y-43460947D01*
X140564739Y-43435267D01*
X140564738Y-43435265D01*
X140564736Y-43435264D01*
X140502254Y-43359129D01*
X140455826Y-43272268D01*
X140455825Y-43272267D01*
X140427234Y-43178014D01*
X140420000Y-43104563D01*
X140420001Y-41955436D01*
X140427235Y-41881985D01*
X140455826Y-41787732D01*
X140502256Y-41700870D01*
X140564737Y-41624736D01*
X140640871Y-41562255D01*
X140640870Y-41562255D01*
X140640872Y-41562254D01*
X140681304Y-41540643D01*
X140727733Y-41515825D01*
X140821986Y-41487234D01*
X140920000Y-41477581D01*
X141018015Y-41487234D01*
X141018015Y-41487234D01*
G37*
G36*
X152075000Y-43375000D02*
X150725000Y-43375000D01*
X150725000Y-42025000D01*
X152075000Y-42025000D01*
X152075000Y-43375000D01*
X152075000Y-43375000D01*
G37*
G36*
X181455522Y-42004039D02*
X181489053Y-42014211D01*
X181519960Y-42030731D01*
X181547043Y-42052957D01*
X181569269Y-42080040D01*
X181585789Y-42110947D01*
X181595961Y-42144478D01*
X181600000Y-42185487D01*
X181600000Y-42964513D01*
X181595961Y-43005522D01*
X181585789Y-43039053D01*
X181569269Y-43069960D01*
X181547043Y-43097043D01*
X181519960Y-43119269D01*
X181489053Y-43135789D01*
X181455522Y-43145961D01*
X181414513Y-43150000D01*
X180385487Y-43150000D01*
X180344478Y-43145961D01*
X180310947Y-43135789D01*
X180280040Y-43119269D01*
X180252957Y-43097043D01*
X180230731Y-43069960D01*
X180214211Y-43039053D01*
X180204039Y-43005522D01*
X180200000Y-42964513D01*
X180200000Y-42185487D01*
X180204039Y-42144478D01*
X180214211Y-42110947D01*
X180230731Y-42080040D01*
X180252957Y-42052957D01*
X180280040Y-42030731D01*
X180310947Y-42014211D01*
X180344478Y-42004039D01*
X180385487Y-42000000D01*
X181414513Y-42000000D01*
X181455522Y-42004039D01*
X181455522Y-42004039D01*
G37*
G36*
X154755522Y-41304039D02*
X154789053Y-41314211D01*
X154819960Y-41330731D01*
X154847043Y-41352957D01*
X154869269Y-41380040D01*
X154885789Y-41410947D01*
X154895961Y-41444478D01*
X154900000Y-41485487D01*
X154900000Y-42264513D01*
X154895961Y-42305522D01*
X154885789Y-42339053D01*
X154869269Y-42369960D01*
X154847043Y-42397043D01*
X154819960Y-42419269D01*
X154789053Y-42435789D01*
X154755522Y-42445961D01*
X154714513Y-42450000D01*
X153685487Y-42450000D01*
X153644478Y-42445961D01*
X153610947Y-42435789D01*
X153580040Y-42419269D01*
X153552957Y-42397043D01*
X153530731Y-42369960D01*
X153514211Y-42339053D01*
X153504039Y-42305522D01*
X153500000Y-42264513D01*
X153500000Y-41485487D01*
X153504039Y-41444478D01*
X153514211Y-41410947D01*
X153530731Y-41380040D01*
X153552957Y-41352957D01*
X153580040Y-41330731D01*
X153610947Y-41314211D01*
X153644478Y-41304039D01*
X153685487Y-41300000D01*
X154714513Y-41300000D01*
X154755522Y-41304039D01*
X154755522Y-41304039D01*
G37*
G36*
X176250000Y-42350000D02*
X170500000Y-42350000D01*
X170500000Y-41050000D01*
X176250000Y-41050000D01*
X176250000Y-42350000D01*
X176250000Y-42350000D01*
G37*
G36*
X139584799Y-41687489D02*
X139630543Y-41706437D01*
X139643941Y-41711986D01*
X139643942Y-41711987D01*
X139643945Y-41711988D01*
X139697176Y-41747556D01*
X139742444Y-41792824D01*
X139778012Y-41846055D01*
X139802511Y-41905201D01*
X139815000Y-41967990D01*
X139815000Y-42032010D01*
X139802511Y-42094799D01*
X139778012Y-42153945D01*
X139742444Y-42207176D01*
X139697176Y-42252444D01*
X139643945Y-42288012D01*
X139643942Y-42288013D01*
X139643941Y-42288014D01*
X139630543Y-42293563D01*
X139584799Y-42312511D01*
X139522010Y-42325000D01*
X139457990Y-42325000D01*
X139395201Y-42312511D01*
X139349457Y-42293563D01*
X139336059Y-42288014D01*
X139336058Y-42288013D01*
X139336055Y-42288012D01*
X139282824Y-42252444D01*
X139237556Y-42207176D01*
X139201988Y-42153945D01*
X139177489Y-42094799D01*
X139165000Y-42032010D01*
X139165000Y-41967990D01*
X139177489Y-41905201D01*
X139201988Y-41846055D01*
X139237556Y-41792824D01*
X139282824Y-41747556D01*
X139336055Y-41711988D01*
X139336058Y-41711987D01*
X139336059Y-41711986D01*
X139349457Y-41706437D01*
X139395201Y-41687489D01*
X139457990Y-41675000D01*
X139522010Y-41675000D01*
X139584799Y-41687489D01*
X139584799Y-41687489D01*
G37*
G36*
X133804799Y-41687489D02*
X133850543Y-41706437D01*
X133863941Y-41711986D01*
X133863942Y-41711987D01*
X133863945Y-41711988D01*
X133917176Y-41747556D01*
X133962444Y-41792824D01*
X133998012Y-41846055D01*
X134022511Y-41905201D01*
X134035000Y-41967990D01*
X134035000Y-42032010D01*
X134022511Y-42094799D01*
X133998012Y-42153945D01*
X133962444Y-42207176D01*
X133917176Y-42252444D01*
X133863945Y-42288012D01*
X133863942Y-42288013D01*
X133863941Y-42288014D01*
X133850543Y-42293563D01*
X133804799Y-42312511D01*
X133742010Y-42325000D01*
X133677990Y-42325000D01*
X133615201Y-42312511D01*
X133569457Y-42293563D01*
X133556059Y-42288014D01*
X133556058Y-42288013D01*
X133556055Y-42288012D01*
X133502824Y-42252444D01*
X133457556Y-42207176D01*
X133421988Y-42153945D01*
X133397489Y-42094799D01*
X133385000Y-42032010D01*
X133385000Y-41967990D01*
X133397489Y-41905201D01*
X133421988Y-41846055D01*
X133457556Y-41792824D01*
X133502824Y-41747556D01*
X133556055Y-41711988D01*
X133556058Y-41711987D01*
X133556059Y-41711986D01*
X133569457Y-41706437D01*
X133615201Y-41687489D01*
X133677990Y-41675000D01*
X133742010Y-41675000D01*
X133804799Y-41687489D01*
X133804799Y-41687489D01*
G37*
G36*
X132378015Y-37557234D02*
X132472268Y-37585825D01*
X132518697Y-37610643D01*
X132559129Y-37632254D01*
X132635264Y-37694736D01*
X132697744Y-37770868D01*
X132697745Y-37770870D01*
X132744175Y-37857732D01*
X132772766Y-37951985D01*
X132780000Y-38025436D01*
X132780000Y-38674564D01*
X132772766Y-38748015D01*
X132744175Y-38842268D01*
X132719357Y-38888697D01*
X132697748Y-38929126D01*
X132697745Y-38929130D01*
X132635267Y-39005261D01*
X132635265Y-39005262D01*
X132635264Y-39005264D01*
X132559129Y-39067746D01*
X132513063Y-39092369D01*
X132472267Y-39114175D01*
X132378014Y-39142766D01*
X132280000Y-39152419D01*
X132181985Y-39142766D01*
X132087732Y-39114175D01*
X132034627Y-39085789D01*
X132000871Y-39067746D01*
X131975644Y-39047043D01*
X131924739Y-39005267D01*
X131924738Y-39005265D01*
X131924736Y-39005264D01*
X131862254Y-38929129D01*
X131815826Y-38842268D01*
X131815825Y-38842267D01*
X131787234Y-38748014D01*
X131780000Y-38674563D01*
X131780000Y-38025436D01*
X131787234Y-37951985D01*
X131815824Y-37857735D01*
X131862257Y-37770868D01*
X131924737Y-37694736D01*
X132000871Y-37632255D01*
X132000870Y-37632255D01*
X132000872Y-37632254D01*
X132041304Y-37610643D01*
X132087733Y-37585825D01*
X132181986Y-37557234D01*
X132280000Y-37547581D01*
X132378015Y-37557234D01*
X132378015Y-37557234D01*
G37*
G36*
X141018015Y-37557234D02*
X141112268Y-37585825D01*
X141158697Y-37610643D01*
X141199129Y-37632254D01*
X141275264Y-37694736D01*
X141337744Y-37770868D01*
X141337745Y-37770870D01*
X141384175Y-37857732D01*
X141412766Y-37951985D01*
X141420000Y-38025436D01*
X141420000Y-38674564D01*
X141412766Y-38748015D01*
X141384175Y-38842268D01*
X141359357Y-38888697D01*
X141337748Y-38929126D01*
X141337745Y-38929130D01*
X141275267Y-39005261D01*
X141275265Y-39005262D01*
X141275264Y-39005264D01*
X141199129Y-39067746D01*
X141153063Y-39092369D01*
X141112267Y-39114175D01*
X141018014Y-39142766D01*
X140920000Y-39152419D01*
X140821985Y-39142766D01*
X140727732Y-39114175D01*
X140674627Y-39085789D01*
X140640871Y-39067746D01*
X140615644Y-39047043D01*
X140564739Y-39005267D01*
X140564738Y-39005265D01*
X140564736Y-39005264D01*
X140502254Y-38929129D01*
X140455826Y-38842268D01*
X140455825Y-38842267D01*
X140427234Y-38748014D01*
X140420000Y-38674563D01*
X140420000Y-38025436D01*
X140427234Y-37951985D01*
X140455824Y-37857735D01*
X140502257Y-37770868D01*
X140564737Y-37694736D01*
X140640871Y-37632255D01*
X140640870Y-37632255D01*
X140640872Y-37632254D01*
X140681304Y-37610643D01*
X140727733Y-37585825D01*
X140821986Y-37557234D01*
X140920000Y-37547581D01*
X141018015Y-37557234D01*
X141018015Y-37557234D01*
G37*
G36*
X174780522Y-37704039D02*
X174814053Y-37714211D01*
X174844960Y-37730731D01*
X174872043Y-37752957D01*
X174894269Y-37780040D01*
X174910789Y-37810947D01*
X174920961Y-37844478D01*
X174925000Y-37885487D01*
X174925000Y-38914513D01*
X174920961Y-38955522D01*
X174910789Y-38989053D01*
X174894269Y-39019960D01*
X174872043Y-39047043D01*
X174844960Y-39069269D01*
X174814053Y-39085789D01*
X174780522Y-39095961D01*
X174739513Y-39100000D01*
X173960487Y-39100000D01*
X173919478Y-39095961D01*
X173885947Y-39085789D01*
X173855040Y-39069269D01*
X173827957Y-39047043D01*
X173805731Y-39019960D01*
X173789211Y-38989053D01*
X173779039Y-38955522D01*
X173775000Y-38914513D01*
X173775000Y-37885487D01*
X173779039Y-37844478D01*
X173789211Y-37810947D01*
X173805731Y-37780040D01*
X173827957Y-37752957D01*
X173855040Y-37730731D01*
X173885947Y-37714211D01*
X173919478Y-37704039D01*
X173960487Y-37700000D01*
X174739513Y-37700000D01*
X174780522Y-37704039D01*
X174780522Y-37704039D01*
G37*
G36*
X172355522Y-37704039D02*
X172389053Y-37714211D01*
X172419960Y-37730731D01*
X172447043Y-37752957D01*
X172469269Y-37780040D01*
X172485789Y-37810947D01*
X172495961Y-37844478D01*
X172500000Y-37885487D01*
X172500000Y-38914513D01*
X172495961Y-38955522D01*
X172485789Y-38989053D01*
X172469269Y-39019960D01*
X172447043Y-39047043D01*
X172419960Y-39069269D01*
X172389053Y-39085789D01*
X172355522Y-39095961D01*
X172314513Y-39100000D01*
X171535487Y-39100000D01*
X171494478Y-39095961D01*
X171460947Y-39085789D01*
X171430040Y-39069269D01*
X171402957Y-39047043D01*
X171380731Y-39019960D01*
X171364211Y-38989053D01*
X171354039Y-38955522D01*
X171350000Y-38914513D01*
X171350000Y-37885487D01*
X171354039Y-37844478D01*
X171364211Y-37810947D01*
X171380731Y-37780040D01*
X171402957Y-37752957D01*
X171430040Y-37730731D01*
X171460947Y-37714211D01*
X171494478Y-37704039D01*
X171535487Y-37700000D01*
X172314513Y-37700000D01*
X172355522Y-37704039D01*
X172355522Y-37704039D01*
G37*
G36*
X170305522Y-37704039D02*
X170339053Y-37714211D01*
X170369960Y-37730731D01*
X170397043Y-37752957D01*
X170419269Y-37780040D01*
X170435789Y-37810947D01*
X170445961Y-37844478D01*
X170450000Y-37885487D01*
X170450000Y-38914513D01*
X170445961Y-38955522D01*
X170435789Y-38989053D01*
X170419269Y-39019960D01*
X170397043Y-39047043D01*
X170369960Y-39069269D01*
X170339053Y-39085789D01*
X170305522Y-39095961D01*
X170264513Y-39100000D01*
X169485487Y-39100000D01*
X169444478Y-39095961D01*
X169410947Y-39085789D01*
X169380040Y-39069269D01*
X169352957Y-39047043D01*
X169330731Y-39019960D01*
X169314211Y-38989053D01*
X169304039Y-38955522D01*
X169300000Y-38914513D01*
X169300000Y-37885487D01*
X169304039Y-37844478D01*
X169314211Y-37810947D01*
X169330731Y-37780040D01*
X169352957Y-37752957D01*
X169380040Y-37730731D01*
X169410947Y-37714211D01*
X169444478Y-37704039D01*
X169485487Y-37700000D01*
X170264513Y-37700000D01*
X170305522Y-37704039D01*
X170305522Y-37704039D01*
G37*
G36*
X176830522Y-37704039D02*
X176864053Y-37714211D01*
X176894960Y-37730731D01*
X176922043Y-37752957D01*
X176944269Y-37780040D01*
X176960789Y-37810947D01*
X176970961Y-37844478D01*
X176975000Y-37885487D01*
X176975000Y-38914513D01*
X176970961Y-38955522D01*
X176960789Y-38989053D01*
X176944269Y-39019960D01*
X176922043Y-39047043D01*
X176894960Y-39069269D01*
X176864053Y-39085789D01*
X176830522Y-39095961D01*
X176789513Y-39100000D01*
X176010487Y-39100000D01*
X175969478Y-39095961D01*
X175935947Y-39085789D01*
X175905040Y-39069269D01*
X175877957Y-39047043D01*
X175855731Y-39019960D01*
X175839211Y-38989053D01*
X175829039Y-38955522D01*
X175825000Y-38914513D01*
X175825000Y-37885487D01*
X175829039Y-37844478D01*
X175839211Y-37810947D01*
X175855731Y-37780040D01*
X175877957Y-37752957D01*
X175905040Y-37730731D01*
X175935947Y-37714211D01*
X175969478Y-37704039D01*
X176010487Y-37700000D01*
X176789513Y-37700000D01*
X176830522Y-37704039D01*
X176830522Y-37704039D01*
G37*
M02*
