M48
;DRILL file {KiCad 5.0.1} date Sat 02 Mar 2019 07:37:41 PM CET
;FORMAT={-:-/ absolute / metric / decimal}
FMAT,2
METRIC,TZ
T1C0.300
T2C0.600
T3C0.800
T4C1.500
%
G90
G05
M71
T1
X111.5Y-92.6
X111.5Y-120.8
X124.9Y-74.1
X129.1Y-147.6
X143.Y-38.
X144.2Y-74.7
X145.3Y-49.7
X147.2Y-45.6
X151.875Y-51.2
X152.375Y-51.975
X152.4Y-42.109
X152.875Y-51.2
X153.2Y-38.276
X153.4Y-52.
X155.4Y-52.
X158.2Y-148.1
X159.2Y-42.1
X160.073Y-48.5
X160.8Y-48.5
X161.2Y-37.6
X161.5Y-47.725
X161.544Y-48.5
X162.2Y-43.3
X162.2Y-45.3
X162.981Y-48.5
X164.6Y-40.2
X164.6Y-46.6
X164.6Y-137.3
X166.486Y-72.493
X166.739Y-73.174
X167.51Y-73.9
X167.8Y-148.
X168.509Y-62.643
X168.55Y-116.7
X168.9Y-43.6
X168.909Y-81.693
X169.309Y-100.743
X169.8Y-128.049
X172.Y-43.6
X172.1Y-74.7
X172.7Y-148.
X173.15Y-43.6
X175.9Y-42.9
X176.Y-39.8
X177.3Y-118.5
X178.9Y-117.
X179.2Y-38.4
X179.5Y-144.4
X181.2Y-103.9
X181.7Y-148.
X183.1Y-139.5
T3
X179.8Y-43.9
X179.8Y-45.9
X179.8Y-47.9
X179.8Y-49.9
T4
X152.432Y-81.693
X158.782Y-79.153
X171.482Y-100.743
X177.832Y-98.203
X171.482Y-62.643
X177.832Y-60.103
X133.382Y-100.743
X139.732Y-98.203
X114.332Y-138.843
X120.682Y-136.303
X133.382Y-138.843
X139.732Y-136.303
X114.332Y-81.693
X120.682Y-79.153
X114.332Y-62.643
X120.682Y-60.103
X133.382Y-62.643
X139.732Y-60.103
X133.382Y-119.793
X139.732Y-117.253
X133.382Y-81.693
X139.732Y-79.153
X114.332Y-119.793
X120.682Y-117.253
X114.332Y-100.743
X120.682Y-98.203
X177.834Y-128.049
X180.374Y-134.399
X152.432Y-100.743
X158.782Y-98.203
X171.482Y-81.693
X177.832Y-79.153
X152.432Y-138.843
X158.782Y-136.303
X152.432Y-62.643
X158.782Y-60.103
X152.432Y-119.793
X158.782Y-117.253
T2
X166.38Y-37.4G85X166.38Y-36.8
G05
X166.38Y-41.83G85X166.38Y-40.73
G05
X175.02Y-37.4G85X175.02Y-36.8
G05
X175.02Y-41.83G85X175.02Y-40.73
G05
T0
M30
