G04 #@! TF.GenerationSoftware,KiCad,Pcbnew,5.0.1*
G04 #@! TF.CreationDate,2019-01-15T16:18:38+01:00*
G04 #@! TF.ProjectId,keypad,6B65797061642E6B696361645F706362,rev?*
G04 #@! TF.SameCoordinates,Original*
G04 #@! TF.FileFunction,Soldermask,Bot*
G04 #@! TF.FilePolarity,Negative*
%FSLAX46Y46*%
G04 Gerber Fmt 4.6, Leading zero omitted, Abs format (unit mm)*
G04 Created by KiCad (PCBNEW 5.0.1) date Tue 15 Jan 2019 04:18:38 PM CET*
%MOMM*%
%LPD*%
G01*
G04 APERTURE LIST*
%ADD10C,0.100000*%
G04 APERTURE END LIST*
D10*
G36*
X118608453Y-144944236D02*
X118899633Y-145064847D01*
X119161694Y-145239951D01*
X119384549Y-145462806D01*
X119559653Y-145724867D01*
X119680264Y-146016047D01*
X119741750Y-146325162D01*
X119741750Y-146640338D01*
X119680264Y-146949453D01*
X119559653Y-147240633D01*
X119384549Y-147502694D01*
X119161694Y-147725549D01*
X118899633Y-147900653D01*
X118608453Y-148021264D01*
X118299338Y-148082750D01*
X117984162Y-148082750D01*
X117675047Y-148021264D01*
X117383867Y-147900653D01*
X117121806Y-147725549D01*
X116898951Y-147502694D01*
X116723847Y-147240633D01*
X116603236Y-146949453D01*
X116541750Y-146640338D01*
X116541750Y-146325162D01*
X116603236Y-146016047D01*
X116723847Y-145724867D01*
X116898951Y-145462806D01*
X117121806Y-145239951D01*
X117383867Y-145064847D01*
X117675047Y-144944236D01*
X117984162Y-144882750D01*
X118299338Y-144882750D01*
X118608453Y-144944236D01*
X118608453Y-144944236D01*
G37*
G36*
X137658453Y-144944236D02*
X137949633Y-145064847D01*
X138211694Y-145239951D01*
X138434549Y-145462806D01*
X138609653Y-145724867D01*
X138730264Y-146016047D01*
X138791750Y-146325162D01*
X138791750Y-146640338D01*
X138730264Y-146949453D01*
X138609653Y-147240633D01*
X138434549Y-147502694D01*
X138211694Y-147725549D01*
X137949633Y-147900653D01*
X137658453Y-148021264D01*
X137349338Y-148082750D01*
X137034162Y-148082750D01*
X136725047Y-148021264D01*
X136433867Y-147900653D01*
X136171806Y-147725549D01*
X135948951Y-147502694D01*
X135773847Y-147240633D01*
X135653236Y-146949453D01*
X135591750Y-146640338D01*
X135591750Y-146325162D01*
X135653236Y-146016047D01*
X135773847Y-145724867D01*
X135948951Y-145462806D01*
X136171806Y-145239951D01*
X136433867Y-145064847D01*
X136725047Y-144944236D01*
X137034162Y-144882750D01*
X137349338Y-144882750D01*
X137658453Y-144944236D01*
X137658453Y-144944236D01*
G37*
G36*
X156708453Y-144944236D02*
X156999633Y-145064847D01*
X157261694Y-145239951D01*
X157484549Y-145462806D01*
X157659653Y-145724867D01*
X157780264Y-146016047D01*
X157841750Y-146325162D01*
X157841750Y-146640338D01*
X157780264Y-146949453D01*
X157659653Y-147240633D01*
X157484549Y-147502694D01*
X157261694Y-147725549D01*
X156999633Y-147900653D01*
X156708453Y-148021264D01*
X156399338Y-148082750D01*
X156084162Y-148082750D01*
X155775047Y-148021264D01*
X155483867Y-147900653D01*
X155221806Y-147725549D01*
X154998951Y-147502694D01*
X154823847Y-147240633D01*
X154703236Y-146949453D01*
X154641750Y-146640338D01*
X154641750Y-146325162D01*
X154703236Y-146016047D01*
X154823847Y-145724867D01*
X154998951Y-145462806D01*
X155221806Y-145239951D01*
X155483867Y-145064847D01*
X155775047Y-144944236D01*
X156084162Y-144882750D01*
X156399338Y-144882750D01*
X156708453Y-144944236D01*
X156708453Y-144944236D01*
G37*
G36*
X159541750Y-147407750D02*
X158141750Y-147407750D01*
X158141750Y-146807750D01*
X159541750Y-146807750D01*
X159541750Y-147407750D01*
X159541750Y-147407750D01*
G37*
G36*
X116241750Y-147407750D02*
X114841750Y-147407750D01*
X114841750Y-146807750D01*
X116241750Y-146807750D01*
X116241750Y-147407750D01*
X116241750Y-147407750D01*
G37*
G36*
X121441750Y-147407750D02*
X120041750Y-147407750D01*
X120041750Y-146807750D01*
X121441750Y-146807750D01*
X121441750Y-147407750D01*
X121441750Y-147407750D01*
G37*
G36*
X135291750Y-147407750D02*
X133891750Y-147407750D01*
X133891750Y-146807750D01*
X135291750Y-146807750D01*
X135291750Y-147407750D01*
X135291750Y-147407750D01*
G37*
G36*
X140491750Y-147407750D02*
X139091750Y-147407750D01*
X139091750Y-146807750D01*
X140491750Y-146807750D01*
X140491750Y-147407750D01*
X140491750Y-147407750D01*
G37*
G36*
X154341750Y-147407750D02*
X152941750Y-147407750D01*
X152941750Y-146807750D01*
X154341750Y-146807750D01*
X154341750Y-147407750D01*
X154341750Y-147407750D01*
G37*
G36*
X154341750Y-146157750D02*
X152941750Y-146157750D01*
X152941750Y-145557750D01*
X154341750Y-145557750D01*
X154341750Y-146157750D01*
X154341750Y-146157750D01*
G37*
G36*
X135291750Y-146157750D02*
X133891750Y-146157750D01*
X133891750Y-145557750D01*
X135291750Y-145557750D01*
X135291750Y-146157750D01*
X135291750Y-146157750D01*
G37*
G36*
X159541750Y-146157750D02*
X158141750Y-146157750D01*
X158141750Y-145557750D01*
X159541750Y-145557750D01*
X159541750Y-146157750D01*
X159541750Y-146157750D01*
G37*
G36*
X140491750Y-146157750D02*
X139091750Y-146157750D01*
X139091750Y-145557750D01*
X140491750Y-145557750D01*
X140491750Y-146157750D01*
X140491750Y-146157750D01*
G37*
G36*
X116241750Y-146157750D02*
X114841750Y-146157750D01*
X114841750Y-145557750D01*
X116241750Y-145557750D01*
X116241750Y-146157750D01*
X116241750Y-146157750D01*
G37*
G36*
X121441750Y-146157750D02*
X120041750Y-146157750D01*
X120041750Y-145557750D01*
X121441750Y-145557750D01*
X121441750Y-146157750D01*
X121441750Y-146157750D01*
G37*
G36*
X167637128Y-141835609D02*
X168001104Y-141986372D01*
X168328679Y-142205251D01*
X168607249Y-142483821D01*
X168826128Y-142811396D01*
X168976891Y-143175372D01*
X169053750Y-143561766D01*
X169053750Y-143955734D01*
X168976891Y-144342128D01*
X168826128Y-144706104D01*
X168607249Y-145033679D01*
X168328679Y-145312249D01*
X168001104Y-145531128D01*
X167637128Y-145681891D01*
X167250734Y-145758750D01*
X166856766Y-145758750D01*
X166470372Y-145681891D01*
X166106396Y-145531128D01*
X165778821Y-145312249D01*
X165500251Y-145033679D01*
X165281372Y-144706104D01*
X165130609Y-144342128D01*
X165053750Y-143955734D01*
X165053750Y-143561766D01*
X165130609Y-143175372D01*
X165281372Y-142811396D01*
X165500251Y-142483821D01*
X165778821Y-142205251D01*
X166106396Y-141986372D01*
X166470372Y-141835609D01*
X166856766Y-141758750D01*
X167250734Y-141758750D01*
X167637128Y-141835609D01*
X167637128Y-141835609D01*
G37*
G36*
X112775000Y-145575000D02*
X111925000Y-145575000D01*
X111925000Y-143975000D01*
X112775000Y-143975000D01*
X112775000Y-145575000D01*
X112775000Y-145575000D01*
G37*
G36*
X111025000Y-145575000D02*
X110175000Y-145575000D01*
X110175000Y-143975000D01*
X111025000Y-143975000D01*
X111025000Y-145575000D01*
X111025000Y-145575000D01*
G37*
G36*
X182738573Y-142292354D02*
X182738575Y-142292355D01*
X182738576Y-142292355D01*
X183016108Y-142407312D01*
X183016109Y-142407313D01*
X183265884Y-142574207D01*
X183478293Y-142786616D01*
X183478295Y-142786619D01*
X183645188Y-143036392D01*
X183760145Y-143313924D01*
X183760146Y-143313927D01*
X183809444Y-143561766D01*
X183818750Y-143608551D01*
X183818750Y-143908949D01*
X183760145Y-144203576D01*
X183645188Y-144481108D01*
X183645187Y-144481109D01*
X183478293Y-144730884D01*
X183265884Y-144943293D01*
X183265881Y-144943295D01*
X183016108Y-145110188D01*
X182738576Y-145225145D01*
X182738575Y-145225145D01*
X182738573Y-145225146D01*
X182443951Y-145283750D01*
X182143549Y-145283750D01*
X181848927Y-145225146D01*
X181848925Y-145225145D01*
X181848924Y-145225145D01*
X181571392Y-145110188D01*
X181321619Y-144943295D01*
X181321616Y-144943293D01*
X181109207Y-144730884D01*
X180942313Y-144481109D01*
X180942312Y-144481108D01*
X180827355Y-144203576D01*
X180768750Y-143908949D01*
X180768750Y-143608551D01*
X180778056Y-143561766D01*
X180827354Y-143313927D01*
X180827355Y-143313924D01*
X180942312Y-143036392D01*
X181109205Y-142786619D01*
X181109207Y-142786616D01*
X181321616Y-142574207D01*
X181571391Y-142407313D01*
X181571392Y-142407312D01*
X181848924Y-142292355D01*
X181848925Y-142292355D01*
X181848927Y-142292354D01*
X182143549Y-142233750D01*
X182443951Y-142233750D01*
X182738573Y-142292354D01*
X182738573Y-142292354D01*
G37*
G36*
X156825128Y-139459609D02*
X157189104Y-139610372D01*
X157516679Y-139829251D01*
X157795249Y-140107821D01*
X158014128Y-140435396D01*
X158164891Y-140799372D01*
X158241750Y-141185766D01*
X158241750Y-141579734D01*
X158164891Y-141966128D01*
X158014128Y-142330104D01*
X157795249Y-142657679D01*
X157516679Y-142936249D01*
X157189104Y-143155128D01*
X156825128Y-143305891D01*
X156438734Y-143382750D01*
X156044766Y-143382750D01*
X155658372Y-143305891D01*
X155294396Y-143155128D01*
X154966821Y-142936249D01*
X154688251Y-142657679D01*
X154469372Y-142330104D01*
X154318609Y-141966128D01*
X154241750Y-141579734D01*
X154241750Y-141185766D01*
X154318609Y-140799372D01*
X154469372Y-140435396D01*
X154688251Y-140107821D01*
X154966821Y-139829251D01*
X155294396Y-139610372D01*
X155658372Y-139459609D01*
X156044766Y-139382750D01*
X156438734Y-139382750D01*
X156825128Y-139459609D01*
X156825128Y-139459609D01*
G37*
G36*
X137775128Y-139459609D02*
X138139104Y-139610372D01*
X138466679Y-139829251D01*
X138745249Y-140107821D01*
X138964128Y-140435396D01*
X139114891Y-140799372D01*
X139191750Y-141185766D01*
X139191750Y-141579734D01*
X139114891Y-141966128D01*
X138964128Y-142330104D01*
X138745249Y-142657679D01*
X138466679Y-142936249D01*
X138139104Y-143155128D01*
X137775128Y-143305891D01*
X137388734Y-143382750D01*
X136994766Y-143382750D01*
X136608372Y-143305891D01*
X136244396Y-143155128D01*
X135916821Y-142936249D01*
X135638251Y-142657679D01*
X135419372Y-142330104D01*
X135268609Y-141966128D01*
X135191750Y-141579734D01*
X135191750Y-141185766D01*
X135268609Y-140799372D01*
X135419372Y-140435396D01*
X135638251Y-140107821D01*
X135916821Y-139829251D01*
X136244396Y-139610372D01*
X136608372Y-139459609D01*
X136994766Y-139382750D01*
X137388734Y-139382750D01*
X137775128Y-139459609D01*
X137775128Y-139459609D01*
G37*
G36*
X118725128Y-139459609D02*
X119089104Y-139610372D01*
X119416679Y-139829251D01*
X119695249Y-140107821D01*
X119914128Y-140435396D01*
X120064891Y-140799372D01*
X120141750Y-141185766D01*
X120141750Y-141579734D01*
X120064891Y-141966128D01*
X119914128Y-142330104D01*
X119695249Y-142657679D01*
X119416679Y-142936249D01*
X119089104Y-143155128D01*
X118725128Y-143305891D01*
X118338734Y-143382750D01*
X117944766Y-143382750D01*
X117558372Y-143305891D01*
X117194396Y-143155128D01*
X116866821Y-142936249D01*
X116588251Y-142657679D01*
X116369372Y-142330104D01*
X116218609Y-141966128D01*
X116141750Y-141579734D01*
X116141750Y-141185766D01*
X116218609Y-140799372D01*
X116369372Y-140435396D01*
X116588251Y-140107821D01*
X116866821Y-139829251D01*
X117194396Y-139610372D01*
X117558372Y-139459609D01*
X117944766Y-139382750D01*
X118338734Y-139382750D01*
X118725128Y-139459609D01*
X118725128Y-139459609D01*
G37*
G36*
X111025000Y-142075000D02*
X110175000Y-142075000D01*
X110175000Y-140475000D01*
X111025000Y-140475000D01*
X111025000Y-142075000D01*
X111025000Y-142075000D01*
G37*
G36*
X112775000Y-142075000D02*
X111925000Y-142075000D01*
X111925000Y-140475000D01*
X112775000Y-140475000D01*
X112775000Y-142075000D01*
X112775000Y-142075000D01*
G37*
G36*
X180875000Y-141575000D02*
X180025000Y-141575000D01*
X180025000Y-139975000D01*
X180875000Y-139975000D01*
X180875000Y-141575000D01*
X180875000Y-141575000D01*
G37*
G36*
X179125000Y-141575000D02*
X178275000Y-141575000D01*
X178275000Y-139975000D01*
X179125000Y-139975000D01*
X179125000Y-141575000D01*
X179125000Y-141575000D01*
G37*
G36*
X133702607Y-137785022D02*
X133902792Y-137867941D01*
X134082963Y-137988328D01*
X134236172Y-138141537D01*
X134356559Y-138321708D01*
X134439478Y-138521893D01*
X134481750Y-138734408D01*
X134481750Y-138951092D01*
X134439478Y-139163607D01*
X134356559Y-139363792D01*
X134236172Y-139543963D01*
X134082963Y-139697172D01*
X133902792Y-139817559D01*
X133702607Y-139900478D01*
X133490092Y-139942750D01*
X133273408Y-139942750D01*
X133060893Y-139900478D01*
X132860708Y-139817559D01*
X132680537Y-139697172D01*
X132527328Y-139543963D01*
X132406941Y-139363792D01*
X132324022Y-139163607D01*
X132281750Y-138951092D01*
X132281750Y-138734408D01*
X132324022Y-138521893D01*
X132406941Y-138321708D01*
X132527328Y-138141537D01*
X132680537Y-137988328D01*
X132860708Y-137867941D01*
X133060893Y-137785022D01*
X133273408Y-137742750D01*
X133490092Y-137742750D01*
X133702607Y-137785022D01*
X133702607Y-137785022D01*
G37*
G36*
X152752607Y-137785022D02*
X152952792Y-137867941D01*
X153132963Y-137988328D01*
X153286172Y-138141537D01*
X153406559Y-138321708D01*
X153489478Y-138521893D01*
X153531750Y-138734408D01*
X153531750Y-138951092D01*
X153489478Y-139163607D01*
X153406559Y-139363792D01*
X153286172Y-139543963D01*
X153132963Y-139697172D01*
X152952792Y-139817559D01*
X152752607Y-139900478D01*
X152540092Y-139942750D01*
X152323408Y-139942750D01*
X152110893Y-139900478D01*
X151910708Y-139817559D01*
X151730537Y-139697172D01*
X151577328Y-139543963D01*
X151456941Y-139363792D01*
X151374022Y-139163607D01*
X151331750Y-138951092D01*
X151331750Y-138734408D01*
X151374022Y-138521893D01*
X151456941Y-138321708D01*
X151577328Y-138141537D01*
X151730537Y-137988328D01*
X151910708Y-137867941D01*
X152110893Y-137785022D01*
X152323408Y-137742750D01*
X152540092Y-137742750D01*
X152752607Y-137785022D01*
X152752607Y-137785022D01*
G37*
G36*
X114652607Y-137785022D02*
X114852792Y-137867941D01*
X115032963Y-137988328D01*
X115186172Y-138141537D01*
X115306559Y-138321708D01*
X115389478Y-138521893D01*
X115431750Y-138734408D01*
X115431750Y-138951092D01*
X115389478Y-139163607D01*
X115306559Y-139363792D01*
X115186172Y-139543963D01*
X115032963Y-139697172D01*
X114852792Y-139817559D01*
X114652607Y-139900478D01*
X114440092Y-139942750D01*
X114223408Y-139942750D01*
X114010893Y-139900478D01*
X113810708Y-139817559D01*
X113630537Y-139697172D01*
X113477328Y-139543963D01*
X113356941Y-139363792D01*
X113274022Y-139163607D01*
X113231750Y-138951092D01*
X113231750Y-138734408D01*
X113274022Y-138521893D01*
X113356941Y-138321708D01*
X113477328Y-138141537D01*
X113630537Y-137988328D01*
X113810708Y-137867941D01*
X114010893Y-137785022D01*
X114223408Y-137742750D01*
X114440092Y-137742750D01*
X114652607Y-137785022D01*
X114652607Y-137785022D01*
G37*
G36*
X180875000Y-138075000D02*
X180025000Y-138075000D01*
X180025000Y-136475000D01*
X180875000Y-136475000D01*
X180875000Y-138075000D01*
X180875000Y-138075000D01*
G37*
G36*
X179125000Y-138075000D02*
X178275000Y-138075000D01*
X178275000Y-136475000D01*
X179125000Y-136475000D01*
X179125000Y-138075000D01*
X179125000Y-138075000D01*
G37*
G36*
X175541684Y-136121414D02*
X175696377Y-136185490D01*
X175835597Y-136278514D01*
X175953986Y-136396903D01*
X176047010Y-136536123D01*
X176111086Y-136690816D01*
X176143750Y-136855031D01*
X176143750Y-137022469D01*
X176111086Y-137186684D01*
X176047010Y-137341377D01*
X175953986Y-137480597D01*
X175835597Y-137598986D01*
X175696377Y-137692010D01*
X175541684Y-137756086D01*
X175377469Y-137788750D01*
X175210031Y-137788750D01*
X175045816Y-137756086D01*
X174891123Y-137692010D01*
X174751903Y-137598986D01*
X174633514Y-137480597D01*
X174540490Y-137341377D01*
X174476414Y-137186684D01*
X174443750Y-137022469D01*
X174443750Y-136855031D01*
X174476414Y-136690816D01*
X174540490Y-136536123D01*
X174633514Y-136396903D01*
X174751903Y-136278514D01*
X174891123Y-136185490D01*
X175045816Y-136121414D01*
X175210031Y-136088750D01*
X175377469Y-136088750D01*
X175541684Y-136121414D01*
X175541684Y-136121414D01*
G37*
G36*
X121002607Y-135245022D02*
X121202792Y-135327941D01*
X121382963Y-135448328D01*
X121536172Y-135601537D01*
X121656559Y-135781708D01*
X121739478Y-135981893D01*
X121781750Y-136194408D01*
X121781750Y-136411092D01*
X121739478Y-136623607D01*
X121656559Y-136823792D01*
X121536172Y-137003963D01*
X121382963Y-137157172D01*
X121382960Y-137157174D01*
X121382959Y-137157175D01*
X121202795Y-137277557D01*
X121202792Y-137277559D01*
X121002607Y-137360478D01*
X120790092Y-137402750D01*
X120573408Y-137402750D01*
X120360893Y-137360478D01*
X120160708Y-137277559D01*
X120160705Y-137277557D01*
X119980541Y-137157175D01*
X119980540Y-137157174D01*
X119980537Y-137157172D01*
X119827328Y-137003963D01*
X119706941Y-136823792D01*
X119624022Y-136623607D01*
X119581750Y-136411092D01*
X119581750Y-136194408D01*
X119624022Y-135981893D01*
X119706941Y-135781708D01*
X119827328Y-135601537D01*
X119980537Y-135448328D01*
X120160708Y-135327941D01*
X120360893Y-135245022D01*
X120573408Y-135202750D01*
X120790092Y-135202750D01*
X121002607Y-135245022D01*
X121002607Y-135245022D01*
G37*
G36*
X140052607Y-135245022D02*
X140252792Y-135327941D01*
X140432963Y-135448328D01*
X140586172Y-135601537D01*
X140706559Y-135781708D01*
X140789478Y-135981893D01*
X140831750Y-136194408D01*
X140831750Y-136411092D01*
X140789478Y-136623607D01*
X140706559Y-136823792D01*
X140586172Y-137003963D01*
X140432963Y-137157172D01*
X140432960Y-137157174D01*
X140432959Y-137157175D01*
X140252795Y-137277557D01*
X140252792Y-137277559D01*
X140052607Y-137360478D01*
X139840092Y-137402750D01*
X139623408Y-137402750D01*
X139410893Y-137360478D01*
X139210708Y-137277559D01*
X139210705Y-137277557D01*
X139030541Y-137157175D01*
X139030540Y-137157174D01*
X139030537Y-137157172D01*
X138877328Y-137003963D01*
X138756941Y-136823792D01*
X138674022Y-136623607D01*
X138631750Y-136411092D01*
X138631750Y-136194408D01*
X138674022Y-135981893D01*
X138756941Y-135781708D01*
X138877328Y-135601537D01*
X139030537Y-135448328D01*
X139210708Y-135327941D01*
X139410893Y-135245022D01*
X139623408Y-135202750D01*
X139840092Y-135202750D01*
X140052607Y-135245022D01*
X140052607Y-135245022D01*
G37*
G36*
X159102607Y-135245022D02*
X159302792Y-135327941D01*
X159482963Y-135448328D01*
X159636172Y-135601537D01*
X159756559Y-135781708D01*
X159839478Y-135981893D01*
X159881750Y-136194408D01*
X159881750Y-136411092D01*
X159839478Y-136623607D01*
X159756559Y-136823792D01*
X159636172Y-137003963D01*
X159482963Y-137157172D01*
X159482960Y-137157174D01*
X159482959Y-137157175D01*
X159302795Y-137277557D01*
X159302792Y-137277559D01*
X159102607Y-137360478D01*
X158890092Y-137402750D01*
X158673408Y-137402750D01*
X158460893Y-137360478D01*
X158260708Y-137277559D01*
X158260705Y-137277557D01*
X158080541Y-137157175D01*
X158080540Y-137157174D01*
X158080537Y-137157172D01*
X157927328Y-137003963D01*
X157806941Y-136823792D01*
X157724022Y-136623607D01*
X157681750Y-136411092D01*
X157681750Y-136194408D01*
X157724022Y-135981893D01*
X157806941Y-135781708D01*
X157927328Y-135601537D01*
X158080537Y-135448328D01*
X158260708Y-135327941D01*
X158460893Y-135245022D01*
X158673408Y-135202750D01*
X158890092Y-135202750D01*
X159102607Y-135245022D01*
X159102607Y-135245022D01*
G37*
G36*
X180694607Y-133341022D02*
X180894792Y-133423941D01*
X181074963Y-133544328D01*
X181228172Y-133697537D01*
X181228174Y-133697540D01*
X181228175Y-133697541D01*
X181284536Y-133781891D01*
X181348559Y-133877708D01*
X181431478Y-134077893D01*
X181473750Y-134290408D01*
X181473750Y-134507092D01*
X181431478Y-134719607D01*
X181348559Y-134919792D01*
X181228172Y-135099963D01*
X181074963Y-135253172D01*
X180894792Y-135373559D01*
X180694607Y-135456478D01*
X180482092Y-135498750D01*
X180265408Y-135498750D01*
X180052893Y-135456478D01*
X179852708Y-135373559D01*
X179672537Y-135253172D01*
X179519328Y-135099963D01*
X179398941Y-134919792D01*
X179316022Y-134719607D01*
X179273750Y-134507092D01*
X179273750Y-134290408D01*
X179316022Y-134077893D01*
X179398941Y-133877708D01*
X179462964Y-133781891D01*
X179519325Y-133697541D01*
X179519326Y-133697540D01*
X179519328Y-133697537D01*
X179672537Y-133544328D01*
X179852708Y-133423941D01*
X180052893Y-133341022D01*
X180265408Y-133298750D01*
X180482092Y-133298750D01*
X180694607Y-133341022D01*
X180694607Y-133341022D01*
G37*
G36*
X169868750Y-135158750D02*
X169268750Y-135158750D01*
X169268750Y-133758750D01*
X169868750Y-133758750D01*
X169868750Y-135158750D01*
X169868750Y-135158750D01*
G37*
G36*
X171118750Y-135158750D02*
X170518750Y-135158750D01*
X170518750Y-133758750D01*
X171118750Y-133758750D01*
X171118750Y-135158750D01*
X171118750Y-135158750D01*
G37*
G36*
X159405522Y-133304039D02*
X159439053Y-133314211D01*
X159469960Y-133330731D01*
X159497043Y-133352957D01*
X159519269Y-133380040D01*
X159535789Y-133410947D01*
X159545961Y-133444478D01*
X159550000Y-133485487D01*
X159550000Y-134264513D01*
X159545961Y-134305522D01*
X159535789Y-134339053D01*
X159519269Y-134369960D01*
X159497043Y-134397043D01*
X159469960Y-134419269D01*
X159439053Y-134435789D01*
X159405522Y-134445961D01*
X159364513Y-134450000D01*
X158335487Y-134450000D01*
X158294478Y-134445961D01*
X158260947Y-134435789D01*
X158230040Y-134419269D01*
X158202957Y-134397043D01*
X158180731Y-134369960D01*
X158164211Y-134339053D01*
X158154039Y-134305522D01*
X158150000Y-134264513D01*
X158150000Y-133485487D01*
X158154039Y-133444478D01*
X158164211Y-133410947D01*
X158180731Y-133380040D01*
X158202957Y-133352957D01*
X158230040Y-133330731D01*
X158260947Y-133314211D01*
X158294478Y-133304039D01*
X158335487Y-133300000D01*
X159364513Y-133300000D01*
X159405522Y-133304039D01*
X159405522Y-133304039D01*
G37*
G36*
X121205522Y-133204039D02*
X121239053Y-133214211D01*
X121269960Y-133230731D01*
X121297043Y-133252957D01*
X121319269Y-133280040D01*
X121335789Y-133310947D01*
X121345961Y-133344478D01*
X121350000Y-133385487D01*
X121350000Y-134164513D01*
X121345961Y-134205522D01*
X121335789Y-134239053D01*
X121319269Y-134269960D01*
X121297043Y-134297043D01*
X121269960Y-134319269D01*
X121239053Y-134335789D01*
X121205522Y-134345961D01*
X121164513Y-134350000D01*
X120135487Y-134350000D01*
X120094478Y-134345961D01*
X120060947Y-134335789D01*
X120030040Y-134319269D01*
X120002957Y-134297043D01*
X119980731Y-134269960D01*
X119964211Y-134239053D01*
X119954039Y-134205522D01*
X119950000Y-134164513D01*
X119950000Y-133385487D01*
X119954039Y-133344478D01*
X119964211Y-133310947D01*
X119980731Y-133280040D01*
X120002957Y-133252957D01*
X120030040Y-133230731D01*
X120060947Y-133214211D01*
X120094478Y-133204039D01*
X120135487Y-133200000D01*
X121164513Y-133200000D01*
X121205522Y-133204039D01*
X121205522Y-133204039D01*
G37*
G36*
X140355522Y-133204039D02*
X140389053Y-133214211D01*
X140419960Y-133230731D01*
X140447043Y-133252957D01*
X140469269Y-133280040D01*
X140485789Y-133310947D01*
X140495961Y-133344478D01*
X140500000Y-133385487D01*
X140500000Y-134164513D01*
X140495961Y-134205522D01*
X140485789Y-134239053D01*
X140469269Y-134269960D01*
X140447043Y-134297043D01*
X140419960Y-134319269D01*
X140389053Y-134335789D01*
X140355522Y-134345961D01*
X140314513Y-134350000D01*
X139285487Y-134350000D01*
X139244478Y-134345961D01*
X139210947Y-134335789D01*
X139180040Y-134319269D01*
X139152957Y-134297043D01*
X139130731Y-134269960D01*
X139114211Y-134239053D01*
X139104039Y-134205522D01*
X139100000Y-134164513D01*
X139100000Y-133385487D01*
X139104039Y-133344478D01*
X139114211Y-133310947D01*
X139130731Y-133280040D01*
X139152957Y-133252957D01*
X139180040Y-133230731D01*
X139210947Y-133214211D01*
X139244478Y-133204039D01*
X139285487Y-133200000D01*
X140314513Y-133200000D01*
X140355522Y-133204039D01*
X140355522Y-133204039D01*
G37*
G36*
X175877128Y-129935609D02*
X176241104Y-130086372D01*
X176568679Y-130305251D01*
X176847249Y-130583821D01*
X177066128Y-130911396D01*
X177216891Y-131275372D01*
X177293750Y-131661766D01*
X177293750Y-132055734D01*
X177216891Y-132442128D01*
X177066128Y-132806104D01*
X176847249Y-133133679D01*
X176568679Y-133412249D01*
X176241104Y-133631128D01*
X175877128Y-133781891D01*
X175490734Y-133858750D01*
X175096766Y-133858750D01*
X174710372Y-133781891D01*
X174346396Y-133631128D01*
X174018821Y-133412249D01*
X173740251Y-133133679D01*
X173521372Y-132806104D01*
X173370609Y-132442128D01*
X173293750Y-132055734D01*
X173293750Y-131661766D01*
X173370609Y-131275372D01*
X173521372Y-130911396D01*
X173740251Y-130583821D01*
X174018821Y-130305251D01*
X174346396Y-130086372D01*
X174710372Y-129935609D01*
X175096766Y-129858750D01*
X175490734Y-129858750D01*
X175877128Y-129935609D01*
X175877128Y-129935609D01*
G37*
G36*
X170660453Y-130320236D02*
X170951633Y-130440847D01*
X171213694Y-130615951D01*
X171436549Y-130838806D01*
X171611653Y-131100867D01*
X171732264Y-131392047D01*
X171793750Y-131701162D01*
X171793750Y-132016338D01*
X171732264Y-132325453D01*
X171611653Y-132616633D01*
X171436549Y-132878694D01*
X171213694Y-133101549D01*
X170951633Y-133276653D01*
X170660453Y-133397264D01*
X170351338Y-133458750D01*
X170036162Y-133458750D01*
X169727047Y-133397264D01*
X169435867Y-133276653D01*
X169173806Y-133101549D01*
X168950951Y-132878694D01*
X168775847Y-132616633D01*
X168655236Y-132325453D01*
X168593750Y-132016338D01*
X168593750Y-131701162D01*
X168655236Y-131392047D01*
X168775847Y-131100867D01*
X168950951Y-130838806D01*
X169173806Y-130615951D01*
X169435867Y-130440847D01*
X169727047Y-130320236D01*
X170036162Y-130258750D01*
X170351338Y-130258750D01*
X170660453Y-130320236D01*
X170660453Y-130320236D01*
G37*
G36*
X164970857Y-130792272D02*
X165171042Y-130875191D01*
X165351213Y-130995578D01*
X165504422Y-131148787D01*
X165504424Y-131148790D01*
X165504425Y-131148791D01*
X165575261Y-131254804D01*
X165624809Y-131328958D01*
X165707728Y-131529143D01*
X165750000Y-131741658D01*
X165750000Y-131958342D01*
X165707728Y-132170857D01*
X165624809Y-132371042D01*
X165504422Y-132551213D01*
X165351213Y-132704422D01*
X165171042Y-132824809D01*
X164970857Y-132907728D01*
X164758342Y-132950000D01*
X164541658Y-132950000D01*
X164329143Y-132907728D01*
X164128958Y-132824809D01*
X163948787Y-132704422D01*
X163795578Y-132551213D01*
X163675191Y-132371042D01*
X163592272Y-132170857D01*
X163550000Y-131958342D01*
X163550000Y-131741658D01*
X163592272Y-131529143D01*
X163675191Y-131328958D01*
X163724739Y-131254804D01*
X163795575Y-131148791D01*
X163795576Y-131148790D01*
X163795578Y-131148787D01*
X163948787Y-130995578D01*
X164128958Y-130875191D01*
X164329143Y-130792272D01*
X164541658Y-130750000D01*
X164758342Y-130750000D01*
X164970857Y-130792272D01*
X164970857Y-130792272D01*
G37*
G36*
X127970857Y-130792272D02*
X128171042Y-130875191D01*
X128351213Y-130995578D01*
X128504422Y-131148787D01*
X128504424Y-131148790D01*
X128504425Y-131148791D01*
X128575261Y-131254804D01*
X128624809Y-131328958D01*
X128707728Y-131529143D01*
X128750000Y-131741658D01*
X128750000Y-131958342D01*
X128707728Y-132170857D01*
X128624809Y-132371042D01*
X128504422Y-132551213D01*
X128351213Y-132704422D01*
X128171042Y-132824809D01*
X127970857Y-132907728D01*
X127758342Y-132950000D01*
X127541658Y-132950000D01*
X127329143Y-132907728D01*
X127128958Y-132824809D01*
X126948787Y-132704422D01*
X126795578Y-132551213D01*
X126675191Y-132371042D01*
X126592272Y-132170857D01*
X126550000Y-131958342D01*
X126550000Y-131741658D01*
X126592272Y-131529143D01*
X126675191Y-131328958D01*
X126724739Y-131254804D01*
X126795575Y-131148791D01*
X126795576Y-131148790D01*
X126795578Y-131148787D01*
X126948787Y-130995578D01*
X127128958Y-130875191D01*
X127329143Y-130792272D01*
X127541658Y-130750000D01*
X127758342Y-130750000D01*
X127970857Y-130792272D01*
X127970857Y-130792272D01*
G37*
G36*
X159405522Y-131254039D02*
X159439053Y-131264211D01*
X159469960Y-131280731D01*
X159497043Y-131302957D01*
X159519269Y-131330040D01*
X159535789Y-131360947D01*
X159545961Y-131394478D01*
X159550000Y-131435487D01*
X159550000Y-132214513D01*
X159545961Y-132255522D01*
X159535789Y-132289053D01*
X159519269Y-132319960D01*
X159497043Y-132347043D01*
X159469960Y-132369269D01*
X159439053Y-132385789D01*
X159405522Y-132395961D01*
X159364513Y-132400000D01*
X158335487Y-132400000D01*
X158294478Y-132395961D01*
X158260947Y-132385789D01*
X158230040Y-132369269D01*
X158202957Y-132347043D01*
X158180731Y-132319960D01*
X158164211Y-132289053D01*
X158154039Y-132255522D01*
X158150000Y-132214513D01*
X158150000Y-131435487D01*
X158154039Y-131394478D01*
X158164211Y-131360947D01*
X158180731Y-131330040D01*
X158202957Y-131302957D01*
X158230040Y-131280731D01*
X158260947Y-131264211D01*
X158294478Y-131254039D01*
X158335487Y-131250000D01*
X159364513Y-131250000D01*
X159405522Y-131254039D01*
X159405522Y-131254039D01*
G37*
G36*
X121205522Y-131154039D02*
X121239053Y-131164211D01*
X121269960Y-131180731D01*
X121297043Y-131202957D01*
X121319269Y-131230040D01*
X121335789Y-131260947D01*
X121345961Y-131294478D01*
X121350000Y-131335487D01*
X121350000Y-132114513D01*
X121345961Y-132155522D01*
X121335789Y-132189053D01*
X121319269Y-132219960D01*
X121297043Y-132247043D01*
X121269960Y-132269269D01*
X121239053Y-132285789D01*
X121205522Y-132295961D01*
X121164513Y-132300000D01*
X120135487Y-132300000D01*
X120094478Y-132295961D01*
X120060947Y-132285789D01*
X120030040Y-132269269D01*
X120002957Y-132247043D01*
X119980731Y-132219960D01*
X119964211Y-132189053D01*
X119954039Y-132155522D01*
X119950000Y-132114513D01*
X119950000Y-131335487D01*
X119954039Y-131294478D01*
X119964211Y-131260947D01*
X119980731Y-131230040D01*
X120002957Y-131202957D01*
X120030040Y-131180731D01*
X120060947Y-131164211D01*
X120094478Y-131154039D01*
X120135487Y-131150000D01*
X121164513Y-131150000D01*
X121205522Y-131154039D01*
X121205522Y-131154039D01*
G37*
G36*
X140355522Y-131154039D02*
X140389053Y-131164211D01*
X140419960Y-131180731D01*
X140447043Y-131202957D01*
X140469269Y-131230040D01*
X140485789Y-131260947D01*
X140495961Y-131294478D01*
X140500000Y-131335487D01*
X140500000Y-132114513D01*
X140495961Y-132155522D01*
X140485789Y-132189053D01*
X140469269Y-132219960D01*
X140447043Y-132247043D01*
X140419960Y-132269269D01*
X140389053Y-132285789D01*
X140355522Y-132295961D01*
X140314513Y-132300000D01*
X139285487Y-132300000D01*
X139244478Y-132295961D01*
X139210947Y-132285789D01*
X139180040Y-132269269D01*
X139152957Y-132247043D01*
X139130731Y-132219960D01*
X139114211Y-132189053D01*
X139104039Y-132155522D01*
X139100000Y-132114513D01*
X139100000Y-131335487D01*
X139104039Y-131294478D01*
X139114211Y-131260947D01*
X139130731Y-131230040D01*
X139152957Y-131202957D01*
X139180040Y-131180731D01*
X139210947Y-131164211D01*
X139244478Y-131154039D01*
X139285487Y-131150000D01*
X140314513Y-131150000D01*
X140355522Y-131154039D01*
X140355522Y-131154039D01*
G37*
G36*
X171118750Y-129958750D02*
X170518750Y-129958750D01*
X170518750Y-128558750D01*
X171118750Y-128558750D01*
X171118750Y-129958750D01*
X171118750Y-129958750D01*
G37*
G36*
X169868750Y-129958750D02*
X169268750Y-129958750D01*
X169268750Y-128558750D01*
X169868750Y-128558750D01*
X169868750Y-129958750D01*
X169868750Y-129958750D01*
G37*
G36*
X178154607Y-126991022D02*
X178354792Y-127073941D01*
X178354795Y-127073943D01*
X178405391Y-127107750D01*
X178534963Y-127194328D01*
X178688172Y-127347537D01*
X178808559Y-127527708D01*
X178891478Y-127727893D01*
X178933750Y-127940408D01*
X178933750Y-128157092D01*
X178891478Y-128369607D01*
X178808559Y-128569792D01*
X178688172Y-128749963D01*
X178534963Y-128903172D01*
X178354792Y-129023559D01*
X178154607Y-129106478D01*
X177942092Y-129148750D01*
X177725408Y-129148750D01*
X177512893Y-129106478D01*
X177312708Y-129023559D01*
X177132537Y-128903172D01*
X176979328Y-128749963D01*
X176858941Y-128569792D01*
X176776022Y-128369607D01*
X176733750Y-128157092D01*
X176733750Y-127940408D01*
X176776022Y-127727893D01*
X176858941Y-127527708D01*
X176979328Y-127347537D01*
X177132537Y-127194328D01*
X177262110Y-127107750D01*
X177312705Y-127073943D01*
X177312708Y-127073941D01*
X177512893Y-126991022D01*
X177725408Y-126948750D01*
X177942092Y-126948750D01*
X178154607Y-126991022D01*
X178154607Y-126991022D01*
G37*
G36*
X156708453Y-125894236D02*
X156999633Y-126014847D01*
X157261694Y-126189951D01*
X157484549Y-126412806D01*
X157659653Y-126674867D01*
X157780264Y-126966047D01*
X157841750Y-127275162D01*
X157841750Y-127590338D01*
X157780264Y-127899453D01*
X157659653Y-128190633D01*
X157484549Y-128452694D01*
X157261694Y-128675549D01*
X156999633Y-128850653D01*
X156708453Y-128971264D01*
X156399338Y-129032750D01*
X156084162Y-129032750D01*
X155775047Y-128971264D01*
X155483867Y-128850653D01*
X155221806Y-128675549D01*
X154998951Y-128452694D01*
X154823847Y-128190633D01*
X154703236Y-127899453D01*
X154641750Y-127590338D01*
X154641750Y-127275162D01*
X154703236Y-126966047D01*
X154823847Y-126674867D01*
X154998951Y-126412806D01*
X155221806Y-126189951D01*
X155483867Y-126014847D01*
X155775047Y-125894236D01*
X156084162Y-125832750D01*
X156399338Y-125832750D01*
X156708453Y-125894236D01*
X156708453Y-125894236D01*
G37*
G36*
X137658453Y-125894236D02*
X137949633Y-126014847D01*
X138211694Y-126189951D01*
X138434549Y-126412806D01*
X138609653Y-126674867D01*
X138730264Y-126966047D01*
X138791750Y-127275162D01*
X138791750Y-127590338D01*
X138730264Y-127899453D01*
X138609653Y-128190633D01*
X138434549Y-128452694D01*
X138211694Y-128675549D01*
X137949633Y-128850653D01*
X137658453Y-128971264D01*
X137349338Y-129032750D01*
X137034162Y-129032750D01*
X136725047Y-128971264D01*
X136433867Y-128850653D01*
X136171806Y-128675549D01*
X135948951Y-128452694D01*
X135773847Y-128190633D01*
X135653236Y-127899453D01*
X135591750Y-127590338D01*
X135591750Y-127275162D01*
X135653236Y-126966047D01*
X135773847Y-126674867D01*
X135948951Y-126412806D01*
X136171806Y-126189951D01*
X136433867Y-126014847D01*
X136725047Y-125894236D01*
X137034162Y-125832750D01*
X137349338Y-125832750D01*
X137658453Y-125894236D01*
X137658453Y-125894236D01*
G37*
G36*
X118608453Y-125894236D02*
X118899633Y-126014847D01*
X119161694Y-126189951D01*
X119384549Y-126412806D01*
X119559653Y-126674867D01*
X119680264Y-126966047D01*
X119741750Y-127275162D01*
X119741750Y-127590338D01*
X119680264Y-127899453D01*
X119559653Y-128190633D01*
X119384549Y-128452694D01*
X119161694Y-128675549D01*
X118899633Y-128850653D01*
X118608453Y-128971264D01*
X118299338Y-129032750D01*
X117984162Y-129032750D01*
X117675047Y-128971264D01*
X117383867Y-128850653D01*
X117121806Y-128675549D01*
X116898951Y-128452694D01*
X116723847Y-128190633D01*
X116603236Y-127899453D01*
X116541750Y-127590338D01*
X116541750Y-127275162D01*
X116603236Y-126966047D01*
X116723847Y-126674867D01*
X116898951Y-126412806D01*
X117121806Y-126189951D01*
X117383867Y-126014847D01*
X117675047Y-125894236D01*
X117984162Y-125832750D01*
X118299338Y-125832750D01*
X118608453Y-125894236D01*
X118608453Y-125894236D01*
G37*
G36*
X116241750Y-128357750D02*
X114841750Y-128357750D01*
X114841750Y-127757750D01*
X116241750Y-127757750D01*
X116241750Y-128357750D01*
X116241750Y-128357750D01*
G37*
G36*
X121441750Y-128357750D02*
X120041750Y-128357750D01*
X120041750Y-127757750D01*
X121441750Y-127757750D01*
X121441750Y-128357750D01*
X121441750Y-128357750D01*
G37*
G36*
X135291750Y-128357750D02*
X133891750Y-128357750D01*
X133891750Y-127757750D01*
X135291750Y-127757750D01*
X135291750Y-128357750D01*
X135291750Y-128357750D01*
G37*
G36*
X140491750Y-128357750D02*
X139091750Y-128357750D01*
X139091750Y-127757750D01*
X140491750Y-127757750D01*
X140491750Y-128357750D01*
X140491750Y-128357750D01*
G37*
G36*
X154341750Y-128357750D02*
X152941750Y-128357750D01*
X152941750Y-127757750D01*
X154341750Y-127757750D01*
X154341750Y-128357750D01*
X154341750Y-128357750D01*
G37*
G36*
X159541750Y-128357750D02*
X158141750Y-128357750D01*
X158141750Y-127757750D01*
X159541750Y-127757750D01*
X159541750Y-128357750D01*
X159541750Y-128357750D01*
G37*
G36*
X175541684Y-125961414D02*
X175696377Y-126025490D01*
X175835597Y-126118514D01*
X175953986Y-126236903D01*
X176047010Y-126376123D01*
X176111086Y-126530816D01*
X176143750Y-126695031D01*
X176143750Y-126862469D01*
X176111086Y-127026684D01*
X176047010Y-127181377D01*
X175953986Y-127320597D01*
X175835597Y-127438986D01*
X175696377Y-127532010D01*
X175541684Y-127596086D01*
X175377469Y-127628750D01*
X175210031Y-127628750D01*
X175045816Y-127596086D01*
X174891123Y-127532010D01*
X174751903Y-127438986D01*
X174633514Y-127320597D01*
X174540490Y-127181377D01*
X174476414Y-127026684D01*
X174443750Y-126862469D01*
X174443750Y-126695031D01*
X174476414Y-126530816D01*
X174540490Y-126376123D01*
X174633514Y-126236903D01*
X174751903Y-126118514D01*
X174891123Y-126025490D01*
X175045816Y-125961414D01*
X175210031Y-125928750D01*
X175377469Y-125928750D01*
X175541684Y-125961414D01*
X175541684Y-125961414D01*
G37*
G36*
X135291750Y-127107750D02*
X133891750Y-127107750D01*
X133891750Y-126507750D01*
X135291750Y-126507750D01*
X135291750Y-127107750D01*
X135291750Y-127107750D01*
G37*
G36*
X116241750Y-127107750D02*
X114841750Y-127107750D01*
X114841750Y-126507750D01*
X116241750Y-126507750D01*
X116241750Y-127107750D01*
X116241750Y-127107750D01*
G37*
G36*
X121441750Y-127107750D02*
X120041750Y-127107750D01*
X120041750Y-126507750D01*
X121441750Y-126507750D01*
X121441750Y-127107750D01*
X121441750Y-127107750D01*
G37*
G36*
X159541750Y-127107750D02*
X158141750Y-127107750D01*
X158141750Y-126507750D01*
X159541750Y-126507750D01*
X159541750Y-127107750D01*
X159541750Y-127107750D01*
G37*
G36*
X154341750Y-127107750D02*
X152941750Y-127107750D01*
X152941750Y-126507750D01*
X154341750Y-126507750D01*
X154341750Y-127107750D01*
X154341750Y-127107750D01*
G37*
G36*
X140491750Y-127107750D02*
X139091750Y-127107750D01*
X139091750Y-126507750D01*
X140491750Y-126507750D01*
X140491750Y-127107750D01*
X140491750Y-127107750D01*
G37*
G36*
X137775128Y-120409609D02*
X138139104Y-120560372D01*
X138466679Y-120779251D01*
X138745249Y-121057821D01*
X138964128Y-121385396D01*
X139114891Y-121749372D01*
X139191750Y-122135766D01*
X139191750Y-122529734D01*
X139114891Y-122916128D01*
X138964128Y-123280104D01*
X138745249Y-123607679D01*
X138466679Y-123886249D01*
X138139104Y-124105128D01*
X137775128Y-124255891D01*
X137388734Y-124332750D01*
X136994766Y-124332750D01*
X136608372Y-124255891D01*
X136244396Y-124105128D01*
X135916821Y-123886249D01*
X135638251Y-123607679D01*
X135419372Y-123280104D01*
X135268609Y-122916128D01*
X135191750Y-122529734D01*
X135191750Y-122135766D01*
X135268609Y-121749372D01*
X135419372Y-121385396D01*
X135638251Y-121057821D01*
X135916821Y-120779251D01*
X136244396Y-120560372D01*
X136608372Y-120409609D01*
X136994766Y-120332750D01*
X137388734Y-120332750D01*
X137775128Y-120409609D01*
X137775128Y-120409609D01*
G37*
G36*
X156825128Y-120409609D02*
X157189104Y-120560372D01*
X157516679Y-120779251D01*
X157795249Y-121057821D01*
X158014128Y-121385396D01*
X158164891Y-121749372D01*
X158241750Y-122135766D01*
X158241750Y-122529734D01*
X158164891Y-122916128D01*
X158014128Y-123280104D01*
X157795249Y-123607679D01*
X157516679Y-123886249D01*
X157189104Y-124105128D01*
X156825128Y-124255891D01*
X156438734Y-124332750D01*
X156044766Y-124332750D01*
X155658372Y-124255891D01*
X155294396Y-124105128D01*
X154966821Y-123886249D01*
X154688251Y-123607679D01*
X154469372Y-123280104D01*
X154318609Y-122916128D01*
X154241750Y-122529734D01*
X154241750Y-122135766D01*
X154318609Y-121749372D01*
X154469372Y-121385396D01*
X154688251Y-121057821D01*
X154966821Y-120779251D01*
X155294396Y-120560372D01*
X155658372Y-120409609D01*
X156044766Y-120332750D01*
X156438734Y-120332750D01*
X156825128Y-120409609D01*
X156825128Y-120409609D01*
G37*
G36*
X118725128Y-120409609D02*
X119089104Y-120560372D01*
X119416679Y-120779251D01*
X119695249Y-121057821D01*
X119914128Y-121385396D01*
X120064891Y-121749372D01*
X120141750Y-122135766D01*
X120141750Y-122529734D01*
X120064891Y-122916128D01*
X119914128Y-123280104D01*
X119695249Y-123607679D01*
X119416679Y-123886249D01*
X119089104Y-124105128D01*
X118725128Y-124255891D01*
X118338734Y-124332750D01*
X117944766Y-124332750D01*
X117558372Y-124255891D01*
X117194396Y-124105128D01*
X116866821Y-123886249D01*
X116588251Y-123607679D01*
X116369372Y-123280104D01*
X116218609Y-122916128D01*
X116141750Y-122529734D01*
X116141750Y-122135766D01*
X116218609Y-121749372D01*
X116369372Y-121385396D01*
X116588251Y-121057821D01*
X116866821Y-120779251D01*
X117194396Y-120560372D01*
X117558372Y-120409609D01*
X117944766Y-120332750D01*
X118338734Y-120332750D01*
X118725128Y-120409609D01*
X118725128Y-120409609D01*
G37*
G36*
X167637128Y-118035609D02*
X168001104Y-118186372D01*
X168328679Y-118405251D01*
X168607249Y-118683821D01*
X168826128Y-119011396D01*
X168976891Y-119375372D01*
X169053750Y-119761766D01*
X169053750Y-120155734D01*
X168976891Y-120542128D01*
X168826128Y-120906104D01*
X168607249Y-121233679D01*
X168328679Y-121512249D01*
X168001104Y-121731128D01*
X167637128Y-121881891D01*
X167250734Y-121958750D01*
X166856766Y-121958750D01*
X166470372Y-121881891D01*
X166106396Y-121731128D01*
X165778821Y-121512249D01*
X165500251Y-121233679D01*
X165281372Y-120906104D01*
X165130609Y-120542128D01*
X165053750Y-120155734D01*
X165053750Y-119761766D01*
X165130609Y-119375372D01*
X165281372Y-119011396D01*
X165500251Y-118683821D01*
X165778821Y-118405251D01*
X166106396Y-118186372D01*
X166470372Y-118035609D01*
X166856766Y-117958750D01*
X167250734Y-117958750D01*
X167637128Y-118035609D01*
X167637128Y-118035609D01*
G37*
G36*
X182738573Y-118492354D02*
X182738575Y-118492355D01*
X182738576Y-118492355D01*
X183016108Y-118607312D01*
X183207241Y-118735023D01*
X183265884Y-118774207D01*
X183478293Y-118986616D01*
X183478295Y-118986619D01*
X183645188Y-119236392D01*
X183659815Y-119271705D01*
X183760146Y-119513927D01*
X183818750Y-119808549D01*
X183818750Y-120108951D01*
X183774234Y-120332750D01*
X183760145Y-120403576D01*
X183645188Y-120681108D01*
X183503773Y-120892750D01*
X183478293Y-120930884D01*
X183265884Y-121143293D01*
X183265881Y-121143295D01*
X183016108Y-121310188D01*
X182738576Y-121425145D01*
X182738575Y-121425145D01*
X182738573Y-121425146D01*
X182443951Y-121483750D01*
X182143549Y-121483750D01*
X181848927Y-121425146D01*
X181848925Y-121425145D01*
X181848924Y-121425145D01*
X181571392Y-121310188D01*
X181321619Y-121143295D01*
X181321616Y-121143293D01*
X181109207Y-120930884D01*
X181083727Y-120892750D01*
X180942312Y-120681108D01*
X180827355Y-120403576D01*
X180813267Y-120332750D01*
X180768750Y-120108951D01*
X180768750Y-119808549D01*
X180827354Y-119513927D01*
X180927685Y-119271705D01*
X180942312Y-119236392D01*
X181109205Y-118986619D01*
X181109207Y-118986616D01*
X181321616Y-118774207D01*
X181380259Y-118735023D01*
X181571392Y-118607312D01*
X181848924Y-118492355D01*
X181848925Y-118492355D01*
X181848927Y-118492354D01*
X182143549Y-118433750D01*
X182443951Y-118433750D01*
X182738573Y-118492354D01*
X182738573Y-118492354D01*
G37*
G36*
X152752607Y-118735022D02*
X152952792Y-118817941D01*
X153132963Y-118938328D01*
X153286172Y-119091537D01*
X153286174Y-119091540D01*
X153286175Y-119091541D01*
X153406557Y-119271705D01*
X153406559Y-119271708D01*
X153489478Y-119471893D01*
X153531750Y-119684408D01*
X153531750Y-119901092D01*
X153489478Y-120113607D01*
X153406559Y-120313792D01*
X153286172Y-120493963D01*
X153132963Y-120647172D01*
X153132960Y-120647174D01*
X153132959Y-120647175D01*
X153082173Y-120681109D01*
X152952792Y-120767559D01*
X152752607Y-120850478D01*
X152540092Y-120892750D01*
X152323408Y-120892750D01*
X152110893Y-120850478D01*
X151910708Y-120767559D01*
X151781327Y-120681109D01*
X151730541Y-120647175D01*
X151730540Y-120647174D01*
X151730537Y-120647172D01*
X151577328Y-120493963D01*
X151456941Y-120313792D01*
X151374022Y-120113607D01*
X151331750Y-119901092D01*
X151331750Y-119684408D01*
X151374022Y-119471893D01*
X151456941Y-119271708D01*
X151456943Y-119271705D01*
X151577325Y-119091541D01*
X151577326Y-119091540D01*
X151577328Y-119091537D01*
X151730537Y-118938328D01*
X151910708Y-118817941D01*
X152110893Y-118735022D01*
X152323408Y-118692750D01*
X152540092Y-118692750D01*
X152752607Y-118735022D01*
X152752607Y-118735022D01*
G37*
G36*
X133702607Y-118735022D02*
X133902792Y-118817941D01*
X134082963Y-118938328D01*
X134236172Y-119091537D01*
X134236174Y-119091540D01*
X134236175Y-119091541D01*
X134356557Y-119271705D01*
X134356559Y-119271708D01*
X134439478Y-119471893D01*
X134481750Y-119684408D01*
X134481750Y-119901092D01*
X134439478Y-120113607D01*
X134356559Y-120313792D01*
X134236172Y-120493963D01*
X134082963Y-120647172D01*
X134082960Y-120647174D01*
X134082959Y-120647175D01*
X134032173Y-120681109D01*
X133902792Y-120767559D01*
X133702607Y-120850478D01*
X133490092Y-120892750D01*
X133273408Y-120892750D01*
X133060893Y-120850478D01*
X132860708Y-120767559D01*
X132731327Y-120681109D01*
X132680541Y-120647175D01*
X132680540Y-120647174D01*
X132680537Y-120647172D01*
X132527328Y-120493963D01*
X132406941Y-120313792D01*
X132324022Y-120113607D01*
X132281750Y-119901092D01*
X132281750Y-119684408D01*
X132324022Y-119471893D01*
X132406941Y-119271708D01*
X132406943Y-119271705D01*
X132527325Y-119091541D01*
X132527326Y-119091540D01*
X132527328Y-119091537D01*
X132680537Y-118938328D01*
X132860708Y-118817941D01*
X133060893Y-118735022D01*
X133273408Y-118692750D01*
X133490092Y-118692750D01*
X133702607Y-118735022D01*
X133702607Y-118735022D01*
G37*
G36*
X114652607Y-118735022D02*
X114852792Y-118817941D01*
X115032963Y-118938328D01*
X115186172Y-119091537D01*
X115186174Y-119091540D01*
X115186175Y-119091541D01*
X115306557Y-119271705D01*
X115306559Y-119271708D01*
X115389478Y-119471893D01*
X115431750Y-119684408D01*
X115431750Y-119901092D01*
X115389478Y-120113607D01*
X115306559Y-120313792D01*
X115186172Y-120493963D01*
X115032963Y-120647172D01*
X115032960Y-120647174D01*
X115032959Y-120647175D01*
X114982173Y-120681109D01*
X114852792Y-120767559D01*
X114652607Y-120850478D01*
X114440092Y-120892750D01*
X114223408Y-120892750D01*
X114010893Y-120850478D01*
X113810708Y-120767559D01*
X113681327Y-120681109D01*
X113630541Y-120647175D01*
X113630540Y-120647174D01*
X113630537Y-120647172D01*
X113477328Y-120493963D01*
X113356941Y-120313792D01*
X113274022Y-120113607D01*
X113231750Y-119901092D01*
X113231750Y-119684408D01*
X113274022Y-119471893D01*
X113356941Y-119271708D01*
X113356943Y-119271705D01*
X113477325Y-119091541D01*
X113477326Y-119091540D01*
X113477328Y-119091537D01*
X113630537Y-118938328D01*
X113810708Y-118817941D01*
X114010893Y-118735022D01*
X114223408Y-118692750D01*
X114440092Y-118692750D01*
X114652607Y-118735022D01*
X114652607Y-118735022D01*
G37*
G36*
X159102607Y-116195022D02*
X159302792Y-116277941D01*
X159482963Y-116398328D01*
X159636172Y-116551537D01*
X159756559Y-116731708D01*
X159839478Y-116931893D01*
X159881750Y-117144408D01*
X159881750Y-117361092D01*
X159839478Y-117573607D01*
X159756559Y-117773792D01*
X159636172Y-117953963D01*
X159482963Y-118107172D01*
X159482960Y-118107174D01*
X159482959Y-118107175D01*
X159364431Y-118186373D01*
X159302792Y-118227559D01*
X159102607Y-118310478D01*
X158890092Y-118352750D01*
X158673408Y-118352750D01*
X158460893Y-118310478D01*
X158260708Y-118227559D01*
X158199069Y-118186373D01*
X158080541Y-118107175D01*
X158080540Y-118107174D01*
X158080537Y-118107172D01*
X157927328Y-117953963D01*
X157806941Y-117773792D01*
X157724022Y-117573607D01*
X157681750Y-117361092D01*
X157681750Y-117144408D01*
X157724022Y-116931893D01*
X157806941Y-116731708D01*
X157927328Y-116551537D01*
X158080537Y-116398328D01*
X158260708Y-116277941D01*
X158460893Y-116195022D01*
X158673408Y-116152750D01*
X158890092Y-116152750D01*
X159102607Y-116195022D01*
X159102607Y-116195022D01*
G37*
G36*
X140052607Y-116195022D02*
X140252792Y-116277941D01*
X140432963Y-116398328D01*
X140586172Y-116551537D01*
X140706559Y-116731708D01*
X140789478Y-116931893D01*
X140831750Y-117144408D01*
X140831750Y-117361092D01*
X140789478Y-117573607D01*
X140706559Y-117773792D01*
X140586172Y-117953963D01*
X140432963Y-118107172D01*
X140432960Y-118107174D01*
X140432959Y-118107175D01*
X140314431Y-118186373D01*
X140252792Y-118227559D01*
X140052607Y-118310478D01*
X139840092Y-118352750D01*
X139623408Y-118352750D01*
X139410893Y-118310478D01*
X139210708Y-118227559D01*
X139149069Y-118186373D01*
X139030541Y-118107175D01*
X139030540Y-118107174D01*
X139030537Y-118107172D01*
X138877328Y-117953963D01*
X138756941Y-117773792D01*
X138674022Y-117573607D01*
X138631750Y-117361092D01*
X138631750Y-117144408D01*
X138674022Y-116931893D01*
X138756941Y-116731708D01*
X138877328Y-116551537D01*
X139030537Y-116398328D01*
X139210708Y-116277941D01*
X139410893Y-116195022D01*
X139623408Y-116152750D01*
X139840092Y-116152750D01*
X140052607Y-116195022D01*
X140052607Y-116195022D01*
G37*
G36*
X121002607Y-116195022D02*
X121202792Y-116277941D01*
X121382963Y-116398328D01*
X121536172Y-116551537D01*
X121656559Y-116731708D01*
X121739478Y-116931893D01*
X121781750Y-117144408D01*
X121781750Y-117361092D01*
X121739478Y-117573607D01*
X121656559Y-117773792D01*
X121536172Y-117953963D01*
X121382963Y-118107172D01*
X121382960Y-118107174D01*
X121382959Y-118107175D01*
X121264431Y-118186373D01*
X121202792Y-118227559D01*
X121002607Y-118310478D01*
X120790092Y-118352750D01*
X120573408Y-118352750D01*
X120360893Y-118310478D01*
X120160708Y-118227559D01*
X120099069Y-118186373D01*
X119980541Y-118107175D01*
X119980540Y-118107174D01*
X119980537Y-118107172D01*
X119827328Y-117953963D01*
X119706941Y-117773792D01*
X119624022Y-117573607D01*
X119581750Y-117361092D01*
X119581750Y-117144408D01*
X119624022Y-116931893D01*
X119706941Y-116731708D01*
X119827328Y-116551537D01*
X119980537Y-116398328D01*
X120160708Y-116277941D01*
X120360893Y-116195022D01*
X120573408Y-116152750D01*
X120790092Y-116152750D01*
X121002607Y-116195022D01*
X121002607Y-116195022D01*
G37*
G36*
X175758453Y-106844236D02*
X176049633Y-106964847D01*
X176311694Y-107139951D01*
X176534549Y-107362806D01*
X176709653Y-107624867D01*
X176830264Y-107916047D01*
X176891750Y-108225162D01*
X176891750Y-108540338D01*
X176830264Y-108849453D01*
X176709653Y-109140633D01*
X176534549Y-109402694D01*
X176311694Y-109625549D01*
X176049633Y-109800653D01*
X175758453Y-109921264D01*
X175449338Y-109982750D01*
X175134162Y-109982750D01*
X174825047Y-109921264D01*
X174533867Y-109800653D01*
X174271806Y-109625549D01*
X174048951Y-109402694D01*
X173873847Y-109140633D01*
X173753236Y-108849453D01*
X173691750Y-108540338D01*
X173691750Y-108225162D01*
X173753236Y-107916047D01*
X173873847Y-107624867D01*
X174048951Y-107362806D01*
X174271806Y-107139951D01*
X174533867Y-106964847D01*
X174825047Y-106844236D01*
X175134162Y-106782750D01*
X175449338Y-106782750D01*
X175758453Y-106844236D01*
X175758453Y-106844236D01*
G37*
G36*
X156708453Y-106844236D02*
X156999633Y-106964847D01*
X157261694Y-107139951D01*
X157484549Y-107362806D01*
X157659653Y-107624867D01*
X157780264Y-107916047D01*
X157841750Y-108225162D01*
X157841750Y-108540338D01*
X157780264Y-108849453D01*
X157659653Y-109140633D01*
X157484549Y-109402694D01*
X157261694Y-109625549D01*
X156999633Y-109800653D01*
X156708453Y-109921264D01*
X156399338Y-109982750D01*
X156084162Y-109982750D01*
X155775047Y-109921264D01*
X155483867Y-109800653D01*
X155221806Y-109625549D01*
X154998951Y-109402694D01*
X154823847Y-109140633D01*
X154703236Y-108849453D01*
X154641750Y-108540338D01*
X154641750Y-108225162D01*
X154703236Y-107916047D01*
X154823847Y-107624867D01*
X154998951Y-107362806D01*
X155221806Y-107139951D01*
X155483867Y-106964847D01*
X155775047Y-106844236D01*
X156084162Y-106782750D01*
X156399338Y-106782750D01*
X156708453Y-106844236D01*
X156708453Y-106844236D01*
G37*
G36*
X137658453Y-106844236D02*
X137949633Y-106964847D01*
X138211694Y-107139951D01*
X138434549Y-107362806D01*
X138609653Y-107624867D01*
X138730264Y-107916047D01*
X138791750Y-108225162D01*
X138791750Y-108540338D01*
X138730264Y-108849453D01*
X138609653Y-109140633D01*
X138434549Y-109402694D01*
X138211694Y-109625549D01*
X137949633Y-109800653D01*
X137658453Y-109921264D01*
X137349338Y-109982750D01*
X137034162Y-109982750D01*
X136725047Y-109921264D01*
X136433867Y-109800653D01*
X136171806Y-109625549D01*
X135948951Y-109402694D01*
X135773847Y-109140633D01*
X135653236Y-108849453D01*
X135591750Y-108540338D01*
X135591750Y-108225162D01*
X135653236Y-107916047D01*
X135773847Y-107624867D01*
X135948951Y-107362806D01*
X136171806Y-107139951D01*
X136433867Y-106964847D01*
X136725047Y-106844236D01*
X137034162Y-106782750D01*
X137349338Y-106782750D01*
X137658453Y-106844236D01*
X137658453Y-106844236D01*
G37*
G36*
X118608453Y-106844236D02*
X118899633Y-106964847D01*
X119161694Y-107139951D01*
X119384549Y-107362806D01*
X119559653Y-107624867D01*
X119680264Y-107916047D01*
X119741750Y-108225162D01*
X119741750Y-108540338D01*
X119680264Y-108849453D01*
X119559653Y-109140633D01*
X119384549Y-109402694D01*
X119161694Y-109625549D01*
X118899633Y-109800653D01*
X118608453Y-109921264D01*
X118299338Y-109982750D01*
X117984162Y-109982750D01*
X117675047Y-109921264D01*
X117383867Y-109800653D01*
X117121806Y-109625549D01*
X116898951Y-109402694D01*
X116723847Y-109140633D01*
X116603236Y-108849453D01*
X116541750Y-108540338D01*
X116541750Y-108225162D01*
X116603236Y-107916047D01*
X116723847Y-107624867D01*
X116898951Y-107362806D01*
X117121806Y-107139951D01*
X117383867Y-106964847D01*
X117675047Y-106844236D01*
X117984162Y-106782750D01*
X118299338Y-106782750D01*
X118608453Y-106844236D01*
X118608453Y-106844236D01*
G37*
G36*
X121441750Y-109307750D02*
X120041750Y-109307750D01*
X120041750Y-108707750D01*
X121441750Y-108707750D01*
X121441750Y-109307750D01*
X121441750Y-109307750D01*
G37*
G36*
X140491750Y-109307750D02*
X139091750Y-109307750D01*
X139091750Y-108707750D01*
X140491750Y-108707750D01*
X140491750Y-109307750D01*
X140491750Y-109307750D01*
G37*
G36*
X135291750Y-109307750D02*
X133891750Y-109307750D01*
X133891750Y-108707750D01*
X135291750Y-108707750D01*
X135291750Y-109307750D01*
X135291750Y-109307750D01*
G37*
G36*
X159541750Y-109307750D02*
X158141750Y-109307750D01*
X158141750Y-108707750D01*
X159541750Y-108707750D01*
X159541750Y-109307750D01*
X159541750Y-109307750D01*
G37*
G36*
X173391750Y-109307750D02*
X171991750Y-109307750D01*
X171991750Y-108707750D01*
X173391750Y-108707750D01*
X173391750Y-109307750D01*
X173391750Y-109307750D01*
G37*
G36*
X154341750Y-109307750D02*
X152941750Y-109307750D01*
X152941750Y-108707750D01*
X154341750Y-108707750D01*
X154341750Y-109307750D01*
X154341750Y-109307750D01*
G37*
G36*
X116241750Y-109307750D02*
X114841750Y-109307750D01*
X114841750Y-108707750D01*
X116241750Y-108707750D01*
X116241750Y-109307750D01*
X116241750Y-109307750D01*
G37*
G36*
X178591750Y-109307750D02*
X177191750Y-109307750D01*
X177191750Y-108707750D01*
X178591750Y-108707750D01*
X178591750Y-109307750D01*
X178591750Y-109307750D01*
G37*
G36*
X116241750Y-108057750D02*
X114841750Y-108057750D01*
X114841750Y-107457750D01*
X116241750Y-107457750D01*
X116241750Y-108057750D01*
X116241750Y-108057750D01*
G37*
G36*
X178591750Y-108057750D02*
X177191750Y-108057750D01*
X177191750Y-107457750D01*
X178591750Y-107457750D01*
X178591750Y-108057750D01*
X178591750Y-108057750D01*
G37*
G36*
X173391750Y-108057750D02*
X171991750Y-108057750D01*
X171991750Y-107457750D01*
X173391750Y-107457750D01*
X173391750Y-108057750D01*
X173391750Y-108057750D01*
G37*
G36*
X154341750Y-108057750D02*
X152941750Y-108057750D01*
X152941750Y-107457750D01*
X154341750Y-107457750D01*
X154341750Y-108057750D01*
X154341750Y-108057750D01*
G37*
G36*
X159541750Y-108057750D02*
X158141750Y-108057750D01*
X158141750Y-107457750D01*
X159541750Y-107457750D01*
X159541750Y-108057750D01*
X159541750Y-108057750D01*
G37*
G36*
X135291750Y-108057750D02*
X133891750Y-108057750D01*
X133891750Y-107457750D01*
X135291750Y-107457750D01*
X135291750Y-108057750D01*
X135291750Y-108057750D01*
G37*
G36*
X140491750Y-108057750D02*
X139091750Y-108057750D01*
X139091750Y-107457750D01*
X140491750Y-107457750D01*
X140491750Y-108057750D01*
X140491750Y-108057750D01*
G37*
G36*
X121441750Y-108057750D02*
X120041750Y-108057750D01*
X120041750Y-107457750D01*
X121441750Y-107457750D01*
X121441750Y-108057750D01*
X121441750Y-108057750D01*
G37*
G36*
X175875128Y-101359609D02*
X176239104Y-101510372D01*
X176566679Y-101729251D01*
X176845249Y-102007821D01*
X177064128Y-102335396D01*
X177214891Y-102699372D01*
X177291750Y-103085766D01*
X177291750Y-103479734D01*
X177214891Y-103866128D01*
X177064128Y-104230104D01*
X176845249Y-104557679D01*
X176566679Y-104836249D01*
X176239104Y-105055128D01*
X175875128Y-105205891D01*
X175488734Y-105282750D01*
X175094766Y-105282750D01*
X174708372Y-105205891D01*
X174344396Y-105055128D01*
X174016821Y-104836249D01*
X173738251Y-104557679D01*
X173519372Y-104230104D01*
X173368609Y-103866128D01*
X173291750Y-103479734D01*
X173291750Y-103085766D01*
X173368609Y-102699372D01*
X173519372Y-102335396D01*
X173738251Y-102007821D01*
X174016821Y-101729251D01*
X174344396Y-101510372D01*
X174708372Y-101359609D01*
X175094766Y-101282750D01*
X175488734Y-101282750D01*
X175875128Y-101359609D01*
X175875128Y-101359609D01*
G37*
G36*
X156825128Y-101359609D02*
X157189104Y-101510372D01*
X157516679Y-101729251D01*
X157795249Y-102007821D01*
X158014128Y-102335396D01*
X158164891Y-102699372D01*
X158241750Y-103085766D01*
X158241750Y-103479734D01*
X158164891Y-103866128D01*
X158014128Y-104230104D01*
X157795249Y-104557679D01*
X157516679Y-104836249D01*
X157189104Y-105055128D01*
X156825128Y-105205891D01*
X156438734Y-105282750D01*
X156044766Y-105282750D01*
X155658372Y-105205891D01*
X155294396Y-105055128D01*
X154966821Y-104836249D01*
X154688251Y-104557679D01*
X154469372Y-104230104D01*
X154318609Y-103866128D01*
X154241750Y-103479734D01*
X154241750Y-103085766D01*
X154318609Y-102699372D01*
X154469372Y-102335396D01*
X154688251Y-102007821D01*
X154966821Y-101729251D01*
X155294396Y-101510372D01*
X155658372Y-101359609D01*
X156044766Y-101282750D01*
X156438734Y-101282750D01*
X156825128Y-101359609D01*
X156825128Y-101359609D01*
G37*
G36*
X137775128Y-101359609D02*
X138139104Y-101510372D01*
X138466679Y-101729251D01*
X138745249Y-102007821D01*
X138964128Y-102335396D01*
X139114891Y-102699372D01*
X139191750Y-103085766D01*
X139191750Y-103479734D01*
X139114891Y-103866128D01*
X138964128Y-104230104D01*
X138745249Y-104557679D01*
X138466679Y-104836249D01*
X138139104Y-105055128D01*
X137775128Y-105205891D01*
X137388734Y-105282750D01*
X136994766Y-105282750D01*
X136608372Y-105205891D01*
X136244396Y-105055128D01*
X135916821Y-104836249D01*
X135638251Y-104557679D01*
X135419372Y-104230104D01*
X135268609Y-103866128D01*
X135191750Y-103479734D01*
X135191750Y-103085766D01*
X135268609Y-102699372D01*
X135419372Y-102335396D01*
X135638251Y-102007821D01*
X135916821Y-101729251D01*
X136244396Y-101510372D01*
X136608372Y-101359609D01*
X136994766Y-101282750D01*
X137388734Y-101282750D01*
X137775128Y-101359609D01*
X137775128Y-101359609D01*
G37*
G36*
X118725128Y-101359609D02*
X119089104Y-101510372D01*
X119416679Y-101729251D01*
X119695249Y-102007821D01*
X119914128Y-102335396D01*
X120064891Y-102699372D01*
X120141750Y-103085766D01*
X120141750Y-103479734D01*
X120064891Y-103866128D01*
X119914128Y-104230104D01*
X119695249Y-104557679D01*
X119416679Y-104836249D01*
X119089104Y-105055128D01*
X118725128Y-105205891D01*
X118338734Y-105282750D01*
X117944766Y-105282750D01*
X117558372Y-105205891D01*
X117194396Y-105055128D01*
X116866821Y-104836249D01*
X116588251Y-104557679D01*
X116369372Y-104230104D01*
X116218609Y-103866128D01*
X116141750Y-103479734D01*
X116141750Y-103085766D01*
X116218609Y-102699372D01*
X116369372Y-102335396D01*
X116588251Y-102007821D01*
X116866821Y-101729251D01*
X117194396Y-101510372D01*
X117558372Y-101359609D01*
X117944766Y-101282750D01*
X118338734Y-101282750D01*
X118725128Y-101359609D01*
X118725128Y-101359609D01*
G37*
G36*
X146970857Y-102192272D02*
X147171042Y-102275191D01*
X147351213Y-102395578D01*
X147504422Y-102548787D01*
X147624809Y-102728958D01*
X147707728Y-102929143D01*
X147750000Y-103141658D01*
X147750000Y-103358342D01*
X147707728Y-103570857D01*
X147624809Y-103771042D01*
X147504422Y-103951213D01*
X147351213Y-104104422D01*
X147171042Y-104224809D01*
X146970857Y-104307728D01*
X146758342Y-104350000D01*
X146541658Y-104350000D01*
X146329143Y-104307728D01*
X146128958Y-104224809D01*
X145948787Y-104104422D01*
X145795578Y-103951213D01*
X145675191Y-103771042D01*
X145592272Y-103570857D01*
X145550000Y-103358342D01*
X145550000Y-103141658D01*
X145592272Y-102929143D01*
X145675191Y-102728958D01*
X145795578Y-102548787D01*
X145948787Y-102395578D01*
X146128958Y-102275191D01*
X146329143Y-102192272D01*
X146541658Y-102150000D01*
X146758342Y-102150000D01*
X146970857Y-102192272D01*
X146970857Y-102192272D01*
G37*
G36*
X171802607Y-99685022D02*
X172002792Y-99767941D01*
X172182963Y-99888328D01*
X172336172Y-100041537D01*
X172456559Y-100221708D01*
X172539478Y-100421893D01*
X172581750Y-100634408D01*
X172581750Y-100851092D01*
X172539478Y-101063607D01*
X172456559Y-101263792D01*
X172336172Y-101443963D01*
X172182963Y-101597172D01*
X172002792Y-101717559D01*
X171802607Y-101800478D01*
X171590092Y-101842750D01*
X171373408Y-101842750D01*
X171160893Y-101800478D01*
X170960708Y-101717559D01*
X170780537Y-101597172D01*
X170627328Y-101443963D01*
X170506941Y-101263792D01*
X170424022Y-101063607D01*
X170381750Y-100851092D01*
X170381750Y-100634408D01*
X170424022Y-100421893D01*
X170506941Y-100221708D01*
X170627328Y-100041537D01*
X170780537Y-99888328D01*
X170960708Y-99767941D01*
X171160893Y-99685022D01*
X171373408Y-99642750D01*
X171590092Y-99642750D01*
X171802607Y-99685022D01*
X171802607Y-99685022D01*
G37*
G36*
X152752607Y-99685022D02*
X152952792Y-99767941D01*
X153132963Y-99888328D01*
X153286172Y-100041537D01*
X153406559Y-100221708D01*
X153489478Y-100421893D01*
X153531750Y-100634408D01*
X153531750Y-100851092D01*
X153489478Y-101063607D01*
X153406559Y-101263792D01*
X153286172Y-101443963D01*
X153132963Y-101597172D01*
X152952792Y-101717559D01*
X152752607Y-101800478D01*
X152540092Y-101842750D01*
X152323408Y-101842750D01*
X152110893Y-101800478D01*
X151910708Y-101717559D01*
X151730537Y-101597172D01*
X151577328Y-101443963D01*
X151456941Y-101263792D01*
X151374022Y-101063607D01*
X151331750Y-100851092D01*
X151331750Y-100634408D01*
X151374022Y-100421893D01*
X151456941Y-100221708D01*
X151577328Y-100041537D01*
X151730537Y-99888328D01*
X151910708Y-99767941D01*
X152110893Y-99685022D01*
X152323408Y-99642750D01*
X152540092Y-99642750D01*
X152752607Y-99685022D01*
X152752607Y-99685022D01*
G37*
G36*
X133702607Y-99685022D02*
X133902792Y-99767941D01*
X134082963Y-99888328D01*
X134236172Y-100041537D01*
X134356559Y-100221708D01*
X134439478Y-100421893D01*
X134481750Y-100634408D01*
X134481750Y-100851092D01*
X134439478Y-101063607D01*
X134356559Y-101263792D01*
X134236172Y-101443963D01*
X134082963Y-101597172D01*
X133902792Y-101717559D01*
X133702607Y-101800478D01*
X133490092Y-101842750D01*
X133273408Y-101842750D01*
X133060893Y-101800478D01*
X132860708Y-101717559D01*
X132680537Y-101597172D01*
X132527328Y-101443963D01*
X132406941Y-101263792D01*
X132324022Y-101063607D01*
X132281750Y-100851092D01*
X132281750Y-100634408D01*
X132324022Y-100421893D01*
X132406941Y-100221708D01*
X132527328Y-100041537D01*
X132680537Y-99888328D01*
X132860708Y-99767941D01*
X133060893Y-99685022D01*
X133273408Y-99642750D01*
X133490092Y-99642750D01*
X133702607Y-99685022D01*
X133702607Y-99685022D01*
G37*
G36*
X114652607Y-99685022D02*
X114852792Y-99767941D01*
X115032963Y-99888328D01*
X115186172Y-100041537D01*
X115306559Y-100221708D01*
X115389478Y-100421893D01*
X115431750Y-100634408D01*
X115431750Y-100851092D01*
X115389478Y-101063607D01*
X115306559Y-101263792D01*
X115186172Y-101443963D01*
X115032963Y-101597172D01*
X114852792Y-101717559D01*
X114652607Y-101800478D01*
X114440092Y-101842750D01*
X114223408Y-101842750D01*
X114010893Y-101800478D01*
X113810708Y-101717559D01*
X113630537Y-101597172D01*
X113477328Y-101443963D01*
X113356941Y-101263792D01*
X113274022Y-101063607D01*
X113231750Y-100851092D01*
X113231750Y-100634408D01*
X113274022Y-100421893D01*
X113356941Y-100221708D01*
X113477328Y-100041537D01*
X113630537Y-99888328D01*
X113810708Y-99767941D01*
X114010893Y-99685022D01*
X114223408Y-99642750D01*
X114440092Y-99642750D01*
X114652607Y-99685022D01*
X114652607Y-99685022D01*
G37*
G36*
X121002607Y-97145022D02*
X121202792Y-97227941D01*
X121382963Y-97348328D01*
X121536172Y-97501537D01*
X121656559Y-97681708D01*
X121739478Y-97881893D01*
X121781750Y-98094408D01*
X121781750Y-98311092D01*
X121739478Y-98523607D01*
X121656559Y-98723792D01*
X121536172Y-98903963D01*
X121382963Y-99057172D01*
X121202792Y-99177559D01*
X121002607Y-99260478D01*
X120790092Y-99302750D01*
X120573408Y-99302750D01*
X120360893Y-99260478D01*
X120160708Y-99177559D01*
X119980537Y-99057172D01*
X119827328Y-98903963D01*
X119706941Y-98723792D01*
X119624022Y-98523607D01*
X119581750Y-98311092D01*
X119581750Y-98094408D01*
X119624022Y-97881893D01*
X119706941Y-97681708D01*
X119827328Y-97501537D01*
X119980537Y-97348328D01*
X120160708Y-97227941D01*
X120360893Y-97145022D01*
X120573408Y-97102750D01*
X120790092Y-97102750D01*
X121002607Y-97145022D01*
X121002607Y-97145022D01*
G37*
G36*
X140052607Y-97145022D02*
X140252792Y-97227941D01*
X140432963Y-97348328D01*
X140586172Y-97501537D01*
X140706559Y-97681708D01*
X140789478Y-97881893D01*
X140831750Y-98094408D01*
X140831750Y-98311092D01*
X140789478Y-98523607D01*
X140706559Y-98723792D01*
X140586172Y-98903963D01*
X140432963Y-99057172D01*
X140252792Y-99177559D01*
X140052607Y-99260478D01*
X139840092Y-99302750D01*
X139623408Y-99302750D01*
X139410893Y-99260478D01*
X139210708Y-99177559D01*
X139030537Y-99057172D01*
X138877328Y-98903963D01*
X138756941Y-98723792D01*
X138674022Y-98523607D01*
X138631750Y-98311092D01*
X138631750Y-98094408D01*
X138674022Y-97881893D01*
X138756941Y-97681708D01*
X138877328Y-97501537D01*
X139030537Y-97348328D01*
X139210708Y-97227941D01*
X139410893Y-97145022D01*
X139623408Y-97102750D01*
X139840092Y-97102750D01*
X140052607Y-97145022D01*
X140052607Y-97145022D01*
G37*
G36*
X159102607Y-97145022D02*
X159302792Y-97227941D01*
X159482963Y-97348328D01*
X159636172Y-97501537D01*
X159756559Y-97681708D01*
X159839478Y-97881893D01*
X159881750Y-98094408D01*
X159881750Y-98311092D01*
X159839478Y-98523607D01*
X159756559Y-98723792D01*
X159636172Y-98903963D01*
X159482963Y-99057172D01*
X159302792Y-99177559D01*
X159102607Y-99260478D01*
X158890092Y-99302750D01*
X158673408Y-99302750D01*
X158460893Y-99260478D01*
X158260708Y-99177559D01*
X158080537Y-99057172D01*
X157927328Y-98903963D01*
X157806941Y-98723792D01*
X157724022Y-98523607D01*
X157681750Y-98311092D01*
X157681750Y-98094408D01*
X157724022Y-97881893D01*
X157806941Y-97681708D01*
X157927328Y-97501537D01*
X158080537Y-97348328D01*
X158260708Y-97227941D01*
X158460893Y-97145022D01*
X158673408Y-97102750D01*
X158890092Y-97102750D01*
X159102607Y-97145022D01*
X159102607Y-97145022D01*
G37*
G36*
X178152607Y-97145022D02*
X178352792Y-97227941D01*
X178532963Y-97348328D01*
X178686172Y-97501537D01*
X178806559Y-97681708D01*
X178889478Y-97881893D01*
X178931750Y-98094408D01*
X178931750Y-98311092D01*
X178889478Y-98523607D01*
X178806559Y-98723792D01*
X178686172Y-98903963D01*
X178532963Y-99057172D01*
X178352792Y-99177559D01*
X178152607Y-99260478D01*
X177940092Y-99302750D01*
X177723408Y-99302750D01*
X177510893Y-99260478D01*
X177310708Y-99177559D01*
X177130537Y-99057172D01*
X176977328Y-98903963D01*
X176856941Y-98723792D01*
X176774022Y-98523607D01*
X176731750Y-98311092D01*
X176731750Y-98094408D01*
X176774022Y-97881893D01*
X176856941Y-97681708D01*
X176977328Y-97501537D01*
X177130537Y-97348328D01*
X177310708Y-97227941D01*
X177510893Y-97145022D01*
X177723408Y-97102750D01*
X177940092Y-97102750D01*
X178152607Y-97145022D01*
X178152607Y-97145022D01*
G37*
G36*
X111250000Y-96650000D02*
X110400000Y-96650000D01*
X110400000Y-95050000D01*
X111250000Y-95050000D01*
X111250000Y-96650000D01*
X111250000Y-96650000D01*
G37*
G36*
X113000000Y-96650000D02*
X112150000Y-96650000D01*
X112150000Y-95050000D01*
X113000000Y-95050000D01*
X113000000Y-96650000D01*
X113000000Y-96650000D01*
G37*
G36*
X182450000Y-95000000D02*
X181600000Y-95000000D01*
X181600000Y-93400000D01*
X182450000Y-93400000D01*
X182450000Y-95000000D01*
X182450000Y-95000000D01*
G37*
G36*
X180700000Y-95000000D02*
X179850000Y-95000000D01*
X179850000Y-93400000D01*
X180700000Y-93400000D01*
X180700000Y-95000000D01*
X180700000Y-95000000D01*
G37*
G36*
X125420857Y-92692272D02*
X125621042Y-92775191D01*
X125801213Y-92895578D01*
X125954422Y-93048787D01*
X126074809Y-93228958D01*
X126157728Y-93429143D01*
X126200000Y-93641658D01*
X126200000Y-93858342D01*
X126157728Y-94070857D01*
X126074809Y-94271042D01*
X125954422Y-94451213D01*
X125801213Y-94604422D01*
X125621042Y-94724809D01*
X125420857Y-94807728D01*
X125208342Y-94850000D01*
X124991658Y-94850000D01*
X124779143Y-94807728D01*
X124578958Y-94724809D01*
X124398787Y-94604422D01*
X124245578Y-94451213D01*
X124125191Y-94271042D01*
X124042272Y-94070857D01*
X124000000Y-93858342D01*
X124000000Y-93641658D01*
X124042272Y-93429143D01*
X124125191Y-93228958D01*
X124245578Y-93048787D01*
X124398787Y-92895578D01*
X124578958Y-92775191D01*
X124779143Y-92692272D01*
X124991658Y-92650000D01*
X125208342Y-92650000D01*
X125420857Y-92692272D01*
X125420857Y-92692272D01*
G37*
G36*
X163570857Y-92692272D02*
X163771042Y-92775191D01*
X163951213Y-92895578D01*
X164104422Y-93048787D01*
X164224809Y-93228958D01*
X164307728Y-93429143D01*
X164350000Y-93641658D01*
X164350000Y-93858342D01*
X164307728Y-94070857D01*
X164224809Y-94271042D01*
X164104422Y-94451213D01*
X163951213Y-94604422D01*
X163771042Y-94724809D01*
X163570857Y-94807728D01*
X163358342Y-94850000D01*
X163141658Y-94850000D01*
X162929143Y-94807728D01*
X162728958Y-94724809D01*
X162548787Y-94604422D01*
X162395578Y-94451213D01*
X162275191Y-94271042D01*
X162192272Y-94070857D01*
X162150000Y-93858342D01*
X162150000Y-93641658D01*
X162192272Y-93429143D01*
X162275191Y-93228958D01*
X162395578Y-93048787D01*
X162548787Y-92895578D01*
X162728958Y-92775191D01*
X162929143Y-92692272D01*
X163141658Y-92650000D01*
X163358342Y-92650000D01*
X163570857Y-92692272D01*
X163570857Y-92692272D01*
G37*
G36*
X113000000Y-93150000D02*
X112150000Y-93150000D01*
X112150000Y-91550000D01*
X113000000Y-91550000D01*
X113000000Y-93150000D01*
X113000000Y-93150000D01*
G37*
G36*
X111250000Y-93150000D02*
X110400000Y-93150000D01*
X110400000Y-91550000D01*
X111250000Y-91550000D01*
X111250000Y-93150000D01*
X111250000Y-93150000D01*
G37*
G36*
X182450000Y-91500000D02*
X181600000Y-91500000D01*
X181600000Y-89900000D01*
X182450000Y-89900000D01*
X182450000Y-91500000D01*
X182450000Y-91500000D01*
G37*
G36*
X180700000Y-91500000D02*
X179850000Y-91500000D01*
X179850000Y-89900000D01*
X180700000Y-89900000D01*
X180700000Y-91500000D01*
X180700000Y-91500000D01*
G37*
G36*
X175758453Y-87794236D02*
X176049633Y-87914847D01*
X176311694Y-88089951D01*
X176534549Y-88312806D01*
X176709653Y-88574867D01*
X176830264Y-88866047D01*
X176891750Y-89175162D01*
X176891750Y-89490338D01*
X176830264Y-89799453D01*
X176709653Y-90090633D01*
X176534549Y-90352694D01*
X176311694Y-90575549D01*
X176049633Y-90750653D01*
X175758453Y-90871264D01*
X175449338Y-90932750D01*
X175134162Y-90932750D01*
X174825047Y-90871264D01*
X174533867Y-90750653D01*
X174271806Y-90575549D01*
X174048951Y-90352694D01*
X173873847Y-90090633D01*
X173753236Y-89799453D01*
X173691750Y-89490338D01*
X173691750Y-89175162D01*
X173753236Y-88866047D01*
X173873847Y-88574867D01*
X174048951Y-88312806D01*
X174271806Y-88089951D01*
X174533867Y-87914847D01*
X174825047Y-87794236D01*
X175134162Y-87732750D01*
X175449338Y-87732750D01*
X175758453Y-87794236D01*
X175758453Y-87794236D01*
G37*
G36*
X156708453Y-87794236D02*
X156999633Y-87914847D01*
X157261694Y-88089951D01*
X157484549Y-88312806D01*
X157659653Y-88574867D01*
X157780264Y-88866047D01*
X157841750Y-89175162D01*
X157841750Y-89490338D01*
X157780264Y-89799453D01*
X157659653Y-90090633D01*
X157484549Y-90352694D01*
X157261694Y-90575549D01*
X156999633Y-90750653D01*
X156708453Y-90871264D01*
X156399338Y-90932750D01*
X156084162Y-90932750D01*
X155775047Y-90871264D01*
X155483867Y-90750653D01*
X155221806Y-90575549D01*
X154998951Y-90352694D01*
X154823847Y-90090633D01*
X154703236Y-89799453D01*
X154641750Y-89490338D01*
X154641750Y-89175162D01*
X154703236Y-88866047D01*
X154823847Y-88574867D01*
X154998951Y-88312806D01*
X155221806Y-88089951D01*
X155483867Y-87914847D01*
X155775047Y-87794236D01*
X156084162Y-87732750D01*
X156399338Y-87732750D01*
X156708453Y-87794236D01*
X156708453Y-87794236D01*
G37*
G36*
X137658453Y-87794236D02*
X137949633Y-87914847D01*
X138211694Y-88089951D01*
X138434549Y-88312806D01*
X138609653Y-88574867D01*
X138730264Y-88866047D01*
X138791750Y-89175162D01*
X138791750Y-89490338D01*
X138730264Y-89799453D01*
X138609653Y-90090633D01*
X138434549Y-90352694D01*
X138211694Y-90575549D01*
X137949633Y-90750653D01*
X137658453Y-90871264D01*
X137349338Y-90932750D01*
X137034162Y-90932750D01*
X136725047Y-90871264D01*
X136433867Y-90750653D01*
X136171806Y-90575549D01*
X135948951Y-90352694D01*
X135773847Y-90090633D01*
X135653236Y-89799453D01*
X135591750Y-89490338D01*
X135591750Y-89175162D01*
X135653236Y-88866047D01*
X135773847Y-88574867D01*
X135948951Y-88312806D01*
X136171806Y-88089951D01*
X136433867Y-87914847D01*
X136725047Y-87794236D01*
X137034162Y-87732750D01*
X137349338Y-87732750D01*
X137658453Y-87794236D01*
X137658453Y-87794236D01*
G37*
G36*
X118608453Y-87794236D02*
X118899633Y-87914847D01*
X119161694Y-88089951D01*
X119384549Y-88312806D01*
X119559653Y-88574867D01*
X119680264Y-88866047D01*
X119741750Y-89175162D01*
X119741750Y-89490338D01*
X119680264Y-89799453D01*
X119559653Y-90090633D01*
X119384549Y-90352694D01*
X119161694Y-90575549D01*
X118899633Y-90750653D01*
X118608453Y-90871264D01*
X118299338Y-90932750D01*
X117984162Y-90932750D01*
X117675047Y-90871264D01*
X117383867Y-90750653D01*
X117121806Y-90575549D01*
X116898951Y-90352694D01*
X116723847Y-90090633D01*
X116603236Y-89799453D01*
X116541750Y-89490338D01*
X116541750Y-89175162D01*
X116603236Y-88866047D01*
X116723847Y-88574867D01*
X116898951Y-88312806D01*
X117121806Y-88089951D01*
X117383867Y-87914847D01*
X117675047Y-87794236D01*
X117984162Y-87732750D01*
X118299338Y-87732750D01*
X118608453Y-87794236D01*
X118608453Y-87794236D01*
G37*
G36*
X159541750Y-90257750D02*
X158141750Y-90257750D01*
X158141750Y-89657750D01*
X159541750Y-89657750D01*
X159541750Y-90257750D01*
X159541750Y-90257750D01*
G37*
G36*
X121441750Y-90257750D02*
X120041750Y-90257750D01*
X120041750Y-89657750D01*
X121441750Y-89657750D01*
X121441750Y-90257750D01*
X121441750Y-90257750D01*
G37*
G36*
X135291750Y-90257750D02*
X133891750Y-90257750D01*
X133891750Y-89657750D01*
X135291750Y-89657750D01*
X135291750Y-90257750D01*
X135291750Y-90257750D01*
G37*
G36*
X140491750Y-90257750D02*
X139091750Y-90257750D01*
X139091750Y-89657750D01*
X140491750Y-89657750D01*
X140491750Y-90257750D01*
X140491750Y-90257750D01*
G37*
G36*
X154341750Y-90257750D02*
X152941750Y-90257750D01*
X152941750Y-89657750D01*
X154341750Y-89657750D01*
X154341750Y-90257750D01*
X154341750Y-90257750D01*
G37*
G36*
X178591750Y-90257750D02*
X177191750Y-90257750D01*
X177191750Y-89657750D01*
X178591750Y-89657750D01*
X178591750Y-90257750D01*
X178591750Y-90257750D01*
G37*
G36*
X116241750Y-90257750D02*
X114841750Y-90257750D01*
X114841750Y-89657750D01*
X116241750Y-89657750D01*
X116241750Y-90257750D01*
X116241750Y-90257750D01*
G37*
G36*
X173391750Y-90257750D02*
X171991750Y-90257750D01*
X171991750Y-89657750D01*
X173391750Y-89657750D01*
X173391750Y-90257750D01*
X173391750Y-90257750D01*
G37*
G36*
X178591750Y-89007750D02*
X177191750Y-89007750D01*
X177191750Y-88407750D01*
X178591750Y-88407750D01*
X178591750Y-89007750D01*
X178591750Y-89007750D01*
G37*
G36*
X121441750Y-89007750D02*
X120041750Y-89007750D01*
X120041750Y-88407750D01*
X121441750Y-88407750D01*
X121441750Y-89007750D01*
X121441750Y-89007750D01*
G37*
G36*
X116241750Y-89007750D02*
X114841750Y-89007750D01*
X114841750Y-88407750D01*
X116241750Y-88407750D01*
X116241750Y-89007750D01*
X116241750Y-89007750D01*
G37*
G36*
X135291750Y-89007750D02*
X133891750Y-89007750D01*
X133891750Y-88407750D01*
X135291750Y-88407750D01*
X135291750Y-89007750D01*
X135291750Y-89007750D01*
G37*
G36*
X140491750Y-89007750D02*
X139091750Y-89007750D01*
X139091750Y-88407750D01*
X140491750Y-88407750D01*
X140491750Y-89007750D01*
X140491750Y-89007750D01*
G37*
G36*
X159541750Y-89007750D02*
X158141750Y-89007750D01*
X158141750Y-88407750D01*
X159541750Y-88407750D01*
X159541750Y-89007750D01*
X159541750Y-89007750D01*
G37*
G36*
X154341750Y-89007750D02*
X152941750Y-89007750D01*
X152941750Y-88407750D01*
X154341750Y-88407750D01*
X154341750Y-89007750D01*
X154341750Y-89007750D01*
G37*
G36*
X173391750Y-89007750D02*
X171991750Y-89007750D01*
X171991750Y-88407750D01*
X173391750Y-88407750D01*
X173391750Y-89007750D01*
X173391750Y-89007750D01*
G37*
G36*
X118725128Y-82309609D02*
X119089104Y-82460372D01*
X119416679Y-82679251D01*
X119695249Y-82957821D01*
X119914128Y-83285396D01*
X120064891Y-83649372D01*
X120141750Y-84035766D01*
X120141750Y-84429734D01*
X120064891Y-84816128D01*
X119914128Y-85180104D01*
X119695249Y-85507679D01*
X119416679Y-85786249D01*
X119089104Y-86005128D01*
X118725128Y-86155891D01*
X118338734Y-86232750D01*
X117944766Y-86232750D01*
X117558372Y-86155891D01*
X117194396Y-86005128D01*
X116866821Y-85786249D01*
X116588251Y-85507679D01*
X116369372Y-85180104D01*
X116218609Y-84816128D01*
X116141750Y-84429734D01*
X116141750Y-84035766D01*
X116218609Y-83649372D01*
X116369372Y-83285396D01*
X116588251Y-82957821D01*
X116866821Y-82679251D01*
X117194396Y-82460372D01*
X117558372Y-82309609D01*
X117944766Y-82232750D01*
X118338734Y-82232750D01*
X118725128Y-82309609D01*
X118725128Y-82309609D01*
G37*
G36*
X156825128Y-82309609D02*
X157189104Y-82460372D01*
X157516679Y-82679251D01*
X157795249Y-82957821D01*
X158014128Y-83285396D01*
X158164891Y-83649372D01*
X158241750Y-84035766D01*
X158241750Y-84429734D01*
X158164891Y-84816128D01*
X158014128Y-85180104D01*
X157795249Y-85507679D01*
X157516679Y-85786249D01*
X157189104Y-86005128D01*
X156825128Y-86155891D01*
X156438734Y-86232750D01*
X156044766Y-86232750D01*
X155658372Y-86155891D01*
X155294396Y-86005128D01*
X154966821Y-85786249D01*
X154688251Y-85507679D01*
X154469372Y-85180104D01*
X154318609Y-84816128D01*
X154241750Y-84429734D01*
X154241750Y-84035766D01*
X154318609Y-83649372D01*
X154469372Y-83285396D01*
X154688251Y-82957821D01*
X154966821Y-82679251D01*
X155294396Y-82460372D01*
X155658372Y-82309609D01*
X156044766Y-82232750D01*
X156438734Y-82232750D01*
X156825128Y-82309609D01*
X156825128Y-82309609D01*
G37*
G36*
X175875128Y-82309609D02*
X176239104Y-82460372D01*
X176566679Y-82679251D01*
X176845249Y-82957821D01*
X177064128Y-83285396D01*
X177214891Y-83649372D01*
X177291750Y-84035766D01*
X177291750Y-84429734D01*
X177214891Y-84816128D01*
X177064128Y-85180104D01*
X176845249Y-85507679D01*
X176566679Y-85786249D01*
X176239104Y-86005128D01*
X175875128Y-86155891D01*
X175488734Y-86232750D01*
X175094766Y-86232750D01*
X174708372Y-86155891D01*
X174344396Y-86005128D01*
X174016821Y-85786249D01*
X173738251Y-85507679D01*
X173519372Y-85180104D01*
X173368609Y-84816128D01*
X173291750Y-84429734D01*
X173291750Y-84035766D01*
X173368609Y-83649372D01*
X173519372Y-83285396D01*
X173738251Y-82957821D01*
X174016821Y-82679251D01*
X174344396Y-82460372D01*
X174708372Y-82309609D01*
X175094766Y-82232750D01*
X175488734Y-82232750D01*
X175875128Y-82309609D01*
X175875128Y-82309609D01*
G37*
G36*
X137775128Y-82309609D02*
X138139104Y-82460372D01*
X138466679Y-82679251D01*
X138745249Y-82957821D01*
X138964128Y-83285396D01*
X139114891Y-83649372D01*
X139191750Y-84035766D01*
X139191750Y-84429734D01*
X139114891Y-84816128D01*
X138964128Y-85180104D01*
X138745249Y-85507679D01*
X138466679Y-85786249D01*
X138139104Y-86005128D01*
X137775128Y-86155891D01*
X137388734Y-86232750D01*
X136994766Y-86232750D01*
X136608372Y-86155891D01*
X136244396Y-86005128D01*
X135916821Y-85786249D01*
X135638251Y-85507679D01*
X135419372Y-85180104D01*
X135268609Y-84816128D01*
X135191750Y-84429734D01*
X135191750Y-84035766D01*
X135268609Y-83649372D01*
X135419372Y-83285396D01*
X135638251Y-82957821D01*
X135916821Y-82679251D01*
X136244396Y-82460372D01*
X136608372Y-82309609D01*
X136994766Y-82232750D01*
X137388734Y-82232750D01*
X137775128Y-82309609D01*
X137775128Y-82309609D01*
G37*
G36*
X171802607Y-80635022D02*
X172002792Y-80717941D01*
X172182963Y-80838328D01*
X172336172Y-80991537D01*
X172456559Y-81171708D01*
X172539478Y-81371893D01*
X172581750Y-81584408D01*
X172581750Y-81801092D01*
X172539478Y-82013607D01*
X172456559Y-82213792D01*
X172336172Y-82393963D01*
X172182963Y-82547172D01*
X172002792Y-82667559D01*
X171802607Y-82750478D01*
X171590092Y-82792750D01*
X171373408Y-82792750D01*
X171160893Y-82750478D01*
X170960708Y-82667559D01*
X170780537Y-82547172D01*
X170627328Y-82393963D01*
X170506941Y-82213792D01*
X170424022Y-82013607D01*
X170381750Y-81801092D01*
X170381750Y-81584408D01*
X170424022Y-81371893D01*
X170506941Y-81171708D01*
X170627328Y-80991537D01*
X170780537Y-80838328D01*
X170960708Y-80717941D01*
X171160893Y-80635022D01*
X171373408Y-80592750D01*
X171590092Y-80592750D01*
X171802607Y-80635022D01*
X171802607Y-80635022D01*
G37*
G36*
X152752607Y-80635022D02*
X152952792Y-80717941D01*
X153132963Y-80838328D01*
X153286172Y-80991537D01*
X153406559Y-81171708D01*
X153489478Y-81371893D01*
X153531750Y-81584408D01*
X153531750Y-81801092D01*
X153489478Y-82013607D01*
X153406559Y-82213792D01*
X153286172Y-82393963D01*
X153132963Y-82547172D01*
X152952792Y-82667559D01*
X152752607Y-82750478D01*
X152540092Y-82792750D01*
X152323408Y-82792750D01*
X152110893Y-82750478D01*
X151910708Y-82667559D01*
X151730537Y-82547172D01*
X151577328Y-82393963D01*
X151456941Y-82213792D01*
X151374022Y-82013607D01*
X151331750Y-81801092D01*
X151331750Y-81584408D01*
X151374022Y-81371893D01*
X151456941Y-81171708D01*
X151577328Y-80991537D01*
X151730537Y-80838328D01*
X151910708Y-80717941D01*
X152110893Y-80635022D01*
X152323408Y-80592750D01*
X152540092Y-80592750D01*
X152752607Y-80635022D01*
X152752607Y-80635022D01*
G37*
G36*
X133702607Y-80635022D02*
X133902792Y-80717941D01*
X134082963Y-80838328D01*
X134236172Y-80991537D01*
X134356559Y-81171708D01*
X134439478Y-81371893D01*
X134481750Y-81584408D01*
X134481750Y-81801092D01*
X134439478Y-82013607D01*
X134356559Y-82213792D01*
X134236172Y-82393963D01*
X134082963Y-82547172D01*
X133902792Y-82667559D01*
X133702607Y-82750478D01*
X133490092Y-82792750D01*
X133273408Y-82792750D01*
X133060893Y-82750478D01*
X132860708Y-82667559D01*
X132680537Y-82547172D01*
X132527328Y-82393963D01*
X132406941Y-82213792D01*
X132324022Y-82013607D01*
X132281750Y-81801092D01*
X132281750Y-81584408D01*
X132324022Y-81371893D01*
X132406941Y-81171708D01*
X132527328Y-80991537D01*
X132680537Y-80838328D01*
X132860708Y-80717941D01*
X133060893Y-80635022D01*
X133273408Y-80592750D01*
X133490092Y-80592750D01*
X133702607Y-80635022D01*
X133702607Y-80635022D01*
G37*
G36*
X114652607Y-80635022D02*
X114852792Y-80717941D01*
X115032963Y-80838328D01*
X115186172Y-80991537D01*
X115306559Y-81171708D01*
X115389478Y-81371893D01*
X115431750Y-81584408D01*
X115431750Y-81801092D01*
X115389478Y-82013607D01*
X115306559Y-82213792D01*
X115186172Y-82393963D01*
X115032963Y-82547172D01*
X114852792Y-82667559D01*
X114652607Y-82750478D01*
X114440092Y-82792750D01*
X114223408Y-82792750D01*
X114010893Y-82750478D01*
X113810708Y-82667559D01*
X113630537Y-82547172D01*
X113477328Y-82393963D01*
X113356941Y-82213792D01*
X113274022Y-82013607D01*
X113231750Y-81801092D01*
X113231750Y-81584408D01*
X113274022Y-81371893D01*
X113356941Y-81171708D01*
X113477328Y-80991537D01*
X113630537Y-80838328D01*
X113810708Y-80717941D01*
X114010893Y-80635022D01*
X114223408Y-80592750D01*
X114440092Y-80592750D01*
X114652607Y-80635022D01*
X114652607Y-80635022D01*
G37*
G36*
X178152607Y-78095022D02*
X178352792Y-78177941D01*
X178532963Y-78298328D01*
X178686172Y-78451537D01*
X178806559Y-78631708D01*
X178889478Y-78831893D01*
X178931750Y-79044408D01*
X178931750Y-79261092D01*
X178889478Y-79473607D01*
X178806559Y-79673792D01*
X178686172Y-79853963D01*
X178532963Y-80007172D01*
X178352792Y-80127559D01*
X178152607Y-80210478D01*
X177940092Y-80252750D01*
X177723408Y-80252750D01*
X177510893Y-80210478D01*
X177310708Y-80127559D01*
X177130537Y-80007172D01*
X176977328Y-79853963D01*
X176856941Y-79673792D01*
X176774022Y-79473607D01*
X176731750Y-79261092D01*
X176731750Y-79044408D01*
X176774022Y-78831893D01*
X176856941Y-78631708D01*
X176977328Y-78451537D01*
X177130537Y-78298328D01*
X177310708Y-78177941D01*
X177510893Y-78095022D01*
X177723408Y-78052750D01*
X177940092Y-78052750D01*
X178152607Y-78095022D01*
X178152607Y-78095022D01*
G37*
G36*
X121002607Y-78095022D02*
X121202792Y-78177941D01*
X121382963Y-78298328D01*
X121536172Y-78451537D01*
X121656559Y-78631708D01*
X121739478Y-78831893D01*
X121781750Y-79044408D01*
X121781750Y-79261092D01*
X121739478Y-79473607D01*
X121656559Y-79673792D01*
X121536172Y-79853963D01*
X121382963Y-80007172D01*
X121202792Y-80127559D01*
X121002607Y-80210478D01*
X120790092Y-80252750D01*
X120573408Y-80252750D01*
X120360893Y-80210478D01*
X120160708Y-80127559D01*
X119980537Y-80007172D01*
X119827328Y-79853963D01*
X119706941Y-79673792D01*
X119624022Y-79473607D01*
X119581750Y-79261092D01*
X119581750Y-79044408D01*
X119624022Y-78831893D01*
X119706941Y-78631708D01*
X119827328Y-78451537D01*
X119980537Y-78298328D01*
X120160708Y-78177941D01*
X120360893Y-78095022D01*
X120573408Y-78052750D01*
X120790092Y-78052750D01*
X121002607Y-78095022D01*
X121002607Y-78095022D01*
G37*
G36*
X159102607Y-78095022D02*
X159302792Y-78177941D01*
X159482963Y-78298328D01*
X159636172Y-78451537D01*
X159756559Y-78631708D01*
X159839478Y-78831893D01*
X159881750Y-79044408D01*
X159881750Y-79261092D01*
X159839478Y-79473607D01*
X159756559Y-79673792D01*
X159636172Y-79853963D01*
X159482963Y-80007172D01*
X159302792Y-80127559D01*
X159102607Y-80210478D01*
X158890092Y-80252750D01*
X158673408Y-80252750D01*
X158460893Y-80210478D01*
X158260708Y-80127559D01*
X158080537Y-80007172D01*
X157927328Y-79853963D01*
X157806941Y-79673792D01*
X157724022Y-79473607D01*
X157681750Y-79261092D01*
X157681750Y-79044408D01*
X157724022Y-78831893D01*
X157806941Y-78631708D01*
X157927328Y-78451537D01*
X158080537Y-78298328D01*
X158260708Y-78177941D01*
X158460893Y-78095022D01*
X158673408Y-78052750D01*
X158890092Y-78052750D01*
X159102607Y-78095022D01*
X159102607Y-78095022D01*
G37*
G36*
X140052607Y-78095022D02*
X140252792Y-78177941D01*
X140432963Y-78298328D01*
X140586172Y-78451537D01*
X140706559Y-78631708D01*
X140789478Y-78831893D01*
X140831750Y-79044408D01*
X140831750Y-79261092D01*
X140789478Y-79473607D01*
X140706559Y-79673792D01*
X140586172Y-79853963D01*
X140432963Y-80007172D01*
X140252792Y-80127559D01*
X140052607Y-80210478D01*
X139840092Y-80252750D01*
X139623408Y-80252750D01*
X139410893Y-80210478D01*
X139210708Y-80127559D01*
X139030537Y-80007172D01*
X138877328Y-79853963D01*
X138756941Y-79673792D01*
X138674022Y-79473607D01*
X138631750Y-79261092D01*
X138631750Y-79044408D01*
X138674022Y-78831893D01*
X138756941Y-78631708D01*
X138877328Y-78451537D01*
X139030537Y-78298328D01*
X139210708Y-78177941D01*
X139410893Y-78095022D01*
X139623408Y-78052750D01*
X139840092Y-78052750D01*
X140052607Y-78095022D01*
X140052607Y-78095022D01*
G37*
G36*
X177170857Y-73642272D02*
X177371042Y-73725191D01*
X177551213Y-73845578D01*
X177704422Y-73998787D01*
X177824809Y-74178958D01*
X177907728Y-74379143D01*
X177950000Y-74591658D01*
X177950000Y-74808342D01*
X177907728Y-75020857D01*
X177824809Y-75221042D01*
X177704422Y-75401213D01*
X177551213Y-75554422D01*
X177371042Y-75674809D01*
X177170857Y-75757728D01*
X176958342Y-75800000D01*
X176741658Y-75800000D01*
X176529143Y-75757728D01*
X176328958Y-75674809D01*
X176148787Y-75554422D01*
X175995578Y-75401213D01*
X175875191Y-75221042D01*
X175792272Y-75020857D01*
X175750000Y-74808342D01*
X175750000Y-74591658D01*
X175792272Y-74379143D01*
X175875191Y-74178958D01*
X175995578Y-73998787D01*
X176148787Y-73845578D01*
X176328958Y-73725191D01*
X176529143Y-73642272D01*
X176741658Y-73600000D01*
X176958342Y-73600000D01*
X177170857Y-73642272D01*
X177170857Y-73642272D01*
G37*
G36*
X125520857Y-73642272D02*
X125721042Y-73725191D01*
X125901213Y-73845578D01*
X126054422Y-73998787D01*
X126174809Y-74178958D01*
X126257728Y-74379143D01*
X126300000Y-74591658D01*
X126300000Y-74808342D01*
X126257728Y-75020857D01*
X126174809Y-75221042D01*
X126054422Y-75401213D01*
X125901213Y-75554422D01*
X125721042Y-75674809D01*
X125520857Y-75757728D01*
X125308342Y-75800000D01*
X125091658Y-75800000D01*
X124879143Y-75757728D01*
X124678958Y-75674809D01*
X124498787Y-75554422D01*
X124345578Y-75401213D01*
X124225191Y-75221042D01*
X124142272Y-75020857D01*
X124100000Y-74808342D01*
X124100000Y-74591658D01*
X124142272Y-74379143D01*
X124225191Y-74178958D01*
X124345578Y-73998787D01*
X124498787Y-73845578D01*
X124678958Y-73725191D01*
X124879143Y-73642272D01*
X125091658Y-73600000D01*
X125308342Y-73600000D01*
X125520857Y-73642272D01*
X125520857Y-73642272D01*
G37*
G36*
X156708453Y-68744236D02*
X156999633Y-68864847D01*
X157261694Y-69039951D01*
X157484549Y-69262806D01*
X157659653Y-69524867D01*
X157780264Y-69816047D01*
X157841750Y-70125162D01*
X157841750Y-70440338D01*
X157780264Y-70749453D01*
X157659653Y-71040633D01*
X157484549Y-71302694D01*
X157261694Y-71525549D01*
X156999633Y-71700653D01*
X156708453Y-71821264D01*
X156399338Y-71882750D01*
X156084162Y-71882750D01*
X155775047Y-71821264D01*
X155483867Y-71700653D01*
X155221806Y-71525549D01*
X154998951Y-71302694D01*
X154823847Y-71040633D01*
X154703236Y-70749453D01*
X154641750Y-70440338D01*
X154641750Y-70125162D01*
X154703236Y-69816047D01*
X154823847Y-69524867D01*
X154998951Y-69262806D01*
X155221806Y-69039951D01*
X155483867Y-68864847D01*
X155775047Y-68744236D01*
X156084162Y-68682750D01*
X156399338Y-68682750D01*
X156708453Y-68744236D01*
X156708453Y-68744236D01*
G37*
G36*
X175758453Y-68744236D02*
X176049633Y-68864847D01*
X176311694Y-69039951D01*
X176534549Y-69262806D01*
X176709653Y-69524867D01*
X176830264Y-69816047D01*
X176891750Y-70125162D01*
X176891750Y-70440338D01*
X176830264Y-70749453D01*
X176709653Y-71040633D01*
X176534549Y-71302694D01*
X176311694Y-71525549D01*
X176049633Y-71700653D01*
X175758453Y-71821264D01*
X175449338Y-71882750D01*
X175134162Y-71882750D01*
X174825047Y-71821264D01*
X174533867Y-71700653D01*
X174271806Y-71525549D01*
X174048951Y-71302694D01*
X173873847Y-71040633D01*
X173753236Y-70749453D01*
X173691750Y-70440338D01*
X173691750Y-70125162D01*
X173753236Y-69816047D01*
X173873847Y-69524867D01*
X174048951Y-69262806D01*
X174271806Y-69039951D01*
X174533867Y-68864847D01*
X174825047Y-68744236D01*
X175134162Y-68682750D01*
X175449338Y-68682750D01*
X175758453Y-68744236D01*
X175758453Y-68744236D01*
G37*
G36*
X137658453Y-68744236D02*
X137949633Y-68864847D01*
X138211694Y-69039951D01*
X138434549Y-69262806D01*
X138609653Y-69524867D01*
X138730264Y-69816047D01*
X138791750Y-70125162D01*
X138791750Y-70440338D01*
X138730264Y-70749453D01*
X138609653Y-71040633D01*
X138434549Y-71302694D01*
X138211694Y-71525549D01*
X137949633Y-71700653D01*
X137658453Y-71821264D01*
X137349338Y-71882750D01*
X137034162Y-71882750D01*
X136725047Y-71821264D01*
X136433867Y-71700653D01*
X136171806Y-71525549D01*
X135948951Y-71302694D01*
X135773847Y-71040633D01*
X135653236Y-70749453D01*
X135591750Y-70440338D01*
X135591750Y-70125162D01*
X135653236Y-69816047D01*
X135773847Y-69524867D01*
X135948951Y-69262806D01*
X136171806Y-69039951D01*
X136433867Y-68864847D01*
X136725047Y-68744236D01*
X137034162Y-68682750D01*
X137349338Y-68682750D01*
X137658453Y-68744236D01*
X137658453Y-68744236D01*
G37*
G36*
X118608453Y-68744236D02*
X118899633Y-68864847D01*
X119161694Y-69039951D01*
X119384549Y-69262806D01*
X119559653Y-69524867D01*
X119680264Y-69816047D01*
X119741750Y-70125162D01*
X119741750Y-70440338D01*
X119680264Y-70749453D01*
X119559653Y-71040633D01*
X119384549Y-71302694D01*
X119161694Y-71525549D01*
X118899633Y-71700653D01*
X118608453Y-71821264D01*
X118299338Y-71882750D01*
X117984162Y-71882750D01*
X117675047Y-71821264D01*
X117383867Y-71700653D01*
X117121806Y-71525549D01*
X116898951Y-71302694D01*
X116723847Y-71040633D01*
X116603236Y-70749453D01*
X116541750Y-70440338D01*
X116541750Y-70125162D01*
X116603236Y-69816047D01*
X116723847Y-69524867D01*
X116898951Y-69262806D01*
X117121806Y-69039951D01*
X117383867Y-68864847D01*
X117675047Y-68744236D01*
X117984162Y-68682750D01*
X118299338Y-68682750D01*
X118608453Y-68744236D01*
X118608453Y-68744236D01*
G37*
G36*
X173391750Y-71207750D02*
X171991750Y-71207750D01*
X171991750Y-70607750D01*
X173391750Y-70607750D01*
X173391750Y-71207750D01*
X173391750Y-71207750D01*
G37*
G36*
X159541750Y-71207750D02*
X158141750Y-71207750D01*
X158141750Y-70607750D01*
X159541750Y-70607750D01*
X159541750Y-71207750D01*
X159541750Y-71207750D01*
G37*
G36*
X135291750Y-71207750D02*
X133891750Y-71207750D01*
X133891750Y-70607750D01*
X135291750Y-70607750D01*
X135291750Y-71207750D01*
X135291750Y-71207750D01*
G37*
G36*
X116241750Y-71207750D02*
X114841750Y-71207750D01*
X114841750Y-70607750D01*
X116241750Y-70607750D01*
X116241750Y-71207750D01*
X116241750Y-71207750D01*
G37*
G36*
X154341750Y-71207750D02*
X152941750Y-71207750D01*
X152941750Y-70607750D01*
X154341750Y-70607750D01*
X154341750Y-71207750D01*
X154341750Y-71207750D01*
G37*
G36*
X178591750Y-71207750D02*
X177191750Y-71207750D01*
X177191750Y-70607750D01*
X178591750Y-70607750D01*
X178591750Y-71207750D01*
X178591750Y-71207750D01*
G37*
G36*
X140491750Y-71207750D02*
X139091750Y-71207750D01*
X139091750Y-70607750D01*
X140491750Y-70607750D01*
X140491750Y-71207750D01*
X140491750Y-71207750D01*
G37*
G36*
X121441750Y-71207750D02*
X120041750Y-71207750D01*
X120041750Y-70607750D01*
X121441750Y-70607750D01*
X121441750Y-71207750D01*
X121441750Y-71207750D01*
G37*
G36*
X116241750Y-69957750D02*
X114841750Y-69957750D01*
X114841750Y-69357750D01*
X116241750Y-69357750D01*
X116241750Y-69957750D01*
X116241750Y-69957750D01*
G37*
G36*
X121441750Y-69957750D02*
X120041750Y-69957750D01*
X120041750Y-69357750D01*
X121441750Y-69357750D01*
X121441750Y-69957750D01*
X121441750Y-69957750D01*
G37*
G36*
X178591750Y-69957750D02*
X177191750Y-69957750D01*
X177191750Y-69357750D01*
X178591750Y-69357750D01*
X178591750Y-69957750D01*
X178591750Y-69957750D01*
G37*
G36*
X140491750Y-69957750D02*
X139091750Y-69957750D01*
X139091750Y-69357750D01*
X140491750Y-69357750D01*
X140491750Y-69957750D01*
X140491750Y-69957750D01*
G37*
G36*
X159541750Y-69957750D02*
X158141750Y-69957750D01*
X158141750Y-69357750D01*
X159541750Y-69357750D01*
X159541750Y-69957750D01*
X159541750Y-69957750D01*
G37*
G36*
X173391750Y-69957750D02*
X171991750Y-69957750D01*
X171991750Y-69357750D01*
X173391750Y-69357750D01*
X173391750Y-69957750D01*
X173391750Y-69957750D01*
G37*
G36*
X154341750Y-69957750D02*
X152941750Y-69957750D01*
X152941750Y-69357750D01*
X154341750Y-69357750D01*
X154341750Y-69957750D01*
X154341750Y-69957750D01*
G37*
G36*
X135291750Y-69957750D02*
X133891750Y-69957750D01*
X133891750Y-69357750D01*
X135291750Y-69357750D01*
X135291750Y-69957750D01*
X135291750Y-69957750D01*
G37*
G36*
X118725128Y-63259609D02*
X119089104Y-63410372D01*
X119416679Y-63629251D01*
X119695249Y-63907821D01*
X119914128Y-64235396D01*
X120064891Y-64599372D01*
X120141750Y-64985766D01*
X120141750Y-65379734D01*
X120064891Y-65766128D01*
X119914128Y-66130104D01*
X119695249Y-66457679D01*
X119416679Y-66736249D01*
X119089104Y-66955128D01*
X118725128Y-67105891D01*
X118338734Y-67182750D01*
X117944766Y-67182750D01*
X117558372Y-67105891D01*
X117194396Y-66955128D01*
X116866821Y-66736249D01*
X116588251Y-66457679D01*
X116369372Y-66130104D01*
X116218609Y-65766128D01*
X116141750Y-65379734D01*
X116141750Y-64985766D01*
X116218609Y-64599372D01*
X116369372Y-64235396D01*
X116588251Y-63907821D01*
X116866821Y-63629251D01*
X117194396Y-63410372D01*
X117558372Y-63259609D01*
X117944766Y-63182750D01*
X118338734Y-63182750D01*
X118725128Y-63259609D01*
X118725128Y-63259609D01*
G37*
G36*
X175875128Y-63259609D02*
X176239104Y-63410372D01*
X176566679Y-63629251D01*
X176845249Y-63907821D01*
X177064128Y-64235396D01*
X177214891Y-64599372D01*
X177291750Y-64985766D01*
X177291750Y-65379734D01*
X177214891Y-65766128D01*
X177064128Y-66130104D01*
X176845249Y-66457679D01*
X176566679Y-66736249D01*
X176239104Y-66955128D01*
X175875128Y-67105891D01*
X175488734Y-67182750D01*
X175094766Y-67182750D01*
X174708372Y-67105891D01*
X174344396Y-66955128D01*
X174016821Y-66736249D01*
X173738251Y-66457679D01*
X173519372Y-66130104D01*
X173368609Y-65766128D01*
X173291750Y-65379734D01*
X173291750Y-64985766D01*
X173368609Y-64599372D01*
X173519372Y-64235396D01*
X173738251Y-63907821D01*
X174016821Y-63629251D01*
X174344396Y-63410372D01*
X174708372Y-63259609D01*
X175094766Y-63182750D01*
X175488734Y-63182750D01*
X175875128Y-63259609D01*
X175875128Y-63259609D01*
G37*
G36*
X137775128Y-63259609D02*
X138139104Y-63410372D01*
X138466679Y-63629251D01*
X138745249Y-63907821D01*
X138964128Y-64235396D01*
X139114891Y-64599372D01*
X139191750Y-64985766D01*
X139191750Y-65379734D01*
X139114891Y-65766128D01*
X138964128Y-66130104D01*
X138745249Y-66457679D01*
X138466679Y-66736249D01*
X138139104Y-66955128D01*
X137775128Y-67105891D01*
X137388734Y-67182750D01*
X136994766Y-67182750D01*
X136608372Y-67105891D01*
X136244396Y-66955128D01*
X135916821Y-66736249D01*
X135638251Y-66457679D01*
X135419372Y-66130104D01*
X135268609Y-65766128D01*
X135191750Y-65379734D01*
X135191750Y-64985766D01*
X135268609Y-64599372D01*
X135419372Y-64235396D01*
X135638251Y-63907821D01*
X135916821Y-63629251D01*
X136244396Y-63410372D01*
X136608372Y-63259609D01*
X136994766Y-63182750D01*
X137388734Y-63182750D01*
X137775128Y-63259609D01*
X137775128Y-63259609D01*
G37*
G36*
X156825128Y-63259609D02*
X157189104Y-63410372D01*
X157516679Y-63629251D01*
X157795249Y-63907821D01*
X158014128Y-64235396D01*
X158164891Y-64599372D01*
X158241750Y-64985766D01*
X158241750Y-65379734D01*
X158164891Y-65766128D01*
X158014128Y-66130104D01*
X157795249Y-66457679D01*
X157516679Y-66736249D01*
X157189104Y-66955128D01*
X156825128Y-67105891D01*
X156438734Y-67182750D01*
X156044766Y-67182750D01*
X155658372Y-67105891D01*
X155294396Y-66955128D01*
X154966821Y-66736249D01*
X154688251Y-66457679D01*
X154469372Y-66130104D01*
X154318609Y-65766128D01*
X154241750Y-65379734D01*
X154241750Y-64985766D01*
X154318609Y-64599372D01*
X154469372Y-64235396D01*
X154688251Y-63907821D01*
X154966821Y-63629251D01*
X155294396Y-63410372D01*
X155658372Y-63259609D01*
X156044766Y-63182750D01*
X156438734Y-63182750D01*
X156825128Y-63259609D01*
X156825128Y-63259609D01*
G37*
G36*
X152752607Y-61585022D02*
X152952792Y-61667941D01*
X153132963Y-61788328D01*
X153286172Y-61941537D01*
X153406559Y-62121708D01*
X153489478Y-62321893D01*
X153531750Y-62534408D01*
X153531750Y-62751092D01*
X153489478Y-62963607D01*
X153406559Y-63163792D01*
X153286172Y-63343963D01*
X153132963Y-63497172D01*
X152952792Y-63617559D01*
X152752607Y-63700478D01*
X152540092Y-63742750D01*
X152323408Y-63742750D01*
X152110893Y-63700478D01*
X151910708Y-63617559D01*
X151730537Y-63497172D01*
X151577328Y-63343963D01*
X151456941Y-63163792D01*
X151374022Y-62963607D01*
X151331750Y-62751092D01*
X151331750Y-62534408D01*
X151374022Y-62321893D01*
X151456941Y-62121708D01*
X151577328Y-61941537D01*
X151730537Y-61788328D01*
X151910708Y-61667941D01*
X152110893Y-61585022D01*
X152323408Y-61542750D01*
X152540092Y-61542750D01*
X152752607Y-61585022D01*
X152752607Y-61585022D01*
G37*
G36*
X133702607Y-61585022D02*
X133902792Y-61667941D01*
X134082963Y-61788328D01*
X134236172Y-61941537D01*
X134356559Y-62121708D01*
X134439478Y-62321893D01*
X134481750Y-62534408D01*
X134481750Y-62751092D01*
X134439478Y-62963607D01*
X134356559Y-63163792D01*
X134236172Y-63343963D01*
X134082963Y-63497172D01*
X133902792Y-63617559D01*
X133702607Y-63700478D01*
X133490092Y-63742750D01*
X133273408Y-63742750D01*
X133060893Y-63700478D01*
X132860708Y-63617559D01*
X132680537Y-63497172D01*
X132527328Y-63343963D01*
X132406941Y-63163792D01*
X132324022Y-62963607D01*
X132281750Y-62751092D01*
X132281750Y-62534408D01*
X132324022Y-62321893D01*
X132406941Y-62121708D01*
X132527328Y-61941537D01*
X132680537Y-61788328D01*
X132860708Y-61667941D01*
X133060893Y-61585022D01*
X133273408Y-61542750D01*
X133490092Y-61542750D01*
X133702607Y-61585022D01*
X133702607Y-61585022D01*
G37*
G36*
X171802607Y-61585022D02*
X172002792Y-61667941D01*
X172182963Y-61788328D01*
X172336172Y-61941537D01*
X172456559Y-62121708D01*
X172539478Y-62321893D01*
X172581750Y-62534408D01*
X172581750Y-62751092D01*
X172539478Y-62963607D01*
X172456559Y-63163792D01*
X172336172Y-63343963D01*
X172182963Y-63497172D01*
X172002792Y-63617559D01*
X171802607Y-63700478D01*
X171590092Y-63742750D01*
X171373408Y-63742750D01*
X171160893Y-63700478D01*
X170960708Y-63617559D01*
X170780537Y-63497172D01*
X170627328Y-63343963D01*
X170506941Y-63163792D01*
X170424022Y-62963607D01*
X170381750Y-62751092D01*
X170381750Y-62534408D01*
X170424022Y-62321893D01*
X170506941Y-62121708D01*
X170627328Y-61941537D01*
X170780537Y-61788328D01*
X170960708Y-61667941D01*
X171160893Y-61585022D01*
X171373408Y-61542750D01*
X171590092Y-61542750D01*
X171802607Y-61585022D01*
X171802607Y-61585022D01*
G37*
G36*
X114652607Y-61585022D02*
X114852792Y-61667941D01*
X115032963Y-61788328D01*
X115186172Y-61941537D01*
X115306559Y-62121708D01*
X115389478Y-62321893D01*
X115431750Y-62534408D01*
X115431750Y-62751092D01*
X115389478Y-62963607D01*
X115306559Y-63163792D01*
X115186172Y-63343963D01*
X115032963Y-63497172D01*
X114852792Y-63617559D01*
X114652607Y-63700478D01*
X114440092Y-63742750D01*
X114223408Y-63742750D01*
X114010893Y-63700478D01*
X113810708Y-63617559D01*
X113630537Y-63497172D01*
X113477328Y-63343963D01*
X113356941Y-63163792D01*
X113274022Y-62963607D01*
X113231750Y-62751092D01*
X113231750Y-62534408D01*
X113274022Y-62321893D01*
X113356941Y-62121708D01*
X113477328Y-61941537D01*
X113630537Y-61788328D01*
X113810708Y-61667941D01*
X114010893Y-61585022D01*
X114223408Y-61542750D01*
X114440092Y-61542750D01*
X114652607Y-61585022D01*
X114652607Y-61585022D01*
G37*
G36*
X178152607Y-59045022D02*
X178352792Y-59127941D01*
X178532963Y-59248328D01*
X178686172Y-59401537D01*
X178806559Y-59581708D01*
X178889478Y-59781893D01*
X178931750Y-59994408D01*
X178931750Y-60211092D01*
X178889478Y-60423607D01*
X178806559Y-60623792D01*
X178686172Y-60803963D01*
X178532963Y-60957172D01*
X178352792Y-61077559D01*
X178152607Y-61160478D01*
X177940092Y-61202750D01*
X177723408Y-61202750D01*
X177510893Y-61160478D01*
X177310708Y-61077559D01*
X177130537Y-60957172D01*
X176977328Y-60803963D01*
X176856941Y-60623792D01*
X176774022Y-60423607D01*
X176731750Y-60211092D01*
X176731750Y-59994408D01*
X176774022Y-59781893D01*
X176856941Y-59581708D01*
X176977328Y-59401537D01*
X177130537Y-59248328D01*
X177310708Y-59127941D01*
X177510893Y-59045022D01*
X177723408Y-59002750D01*
X177940092Y-59002750D01*
X178152607Y-59045022D01*
X178152607Y-59045022D01*
G37*
G36*
X140052607Y-59045022D02*
X140252792Y-59127941D01*
X140432963Y-59248328D01*
X140586172Y-59401537D01*
X140706559Y-59581708D01*
X140789478Y-59781893D01*
X140831750Y-59994408D01*
X140831750Y-60211092D01*
X140789478Y-60423607D01*
X140706559Y-60623792D01*
X140586172Y-60803963D01*
X140432963Y-60957172D01*
X140252792Y-61077559D01*
X140052607Y-61160478D01*
X139840092Y-61202750D01*
X139623408Y-61202750D01*
X139410893Y-61160478D01*
X139210708Y-61077559D01*
X139030537Y-60957172D01*
X138877328Y-60803963D01*
X138756941Y-60623792D01*
X138674022Y-60423607D01*
X138631750Y-60211092D01*
X138631750Y-59994408D01*
X138674022Y-59781893D01*
X138756941Y-59581708D01*
X138877328Y-59401537D01*
X139030537Y-59248328D01*
X139210708Y-59127941D01*
X139410893Y-59045022D01*
X139623408Y-59002750D01*
X139840092Y-59002750D01*
X140052607Y-59045022D01*
X140052607Y-59045022D01*
G37*
G36*
X159102607Y-59045022D02*
X159302792Y-59127941D01*
X159482963Y-59248328D01*
X159636172Y-59401537D01*
X159756559Y-59581708D01*
X159839478Y-59781893D01*
X159881750Y-59994408D01*
X159881750Y-60211092D01*
X159839478Y-60423607D01*
X159756559Y-60623792D01*
X159636172Y-60803963D01*
X159482963Y-60957172D01*
X159302792Y-61077559D01*
X159102607Y-61160478D01*
X158890092Y-61202750D01*
X158673408Y-61202750D01*
X158460893Y-61160478D01*
X158260708Y-61077559D01*
X158080537Y-60957172D01*
X157927328Y-60803963D01*
X157806941Y-60623792D01*
X157724022Y-60423607D01*
X157681750Y-60211092D01*
X157681750Y-59994408D01*
X157724022Y-59781893D01*
X157806941Y-59581708D01*
X157927328Y-59401537D01*
X158080537Y-59248328D01*
X158260708Y-59127941D01*
X158460893Y-59045022D01*
X158673408Y-59002750D01*
X158890092Y-59002750D01*
X159102607Y-59045022D01*
X159102607Y-59045022D01*
G37*
G36*
X121002607Y-59045022D02*
X121202792Y-59127941D01*
X121382963Y-59248328D01*
X121536172Y-59401537D01*
X121656559Y-59581708D01*
X121739478Y-59781893D01*
X121781750Y-59994408D01*
X121781750Y-60211092D01*
X121739478Y-60423607D01*
X121656559Y-60623792D01*
X121536172Y-60803963D01*
X121382963Y-60957172D01*
X121202792Y-61077559D01*
X121002607Y-61160478D01*
X120790092Y-61202750D01*
X120573408Y-61202750D01*
X120360893Y-61160478D01*
X120160708Y-61077559D01*
X119980537Y-60957172D01*
X119827328Y-60803963D01*
X119706941Y-60623792D01*
X119624022Y-60423607D01*
X119581750Y-60211092D01*
X119581750Y-59994408D01*
X119624022Y-59781893D01*
X119706941Y-59581708D01*
X119827328Y-59401537D01*
X119980537Y-59248328D01*
X120160708Y-59127941D01*
X120360893Y-59045022D01*
X120573408Y-59002750D01*
X120790092Y-59002750D01*
X121002607Y-59045022D01*
X121002607Y-59045022D01*
G37*
G36*
X147020857Y-53842272D02*
X147221042Y-53925191D01*
X147401213Y-54045578D01*
X147554422Y-54198787D01*
X147674809Y-54378958D01*
X147757728Y-54579143D01*
X147800000Y-54791658D01*
X147800000Y-55008342D01*
X147757728Y-55220857D01*
X147674809Y-55421042D01*
X147554422Y-55601213D01*
X147401213Y-55754422D01*
X147221042Y-55874809D01*
X147020857Y-55957728D01*
X146808342Y-56000000D01*
X146591658Y-56000000D01*
X146379143Y-55957728D01*
X146178958Y-55874809D01*
X145998787Y-55754422D01*
X145845578Y-55601213D01*
X145725191Y-55421042D01*
X145642272Y-55220857D01*
X145600000Y-55008342D01*
X145600000Y-54791658D01*
X145642272Y-54579143D01*
X145725191Y-54378958D01*
X145845578Y-54198787D01*
X145998787Y-54045578D01*
X146178958Y-53925191D01*
X146379143Y-53842272D01*
X146591658Y-53800000D01*
X146808342Y-53800000D01*
X147020857Y-53842272D01*
X147020857Y-53842272D01*
G37*
G36*
X166830000Y-51690000D02*
X165430000Y-51690000D01*
X165430000Y-50090000D01*
X166830000Y-50090000D01*
X166830000Y-51690000D01*
X166830000Y-51690000D01*
G37*
G36*
X171330000Y-51690000D02*
X169930000Y-51690000D01*
X169930000Y-50090000D01*
X171330000Y-50090000D01*
X171330000Y-51690000D01*
X171330000Y-51690000D01*
G37*
G36*
X141125000Y-49281357D02*
X141127402Y-49305743D01*
X141134515Y-49329192D01*
X141146066Y-49350803D01*
X141161612Y-49369745D01*
X141180554Y-49385291D01*
X141202165Y-49396842D01*
X141225614Y-49403955D01*
X141250000Y-49406357D01*
X141274386Y-49403955D01*
X141297835Y-49396842D01*
X141319446Y-49385291D01*
X141346624Y-49360659D01*
X141398026Y-49298026D01*
X141462740Y-49244916D01*
X141462742Y-49244915D01*
X141462743Y-49244914D01*
X141536573Y-49205451D01*
X141616684Y-49181149D01*
X141679122Y-49175000D01*
X141720878Y-49175000D01*
X141783316Y-49181149D01*
X141863427Y-49205451D01*
X141937257Y-49244914D01*
X141937258Y-49244915D01*
X141937260Y-49244916D01*
X142001974Y-49298026D01*
X142055084Y-49362740D01*
X142077114Y-49403955D01*
X142089759Y-49427614D01*
X142103373Y-49447989D01*
X142120700Y-49465316D01*
X142141075Y-49478930D01*
X142163714Y-49488307D01*
X142187747Y-49493088D01*
X142212251Y-49493088D01*
X142236285Y-49488308D01*
X142258924Y-49478931D01*
X142279299Y-49465317D01*
X142296626Y-49447990D01*
X142310241Y-49427614D01*
X142322887Y-49403955D01*
X142344916Y-49362740D01*
X142398026Y-49298026D01*
X142462740Y-49244916D01*
X142462742Y-49244915D01*
X142462743Y-49244914D01*
X142536573Y-49205451D01*
X142616684Y-49181149D01*
X142679122Y-49175000D01*
X142720878Y-49175000D01*
X142783316Y-49181149D01*
X142863427Y-49205451D01*
X142937257Y-49244914D01*
X142937258Y-49244915D01*
X142937260Y-49244916D01*
X143001974Y-49298026D01*
X143055084Y-49362740D01*
X143077114Y-49403955D01*
X143089759Y-49427614D01*
X143103373Y-49447989D01*
X143120700Y-49465316D01*
X143141075Y-49478930D01*
X143163714Y-49488307D01*
X143187747Y-49493088D01*
X143212251Y-49493088D01*
X143236285Y-49488308D01*
X143258924Y-49478931D01*
X143279299Y-49465317D01*
X143296626Y-49447990D01*
X143310241Y-49427614D01*
X143322887Y-49403955D01*
X143344916Y-49362740D01*
X143398026Y-49298026D01*
X143462740Y-49244916D01*
X143462742Y-49244915D01*
X143462743Y-49244914D01*
X143536573Y-49205451D01*
X143616684Y-49181149D01*
X143679122Y-49175000D01*
X143720878Y-49175000D01*
X143783316Y-49181149D01*
X143863427Y-49205451D01*
X143937257Y-49244914D01*
X143937258Y-49244915D01*
X143937260Y-49244916D01*
X144001974Y-49298026D01*
X144053375Y-49360657D01*
X144055086Y-49362743D01*
X144094549Y-49436573D01*
X144118851Y-49516684D01*
X144127056Y-49600000D01*
X144118851Y-49683316D01*
X144094549Y-49763427D01*
X144055086Y-49837257D01*
X144055084Y-49837260D01*
X144001974Y-49901974D01*
X143937260Y-49955084D01*
X143937258Y-49955085D01*
X143937257Y-49955086D01*
X143863427Y-49994549D01*
X143783316Y-50018851D01*
X143720878Y-50025000D01*
X143679122Y-50025000D01*
X143616684Y-50018851D01*
X143536573Y-49994549D01*
X143462743Y-49955086D01*
X143462742Y-49955085D01*
X143462740Y-49955084D01*
X143398026Y-49901974D01*
X143344916Y-49837260D01*
X143310239Y-49772383D01*
X143296627Y-49752011D01*
X143279300Y-49734684D01*
X143258925Y-49721070D01*
X143236286Y-49711693D01*
X143212253Y-49706912D01*
X143187749Y-49706912D01*
X143163715Y-49711692D01*
X143141076Y-49721069D01*
X143120701Y-49734683D01*
X143103374Y-49752010D01*
X143089761Y-49772383D01*
X143055084Y-49837260D01*
X143001974Y-49901974D01*
X142937260Y-49955084D01*
X142937258Y-49955085D01*
X142937257Y-49955086D01*
X142863427Y-49994549D01*
X142783316Y-50018851D01*
X142720878Y-50025000D01*
X142679122Y-50025000D01*
X142616684Y-50018851D01*
X142536573Y-49994549D01*
X142462743Y-49955086D01*
X142462742Y-49955085D01*
X142462740Y-49955084D01*
X142398026Y-49901974D01*
X142344916Y-49837260D01*
X142310239Y-49772383D01*
X142296627Y-49752011D01*
X142279300Y-49734684D01*
X142258925Y-49721070D01*
X142236286Y-49711693D01*
X142212253Y-49706912D01*
X142187749Y-49706912D01*
X142163715Y-49711692D01*
X142141076Y-49721069D01*
X142120701Y-49734683D01*
X142103374Y-49752010D01*
X142089761Y-49772383D01*
X142055084Y-49837260D01*
X142001974Y-49901974D01*
X141937260Y-49955084D01*
X141937258Y-49955085D01*
X141937257Y-49955086D01*
X141863427Y-49994549D01*
X141783316Y-50018851D01*
X141720878Y-50025000D01*
X141679122Y-50025000D01*
X141616684Y-50018851D01*
X141536573Y-49994549D01*
X141462743Y-49955086D01*
X141462742Y-49955085D01*
X141462740Y-49955084D01*
X141398026Y-49901974D01*
X141346623Y-49839340D01*
X141329299Y-49822016D01*
X141308924Y-49808403D01*
X141286285Y-49799025D01*
X141262252Y-49794245D01*
X141237747Y-49794245D01*
X141213714Y-49799026D01*
X141191075Y-49808403D01*
X141170700Y-49822017D01*
X141153373Y-49839344D01*
X141139760Y-49859719D01*
X141130382Y-49882358D01*
X141125000Y-49918643D01*
X141125000Y-50025000D01*
X140275000Y-50025000D01*
X140275000Y-49175000D01*
X141125000Y-49175000D01*
X141125000Y-49281357D01*
X141125000Y-49281357D01*
G37*
G36*
X140394799Y-43512489D02*
X140440543Y-43531437D01*
X140453941Y-43536986D01*
X140453942Y-43536987D01*
X140453945Y-43536988D01*
X140507176Y-43572556D01*
X140552444Y-43617824D01*
X140588012Y-43671055D01*
X140588013Y-43671058D01*
X140593094Y-43678662D01*
X140596069Y-43684228D01*
X140611615Y-43703169D01*
X140630557Y-43718714D01*
X140652168Y-43730264D01*
X140675618Y-43737377D01*
X140700004Y-43739778D01*
X140724390Y-43737375D01*
X140747839Y-43730261D01*
X140769450Y-43718709D01*
X140788391Y-43703163D01*
X140803936Y-43684221D01*
X140806911Y-43678655D01*
X140811986Y-43671059D01*
X140811988Y-43671055D01*
X140847556Y-43617824D01*
X140892824Y-43572556D01*
X140946055Y-43536988D01*
X140946058Y-43536987D01*
X140946059Y-43536986D01*
X140959457Y-43531437D01*
X141005201Y-43512489D01*
X141067990Y-43500000D01*
X141132010Y-43500000D01*
X141194799Y-43512489D01*
X141240543Y-43531437D01*
X141253941Y-43536986D01*
X141253942Y-43536987D01*
X141253945Y-43536988D01*
X141307176Y-43572556D01*
X141352444Y-43617824D01*
X141388012Y-43671055D01*
X141388013Y-43671058D01*
X141393094Y-43678662D01*
X141396069Y-43684228D01*
X141411615Y-43703169D01*
X141430557Y-43718714D01*
X141452168Y-43730264D01*
X141475618Y-43737377D01*
X141500004Y-43739778D01*
X141524390Y-43737375D01*
X141547839Y-43730261D01*
X141569450Y-43718709D01*
X141588391Y-43703163D01*
X141603936Y-43684221D01*
X141606911Y-43678655D01*
X141611986Y-43671059D01*
X141611988Y-43671055D01*
X141647556Y-43617824D01*
X141692824Y-43572556D01*
X141746055Y-43536988D01*
X141746058Y-43536987D01*
X141746059Y-43536986D01*
X141759457Y-43531437D01*
X141805201Y-43512489D01*
X141867990Y-43500000D01*
X141932010Y-43500000D01*
X141994799Y-43512489D01*
X142040543Y-43531437D01*
X142053941Y-43536986D01*
X142053942Y-43536987D01*
X142053945Y-43536988D01*
X142107176Y-43572556D01*
X142152444Y-43617824D01*
X142188012Y-43671055D01*
X142212511Y-43730201D01*
X142225000Y-43792990D01*
X142225000Y-43857010D01*
X142212511Y-43919799D01*
X142191161Y-43971343D01*
X142188013Y-43978943D01*
X142170232Y-44005554D01*
X142158681Y-44027165D01*
X142151568Y-44050614D01*
X142149166Y-44075000D01*
X142151568Y-44099386D01*
X142158681Y-44122836D01*
X142170232Y-44144446D01*
X142185778Y-44163388D01*
X142204720Y-44178934D01*
X142226331Y-44190485D01*
X142249780Y-44197598D01*
X142274166Y-44200000D01*
X142332010Y-44200000D01*
X142394799Y-44212489D01*
X142440543Y-44231437D01*
X142453941Y-44236986D01*
X142453942Y-44236987D01*
X142453945Y-44236988D01*
X142507176Y-44272556D01*
X142552444Y-44317824D01*
X142588012Y-44371055D01*
X142588013Y-44371058D01*
X142593094Y-44378662D01*
X142596069Y-44384228D01*
X142611615Y-44403169D01*
X142630557Y-44418714D01*
X142652168Y-44430264D01*
X142675618Y-44437377D01*
X142700004Y-44439778D01*
X142724390Y-44437375D01*
X142747839Y-44430261D01*
X142769450Y-44418709D01*
X142788391Y-44403163D01*
X142803936Y-44384221D01*
X142806911Y-44378655D01*
X142811986Y-44371059D01*
X142811988Y-44371055D01*
X142847556Y-44317824D01*
X142890380Y-44275000D01*
X143349166Y-44275000D01*
X143351568Y-44299386D01*
X143358681Y-44322835D01*
X143370232Y-44344446D01*
X143393091Y-44378657D01*
X143396069Y-44384228D01*
X143411615Y-44403169D01*
X143430557Y-44418714D01*
X143452168Y-44430264D01*
X143475618Y-44437377D01*
X143500004Y-44439778D01*
X143524390Y-44437375D01*
X143547839Y-44430261D01*
X143569450Y-44418709D01*
X143588391Y-44403163D01*
X143603936Y-44384221D01*
X143606913Y-44378650D01*
X143629768Y-44344446D01*
X143641319Y-44322835D01*
X143648432Y-44299386D01*
X143650834Y-44275000D01*
X144149166Y-44275000D01*
X144151568Y-44299386D01*
X144158681Y-44322835D01*
X144170232Y-44344446D01*
X144193091Y-44378657D01*
X144196069Y-44384228D01*
X144211615Y-44403169D01*
X144230557Y-44418714D01*
X144252168Y-44430264D01*
X144275618Y-44437377D01*
X144300004Y-44439778D01*
X144324390Y-44437375D01*
X144347839Y-44430261D01*
X144369450Y-44418709D01*
X144388391Y-44403163D01*
X144403936Y-44384221D01*
X144406913Y-44378650D01*
X144429768Y-44344446D01*
X144441319Y-44322835D01*
X144448432Y-44299386D01*
X144450834Y-44275000D01*
X144949166Y-44275000D01*
X144951568Y-44299386D01*
X144958681Y-44322835D01*
X144970232Y-44344446D01*
X144993091Y-44378657D01*
X144996069Y-44384228D01*
X145011615Y-44403169D01*
X145030557Y-44418714D01*
X145052168Y-44430264D01*
X145075618Y-44437377D01*
X145100004Y-44439778D01*
X145124390Y-44437375D01*
X145147839Y-44430261D01*
X145169450Y-44418709D01*
X145188391Y-44403163D01*
X145203936Y-44384221D01*
X145206913Y-44378650D01*
X145229768Y-44344446D01*
X145241319Y-44322835D01*
X145248432Y-44299386D01*
X145250834Y-44275000D01*
X145248432Y-44250614D01*
X145241319Y-44227164D01*
X145229768Y-44205554D01*
X145214222Y-44186612D01*
X145195280Y-44171066D01*
X145173669Y-44159515D01*
X145150220Y-44152402D01*
X145125834Y-44150000D01*
X145074166Y-44150000D01*
X145049780Y-44152402D01*
X145026331Y-44159515D01*
X145004720Y-44171066D01*
X144985778Y-44186612D01*
X144970232Y-44205554D01*
X144958681Y-44227165D01*
X144951568Y-44250614D01*
X144949166Y-44275000D01*
X144450834Y-44275000D01*
X144448432Y-44250614D01*
X144441319Y-44227164D01*
X144429768Y-44205554D01*
X144414222Y-44186612D01*
X144395280Y-44171066D01*
X144373669Y-44159515D01*
X144350220Y-44152402D01*
X144325834Y-44150000D01*
X144274166Y-44150000D01*
X144249780Y-44152402D01*
X144226331Y-44159515D01*
X144204720Y-44171066D01*
X144185778Y-44186612D01*
X144170232Y-44205554D01*
X144158681Y-44227165D01*
X144151568Y-44250614D01*
X144149166Y-44275000D01*
X143650834Y-44275000D01*
X143648432Y-44250614D01*
X143641319Y-44227164D01*
X143629768Y-44205554D01*
X143614222Y-44186612D01*
X143595280Y-44171066D01*
X143573669Y-44159515D01*
X143550220Y-44152402D01*
X143525834Y-44150000D01*
X143474166Y-44150000D01*
X143449780Y-44152402D01*
X143426331Y-44159515D01*
X143404720Y-44171066D01*
X143385778Y-44186612D01*
X143370232Y-44205554D01*
X143358681Y-44227165D01*
X143351568Y-44250614D01*
X143349166Y-44275000D01*
X142890380Y-44275000D01*
X142892824Y-44272556D01*
X142946055Y-44236988D01*
X142946058Y-44236987D01*
X142946059Y-44236986D01*
X142959457Y-44231437D01*
X143005201Y-44212489D01*
X143067990Y-44200000D01*
X143125834Y-44200000D01*
X143150220Y-44197598D01*
X143173669Y-44190485D01*
X143195280Y-44178934D01*
X143214222Y-44163388D01*
X143229768Y-44144446D01*
X143241319Y-44122835D01*
X143248432Y-44099386D01*
X143250834Y-44075000D01*
X143749166Y-44075000D01*
X143751568Y-44099386D01*
X143758681Y-44122836D01*
X143770232Y-44144446D01*
X143785778Y-44163388D01*
X143804720Y-44178934D01*
X143826331Y-44190485D01*
X143849780Y-44197598D01*
X143874166Y-44200000D01*
X143925834Y-44200000D01*
X143950220Y-44197598D01*
X143973669Y-44190485D01*
X143995280Y-44178934D01*
X144014222Y-44163388D01*
X144029768Y-44144446D01*
X144041319Y-44122835D01*
X144048432Y-44099386D01*
X144050834Y-44075000D01*
X144549166Y-44075000D01*
X144551568Y-44099386D01*
X144558681Y-44122836D01*
X144570232Y-44144446D01*
X144585778Y-44163388D01*
X144604720Y-44178934D01*
X144626331Y-44190485D01*
X144649780Y-44197598D01*
X144674166Y-44200000D01*
X144725834Y-44200000D01*
X144750220Y-44197598D01*
X144773669Y-44190485D01*
X144795280Y-44178934D01*
X144814222Y-44163388D01*
X144829768Y-44144446D01*
X144841319Y-44122835D01*
X144848432Y-44099386D01*
X144850834Y-44075000D01*
X144848432Y-44050614D01*
X144841319Y-44027165D01*
X144829768Y-44005554D01*
X144806909Y-43971343D01*
X144803931Y-43965772D01*
X144788385Y-43946831D01*
X144769443Y-43931286D01*
X144747832Y-43919736D01*
X144724382Y-43912623D01*
X144699996Y-43910222D01*
X144675610Y-43912625D01*
X144652161Y-43919739D01*
X144630550Y-43931291D01*
X144611609Y-43946837D01*
X144596064Y-43965779D01*
X144593087Y-43971350D01*
X144570232Y-44005554D01*
X144558681Y-44027165D01*
X144551568Y-44050614D01*
X144549166Y-44075000D01*
X144050834Y-44075000D01*
X144048432Y-44050614D01*
X144041319Y-44027165D01*
X144029768Y-44005554D01*
X144006909Y-43971343D01*
X144003931Y-43965772D01*
X143988385Y-43946831D01*
X143969443Y-43931286D01*
X143947832Y-43919736D01*
X143924382Y-43912623D01*
X143899996Y-43910222D01*
X143875610Y-43912625D01*
X143852161Y-43919739D01*
X143830550Y-43931291D01*
X143811609Y-43946837D01*
X143796064Y-43965779D01*
X143793087Y-43971350D01*
X143770232Y-44005554D01*
X143758681Y-44027165D01*
X143751568Y-44050614D01*
X143749166Y-44075000D01*
X143250834Y-44075000D01*
X143248432Y-44050614D01*
X143241319Y-44027165D01*
X143229768Y-44005554D01*
X143211987Y-43978943D01*
X143208839Y-43971343D01*
X143187489Y-43919799D01*
X143175000Y-43857010D01*
X143175000Y-43792990D01*
X143187489Y-43730201D01*
X143211988Y-43671055D01*
X143247556Y-43617824D01*
X143292824Y-43572556D01*
X143346055Y-43536988D01*
X143346058Y-43536987D01*
X143346059Y-43536986D01*
X143359457Y-43531437D01*
X143405201Y-43512489D01*
X143467990Y-43500000D01*
X143532010Y-43500000D01*
X143594799Y-43512489D01*
X143640543Y-43531437D01*
X143653941Y-43536986D01*
X143653942Y-43536987D01*
X143653945Y-43536988D01*
X143707176Y-43572556D01*
X143752444Y-43617824D01*
X143788012Y-43671055D01*
X143788013Y-43671058D01*
X143793094Y-43678662D01*
X143796069Y-43684228D01*
X143811615Y-43703169D01*
X143830557Y-43718714D01*
X143852168Y-43730264D01*
X143875618Y-43737377D01*
X143900004Y-43739778D01*
X143924390Y-43737375D01*
X143947839Y-43730261D01*
X143969450Y-43718709D01*
X143988391Y-43703163D01*
X144003936Y-43684221D01*
X144006911Y-43678655D01*
X144011986Y-43671059D01*
X144011988Y-43671055D01*
X144047556Y-43617824D01*
X144092824Y-43572556D01*
X144146055Y-43536988D01*
X144146058Y-43536987D01*
X144146059Y-43536986D01*
X144159457Y-43531437D01*
X144205201Y-43512489D01*
X144267990Y-43500000D01*
X144332010Y-43500000D01*
X144394799Y-43512489D01*
X144440543Y-43531437D01*
X144453941Y-43536986D01*
X144453942Y-43536987D01*
X144453945Y-43536988D01*
X144507176Y-43572556D01*
X144552444Y-43617824D01*
X144588012Y-43671055D01*
X144588013Y-43671058D01*
X144593094Y-43678662D01*
X144596069Y-43684228D01*
X144611615Y-43703169D01*
X144630557Y-43718714D01*
X144652168Y-43730264D01*
X144675618Y-43737377D01*
X144700004Y-43739778D01*
X144724390Y-43737375D01*
X144747839Y-43730261D01*
X144769450Y-43718709D01*
X144788391Y-43703163D01*
X144803936Y-43684221D01*
X144806911Y-43678655D01*
X144811986Y-43671059D01*
X144811988Y-43671055D01*
X144847556Y-43617824D01*
X144892824Y-43572556D01*
X144946055Y-43536988D01*
X144946058Y-43536987D01*
X144946059Y-43536986D01*
X144959457Y-43531437D01*
X145005201Y-43512489D01*
X145067990Y-43500000D01*
X145132010Y-43500000D01*
X145194799Y-43512489D01*
X145240543Y-43531437D01*
X145253941Y-43536986D01*
X145253942Y-43536987D01*
X145253945Y-43536988D01*
X145307176Y-43572556D01*
X145352444Y-43617824D01*
X145388012Y-43671055D01*
X145412511Y-43730201D01*
X145425000Y-43792990D01*
X145425000Y-43857010D01*
X145412511Y-43919799D01*
X145391161Y-43971343D01*
X145388013Y-43978943D01*
X145370232Y-44005554D01*
X145358681Y-44027165D01*
X145351568Y-44050614D01*
X145349166Y-44075000D01*
X145351568Y-44099386D01*
X145358681Y-44122836D01*
X145370232Y-44144446D01*
X145385778Y-44163388D01*
X145404720Y-44178934D01*
X145426331Y-44190485D01*
X145449780Y-44197598D01*
X145474166Y-44200000D01*
X145532010Y-44200000D01*
X145594799Y-44212489D01*
X145640543Y-44231437D01*
X145653941Y-44236986D01*
X145653942Y-44236987D01*
X145653945Y-44236988D01*
X145707176Y-44272556D01*
X145752444Y-44317824D01*
X145788012Y-44371055D01*
X145812511Y-44430201D01*
X145825000Y-44492990D01*
X145825000Y-44557010D01*
X145812511Y-44619799D01*
X145788012Y-44678945D01*
X145752444Y-44732176D01*
X145707176Y-44777444D01*
X145653945Y-44813012D01*
X145653942Y-44813013D01*
X145653941Y-44813014D01*
X145640543Y-44818563D01*
X145594799Y-44837511D01*
X145532010Y-44850000D01*
X145467990Y-44850000D01*
X145405201Y-44837511D01*
X145359457Y-44818563D01*
X145346059Y-44813014D01*
X145346058Y-44813013D01*
X145346055Y-44813012D01*
X145292824Y-44777444D01*
X145247556Y-44732176D01*
X145211988Y-44678945D01*
X145211986Y-44678941D01*
X145206906Y-44671338D01*
X145203931Y-44665772D01*
X145188385Y-44646831D01*
X145169443Y-44631286D01*
X145147832Y-44619736D01*
X145124382Y-44612623D01*
X145099996Y-44610222D01*
X145075610Y-44612625D01*
X145052161Y-44619739D01*
X145030550Y-44631291D01*
X145011609Y-44646837D01*
X144996064Y-44665779D01*
X144993089Y-44671345D01*
X144988014Y-44678940D01*
X144988012Y-44678945D01*
X144952444Y-44732176D01*
X144907176Y-44777444D01*
X144853945Y-44813012D01*
X144853942Y-44813013D01*
X144853941Y-44813014D01*
X144840543Y-44818563D01*
X144794799Y-44837511D01*
X144732010Y-44850000D01*
X144667990Y-44850000D01*
X144605201Y-44837511D01*
X144559457Y-44818563D01*
X144546059Y-44813014D01*
X144546058Y-44813013D01*
X144546055Y-44813012D01*
X144492824Y-44777444D01*
X144447556Y-44732176D01*
X144411988Y-44678945D01*
X144411986Y-44678941D01*
X144406906Y-44671338D01*
X144403931Y-44665772D01*
X144388385Y-44646831D01*
X144369443Y-44631286D01*
X144347832Y-44619736D01*
X144324382Y-44612623D01*
X144299996Y-44610222D01*
X144275610Y-44612625D01*
X144252161Y-44619739D01*
X144230550Y-44631291D01*
X144211609Y-44646837D01*
X144196064Y-44665779D01*
X144193089Y-44671345D01*
X144188014Y-44678940D01*
X144188012Y-44678945D01*
X144152444Y-44732176D01*
X144107176Y-44777444D01*
X144053945Y-44813012D01*
X144053942Y-44813013D01*
X144053941Y-44813014D01*
X144040543Y-44818563D01*
X143994799Y-44837511D01*
X143932010Y-44850000D01*
X143867990Y-44850000D01*
X143805201Y-44837511D01*
X143759457Y-44818563D01*
X143746059Y-44813014D01*
X143746058Y-44813013D01*
X143746055Y-44813012D01*
X143692824Y-44777444D01*
X143647556Y-44732176D01*
X143611988Y-44678945D01*
X143611986Y-44678941D01*
X143606906Y-44671338D01*
X143603931Y-44665772D01*
X143588385Y-44646831D01*
X143569443Y-44631286D01*
X143547832Y-44619736D01*
X143524382Y-44612623D01*
X143499996Y-44610222D01*
X143475610Y-44612625D01*
X143452161Y-44619739D01*
X143430550Y-44631291D01*
X143411609Y-44646837D01*
X143396064Y-44665779D01*
X143393089Y-44671345D01*
X143388014Y-44678940D01*
X143388012Y-44678945D01*
X143352444Y-44732176D01*
X143307176Y-44777444D01*
X143253945Y-44813012D01*
X143253942Y-44813013D01*
X143253941Y-44813014D01*
X143240543Y-44818563D01*
X143194799Y-44837511D01*
X143132010Y-44850000D01*
X143067990Y-44850000D01*
X143005201Y-44837511D01*
X142959457Y-44818563D01*
X142946059Y-44813014D01*
X142946058Y-44813013D01*
X142946055Y-44813012D01*
X142892824Y-44777444D01*
X142847556Y-44732176D01*
X142811988Y-44678945D01*
X142811986Y-44678941D01*
X142806906Y-44671338D01*
X142803931Y-44665772D01*
X142788385Y-44646831D01*
X142769443Y-44631286D01*
X142747832Y-44619736D01*
X142724382Y-44612623D01*
X142699996Y-44610222D01*
X142675610Y-44612625D01*
X142652161Y-44619739D01*
X142630550Y-44631291D01*
X142611609Y-44646837D01*
X142596064Y-44665779D01*
X142593089Y-44671345D01*
X142588014Y-44678940D01*
X142588012Y-44678945D01*
X142552444Y-44732176D01*
X142507176Y-44777444D01*
X142453945Y-44813012D01*
X142453942Y-44813013D01*
X142453941Y-44813014D01*
X142440543Y-44818563D01*
X142394799Y-44837511D01*
X142332010Y-44850000D01*
X142267990Y-44850000D01*
X142205201Y-44837511D01*
X142159457Y-44818563D01*
X142146059Y-44813014D01*
X142146058Y-44813013D01*
X142146055Y-44813012D01*
X142092824Y-44777444D01*
X142047556Y-44732176D01*
X142011988Y-44678945D01*
X142011986Y-44678941D01*
X142006906Y-44671338D01*
X142003931Y-44665772D01*
X141988385Y-44646831D01*
X141969443Y-44631286D01*
X141947832Y-44619736D01*
X141924382Y-44612623D01*
X141899996Y-44610222D01*
X141875610Y-44612625D01*
X141852161Y-44619739D01*
X141830550Y-44631291D01*
X141811609Y-44646837D01*
X141796064Y-44665779D01*
X141793089Y-44671345D01*
X141788014Y-44678940D01*
X141788012Y-44678945D01*
X141752444Y-44732176D01*
X141707176Y-44777444D01*
X141653945Y-44813012D01*
X141653942Y-44813013D01*
X141653941Y-44813014D01*
X141640543Y-44818563D01*
X141594799Y-44837511D01*
X141532010Y-44850000D01*
X141467990Y-44850000D01*
X141405201Y-44837511D01*
X141359457Y-44818563D01*
X141346059Y-44813014D01*
X141346058Y-44813013D01*
X141346055Y-44813012D01*
X141292824Y-44777444D01*
X141247556Y-44732176D01*
X141211988Y-44678945D01*
X141211986Y-44678941D01*
X141206906Y-44671338D01*
X141203931Y-44665772D01*
X141188385Y-44646831D01*
X141169443Y-44631286D01*
X141147832Y-44619736D01*
X141124382Y-44612623D01*
X141099996Y-44610222D01*
X141075610Y-44612625D01*
X141052161Y-44619739D01*
X141030550Y-44631291D01*
X141011609Y-44646837D01*
X140996064Y-44665779D01*
X140993089Y-44671345D01*
X140988014Y-44678940D01*
X140988012Y-44678945D01*
X140952444Y-44732176D01*
X140907176Y-44777444D01*
X140853945Y-44813012D01*
X140853942Y-44813013D01*
X140853941Y-44813014D01*
X140840543Y-44818563D01*
X140794799Y-44837511D01*
X140732010Y-44850000D01*
X140667990Y-44850000D01*
X140605201Y-44837511D01*
X140559457Y-44818563D01*
X140546059Y-44813014D01*
X140546058Y-44813013D01*
X140546055Y-44813012D01*
X140492824Y-44777444D01*
X140447556Y-44732176D01*
X140411988Y-44678945D01*
X140411986Y-44678941D01*
X140406906Y-44671338D01*
X140403931Y-44665772D01*
X140388385Y-44646831D01*
X140369443Y-44631286D01*
X140347832Y-44619736D01*
X140324382Y-44612623D01*
X140299996Y-44610222D01*
X140275610Y-44612625D01*
X140252161Y-44619739D01*
X140230550Y-44631291D01*
X140211609Y-44646837D01*
X140196064Y-44665779D01*
X140193089Y-44671345D01*
X140188014Y-44678940D01*
X140188012Y-44678945D01*
X140152444Y-44732176D01*
X140107176Y-44777444D01*
X140053945Y-44813012D01*
X140053942Y-44813013D01*
X140053941Y-44813014D01*
X140040543Y-44818563D01*
X139994799Y-44837511D01*
X139932010Y-44850000D01*
X139867990Y-44850000D01*
X139805201Y-44837511D01*
X139759457Y-44818563D01*
X139746059Y-44813014D01*
X139746058Y-44813013D01*
X139746055Y-44813012D01*
X139692824Y-44777444D01*
X139647556Y-44732176D01*
X139611988Y-44678945D01*
X139587489Y-44619799D01*
X139575000Y-44557010D01*
X139575000Y-44492990D01*
X139587489Y-44430201D01*
X139611988Y-44371055D01*
X139647556Y-44317824D01*
X139690380Y-44275000D01*
X140149166Y-44275000D01*
X140151568Y-44299386D01*
X140158681Y-44322835D01*
X140170232Y-44344446D01*
X140193091Y-44378657D01*
X140196069Y-44384228D01*
X140211615Y-44403169D01*
X140230557Y-44418714D01*
X140252168Y-44430264D01*
X140275618Y-44437377D01*
X140300004Y-44439778D01*
X140324390Y-44437375D01*
X140347839Y-44430261D01*
X140369450Y-44418709D01*
X140388391Y-44403163D01*
X140403936Y-44384221D01*
X140406913Y-44378650D01*
X140429768Y-44344446D01*
X140441319Y-44322835D01*
X140448432Y-44299386D01*
X140450834Y-44275000D01*
X140949166Y-44275000D01*
X140951568Y-44299386D01*
X140958681Y-44322835D01*
X140970232Y-44344446D01*
X140993091Y-44378657D01*
X140996069Y-44384228D01*
X141011615Y-44403169D01*
X141030557Y-44418714D01*
X141052168Y-44430264D01*
X141075618Y-44437377D01*
X141100004Y-44439778D01*
X141124390Y-44437375D01*
X141147839Y-44430261D01*
X141169450Y-44418709D01*
X141188391Y-44403163D01*
X141203936Y-44384221D01*
X141206913Y-44378650D01*
X141229768Y-44344446D01*
X141241319Y-44322835D01*
X141248432Y-44299386D01*
X141250834Y-44275000D01*
X141749166Y-44275000D01*
X141751568Y-44299386D01*
X141758681Y-44322835D01*
X141770232Y-44344446D01*
X141793091Y-44378657D01*
X141796069Y-44384228D01*
X141811615Y-44403169D01*
X141830557Y-44418714D01*
X141852168Y-44430264D01*
X141875618Y-44437377D01*
X141900004Y-44439778D01*
X141924390Y-44437375D01*
X141947839Y-44430261D01*
X141969450Y-44418709D01*
X141988391Y-44403163D01*
X142003936Y-44384221D01*
X142006913Y-44378650D01*
X142029768Y-44344446D01*
X142041319Y-44322835D01*
X142048432Y-44299386D01*
X142050834Y-44275000D01*
X142048432Y-44250614D01*
X142041319Y-44227164D01*
X142029768Y-44205554D01*
X142014222Y-44186612D01*
X141995280Y-44171066D01*
X141973669Y-44159515D01*
X141950220Y-44152402D01*
X141925834Y-44150000D01*
X141874166Y-44150000D01*
X141849780Y-44152402D01*
X141826331Y-44159515D01*
X141804720Y-44171066D01*
X141785778Y-44186612D01*
X141770232Y-44205554D01*
X141758681Y-44227165D01*
X141751568Y-44250614D01*
X141749166Y-44275000D01*
X141250834Y-44275000D01*
X141248432Y-44250614D01*
X141241319Y-44227164D01*
X141229768Y-44205554D01*
X141214222Y-44186612D01*
X141195280Y-44171066D01*
X141173669Y-44159515D01*
X141150220Y-44152402D01*
X141125834Y-44150000D01*
X141074166Y-44150000D01*
X141049780Y-44152402D01*
X141026331Y-44159515D01*
X141004720Y-44171066D01*
X140985778Y-44186612D01*
X140970232Y-44205554D01*
X140958681Y-44227165D01*
X140951568Y-44250614D01*
X140949166Y-44275000D01*
X140450834Y-44275000D01*
X140448432Y-44250614D01*
X140441319Y-44227164D01*
X140429768Y-44205554D01*
X140414222Y-44186612D01*
X140395280Y-44171066D01*
X140373669Y-44159515D01*
X140350220Y-44152402D01*
X140325834Y-44150000D01*
X140274166Y-44150000D01*
X140249780Y-44152402D01*
X140226331Y-44159515D01*
X140204720Y-44171066D01*
X140185778Y-44186612D01*
X140170232Y-44205554D01*
X140158681Y-44227165D01*
X140151568Y-44250614D01*
X140149166Y-44275000D01*
X139690380Y-44275000D01*
X139692824Y-44272556D01*
X139746055Y-44236988D01*
X139746058Y-44236987D01*
X139746059Y-44236986D01*
X139759457Y-44231437D01*
X139805201Y-44212489D01*
X139867990Y-44200000D01*
X139925834Y-44200000D01*
X139950220Y-44197598D01*
X139973669Y-44190485D01*
X139995280Y-44178934D01*
X140014222Y-44163388D01*
X140029768Y-44144446D01*
X140041319Y-44122835D01*
X140048432Y-44099386D01*
X140050834Y-44075000D01*
X140549166Y-44075000D01*
X140551568Y-44099386D01*
X140558681Y-44122836D01*
X140570232Y-44144446D01*
X140585778Y-44163388D01*
X140604720Y-44178934D01*
X140626331Y-44190485D01*
X140649780Y-44197598D01*
X140674166Y-44200000D01*
X140725834Y-44200000D01*
X140750220Y-44197598D01*
X140773669Y-44190485D01*
X140795280Y-44178934D01*
X140814222Y-44163388D01*
X140829768Y-44144446D01*
X140841319Y-44122835D01*
X140848432Y-44099386D01*
X140850834Y-44075000D01*
X141349166Y-44075000D01*
X141351568Y-44099386D01*
X141358681Y-44122836D01*
X141370232Y-44144446D01*
X141385778Y-44163388D01*
X141404720Y-44178934D01*
X141426331Y-44190485D01*
X141449780Y-44197598D01*
X141474166Y-44200000D01*
X141525834Y-44200000D01*
X141550220Y-44197598D01*
X141573669Y-44190485D01*
X141595280Y-44178934D01*
X141614222Y-44163388D01*
X141629768Y-44144446D01*
X141641319Y-44122835D01*
X141648432Y-44099386D01*
X141650834Y-44075000D01*
X141648432Y-44050614D01*
X141641319Y-44027165D01*
X141629768Y-44005554D01*
X141606909Y-43971343D01*
X141603931Y-43965772D01*
X141588385Y-43946831D01*
X141569443Y-43931286D01*
X141547832Y-43919736D01*
X141524382Y-43912623D01*
X141499996Y-43910222D01*
X141475610Y-43912625D01*
X141452161Y-43919739D01*
X141430550Y-43931291D01*
X141411609Y-43946837D01*
X141396064Y-43965779D01*
X141393087Y-43971350D01*
X141370232Y-44005554D01*
X141358681Y-44027165D01*
X141351568Y-44050614D01*
X141349166Y-44075000D01*
X140850834Y-44075000D01*
X140848432Y-44050614D01*
X140841319Y-44027165D01*
X140829768Y-44005554D01*
X140806909Y-43971343D01*
X140803931Y-43965772D01*
X140788385Y-43946831D01*
X140769443Y-43931286D01*
X140747832Y-43919736D01*
X140724382Y-43912623D01*
X140699996Y-43910222D01*
X140675610Y-43912625D01*
X140652161Y-43919739D01*
X140630550Y-43931291D01*
X140611609Y-43946837D01*
X140596064Y-43965779D01*
X140593087Y-43971350D01*
X140570232Y-44005554D01*
X140558681Y-44027165D01*
X140551568Y-44050614D01*
X140549166Y-44075000D01*
X140050834Y-44075000D01*
X140048432Y-44050614D01*
X140041319Y-44027165D01*
X140029768Y-44005554D01*
X140011987Y-43978943D01*
X140008839Y-43971343D01*
X139987489Y-43919799D01*
X139975000Y-43857010D01*
X139975000Y-43792990D01*
X139987489Y-43730201D01*
X140011988Y-43671055D01*
X140047556Y-43617824D01*
X140092824Y-43572556D01*
X140146055Y-43536988D01*
X140146058Y-43536987D01*
X140146059Y-43536986D01*
X140159457Y-43531437D01*
X140205201Y-43512489D01*
X140267990Y-43500000D01*
X140332010Y-43500000D01*
X140394799Y-43512489D01*
X140394799Y-43512489D01*
G37*
G36*
X138528015Y-42582234D02*
X138622268Y-42610825D01*
X138668697Y-42635643D01*
X138709129Y-42657254D01*
X138785264Y-42719736D01*
X138847744Y-42795868D01*
X138847745Y-42795870D01*
X138894175Y-42882732D01*
X138922766Y-42976985D01*
X138930000Y-43050436D01*
X138930000Y-43699564D01*
X138922766Y-43773015D01*
X138894175Y-43867268D01*
X138869357Y-43913697D01*
X138847748Y-43954126D01*
X138847745Y-43954130D01*
X138785267Y-44030261D01*
X138785265Y-44030262D01*
X138785264Y-44030264D01*
X138709129Y-44092746D01*
X138696706Y-44099386D01*
X138622267Y-44139175D01*
X138528014Y-44167766D01*
X138430000Y-44177419D01*
X138331985Y-44167766D01*
X138237732Y-44139175D01*
X138188786Y-44113012D01*
X138150871Y-44092746D01*
X138129247Y-44075000D01*
X138074739Y-44030267D01*
X138074738Y-44030265D01*
X138074736Y-44030264D01*
X138012254Y-43954129D01*
X137965826Y-43867268D01*
X137965825Y-43867267D01*
X137937234Y-43773014D01*
X137930000Y-43699563D01*
X137930000Y-43050436D01*
X137937234Y-42976985D01*
X137965824Y-42882735D01*
X138012257Y-42795868D01*
X138074737Y-42719736D01*
X138150871Y-42657255D01*
X138150870Y-42657255D01*
X138150872Y-42657254D01*
X138191304Y-42635643D01*
X138237733Y-42610825D01*
X138331986Y-42582234D01*
X138430000Y-42572581D01*
X138528015Y-42582234D01*
X138528015Y-42582234D01*
G37*
G36*
X147068015Y-42582234D02*
X147162268Y-42610825D01*
X147208697Y-42635643D01*
X147249129Y-42657254D01*
X147325264Y-42719736D01*
X147387744Y-42795868D01*
X147387745Y-42795870D01*
X147434175Y-42882732D01*
X147462766Y-42976985D01*
X147470000Y-43050436D01*
X147470000Y-43699564D01*
X147462766Y-43773015D01*
X147434175Y-43867268D01*
X147409357Y-43913697D01*
X147387748Y-43954126D01*
X147387745Y-43954130D01*
X147325267Y-44030261D01*
X147325265Y-44030262D01*
X147325264Y-44030264D01*
X147249129Y-44092746D01*
X147236706Y-44099386D01*
X147162267Y-44139175D01*
X147068014Y-44167766D01*
X146970000Y-44177419D01*
X146871985Y-44167766D01*
X146777732Y-44139175D01*
X146728786Y-44113012D01*
X146690871Y-44092746D01*
X146669247Y-44075000D01*
X146614739Y-44030267D01*
X146614738Y-44030265D01*
X146614736Y-44030264D01*
X146552254Y-43954129D01*
X146505826Y-43867268D01*
X146505825Y-43867267D01*
X146477234Y-43773014D01*
X146470000Y-43699563D01*
X146470000Y-43050436D01*
X146477234Y-42976985D01*
X146505824Y-42882735D01*
X146552257Y-42795868D01*
X146614737Y-42719736D01*
X146690871Y-42657255D01*
X146690870Y-42657255D01*
X146690872Y-42657254D01*
X146731304Y-42635643D01*
X146777733Y-42610825D01*
X146871986Y-42582234D01*
X146970000Y-42572581D01*
X147068015Y-42582234D01*
X147068015Y-42582234D01*
G37*
G36*
X166830000Y-43690000D02*
X165430000Y-43690000D01*
X165430000Y-42090000D01*
X166830000Y-42090000D01*
X166830000Y-43690000D01*
X166830000Y-43690000D01*
G37*
G36*
X171330000Y-43690000D02*
X169930000Y-43690000D01*
X169930000Y-42090000D01*
X171330000Y-42090000D01*
X171330000Y-43690000D01*
X171330000Y-43690000D01*
G37*
G36*
X182050000Y-41600000D02*
X180450000Y-41600000D01*
X180450000Y-40750000D01*
X182050000Y-40750000D01*
X182050000Y-41600000D01*
X182050000Y-41600000D01*
G37*
G36*
X178550000Y-41600000D02*
X176950000Y-41600000D01*
X176950000Y-40750000D01*
X178550000Y-40750000D01*
X178550000Y-41600000D01*
X178550000Y-41600000D01*
G37*
G36*
X113650000Y-41450000D02*
X112050000Y-41450000D01*
X112050000Y-40600000D01*
X113650000Y-40600000D01*
X113650000Y-41450000D01*
X113650000Y-41450000D01*
G37*
G36*
X117150000Y-41450000D02*
X115550000Y-41450000D01*
X115550000Y-40600000D01*
X117150000Y-40600000D01*
X117150000Y-41450000D01*
X117150000Y-41450000D01*
G37*
G36*
X178550000Y-39850000D02*
X176950000Y-39850000D01*
X176950000Y-39000000D01*
X178550000Y-39000000D01*
X178550000Y-39850000D01*
X178550000Y-39850000D01*
G37*
G36*
X182050000Y-39850000D02*
X180450000Y-39850000D01*
X180450000Y-39000000D01*
X182050000Y-39000000D01*
X182050000Y-39850000D01*
X182050000Y-39850000D01*
G37*
G36*
X113650000Y-39700000D02*
X112050000Y-39700000D01*
X112050000Y-38850000D01*
X113650000Y-38850000D01*
X113650000Y-39700000D01*
X113650000Y-39700000D01*
G37*
G36*
X117150000Y-39700000D02*
X115550000Y-39700000D01*
X115550000Y-38850000D01*
X117150000Y-38850000D01*
X117150000Y-39700000D01*
X117150000Y-39700000D01*
G37*
G36*
X138528015Y-37852234D02*
X138622268Y-37880825D01*
X138668697Y-37905643D01*
X138709129Y-37927254D01*
X138785264Y-37989736D01*
X138847744Y-38065868D01*
X138847745Y-38065870D01*
X138894175Y-38152732D01*
X138922766Y-38246985D01*
X138930000Y-38320436D01*
X138930000Y-38969564D01*
X138922766Y-39043015D01*
X138894175Y-39137268D01*
X138869357Y-39183697D01*
X138847748Y-39224126D01*
X138847745Y-39224130D01*
X138785267Y-39300261D01*
X138785265Y-39300262D01*
X138785264Y-39300264D01*
X138709129Y-39362746D01*
X138663063Y-39387369D01*
X138622267Y-39409175D01*
X138528014Y-39437766D01*
X138430000Y-39447419D01*
X138331985Y-39437766D01*
X138237732Y-39409175D01*
X138191303Y-39384357D01*
X138150871Y-39362746D01*
X138131837Y-39347126D01*
X138074739Y-39300267D01*
X138074738Y-39300265D01*
X138074736Y-39300264D01*
X138012254Y-39224129D01*
X137965826Y-39137268D01*
X137965825Y-39137267D01*
X137937234Y-39043014D01*
X137930000Y-38969563D01*
X137930000Y-38320436D01*
X137937234Y-38246985D01*
X137965824Y-38152735D01*
X138012257Y-38065868D01*
X138074737Y-37989736D01*
X138150871Y-37927255D01*
X138150870Y-37927255D01*
X138150872Y-37927254D01*
X138191304Y-37905643D01*
X138237733Y-37880825D01*
X138331986Y-37852234D01*
X138430000Y-37842581D01*
X138528015Y-37852234D01*
X138528015Y-37852234D01*
G37*
G36*
X147068015Y-37852234D02*
X147162268Y-37880825D01*
X147208697Y-37905643D01*
X147249129Y-37927254D01*
X147325264Y-37989736D01*
X147387744Y-38065868D01*
X147387745Y-38065870D01*
X147434175Y-38152732D01*
X147462766Y-38246985D01*
X147470000Y-38320436D01*
X147470000Y-38969564D01*
X147462766Y-39043015D01*
X147434175Y-39137268D01*
X147409357Y-39183697D01*
X147387748Y-39224126D01*
X147387745Y-39224130D01*
X147325267Y-39300261D01*
X147325265Y-39300262D01*
X147325264Y-39300264D01*
X147249129Y-39362746D01*
X147203063Y-39387369D01*
X147162267Y-39409175D01*
X147068014Y-39437766D01*
X146970000Y-39447419D01*
X146871985Y-39437766D01*
X146777732Y-39409175D01*
X146731303Y-39384357D01*
X146690871Y-39362746D01*
X146671837Y-39347126D01*
X146614739Y-39300267D01*
X146614738Y-39300265D01*
X146614736Y-39300264D01*
X146552254Y-39224129D01*
X146505826Y-39137268D01*
X146505825Y-39137267D01*
X146477234Y-39043014D01*
X146470000Y-38969563D01*
X146470000Y-38320436D01*
X146477234Y-38246985D01*
X146505824Y-38152735D01*
X146552257Y-38065868D01*
X146614737Y-37989736D01*
X146690871Y-37927255D01*
X146690870Y-37927255D01*
X146690872Y-37927254D01*
X146731304Y-37905643D01*
X146777733Y-37880825D01*
X146871986Y-37852234D01*
X146970000Y-37842581D01*
X147068015Y-37852234D01*
X147068015Y-37852234D01*
G37*
M02*
