G04 #@! TF.GenerationSoftware,KiCad,Pcbnew,5.0.1*
G04 #@! TF.CreationDate,2019-03-02T19:37:36+01:00*
G04 #@! TF.ProjectId,keypad,6B65797061642E6B696361645F706362,rev?*
G04 #@! TF.SameCoordinates,Original*
G04 #@! TF.FileFunction,Paste,Bot*
G04 #@! TF.FilePolarity,Positive*
%FSLAX46Y46*%
G04 Gerber Fmt 4.6, Leading zero omitted, Abs format (unit mm)*
G04 Created by KiCad (PCBNEW 5.0.1) date Sat 02 Mar 2019 07:37:36 PM CET*
%MOMM*%
%LPD*%
G01*
G04 APERTURE LIST*
%ADD10R,1.200000X0.800000*%
%ADD11C,0.100000*%
%ADD12C,1.150000*%
%ADD13R,1.600000X0.850000*%
%ADD14R,0.850000X1.600000*%
%ADD15R,0.900000X0.800000*%
%ADD16R,1.700000X0.900000*%
G04 APERTURE END LIST*
D10*
G04 #@! TO.C,D2*
X120675000Y-73750000D03*
X123275000Y-74700000D03*
X120675000Y-75650000D03*
G04 #@! TD*
G04 #@! TO.C,D3*
X120675000Y-111850000D03*
X123275000Y-112800000D03*
X120675000Y-113750000D03*
G04 #@! TD*
G04 #@! TO.C,D5*
X139725000Y-73750000D03*
X142325000Y-74700000D03*
X139725000Y-75650000D03*
G04 #@! TD*
G04 #@! TO.C,D6*
X139725000Y-111850000D03*
X142325000Y-112800000D03*
X139725000Y-113750000D03*
G04 #@! TD*
G04 #@! TO.C,D8*
X158775000Y-75650000D03*
X161375000Y-74700000D03*
X158775000Y-73750000D03*
G04 #@! TD*
D11*
G04 #@! TO.C,C8*
G36*
X151009938Y-48856085D02*
X151034206Y-48859685D01*
X151058005Y-48865646D01*
X151081104Y-48873911D01*
X151103283Y-48884401D01*
X151124326Y-48897013D01*
X151144032Y-48911628D01*
X151162210Y-48928104D01*
X151178686Y-48946282D01*
X151193301Y-48965988D01*
X151205913Y-48987031D01*
X151216403Y-49009210D01*
X151224668Y-49032309D01*
X151230629Y-49056108D01*
X151234229Y-49080376D01*
X151235433Y-49104880D01*
X151235433Y-50004882D01*
X151234229Y-50029386D01*
X151230629Y-50053654D01*
X151224668Y-50077453D01*
X151216403Y-50100552D01*
X151205913Y-50122731D01*
X151193301Y-50143774D01*
X151178686Y-50163480D01*
X151162210Y-50181658D01*
X151144032Y-50198134D01*
X151124326Y-50212749D01*
X151103283Y-50225361D01*
X151081104Y-50235851D01*
X151058005Y-50244116D01*
X151034206Y-50250077D01*
X151009938Y-50253677D01*
X150985434Y-50254881D01*
X150335432Y-50254881D01*
X150310928Y-50253677D01*
X150286660Y-50250077D01*
X150262861Y-50244116D01*
X150239762Y-50235851D01*
X150217583Y-50225361D01*
X150196540Y-50212749D01*
X150176834Y-50198134D01*
X150158656Y-50181658D01*
X150142180Y-50163480D01*
X150127565Y-50143774D01*
X150114953Y-50122731D01*
X150104463Y-50100552D01*
X150096198Y-50077453D01*
X150090237Y-50053654D01*
X150086637Y-50029386D01*
X150085433Y-50004882D01*
X150085433Y-49104880D01*
X150086637Y-49080376D01*
X150090237Y-49056108D01*
X150096198Y-49032309D01*
X150104463Y-49009210D01*
X150114953Y-48987031D01*
X150127565Y-48965988D01*
X150142180Y-48946282D01*
X150158656Y-48928104D01*
X150176834Y-48911628D01*
X150196540Y-48897013D01*
X150217583Y-48884401D01*
X150239762Y-48873911D01*
X150262861Y-48865646D01*
X150286660Y-48859685D01*
X150310928Y-48856085D01*
X150335432Y-48854881D01*
X150985434Y-48854881D01*
X151009938Y-48856085D01*
X151009938Y-48856085D01*
G37*
D12*
X150660433Y-49554881D03*
D11*
G36*
X148959938Y-48856085D02*
X148984206Y-48859685D01*
X149008005Y-48865646D01*
X149031104Y-48873911D01*
X149053283Y-48884401D01*
X149074326Y-48897013D01*
X149094032Y-48911628D01*
X149112210Y-48928104D01*
X149128686Y-48946282D01*
X149143301Y-48965988D01*
X149155913Y-48987031D01*
X149166403Y-49009210D01*
X149174668Y-49032309D01*
X149180629Y-49056108D01*
X149184229Y-49080376D01*
X149185433Y-49104880D01*
X149185433Y-50004882D01*
X149184229Y-50029386D01*
X149180629Y-50053654D01*
X149174668Y-50077453D01*
X149166403Y-50100552D01*
X149155913Y-50122731D01*
X149143301Y-50143774D01*
X149128686Y-50163480D01*
X149112210Y-50181658D01*
X149094032Y-50198134D01*
X149074326Y-50212749D01*
X149053283Y-50225361D01*
X149031104Y-50235851D01*
X149008005Y-50244116D01*
X148984206Y-50250077D01*
X148959938Y-50253677D01*
X148935434Y-50254881D01*
X148285432Y-50254881D01*
X148260928Y-50253677D01*
X148236660Y-50250077D01*
X148212861Y-50244116D01*
X148189762Y-50235851D01*
X148167583Y-50225361D01*
X148146540Y-50212749D01*
X148126834Y-50198134D01*
X148108656Y-50181658D01*
X148092180Y-50163480D01*
X148077565Y-50143774D01*
X148064953Y-50122731D01*
X148054463Y-50100552D01*
X148046198Y-50077453D01*
X148040237Y-50053654D01*
X148036637Y-50029386D01*
X148035433Y-50004882D01*
X148035433Y-49104880D01*
X148036637Y-49080376D01*
X148040237Y-49056108D01*
X148046198Y-49032309D01*
X148054463Y-49009210D01*
X148064953Y-48987031D01*
X148077565Y-48965988D01*
X148092180Y-48946282D01*
X148108656Y-48928104D01*
X148126834Y-48911628D01*
X148146540Y-48897013D01*
X148167583Y-48884401D01*
X148189762Y-48873911D01*
X148212861Y-48865646D01*
X148236660Y-48859685D01*
X148260928Y-48856085D01*
X148285432Y-48854881D01*
X148935434Y-48854881D01*
X148959938Y-48856085D01*
X148959938Y-48856085D01*
G37*
D12*
X148610433Y-49554881D03*
G04 #@! TD*
D11*
G04 #@! TO.C,D10*
G36*
X161029505Y-131101204D02*
X161053773Y-131104804D01*
X161077572Y-131110765D01*
X161100671Y-131119030D01*
X161122850Y-131129520D01*
X161143893Y-131142132D01*
X161163599Y-131156747D01*
X161181777Y-131173223D01*
X161198253Y-131191401D01*
X161212868Y-131211107D01*
X161225480Y-131232150D01*
X161235970Y-131254329D01*
X161244235Y-131277428D01*
X161250196Y-131301227D01*
X161253796Y-131325495D01*
X161255000Y-131349999D01*
X161255000Y-132250001D01*
X161253796Y-132274505D01*
X161250196Y-132298773D01*
X161244235Y-132322572D01*
X161235970Y-132345671D01*
X161225480Y-132367850D01*
X161212868Y-132388893D01*
X161198253Y-132408599D01*
X161181777Y-132426777D01*
X161163599Y-132443253D01*
X161143893Y-132457868D01*
X161122850Y-132470480D01*
X161100671Y-132480970D01*
X161077572Y-132489235D01*
X161053773Y-132495196D01*
X161029505Y-132498796D01*
X161005001Y-132500000D01*
X160354999Y-132500000D01*
X160330495Y-132498796D01*
X160306227Y-132495196D01*
X160282428Y-132489235D01*
X160259329Y-132480970D01*
X160237150Y-132470480D01*
X160216107Y-132457868D01*
X160196401Y-132443253D01*
X160178223Y-132426777D01*
X160161747Y-132408599D01*
X160147132Y-132388893D01*
X160134520Y-132367850D01*
X160124030Y-132345671D01*
X160115765Y-132322572D01*
X160109804Y-132298773D01*
X160106204Y-132274505D01*
X160105000Y-132250001D01*
X160105000Y-131349999D01*
X160106204Y-131325495D01*
X160109804Y-131301227D01*
X160115765Y-131277428D01*
X160124030Y-131254329D01*
X160134520Y-131232150D01*
X160147132Y-131211107D01*
X160161747Y-131191401D01*
X160178223Y-131173223D01*
X160196401Y-131156747D01*
X160216107Y-131142132D01*
X160237150Y-131129520D01*
X160259329Y-131119030D01*
X160282428Y-131110765D01*
X160306227Y-131104804D01*
X160330495Y-131101204D01*
X160354999Y-131100000D01*
X161005001Y-131100000D01*
X161029505Y-131101204D01*
X161029505Y-131101204D01*
G37*
D12*
X160680000Y-131800000D03*
D11*
G36*
X158979505Y-131101204D02*
X159003773Y-131104804D01*
X159027572Y-131110765D01*
X159050671Y-131119030D01*
X159072850Y-131129520D01*
X159093893Y-131142132D01*
X159113599Y-131156747D01*
X159131777Y-131173223D01*
X159148253Y-131191401D01*
X159162868Y-131211107D01*
X159175480Y-131232150D01*
X159185970Y-131254329D01*
X159194235Y-131277428D01*
X159200196Y-131301227D01*
X159203796Y-131325495D01*
X159205000Y-131349999D01*
X159205000Y-132250001D01*
X159203796Y-132274505D01*
X159200196Y-132298773D01*
X159194235Y-132322572D01*
X159185970Y-132345671D01*
X159175480Y-132367850D01*
X159162868Y-132388893D01*
X159148253Y-132408599D01*
X159131777Y-132426777D01*
X159113599Y-132443253D01*
X159093893Y-132457868D01*
X159072850Y-132470480D01*
X159050671Y-132480970D01*
X159027572Y-132489235D01*
X159003773Y-132495196D01*
X158979505Y-132498796D01*
X158955001Y-132500000D01*
X158304999Y-132500000D01*
X158280495Y-132498796D01*
X158256227Y-132495196D01*
X158232428Y-132489235D01*
X158209329Y-132480970D01*
X158187150Y-132470480D01*
X158166107Y-132457868D01*
X158146401Y-132443253D01*
X158128223Y-132426777D01*
X158111747Y-132408599D01*
X158097132Y-132388893D01*
X158084520Y-132367850D01*
X158074030Y-132345671D01*
X158065765Y-132322572D01*
X158059804Y-132298773D01*
X158056204Y-132274505D01*
X158055000Y-132250001D01*
X158055000Y-131349999D01*
X158056204Y-131325495D01*
X158059804Y-131301227D01*
X158065765Y-131277428D01*
X158074030Y-131254329D01*
X158084520Y-131232150D01*
X158097132Y-131211107D01*
X158111747Y-131191401D01*
X158128223Y-131173223D01*
X158146401Y-131156747D01*
X158166107Y-131142132D01*
X158187150Y-131129520D01*
X158209329Y-131119030D01*
X158232428Y-131110765D01*
X158256227Y-131104804D01*
X158280495Y-131101204D01*
X158304999Y-131100000D01*
X158955001Y-131100000D01*
X158979505Y-131101204D01*
X158979505Y-131101204D01*
G37*
D12*
X158630000Y-131800000D03*
G04 #@! TD*
D13*
G04 #@! TO.C,D13*
X181450000Y-39225000D03*
X181450000Y-40975000D03*
X177950000Y-39225000D03*
X177950000Y-40975000D03*
G04 #@! TD*
G04 #@! TO.C,D14*
X148450000Y-39125000D03*
X148450000Y-40875000D03*
X144950000Y-39125000D03*
X144950000Y-40875000D03*
G04 #@! TD*
D14*
G04 #@! TO.C,D16*
X112225000Y-72650000D03*
X113975000Y-72650000D03*
X112225000Y-76150000D03*
X113975000Y-76150000D03*
G04 #@! TD*
D13*
G04 #@! TO.C,D18*
X112250000Y-147375000D03*
X112250000Y-145625000D03*
X115750000Y-147375000D03*
X115750000Y-145625000D03*
G04 #@! TD*
D11*
G04 #@! TO.C,D4*
G36*
X122974505Y-131101204D02*
X122998773Y-131104804D01*
X123022572Y-131110765D01*
X123045671Y-131119030D01*
X123067850Y-131129520D01*
X123088893Y-131142132D01*
X123108599Y-131156747D01*
X123126777Y-131173223D01*
X123143253Y-131191401D01*
X123157868Y-131211107D01*
X123170480Y-131232150D01*
X123180970Y-131254329D01*
X123189235Y-131277428D01*
X123195196Y-131301227D01*
X123198796Y-131325495D01*
X123200000Y-131349999D01*
X123200000Y-132250001D01*
X123198796Y-132274505D01*
X123195196Y-132298773D01*
X123189235Y-132322572D01*
X123180970Y-132345671D01*
X123170480Y-132367850D01*
X123157868Y-132388893D01*
X123143253Y-132408599D01*
X123126777Y-132426777D01*
X123108599Y-132443253D01*
X123088893Y-132457868D01*
X123067850Y-132470480D01*
X123045671Y-132480970D01*
X123022572Y-132489235D01*
X122998773Y-132495196D01*
X122974505Y-132498796D01*
X122950001Y-132500000D01*
X122299999Y-132500000D01*
X122275495Y-132498796D01*
X122251227Y-132495196D01*
X122227428Y-132489235D01*
X122204329Y-132480970D01*
X122182150Y-132470480D01*
X122161107Y-132457868D01*
X122141401Y-132443253D01*
X122123223Y-132426777D01*
X122106747Y-132408599D01*
X122092132Y-132388893D01*
X122079520Y-132367850D01*
X122069030Y-132345671D01*
X122060765Y-132322572D01*
X122054804Y-132298773D01*
X122051204Y-132274505D01*
X122050000Y-132250001D01*
X122050000Y-131349999D01*
X122051204Y-131325495D01*
X122054804Y-131301227D01*
X122060765Y-131277428D01*
X122069030Y-131254329D01*
X122079520Y-131232150D01*
X122092132Y-131211107D01*
X122106747Y-131191401D01*
X122123223Y-131173223D01*
X122141401Y-131156747D01*
X122161107Y-131142132D01*
X122182150Y-131129520D01*
X122204329Y-131119030D01*
X122227428Y-131110765D01*
X122251227Y-131104804D01*
X122275495Y-131101204D01*
X122299999Y-131100000D01*
X122950001Y-131100000D01*
X122974505Y-131101204D01*
X122974505Y-131101204D01*
G37*
D12*
X122625000Y-131800000D03*
D11*
G36*
X120924505Y-131101204D02*
X120948773Y-131104804D01*
X120972572Y-131110765D01*
X120995671Y-131119030D01*
X121017850Y-131129520D01*
X121038893Y-131142132D01*
X121058599Y-131156747D01*
X121076777Y-131173223D01*
X121093253Y-131191401D01*
X121107868Y-131211107D01*
X121120480Y-131232150D01*
X121130970Y-131254329D01*
X121139235Y-131277428D01*
X121145196Y-131301227D01*
X121148796Y-131325495D01*
X121150000Y-131349999D01*
X121150000Y-132250001D01*
X121148796Y-132274505D01*
X121145196Y-132298773D01*
X121139235Y-132322572D01*
X121130970Y-132345671D01*
X121120480Y-132367850D01*
X121107868Y-132388893D01*
X121093253Y-132408599D01*
X121076777Y-132426777D01*
X121058599Y-132443253D01*
X121038893Y-132457868D01*
X121017850Y-132470480D01*
X120995671Y-132480970D01*
X120972572Y-132489235D01*
X120948773Y-132495196D01*
X120924505Y-132498796D01*
X120900001Y-132500000D01*
X120249999Y-132500000D01*
X120225495Y-132498796D01*
X120201227Y-132495196D01*
X120177428Y-132489235D01*
X120154329Y-132480970D01*
X120132150Y-132470480D01*
X120111107Y-132457868D01*
X120091401Y-132443253D01*
X120073223Y-132426777D01*
X120056747Y-132408599D01*
X120042132Y-132388893D01*
X120029520Y-132367850D01*
X120019030Y-132345671D01*
X120010765Y-132322572D01*
X120004804Y-132298773D01*
X120001204Y-132274505D01*
X120000000Y-132250001D01*
X120000000Y-131349999D01*
X120001204Y-131325495D01*
X120004804Y-131301227D01*
X120010765Y-131277428D01*
X120019030Y-131254329D01*
X120029520Y-131232150D01*
X120042132Y-131211107D01*
X120056747Y-131191401D01*
X120073223Y-131173223D01*
X120091401Y-131156747D01*
X120111107Y-131142132D01*
X120132150Y-131129520D01*
X120154329Y-131119030D01*
X120177428Y-131110765D01*
X120201227Y-131104804D01*
X120225495Y-131101204D01*
X120249999Y-131100000D01*
X120900001Y-131100000D01*
X120924505Y-131101204D01*
X120924505Y-131101204D01*
G37*
D12*
X120575000Y-131800000D03*
G04 #@! TD*
D11*
G04 #@! TO.C,D7*
G36*
X139952005Y-131101204D02*
X139976273Y-131104804D01*
X140000072Y-131110765D01*
X140023171Y-131119030D01*
X140045350Y-131129520D01*
X140066393Y-131142132D01*
X140086099Y-131156747D01*
X140104277Y-131173223D01*
X140120753Y-131191401D01*
X140135368Y-131211107D01*
X140147980Y-131232150D01*
X140158470Y-131254329D01*
X140166735Y-131277428D01*
X140172696Y-131301227D01*
X140176296Y-131325495D01*
X140177500Y-131349999D01*
X140177500Y-132250001D01*
X140176296Y-132274505D01*
X140172696Y-132298773D01*
X140166735Y-132322572D01*
X140158470Y-132345671D01*
X140147980Y-132367850D01*
X140135368Y-132388893D01*
X140120753Y-132408599D01*
X140104277Y-132426777D01*
X140086099Y-132443253D01*
X140066393Y-132457868D01*
X140045350Y-132470480D01*
X140023171Y-132480970D01*
X140000072Y-132489235D01*
X139976273Y-132495196D01*
X139952005Y-132498796D01*
X139927501Y-132500000D01*
X139277499Y-132500000D01*
X139252995Y-132498796D01*
X139228727Y-132495196D01*
X139204928Y-132489235D01*
X139181829Y-132480970D01*
X139159650Y-132470480D01*
X139138607Y-132457868D01*
X139118901Y-132443253D01*
X139100723Y-132426777D01*
X139084247Y-132408599D01*
X139069632Y-132388893D01*
X139057020Y-132367850D01*
X139046530Y-132345671D01*
X139038265Y-132322572D01*
X139032304Y-132298773D01*
X139028704Y-132274505D01*
X139027500Y-132250001D01*
X139027500Y-131349999D01*
X139028704Y-131325495D01*
X139032304Y-131301227D01*
X139038265Y-131277428D01*
X139046530Y-131254329D01*
X139057020Y-131232150D01*
X139069632Y-131211107D01*
X139084247Y-131191401D01*
X139100723Y-131173223D01*
X139118901Y-131156747D01*
X139138607Y-131142132D01*
X139159650Y-131129520D01*
X139181829Y-131119030D01*
X139204928Y-131110765D01*
X139228727Y-131104804D01*
X139252995Y-131101204D01*
X139277499Y-131100000D01*
X139927501Y-131100000D01*
X139952005Y-131101204D01*
X139952005Y-131101204D01*
G37*
D12*
X139602500Y-131800000D03*
D11*
G36*
X142002005Y-131101204D02*
X142026273Y-131104804D01*
X142050072Y-131110765D01*
X142073171Y-131119030D01*
X142095350Y-131129520D01*
X142116393Y-131142132D01*
X142136099Y-131156747D01*
X142154277Y-131173223D01*
X142170753Y-131191401D01*
X142185368Y-131211107D01*
X142197980Y-131232150D01*
X142208470Y-131254329D01*
X142216735Y-131277428D01*
X142222696Y-131301227D01*
X142226296Y-131325495D01*
X142227500Y-131349999D01*
X142227500Y-132250001D01*
X142226296Y-132274505D01*
X142222696Y-132298773D01*
X142216735Y-132322572D01*
X142208470Y-132345671D01*
X142197980Y-132367850D01*
X142185368Y-132388893D01*
X142170753Y-132408599D01*
X142154277Y-132426777D01*
X142136099Y-132443253D01*
X142116393Y-132457868D01*
X142095350Y-132470480D01*
X142073171Y-132480970D01*
X142050072Y-132489235D01*
X142026273Y-132495196D01*
X142002005Y-132498796D01*
X141977501Y-132500000D01*
X141327499Y-132500000D01*
X141302995Y-132498796D01*
X141278727Y-132495196D01*
X141254928Y-132489235D01*
X141231829Y-132480970D01*
X141209650Y-132470480D01*
X141188607Y-132457868D01*
X141168901Y-132443253D01*
X141150723Y-132426777D01*
X141134247Y-132408599D01*
X141119632Y-132388893D01*
X141107020Y-132367850D01*
X141096530Y-132345671D01*
X141088265Y-132322572D01*
X141082304Y-132298773D01*
X141078704Y-132274505D01*
X141077500Y-132250001D01*
X141077500Y-131349999D01*
X141078704Y-131325495D01*
X141082304Y-131301227D01*
X141088265Y-131277428D01*
X141096530Y-131254329D01*
X141107020Y-131232150D01*
X141119632Y-131211107D01*
X141134247Y-131191401D01*
X141150723Y-131173223D01*
X141168901Y-131156747D01*
X141188607Y-131142132D01*
X141209650Y-131129520D01*
X141231829Y-131119030D01*
X141254928Y-131110765D01*
X141278727Y-131104804D01*
X141302995Y-131101204D01*
X141327499Y-131100000D01*
X141977501Y-131100000D01*
X142002005Y-131101204D01*
X142002005Y-131101204D01*
G37*
D12*
X141652500Y-131800000D03*
G04 #@! TD*
D10*
G04 #@! TO.C,D9*
X158775000Y-111850000D03*
X161375000Y-112800000D03*
X158775000Y-113750000D03*
G04 #@! TD*
G04 #@! TO.C,D11*
X173825000Y-75650000D03*
X176425000Y-74700000D03*
X173825000Y-73750000D03*
G04 #@! TD*
G04 #@! TO.C,D12*
X173825000Y-113750000D03*
X176425000Y-112800000D03*
X173825000Y-111850000D03*
G04 #@! TD*
D13*
G04 #@! TO.C,D15*
X112350000Y-40975000D03*
X112350000Y-39225000D03*
X115850000Y-40975000D03*
X115850000Y-39225000D03*
G04 #@! TD*
D14*
G04 #@! TO.C,D17*
X112200000Y-111100000D03*
X113950000Y-111100000D03*
X112200000Y-114600000D03*
X113950000Y-114600000D03*
G04 #@! TD*
D11*
G04 #@! TO.C,C11*
G36*
X172374505Y-37317339D02*
X172398773Y-37320939D01*
X172422572Y-37326900D01*
X172445671Y-37335165D01*
X172467850Y-37345655D01*
X172488893Y-37358267D01*
X172508599Y-37372882D01*
X172526777Y-37389358D01*
X172543253Y-37407536D01*
X172557868Y-37427242D01*
X172570480Y-37448285D01*
X172580970Y-37470464D01*
X172589235Y-37493563D01*
X172595196Y-37517362D01*
X172598796Y-37541630D01*
X172600000Y-37566134D01*
X172600000Y-38216136D01*
X172598796Y-38240640D01*
X172595196Y-38264908D01*
X172589235Y-38288707D01*
X172580970Y-38311806D01*
X172570480Y-38333985D01*
X172557868Y-38355028D01*
X172543253Y-38374734D01*
X172526777Y-38392912D01*
X172508599Y-38409388D01*
X172488893Y-38424003D01*
X172467850Y-38436615D01*
X172445671Y-38447105D01*
X172422572Y-38455370D01*
X172398773Y-38461331D01*
X172374505Y-38464931D01*
X172350001Y-38466135D01*
X171449999Y-38466135D01*
X171425495Y-38464931D01*
X171401227Y-38461331D01*
X171377428Y-38455370D01*
X171354329Y-38447105D01*
X171332150Y-38436615D01*
X171311107Y-38424003D01*
X171291401Y-38409388D01*
X171273223Y-38392912D01*
X171256747Y-38374734D01*
X171242132Y-38355028D01*
X171229520Y-38333985D01*
X171219030Y-38311806D01*
X171210765Y-38288707D01*
X171204804Y-38264908D01*
X171201204Y-38240640D01*
X171200000Y-38216136D01*
X171200000Y-37566134D01*
X171201204Y-37541630D01*
X171204804Y-37517362D01*
X171210765Y-37493563D01*
X171219030Y-37470464D01*
X171229520Y-37448285D01*
X171242132Y-37427242D01*
X171256747Y-37407536D01*
X171273223Y-37389358D01*
X171291401Y-37372882D01*
X171311107Y-37358267D01*
X171332150Y-37345655D01*
X171354329Y-37335165D01*
X171377428Y-37326900D01*
X171401227Y-37320939D01*
X171425495Y-37317339D01*
X171449999Y-37316135D01*
X172350001Y-37316135D01*
X172374505Y-37317339D01*
X172374505Y-37317339D01*
G37*
D12*
X171900000Y-37891135D03*
D11*
G36*
X172374505Y-39367339D02*
X172398773Y-39370939D01*
X172422572Y-39376900D01*
X172445671Y-39385165D01*
X172467850Y-39395655D01*
X172488893Y-39408267D01*
X172508599Y-39422882D01*
X172526777Y-39439358D01*
X172543253Y-39457536D01*
X172557868Y-39477242D01*
X172570480Y-39498285D01*
X172580970Y-39520464D01*
X172589235Y-39543563D01*
X172595196Y-39567362D01*
X172598796Y-39591630D01*
X172600000Y-39616134D01*
X172600000Y-40266136D01*
X172598796Y-40290640D01*
X172595196Y-40314908D01*
X172589235Y-40338707D01*
X172580970Y-40361806D01*
X172570480Y-40383985D01*
X172557868Y-40405028D01*
X172543253Y-40424734D01*
X172526777Y-40442912D01*
X172508599Y-40459388D01*
X172488893Y-40474003D01*
X172467850Y-40486615D01*
X172445671Y-40497105D01*
X172422572Y-40505370D01*
X172398773Y-40511331D01*
X172374505Y-40514931D01*
X172350001Y-40516135D01*
X171449999Y-40516135D01*
X171425495Y-40514931D01*
X171401227Y-40511331D01*
X171377428Y-40505370D01*
X171354329Y-40497105D01*
X171332150Y-40486615D01*
X171311107Y-40474003D01*
X171291401Y-40459388D01*
X171273223Y-40442912D01*
X171256747Y-40424734D01*
X171242132Y-40405028D01*
X171229520Y-40383985D01*
X171219030Y-40361806D01*
X171210765Y-40338707D01*
X171204804Y-40314908D01*
X171201204Y-40290640D01*
X171200000Y-40266136D01*
X171200000Y-39616134D01*
X171201204Y-39591630D01*
X171204804Y-39567362D01*
X171210765Y-39543563D01*
X171219030Y-39520464D01*
X171229520Y-39498285D01*
X171242132Y-39477242D01*
X171256747Y-39457536D01*
X171273223Y-39439358D01*
X171291401Y-39422882D01*
X171311107Y-39408267D01*
X171332150Y-39395655D01*
X171354329Y-39385165D01*
X171377428Y-39376900D01*
X171401227Y-39370939D01*
X171425495Y-39367339D01*
X171449999Y-39366135D01*
X172350001Y-39366135D01*
X172374505Y-39367339D01*
X172374505Y-39367339D01*
G37*
D12*
X171900000Y-39941135D03*
G04 #@! TD*
D11*
G04 #@! TO.C,R6*
G36*
X170174505Y-39376204D02*
X170198773Y-39379804D01*
X170222572Y-39385765D01*
X170245671Y-39394030D01*
X170267850Y-39404520D01*
X170288893Y-39417132D01*
X170308599Y-39431747D01*
X170326777Y-39448223D01*
X170343253Y-39466401D01*
X170357868Y-39486107D01*
X170370480Y-39507150D01*
X170380970Y-39529329D01*
X170389235Y-39552428D01*
X170395196Y-39576227D01*
X170398796Y-39600495D01*
X170400000Y-39624999D01*
X170400000Y-40275001D01*
X170398796Y-40299505D01*
X170395196Y-40323773D01*
X170389235Y-40347572D01*
X170380970Y-40370671D01*
X170370480Y-40392850D01*
X170357868Y-40413893D01*
X170343253Y-40433599D01*
X170326777Y-40451777D01*
X170308599Y-40468253D01*
X170288893Y-40482868D01*
X170267850Y-40495480D01*
X170245671Y-40505970D01*
X170222572Y-40514235D01*
X170198773Y-40520196D01*
X170174505Y-40523796D01*
X170150001Y-40525000D01*
X169249999Y-40525000D01*
X169225495Y-40523796D01*
X169201227Y-40520196D01*
X169177428Y-40514235D01*
X169154329Y-40505970D01*
X169132150Y-40495480D01*
X169111107Y-40482868D01*
X169091401Y-40468253D01*
X169073223Y-40451777D01*
X169056747Y-40433599D01*
X169042132Y-40413893D01*
X169029520Y-40392850D01*
X169019030Y-40370671D01*
X169010765Y-40347572D01*
X169004804Y-40323773D01*
X169001204Y-40299505D01*
X169000000Y-40275001D01*
X169000000Y-39624999D01*
X169001204Y-39600495D01*
X169004804Y-39576227D01*
X169010765Y-39552428D01*
X169019030Y-39529329D01*
X169029520Y-39507150D01*
X169042132Y-39486107D01*
X169056747Y-39466401D01*
X169073223Y-39448223D01*
X169091401Y-39431747D01*
X169111107Y-39417132D01*
X169132150Y-39404520D01*
X169154329Y-39394030D01*
X169177428Y-39385765D01*
X169201227Y-39379804D01*
X169225495Y-39376204D01*
X169249999Y-39375000D01*
X170150001Y-39375000D01*
X170174505Y-39376204D01*
X170174505Y-39376204D01*
G37*
D12*
X169700000Y-39950000D03*
D11*
G36*
X170174505Y-37326204D02*
X170198773Y-37329804D01*
X170222572Y-37335765D01*
X170245671Y-37344030D01*
X170267850Y-37354520D01*
X170288893Y-37367132D01*
X170308599Y-37381747D01*
X170326777Y-37398223D01*
X170343253Y-37416401D01*
X170357868Y-37436107D01*
X170370480Y-37457150D01*
X170380970Y-37479329D01*
X170389235Y-37502428D01*
X170395196Y-37526227D01*
X170398796Y-37550495D01*
X170400000Y-37574999D01*
X170400000Y-38225001D01*
X170398796Y-38249505D01*
X170395196Y-38273773D01*
X170389235Y-38297572D01*
X170380970Y-38320671D01*
X170370480Y-38342850D01*
X170357868Y-38363893D01*
X170343253Y-38383599D01*
X170326777Y-38401777D01*
X170308599Y-38418253D01*
X170288893Y-38432868D01*
X170267850Y-38445480D01*
X170245671Y-38455970D01*
X170222572Y-38464235D01*
X170198773Y-38470196D01*
X170174505Y-38473796D01*
X170150001Y-38475000D01*
X169249999Y-38475000D01*
X169225495Y-38473796D01*
X169201227Y-38470196D01*
X169177428Y-38464235D01*
X169154329Y-38455970D01*
X169132150Y-38445480D01*
X169111107Y-38432868D01*
X169091401Y-38418253D01*
X169073223Y-38401777D01*
X169056747Y-38383599D01*
X169042132Y-38363893D01*
X169029520Y-38342850D01*
X169019030Y-38320671D01*
X169010765Y-38297572D01*
X169004804Y-38273773D01*
X169001204Y-38249505D01*
X169000000Y-38225001D01*
X169000000Y-37574999D01*
X169001204Y-37550495D01*
X169004804Y-37526227D01*
X169010765Y-37502428D01*
X169019030Y-37479329D01*
X169029520Y-37457150D01*
X169042132Y-37436107D01*
X169056747Y-37416401D01*
X169073223Y-37398223D01*
X169091401Y-37381747D01*
X169111107Y-37367132D01*
X169132150Y-37354520D01*
X169154329Y-37344030D01*
X169177428Y-37335765D01*
X169201227Y-37329804D01*
X169225495Y-37326204D01*
X169249999Y-37325000D01*
X170150001Y-37325000D01*
X170174505Y-37326204D01*
X170174505Y-37326204D01*
G37*
D12*
X169700000Y-37900000D03*
G04 #@! TD*
D11*
G04 #@! TO.C,R7*
G36*
X172474505Y-44751204D02*
X172498773Y-44754804D01*
X172522572Y-44760765D01*
X172545671Y-44769030D01*
X172567850Y-44779520D01*
X172588893Y-44792132D01*
X172608599Y-44806747D01*
X172626777Y-44823223D01*
X172643253Y-44841401D01*
X172657868Y-44861107D01*
X172670480Y-44882150D01*
X172680970Y-44904329D01*
X172689235Y-44927428D01*
X172695196Y-44951227D01*
X172698796Y-44975495D01*
X172700000Y-44999999D01*
X172700000Y-45650001D01*
X172698796Y-45674505D01*
X172695196Y-45698773D01*
X172689235Y-45722572D01*
X172680970Y-45745671D01*
X172670480Y-45767850D01*
X172657868Y-45788893D01*
X172643253Y-45808599D01*
X172626777Y-45826777D01*
X172608599Y-45843253D01*
X172588893Y-45857868D01*
X172567850Y-45870480D01*
X172545671Y-45880970D01*
X172522572Y-45889235D01*
X172498773Y-45895196D01*
X172474505Y-45898796D01*
X172450001Y-45900000D01*
X171549999Y-45900000D01*
X171525495Y-45898796D01*
X171501227Y-45895196D01*
X171477428Y-45889235D01*
X171454329Y-45880970D01*
X171432150Y-45870480D01*
X171411107Y-45857868D01*
X171391401Y-45843253D01*
X171373223Y-45826777D01*
X171356747Y-45808599D01*
X171342132Y-45788893D01*
X171329520Y-45767850D01*
X171319030Y-45745671D01*
X171310765Y-45722572D01*
X171304804Y-45698773D01*
X171301204Y-45674505D01*
X171300000Y-45650001D01*
X171300000Y-44999999D01*
X171301204Y-44975495D01*
X171304804Y-44951227D01*
X171310765Y-44927428D01*
X171319030Y-44904329D01*
X171329520Y-44882150D01*
X171342132Y-44861107D01*
X171356747Y-44841401D01*
X171373223Y-44823223D01*
X171391401Y-44806747D01*
X171411107Y-44792132D01*
X171432150Y-44779520D01*
X171454329Y-44769030D01*
X171477428Y-44760765D01*
X171501227Y-44754804D01*
X171525495Y-44751204D01*
X171549999Y-44750000D01*
X172450001Y-44750000D01*
X172474505Y-44751204D01*
X172474505Y-44751204D01*
G37*
D12*
X172000000Y-45325000D03*
D11*
G36*
X172474505Y-46801204D02*
X172498773Y-46804804D01*
X172522572Y-46810765D01*
X172545671Y-46819030D01*
X172567850Y-46829520D01*
X172588893Y-46842132D01*
X172608599Y-46856747D01*
X172626777Y-46873223D01*
X172643253Y-46891401D01*
X172657868Y-46911107D01*
X172670480Y-46932150D01*
X172680970Y-46954329D01*
X172689235Y-46977428D01*
X172695196Y-47001227D01*
X172698796Y-47025495D01*
X172700000Y-47049999D01*
X172700000Y-47700001D01*
X172698796Y-47724505D01*
X172695196Y-47748773D01*
X172689235Y-47772572D01*
X172680970Y-47795671D01*
X172670480Y-47817850D01*
X172657868Y-47838893D01*
X172643253Y-47858599D01*
X172626777Y-47876777D01*
X172608599Y-47893253D01*
X172588893Y-47907868D01*
X172567850Y-47920480D01*
X172545671Y-47930970D01*
X172522572Y-47939235D01*
X172498773Y-47945196D01*
X172474505Y-47948796D01*
X172450001Y-47950000D01*
X171549999Y-47950000D01*
X171525495Y-47948796D01*
X171501227Y-47945196D01*
X171477428Y-47939235D01*
X171454329Y-47930970D01*
X171432150Y-47920480D01*
X171411107Y-47907868D01*
X171391401Y-47893253D01*
X171373223Y-47876777D01*
X171356747Y-47858599D01*
X171342132Y-47838893D01*
X171329520Y-47817850D01*
X171319030Y-47795671D01*
X171310765Y-47772572D01*
X171304804Y-47748773D01*
X171301204Y-47724505D01*
X171300000Y-47700001D01*
X171300000Y-47049999D01*
X171301204Y-47025495D01*
X171304804Y-47001227D01*
X171310765Y-46977428D01*
X171319030Y-46954329D01*
X171329520Y-46932150D01*
X171342132Y-46911107D01*
X171356747Y-46891401D01*
X171373223Y-46873223D01*
X171391401Y-46856747D01*
X171411107Y-46842132D01*
X171432150Y-46829520D01*
X171454329Y-46819030D01*
X171477428Y-46810765D01*
X171501227Y-46804804D01*
X171525495Y-46801204D01*
X171549999Y-46800000D01*
X172450001Y-46800000D01*
X172474505Y-46801204D01*
X172474505Y-46801204D01*
G37*
D12*
X172000000Y-47375000D03*
G04 #@! TD*
D11*
G04 #@! TO.C,R8*
G36*
X169374505Y-46801204D02*
X169398773Y-46804804D01*
X169422572Y-46810765D01*
X169445671Y-46819030D01*
X169467850Y-46829520D01*
X169488893Y-46842132D01*
X169508599Y-46856747D01*
X169526777Y-46873223D01*
X169543253Y-46891401D01*
X169557868Y-46911107D01*
X169570480Y-46932150D01*
X169580970Y-46954329D01*
X169589235Y-46977428D01*
X169595196Y-47001227D01*
X169598796Y-47025495D01*
X169600000Y-47049999D01*
X169600000Y-47700001D01*
X169598796Y-47724505D01*
X169595196Y-47748773D01*
X169589235Y-47772572D01*
X169580970Y-47795671D01*
X169570480Y-47817850D01*
X169557868Y-47838893D01*
X169543253Y-47858599D01*
X169526777Y-47876777D01*
X169508599Y-47893253D01*
X169488893Y-47907868D01*
X169467850Y-47920480D01*
X169445671Y-47930970D01*
X169422572Y-47939235D01*
X169398773Y-47945196D01*
X169374505Y-47948796D01*
X169350001Y-47950000D01*
X168449999Y-47950000D01*
X168425495Y-47948796D01*
X168401227Y-47945196D01*
X168377428Y-47939235D01*
X168354329Y-47930970D01*
X168332150Y-47920480D01*
X168311107Y-47907868D01*
X168291401Y-47893253D01*
X168273223Y-47876777D01*
X168256747Y-47858599D01*
X168242132Y-47838893D01*
X168229520Y-47817850D01*
X168219030Y-47795671D01*
X168210765Y-47772572D01*
X168204804Y-47748773D01*
X168201204Y-47724505D01*
X168200000Y-47700001D01*
X168200000Y-47049999D01*
X168201204Y-47025495D01*
X168204804Y-47001227D01*
X168210765Y-46977428D01*
X168219030Y-46954329D01*
X168229520Y-46932150D01*
X168242132Y-46911107D01*
X168256747Y-46891401D01*
X168273223Y-46873223D01*
X168291401Y-46856747D01*
X168311107Y-46842132D01*
X168332150Y-46829520D01*
X168354329Y-46819030D01*
X168377428Y-46810765D01*
X168401227Y-46804804D01*
X168425495Y-46801204D01*
X168449999Y-46800000D01*
X169350001Y-46800000D01*
X169374505Y-46801204D01*
X169374505Y-46801204D01*
G37*
D12*
X168900000Y-47375000D03*
D11*
G36*
X169374505Y-44751204D02*
X169398773Y-44754804D01*
X169422572Y-44760765D01*
X169445671Y-44769030D01*
X169467850Y-44779520D01*
X169488893Y-44792132D01*
X169508599Y-44806747D01*
X169526777Y-44823223D01*
X169543253Y-44841401D01*
X169557868Y-44861107D01*
X169570480Y-44882150D01*
X169580970Y-44904329D01*
X169589235Y-44927428D01*
X169595196Y-44951227D01*
X169598796Y-44975495D01*
X169600000Y-44999999D01*
X169600000Y-45650001D01*
X169598796Y-45674505D01*
X169595196Y-45698773D01*
X169589235Y-45722572D01*
X169580970Y-45745671D01*
X169570480Y-45767850D01*
X169557868Y-45788893D01*
X169543253Y-45808599D01*
X169526777Y-45826777D01*
X169508599Y-45843253D01*
X169488893Y-45857868D01*
X169467850Y-45870480D01*
X169445671Y-45880970D01*
X169422572Y-45889235D01*
X169398773Y-45895196D01*
X169374505Y-45898796D01*
X169350001Y-45900000D01*
X168449999Y-45900000D01*
X168425495Y-45898796D01*
X168401227Y-45895196D01*
X168377428Y-45889235D01*
X168354329Y-45880970D01*
X168332150Y-45870480D01*
X168311107Y-45857868D01*
X168291401Y-45843253D01*
X168273223Y-45826777D01*
X168256747Y-45808599D01*
X168242132Y-45788893D01*
X168229520Y-45767850D01*
X168219030Y-45745671D01*
X168210765Y-45722572D01*
X168204804Y-45698773D01*
X168201204Y-45674505D01*
X168200000Y-45650001D01*
X168200000Y-44999999D01*
X168201204Y-44975495D01*
X168204804Y-44951227D01*
X168210765Y-44927428D01*
X168219030Y-44904329D01*
X168229520Y-44882150D01*
X168242132Y-44861107D01*
X168256747Y-44841401D01*
X168273223Y-44823223D01*
X168291401Y-44806747D01*
X168311107Y-44792132D01*
X168332150Y-44779520D01*
X168354329Y-44769030D01*
X168377428Y-44760765D01*
X168401227Y-44754804D01*
X168425495Y-44751204D01*
X168449999Y-44750000D01*
X169350001Y-44750000D01*
X169374505Y-44751204D01*
X169374505Y-44751204D01*
G37*
D12*
X168900000Y-45325000D03*
G04 #@! TD*
D13*
G04 #@! TO.C,D19*
X145200000Y-147300000D03*
X145200000Y-145550000D03*
X148700000Y-147300000D03*
X148700000Y-145550000D03*
G04 #@! TD*
G04 #@! TO.C,D20*
X176050000Y-147975000D03*
X176050000Y-146225000D03*
X179550000Y-147975000D03*
X179550000Y-146225000D03*
G04 #@! TD*
D14*
G04 #@! TO.C,D21*
X179425000Y-111150000D03*
X181175000Y-111150000D03*
X179425000Y-114650000D03*
X181175000Y-114650000D03*
G04 #@! TD*
G04 #@! TO.C,D22*
X179425000Y-72750000D03*
X181175000Y-72750000D03*
X179425000Y-76250000D03*
X181175000Y-76250000D03*
G04 #@! TD*
D11*
G04 #@! TO.C,C12*
G36*
X156509938Y-48856085D02*
X156534206Y-48859685D01*
X156558005Y-48865646D01*
X156581104Y-48873911D01*
X156603283Y-48884401D01*
X156624326Y-48897013D01*
X156644032Y-48911628D01*
X156662210Y-48928104D01*
X156678686Y-48946282D01*
X156693301Y-48965988D01*
X156705913Y-48987031D01*
X156716403Y-49009210D01*
X156724668Y-49032309D01*
X156730629Y-49056108D01*
X156734229Y-49080376D01*
X156735433Y-49104880D01*
X156735433Y-50004882D01*
X156734229Y-50029386D01*
X156730629Y-50053654D01*
X156724668Y-50077453D01*
X156716403Y-50100552D01*
X156705913Y-50122731D01*
X156693301Y-50143774D01*
X156678686Y-50163480D01*
X156662210Y-50181658D01*
X156644032Y-50198134D01*
X156624326Y-50212749D01*
X156603283Y-50225361D01*
X156581104Y-50235851D01*
X156558005Y-50244116D01*
X156534206Y-50250077D01*
X156509938Y-50253677D01*
X156485434Y-50254881D01*
X155835432Y-50254881D01*
X155810928Y-50253677D01*
X155786660Y-50250077D01*
X155762861Y-50244116D01*
X155739762Y-50235851D01*
X155717583Y-50225361D01*
X155696540Y-50212749D01*
X155676834Y-50198134D01*
X155658656Y-50181658D01*
X155642180Y-50163480D01*
X155627565Y-50143774D01*
X155614953Y-50122731D01*
X155604463Y-50100552D01*
X155596198Y-50077453D01*
X155590237Y-50053654D01*
X155586637Y-50029386D01*
X155585433Y-50004882D01*
X155585433Y-49104880D01*
X155586637Y-49080376D01*
X155590237Y-49056108D01*
X155596198Y-49032309D01*
X155604463Y-49009210D01*
X155614953Y-48987031D01*
X155627565Y-48965988D01*
X155642180Y-48946282D01*
X155658656Y-48928104D01*
X155676834Y-48911628D01*
X155696540Y-48897013D01*
X155717583Y-48884401D01*
X155739762Y-48873911D01*
X155762861Y-48865646D01*
X155786660Y-48859685D01*
X155810928Y-48856085D01*
X155835432Y-48854881D01*
X156485434Y-48854881D01*
X156509938Y-48856085D01*
X156509938Y-48856085D01*
G37*
D12*
X156160433Y-49554881D03*
D11*
G36*
X154459938Y-48856085D02*
X154484206Y-48859685D01*
X154508005Y-48865646D01*
X154531104Y-48873911D01*
X154553283Y-48884401D01*
X154574326Y-48897013D01*
X154594032Y-48911628D01*
X154612210Y-48928104D01*
X154628686Y-48946282D01*
X154643301Y-48965988D01*
X154655913Y-48987031D01*
X154666403Y-49009210D01*
X154674668Y-49032309D01*
X154680629Y-49056108D01*
X154684229Y-49080376D01*
X154685433Y-49104880D01*
X154685433Y-50004882D01*
X154684229Y-50029386D01*
X154680629Y-50053654D01*
X154674668Y-50077453D01*
X154666403Y-50100552D01*
X154655913Y-50122731D01*
X154643301Y-50143774D01*
X154628686Y-50163480D01*
X154612210Y-50181658D01*
X154594032Y-50198134D01*
X154574326Y-50212749D01*
X154553283Y-50225361D01*
X154531104Y-50235851D01*
X154508005Y-50244116D01*
X154484206Y-50250077D01*
X154459938Y-50253677D01*
X154435434Y-50254881D01*
X153785432Y-50254881D01*
X153760928Y-50253677D01*
X153736660Y-50250077D01*
X153712861Y-50244116D01*
X153689762Y-50235851D01*
X153667583Y-50225361D01*
X153646540Y-50212749D01*
X153626834Y-50198134D01*
X153608656Y-50181658D01*
X153592180Y-50163480D01*
X153577565Y-50143774D01*
X153564953Y-50122731D01*
X153554463Y-50100552D01*
X153546198Y-50077453D01*
X153540237Y-50053654D01*
X153536637Y-50029386D01*
X153535433Y-50004882D01*
X153535433Y-49104880D01*
X153536637Y-49080376D01*
X153540237Y-49056108D01*
X153546198Y-49032309D01*
X153554463Y-49009210D01*
X153564953Y-48987031D01*
X153577565Y-48965988D01*
X153592180Y-48946282D01*
X153608656Y-48928104D01*
X153626834Y-48911628D01*
X153646540Y-48897013D01*
X153667583Y-48884401D01*
X153689762Y-48873911D01*
X153712861Y-48865646D01*
X153736660Y-48859685D01*
X153760928Y-48856085D01*
X153785432Y-48854881D01*
X154435434Y-48854881D01*
X154459938Y-48856085D01*
X154459938Y-48856085D01*
G37*
D12*
X154110433Y-49554881D03*
G04 #@! TD*
D11*
G04 #@! TO.C,D23*
G36*
X156509938Y-43156085D02*
X156534206Y-43159685D01*
X156558005Y-43165646D01*
X156581104Y-43173911D01*
X156603283Y-43184401D01*
X156624326Y-43197013D01*
X156644032Y-43211628D01*
X156662210Y-43228104D01*
X156678686Y-43246282D01*
X156693301Y-43265988D01*
X156705913Y-43287031D01*
X156716403Y-43309210D01*
X156724668Y-43332309D01*
X156730629Y-43356108D01*
X156734229Y-43380376D01*
X156735433Y-43404880D01*
X156735433Y-44304882D01*
X156734229Y-44329386D01*
X156730629Y-44353654D01*
X156724668Y-44377453D01*
X156716403Y-44400552D01*
X156705913Y-44422731D01*
X156693301Y-44443774D01*
X156678686Y-44463480D01*
X156662210Y-44481658D01*
X156644032Y-44498134D01*
X156624326Y-44512749D01*
X156603283Y-44525361D01*
X156581104Y-44535851D01*
X156558005Y-44544116D01*
X156534206Y-44550077D01*
X156509938Y-44553677D01*
X156485434Y-44554881D01*
X155835432Y-44554881D01*
X155810928Y-44553677D01*
X155786660Y-44550077D01*
X155762861Y-44544116D01*
X155739762Y-44535851D01*
X155717583Y-44525361D01*
X155696540Y-44512749D01*
X155676834Y-44498134D01*
X155658656Y-44481658D01*
X155642180Y-44463480D01*
X155627565Y-44443774D01*
X155614953Y-44422731D01*
X155604463Y-44400552D01*
X155596198Y-44377453D01*
X155590237Y-44353654D01*
X155586637Y-44329386D01*
X155585433Y-44304882D01*
X155585433Y-43404880D01*
X155586637Y-43380376D01*
X155590237Y-43356108D01*
X155596198Y-43332309D01*
X155604463Y-43309210D01*
X155614953Y-43287031D01*
X155627565Y-43265988D01*
X155642180Y-43246282D01*
X155658656Y-43228104D01*
X155676834Y-43211628D01*
X155696540Y-43197013D01*
X155717583Y-43184401D01*
X155739762Y-43173911D01*
X155762861Y-43165646D01*
X155786660Y-43159685D01*
X155810928Y-43156085D01*
X155835432Y-43154881D01*
X156485434Y-43154881D01*
X156509938Y-43156085D01*
X156509938Y-43156085D01*
G37*
D12*
X156160433Y-43854881D03*
D11*
G36*
X154459938Y-43156085D02*
X154484206Y-43159685D01*
X154508005Y-43165646D01*
X154531104Y-43173911D01*
X154553283Y-43184401D01*
X154574326Y-43197013D01*
X154594032Y-43211628D01*
X154612210Y-43228104D01*
X154628686Y-43246282D01*
X154643301Y-43265988D01*
X154655913Y-43287031D01*
X154666403Y-43309210D01*
X154674668Y-43332309D01*
X154680629Y-43356108D01*
X154684229Y-43380376D01*
X154685433Y-43404880D01*
X154685433Y-44304882D01*
X154684229Y-44329386D01*
X154680629Y-44353654D01*
X154674668Y-44377453D01*
X154666403Y-44400552D01*
X154655913Y-44422731D01*
X154643301Y-44443774D01*
X154628686Y-44463480D01*
X154612210Y-44481658D01*
X154594032Y-44498134D01*
X154574326Y-44512749D01*
X154553283Y-44525361D01*
X154531104Y-44535851D01*
X154508005Y-44544116D01*
X154484206Y-44550077D01*
X154459938Y-44553677D01*
X154435434Y-44554881D01*
X153785432Y-44554881D01*
X153760928Y-44553677D01*
X153736660Y-44550077D01*
X153712861Y-44544116D01*
X153689762Y-44535851D01*
X153667583Y-44525361D01*
X153646540Y-44512749D01*
X153626834Y-44498134D01*
X153608656Y-44481658D01*
X153592180Y-44463480D01*
X153577565Y-44443774D01*
X153564953Y-44422731D01*
X153554463Y-44400552D01*
X153546198Y-44377453D01*
X153540237Y-44353654D01*
X153536637Y-44329386D01*
X153535433Y-44304882D01*
X153535433Y-43404880D01*
X153536637Y-43380376D01*
X153540237Y-43356108D01*
X153546198Y-43332309D01*
X153554463Y-43309210D01*
X153564953Y-43287031D01*
X153577565Y-43265988D01*
X153592180Y-43246282D01*
X153608656Y-43228104D01*
X153626834Y-43211628D01*
X153646540Y-43197013D01*
X153667583Y-43184401D01*
X153689762Y-43173911D01*
X153712861Y-43165646D01*
X153736660Y-43159685D01*
X153760928Y-43156085D01*
X153785432Y-43154881D01*
X154435434Y-43154881D01*
X154459938Y-43156085D01*
X154459938Y-43156085D01*
G37*
D12*
X154110433Y-43854881D03*
G04 #@! TD*
D15*
G04 #@! TO.C,Q1*
X150640633Y-44195093D03*
X150640633Y-46095093D03*
X148640633Y-45145093D03*
G04 #@! TD*
D11*
G04 #@! TO.C,R2*
G36*
X154459938Y-45956085D02*
X154484206Y-45959685D01*
X154508005Y-45965646D01*
X154531104Y-45973911D01*
X154553283Y-45984401D01*
X154574326Y-45997013D01*
X154594032Y-46011628D01*
X154612210Y-46028104D01*
X154628686Y-46046282D01*
X154643301Y-46065988D01*
X154655913Y-46087031D01*
X154666403Y-46109210D01*
X154674668Y-46132309D01*
X154680629Y-46156108D01*
X154684229Y-46180376D01*
X154685433Y-46204880D01*
X154685433Y-47104882D01*
X154684229Y-47129386D01*
X154680629Y-47153654D01*
X154674668Y-47177453D01*
X154666403Y-47200552D01*
X154655913Y-47222731D01*
X154643301Y-47243774D01*
X154628686Y-47263480D01*
X154612210Y-47281658D01*
X154594032Y-47298134D01*
X154574326Y-47312749D01*
X154553283Y-47325361D01*
X154531104Y-47335851D01*
X154508005Y-47344116D01*
X154484206Y-47350077D01*
X154459938Y-47353677D01*
X154435434Y-47354881D01*
X153785432Y-47354881D01*
X153760928Y-47353677D01*
X153736660Y-47350077D01*
X153712861Y-47344116D01*
X153689762Y-47335851D01*
X153667583Y-47325361D01*
X153646540Y-47312749D01*
X153626834Y-47298134D01*
X153608656Y-47281658D01*
X153592180Y-47263480D01*
X153577565Y-47243774D01*
X153564953Y-47222731D01*
X153554463Y-47200552D01*
X153546198Y-47177453D01*
X153540237Y-47153654D01*
X153536637Y-47129386D01*
X153535433Y-47104882D01*
X153535433Y-46204880D01*
X153536637Y-46180376D01*
X153540237Y-46156108D01*
X153546198Y-46132309D01*
X153554463Y-46109210D01*
X153564953Y-46087031D01*
X153577565Y-46065988D01*
X153592180Y-46046282D01*
X153608656Y-46028104D01*
X153626834Y-46011628D01*
X153646540Y-45997013D01*
X153667583Y-45984401D01*
X153689762Y-45973911D01*
X153712861Y-45965646D01*
X153736660Y-45959685D01*
X153760928Y-45956085D01*
X153785432Y-45954881D01*
X154435434Y-45954881D01*
X154459938Y-45956085D01*
X154459938Y-45956085D01*
G37*
D12*
X154110433Y-46654881D03*
D11*
G36*
X156509938Y-45956085D02*
X156534206Y-45959685D01*
X156558005Y-45965646D01*
X156581104Y-45973911D01*
X156603283Y-45984401D01*
X156624326Y-45997013D01*
X156644032Y-46011628D01*
X156662210Y-46028104D01*
X156678686Y-46046282D01*
X156693301Y-46065988D01*
X156705913Y-46087031D01*
X156716403Y-46109210D01*
X156724668Y-46132309D01*
X156730629Y-46156108D01*
X156734229Y-46180376D01*
X156735433Y-46204880D01*
X156735433Y-47104882D01*
X156734229Y-47129386D01*
X156730629Y-47153654D01*
X156724668Y-47177453D01*
X156716403Y-47200552D01*
X156705913Y-47222731D01*
X156693301Y-47243774D01*
X156678686Y-47263480D01*
X156662210Y-47281658D01*
X156644032Y-47298134D01*
X156624326Y-47312749D01*
X156603283Y-47325361D01*
X156581104Y-47335851D01*
X156558005Y-47344116D01*
X156534206Y-47350077D01*
X156509938Y-47353677D01*
X156485434Y-47354881D01*
X155835432Y-47354881D01*
X155810928Y-47353677D01*
X155786660Y-47350077D01*
X155762861Y-47344116D01*
X155739762Y-47335851D01*
X155717583Y-47325361D01*
X155696540Y-47312749D01*
X155676834Y-47298134D01*
X155658656Y-47281658D01*
X155642180Y-47263480D01*
X155627565Y-47243774D01*
X155614953Y-47222731D01*
X155604463Y-47200552D01*
X155596198Y-47177453D01*
X155590237Y-47153654D01*
X155586637Y-47129386D01*
X155585433Y-47104882D01*
X155585433Y-46204880D01*
X155586637Y-46180376D01*
X155590237Y-46156108D01*
X155596198Y-46132309D01*
X155604463Y-46109210D01*
X155614953Y-46087031D01*
X155627565Y-46065988D01*
X155642180Y-46046282D01*
X155658656Y-46028104D01*
X155676834Y-46011628D01*
X155696540Y-45997013D01*
X155717583Y-45984401D01*
X155739762Y-45973911D01*
X155762861Y-45965646D01*
X155786660Y-45959685D01*
X155810928Y-45956085D01*
X155835432Y-45954881D01*
X156485434Y-45954881D01*
X156509938Y-45956085D01*
X156509938Y-45956085D01*
G37*
D12*
X156160433Y-46654881D03*
G04 #@! TD*
D16*
G04 #@! TO.C,SW1*
X144900000Y-47500000D03*
X144900000Y-44100000D03*
G04 #@! TD*
M02*
