G04 #@! TF.GenerationSoftware,KiCad,Pcbnew,5.0.1*
G04 #@! TF.CreationDate,2019-01-15T16:18:38+01:00*
G04 #@! TF.ProjectId,keypad,6B65797061642E6B696361645F706362,rev?*
G04 #@! TF.SameCoordinates,Original*
G04 #@! TF.FileFunction,Paste,Bot*
G04 #@! TF.FilePolarity,Positive*
%FSLAX46Y46*%
G04 Gerber Fmt 4.6, Leading zero omitted, Abs format (unit mm)*
G04 Created by KiCad (PCBNEW 5.0.1) date Tue 15 Jan 2019 04:18:38 PM CET*
%MOMM*%
%LPD*%
G01*
G04 APERTURE LIST*
%ADD10R,1.400000X0.600000*%
%ADD11R,0.600000X1.400000*%
%ADD12R,1.400000X1.600000*%
%ADD13C,0.100000*%
%ADD14C,1.150000*%
%ADD15R,1.600000X0.850000*%
%ADD16R,0.850000X1.600000*%
G04 APERTURE END LIST*
D10*
G04 #@! TO.C,D_LED_1*
X120741750Y-69657750D03*
X120741750Y-70907750D03*
X115541750Y-70907750D03*
X115541750Y-69657750D03*
G04 #@! TD*
G04 #@! TO.C,D_LED_2*
X139791750Y-69657750D03*
X139791750Y-70907750D03*
X134591750Y-70907750D03*
X134591750Y-69657750D03*
G04 #@! TD*
G04 #@! TO.C,D_LED_3*
X158841750Y-69657750D03*
X158841750Y-70907750D03*
X153641750Y-70907750D03*
X153641750Y-69657750D03*
G04 #@! TD*
G04 #@! TO.C,D_LED_4*
X172691750Y-69657750D03*
X172691750Y-70907750D03*
X177891750Y-70907750D03*
X177891750Y-69657750D03*
G04 #@! TD*
G04 #@! TO.C,D_LED_5*
X120741750Y-88707750D03*
X120741750Y-89957750D03*
X115541750Y-89957750D03*
X115541750Y-88707750D03*
G04 #@! TD*
G04 #@! TO.C,D_LED_6*
X134591750Y-88707750D03*
X134591750Y-89957750D03*
X139791750Y-89957750D03*
X139791750Y-88707750D03*
G04 #@! TD*
G04 #@! TO.C,D_LED_7*
X153641750Y-88707750D03*
X153641750Y-89957750D03*
X158841750Y-89957750D03*
X158841750Y-88707750D03*
G04 #@! TD*
G04 #@! TO.C,D_LED_8*
X177891750Y-88707750D03*
X177891750Y-89957750D03*
X172691750Y-89957750D03*
X172691750Y-88707750D03*
G04 #@! TD*
G04 #@! TO.C,D_LED_9*
X115541750Y-107757750D03*
X115541750Y-109007750D03*
X120741750Y-109007750D03*
X120741750Y-107757750D03*
G04 #@! TD*
G04 #@! TO.C,D_LED_10*
X139791750Y-107757750D03*
X139791750Y-109007750D03*
X134591750Y-109007750D03*
X134591750Y-107757750D03*
G04 #@! TD*
G04 #@! TO.C,D_LED_11*
X158841750Y-107757750D03*
X158841750Y-109007750D03*
X153641750Y-109007750D03*
X153641750Y-107757750D03*
G04 #@! TD*
G04 #@! TO.C,D_LED_12*
X172691750Y-107757750D03*
X172691750Y-109007750D03*
X177891750Y-109007750D03*
X177891750Y-107757750D03*
G04 #@! TD*
G04 #@! TO.C,D_LED_13*
X120741750Y-126807750D03*
X120741750Y-128057750D03*
X115541750Y-128057750D03*
X115541750Y-126807750D03*
G04 #@! TD*
G04 #@! TO.C,D_LED_14*
X134591750Y-126807750D03*
X134591750Y-128057750D03*
X139791750Y-128057750D03*
X139791750Y-126807750D03*
G04 #@! TD*
G04 #@! TO.C,D_LED_15*
X153641750Y-126807750D03*
X153641750Y-128057750D03*
X158841750Y-128057750D03*
X158841750Y-126807750D03*
G04 #@! TD*
D11*
G04 #@! TO.C,D_LED_16*
X170818750Y-134458750D03*
X169568750Y-134458750D03*
X169568750Y-129258750D03*
X170818750Y-129258750D03*
G04 #@! TD*
D10*
G04 #@! TO.C,D_LED_17*
X115541750Y-145857750D03*
X115541750Y-147107750D03*
X120741750Y-147107750D03*
X120741750Y-145857750D03*
G04 #@! TD*
G04 #@! TO.C,D_LED_18*
X139791750Y-145857750D03*
X139791750Y-147107750D03*
X134591750Y-147107750D03*
X134591750Y-145857750D03*
G04 #@! TD*
G04 #@! TO.C,D_LED_19*
X158841750Y-145857750D03*
X158841750Y-147107750D03*
X153641750Y-147107750D03*
X153641750Y-145857750D03*
G04 #@! TD*
D12*
G04 #@! TO.C,J3*
X170630000Y-42890000D03*
X170630000Y-50890000D03*
X166130000Y-42890000D03*
X166130000Y-50890000D03*
G04 #@! TD*
D13*
G04 #@! TO.C,D9*
G36*
X121124505Y-133201204D02*
X121148773Y-133204804D01*
X121172572Y-133210765D01*
X121195671Y-133219030D01*
X121217850Y-133229520D01*
X121238893Y-133242132D01*
X121258599Y-133256747D01*
X121276777Y-133273223D01*
X121293253Y-133291401D01*
X121307868Y-133311107D01*
X121320480Y-133332150D01*
X121330970Y-133354329D01*
X121339235Y-133377428D01*
X121345196Y-133401227D01*
X121348796Y-133425495D01*
X121350000Y-133449999D01*
X121350000Y-134100001D01*
X121348796Y-134124505D01*
X121345196Y-134148773D01*
X121339235Y-134172572D01*
X121330970Y-134195671D01*
X121320480Y-134217850D01*
X121307868Y-134238893D01*
X121293253Y-134258599D01*
X121276777Y-134276777D01*
X121258599Y-134293253D01*
X121238893Y-134307868D01*
X121217850Y-134320480D01*
X121195671Y-134330970D01*
X121172572Y-134339235D01*
X121148773Y-134345196D01*
X121124505Y-134348796D01*
X121100001Y-134350000D01*
X120199999Y-134350000D01*
X120175495Y-134348796D01*
X120151227Y-134345196D01*
X120127428Y-134339235D01*
X120104329Y-134330970D01*
X120082150Y-134320480D01*
X120061107Y-134307868D01*
X120041401Y-134293253D01*
X120023223Y-134276777D01*
X120006747Y-134258599D01*
X119992132Y-134238893D01*
X119979520Y-134217850D01*
X119969030Y-134195671D01*
X119960765Y-134172572D01*
X119954804Y-134148773D01*
X119951204Y-134124505D01*
X119950000Y-134100001D01*
X119950000Y-133449999D01*
X119951204Y-133425495D01*
X119954804Y-133401227D01*
X119960765Y-133377428D01*
X119969030Y-133354329D01*
X119979520Y-133332150D01*
X119992132Y-133311107D01*
X120006747Y-133291401D01*
X120023223Y-133273223D01*
X120041401Y-133256747D01*
X120061107Y-133242132D01*
X120082150Y-133229520D01*
X120104329Y-133219030D01*
X120127428Y-133210765D01*
X120151227Y-133204804D01*
X120175495Y-133201204D01*
X120199999Y-133200000D01*
X121100001Y-133200000D01*
X121124505Y-133201204D01*
X121124505Y-133201204D01*
G37*
D14*
X120650000Y-133775000D03*
D13*
G36*
X121124505Y-131151204D02*
X121148773Y-131154804D01*
X121172572Y-131160765D01*
X121195671Y-131169030D01*
X121217850Y-131179520D01*
X121238893Y-131192132D01*
X121258599Y-131206747D01*
X121276777Y-131223223D01*
X121293253Y-131241401D01*
X121307868Y-131261107D01*
X121320480Y-131282150D01*
X121330970Y-131304329D01*
X121339235Y-131327428D01*
X121345196Y-131351227D01*
X121348796Y-131375495D01*
X121350000Y-131399999D01*
X121350000Y-132050001D01*
X121348796Y-132074505D01*
X121345196Y-132098773D01*
X121339235Y-132122572D01*
X121330970Y-132145671D01*
X121320480Y-132167850D01*
X121307868Y-132188893D01*
X121293253Y-132208599D01*
X121276777Y-132226777D01*
X121258599Y-132243253D01*
X121238893Y-132257868D01*
X121217850Y-132270480D01*
X121195671Y-132280970D01*
X121172572Y-132289235D01*
X121148773Y-132295196D01*
X121124505Y-132298796D01*
X121100001Y-132300000D01*
X120199999Y-132300000D01*
X120175495Y-132298796D01*
X120151227Y-132295196D01*
X120127428Y-132289235D01*
X120104329Y-132280970D01*
X120082150Y-132270480D01*
X120061107Y-132257868D01*
X120041401Y-132243253D01*
X120023223Y-132226777D01*
X120006747Y-132208599D01*
X119992132Y-132188893D01*
X119979520Y-132167850D01*
X119969030Y-132145671D01*
X119960765Y-132122572D01*
X119954804Y-132098773D01*
X119951204Y-132074505D01*
X119950000Y-132050001D01*
X119950000Y-131399999D01*
X119951204Y-131375495D01*
X119954804Y-131351227D01*
X119960765Y-131327428D01*
X119969030Y-131304329D01*
X119979520Y-131282150D01*
X119992132Y-131261107D01*
X120006747Y-131241401D01*
X120023223Y-131223223D01*
X120041401Y-131206747D01*
X120061107Y-131192132D01*
X120082150Y-131179520D01*
X120104329Y-131169030D01*
X120127428Y-131160765D01*
X120151227Y-131154804D01*
X120175495Y-131151204D01*
X120199999Y-131150000D01*
X121100001Y-131150000D01*
X121124505Y-131151204D01*
X121124505Y-131151204D01*
G37*
D14*
X120650000Y-131725000D03*
G04 #@! TD*
D13*
G04 #@! TO.C,D10*
G36*
X140274505Y-131151204D02*
X140298773Y-131154804D01*
X140322572Y-131160765D01*
X140345671Y-131169030D01*
X140367850Y-131179520D01*
X140388893Y-131192132D01*
X140408599Y-131206747D01*
X140426777Y-131223223D01*
X140443253Y-131241401D01*
X140457868Y-131261107D01*
X140470480Y-131282150D01*
X140480970Y-131304329D01*
X140489235Y-131327428D01*
X140495196Y-131351227D01*
X140498796Y-131375495D01*
X140500000Y-131399999D01*
X140500000Y-132050001D01*
X140498796Y-132074505D01*
X140495196Y-132098773D01*
X140489235Y-132122572D01*
X140480970Y-132145671D01*
X140470480Y-132167850D01*
X140457868Y-132188893D01*
X140443253Y-132208599D01*
X140426777Y-132226777D01*
X140408599Y-132243253D01*
X140388893Y-132257868D01*
X140367850Y-132270480D01*
X140345671Y-132280970D01*
X140322572Y-132289235D01*
X140298773Y-132295196D01*
X140274505Y-132298796D01*
X140250001Y-132300000D01*
X139349999Y-132300000D01*
X139325495Y-132298796D01*
X139301227Y-132295196D01*
X139277428Y-132289235D01*
X139254329Y-132280970D01*
X139232150Y-132270480D01*
X139211107Y-132257868D01*
X139191401Y-132243253D01*
X139173223Y-132226777D01*
X139156747Y-132208599D01*
X139142132Y-132188893D01*
X139129520Y-132167850D01*
X139119030Y-132145671D01*
X139110765Y-132122572D01*
X139104804Y-132098773D01*
X139101204Y-132074505D01*
X139100000Y-132050001D01*
X139100000Y-131399999D01*
X139101204Y-131375495D01*
X139104804Y-131351227D01*
X139110765Y-131327428D01*
X139119030Y-131304329D01*
X139129520Y-131282150D01*
X139142132Y-131261107D01*
X139156747Y-131241401D01*
X139173223Y-131223223D01*
X139191401Y-131206747D01*
X139211107Y-131192132D01*
X139232150Y-131179520D01*
X139254329Y-131169030D01*
X139277428Y-131160765D01*
X139301227Y-131154804D01*
X139325495Y-131151204D01*
X139349999Y-131150000D01*
X140250001Y-131150000D01*
X140274505Y-131151204D01*
X140274505Y-131151204D01*
G37*
D14*
X139800000Y-131725000D03*
D13*
G36*
X140274505Y-133201204D02*
X140298773Y-133204804D01*
X140322572Y-133210765D01*
X140345671Y-133219030D01*
X140367850Y-133229520D01*
X140388893Y-133242132D01*
X140408599Y-133256747D01*
X140426777Y-133273223D01*
X140443253Y-133291401D01*
X140457868Y-133311107D01*
X140470480Y-133332150D01*
X140480970Y-133354329D01*
X140489235Y-133377428D01*
X140495196Y-133401227D01*
X140498796Y-133425495D01*
X140500000Y-133449999D01*
X140500000Y-134100001D01*
X140498796Y-134124505D01*
X140495196Y-134148773D01*
X140489235Y-134172572D01*
X140480970Y-134195671D01*
X140470480Y-134217850D01*
X140457868Y-134238893D01*
X140443253Y-134258599D01*
X140426777Y-134276777D01*
X140408599Y-134293253D01*
X140388893Y-134307868D01*
X140367850Y-134320480D01*
X140345671Y-134330970D01*
X140322572Y-134339235D01*
X140298773Y-134345196D01*
X140274505Y-134348796D01*
X140250001Y-134350000D01*
X139349999Y-134350000D01*
X139325495Y-134348796D01*
X139301227Y-134345196D01*
X139277428Y-134339235D01*
X139254329Y-134330970D01*
X139232150Y-134320480D01*
X139211107Y-134307868D01*
X139191401Y-134293253D01*
X139173223Y-134276777D01*
X139156747Y-134258599D01*
X139142132Y-134238893D01*
X139129520Y-134217850D01*
X139119030Y-134195671D01*
X139110765Y-134172572D01*
X139104804Y-134148773D01*
X139101204Y-134124505D01*
X139100000Y-134100001D01*
X139100000Y-133449999D01*
X139101204Y-133425495D01*
X139104804Y-133401227D01*
X139110765Y-133377428D01*
X139119030Y-133354329D01*
X139129520Y-133332150D01*
X139142132Y-133311107D01*
X139156747Y-133291401D01*
X139173223Y-133273223D01*
X139191401Y-133256747D01*
X139211107Y-133242132D01*
X139232150Y-133229520D01*
X139254329Y-133219030D01*
X139277428Y-133210765D01*
X139301227Y-133204804D01*
X139325495Y-133201204D01*
X139349999Y-133200000D01*
X140250001Y-133200000D01*
X140274505Y-133201204D01*
X140274505Y-133201204D01*
G37*
D14*
X139800000Y-133775000D03*
G04 #@! TD*
D13*
G04 #@! TO.C,D11*
G36*
X159324505Y-131251204D02*
X159348773Y-131254804D01*
X159372572Y-131260765D01*
X159395671Y-131269030D01*
X159417850Y-131279520D01*
X159438893Y-131292132D01*
X159458599Y-131306747D01*
X159476777Y-131323223D01*
X159493253Y-131341401D01*
X159507868Y-131361107D01*
X159520480Y-131382150D01*
X159530970Y-131404329D01*
X159539235Y-131427428D01*
X159545196Y-131451227D01*
X159548796Y-131475495D01*
X159550000Y-131499999D01*
X159550000Y-132150001D01*
X159548796Y-132174505D01*
X159545196Y-132198773D01*
X159539235Y-132222572D01*
X159530970Y-132245671D01*
X159520480Y-132267850D01*
X159507868Y-132288893D01*
X159493253Y-132308599D01*
X159476777Y-132326777D01*
X159458599Y-132343253D01*
X159438893Y-132357868D01*
X159417850Y-132370480D01*
X159395671Y-132380970D01*
X159372572Y-132389235D01*
X159348773Y-132395196D01*
X159324505Y-132398796D01*
X159300001Y-132400000D01*
X158399999Y-132400000D01*
X158375495Y-132398796D01*
X158351227Y-132395196D01*
X158327428Y-132389235D01*
X158304329Y-132380970D01*
X158282150Y-132370480D01*
X158261107Y-132357868D01*
X158241401Y-132343253D01*
X158223223Y-132326777D01*
X158206747Y-132308599D01*
X158192132Y-132288893D01*
X158179520Y-132267850D01*
X158169030Y-132245671D01*
X158160765Y-132222572D01*
X158154804Y-132198773D01*
X158151204Y-132174505D01*
X158150000Y-132150001D01*
X158150000Y-131499999D01*
X158151204Y-131475495D01*
X158154804Y-131451227D01*
X158160765Y-131427428D01*
X158169030Y-131404329D01*
X158179520Y-131382150D01*
X158192132Y-131361107D01*
X158206747Y-131341401D01*
X158223223Y-131323223D01*
X158241401Y-131306747D01*
X158261107Y-131292132D01*
X158282150Y-131279520D01*
X158304329Y-131269030D01*
X158327428Y-131260765D01*
X158351227Y-131254804D01*
X158375495Y-131251204D01*
X158399999Y-131250000D01*
X159300001Y-131250000D01*
X159324505Y-131251204D01*
X159324505Y-131251204D01*
G37*
D14*
X158850000Y-131825000D03*
D13*
G36*
X159324505Y-133301204D02*
X159348773Y-133304804D01*
X159372572Y-133310765D01*
X159395671Y-133319030D01*
X159417850Y-133329520D01*
X159438893Y-133342132D01*
X159458599Y-133356747D01*
X159476777Y-133373223D01*
X159493253Y-133391401D01*
X159507868Y-133411107D01*
X159520480Y-133432150D01*
X159530970Y-133454329D01*
X159539235Y-133477428D01*
X159545196Y-133501227D01*
X159548796Y-133525495D01*
X159550000Y-133549999D01*
X159550000Y-134200001D01*
X159548796Y-134224505D01*
X159545196Y-134248773D01*
X159539235Y-134272572D01*
X159530970Y-134295671D01*
X159520480Y-134317850D01*
X159507868Y-134338893D01*
X159493253Y-134358599D01*
X159476777Y-134376777D01*
X159458599Y-134393253D01*
X159438893Y-134407868D01*
X159417850Y-134420480D01*
X159395671Y-134430970D01*
X159372572Y-134439235D01*
X159348773Y-134445196D01*
X159324505Y-134448796D01*
X159300001Y-134450000D01*
X158399999Y-134450000D01*
X158375495Y-134448796D01*
X158351227Y-134445196D01*
X158327428Y-134439235D01*
X158304329Y-134430970D01*
X158282150Y-134420480D01*
X158261107Y-134407868D01*
X158241401Y-134393253D01*
X158223223Y-134376777D01*
X158206747Y-134358599D01*
X158192132Y-134338893D01*
X158179520Y-134317850D01*
X158169030Y-134295671D01*
X158160765Y-134272572D01*
X158154804Y-134248773D01*
X158151204Y-134224505D01*
X158150000Y-134200001D01*
X158150000Y-133549999D01*
X158151204Y-133525495D01*
X158154804Y-133501227D01*
X158160765Y-133477428D01*
X158169030Y-133454329D01*
X158179520Y-133432150D01*
X158192132Y-133411107D01*
X158206747Y-133391401D01*
X158223223Y-133373223D01*
X158241401Y-133356747D01*
X158261107Y-133342132D01*
X158282150Y-133329520D01*
X158304329Y-133319030D01*
X158327428Y-133310765D01*
X158351227Y-133304804D01*
X158375495Y-133301204D01*
X158399999Y-133300000D01*
X159300001Y-133300000D01*
X159324505Y-133301204D01*
X159324505Y-133301204D01*
G37*
D14*
X158850000Y-133875000D03*
G04 #@! TD*
D15*
G04 #@! TO.C,D13*
X177750000Y-41175000D03*
X177750000Y-39425000D03*
X181250000Y-41175000D03*
X181250000Y-39425000D03*
G04 #@! TD*
G04 #@! TO.C,D14*
X116350000Y-39275000D03*
X116350000Y-41025000D03*
X112850000Y-39275000D03*
X112850000Y-41025000D03*
G04 #@! TD*
D16*
G04 #@! TO.C,D16*
X112575000Y-95850000D03*
X110825000Y-95850000D03*
X112575000Y-92350000D03*
X110825000Y-92350000D03*
G04 #@! TD*
G04 #@! TO.C,D18*
X112350000Y-144775000D03*
X110600000Y-144775000D03*
X112350000Y-141275000D03*
X110600000Y-141275000D03*
G04 #@! TD*
G04 #@! TO.C,D21*
X180450000Y-140775000D03*
X178700000Y-140775000D03*
X180450000Y-137275000D03*
X178700000Y-137275000D03*
G04 #@! TD*
G04 #@! TO.C,D23*
X182025000Y-94200000D03*
X180275000Y-94200000D03*
X182025000Y-90700000D03*
X180275000Y-90700000D03*
G04 #@! TD*
M02*
