M48
;DRILL file {KiCad 5.0.1} date Tue 15 Jan 2019 04:18:40 PM CET
;FORMAT={-:-/ absolute / metric / decimal}
FMAT,2
METRIC,TZ
T1C0.300
T2C0.400
T3C0.500
T4C0.600
T5C1.500
%
G90
G05
M71
T1
X111.Y-46.
X112.8Y-48.6
X112.9Y-42.525
X113.Y-88.72
X113.221Y-131.849
X113.45Y-109.5
X113.52Y-125.78
X113.8Y-147.45
X113.828Y-45.9
X113.88Y-145.86
X114.01Y-69.67
X114.17Y-131.038
X115.11Y-64.66
X115.7Y-48.9
X115.73Y-106.01
X116.2Y-47.4
X116.6Y-50.4
X116.712Y-46.702
X116.79Y-60.28
X117.Y-48.102
X117.72Y-98.34
X117.98Y-118.7
X118.02Y-80.09
X118.02Y-137.38
X118.2Y-52.
X119.Y-52.2
X119.7Y-91.92
X119.8Y-52.4
X119.91Y-110.99
X120.27Y-130.02
X120.4Y-54.8
X120.74Y-90.912
X120.74Y-109.962
X120.74Y-129.012
X120.742Y-87.73
X120.742Y-106.66
X120.742Y-125.71
X121.24Y-72.88
X121.26Y-66.41
X121.771Y-69.174
X122.15Y-71.91
X122.4Y-40.685
X124.Y-51.3
X126.Y-70.95
X126.445Y-50.702
X126.47Y-103.28
X126.6Y-45.4
X127.29Y-49.09
X127.42Y-50.23
X127.5Y-91.92
X127.611Y-51.561
X128.15Y-110.99
X128.283Y-39.5
X128.716Y-49.048
X128.85Y-128.1
X129.45Y-48.73
X129.84Y-144.13
X130.084Y-49.256
X130.141Y-59.869
X130.141Y-76.319
X130.161Y-73.349
X130.161Y-111.199
X130.191Y-114.269
X130.73Y-45.02
X130.73Y-48.72
X131.88Y-130.76
X131.88Y-133.03
X132.56Y-89.96
X132.65Y-70.92
X132.66Y-109.01
X132.72Y-128.06
X132.9Y-147.088
X134.1Y-64.7
X134.5Y-106.19
X135.715Y-53.95
X135.9Y-52.75
X135.91Y-98.51
X136.48Y-46.18
X136.675Y-47.25
X137.17Y-80.53
X137.2Y-54.5
X137.21Y-137.38
X137.3Y-118.49
X137.34Y-59.73
X138.96Y-91.93
X139.19Y-130.04
X139.32Y-111.
X139.79Y-90.912
X139.79Y-125.73
X139.79Y-129.07
X139.792Y-87.6
X139.792Y-106.51
X139.8Y-109.962
X140.4Y-47.425
X140.41Y-72.76
X141.125Y-48.625
X141.56Y-71.95
X141.58Y-69.64
X142.05Y-37.45
X142.75Y-46.9
X143.4Y-56.45
X143.482Y-46.917
X144.042Y-57.175
X144.05Y-55.75
X144.78Y-93.66
X145.81Y-92.53
X146.03Y-93.67
X146.8Y-97.85
X148.75Y-46.
X149.191Y-76.099
X149.191Y-111.389
X149.201Y-114.289
X149.24Y-64.18
X149.24Y-71.75
X149.24Y-73.541
X149.25Y-59.85
X150.316Y-130.659
X150.349Y-132.599
X151.Y-49.25
X151.Y-51.5
X151.5Y-65.75
X151.72Y-89.95
X151.84Y-70.9
X151.84Y-128.04
X151.92Y-109.
X151.92Y-147.1
X152.081Y-45.991
X153.27Y-64.61
X153.861Y-106.35
X153.931Y-44.991
X155.9Y-48.2
X156.11Y-98.08
X156.15Y-137.59
X156.19Y-79.49
X156.24Y-118.96
X158.Y-42.8
X158.24Y-91.55
X158.34Y-110.99
X158.35Y-130.04
X158.761Y-109.962
X158.842Y-87.439
X158.842Y-106.78
X158.842Y-125.699
X158.861Y-90.912
X158.873Y-128.9
X159.58Y-72.79
X160.62Y-69.63
X160.64Y-71.96
X161.5Y-61.2
X161.79Y-43.5
X164.149Y-62.643
X164.271Y-120.7
X164.5Y-42.5
X164.5Y-48.5
X164.93Y-81.693
X165.92Y-100.75
X167.03Y-116.41
X167.2Y-138.95
X167.8Y-47.6
X167.98Y-50.89
X168.16Y-73.571
X168.171Y-76.139
X168.171Y-111.409
X168.423Y-55.321
X168.46Y-56.39
X168.5Y-129.26
X168.689Y-44.52
X168.981Y-93.09
X170.6Y-67.6
X170.73Y-89.96
X170.74Y-70.9
X171.1Y-109.01
X171.137Y-54.816
X171.94Y-55.58
X172.39Y-64.54
X172.59Y-106.15
X172.75Y-42.75
X172.757Y-56.399
X173.586Y-42.75
X175.13Y-92.05
X175.22Y-111.34
X175.26Y-80.99
X175.95Y-39.7
X176.02Y-49.32
X177.89Y-90.912
X177.89Y-109.962
X177.892Y-87.6
X177.892Y-106.77
X178.55Y-95.25
X179.54Y-69.65
X179.54Y-71.96
T2
X148.1Y-44.225
X139.9Y-44.525
X140.3Y-43.825
X141.1Y-43.825
X141.5Y-44.525
X141.9Y-43.825
X142.3Y-44.525
X143.1Y-44.525
X143.5Y-43.825
X143.9Y-44.525
X144.3Y-43.825
X145.1Y-43.825
X145.5Y-44.525
T3
X140.7Y-49.6
X141.7Y-49.6
X142.7Y-49.6
X143.7Y-49.6
T5
X152.432Y-119.793
X158.782Y-117.253
X152.432Y-81.693
X158.782Y-79.153
X114.332Y-138.843
X120.682Y-136.303
X114.332Y-119.793
X120.682Y-117.253
X171.482Y-62.643
X177.832Y-60.103
X171.482Y-100.743
X177.832Y-98.203
X177.834Y-128.049
X180.374Y-134.399
X152.432Y-100.743
X158.782Y-98.203
X152.432Y-138.843
X158.782Y-136.303
X114.332Y-62.643
X120.682Y-60.103
X133.382Y-100.743
X139.732Y-98.203
X152.432Y-62.643
X158.782Y-60.103
X133.382Y-138.843
X139.732Y-136.303
X133.382Y-81.693
X139.732Y-79.153
X114.332Y-100.743
X120.682Y-98.203
X133.382Y-119.793
X139.732Y-117.253
X171.482Y-81.693
X177.832Y-79.153
X114.332Y-81.693
X120.682Y-79.153
X133.382Y-62.643
X139.732Y-60.103
T4
X138.43Y-38.945G85X138.43Y-38.345
G05
X138.43Y-43.675G85X138.43Y-43.075
G05
X146.97Y-38.945G85X146.97Y-38.345
G05
X146.97Y-43.675G85X146.97Y-43.075
G05
T0
M30
